{
    "header": {
      "keySignatures": [
        {
          "key": "D",
          "scale": "major",
          "ticks": 0
        }
      ],
      "meta": [],
      "name": "",
      "ppq": 960,
      "tempos": [
        {
          "bpm": 42.00001260000378,
          "ticks": 0
        },
        {
          "bpm": 41.00001776667437,
          "ticks": 205440
        },
        {
          "bpm": 40,
          "ticks": 207360
        },
        {
          "bpm": 39.000039000039,
          "ticks": 209280
        },
        {
          "bpm": 38.000008866668736,
          "ticks": 210720
        },
        {
          "bpm": 37.00001418333877,
          "ticks": 211680
        },
        {
          "bpm": 36.00001440000576,
          "ticks": 212640
        },
        {
          "bpm": 35.00001458333941,
          "ticks": 213600
        },
        {
          "bpm": 34.0000170000085,
          "ticks": 214080
        },
        {
          "bpm": 32,
          "ticks": 214560
        },
        {
          "bpm": 18.00000180000018,
          "ticks": 215040
        },
        {
          "bpm": 50,
          "ticks": 216000
        }
      ],
      "timeSignatures": [
        {
          "ticks": 0,
          "timeSignature": [
            4,
            4
          ],
          "measures": 0
        }
      ]
    },
    "tracks": [
      {
        "channel": 2,
        "controlChanges": {
          "7": [
            {
              "number": 7,
              "ticks": 0,
              "time": 0,
              "value": 0.8976377952755905
            }
          ],
          "10": [
            {
              "number": 10,
              "ticks": 0,
              "time": 0,
              "value": 0.12598425196850394
            }
          ],
          "64": [
            {
              "number": 64,
              "ticks": 0,
              "time": 0,
              "value": 0
            }
          ],
          "121": [
            {
              "number": 121,
              "ticks": 0,
              "time": 0,
              "value": 0
            }
          ]
        },
        "pitchBends": [],
        "instrument": {
          "family": "strings",
          "number": 40,
          "name": "violin"
        },
        "name": "Violin 1",
        "notes": [
          {
            "duration": 1.456844801041667,
            "durationTicks": 979,
            "midi": 78,
            "name": "F#5",
            "ticks": 7680,
            "time": 11.428568,
            "velocity": 0.4409448818897638
          },
          {
            "duration": 1.456844801041667,
            "durationTicks": 979,
            "midi": 76,
            "name": "E5",
            "ticks": 8640,
            "time": 12.857139,
            "velocity": 0.41732283464566927
          },
          {
            "duration": 1.456844801041667,
            "durationTicks": 979,
            "midi": 74,
            "name": "D5",
            "ticks": 9600,
            "time": 14.28571,
            "velocity": 0.47244094488188976
          },
          {
            "duration": 1.4568448010416688,
            "durationTicks": 979,
            "midi": 73,
            "name": "C#5",
            "ticks": 10560,
            "time": 15.714281,
            "velocity": 0.4645669291338583
          },
          {
            "duration": 1.4568448010416652,
            "durationTicks": 979,
            "midi": 71,
            "name": "B4",
            "ticks": 11520,
            "time": 17.142852,
            "velocity": 0.4645669291338583
          },
          {
            "duration": 1.4568448010416688,
            "durationTicks": 979,
            "midi": 69,
            "name": "A4",
            "ticks": 12480,
            "time": 18.571423,
            "velocity": 0.4409448818897638
          },
          {
            "duration": 1.4568448010416652,
            "durationTicks": 979,
            "midi": 71,
            "name": "B4",
            "ticks": 13440,
            "time": 19.999994,
            "velocity": 0.49606299212598426
          },
          {
            "duration": 1.3556543552083369,
            "durationTicks": 911,
            "midi": 73,
            "name": "C#5",
            "ticks": 14400,
            "time": 21.428565,
            "velocity": 0.5354330708661418
          },
          {
            "duration": 1.2886900895833335,
            "durationTicks": 866,
            "midi": 74,
            "name": "D5",
            "ticks": 15360,
            "time": 22.857136,
            "velocity": 0.4881889763779528
          },
          {
            "duration": 1.2886900895833335,
            "durationTicks": 866,
            "midi": 73,
            "name": "C#5",
            "ticks": 16320,
            "time": 24.285707000000002,
            "velocity": 0.4566929133858268
          },
          {
            "duration": 1.2886900895833335,
            "durationTicks": 866,
            "midi": 71,
            "name": "B4",
            "ticks": 17280,
            "time": 25.714278,
            "velocity": 0.4566929133858268
          },
          {
            "duration": 1.2886900895833335,
            "durationTicks": 866,
            "midi": 69,
            "name": "A4",
            "ticks": 18240,
            "time": 27.142849000000002,
            "velocity": 0.4645669291338583
          },
          {
            "duration": 1.2886900895833335,
            "durationTicks": 866,
            "midi": 67,
            "name": "G4",
            "ticks": 19200,
            "time": 28.57142,
            "velocity": 0.47244094488188976
          },
          {
            "duration": 1.2886900895833335,
            "durationTicks": 866,
            "midi": 66,
            "name": "F#4",
            "ticks": 20160,
            "time": 29.999991,
            "velocity": 0.41732283464566927
          },
          {
            "duration": 1.2886900895833335,
            "durationTicks": 866,
            "midi": 67,
            "name": "G4",
            "ticks": 21120,
            "time": 31.428562,
            "velocity": 0.36220472440944884
          },
          {
            "duration": 1.2886900895833335,
            "durationTicks": 866,
            "midi": 64,
            "name": "E4",
            "ticks": 22080,
            "time": 32.857133,
            "velocity": 0.2992125984251969
          },
          {
            "duration": 0.7261902583333324,
            "durationTicks": 488,
            "midi": 62,
            "name": "D4",
            "ticks": 23040,
            "time": 34.285704,
            "velocity": 0.5433070866141733
          },
          {
            "duration": 0.67559503541667,
            "durationTicks": 454,
            "midi": 66,
            "name": "F#4",
            "ticks": 23520,
            "time": 34.9999895,
            "velocity": 0.5748031496062992
          },
          {
            "duration": 0.7261902583333324,
            "durationTicks": 488,
            "midi": 69,
            "name": "A4",
            "ticks": 24000,
            "time": 35.714275,
            "velocity": 0.5826771653543307
          },
          {
            "duration": 0.6755950354166629,
            "durationTicks": 454,
            "midi": 67,
            "name": "G4",
            "ticks": 24480,
            "time": 36.4285605,
            "velocity": 0.5826771653543307
          },
          {
            "duration": 0.7261902583333324,
            "durationTicks": 488,
            "midi": 66,
            "name": "F#4",
            "ticks": 24960,
            "time": 37.142846,
            "velocity": 0.5433070866141733
          },
          {
            "duration": 0.6755950354166629,
            "durationTicks": 454,
            "midi": 62,
            "name": "D4",
            "ticks": 25440,
            "time": 37.8571315,
            "velocity": 0.5275590551181102
          },
          {
            "duration": 0.7261902583333324,
            "durationTicks": 488,
            "midi": 66,
            "name": "F#4",
            "ticks": 25920,
            "time": 38.571417000000004,
            "velocity": 0.5826771653543307
          },
          {
            "duration": 0.67559503541667,
            "durationTicks": 454,
            "midi": 64,
            "name": "E4",
            "ticks": 26400,
            "time": 39.2857025,
            "velocity": 0.5511811023622047
          },
          {
            "duration": 0.7261902583333324,
            "durationTicks": 488,
            "midi": 62,
            "name": "D4",
            "ticks": 26880,
            "time": 39.999988,
            "velocity": 0.5196850393700787
          },
          {
            "duration": 0.6755950354166629,
            "durationTicks": 454,
            "midi": 59,
            "name": "B3",
            "ticks": 27360,
            "time": 40.714273500000004,
            "velocity": 0.5196850393700787
          },
          {
            "duration": 0.7261902583333324,
            "durationTicks": 488,
            "midi": 62,
            "name": "D4",
            "ticks": 27840,
            "time": 41.428559,
            "velocity": 0.5826771653543307
          },
          {
            "duration": 0.6755950354166629,
            "durationTicks": 454,
            "midi": 69,
            "name": "A4",
            "ticks": 28320,
            "time": 42.1428445,
            "velocity": 0.6456692913385826
          },
          {
            "duration": 0.7261902583333324,
            "durationTicks": 488,
            "midi": 67,
            "name": "G4",
            "ticks": 28800,
            "time": 42.85713,
            "velocity": 0.5354330708661418
          },
          {
            "duration": 0.67559503541667,
            "durationTicks": 454,
            "midi": 71,
            "name": "B4",
            "ticks": 29280,
            "time": 43.5714155,
            "velocity": 0.5511811023622047
          },
          {
            "duration": 0.7261902583333324,
            "durationTicks": 488,
            "midi": 69,
            "name": "A4",
            "ticks": 29760,
            "time": 44.285701,
            "velocity": 0.5433070866141733
          },
          {
            "duration": 0.67559503541667,
            "durationTicks": 454,
            "midi": 67,
            "name": "G4",
            "ticks": 30240,
            "time": 44.9999865,
            "velocity": 0.5433070866141733
          },
          {
            "duration": 0.7261902583333324,
            "durationTicks": 488,
            "midi": 66,
            "name": "F#4",
            "ticks": 30720,
            "time": 45.714272,
            "velocity": 0.5511811023622047
          },
          {
            "duration": 0.67559503541667,
            "durationTicks": 454,
            "midi": 62,
            "name": "D4",
            "ticks": 31200,
            "time": 46.428557500000004,
            "velocity": 0.5118110236220472
          },
          {
            "duration": 0.7261902583333324,
            "durationTicks": 488,
            "midi": 64,
            "name": "E4",
            "ticks": 31680,
            "time": 47.142843,
            "velocity": 0.5905511811023622
          },
          {
            "duration": 0.67559503541667,
            "durationTicks": 454,
            "midi": 73,
            "name": "C#5",
            "ticks": 32160,
            "time": 47.8571285,
            "velocity": 0.6299212598425197
          },
          {
            "duration": 0.7261902583333324,
            "durationTicks": 488,
            "midi": 74,
            "name": "D5",
            "ticks": 32640,
            "time": 48.571414000000004,
            "velocity": 0.6062992125984252
          },
          {
            "duration": 0.67559503541667,
            "durationTicks": 454,
            "midi": 78,
            "name": "F#5",
            "ticks": 33120,
            "time": 49.2856995,
            "velocity": 0.6062992125984252
          },
          {
            "duration": 0.7261902583333324,
            "durationTicks": 488,
            "midi": 81,
            "name": "A5",
            "ticks": 33600,
            "time": 49.999985,
            "velocity": 0.6141732283464567
          },
          {
            "duration": 0.6755950354166771,
            "durationTicks": 454,
            "midi": 69,
            "name": "A4",
            "ticks": 34080,
            "time": 50.7142705,
            "velocity": 0.5118110236220472
          },
          {
            "duration": 0.7261902583333324,
            "durationTicks": 488,
            "midi": 71,
            "name": "B4",
            "ticks": 34560,
            "time": 51.428556,
            "velocity": 0.6141732283464567
          },
          {
            "duration": 0.67559503541667,
            "durationTicks": 454,
            "midi": 67,
            "name": "G4",
            "ticks": 35040,
            "time": 52.1428415,
            "velocity": 0.5905511811023622
          },
          {
            "duration": 0.7261902583333324,
            "durationTicks": 488,
            "midi": 69,
            "name": "A4",
            "ticks": 35520,
            "time": 52.857127,
            "velocity": 0.6299212598425197
          },
          {
            "duration": 0.67559503541667,
            "durationTicks": 454,
            "midi": 66,
            "name": "F#4",
            "ticks": 36000,
            "time": 53.5714125,
            "velocity": 0.6141732283464567
          },
          {
            "duration": 0.7261902583333324,
            "durationTicks": 488,
            "midi": 62,
            "name": "D4",
            "ticks": 36480,
            "time": 54.285698000000004,
            "velocity": 0.5905511811023622
          },
          {
            "duration": 0.6755950354166771,
            "durationTicks": 454,
            "midi": 74,
            "name": "D5",
            "ticks": 36960,
            "time": 54.9999835,
            "velocity": 0.7244094488188977
          },
          {
            "duration": 0.9657735197916679,
            "durationTicks": 649,
            "midi": 74,
            "name": "D5",
            "ticks": 37440,
            "time": 55.714269,
            "velocity": 0.6692913385826772
          },
          {
            "duration": 0.3244046645833336,
            "durationTicks": 218,
            "midi": 73,
            "name": "C#5",
            "ticks": 38160,
            "time": 56.78569725,
            "velocity": 0.6456692913385826
          },
          {
            "duration": 0.3244046645833336,
            "durationTicks": 218,
            "midi": 74,
            "name": "D5",
            "ticks": 38400,
            "time": 57.14284,
            "velocity": 0.7007874015748031
          },
          {
            "duration": 0.3244046645833336,
            "durationTicks": 218,
            "midi": 73,
            "name": "C#5",
            "ticks": 38640,
            "time": 57.49998275,
            "velocity": 0.6456692913385826
          },
          {
            "duration": 0.3244046645833336,
            "durationTicks": 218,
            "midi": 74,
            "name": "D5",
            "ticks": 38880,
            "time": 57.8571255,
            "velocity": 0.6771653543307087
          },
          {
            "duration": 0.3244046645833336,
            "durationTicks": 218,
            "midi": 62,
            "name": "D4",
            "ticks": 39120,
            "time": 58.21426825,
            "velocity": 0.5590551181102362
          },
          {
            "duration": 0.3244046645833265,
            "durationTicks": 218,
            "midi": 61,
            "name": "C#4",
            "ticks": 39360,
            "time": 58.571411000000005,
            "velocity": 0.6220472440944882
          },
          {
            "duration": 0.3244046645833336,
            "durationTicks": 218,
            "midi": 69,
            "name": "A4",
            "ticks": 39600,
            "time": 58.92855375,
            "velocity": 0.7322834645669292
          },
          {
            "duration": 0.3244046645833336,
            "durationTicks": 218,
            "midi": 64,
            "name": "E4",
            "ticks": 39840,
            "time": 59.2856965,
            "velocity": 0.6141732283464567
          },
          {
            "duration": 0.3244046645833336,
            "durationTicks": 218,
            "midi": 66,
            "name": "F#4",
            "ticks": 40080,
            "time": 59.64283925,
            "velocity": 0.7007874015748031
          },
          {
            "duration": 0.3244046645833336,
            "durationTicks": 218,
            "midi": 62,
            "name": "D4",
            "ticks": 40320,
            "time": 59.999982,
            "velocity": 0.6456692913385826
          },
          {
            "duration": 0.3244046645833265,
            "durationTicks": 218,
            "midi": 74,
            "name": "D5",
            "ticks": 40560,
            "time": 60.357124750000004,
            "velocity": 0.7795275590551181
          },
          {
            "duration": 0.3244046645833336,
            "durationTicks": 218,
            "midi": 73,
            "name": "C#5",
            "ticks": 40800,
            "time": 60.7142675,
            "velocity": 0.6771653543307087
          },
          {
            "duration": 0.3244046645833336,
            "durationTicks": 218,
            "midi": 71,
            "name": "B4",
            "ticks": 41040,
            "time": 61.07141025,
            "velocity": 0.6850393700787402
          },
          {
            "duration": 0.3244046645833336,
            "durationTicks": 218,
            "midi": 73,
            "name": "C#5",
            "ticks": 41280,
            "time": 61.428553,
            "velocity": 0.7244094488188977
          },
          {
            "duration": 0.3244046645833336,
            "durationTicks": 218,
            "midi": 78,
            "name": "F#5",
            "ticks": 41520,
            "time": 61.78569575,
            "velocity": 0.7559055118110236
          },
          {
            "duration": 0.3244046645833336,
            "durationTicks": 218,
            "midi": 81,
            "name": "A5",
            "ticks": 41760,
            "time": 62.1428385,
            "velocity": 0.7480314960629921
          },
          {
            "duration": 0.3244046645833265,
            "durationTicks": 218,
            "midi": 83,
            "name": "B5",
            "ticks": 42000,
            "time": 62.499981250000005,
            "velocity": 0.7559055118110236
          },
          {
            "duration": 0.3244046645833336,
            "durationTicks": 218,
            "midi": 79,
            "name": "G5",
            "ticks": 42240,
            "time": 62.857124,
            "velocity": 0.6850393700787402
          },
          {
            "duration": 0.3244046645833336,
            "durationTicks": 218,
            "midi": 78,
            "name": "F#5",
            "ticks": 42480,
            "time": 63.21426675,
            "velocity": 0.7244094488188977
          },
          {
            "duration": 0.3244046645833336,
            "durationTicks": 218,
            "midi": 76,
            "name": "E5",
            "ticks": 42720,
            "time": 63.5714095,
            "velocity": 0.7244094488188977
          },
          {
            "duration": 0.3244046645833336,
            "durationTicks": 218,
            "midi": 79,
            "name": "G5",
            "ticks": 42960,
            "time": 63.92855225,
            "velocity": 0.7795275590551181
          },
          {
            "duration": 0.3244046645833265,
            "durationTicks": 218,
            "midi": 78,
            "name": "F#5",
            "ticks": 43200,
            "time": 64.285695,
            "velocity": 0.7559055118110236
          },
          {
            "duration": 0.3244046645833407,
            "durationTicks": 218,
            "midi": 76,
            "name": "E5",
            "ticks": 43440,
            "time": 64.64283775,
            "velocity": 0.7401574803149606
          },
          {
            "duration": 0.3244046645833265,
            "durationTicks": 218,
            "midi": 74,
            "name": "D5",
            "ticks": 43680,
            "time": 64.9999805,
            "velocity": 0.7244094488188977
          },
          {
            "duration": 0.3244046645833265,
            "durationTicks": 218,
            "midi": 73,
            "name": "C#5",
            "ticks": 43920,
            "time": 65.35712325,
            "velocity": 0.7244094488188977
          },
          {
            "duration": 0.3244046645833407,
            "durationTicks": 218,
            "midi": 71,
            "name": "B4",
            "ticks": 44160,
            "time": 65.714266,
            "velocity": 0.7165354330708661
          },
          {
            "duration": 0.3244046645833265,
            "durationTicks": 218,
            "midi": 69,
            "name": "A4",
            "ticks": 44400,
            "time": 66.07140875,
            "velocity": 0.6692913385826772
          },
          {
            "duration": 0.3244046645833407,
            "durationTicks": 218,
            "midi": 67,
            "name": "G4",
            "ticks": 44640,
            "time": 66.4285515,
            "velocity": 0.6850393700787402
          },
          {
            "duration": 0.3244046645833265,
            "durationTicks": 218,
            "midi": 66,
            "name": "F#4",
            "ticks": 44880,
            "time": 66.78569425,
            "velocity": 0.6535433070866141
          },
          {
            "duration": 0.3244046645833407,
            "durationTicks": 218,
            "midi": 64,
            "name": "E4",
            "ticks": 45120,
            "time": 67.142837,
            "velocity": 0.6456692913385826
          },
          {
            "duration": 0.3244046645833265,
            "durationTicks": 218,
            "midi": 67,
            "name": "G4",
            "ticks": 45360,
            "time": 67.49997975000001,
            "velocity": 0.6771653543307087
          },
          {
            "duration": 0.3244046645833265,
            "durationTicks": 218,
            "midi": 66,
            "name": "F#4",
            "ticks": 45600,
            "time": 67.8571225,
            "velocity": 0.6299212598425197
          },
          {
            "duration": 0.3244046645833407,
            "durationTicks": 218,
            "midi": 64,
            "name": "E4",
            "ticks": 45840,
            "time": 68.21426525,
            "velocity": 0.6141732283464567
          },
          {
            "duration": 0.3244046645833265,
            "durationTicks": 218,
            "midi": 62,
            "name": "D4",
            "ticks": 46080,
            "time": 68.571408,
            "velocity": 0.6141732283464567
          },
          {
            "duration": 0.3244046645833407,
            "durationTicks": 218,
            "midi": 64,
            "name": "E4",
            "ticks": 46320,
            "time": 68.92855075,
            "velocity": 0.6220472440944882
          },
          {
            "duration": 0.3244046645833265,
            "durationTicks": 218,
            "midi": 66,
            "name": "F#4",
            "ticks": 46560,
            "time": 69.28569350000001,
            "velocity": 0.6220472440944882
          },
          {
            "duration": 0.3244046645833265,
            "durationTicks": 218,
            "midi": 67,
            "name": "G4",
            "ticks": 46800,
            "time": 69.64283625,
            "velocity": 0.5984251968503937
          },
          {
            "duration": 0.3244046645833407,
            "durationTicks": 218,
            "midi": 69,
            "name": "A4",
            "ticks": 47040,
            "time": 69.999979,
            "velocity": 0.5748031496062992
          },
          {
            "duration": 0.3244046645833265,
            "durationTicks": 218,
            "midi": 64,
            "name": "E4",
            "ticks": 47280,
            "time": 70.35712175,
            "velocity": 0.5275590551181102
          },
          {
            "duration": 0.3244046645833407,
            "durationTicks": 218,
            "midi": 69,
            "name": "A4",
            "ticks": 47520,
            "time": 70.7142645,
            "velocity": 0.5826771653543307
          },
          {
            "duration": 0.3244046645833265,
            "durationTicks": 218,
            "midi": 67,
            "name": "G4",
            "ticks": 47760,
            "time": 71.07140725000001,
            "velocity": 0.5511811023622047
          },
          {
            "duration": 0.3244046645833265,
            "durationTicks": 218,
            "midi": 66,
            "name": "F#4",
            "ticks": 48000,
            "time": 71.42855,
            "velocity": 0.5590551181102362
          },
          {
            "duration": 0.3244046645833407,
            "durationTicks": 218,
            "midi": 71,
            "name": "B4",
            "ticks": 48240,
            "time": 71.78569275,
            "velocity": 0.5826771653543307
          },
          {
            "duration": 0.3244046645833265,
            "durationTicks": 218,
            "midi": 69,
            "name": "A4",
            "ticks": 48480,
            "time": 72.1428355,
            "velocity": 0.5590551181102362
          },
          {
            "duration": 0.3244046645833407,
            "durationTicks": 218,
            "midi": 67,
            "name": "G4",
            "ticks": 48720,
            "time": 72.49997825,
            "velocity": 0.5590551181102362
          },
          {
            "duration": 0.3244046645833265,
            "durationTicks": 218,
            "midi": 69,
            "name": "A4",
            "ticks": 48960,
            "time": 72.857121,
            "velocity": 0.5669291338582677
          },
          {
            "duration": 0.3244046645833407,
            "durationTicks": 218,
            "midi": 67,
            "name": "G4",
            "ticks": 49200,
            "time": 73.21426375,
            "velocity": 0.5354330708661418
          },
          {
            "duration": 0.3244046645833407,
            "durationTicks": 218,
            "midi": 66,
            "name": "F#4",
            "ticks": 49440,
            "time": 73.5714065,
            "velocity": 0.5433070866141733
          },
          {
            "duration": 0.3244046645833265,
            "durationTicks": 218,
            "midi": 64,
            "name": "E4",
            "ticks": 49680,
            "time": 73.92854925,
            "velocity": 0.5354330708661418
          },
          {
            "duration": 0.3244046645833407,
            "durationTicks": 218,
            "midi": 62,
            "name": "D4",
            "ticks": 49920,
            "time": 74.285692,
            "velocity": 0.5354330708661418
          },
          {
            "duration": 0.3244046645833265,
            "durationTicks": 218,
            "midi": 59,
            "name": "B3",
            "ticks": 50160,
            "time": 74.64283475,
            "velocity": 0.5590551181102362
          },
          {
            "duration": 0.3244046645833407,
            "durationTicks": 218,
            "midi": 71,
            "name": "B4",
            "ticks": 50400,
            "time": 74.9999775,
            "velocity": 0.6614173228346457
          },
          {
            "duration": 0.3244046645833265,
            "durationTicks": 218,
            "midi": 73,
            "name": "C#5",
            "ticks": 50640,
            "time": 75.35712025000001,
            "velocity": 0.5984251968503937
          },
          {
            "duration": 0.3244046645833265,
            "durationTicks": 218,
            "midi": 74,
            "name": "D5",
            "ticks": 50880,
            "time": 75.714263,
            "velocity": 0.5669291338582677
          },
          {
            "duration": 0.3244046645833407,
            "durationTicks": 218,
            "midi": 73,
            "name": "C#5",
            "ticks": 51120,
            "time": 76.07140575,
            "velocity": 0.5669291338582677
          },
          {
            "duration": 0.3244046645833265,
            "durationTicks": 218,
            "midi": 71,
            "name": "B4",
            "ticks": 51360,
            "time": 76.4285485,
            "velocity": 0.5433070866141733
          },
          {
            "duration": 0.3244046645833407,
            "durationTicks": 218,
            "midi": 69,
            "name": "A4",
            "ticks": 51600,
            "time": 76.78569125,
            "velocity": 0.5433070866141733
          },
          {
            "duration": 0.3244046645833265,
            "durationTicks": 218,
            "midi": 67,
            "name": "G4",
            "ticks": 51840,
            "time": 77.14283400000001,
            "velocity": 0.5354330708661418
          },
          {
            "duration": 0.3244046645833265,
            "durationTicks": 218,
            "midi": 66,
            "name": "F#4",
            "ticks": 52080,
            "time": 77.49997675,
            "velocity": 0.5511811023622047
          },
          {
            "duration": 0.3244046645833407,
            "durationTicks": 218,
            "midi": 64,
            "name": "E4",
            "ticks": 52320,
            "time": 77.8571195,
            "velocity": 0.5275590551181102
          },
          {
            "duration": 0.3244046645833265,
            "durationTicks": 218,
            "midi": 71,
            "name": "B4",
            "ticks": 52560,
            "time": 78.21426225,
            "velocity": 0.6141732283464567
          },
          {
            "duration": 0.3244046645833407,
            "durationTicks": 218,
            "midi": 69,
            "name": "A4",
            "ticks": 52800,
            "time": 78.571405,
            "velocity": 0.5433070866141733
          },
          {
            "duration": 0.3244046645833265,
            "durationTicks": 218,
            "midi": 71,
            "name": "B4",
            "ticks": 53040,
            "time": 78.92854775,
            "velocity": 0.5748031496062992
          },
          {
            "duration": 0.3244046645833265,
            "durationTicks": 218,
            "midi": 69,
            "name": "A4",
            "ticks": 53280,
            "time": 79.2856905,
            "velocity": 0.5354330708661418
          },
          {
            "duration": 0.3244046645833407,
            "durationTicks": 218,
            "midi": 67,
            "name": "G4",
            "ticks": 53520,
            "time": 79.64283325,
            "velocity": 0.5590551181102362
          },
          {
            "duration": 0.6473212343749992,
            "durationTicks": 435,
            "midi": 66,
            "name": "F#4",
            "ticks": 53760,
            "time": 79.999976,
            "velocity": 0.5433070866141733
          },
          {
            "duration": 0.6473212343749992,
            "durationTicks": 435,
            "midi": 78,
            "name": "F#5",
            "ticks": 54240,
            "time": 80.7142615,
            "velocity": 0.7480314960629921
          },
          {
            "duration": 1.2886900895833264,
            "durationTicks": 866,
            "midi": 76,
            "name": "E5",
            "ticks": 54720,
            "time": 81.42854700000001,
            "velocity": 0.6535433070866141
          },
          {
            "duration": 0.6473212343749992,
            "durationTicks": 435,
            "midi": 74,
            "name": "D5",
            "ticks": 56160,
            "time": 83.5714035,
            "velocity": 0.6062992125984252
          },
          {
            "duration": 1.2886900895833264,
            "durationTicks": 866,
            "midi": 78,
            "name": "F#5",
            "ticks": 56640,
            "time": 84.285689,
            "velocity": 0.7007874015748031
          },
          {
            "duration": 1.2886900895833406,
            "durationTicks": 866,
            "midi": 83,
            "name": "B5",
            "ticks": 57600,
            "time": 85.71426,
            "velocity": 0.6929133858267716
          },
          {
            "duration": 1.2886900895833264,
            "durationTicks": 866,
            "midi": 81,
            "name": "A5",
            "ticks": 58560,
            "time": 87.142831,
            "velocity": 0.6535433070866141
          },
          {
            "duration": 1.2886900895833264,
            "durationTicks": 866,
            "midi": 83,
            "name": "B5",
            "ticks": 59520,
            "time": 88.571402,
            "velocity": 0.6535433070866141
          },
          {
            "duration": 1.2886900895833406,
            "durationTicks": 866,
            "midi": 85,
            "name": "C#6",
            "ticks": 60480,
            "time": 89.999973,
            "velocity": 0.6771653543307087
          },
          {
            "duration": 0.6473212343749992,
            "durationTicks": 435,
            "midi": 86,
            "name": "D6",
            "ticks": 61440,
            "time": 91.428544,
            "velocity": 0.6850393700787402
          },
          {
            "duration": 0.6473212343749992,
            "durationTicks": 435,
            "midi": 74,
            "name": "D5",
            "ticks": 61920,
            "time": 92.1428295,
            "velocity": 0.5590551181102362
          },
          {
            "duration": 1.2886900895833406,
            "durationTicks": 866,
            "midi": 73,
            "name": "C#5",
            "ticks": 62400,
            "time": 92.85711500000001,
            "velocity": 0.6220472440944882
          },
          {
            "duration": 0.6473212343749992,
            "durationTicks": 435,
            "midi": 71,
            "name": "B4",
            "ticks": 63840,
            "time": 94.9999715,
            "velocity": 0.6062992125984252
          },
          {
            "duration": 1.2886900895833406,
            "durationTicks": 866,
            "midi": 74,
            "name": "D5",
            "ticks": 64320,
            "time": 95.714257,
            "velocity": 0.6771653543307087
          },
          {
            "duration": 1.9315470395833358,
            "durationTicks": 1298,
            "midi": 74,
            "name": "D5",
            "ticks": 65280,
            "time": 97.14282800000001,
            "velocity": 0.6614173228346457
          },
          {
            "duration": 0.6473212343749992,
            "durationTicks": 435,
            "midi": 74,
            "name": "D5",
            "ticks": 66720,
            "time": 99.2856845,
            "velocity": 0.6614173228346457
          },
          {
            "duration": 0.6473212343749992,
            "durationTicks": 435,
            "midi": 74,
            "name": "D5",
            "ticks": 67200,
            "time": 99.99997,
            "velocity": 0.6614173228346457
          },
          {
            "duration": 0.6473212343749992,
            "durationTicks": 435,
            "midi": 79,
            "name": "G5",
            "ticks": 67680,
            "time": 100.71425550000001,
            "velocity": 0.7322834645669292
          },
          {
            "duration": 0.6473212343750134,
            "durationTicks": 435,
            "midi": 76,
            "name": "E5",
            "ticks": 68160,
            "time": 101.428541,
            "velocity": 0.6850393700787402
          },
          {
            "duration": 0.6473212343749992,
            "durationTicks": 435,
            "midi": 81,
            "name": "A5",
            "ticks": 68640,
            "time": 102.1428265,
            "velocity": 0.7795275590551181
          },
          {
            "duration": 0.3630951291666662,
            "durationTicks": 244,
            "midi": 81,
            "name": "A5",
            "ticks": 69120,
            "time": 102.857112,
            "velocity": 0.7637795275590551
          },
          {
            "duration": 0.17857137499998998,
            "durationTicks": 120,
            "midi": 78,
            "name": "F#5",
            "ticks": 69360,
            "time": 103.21425475000001,
            "velocity": 0.7559055118110236
          },
          {
            "duration": 0.16815471145834238,
            "durationTicks": 113,
            "midi": 79,
            "name": "G5",
            "ticks": 69480,
            "time": 103.392826125,
            "velocity": 0.7952755905511811
          },
          {
            "duration": 0.3630951291666662,
            "durationTicks": 244,
            "midi": 81,
            "name": "A5",
            "ticks": 69600,
            "time": 103.5713975,
            "velocity": 0.7952755905511811
          },
          {
            "duration": 0.1785713750000042,
            "durationTicks": 120,
            "midi": 78,
            "name": "F#5",
            "ticks": 69840,
            "time": 103.92854025,
            "velocity": 0.7637795275590551
          },
          {
            "duration": 0.1785713750000042,
            "durationTicks": 120,
            "midi": 79,
            "name": "G5",
            "ticks": 69960,
            "time": 104.107111625,
            "velocity": 0.7952755905511811
          },
          {
            "duration": 0.16815471145834238,
            "durationTicks": 113,
            "midi": 81,
            "name": "A5",
            "ticks": 70080,
            "time": 104.285683,
            "velocity": 0.7952755905511811
          },
          {
            "duration": 0.1785713750000042,
            "durationTicks": 120,
            "midi": 69,
            "name": "A4",
            "ticks": 70200,
            "time": 104.464254375,
            "velocity": 0.6692913385826772
          },
          {
            "duration": 0.1785713750000042,
            "durationTicks": 120,
            "midi": 71,
            "name": "B4",
            "ticks": 70320,
            "time": 104.64282575,
            "velocity": 0.7795275590551181
          },
          {
            "duration": 0.1785713750000042,
            "durationTicks": 120,
            "midi": 73,
            "name": "C#5",
            "ticks": 70440,
            "time": 104.821397125,
            "velocity": 0.7874015748031497
          },
          {
            "duration": 0.17857137499998998,
            "durationTicks": 120,
            "midi": 74,
            "name": "D5",
            "ticks": 70560,
            "time": 104.99996850000001,
            "velocity": 0.7637795275590551
          },
          {
            "duration": 0.1785713750000042,
            "durationTicks": 120,
            "midi": 76,
            "name": "E5",
            "ticks": 70680,
            "time": 105.178539875,
            "velocity": 0.8031496062992126
          },
          {
            "duration": 0.1785713750000042,
            "durationTicks": 120,
            "midi": 78,
            "name": "F#5",
            "ticks": 70800,
            "time": 105.35711125,
            "velocity": 0.7952755905511811
          },
          {
            "duration": 0.16815471145834238,
            "durationTicks": 113,
            "midi": 79,
            "name": "G5",
            "ticks": 70920,
            "time": 105.535682625,
            "velocity": 0.7952755905511811
          },
          {
            "duration": 0.3630951291666662,
            "durationTicks": 244,
            "midi": 78,
            "name": "F#5",
            "ticks": 71040,
            "time": 105.714254,
            "velocity": 0.7716535433070866
          },
          {
            "duration": 0.1785713750000042,
            "durationTicks": 120,
            "midi": 74,
            "name": "D5",
            "ticks": 71280,
            "time": 106.07139675,
            "velocity": 0.7322834645669292
          },
          {
            "duration": 0.17857137499998998,
            "durationTicks": 120,
            "midi": 76,
            "name": "E5",
            "ticks": 71400,
            "time": 106.24996812500001,
            "velocity": 0.7874015748031497
          },
          {
            "duration": 0.33482132812500254,
            "durationTicks": 225,
            "midi": 78,
            "name": "F#5",
            "ticks": 71520,
            "time": 106.4285395,
            "velocity": 0.7795275590551181
          },
          {
            "duration": 0.17857137499998998,
            "durationTicks": 120,
            "midi": 66,
            "name": "F#4",
            "ticks": 71760,
            "time": 106.78568225000001,
            "velocity": 0.6692913385826772
          },
          {
            "duration": 0.1785713750000042,
            "durationTicks": 120,
            "midi": 67,
            "name": "G4",
            "ticks": 71880,
            "time": 106.964253625,
            "velocity": 0.7716535433070866
          },
          {
            "duration": 0.1785713750000042,
            "durationTicks": 120,
            "midi": 69,
            "name": "A4",
            "ticks": 72000,
            "time": 107.142825,
            "velocity": 0.7874015748031497
          },
          {
            "duration": 0.17857137499998998,
            "durationTicks": 120,
            "midi": 71,
            "name": "B4",
            "ticks": 72120,
            "time": 107.321396375,
            "velocity": 0.8031496062992126
          },
          {
            "duration": 0.1785713750000042,
            "durationTicks": 120,
            "midi": 69,
            "name": "A4",
            "ticks": 72240,
            "time": 107.49996775,
            "velocity": 0.7401574803149606
          },
          {
            "duration": 0.1785713750000042,
            "durationTicks": 120,
            "midi": 67,
            "name": "G4",
            "ticks": 72360,
            "time": 107.678539125,
            "velocity": 0.7401574803149606
          },
          {
            "duration": 0.1785713750000042,
            "durationTicks": 120,
            "midi": 69,
            "name": "A4",
            "ticks": 72480,
            "time": 107.8571105,
            "velocity": 0.7874015748031497
          },
          {
            "duration": 0.17857137499998998,
            "durationTicks": 120,
            "midi": 66,
            "name": "F#4",
            "ticks": 72600,
            "time": 108.03568187500001,
            "velocity": 0.7559055118110236
          },
          {
            "duration": 0.1785713750000042,
            "durationTicks": 120,
            "midi": 67,
            "name": "G4",
            "ticks": 72720,
            "time": 108.21425325,
            "velocity": 0.7716535433070866
          },
          {
            "duration": 0.16815471145834238,
            "durationTicks": 113,
            "midi": 69,
            "name": "A4",
            "ticks": 72840,
            "time": 108.392824625,
            "velocity": 0.7874015748031497
          },
          {
            "duration": 0.363095129166652,
            "durationTicks": 244,
            "midi": 67,
            "name": "G4",
            "ticks": 72960,
            "time": 108.57139600000001,
            "velocity": 0.7480314960629921
          },
          {
            "duration": 0.1785713750000042,
            "durationTicks": 120,
            "midi": 71,
            "name": "B4",
            "ticks": 73200,
            "time": 108.92853875,
            "velocity": 0.7795275590551181
          },
          {
            "duration": 0.16815471145834238,
            "durationTicks": 113,
            "midi": 69,
            "name": "A4",
            "ticks": 73320,
            "time": 109.107110125,
            "velocity": 0.7401574803149606
          },
          {
            "duration": 0.363095129166652,
            "durationTicks": 244,
            "midi": 67,
            "name": "G4",
            "ticks": 73440,
            "time": 109.28568150000001,
            "velocity": 0.7480314960629921
          },
          {
            "duration": 0.1785713750000042,
            "durationTicks": 120,
            "midi": 66,
            "name": "F#4",
            "ticks": 73680,
            "time": 109.64282425,
            "velocity": 0.7244094488188977
          },
          {
            "duration": 0.16815471145834238,
            "durationTicks": 113,
            "midi": 64,
            "name": "E4",
            "ticks": 73800,
            "time": 109.82139562500001,
            "velocity": 0.7559055118110236
          },
          {
            "duration": 0.1785713750000042,
            "durationTicks": 120,
            "midi": 66,
            "name": "F#4",
            "ticks": 73920,
            "time": 109.999967,
            "velocity": 0.7952755905511811
          },
          {
            "duration": 0.1785713750000042,
            "durationTicks": 120,
            "midi": 64,
            "name": "E4",
            "ticks": 74040,
            "time": 110.178538375,
            "velocity": 0.7480314960629921
          },
          {
            "duration": 0.17857137499998998,
            "durationTicks": 120,
            "midi": 62,
            "name": "D4",
            "ticks": 74160,
            "time": 110.35710975,
            "velocity": 0.7401574803149606
          },
          {
            "duration": 0.1785713750000042,
            "durationTicks": 120,
            "midi": 64,
            "name": "E4",
            "ticks": 74280,
            "time": 110.535681125,
            "velocity": 0.7952755905511811
          },
          {
            "duration": 0.1785713750000042,
            "durationTicks": 120,
            "midi": 66,
            "name": "F#4",
            "ticks": 74400,
            "time": 110.7142525,
            "velocity": 0.7952755905511811
          },
          {
            "duration": 0.1785713750000042,
            "durationTicks": 120,
            "midi": 67,
            "name": "G4",
            "ticks": 74520,
            "time": 110.892823875,
            "velocity": 0.7952755905511811
          },
          {
            "duration": 0.17857137499998998,
            "durationTicks": 120,
            "midi": 69,
            "name": "A4",
            "ticks": 74640,
            "time": 111.07139525000001,
            "velocity": 0.7795275590551181
          },
          {
            "duration": 0.16815471145834238,
            "durationTicks": 113,
            "midi": 71,
            "name": "B4",
            "ticks": 74760,
            "time": 111.249966625,
            "velocity": 0.7952755905511811
          },
          {
            "duration": 0.3630951291666662,
            "durationTicks": 244,
            "midi": 67,
            "name": "G4",
            "ticks": 74880,
            "time": 111.428538,
            "velocity": 0.7244094488188977
          },
          {
            "duration": 0.1785713750000042,
            "durationTicks": 120,
            "midi": 71,
            "name": "B4",
            "ticks": 75120,
            "time": 111.78568075,
            "velocity": 0.7559055118110236
          },
          {
            "duration": 0.16815471145834238,
            "durationTicks": 113,
            "midi": 69,
            "name": "A4",
            "ticks": 75240,
            "time": 111.964252125,
            "velocity": 0.7480314960629921
          },
          {
            "duration": 0.363095129166652,
            "durationTicks": 244,
            "midi": 71,
            "name": "B4",
            "ticks": 75360,
            "time": 112.1428235,
            "velocity": 0.7952755905511811
          },
          {
            "duration": 0.1785713750000042,
            "durationTicks": 120,
            "midi": 73,
            "name": "C#5",
            "ticks": 75600,
            "time": 112.49996625,
            "velocity": 0.8346456692913385
          },
          {
            "duration": 0.16815471145834238,
            "durationTicks": 113,
            "midi": 74,
            "name": "D5",
            "ticks": 75720,
            "time": 112.678537625,
            "velocity": 0.7952755905511811
          },
          {
            "duration": 0.17857137499998998,
            "durationTicks": 120,
            "midi": 69,
            "name": "A4",
            "ticks": 75840,
            "time": 112.85710900000001,
            "velocity": 0.7244094488188977
          },
          {
            "duration": 0.1785713750000042,
            "durationTicks": 120,
            "midi": 71,
            "name": "B4",
            "ticks": 75960,
            "time": 113.035680375,
            "velocity": 0.8031496062992126
          },
          {
            "duration": 0.1785713750000042,
            "durationTicks": 120,
            "midi": 73,
            "name": "C#5",
            "ticks": 76080,
            "time": 113.21425175,
            "velocity": 0.7795275590551181
          },
          {
            "duration": 0.17857137499998998,
            "durationTicks": 120,
            "midi": 74,
            "name": "D5",
            "ticks": 76200,
            "time": 113.392823125,
            "velocity": 0.7795275590551181
          },
          {
            "duration": 0.1785713750000042,
            "durationTicks": 120,
            "midi": 76,
            "name": "E5",
            "ticks": 76320,
            "time": 113.5713945,
            "velocity": 0.7874015748031497
          },
          {
            "duration": 0.1785713750000042,
            "durationTicks": 120,
            "midi": 78,
            "name": "F#5",
            "ticks": 76440,
            "time": 113.749965875,
            "velocity": 0.7952755905511811
          },
          {
            "duration": 0.1785713750000042,
            "durationTicks": 120,
            "midi": 79,
            "name": "G5",
            "ticks": 76560,
            "time": 113.92853725,
            "velocity": 0.7952755905511811
          },
          {
            "duration": 0.16815471145834238,
            "durationTicks": 113,
            "midi": 81,
            "name": "A5",
            "ticks": 76680,
            "time": 114.10710862500001,
            "velocity": 0.7952755905511811
          },
          {
            "duration": 0.3630951291666662,
            "durationTicks": 244,
            "midi": 78,
            "name": "F#5",
            "ticks": 76800,
            "time": 114.28568,
            "velocity": 0.7480314960629921
          },
          {
            "duration": 0.17857137499998998,
            "durationTicks": 120,
            "midi": 74,
            "name": "D5",
            "ticks": 77040,
            "time": 114.64282275000001,
            "velocity": 0.7244094488188977
          },
          {
            "duration": 0.16815471145834238,
            "durationTicks": 113,
            "midi": 76,
            "name": "E5",
            "ticks": 77160,
            "time": 114.821394125,
            "velocity": 0.7952755905511811
          },
          {
            "duration": 0.3630951291666662,
            "durationTicks": 244,
            "midi": 78,
            "name": "F#5",
            "ticks": 77280,
            "time": 114.9999655,
            "velocity": 0.7952755905511811
          },
          {
            "duration": 0.1785713750000042,
            "durationTicks": 120,
            "midi": 76,
            "name": "E5",
            "ticks": 77520,
            "time": 115.35710825,
            "velocity": 0.7637795275590551
          },
          {
            "duration": 0.16815471145834238,
            "durationTicks": 113,
            "midi": 74,
            "name": "D5",
            "ticks": 77640,
            "time": 115.535679625,
            "velocity": 0.7559055118110236
          },
          {
            "duration": 0.1785713750000042,
            "durationTicks": 120,
            "midi": 76,
            "name": "E5",
            "ticks": 77760,
            "time": 115.714251,
            "velocity": 0.7952755905511811
          },
          {
            "duration": 0.17857137499998998,
            "durationTicks": 120,
            "midi": 73,
            "name": "C#5",
            "ticks": 77880,
            "time": 115.89282237500001,
            "velocity": 0.7322834645669292
          },
          {
            "duration": 0.1785713750000042,
            "durationTicks": 120,
            "midi": 74,
            "name": "D5",
            "ticks": 78000,
            "time": 116.07139375,
            "velocity": 0.8031496062992126
          },
          {
            "duration": 0.1785713750000042,
            "durationTicks": 120,
            "midi": 76,
            "name": "E5",
            "ticks": 78120,
            "time": 116.249965125,
            "velocity": 0.7952755905511811
          },
          {
            "duration": 0.17857137499998998,
            "durationTicks": 120,
            "midi": 78,
            "name": "F#5",
            "ticks": 78240,
            "time": 116.4285365,
            "velocity": 0.8110236220472441
          },
          {
            "duration": 0.1785713750000042,
            "durationTicks": 120,
            "midi": 76,
            "name": "E5",
            "ticks": 78360,
            "time": 116.607107875,
            "velocity": 0.7559055118110236
          },
          {
            "duration": 0.1785713750000042,
            "durationTicks": 120,
            "midi": 74,
            "name": "D5",
            "ticks": 78480,
            "time": 116.78567925,
            "velocity": 0.7480314960629921
          },
          {
            "duration": 0.16815471145834238,
            "durationTicks": 113,
            "midi": 73,
            "name": "C#5",
            "ticks": 78600,
            "time": 116.964250625,
            "velocity": 0.7559055118110236
          },
          {
            "duration": 0.363095129166652,
            "durationTicks": 244,
            "midi": 74,
            "name": "D5",
            "ticks": 78720,
            "time": 117.14282200000001,
            "velocity": 0.7874015748031497
          },
          {
            "duration": 0.1785713750000042,
            "durationTicks": 120,
            "midi": 71,
            "name": "B4",
            "ticks": 78960,
            "time": 117.49996475,
            "velocity": 0.7559055118110236
          },
          {
            "duration": 0.17857137499998998,
            "durationTicks": 120,
            "midi": 73,
            "name": "C#5",
            "ticks": 79080,
            "time": 117.67853612500001,
            "velocity": 0.7952755905511811
          },
          {
            "duration": 0.33482132812500254,
            "durationTicks": 225,
            "midi": 74,
            "name": "D5",
            "ticks": 79200,
            "time": 117.8571075,
            "velocity": 0.7716535433070866
          },
          {
            "duration": 0.17857137499998998,
            "durationTicks": 120,
            "midi": 62,
            "name": "D4",
            "ticks": 79440,
            "time": 118.21425025,
            "velocity": 0.6692913385826772
          },
          {
            "duration": 0.1785713750000042,
            "durationTicks": 120,
            "midi": 64,
            "name": "E4",
            "ticks": 79560,
            "time": 118.392821625,
            "velocity": 0.7716535433070866
          },
          {
            "duration": 0.1785713750000042,
            "durationTicks": 120,
            "midi": 66,
            "name": "F#4",
            "ticks": 79680,
            "time": 118.571393,
            "velocity": 0.8110236220472441
          },
          {
            "duration": 0.1785713750000042,
            "durationTicks": 120,
            "midi": 67,
            "name": "G4",
            "ticks": 79800,
            "time": 118.749964375,
            "velocity": 0.7874015748031497
          },
          {
            "duration": 0.17857137499998998,
            "durationTicks": 120,
            "midi": 66,
            "name": "F#4",
            "ticks": 79920,
            "time": 118.92853575000001,
            "velocity": 0.7637795275590551
          },
          {
            "duration": 0.1785713750000042,
            "durationTicks": 120,
            "midi": 64,
            "name": "E4",
            "ticks": 80040,
            "time": 119.107107125,
            "velocity": 0.7480314960629921
          },
          {
            "duration": 0.1785713750000042,
            "durationTicks": 120,
            "midi": 66,
            "name": "F#4",
            "ticks": 80160,
            "time": 119.2856785,
            "velocity": 0.8031496062992126
          },
          {
            "duration": 0.17857137499998998,
            "durationTicks": 120,
            "midi": 74,
            "name": "D5",
            "ticks": 80280,
            "time": 119.46424987500001,
            "velocity": 0.8346456692913385
          },
          {
            "duration": 0.1785713750000042,
            "durationTicks": 120,
            "midi": 73,
            "name": "C#5",
            "ticks": 80400,
            "time": 119.64282125,
            "velocity": 0.7559055118110236
          },
          {
            "duration": 0.16815471145834238,
            "durationTicks": 113,
            "midi": 74,
            "name": "D5",
            "ticks": 80520,
            "time": 119.821392625,
            "velocity": 0.7874015748031497
          },
          {
            "duration": 0.363095129166652,
            "durationTicks": 244,
            "midi": 71,
            "name": "B4",
            "ticks": 80640,
            "time": 119.999964,
            "velocity": 0.7244094488188977
          },
          {
            "duration": 0.1785713750000042,
            "durationTicks": 120,
            "midi": 74,
            "name": "D5",
            "ticks": 80880,
            "time": 120.35710675,
            "velocity": 0.7716535433070866
          },
          {
            "duration": 0.16815471145834238,
            "durationTicks": 113,
            "midi": 73,
            "name": "C#5",
            "ticks": 81000,
            "time": 120.535678125,
            "velocity": 0.7480314960629921
          },
          {
            "duration": 0.363095129166652,
            "durationTicks": 244,
            "midi": 71,
            "name": "B4",
            "ticks": 81120,
            "time": 120.71424950000001,
            "velocity": 0.7244094488188977
          },
          {
            "duration": 0.1785713750000042,
            "durationTicks": 120,
            "midi": 69,
            "name": "A4",
            "ticks": 81360,
            "time": 121.07139225,
            "velocity": 0.6850393700787402
          },
          {
            "duration": 0.16815471145834238,
            "durationTicks": 113,
            "midi": 67,
            "name": "G4",
            "ticks": 81480,
            "time": 121.249963625,
            "velocity": 0.7401574803149606
          },
          {
            "duration": 0.1785713750000042,
            "durationTicks": 120,
            "midi": 69,
            "name": "A4",
            "ticks": 81600,
            "time": 121.428535,
            "velocity": 0.7952755905511811
          },
          {
            "duration": 0.1785713750000042,
            "durationTicks": 120,
            "midi": 67,
            "name": "G4",
            "ticks": 81720,
            "time": 121.607106375,
            "velocity": 0.7401574803149606
          },
          {
            "duration": 0.1785713750000042,
            "durationTicks": 120,
            "midi": 66,
            "name": "F#4",
            "ticks": 81840,
            "time": 121.78567775,
            "velocity": 0.7716535433070866
          },
          {
            "duration": 0.17857137499998998,
            "durationTicks": 120,
            "midi": 67,
            "name": "G4",
            "ticks": 81960,
            "time": 121.96424912500001,
            "velocity": 0.7795275590551181
          },
          {
            "duration": 0.1785713750000042,
            "durationTicks": 120,
            "midi": 69,
            "name": "A4",
            "ticks": 82080,
            "time": 122.1428205,
            "velocity": 0.7716535433070866
          },
          {
            "duration": 0.1785713750000042,
            "durationTicks": 120,
            "midi": 71,
            "name": "B4",
            "ticks": 82200,
            "time": 122.321391875,
            "velocity": 0.7795275590551181
          },
          {
            "duration": 0.17857137499998998,
            "durationTicks": 120,
            "midi": 73,
            "name": "C#5",
            "ticks": 82320,
            "time": 122.49996325000001,
            "velocity": 0.7952755905511811
          },
          {
            "duration": 0.16815471145834238,
            "durationTicks": 113,
            "midi": 74,
            "name": "D5",
            "ticks": 82440,
            "time": 122.678534625,
            "velocity": 0.8031496062992126
          },
          {
            "duration": 0.3630951291666662,
            "durationTicks": 244,
            "midi": 71,
            "name": "B4",
            "ticks": 82560,
            "time": 122.857106,
            "velocity": 0.7480314960629921
          },
          {
            "duration": 0.17857137499998998,
            "durationTicks": 120,
            "midi": 74,
            "name": "D5",
            "ticks": 82800,
            "time": 123.21424875000001,
            "velocity": 0.7559055118110236
          },
          {
            "duration": 0.1785713750000042,
            "durationTicks": 120,
            "midi": 73,
            "name": "C#5",
            "ticks": 82920,
            "time": 123.392820125,
            "velocity": 0.7559055118110236
          },
          {
            "duration": 0.33482132812500254,
            "durationTicks": 225,
            "midi": 74,
            "name": "D5",
            "ticks": 83040,
            "time": 123.5713915,
            "velocity": 0.7874015748031497
          },
          {
            "duration": 0.1785713750000042,
            "durationTicks": 120,
            "midi": 73,
            "name": "C#5",
            "ticks": 83280,
            "time": 123.92853425,
            "velocity": 0.7322834645669292
          },
          {
            "duration": 0.1785713750000042,
            "durationTicks": 120,
            "midi": 71,
            "name": "B4",
            "ticks": 83400,
            "time": 124.107105625,
            "velocity": 0.7480314960629921
          },
          {
            "duration": 0.17857137499998998,
            "durationTicks": 120,
            "midi": 73,
            "name": "C#5",
            "ticks": 83520,
            "time": 124.285677,
            "velocity": 0.8110236220472441
          },
          {
            "duration": 0.1785713750000042,
            "durationTicks": 120,
            "midi": 74,
            "name": "D5",
            "ticks": 83640,
            "time": 124.464248375,
            "velocity": 0.7716535433070866
          },
          {
            "duration": 0.1785713750000042,
            "durationTicks": 120,
            "midi": 76,
            "name": "E5",
            "ticks": 83760,
            "time": 124.64281975,
            "velocity": 0.8110236220472441
          },
          {
            "duration": 0.1785713750000042,
            "durationTicks": 120,
            "midi": 74,
            "name": "D5",
            "ticks": 83880,
            "time": 124.821391125,
            "velocity": 0.7322834645669292
          },
          {
            "duration": 0.17857137499998998,
            "durationTicks": 120,
            "midi": 73,
            "name": "C#5",
            "ticks": 84000,
            "time": 124.99996250000001,
            "velocity": 0.7480314960629921
          },
          {
            "duration": 0.1785713750000042,
            "durationTicks": 120,
            "midi": 74,
            "name": "D5",
            "ticks": 84120,
            "time": 125.178533875,
            "velocity": 0.7795275590551181
          },
          {
            "duration": 0.1785713750000042,
            "durationTicks": 120,
            "midi": 71,
            "name": "B4",
            "ticks": 84240,
            "time": 125.35710525,
            "velocity": 0.7480314960629921
          },
          {
            "duration": 0.16815471145834238,
            "durationTicks": 113,
            "midi": 73,
            "name": "C#5",
            "ticks": 84360,
            "time": 125.53567662500001,
            "velocity": 0.7874015748031497
          },
          {
            "duration": 0.6473212343749992,
            "durationTicks": 435,
            "midi": 74,
            "name": "D5",
            "ticks": 84480,
            "time": 125.714248,
            "velocity": 0.5748031496062992
          },
          {
            "duration": 0.6473212343749992,
            "durationTicks": 435,
            "midi": 73,
            "name": "C#5",
            "ticks": 85440,
            "time": 127.142819,
            "velocity": 0.49606299212598426
          },
          {
            "duration": 0.6473212343749992,
            "durationTicks": 435,
            "midi": 71,
            "name": "B4",
            "ticks": 86400,
            "time": 128.57139,
            "velocity": 0.49606299212598426
          },
          {
            "duration": 0.6473212343749992,
            "durationTicks": 435,
            "midi": 74,
            "name": "D5",
            "ticks": 87360,
            "time": 129.999961,
            "velocity": 0.5039370078740157
          },
          {
            "duration": 0.6473212343749992,
            "durationTicks": 435,
            "midi": 62,
            "name": "D4",
            "ticks": 88320,
            "time": 131.428532,
            "velocity": 0.5118110236220472
          },
          {
            "duration": 0.6473212343749992,
            "durationTicks": 435,
            "midi": 62,
            "name": "D4",
            "ticks": 89280,
            "time": 132.857103,
            "velocity": 0.5118110236220472
          },
          {
            "duration": 0.6473212343749992,
            "durationTicks": 435,
            "midi": 62,
            "name": "D4",
            "ticks": 90240,
            "time": 134.285674,
            "velocity": 0.4881889763779528
          },
          {
            "duration": 0.6473212343749992,
            "durationTicks": 435,
            "midi": 62,
            "name": "D4",
            "ticks": 91200,
            "time": 135.714245,
            "velocity": 0.5039370078740157
          },
          {
            "duration": 0.6473212343749992,
            "durationTicks": 435,
            "midi": 69,
            "name": "A4",
            "ticks": 92640,
            "time": 137.8571015,
            "velocity": 0.4251968503937008
          },
          {
            "duration": 0.6473212343749992,
            "durationTicks": 435,
            "midi": 69,
            "name": "A4",
            "ticks": 93600,
            "time": 139.2856725,
            "velocity": 0.4409448818897638
          },
          {
            "duration": 0.6473212343749992,
            "durationTicks": 435,
            "midi": 66,
            "name": "F#4",
            "ticks": 94560,
            "time": 140.7142435,
            "velocity": 0.41732283464566927
          },
          {
            "duration": 0.6473212343749992,
            "durationTicks": 435,
            "midi": 69,
            "name": "A4",
            "ticks": 95520,
            "time": 142.14281450000001,
            "velocity": 0.4330708661417323
          },
          {
            "duration": 0.6473212343749992,
            "durationTicks": 435,
            "midi": 67,
            "name": "G4",
            "ticks": 96480,
            "time": 143.5713855,
            "velocity": 0.41732283464566927
          },
          {
            "duration": 0.6473212343749992,
            "durationTicks": 435,
            "midi": 66,
            "name": "F#4",
            "ticks": 97440,
            "time": 144.9999565,
            "velocity": 0.4251968503937008
          },
          {
            "duration": 0.6473212343749992,
            "durationTicks": 435,
            "midi": 67,
            "name": "G4",
            "ticks": 98400,
            "time": 146.4285275,
            "velocity": 0.4251968503937008
          },
          {
            "duration": 0.6473212343749992,
            "durationTicks": 435,
            "midi": 76,
            "name": "E5",
            "ticks": 99360,
            "time": 147.8570985,
            "velocity": 0.5118110236220472
          },
          {
            "duration": 0.3244046645833407,
            "durationTicks": 218,
            "midi": 78,
            "name": "F#5",
            "ticks": 99840,
            "time": 148.571384,
            "velocity": 0.5590551181102362
          },
          {
            "duration": 0.363095129166652,
            "durationTicks": 244,
            "midi": 66,
            "name": "F#4",
            "ticks": 100080,
            "time": 148.92852675,
            "velocity": 0.49606299212598426
          },
          {
            "duration": 0.363095129166652,
            "durationTicks": 244,
            "midi": 67,
            "name": "G4",
            "ticks": 100320,
            "time": 149.2856695,
            "velocity": 0.5039370078740157
          },
          {
            "duration": 0.3630951291666804,
            "durationTicks": 244,
            "midi": 66,
            "name": "F#4",
            "ticks": 100560,
            "time": 149.64281225,
            "velocity": 0.5590551181102362
          },
          {
            "duration": 0.33482132812500254,
            "durationTicks": 225,
            "midi": 64,
            "name": "E4",
            "ticks": 100800,
            "time": 149.999955,
            "velocity": 0.5590551181102362
          },
          {
            "duration": 0.363095129166652,
            "durationTicks": 244,
            "midi": 76,
            "name": "E5",
            "ticks": 101040,
            "time": 150.35709775,
            "velocity": 0.6456692913385826
          },
          {
            "duration": 0.363095129166652,
            "durationTicks": 244,
            "midi": 78,
            "name": "F#5",
            "ticks": 101280,
            "time": 150.71424050000002,
            "velocity": 0.6614173228346457
          },
          {
            "duration": 0.3630951291666804,
            "durationTicks": 244,
            "midi": 76,
            "name": "E5",
            "ticks": 101520,
            "time": 151.07138325,
            "velocity": 0.5433070866141733
          },
          {
            "duration": 0.33482132812500254,
            "durationTicks": 225,
            "midi": 74,
            "name": "D5",
            "ticks": 101760,
            "time": 151.428526,
            "velocity": 0.5196850393700787
          },
          {
            "duration": 0.363095129166652,
            "durationTicks": 244,
            "midi": 66,
            "name": "F#4",
            "ticks": 102000,
            "time": 151.78566875,
            "velocity": 0.5275590551181102
          },
          {
            "duration": 0.33482132812500254,
            "durationTicks": 225,
            "midi": 62,
            "name": "D4",
            "ticks": 102240,
            "time": 152.1428115,
            "velocity": 0.49606299212598426
          },
          {
            "duration": 0.363095129166652,
            "durationTicks": 244,
            "midi": 74,
            "name": "D5",
            "ticks": 102480,
            "time": 152.49995425,
            "velocity": 0.6299212598425197
          },
          {
            "duration": 0.33482132812500254,
            "durationTicks": 225,
            "midi": 73,
            "name": "C#5",
            "ticks": 102720,
            "time": 152.857097,
            "velocity": 0.6299212598425197
          },
          {
            "duration": 0.3630951291666804,
            "durationTicks": 244,
            "midi": 57,
            "name": "A3",
            "ticks": 102960,
            "time": 153.21423975,
            "velocity": 0.5354330708661418
          },
          {
            "duration": 0.3630951291666804,
            "durationTicks": 244,
            "midi": 55,
            "name": "G3",
            "ticks": 103200,
            "time": 153.5713825,
            "velocity": 0.5196850393700787
          },
          {
            "duration": 0.363095129166652,
            "durationTicks": 244,
            "midi": 57,
            "name": "A3",
            "ticks": 103440,
            "time": 153.92852525,
            "velocity": 0.5826771653543307
          },
          {
            "duration": 0.33482132812500254,
            "durationTicks": 225,
            "midi": 59,
            "name": "B3",
            "ticks": 103680,
            "time": 154.28566800000002,
            "velocity": 0.5826771653543307
          },
          {
            "duration": 0.3630951291666804,
            "durationTicks": 244,
            "midi": 71,
            "name": "B4",
            "ticks": 103920,
            "time": 154.64281075,
            "velocity": 0.6456692913385826
          },
          {
            "duration": 0.363095129166652,
            "durationTicks": 244,
            "midi": 69,
            "name": "A4",
            "ticks": 104160,
            "time": 154.9999535,
            "velocity": 0.6377952755905512
          },
          {
            "duration": 0.363095129166652,
            "durationTicks": 244,
            "midi": 71,
            "name": "B4",
            "ticks": 104400,
            "time": 155.35709625,
            "velocity": 0.5748031496062992
          },
          {
            "duration": 0.33482132812500254,
            "durationTicks": 225,
            "midi": 69,
            "name": "A4",
            "ticks": 104640,
            "time": 155.714239,
            "velocity": 0.5669291338582677
          },
          {
            "duration": 0.363095129166652,
            "durationTicks": 244,
            "midi": 57,
            "name": "A3",
            "ticks": 104880,
            "time": 156.07138175,
            "velocity": 0.5354330708661418
          },
          {
            "duration": 0.363095129166652,
            "durationTicks": 244,
            "midi": 55,
            "name": "G3",
            "ticks": 105120,
            "time": 156.4285245,
            "velocity": 0.5039370078740157
          },
          {
            "duration": 0.363095129166652,
            "durationTicks": 244,
            "midi": 57,
            "name": "A3",
            "ticks": 105360,
            "time": 156.78566725000002,
            "velocity": 0.5748031496062992
          },
          {
            "duration": 0.33482132812500254,
            "durationTicks": 225,
            "midi": 62,
            "name": "D4",
            "ticks": 105600,
            "time": 157.14281,
            "velocity": 0.6062992125984252
          },
          {
            "duration": 0.363095129166652,
            "durationTicks": 244,
            "midi": 71,
            "name": "B4",
            "ticks": 105840,
            "time": 157.49995275,
            "velocity": 0.6141732283464567
          },
          {
            "duration": 0.363095129166652,
            "durationTicks": 244,
            "midi": 69,
            "name": "A4",
            "ticks": 106080,
            "time": 157.8570955,
            "velocity": 0.6062992125984252
          },
          {
            "duration": 0.3630951291666804,
            "durationTicks": 244,
            "midi": 71,
            "name": "B4",
            "ticks": 106320,
            "time": 158.21423825,
            "velocity": 0.5748031496062992
          },
          {
            "duration": 0.33482132812500254,
            "durationTicks": 225,
            "midi": 73,
            "name": "C#5",
            "ticks": 106560,
            "time": 158.571381,
            "velocity": 0.5669291338582677
          },
          {
            "duration": 0.363095129166652,
            "durationTicks": 244,
            "midi": 61,
            "name": "C#4",
            "ticks": 106800,
            "time": 158.92852375,
            "velocity": 0.48031496062992124
          },
          {
            "duration": 0.3630951291666804,
            "durationTicks": 244,
            "midi": 59,
            "name": "B3",
            "ticks": 107040,
            "time": 159.2856665,
            "velocity": 0.47244094488188976
          },
          {
            "duration": 0.363095129166652,
            "durationTicks": 244,
            "midi": 61,
            "name": "C#4",
            "ticks": 107280,
            "time": 159.64280925,
            "velocity": 0.5905511811023622
          },
          {
            "duration": 0.33482132812500254,
            "durationTicks": 225,
            "midi": 62,
            "name": "D4",
            "ticks": 107520,
            "time": 159.999952,
            "velocity": 0.6062992125984252
          },
          {
            "duration": 0.363095129166652,
            "durationTicks": 244,
            "midi": 74,
            "name": "D5",
            "ticks": 107760,
            "time": 160.35709475000002,
            "velocity": 0.6299212598425197
          },
          {
            "duration": 0.3630951291666804,
            "durationTicks": 244,
            "midi": 76,
            "name": "E5",
            "ticks": 108000,
            "time": 160.7142375,
            "velocity": 0.6535433070866141
          },
          {
            "duration": 0.363095129166652,
            "durationTicks": 244,
            "midi": 74,
            "name": "D5",
            "ticks": 108240,
            "time": 161.07138025,
            "velocity": 0.5669291338582677
          },
          {
            "duration": 0.33482132812500254,
            "durationTicks": 225,
            "midi": 73,
            "name": "C#5",
            "ticks": 108480,
            "time": 161.428523,
            "velocity": 0.5433070866141733
          },
          {
            "duration": 0.3630951291666804,
            "durationTicks": 244,
            "midi": 61,
            "name": "C#4",
            "ticks": 108720,
            "time": 161.78566575,
            "velocity": 0.4881889763779528
          },
          {
            "duration": 0.363095129166652,
            "durationTicks": 244,
            "midi": 62,
            "name": "D4",
            "ticks": 108960,
            "time": 162.1428085,
            "velocity": 0.49606299212598426
          },
          {
            "duration": 0.363095129166652,
            "durationTicks": 244,
            "midi": 61,
            "name": "C#4",
            "ticks": 109200,
            "time": 162.49995125,
            "velocity": 0.5354330708661418
          },
          {
            "duration": 0.3348213281249741,
            "durationTicks": 225,
            "midi": 59,
            "name": "B3",
            "ticks": 109440,
            "time": 162.85709400000002,
            "velocity": 0.5275590551181102
          },
          {
            "duration": 0.3630951291666804,
            "durationTicks": 244,
            "midi": 71,
            "name": "B4",
            "ticks": 109680,
            "time": 163.21423675,
            "velocity": 0.6456692913385826
          },
          {
            "duration": 0.363095129166652,
            "durationTicks": 244,
            "midi": 69,
            "name": "A4",
            "ticks": 109920,
            "time": 163.5713795,
            "velocity": 0.6377952755905512
          },
          {
            "duration": 0.363095129166652,
            "durationTicks": 244,
            "midi": 71,
            "name": "B4",
            "ticks": 110160,
            "time": 163.92852225000001,
            "velocity": 0.5826771653543307
          },
          {
            "duration": 0.33482132812500254,
            "durationTicks": 225,
            "midi": 73,
            "name": "C#5",
            "ticks": 110400,
            "time": 164.285665,
            "velocity": 0.5905511811023622
          },
          {
            "duration": 0.363095129166652,
            "durationTicks": 244,
            "midi": 61,
            "name": "C#4",
            "ticks": 110640,
            "time": 164.64280775,
            "velocity": 0.48031496062992124
          },
          {
            "duration": 0.363095129166652,
            "durationTicks": 244,
            "midi": 66,
            "name": "F#4",
            "ticks": 110880,
            "time": 164.9999505,
            "velocity": 0.5039370078740157
          },
          {
            "duration": 0.3630951291666804,
            "durationTicks": 244,
            "midi": 64,
            "name": "E4",
            "ticks": 111120,
            "time": 165.35709325,
            "velocity": 0.5590551181102362
          },
          {
            "duration": 0.33482132812500254,
            "durationTicks": 225,
            "midi": 62,
            "name": "D4",
            "ticks": 111360,
            "time": 165.714236,
            "velocity": 0.5511811023622047
          },
          {
            "duration": 0.363095129166652,
            "durationTicks": 244,
            "midi": 74,
            "name": "D5",
            "ticks": 111600,
            "time": 166.07137875,
            "velocity": 0.6535433070866141
          },
          {
            "duration": 0.363095129166652,
            "durationTicks": 244,
            "midi": 76,
            "name": "E5",
            "ticks": 111840,
            "time": 166.42852150000002,
            "velocity": 0.6771653543307087
          },
          {
            "duration": 0.3630951291666804,
            "durationTicks": 244,
            "midi": 79,
            "name": "G5",
            "ticks": 112080,
            "time": 166.78566425,
            "velocity": 0.5590551181102362
          },
          {
            "duration": 0.33482132812500254,
            "durationTicks": 225,
            "midi": 78,
            "name": "F#5",
            "ticks": 112320,
            "time": 167.142807,
            "velocity": 0.5590551181102362
          },
          {
            "duration": 0.363095129166652,
            "durationTicks": 244,
            "midi": 66,
            "name": "F#4",
            "ticks": 112560,
            "time": 167.49994975,
            "velocity": 0.4645669291338583
          },
          {
            "duration": 0.3630951291666804,
            "durationTicks": 244,
            "midi": 69,
            "name": "A4",
            "ticks": 112800,
            "time": 167.8570925,
            "velocity": 0.48031496062992124
          },
          {
            "duration": 0.363095129166652,
            "durationTicks": 244,
            "midi": 78,
            "name": "F#5",
            "ticks": 113040,
            "time": 168.21423525,
            "velocity": 0.6141732283464567
          },
          {
            "duration": 0.33482132812500254,
            "durationTicks": 225,
            "midi": 74,
            "name": "D5",
            "ticks": 113280,
            "time": 168.571378,
            "velocity": 0.5905511811023622
          },
          {
            "duration": 0.363095129166652,
            "durationTicks": 244,
            "midi": 79,
            "name": "G5",
            "ticks": 113520,
            "time": 168.92852075000002,
            "velocity": 0.5748031496062992
          },
          {
            "duration": 0.3630951291666804,
            "durationTicks": 244,
            "midi": 78,
            "name": "F#5",
            "ticks": 113760,
            "time": 169.2856635,
            "velocity": 0.5590551181102362
          },
          {
            "duration": 0.363095129166652,
            "durationTicks": 244,
            "midi": 79,
            "name": "G5",
            "ticks": 114000,
            "time": 169.64280625,
            "velocity": 0.5590551181102362
          },
          {
            "duration": 0.33482132812500254,
            "durationTicks": 225,
            "midi": 76,
            "name": "E5",
            "ticks": 114240,
            "time": 169.99994900000002,
            "velocity": 0.5354330708661418
          },
          {
            "duration": 0.3630951291666804,
            "durationTicks": 244,
            "midi": 69,
            "name": "A4",
            "ticks": 114480,
            "time": 170.35709175,
            "velocity": 0.5196850393700787
          },
          {
            "duration": 0.363095129166652,
            "durationTicks": 244,
            "midi": 67,
            "name": "G4",
            "ticks": 114720,
            "time": 170.7142345,
            "velocity": 0.5039370078740157
          },
          {
            "duration": 0.363095129166652,
            "durationTicks": 244,
            "midi": 69,
            "name": "A4",
            "ticks": 114960,
            "time": 171.07137725,
            "velocity": 0.5590551181102362
          },
          {
            "duration": 0.33482132812500254,
            "durationTicks": 225,
            "midi": 66,
            "name": "F#4",
            "ticks": 115200,
            "time": 171.42852,
            "velocity": 0.5511811023622047
          },
          {
            "duration": 0.3244046645833407,
            "durationTicks": 218,
            "midi": 69,
            "name": "A4",
            "ticks": 115440,
            "time": 171.78566275,
            "velocity": 0.5905511811023622
          },
          {
            "duration": 0.3244046645833407,
            "durationTicks": 218,
            "midi": 69,
            "name": "A4",
            "ticks": 115680,
            "time": 172.1428055,
            "velocity": 0.5433070866141733
          },
          {
            "duration": 0.3244046645833407,
            "durationTicks": 218,
            "midi": 69,
            "name": "A4",
            "ticks": 115920,
            "time": 172.49994825000002,
            "velocity": 0.5826771653543307
          },
          {
            "duration": 0.3244046645833407,
            "durationTicks": 218,
            "midi": 69,
            "name": "A4",
            "ticks": 116160,
            "time": 172.857091,
            "velocity": 0.5511811023622047
          },
          {
            "duration": 0.3244046645833407,
            "durationTicks": 218,
            "midi": 69,
            "name": "A4",
            "ticks": 116400,
            "time": 173.21423375,
            "velocity": 0.5905511811023622
          },
          {
            "duration": 0.3244046645833407,
            "durationTicks": 218,
            "midi": 69,
            "name": "A4",
            "ticks": 116640,
            "time": 173.5713765,
            "velocity": 0.5590551181102362
          },
          {
            "duration": 0.3244046645833407,
            "durationTicks": 218,
            "midi": 69,
            "name": "A4",
            "ticks": 116880,
            "time": 173.92851925,
            "velocity": 0.5511811023622047
          },
          {
            "duration": 0.3244046645833407,
            "durationTicks": 218,
            "midi": 66,
            "name": "F#4",
            "ticks": 117120,
            "time": 174.285662,
            "velocity": 0.5433070866141733
          },
          {
            "duration": 0.3244046645833407,
            "durationTicks": 218,
            "midi": 66,
            "name": "F#4",
            "ticks": 117360,
            "time": 174.64280475,
            "velocity": 0.5669291338582677
          },
          {
            "duration": 0.32440466458336914,
            "durationTicks": 218,
            "midi": 66,
            "name": "F#4",
            "ticks": 117600,
            "time": 174.9999475,
            "velocity": 0.5590551181102362
          },
          {
            "duration": 0.3244046645833407,
            "durationTicks": 218,
            "midi": 66,
            "name": "F#4",
            "ticks": 117840,
            "time": 175.35709025,
            "velocity": 0.5511811023622047
          },
          {
            "duration": 0.3244046645833407,
            "durationTicks": 218,
            "midi": 66,
            "name": "F#4",
            "ticks": 118080,
            "time": 175.714233,
            "velocity": 0.5669291338582677
          },
          {
            "duration": 0.3244046645833407,
            "durationTicks": 218,
            "midi": 66,
            "name": "F#4",
            "ticks": 118320,
            "time": 176.07137575000002,
            "velocity": 0.5669291338582677
          },
          {
            "duration": 0.3244046645833407,
            "durationTicks": 218,
            "midi": 69,
            "name": "A4",
            "ticks": 118560,
            "time": 176.4285185,
            "velocity": 0.5984251968503937
          },
          {
            "duration": 0.3244046645833407,
            "durationTicks": 218,
            "midi": 69,
            "name": "A4",
            "ticks": 118800,
            "time": 176.78566125,
            "velocity": 0.5669291338582677
          },
          {
            "duration": 0.3244046645833407,
            "durationTicks": 218,
            "midi": 67,
            "name": "G4",
            "ticks": 119040,
            "time": 177.142804,
            "velocity": 0.5354330708661418
          },
          {
            "duration": 0.3244046645833407,
            "durationTicks": 218,
            "midi": 67,
            "name": "G4",
            "ticks": 119280,
            "time": 177.49994675,
            "velocity": 0.5590551181102362
          },
          {
            "duration": 0.3244046645833407,
            "durationTicks": 218,
            "midi": 67,
            "name": "G4",
            "ticks": 119520,
            "time": 177.8570895,
            "velocity": 0.5590551181102362
          },
          {
            "duration": 0.3244046645833407,
            "durationTicks": 218,
            "midi": 74,
            "name": "D5",
            "ticks": 119760,
            "time": 178.21423225,
            "velocity": 0.6220472440944882
          },
          {
            "duration": 0.3244046645833407,
            "durationTicks": 218,
            "midi": 74,
            "name": "D5",
            "ticks": 120000,
            "time": 178.57137500000002,
            "velocity": 0.5669291338582677
          },
          {
            "duration": 0.3244046645833407,
            "durationTicks": 218,
            "midi": 74,
            "name": "D5",
            "ticks": 120240,
            "time": 178.92851775,
            "velocity": 0.5590551181102362
          },
          {
            "duration": 0.3244046645833407,
            "durationTicks": 218,
            "midi": 74,
            "name": "D5",
            "ticks": 120480,
            "time": 179.2856605,
            "velocity": 0.5590551181102362
          },
          {
            "duration": 0.3244046645833407,
            "durationTicks": 218,
            "midi": 74,
            "name": "D5",
            "ticks": 120720,
            "time": 179.64280325000001,
            "velocity": 0.5590551181102362
          },
          {
            "duration": 0.3244046645833407,
            "durationTicks": 218,
            "midi": 74,
            "name": "D5",
            "ticks": 120960,
            "time": 179.999946,
            "velocity": 0.5590551181102362
          },
          {
            "duration": 0.3244046645833407,
            "durationTicks": 218,
            "midi": 74,
            "name": "D5",
            "ticks": 121200,
            "time": 180.35708875,
            "velocity": 0.5669291338582677
          },
          {
            "duration": 0.3244046645833407,
            "durationTicks": 218,
            "midi": 71,
            "name": "B4",
            "ticks": 121440,
            "time": 180.7142315,
            "velocity": 0.5511811023622047
          },
          {
            "duration": 0.32440466458336914,
            "durationTicks": 218,
            "midi": 71,
            "name": "B4",
            "ticks": 121680,
            "time": 181.07137425,
            "velocity": 0.5511811023622047
          },
          {
            "duration": 0.3244046645833407,
            "durationTicks": 218,
            "midi": 69,
            "name": "A4",
            "ticks": 121920,
            "time": 181.428517,
            "velocity": 0.5511811023622047
          },
          {
            "duration": 0.3244046645833407,
            "durationTicks": 218,
            "midi": 69,
            "name": "A4",
            "ticks": 122160,
            "time": 181.78565975,
            "velocity": 0.5748031496062992
          },
          {
            "duration": 0.3244046645833407,
            "durationTicks": 218,
            "midi": 76,
            "name": "E5",
            "ticks": 122400,
            "time": 182.14280250000002,
            "velocity": 0.5905511811023622
          },
          {
            "duration": 0.3244046645833407,
            "durationTicks": 218,
            "midi": 73,
            "name": "C#5",
            "ticks": 122640,
            "time": 182.49994525,
            "velocity": 0.5590551181102362
          },
          {
            "duration": 0.3244046645833123,
            "durationTicks": 218,
            "midi": 69,
            "name": "A4",
            "ticks": 122880,
            "time": 182.857088,
            "velocity": 0.5275590551181102
          },
          {
            "duration": 0.3244046645833123,
            "durationTicks": 218,
            "midi": 78,
            "name": "F#5",
            "ticks": 123120,
            "time": 183.21423075,
            "velocity": 0.6299212598425197
          },
          {
            "duration": 0.3244046645833407,
            "durationTicks": 218,
            "midi": 78,
            "name": "F#5",
            "ticks": 123360,
            "time": 183.5713735,
            "velocity": 0.5511811023622047
          },
          {
            "duration": 0.3244046645833123,
            "durationTicks": 218,
            "midi": 78,
            "name": "F#5",
            "ticks": 123600,
            "time": 183.92851625,
            "velocity": 0.5433070866141733
          },
          {
            "duration": 0.3244046645833123,
            "durationTicks": 218,
            "midi": 76,
            "name": "E5",
            "ticks": 123840,
            "time": 184.285659,
            "velocity": 0.5354330708661418
          },
          {
            "duration": 0.3244046645833123,
            "durationTicks": 218,
            "midi": 76,
            "name": "E5",
            "ticks": 124080,
            "time": 184.64280175000002,
            "velocity": 0.5590551181102362
          },
          {
            "duration": 0.3244046645833407,
            "durationTicks": 218,
            "midi": 76,
            "name": "E5",
            "ticks": 124320,
            "time": 184.9999445,
            "velocity": 0.5511811023622047
          },
          {
            "duration": 0.3244046645833123,
            "durationTicks": 218,
            "midi": 76,
            "name": "E5",
            "ticks": 124560,
            "time": 185.35708725,
            "velocity": 0.5590551181102362
          },
          {
            "duration": 0.3244046645833123,
            "durationTicks": 218,
            "midi": 74,
            "name": "D5",
            "ticks": 124800,
            "time": 185.71423000000001,
            "velocity": 0.5433070866141733
          },
          {
            "duration": 0.3244046645833407,
            "durationTicks": 218,
            "midi": 74,
            "name": "D5",
            "ticks": 125040,
            "time": 186.07137275,
            "velocity": 0.5669291338582677
          },
          {
            "duration": 0.3244046645833123,
            "durationTicks": 218,
            "midi": 74,
            "name": "D5",
            "ticks": 125280,
            "time": 186.4285155,
            "velocity": 0.5669291338582677
          },
          {
            "duration": 0.3244046645833123,
            "durationTicks": 218,
            "midi": 74,
            "name": "D5",
            "ticks": 125520,
            "time": 186.78565825,
            "velocity": 0.5511811023622047
          },
          {
            "duration": 0.3244046645833407,
            "durationTicks": 218,
            "midi": 81,
            "name": "A5",
            "ticks": 125760,
            "time": 187.142801,
            "velocity": 0.5984251968503937
          },
          {
            "duration": 0.3244046645833407,
            "durationTicks": 218,
            "midi": 81,
            "name": "A5",
            "ticks": 126000,
            "time": 187.49994375,
            "velocity": 0.5590551181102362
          },
          {
            "duration": 0.3244046645833123,
            "durationTicks": 218,
            "midi": 81,
            "name": "A5",
            "ticks": 126240,
            "time": 187.8570865,
            "velocity": 0.5590551181102362
          },
          {
            "duration": 0.3244046645833123,
            "durationTicks": 218,
            "midi": 81,
            "name": "A5",
            "ticks": 126480,
            "time": 188.21422925000002,
            "velocity": 0.5511811023622047
          },
          {
            "duration": 0.3244046645833407,
            "durationTicks": 218,
            "midi": 83,
            "name": "B5",
            "ticks": 126720,
            "time": 188.571372,
            "velocity": 0.5905511811023622
          },
          {
            "duration": 0.3244046645833123,
            "durationTicks": 218,
            "midi": 83,
            "name": "B5",
            "ticks": 126960,
            "time": 188.92851475,
            "velocity": 0.5354330708661418
          },
          {
            "duration": 0.3244046645833123,
            "durationTicks": 218,
            "midi": 83,
            "name": "B5",
            "ticks": 127200,
            "time": 189.2856575,
            "velocity": 0.5511811023622047
          },
          {
            "duration": 0.3244046645833407,
            "durationTicks": 218,
            "midi": 83,
            "name": "B5",
            "ticks": 127440,
            "time": 189.64280025,
            "velocity": 0.5433070866141733
          },
          {
            "duration": 0.3244046645833123,
            "durationTicks": 218,
            "midi": 81,
            "name": "A5",
            "ticks": 127680,
            "time": 189.999943,
            "velocity": 0.5433070866141733
          },
          {
            "duration": 0.3244046645833123,
            "durationTicks": 218,
            "midi": 81,
            "name": "A5",
            "ticks": 127920,
            "time": 190.35708575,
            "velocity": 0.5511811023622047
          },
          {
            "duration": 0.3244046645833123,
            "durationTicks": 218,
            "midi": 81,
            "name": "A5",
            "ticks": 128160,
            "time": 190.71422850000002,
            "velocity": 0.5511811023622047
          },
          {
            "duration": 0.3244046645833407,
            "durationTicks": 218,
            "midi": 81,
            "name": "A5",
            "ticks": 128400,
            "time": 191.07137125,
            "velocity": 0.5748031496062992
          },
          {
            "duration": 0.3244046645833123,
            "durationTicks": 218,
            "midi": 83,
            "name": "B5",
            "ticks": 128640,
            "time": 191.428514,
            "velocity": 0.5826771653543307
          },
          {
            "duration": 0.3244046645833123,
            "durationTicks": 218,
            "midi": 83,
            "name": "B5",
            "ticks": 128880,
            "time": 191.78565675000002,
            "velocity": 0.5669291338582677
          },
          {
            "duration": 0.3244046645833407,
            "durationTicks": 218,
            "midi": 83,
            "name": "B5",
            "ticks": 129120,
            "time": 192.1427995,
            "velocity": 0.5511811023622047
          },
          {
            "duration": 0.3244046645833123,
            "durationTicks": 218,
            "midi": 83,
            "name": "B5",
            "ticks": 129360,
            "time": 192.49994225,
            "velocity": 0.5433070866141733
          },
          {
            "duration": 0.3244046645833123,
            "durationTicks": 218,
            "midi": 85,
            "name": "C#6",
            "ticks": 129600,
            "time": 192.857085,
            "velocity": 0.5669291338582677
          },
          {
            "duration": 0.3244046645833407,
            "durationTicks": 218,
            "midi": 73,
            "name": "C#5",
            "ticks": 129840,
            "time": 193.21422775,
            "velocity": 0.5118110236220472
          },
          {
            "duration": 0.3244046645833407,
            "durationTicks": 218,
            "midi": 73,
            "name": "C#5",
            "ticks": 130080,
            "time": 193.5713705,
            "velocity": 0.5984251968503937
          },
          {
            "duration": 0.3244046645833123,
            "durationTicks": 218,
            "midi": 73,
            "name": "C#5",
            "ticks": 130320,
            "time": 193.92851325,
            "velocity": 0.6377952755905512
          },
          {
            "duration": 0.3244046645833123,
            "durationTicks": 218,
            "midi": 74,
            "name": "D5",
            "ticks": 130560,
            "time": 194.28565600000002,
            "velocity": 0.6771653543307087
          },
          {
            "duration": 0.1785713750000184,
            "durationTicks": 120,
            "midi": 62,
            "name": "D4",
            "ticks": 130800,
            "time": 194.64279875,
            "velocity": 0.5826771653543307
          },
          {
            "duration": 0.17857137499998998,
            "durationTicks": 120,
            "midi": 64,
            "name": "E4",
            "ticks": 130920,
            "time": 194.82137012500002,
            "velocity": 0.6692913385826772
          },
          {
            "duration": 0.33482132812500254,
            "durationTicks": 225,
            "midi": 66,
            "name": "F#4",
            "ticks": 131040,
            "time": 194.9999415,
            "velocity": 0.6692913385826772
          },
          {
            "duration": 0.3244046645833123,
            "durationTicks": 218,
            "midi": 62,
            "name": "D4",
            "ticks": 131280,
            "time": 195.35708425,
            "velocity": 0.6220472440944882
          },
          {
            "duration": 0.3244046645833407,
            "durationTicks": 218,
            "midi": 61,
            "name": "C#4",
            "ticks": 131520,
            "time": 195.714227,
            "velocity": 0.6299212598425197
          },
          {
            "duration": 0.17857137499998998,
            "durationTicks": 120,
            "midi": 73,
            "name": "C#5",
            "ticks": 131760,
            "time": 196.07136975,
            "velocity": 0.7480314960629921
          },
          {
            "duration": 0.1785713750000184,
            "durationTicks": 120,
            "midi": 74,
            "name": "D5",
            "ticks": 131880,
            "time": 196.249941125,
            "velocity": 0.7007874015748031
          },
          {
            "duration": 0.33482132812500254,
            "durationTicks": 225,
            "midi": 76,
            "name": "E5",
            "ticks": 132000,
            "time": 196.4285125,
            "velocity": 0.6929133858267716
          },
          {
            "duration": 0.3244046645833407,
            "durationTicks": 218,
            "midi": 73,
            "name": "C#5",
            "ticks": 132240,
            "time": 196.78565525,
            "velocity": 0.6377952755905512
          },
          {
            "duration": 0.3244046645833407,
            "durationTicks": 218,
            "midi": 71,
            "name": "B4",
            "ticks": 132480,
            "time": 197.142798,
            "velocity": 0.6299212598425197
          },
          {
            "duration": 0.17857137499998998,
            "durationTicks": 120,
            "midi": 59,
            "name": "B3",
            "ticks": 132720,
            "time": 197.49994075,
            "velocity": 0.6062992125984252
          },
          {
            "duration": 0.1785713750000184,
            "durationTicks": 120,
            "midi": 61,
            "name": "C#4",
            "ticks": 132840,
            "time": 197.678512125,
            "velocity": 0.6850393700787402
          },
          {
            "duration": 0.33482132812500254,
            "durationTicks": 225,
            "midi": 62,
            "name": "D4",
            "ticks": 132960,
            "time": 197.85708350000002,
            "velocity": 0.6692913385826772
          },
          {
            "duration": 0.3244046645833407,
            "durationTicks": 218,
            "midi": 59,
            "name": "B3",
            "ticks": 133200,
            "time": 198.21422625,
            "velocity": 0.6614173228346457
          },
          {
            "duration": 0.3244046645833123,
            "durationTicks": 218,
            "midi": 61,
            "name": "C#4",
            "ticks": 133440,
            "time": 198.571369,
            "velocity": 0.6771653543307087
          },
          {
            "duration": 0.17857137499998998,
            "durationTicks": 120,
            "midi": 69,
            "name": "A4",
            "ticks": 133680,
            "time": 198.92851175,
            "velocity": 0.7322834645669292
          },
          {
            "duration": 0.17857137499998998,
            "durationTicks": 120,
            "midi": 67,
            "name": "G4",
            "ticks": 133800,
            "time": 199.107083125,
            "velocity": 0.6614173228346457
          },
          {
            "duration": 0.33482132812500254,
            "durationTicks": 225,
            "midi": 66,
            "name": "F#4",
            "ticks": 133920,
            "time": 199.2856545,
            "velocity": 0.6535433070866141
          },
          {
            "duration": 0.3244046645833123,
            "durationTicks": 218,
            "midi": 64,
            "name": "E4",
            "ticks": 134160,
            "time": 199.64279725,
            "velocity": 0.6456692913385826
          },
          {
            "duration": 0.3244046645833123,
            "durationTicks": 218,
            "midi": 62,
            "name": "D4",
            "ticks": 134400,
            "time": 199.99994,
            "velocity": 0.6614173228346457
          },
          {
            "duration": 0.17857137499998998,
            "durationTicks": 120,
            "midi": 66,
            "name": "F#4",
            "ticks": 134640,
            "time": 200.35708275000002,
            "velocity": 0.6929133858267716
          },
          {
            "duration": 0.17857137499998998,
            "durationTicks": 120,
            "midi": 64,
            "name": "E4",
            "ticks": 134760,
            "time": 200.535654125,
            "velocity": 0.6614173228346457
          },
          {
            "duration": 0.33482132812500254,
            "durationTicks": 225,
            "midi": 62,
            "name": "D4",
            "ticks": 134880,
            "time": 200.7142255,
            "velocity": 0.6377952755905512
          },
          {
            "duration": 0.3244046645833123,
            "durationTicks": 218,
            "midi": 67,
            "name": "G4",
            "ticks": 135120,
            "time": 201.07136825,
            "velocity": 0.6850393700787402
          },
          {
            "duration": 0.3244046645833123,
            "durationTicks": 218,
            "midi": 66,
            "name": "F#4",
            "ticks": 135360,
            "time": 201.42851100000001,
            "velocity": 0.6535433070866141
          },
          {
            "duration": 0.1785713750000184,
            "durationTicks": 120,
            "midi": 62,
            "name": "D4",
            "ticks": 135600,
            "time": 201.78565375,
            "velocity": 0.6456692913385826
          },
          {
            "duration": 0.17857137499998998,
            "durationTicks": 120,
            "midi": 64,
            "name": "E4",
            "ticks": 135720,
            "time": 201.964225125,
            "velocity": 0.6692913385826772
          },
          {
            "duration": 0.33482132812500254,
            "durationTicks": 225,
            "midi": 66,
            "name": "F#4",
            "ticks": 135840,
            "time": 202.1427965,
            "velocity": 0.6692913385826772
          },
          {
            "duration": 0.3244046645833123,
            "durationTicks": 218,
            "midi": 69,
            "name": "A4",
            "ticks": 136080,
            "time": 202.49993925,
            "velocity": 0.6929133858267716
          },
          {
            "duration": 0.3244046645833407,
            "durationTicks": 218,
            "midi": 67,
            "name": "G4",
            "ticks": 136320,
            "time": 202.857082,
            "velocity": 0.6377952755905512
          },
          {
            "duration": 0.1785713750000184,
            "durationTicks": 120,
            "midi": 71,
            "name": "B4",
            "ticks": 136560,
            "time": 203.21422475,
            "velocity": 0.7007874015748031
          },
          {
            "duration": 0.17857137499998998,
            "durationTicks": 120,
            "midi": 69,
            "name": "A4",
            "ticks": 136680,
            "time": 203.39279612500002,
            "velocity": 0.6377952755905512
          },
          {
            "duration": 0.33482132812500254,
            "durationTicks": 225,
            "midi": 67,
            "name": "G4",
            "ticks": 136800,
            "time": 203.5713675,
            "velocity": 0.6377952755905512
          },
          {
            "duration": 0.3244046645833123,
            "durationTicks": 218,
            "midi": 66,
            "name": "F#4",
            "ticks": 137040,
            "time": 203.92851025000002,
            "velocity": 0.6456692913385826
          },
          {
            "duration": 0.3244046645833407,
            "durationTicks": 218,
            "midi": 64,
            "name": "E4",
            "ticks": 137280,
            "time": 204.285653,
            "velocity": 0.6299212598425197
          },
          {
            "duration": 0.17857137499998998,
            "durationTicks": 120,
            "midi": 69,
            "name": "A4",
            "ticks": 137520,
            "time": 204.64279575,
            "velocity": 0.7007874015748031
          },
          {
            "duration": 0.1785713750000184,
            "durationTicks": 120,
            "midi": 67,
            "name": "G4",
            "ticks": 137640,
            "time": 204.821367125,
            "velocity": 0.6456692913385826
          },
          {
            "duration": 0.33482132812500254,
            "durationTicks": 225,
            "midi": 66,
            "name": "F#4",
            "ticks": 137760,
            "time": 204.9999385,
            "velocity": 0.6535433070866141
          },
          {
            "duration": 0.3244046645833407,
            "durationTicks": 218,
            "midi": 64,
            "name": "E4",
            "ticks": 138000,
            "time": 205.35708125,
            "velocity": 0.6299212598425197
          },
          {
            "duration": 0.3244046645833123,
            "durationTicks": 218,
            "midi": 66,
            "name": "F#4",
            "ticks": 138240,
            "time": 205.714224,
            "velocity": 0.6692913385826772
          },
          {
            "duration": 0.17857137499998998,
            "durationTicks": 120,
            "midi": 74,
            "name": "D5",
            "ticks": 138480,
            "time": 206.07136675,
            "velocity": 0.7244094488188977
          },
          {
            "duration": 0.1785713750000184,
            "durationTicks": 120,
            "midi": 73,
            "name": "C#5",
            "ticks": 138600,
            "time": 206.249938125,
            "velocity": 0.6456692913385826
          },
          {
            "duration": 0.3348213281249741,
            "durationTicks": 225,
            "midi": 74,
            "name": "D5",
            "ticks": 138720,
            "time": 206.42850950000002,
            "velocity": 0.6692913385826772
          },
          {
            "duration": 0.3244046645833407,
            "durationTicks": 218,
            "midi": 66,
            "name": "F#4",
            "ticks": 138960,
            "time": 206.78565225,
            "velocity": 0.5826771653543307
          },
          {
            "duration": 0.3244046645833123,
            "durationTicks": 218,
            "midi": 69,
            "name": "A4",
            "ticks": 139200,
            "time": 207.142795,
            "velocity": 0.6850393700787402
          },
          {
            "duration": 0.17857137499998998,
            "durationTicks": 120,
            "midi": 69,
            "name": "A4",
            "ticks": 139440,
            "time": 207.49993775000002,
            "velocity": 0.6614173228346457
          },
          {
            "duration": 0.17857137499998998,
            "durationTicks": 120,
            "midi": 71,
            "name": "B4",
            "ticks": 139560,
            "time": 207.678509125,
            "velocity": 0.6771653543307087
          },
          {
            "duration": 0.33482132812500254,
            "durationTicks": 225,
            "midi": 73,
            "name": "C#5",
            "ticks": 139680,
            "time": 207.8570805,
            "velocity": 0.7007874015748031
          },
          {
            "duration": 0.3244046645833123,
            "durationTicks": 218,
            "midi": 69,
            "name": "A4",
            "ticks": 139920,
            "time": 208.21422325,
            "velocity": 0.6299212598425197
          },
          {
            "duration": 0.3244046645833123,
            "durationTicks": 218,
            "midi": 66,
            "name": "F#4",
            "ticks": 140160,
            "time": 208.571366,
            "velocity": 0.6377952755905512
          },
          {
            "duration": 0.1785713750000184,
            "durationTicks": 120,
            "midi": 74,
            "name": "D5",
            "ticks": 140400,
            "time": 208.92850875,
            "velocity": 0.7480314960629921
          },
          {
            "duration": 0.17857137499998998,
            "durationTicks": 120,
            "midi": 76,
            "name": "E5",
            "ticks": 140520,
            "time": 209.107080125,
            "velocity": 0.6771653543307087
          },
          {
            "duration": 0.33482132812500254,
            "durationTicks": 225,
            "midi": 78,
            "name": "F#5",
            "ticks": 140640,
            "time": 209.2856515,
            "velocity": 0.6850393700787402
          },
          {
            "duration": 0.3244046645833123,
            "durationTicks": 218,
            "midi": 74,
            "name": "D5",
            "ticks": 140880,
            "time": 209.64279425,
            "velocity": 0.6062992125984252
          },
          {
            "duration": 0.3244046645833123,
            "durationTicks": 218,
            "midi": 78,
            "name": "F#5",
            "ticks": 141120,
            "time": 209.99993700000002,
            "velocity": 0.7007874015748031
          },
          {
            "duration": 0.1785713750000184,
            "durationTicks": 120,
            "midi": 78,
            "name": "F#5",
            "ticks": 141360,
            "time": 210.35707975,
            "velocity": 0.6377952755905512
          },
          {
            "duration": 0.17857137499998998,
            "durationTicks": 120,
            "midi": 76,
            "name": "E5",
            "ticks": 141480,
            "time": 210.53565112500002,
            "velocity": 0.6456692913385826
          },
          {
            "duration": 0.33482132812500254,
            "durationTicks": 225,
            "midi": 74,
            "name": "D5",
            "ticks": 141600,
            "time": 210.7142225,
            "velocity": 0.6299212598425197
          },
          {
            "duration": 0.3244046645833123,
            "durationTicks": 218,
            "midi": 73,
            "name": "C#5",
            "ticks": 141840,
            "time": 211.07136525,
            "velocity": 0.6377952755905512
          },
          {
            "duration": 0.3244046645833407,
            "durationTicks": 218,
            "midi": 71,
            "name": "B4",
            "ticks": 142080,
            "time": 211.428508,
            "velocity": 0.6299212598425197
          },
          {
            "duration": 0.17857137499998998,
            "durationTicks": 120,
            "midi": 71,
            "name": "B4",
            "ticks": 142320,
            "time": 211.78565075,
            "velocity": 0.6614173228346457
          },
          {
            "duration": 0.1785713750000184,
            "durationTicks": 120,
            "midi": 69,
            "name": "A4",
            "ticks": 142440,
            "time": 211.964222125,
            "velocity": 0.6299212598425197
          },
          {
            "duration": 0.33482132812500254,
            "durationTicks": 225,
            "midi": 71,
            "name": "B4",
            "ticks": 142560,
            "time": 212.1427935,
            "velocity": 0.7007874015748031
          },
          {
            "duration": 0.3244046645833123,
            "durationTicks": 218,
            "midi": 73,
            "name": "C#5",
            "ticks": 142800,
            "time": 212.49993625000002,
            "velocity": 0.6929133858267716
          },
          {
            "duration": 0.3244046645833407,
            "durationTicks": 218,
            "midi": 74,
            "name": "D5",
            "ticks": 143040,
            "time": 212.857079,
            "velocity": 0.6692913385826772
          },
          {
            "duration": 0.17857137499998998,
            "durationTicks": 120,
            "midi": 78,
            "name": "F#5",
            "ticks": 143280,
            "time": 213.21422175,
            "velocity": 0.7086614173228346
          },
          {
            "duration": 0.1785713750000184,
            "durationTicks": 120,
            "midi": 76,
            "name": "E5",
            "ticks": 143400,
            "time": 213.392793125,
            "velocity": 0.6456692913385826
          },
          {
            "duration": 0.33482132812500254,
            "durationTicks": 225,
            "midi": 74,
            "name": "D5",
            "ticks": 143520,
            "time": 213.57136450000002,
            "velocity": 0.6299212598425197
          },
          {
            "duration": 0.3244046645833407,
            "durationTicks": 218,
            "midi": 78,
            "name": "F#5",
            "ticks": 143760,
            "time": 213.92850725,
            "velocity": 0.7007874015748031
          },
          {
            "duration": 0.3244046645833123,
            "durationTicks": 218,
            "midi": 79,
            "name": "G5",
            "ticks": 144000,
            "time": 214.28565,
            "velocity": 0.6771653543307087
          },
          {
            "duration": 0.17857137499998998,
            "durationTicks": 120,
            "midi": 74,
            "name": "D5",
            "ticks": 144240,
            "time": 214.64279275,
            "velocity": 0.6299212598425197
          },
          {
            "duration": 0.17857137499998998,
            "durationTicks": 120,
            "midi": 73,
            "name": "C#5",
            "ticks": 144360,
            "time": 214.821364125,
            "velocity": 0.6456692913385826
          },
          {
            "duration": 0.33482132812500254,
            "durationTicks": 225,
            "midi": 71,
            "name": "B4",
            "ticks": 144480,
            "time": 214.9999355,
            "velocity": 0.6220472440944882
          },
          {
            "duration": 0.3244046645833407,
            "durationTicks": 218,
            "midi": 71,
            "name": "B4",
            "ticks": 144720,
            "time": 215.35707825,
            "velocity": 0.6456692913385826
          },
          {
            "duration": 0.3244046645833123,
            "durationTicks": 218,
            "midi": 69,
            "name": "A4",
            "ticks": 144960,
            "time": 215.714221,
            "velocity": 0.6299212598425197
          },
          {
            "duration": 0.3244046645833123,
            "durationTicks": 218,
            "midi": 64,
            "name": "E4",
            "ticks": 145200,
            "time": 216.07136375000002,
            "velocity": 0.6299212598425197
          },
          {
            "duration": 0.3244046645833407,
            "durationTicks": 218,
            "midi": 69,
            "name": "A4",
            "ticks": 145440,
            "time": 216.4285065,
            "velocity": 0.7165354330708661
          },
          {
            "duration": 0.3244046645833123,
            "durationTicks": 218,
            "midi": 69,
            "name": "A4",
            "ticks": 145680,
            "time": 216.78564925,
            "velocity": 0.6614173228346457
          },
          {
            "duration": 1.9315470395833074,
            "durationTicks": 1298,
            "midi": 69,
            "name": "A4",
            "ticks": 145920,
            "time": 217.14279200000001,
            "velocity": 0.6614173228346457
          },
          {
            "duration": 0.6473212343749992,
            "durationTicks": 435,
            "midi": 69,
            "name": "A4",
            "ticks": 147360,
            "time": 219.2856485,
            "velocity": 0.6456692913385826
          },
          {
            "duration": 1.9315470395833358,
            "durationTicks": 1298,
            "midi": 62,
            "name": "D4",
            "ticks": 147840,
            "time": 219.999934,
            "velocity": 0.6141732283464567
          },
          {
            "duration": 0.6473212343749992,
            "durationTicks": 435,
            "midi": 69,
            "name": "A4",
            "ticks": 149280,
            "time": 222.14279050000002,
            "velocity": 0.7086614173228346
          },
          {
            "duration": 1.2886900895833264,
            "durationTicks": 866,
            "midi": 67,
            "name": "G4",
            "ticks": 149760,
            "time": 222.857076,
            "velocity": 0.6377952755905512
          },
          {
            "duration": 1.2886900895833264,
            "durationTicks": 866,
            "midi": 69,
            "name": "A4",
            "ticks": 150720,
            "time": 224.285647,
            "velocity": 0.6771653543307087
          },
          {
            "duration": 0.6473212343749992,
            "durationTicks": 435,
            "midi": 67,
            "name": "G4",
            "ticks": 151680,
            "time": 225.71421800000002,
            "velocity": 0.6377952755905512
          },
          {
            "duration": 0.6473212343749992,
            "durationTicks": 435,
            "midi": 62,
            "name": "D4",
            "ticks": 152160,
            "time": 226.4285035,
            "velocity": 0.6062992125984252
          },
          {
            "duration": 0.9657735197916679,
            "durationTicks": 649,
            "midi": 62,
            "name": "D4",
            "ticks": 152640,
            "time": 227.142789,
            "velocity": 0.6456692913385826
          },
          {
            "duration": 0.3244046645833123,
            "durationTicks": 218,
            "midi": 61,
            "name": "C#4",
            "ticks": 153360,
            "time": 228.21421725000002,
            "velocity": 0.6377952755905512
          },
          {
            "duration": 0.6473212343749992,
            "durationTicks": 435,
            "midi": 62,
            "name": "D4",
            "ticks": 153600,
            "time": 228.57136,
            "velocity": 0.7952755905511811
          },
          {
            "duration": 0.6473212343749992,
            "durationTicks": 435,
            "midi": 74,
            "name": "D5",
            "ticks": 154080,
            "time": 229.28564550000002,
            "velocity": 0.8661417322834646
          },
          {
            "duration": 1.2886900895833548,
            "durationTicks": 866,
            "midi": 73,
            "name": "C#5",
            "ticks": 154560,
            "time": 229.999931,
            "velocity": 0.7637795275590551
          },
          {
            "duration": 1.2886900895833264,
            "durationTicks": 866,
            "midi": 71,
            "name": "B4",
            "ticks": 155520,
            "time": 231.428502,
            "velocity": 0.7559055118110236
          },
          {
            "duration": 1.2886900895833264,
            "durationTicks": 866,
            "midi": 69,
            "name": "A4",
            "ticks": 156480,
            "time": 232.857073,
            "velocity": 0.7401574803149606
          },
          {
            "duration": 0.9657735197916395,
            "durationTicks": 649,
            "midi": 62,
            "name": "D4",
            "ticks": 157440,
            "time": 234.28564400000002,
            "velocity": 0.7007874015748031
          },
          {
            "duration": 0.3244046645833123,
            "durationTicks": 218,
            "midi": 64,
            "name": "E4",
            "ticks": 158160,
            "time": 235.35707225000002,
            "velocity": 0.7874015748031497
          },
          {
            "duration": 1.2886900895833548,
            "durationTicks": 866,
            "midi": 66,
            "name": "F#4",
            "ticks": 158400,
            "time": 235.714215,
            "velocity": 0.7952755905511811
          },
          {
            "duration": 1.2886900895833548,
            "durationTicks": 866,
            "midi": 74,
            "name": "D5",
            "ticks": 159360,
            "time": 237.142786,
            "velocity": 0.8503937007874016
          },
          {
            "duration": 0.9657735197916679,
            "durationTicks": 649,
            "midi": 64,
            "name": "E4",
            "ticks": 160320,
            "time": 238.571357,
            "velocity": 0.6850393700787402
          },
          {
            "duration": 0.3244046645833123,
            "durationTicks": 218,
            "midi": 64,
            "name": "E4",
            "ticks": 161040,
            "time": 239.64278525,
            "velocity": 0.7637795275590551
          },
          {
            "duration": 0.9657735197916679,
            "durationTicks": 649,
            "midi": 66,
            "name": "F#4",
            "ticks": 161280,
            "time": 239.999928,
            "velocity": 0.8031496062992126
          },
          {
            "duration": 0.3244046645833123,
            "durationTicks": 218,
            "midi": 78,
            "name": "F#5",
            "ticks": 162000,
            "time": 241.07135625,
            "velocity": 0.8582677165354331
          },
          {
            "duration": 0.363095129166652,
            "durationTicks": 244,
            "midi": 78,
            "name": "F#5",
            "ticks": 162240,
            "time": 241.42849900000002,
            "velocity": 0.7795275590551181
          },
          {
            "duration": 0.3630951291666804,
            "durationTicks": 244,
            "midi": 79,
            "name": "G5",
            "ticks": 162480,
            "time": 241.78564175,
            "velocity": 0.8031496062992126
          },
          {
            "duration": 0.363095129166652,
            "durationTicks": 244,
            "midi": 78,
            "name": "F#5",
            "ticks": 162720,
            "time": 242.1427845,
            "velocity": 0.7637795275590551
          },
          {
            "duration": 0.33482132812500254,
            "durationTicks": 225,
            "midi": 76,
            "name": "E5",
            "ticks": 162960,
            "time": 242.49992725,
            "velocity": 0.7401574803149606
          },
          {
            "duration": 0.9657735197916679,
            "durationTicks": 649,
            "midi": 74,
            "name": "D5",
            "ticks": 163200,
            "time": 242.85707,
            "velocity": 0.7401574803149606
          },
          {
            "duration": 0.3244046645833123,
            "durationTicks": 218,
            "midi": 74,
            "name": "D5",
            "ticks": 163920,
            "time": 243.92849825000002,
            "velocity": 0.7874015748031497
          },
          {
            "duration": 0.3630951291666804,
            "durationTicks": 244,
            "midi": 74,
            "name": "D5",
            "ticks": 164160,
            "time": 244.285641,
            "velocity": 0.7874015748031497
          },
          {
            "duration": 0.363095129166652,
            "durationTicks": 244,
            "midi": 76,
            "name": "E5",
            "ticks": 164400,
            "time": 244.64278375,
            "velocity": 0.8267716535433071
          },
          {
            "duration": 0.363095129166652,
            "durationTicks": 244,
            "midi": 74,
            "name": "D5",
            "ticks": 164640,
            "time": 244.99992650000002,
            "velocity": 0.7401574803149606
          },
          {
            "duration": 0.33482132812500254,
            "durationTicks": 225,
            "midi": 73,
            "name": "C#5",
            "ticks": 164880,
            "time": 245.35706925,
            "velocity": 0.7165354330708661
          },
          {
            "duration": 1.2886900895833548,
            "durationTicks": 866,
            "midi": 71,
            "name": "B4",
            "ticks": 165120,
            "time": 245.714212,
            "velocity": 0.7401574803149606
          },
          {
            "duration": 1.2886900895833264,
            "durationTicks": 866,
            "midi": 74,
            "name": "D5",
            "ticks": 166080,
            "time": 247.142783,
            "velocity": 0.8031496062992126
          },
          {
            "duration": 0.363095129166652,
            "durationTicks": 244,
            "midi": 74,
            "name": "D5",
            "ticks": 167040,
            "time": 248.571354,
            "velocity": 0.7795275590551181
          },
          {
            "duration": 0.3630951291666804,
            "durationTicks": 244,
            "midi": 72,
            "name": "C5",
            "ticks": 167280,
            "time": 248.92849675,
            "velocity": 0.7637795275590551
          },
          {
            "duration": 0.363095129166652,
            "durationTicks": 244,
            "midi": 71,
            "name": "B4",
            "ticks": 167520,
            "time": 249.2856395,
            "velocity": 0.7559055118110236
          },
          {
            "duration": 0.33482132812500254,
            "durationTicks": 225,
            "midi": 72,
            "name": "C5",
            "ticks": 167760,
            "time": 249.64278225,
            "velocity": 0.7795275590551181
          },
          {
            "duration": 0.9657735197916395,
            "durationTicks": 649,
            "midi": 69,
            "name": "A4",
            "ticks": 168000,
            "time": 249.99992500000002,
            "velocity": 0.7401574803149606
          },
          {
            "duration": 0.3244046645833123,
            "durationTicks": 218,
            "midi": 69,
            "name": "A4",
            "ticks": 168720,
            "time": 251.07135325000002,
            "velocity": 0.7716535433070866
          },
          {
            "duration": 0.9657735197916679,
            "durationTicks": 649,
            "midi": 69,
            "name": "A4",
            "ticks": 168960,
            "time": 251.428496,
            "velocity": 0.7716535433070866
          },
          {
            "duration": 0.3244046645833407,
            "durationTicks": 218,
            "midi": 81,
            "name": "A5",
            "ticks": 169680,
            "time": 252.49992425,
            "velocity": 0.8976377952755905
          },
          {
            "duration": 0.3630951291666804,
            "durationTicks": 244,
            "midi": 81,
            "name": "A5",
            "ticks": 169920,
            "time": 252.857067,
            "velocity": 0.7716535433070866
          },
          {
            "duration": 0.363095129166652,
            "durationTicks": 244,
            "midi": 83,
            "name": "B5",
            "ticks": 170160,
            "time": 253.21420975,
            "velocity": 0.8031496062992126
          },
          {
            "duration": 0.363095129166652,
            "durationTicks": 244,
            "midi": 81,
            "name": "A5",
            "ticks": 170400,
            "time": 253.57135250000002,
            "velocity": 0.7559055118110236
          },
          {
            "duration": 0.33482132812500254,
            "durationTicks": 225,
            "midi": 79,
            "name": "G5",
            "ticks": 170640,
            "time": 253.92849525,
            "velocity": 0.7165354330708661
          },
          {
            "duration": 0.9657735197916679,
            "durationTicks": 649,
            "midi": 78,
            "name": "F#5",
            "ticks": 170880,
            "time": 254.285638,
            "velocity": 0.7559055118110236
          },
          {
            "duration": 0.3244046645833123,
            "durationTicks": 218,
            "midi": 78,
            "name": "F#5",
            "ticks": 171600,
            "time": 255.35706625,
            "velocity": 0.7795275590551181
          },
          {
            "duration": 0.3630951291666804,
            "durationTicks": 244,
            "midi": 78,
            "name": "F#5",
            "ticks": 171840,
            "time": 255.714209,
            "velocity": 0.7637795275590551
          },
          {
            "duration": 0.363095129166652,
            "durationTicks": 244,
            "midi": 79,
            "name": "G5",
            "ticks": 172080,
            "time": 256.07135175,
            "velocity": 0.7795275590551181
          },
          {
            "duration": 0.363095129166652,
            "durationTicks": 244,
            "midi": 78,
            "name": "F#5",
            "ticks": 172320,
            "time": 256.4284945,
            "velocity": 0.7401574803149606
          },
          {
            "duration": 0.33482132812503096,
            "durationTicks": 225,
            "midi": 76,
            "name": "E5",
            "ticks": 172560,
            "time": 256.78563725,
            "velocity": 0.7165354330708661
          },
          {
            "duration": 0.363095129166652,
            "durationTicks": 244,
            "midi": 74,
            "name": "D5",
            "ticks": 172800,
            "time": 257.14278,
            "velocity": 0.7322834645669292
          },
          {
            "duration": 0.363095129166652,
            "durationTicks": 244,
            "midi": 72,
            "name": "C5",
            "ticks": 173040,
            "time": 257.49992275,
            "velocity": 0.7007874015748031
          },
          {
            "duration": 0.363095129166652,
            "durationTicks": 244,
            "midi": 71,
            "name": "B4",
            "ticks": 173280,
            "time": 257.85706550000003,
            "velocity": 0.7401574803149606
          },
          {
            "duration": 0.3348213281249741,
            "durationTicks": 225,
            "midi": 72,
            "name": "C5",
            "ticks": 173520,
            "time": 258.21420825,
            "velocity": 0.7480314960629921
          },
          {
            "duration": 0.9657735197916963,
            "durationTicks": 649,
            "midi": 69,
            "name": "A4",
            "ticks": 173760,
            "time": 258.571351,
            "velocity": 0.7480314960629921
          },
          {
            "duration": 0.3244046645833123,
            "durationTicks": 218,
            "midi": 69,
            "name": "A4",
            "ticks": 174480,
            "time": 259.64277925,
            "velocity": 0.7559055118110236
          },
          {
            "duration": 0.6473212343749992,
            "durationTicks": 435,
            "midi": 67,
            "name": "G4",
            "ticks": 174720,
            "time": 259.999922,
            "velocity": 0.7480314960629921
          },
          {
            "duration": 0.6473212343749992,
            "durationTicks": 435,
            "midi": 74,
            "name": "D5",
            "ticks": 175200,
            "time": 260.7142075,
            "velocity": 0.84251968503937
          },
          {
            "duration": 0.9657735197916395,
            "durationTicks": 649,
            "midi": 73,
            "name": "C#5",
            "ticks": 175680,
            "time": 261.428493,
            "velocity": 0.7480314960629921
          },
          {
            "duration": 0.3244046645833123,
            "durationTicks": 218,
            "midi": 73,
            "name": "C#5",
            "ticks": 176400,
            "time": 262.49992125,
            "velocity": 0.7874015748031497
          },
          {
            "duration": 0.6473212343749992,
            "durationTicks": 435,
            "midi": 74,
            "name": "D5",
            "ticks": 176640,
            "time": 262.857064,
            "velocity": 0.7874015748031497
          },
          {
            "duration": 1.2886900895833264,
            "durationTicks": 866,
            "midi": 74,
            "name": "D5",
            "ticks": 177120,
            "time": 263.5713495,
            "velocity": 0.6535433070866141
          },
          {
            "duration": 1.2886900895833264,
            "durationTicks": 866,
            "midi": 73,
            "name": "C#5",
            "ticks": 178080,
            "time": 264.99992050000003,
            "velocity": 0.6456692913385826
          },
          {
            "duration": 1.2886900895833264,
            "durationTicks": 866,
            "midi": 71,
            "name": "B4",
            "ticks": 179040,
            "time": 266.4284915,
            "velocity": 0.6220472440944882
          },
          {
            "duration": 1.361606734375016,
            "durationTicks": 915,
            "midi": 69,
            "name": "A4",
            "ticks": 180000,
            "time": 267.8570625,
            "velocity": 0.6377952755905512
          },
          {
            "duration": 1.2886900895833264,
            "durationTicks": 866,
            "midi": 67,
            "name": "G4",
            "ticks": 180960,
            "time": 269.2856335,
            "velocity": 0.6377952755905512
          },
          {
            "duration": 0.6473212343749992,
            "durationTicks": 435,
            "midi": 66,
            "name": "F#4",
            "ticks": 181920,
            "time": 270.7142045,
            "velocity": 0.6456692913385826
          },
          {
            "duration": 0.9657735197916395,
            "durationTicks": 649,
            "midi": 66,
            "name": "F#4",
            "ticks": 182400,
            "time": 271.42849,
            "velocity": 0.6456692913385826
          },
          {
            "duration": 0.3244046645833123,
            "durationTicks": 218,
            "midi": 64,
            "name": "E4",
            "ticks": 183120,
            "time": 272.49991825,
            "velocity": 0.6299212598425197
          },
          {
            "duration": 1.2886900895833833,
            "durationTicks": 866,
            "midi": 64,
            "name": "E4",
            "ticks": 183360,
            "time": 272.857061,
            "velocity": 0.6614173228346457
          },
          {
            "duration": 0.6473212343749992,
            "durationTicks": 435,
            "midi": 66,
            "name": "F#4",
            "ticks": 184320,
            "time": 274.285632,
            "velocity": 0.6771653543307087
          },
          {
            "duration": 1.2886900895833833,
            "durationTicks": 866,
            "midi": 78,
            "name": "F#5",
            "ticks": 184800,
            "time": 274.9999175,
            "velocity": 0.7559055118110236
          },
          {
            "duration": 0.6473212343749992,
            "durationTicks": 435,
            "midi": 76,
            "name": "E5",
            "ticks": 185760,
            "time": 276.4284885,
            "velocity": 0.6456692913385826
          },
          {
            "duration": 0.6473212343749992,
            "durationTicks": 435,
            "midi": 74,
            "name": "D5",
            "ticks": 186240,
            "time": 277.14277400000003,
            "velocity": 0.6299212598425197
          },
          {
            "duration": 1.2886900895833264,
            "durationTicks": 866,
            "midi": 86,
            "name": "D6",
            "ticks": 186720,
            "time": 277.8570595,
            "velocity": 0.7322834645669292
          },
          {
            "duration": 0.6473212343749992,
            "durationTicks": 435,
            "midi": 84,
            "name": "C6",
            "ticks": 187680,
            "time": 279.2856305,
            "velocity": 0.6535433070866141
          },
          {
            "duration": 1.2886900895833833,
            "durationTicks": 866,
            "midi": 83,
            "name": "B5",
            "ticks": 188160,
            "time": 279.999916,
            "velocity": 0.6692913385826772
          },
          {
            "duration": 0.6473212343749992,
            "durationTicks": 435,
            "midi": 86,
            "name": "D6",
            "ticks": 189120,
            "time": 281.428487,
            "velocity": 0.6771653543307087
          },
          {
            "duration": 0.6473212343749992,
            "durationTicks": 435,
            "midi": 83,
            "name": "B5",
            "ticks": 189600,
            "time": 282.14277250000004,
            "velocity": 0.6535433070866141
          },
          {
            "duration": 1.2886900895833264,
            "durationTicks": 866,
            "midi": 83,
            "name": "B5",
            "ticks": 190080,
            "time": 282.857058,
            "velocity": 0.6929133858267716
          },
          {
            "duration": 1.2886900895833264,
            "durationTicks": 866,
            "midi": 81,
            "name": "A5",
            "ticks": 191040,
            "time": 284.28562900000003,
            "velocity": 0.7165354330708661
          },
          {
            "duration": 1.2886900895833264,
            "durationTicks": 866,
            "midi": 81,
            "name": "A5",
            "ticks": 192000,
            "time": 285.7142,
            "velocity": 0.7952755905511811
          },
          {
            "duration": 1.0877972927083874,
            "durationTicks": 731,
            "midi": 69,
            "name": "A4",
            "ticks": 192960,
            "time": 287.142771,
            "velocity": 0.6614173228346457
          },
          {
            "duration": 0.36309512916670883,
            "durationTicks": 244,
            "midi": 67,
            "name": "G4",
            "ticks": 193680,
            "time": 288.21419925,
            "velocity": 0.6377952755905512
          },
          {
            "duration": 1.355654355208344,
            "durationTicks": 911,
            "midi": 66,
            "name": "F#4",
            "ticks": 193920,
            "time": 288.571342,
            "velocity": 0.7559055118110236
          },
          {
            "duration": 1.0877972927083306,
            "durationTicks": 731,
            "midi": 78,
            "name": "F#5",
            "ticks": 194880,
            "time": 289.999913,
            "velocity": 0.8818897637795275
          },
          {
            "duration": 0.363095129166652,
            "durationTicks": 244,
            "midi": 76,
            "name": "E5",
            "ticks": 195600,
            "time": 291.07134125,
            "velocity": 0.8661417322834646
          },
          {
            "duration": 2.0312493906249642,
            "durationTicks": 1365,
            "midi": 74,
            "name": "D5",
            "ticks": 195840,
            "time": 291.428484,
            "velocity": 0.7401574803149606
          },
          {
            "duration": 0.6473212343749992,
            "durationTicks": 435,
            "midi": 74,
            "name": "D5",
            "ticks": 197280,
            "time": 293.5713405,
            "velocity": 0.7716535433070866
          },
          {
            "duration": 1.2886900895833833,
            "durationTicks": 866,
            "midi": 74,
            "name": "D5",
            "ticks": 197760,
            "time": 294.285626,
            "velocity": 0.7716535433070866
          },
          {
            "duration": 1.2886900895833264,
            "durationTicks": 866,
            "midi": 73,
            "name": "C#5",
            "ticks": 198720,
            "time": 295.714197,
            "velocity": 0.7559055118110236
          },
          {
            "duration": 0.6473212343749992,
            "durationTicks": 435,
            "midi": 74,
            "name": "D5",
            "ticks": 199680,
            "time": 297.142768,
            "velocity": 0.7716535433070866
          },
          {
            "duration": 0.6473212343749992,
            "durationTicks": 435,
            "midi": 62,
            "name": "D4",
            "ticks": 200160,
            "time": 297.8570535,
            "velocity": 0.6771653543307087
          },
          {
            "duration": 0.6473212343749992,
            "durationTicks": 435,
            "midi": 61,
            "name": "C#4",
            "ticks": 200640,
            "time": 298.571339,
            "velocity": 0.7480314960629921
          },
          {
            "duration": 0.6473212343749992,
            "durationTicks": 435,
            "midi": 73,
            "name": "C#5",
            "ticks": 201120,
            "time": 299.2856245,
            "velocity": 0.8818897637795275
          },
          {
            "duration": 0.6473212343749992,
            "durationTicks": 435,
            "midi": 71,
            "name": "B4",
            "ticks": 201600,
            "time": 299.99991,
            "velocity": 0.7637795275590551
          },
          {
            "duration": 0.6473212343749992,
            "durationTicks": 435,
            "midi": 59,
            "name": "B3",
            "ticks": 202080,
            "time": 300.7141955,
            "velocity": 0.7322834645669292
          },
          {
            "duration": 0.6473212343749992,
            "durationTicks": 435,
            "midi": 57,
            "name": "A3",
            "ticks": 202560,
            "time": 301.42848100000003,
            "velocity": 0.7559055118110236
          },
          {
            "duration": 0.6473212343749992,
            "durationTicks": 435,
            "midi": 69,
            "name": "A4",
            "ticks": 203040,
            "time": 302.1427665,
            "velocity": 0.8661417322834646
          },
          {
            "duration": 0.6473212343749992,
            "durationTicks": 435,
            "midi": 67,
            "name": "G4",
            "ticks": 203520,
            "time": 302.857052,
            "velocity": 0.7559055118110236
          },
          {
            "duration": 0.6473212343749992,
            "durationTicks": 435,
            "midi": 79,
            "name": "G5",
            "ticks": 204000,
            "time": 303.5713375,
            "velocity": 0.8818897637795275
          },
          {
            "duration": 0.6473212343749992,
            "durationTicks": 435,
            "midi": 78,
            "name": "F#5",
            "ticks": 204480,
            "time": 304.285623,
            "velocity": 0.7637795275590551
          },
          {
            "duration": 0.6473212343749992,
            "durationTicks": 435,
            "midi": 66,
            "name": "F#4",
            "ticks": 204960,
            "time": 304.9999085,
            "velocity": 0.6535433070866141
          },
          {
            "duration": 0.6631094687500081,
            "durationTicks": 435,
            "midi": 64,
            "name": "E4",
            "ticks": 205440,
            "time": 305.714194,
            "velocity": 0.7637795275590551
          },
          {
            "duration": 0.6631094687500081,
            "durationTicks": 435,
            "midi": 71,
            "name": "B4",
            "ticks": 205920,
            "time": 306.445901,
            "velocity": 0.8818897637795275
          },
          {
            "duration": 0.6631094687500081,
            "durationTicks": 435,
            "midi": 64,
            "name": "E4",
            "ticks": 206400,
            "time": 307.177608,
            "velocity": 0.7952755905511811
          },
          {
            "duration": 0.6631094687500081,
            "durationTicks": 435,
            "midi": 76,
            "name": "E5",
            "ticks": 206880,
            "time": 307.909315,
            "velocity": 1
          },
          {
            "duration": 0.6796875,
            "durationTicks": 435,
            "midi": 78,
            "name": "F#5",
            "ticks": 207360,
            "time": 308.641022,
            "velocity": 0.937007874015748
          },
          {
            "duration": 0.6796875,
            "durationTicks": 435,
            "midi": 66,
            "name": "F#4",
            "ticks": 207840,
            "time": 309.391022,
            "velocity": 0.7637795275590551
          },
          {
            "duration": 0.6796875,
            "durationTicks": 435,
            "midi": 66,
            "name": "F#4",
            "ticks": 208320,
            "time": 310.141022,
            "velocity": 0.8661417322834646
          },
          {
            "duration": 0.6796875,
            "durationTicks": 435,
            "midi": 76,
            "name": "E5",
            "ticks": 208800,
            "time": 310.891022,
            "velocity": 1
          },
          {
            "duration": 0.6971146875000045,
            "durationTicks": 435,
            "midi": 74,
            "name": "D5",
            "ticks": 209280,
            "time": 311.641022,
            "velocity": 0.8582677165354331
          },
          {
            "duration": 0.6971146875000045,
            "durationTicks": 435,
            "midi": 62,
            "name": "D4",
            "ticks": 209760,
            "time": 312.410252,
            "velocity": 0.7795275590551181
          },
          {
            "duration": 0.6971146875000045,
            "durationTicks": 435,
            "midi": 61,
            "name": "C#4",
            "ticks": 210240,
            "time": 313.179482,
            "velocity": 0.8267716535433071
          },
          {
            "duration": 0.7154603593750153,
            "durationTicks": 435,
            "midi": 73,
            "name": "C#5",
            "ticks": 210720,
            "time": 313.948712,
            "velocity": 1
          },
          {
            "duration": 0.7154603593750153,
            "durationTicks": 435,
            "midi": 71,
            "name": "B4",
            "ticks": 211200,
            "time": 314.7381855,
            "velocity": 0.8740157480314961
          },
          {
            "duration": 0.7347970156250199,
            "durationTicks": 435,
            "midi": 83,
            "name": "B5",
            "ticks": 211680,
            "time": 315.527659,
            "velocity": 1
          },
          {
            "duration": 0.7347970156250199,
            "durationTicks": 435,
            "midi": 81,
            "name": "A5",
            "ticks": 212160,
            "time": 316.33846950000003,
            "velocity": 0.8818897637795275
          },
          {
            "duration": 0.7552080312499925,
            "durationTicks": 435,
            "midi": 69,
            "name": "A4",
            "ticks": 212640,
            "time": 317.14928000000003,
            "velocity": 0.7559055118110236
          },
          {
            "duration": 1.1351185885417294,
            "durationTicks": 649,
            "midi": 67,
            "name": "G4",
            "ticks": 213120,
            "time": 317.982613,
            "velocity": 0.8503937007874016
          },
          {
            "duration": 0.3892855520833223,
            "durationTicks": 218,
            "midi": 76,
            "name": "E5",
            "ticks": 213840,
            "time": 319.24451725000006,
            "velocity": 0.968503937007874
          },
          {
            "duration": 0.7996319531250151,
            "durationTicks": 435,
            "midi": 69,
            "name": "A4",
            "ticks": 214080,
            "time": 319.67308850000006,
            "velocity": 0.8346456692913385
          },
          {
            "duration": 0.849609375,
            "durationTicks": 435,
            "midi": 69,
            "name": "A4",
            "ticks": 214560,
            "time": 320.5554410000001,
            "velocity": 0.8818897637795275
          },
          {
            "duration": 3.0069441437499904,
            "durationTicks": 866,
            "midi": 69,
            "name": "A4",
            "ticks": 215040,
            "time": 321.4929410000001,
            "velocity": 0.8976377952755905
          }
        ],
        "endOfTrackTicks": 215907
      },
      {
        "channel": 3,
        "controlChanges": {
          "7": [
            {
              "number": 7,
              "ticks": 0,
              "time": 0,
              "value": 0.8740157480314961
            }
          ],
          "10": [
            {
              "number": 10,
              "ticks": 0,
              "time": 0,
              "value": 0.8740157480314961
            }
          ],
          "64": [
            {
              "number": 64,
              "ticks": 0,
              "time": 0,
              "value": 0
            }
          ],
          "121": [
            {
              "number": 121,
              "ticks": 0,
              "time": 0,
              "value": 0
            }
          ]
        },
        "pitchBends": [],
        "instrument": {
          "family": "strings",
          "number": 40,
          "name": "violin"
        },
        "name": "Violin 2",
        "notes": [
          {
            "duration": 1.4568448010416652,
            "durationTicks": 979,
            "midi": 78,
            "name": "F#5",
            "ticks": 15360,
            "time": 22.857136,
            "velocity": 0.44881889763779526
          },
          {
            "duration": 1.4568448010416652,
            "durationTicks": 979,
            "midi": 76,
            "name": "E5",
            "ticks": 16320,
            "time": 24.285707000000002,
            "velocity": 0.4251968503937008
          },
          {
            "duration": 1.4568448010416652,
            "durationTicks": 979,
            "midi": 74,
            "name": "D5",
            "ticks": 17280,
            "time": 25.714278,
            "velocity": 0.4645669291338583
          },
          {
            "duration": 1.4568448010416652,
            "durationTicks": 979,
            "midi": 73,
            "name": "C#5",
            "ticks": 18240,
            "time": 27.142849000000002,
            "velocity": 0.44881889763779526
          },
          {
            "duration": 1.4568448010416688,
            "durationTicks": 979,
            "midi": 71,
            "name": "B4",
            "ticks": 19200,
            "time": 28.57142,
            "velocity": 0.4566929133858268
          },
          {
            "duration": 1.4568448010416652,
            "durationTicks": 979,
            "midi": 69,
            "name": "A4",
            "ticks": 20160,
            "time": 29.999991,
            "velocity": 0.4409448818897638
          },
          {
            "duration": 1.4568448010416688,
            "durationTicks": 979,
            "midi": 71,
            "name": "B4",
            "ticks": 21120,
            "time": 31.428562,
            "velocity": 0.4881889763779528
          },
          {
            "duration": 1.3556543552083369,
            "durationTicks": 911,
            "midi": 73,
            "name": "C#5",
            "ticks": 22080,
            "time": 32.857133,
            "velocity": 0.5275590551181102
          },
          {
            "duration": 1.2886900895833335,
            "durationTicks": 866,
            "midi": 74,
            "name": "D5",
            "ticks": 23040,
            "time": 34.285704,
            "velocity": 0.4881889763779528
          },
          {
            "duration": 1.2886900895833335,
            "durationTicks": 866,
            "midi": 73,
            "name": "C#5",
            "ticks": 24000,
            "time": 35.714275,
            "velocity": 0.4566929133858268
          },
          {
            "duration": 1.2886900895833335,
            "durationTicks": 866,
            "midi": 71,
            "name": "B4",
            "ticks": 24960,
            "time": 37.142846,
            "velocity": 0.44881889763779526
          },
          {
            "duration": 1.2886900895833335,
            "durationTicks": 866,
            "midi": 69,
            "name": "A4",
            "ticks": 25920,
            "time": 38.571417000000004,
            "velocity": 0.47244094488188976
          },
          {
            "duration": 1.2886900895833335,
            "durationTicks": 866,
            "midi": 67,
            "name": "G4",
            "ticks": 26880,
            "time": 39.999988,
            "velocity": 0.47244094488188976
          },
          {
            "duration": 1.2886900895833335,
            "durationTicks": 866,
            "midi": 66,
            "name": "F#4",
            "ticks": 27840,
            "time": 41.428559,
            "velocity": 0.4094488188976378
          },
          {
            "duration": 1.2886900895833335,
            "durationTicks": 866,
            "midi": 67,
            "name": "G4",
            "ticks": 28800,
            "time": 42.85713,
            "velocity": 0.3858267716535433
          },
          {
            "duration": 1.2886900895833335,
            "durationTicks": 866,
            "midi": 64,
            "name": "E4",
            "ticks": 29760,
            "time": 44.285701,
            "velocity": 0.2992125984251969
          },
          {
            "duration": 0.7261902583333324,
            "durationTicks": 488,
            "midi": 62,
            "name": "D4",
            "ticks": 30720,
            "time": 45.714272,
            "velocity": 0.5511811023622047
          },
          {
            "duration": 0.67559503541667,
            "durationTicks": 454,
            "midi": 66,
            "name": "F#4",
            "ticks": 31200,
            "time": 46.428557500000004,
            "velocity": 0.5748031496062992
          },
          {
            "duration": 0.7261902583333324,
            "durationTicks": 488,
            "midi": 69,
            "name": "A4",
            "ticks": 31680,
            "time": 47.142843,
            "velocity": 0.5748031496062992
          },
          {
            "duration": 0.67559503541667,
            "durationTicks": 454,
            "midi": 67,
            "name": "G4",
            "ticks": 32160,
            "time": 47.8571285,
            "velocity": 0.5354330708661418
          },
          {
            "duration": 0.7261902583333324,
            "durationTicks": 488,
            "midi": 66,
            "name": "F#4",
            "ticks": 32640,
            "time": 48.571414000000004,
            "velocity": 0.5669291338582677
          },
          {
            "duration": 0.67559503541667,
            "durationTicks": 454,
            "midi": 62,
            "name": "D4",
            "ticks": 33120,
            "time": 49.2856995,
            "velocity": 0.5275590551181102
          },
          {
            "duration": 0.7261902583333324,
            "durationTicks": 488,
            "midi": 66,
            "name": "F#4",
            "ticks": 33600,
            "time": 49.999985,
            "velocity": 0.5905511811023622
          },
          {
            "duration": 0.6755950354166771,
            "durationTicks": 454,
            "midi": 64,
            "name": "E4",
            "ticks": 34080,
            "time": 50.7142705,
            "velocity": 0.5826771653543307
          },
          {
            "duration": 0.7261902583333324,
            "durationTicks": 488,
            "midi": 62,
            "name": "D4",
            "ticks": 34560,
            "time": 51.428556,
            "velocity": 0.5433070866141733
          },
          {
            "duration": 0.67559503541667,
            "durationTicks": 454,
            "midi": 59,
            "name": "B3",
            "ticks": 35040,
            "time": 52.1428415,
            "velocity": 0.5354330708661418
          },
          {
            "duration": 0.7261902583333324,
            "durationTicks": 488,
            "midi": 62,
            "name": "D4",
            "ticks": 35520,
            "time": 52.857127,
            "velocity": 0.5748031496062992
          },
          {
            "duration": 0.67559503541667,
            "durationTicks": 454,
            "midi": 69,
            "name": "A4",
            "ticks": 36000,
            "time": 53.5714125,
            "velocity": 0.6141732283464567
          },
          {
            "duration": 0.7261902583333324,
            "durationTicks": 488,
            "midi": 67,
            "name": "G4",
            "ticks": 36480,
            "time": 54.285698000000004,
            "velocity": 0.5433070866141733
          },
          {
            "duration": 0.6755950354166771,
            "durationTicks": 454,
            "midi": 71,
            "name": "B4",
            "ticks": 36960,
            "time": 54.9999835,
            "velocity": 0.5590551181102362
          },
          {
            "duration": 0.7261902583333324,
            "durationTicks": 488,
            "midi": 69,
            "name": "A4",
            "ticks": 37440,
            "time": 55.714269,
            "velocity": 0.5433070866141733
          },
          {
            "duration": 0.67559503541667,
            "durationTicks": 454,
            "midi": 67,
            "name": "G4",
            "ticks": 37920,
            "time": 56.428554500000004,
            "velocity": 0.5354330708661418
          },
          {
            "duration": 0.7261902583333324,
            "durationTicks": 488,
            "midi": 66,
            "name": "F#4",
            "ticks": 38400,
            "time": 57.14284,
            "velocity": 0.5433070866141733
          },
          {
            "duration": 0.67559503541667,
            "durationTicks": 454,
            "midi": 62,
            "name": "D4",
            "ticks": 38880,
            "time": 57.8571255,
            "velocity": 0.5039370078740157
          },
          {
            "duration": 0.7261902583333324,
            "durationTicks": 488,
            "midi": 64,
            "name": "E4",
            "ticks": 39360,
            "time": 58.571411000000005,
            "velocity": 0.5590551181102362
          },
          {
            "duration": 0.67559503541667,
            "durationTicks": 454,
            "midi": 73,
            "name": "C#5",
            "ticks": 39840,
            "time": 59.2856965,
            "velocity": 0.6141732283464567
          },
          {
            "duration": 0.7261902583333324,
            "durationTicks": 488,
            "midi": 74,
            "name": "D5",
            "ticks": 40320,
            "time": 59.999982,
            "velocity": 0.5905511811023622
          },
          {
            "duration": 0.6755950354166771,
            "durationTicks": 454,
            "midi": 78,
            "name": "F#5",
            "ticks": 40800,
            "time": 60.7142675,
            "velocity": 0.5905511811023622
          },
          {
            "duration": 0.7261902583333324,
            "durationTicks": 488,
            "midi": 81,
            "name": "A5",
            "ticks": 41280,
            "time": 61.428553,
            "velocity": 0.6141732283464567
          },
          {
            "duration": 0.67559503541667,
            "durationTicks": 454,
            "midi": 69,
            "name": "A4",
            "ticks": 41760,
            "time": 62.1428385,
            "velocity": 0.5118110236220472
          },
          {
            "duration": 0.7261902583333324,
            "durationTicks": 488,
            "midi": 71,
            "name": "B4",
            "ticks": 42240,
            "time": 62.857124,
            "velocity": 0.6062992125984252
          },
          {
            "duration": 0.6755950354166771,
            "durationTicks": 454,
            "midi": 67,
            "name": "G4",
            "ticks": 42720,
            "time": 63.5714095,
            "velocity": 0.5669291338582677
          },
          {
            "duration": 0.7261902583333324,
            "durationTicks": 488,
            "midi": 69,
            "name": "A4",
            "ticks": 43200,
            "time": 64.285695,
            "velocity": 0.6141732283464567
          },
          {
            "duration": 0.6755950354166629,
            "durationTicks": 454,
            "midi": 66,
            "name": "F#4",
            "ticks": 43680,
            "time": 64.9999805,
            "velocity": 0.5905511811023622
          },
          {
            "duration": 0.7261902583333324,
            "durationTicks": 488,
            "midi": 62,
            "name": "D4",
            "ticks": 44160,
            "time": 65.714266,
            "velocity": 0.5826771653543307
          },
          {
            "duration": 0.6755950354166771,
            "durationTicks": 454,
            "midi": 74,
            "name": "D5",
            "ticks": 44640,
            "time": 66.4285515,
            "velocity": 0.7165354330708661
          },
          {
            "duration": 0.9657735197916679,
            "durationTicks": 649,
            "midi": 74,
            "name": "D5",
            "ticks": 45120,
            "time": 67.142837,
            "velocity": 0.6456692913385826
          },
          {
            "duration": 0.3244046645833407,
            "durationTicks": 218,
            "midi": 73,
            "name": "C#5",
            "ticks": 45840,
            "time": 68.21426525,
            "velocity": 0.6456692913385826
          },
          {
            "duration": 0.3244046645833265,
            "durationTicks": 218,
            "midi": 74,
            "name": "D5",
            "ticks": 46080,
            "time": 68.571408,
            "velocity": 0.6771653543307087
          },
          {
            "duration": 0.3244046645833407,
            "durationTicks": 218,
            "midi": 73,
            "name": "C#5",
            "ticks": 46320,
            "time": 68.92855075,
            "velocity": 0.6299212598425197
          },
          {
            "duration": 0.3244046645833265,
            "durationTicks": 218,
            "midi": 74,
            "name": "D5",
            "ticks": 46560,
            "time": 69.28569350000001,
            "velocity": 0.6929133858267716
          },
          {
            "duration": 0.3244046645833265,
            "durationTicks": 218,
            "midi": 62,
            "name": "D4",
            "ticks": 46800,
            "time": 69.64283625,
            "velocity": 0.5669291338582677
          },
          {
            "duration": 0.3244046645833407,
            "durationTicks": 218,
            "midi": 61,
            "name": "C#4",
            "ticks": 47040,
            "time": 69.999979,
            "velocity": 0.6299212598425197
          },
          {
            "duration": 0.3244046645833265,
            "durationTicks": 218,
            "midi": 69,
            "name": "A4",
            "ticks": 47280,
            "time": 70.35712175,
            "velocity": 0.7322834645669292
          },
          {
            "duration": 0.3244046645833407,
            "durationTicks": 218,
            "midi": 64,
            "name": "E4",
            "ticks": 47520,
            "time": 70.7142645,
            "velocity": 0.6456692913385826
          },
          {
            "duration": 0.3244046645833265,
            "durationTicks": 218,
            "midi": 66,
            "name": "F#4",
            "ticks": 47760,
            "time": 71.07140725000001,
            "velocity": 0.7007874015748031
          },
          {
            "duration": 0.3244046645833265,
            "durationTicks": 218,
            "midi": 62,
            "name": "D4",
            "ticks": 48000,
            "time": 71.42855,
            "velocity": 0.6535433070866141
          },
          {
            "duration": 0.3244046645833407,
            "durationTicks": 218,
            "midi": 74,
            "name": "D5",
            "ticks": 48240,
            "time": 71.78569275,
            "velocity": 0.7952755905511811
          },
          {
            "duration": 0.3244046645833265,
            "durationTicks": 218,
            "midi": 73,
            "name": "C#5",
            "ticks": 48480,
            "time": 72.1428355,
            "velocity": 0.7007874015748031
          },
          {
            "duration": 0.3244046645833407,
            "durationTicks": 218,
            "midi": 71,
            "name": "B4",
            "ticks": 48720,
            "time": 72.49997825,
            "velocity": 0.7086614173228346
          },
          {
            "duration": 0.3244046645833265,
            "durationTicks": 218,
            "midi": 73,
            "name": "C#5",
            "ticks": 48960,
            "time": 72.857121,
            "velocity": 0.7637795275590551
          },
          {
            "duration": 0.3244046645833407,
            "durationTicks": 218,
            "midi": 78,
            "name": "F#5",
            "ticks": 49200,
            "time": 73.21426375,
            "velocity": 0.7952755905511811
          },
          {
            "duration": 0.3244046645833407,
            "durationTicks": 218,
            "midi": 81,
            "name": "A5",
            "ticks": 49440,
            "time": 73.5714065,
            "velocity": 0.7952755905511811
          },
          {
            "duration": 0.3244046645833265,
            "durationTicks": 218,
            "midi": 83,
            "name": "B5",
            "ticks": 49680,
            "time": 73.92854925,
            "velocity": 0.7952755905511811
          },
          {
            "duration": 0.3244046645833407,
            "durationTicks": 218,
            "midi": 79,
            "name": "G5",
            "ticks": 49920,
            "time": 74.285692,
            "velocity": 0.7165354330708661
          },
          {
            "duration": 0.3244046645833265,
            "durationTicks": 218,
            "midi": 78,
            "name": "F#5",
            "ticks": 50160,
            "time": 74.64283475,
            "velocity": 0.7401574803149606
          },
          {
            "duration": 0.3244046645833407,
            "durationTicks": 218,
            "midi": 76,
            "name": "E5",
            "ticks": 50400,
            "time": 74.9999775,
            "velocity": 0.7480314960629921
          },
          {
            "duration": 0.3244046645833265,
            "durationTicks": 218,
            "midi": 79,
            "name": "G5",
            "ticks": 50640,
            "time": 75.35712025000001,
            "velocity": 0.8031496062992126
          },
          {
            "duration": 0.3244046645833265,
            "durationTicks": 218,
            "midi": 78,
            "name": "F#5",
            "ticks": 50880,
            "time": 75.714263,
            "velocity": 0.7637795275590551
          },
          {
            "duration": 0.3244046645833407,
            "durationTicks": 218,
            "midi": 76,
            "name": "E5",
            "ticks": 51120,
            "time": 76.07140575,
            "velocity": 0.7401574803149606
          },
          {
            "duration": 0.3244046645833265,
            "durationTicks": 218,
            "midi": 74,
            "name": "D5",
            "ticks": 51360,
            "time": 76.4285485,
            "velocity": 0.7086614173228346
          },
          {
            "duration": 0.3244046645833407,
            "durationTicks": 218,
            "midi": 73,
            "name": "C#5",
            "ticks": 51600,
            "time": 76.78569125,
            "velocity": 0.6929133858267716
          },
          {
            "duration": 0.3244046645833265,
            "durationTicks": 218,
            "midi": 71,
            "name": "B4",
            "ticks": 51840,
            "time": 77.14283400000001,
            "velocity": 0.6929133858267716
          },
          {
            "duration": 0.3244046645833265,
            "durationTicks": 218,
            "midi": 69,
            "name": "A4",
            "ticks": 52080,
            "time": 77.49997675,
            "velocity": 0.6377952755905512
          },
          {
            "duration": 0.3244046645833407,
            "durationTicks": 218,
            "midi": 67,
            "name": "G4",
            "ticks": 52320,
            "time": 77.8571195,
            "velocity": 0.6377952755905512
          },
          {
            "duration": 0.3244046645833265,
            "durationTicks": 218,
            "midi": 66,
            "name": "F#4",
            "ticks": 52560,
            "time": 78.21426225,
            "velocity": 0.6062992125984252
          },
          {
            "duration": 0.3244046645833407,
            "durationTicks": 218,
            "midi": 64,
            "name": "E4",
            "ticks": 52800,
            "time": 78.571405,
            "velocity": 0.6062992125984252
          },
          {
            "duration": 0.3244046645833265,
            "durationTicks": 218,
            "midi": 67,
            "name": "G4",
            "ticks": 53040,
            "time": 78.92854775,
            "velocity": 0.6141732283464567
          },
          {
            "duration": 0.3244046645833265,
            "durationTicks": 218,
            "midi": 66,
            "name": "F#4",
            "ticks": 53280,
            "time": 79.2856905,
            "velocity": 0.5669291338582677
          },
          {
            "duration": 0.3244046645833407,
            "durationTicks": 218,
            "midi": 64,
            "name": "E4",
            "ticks": 53520,
            "time": 79.64283325,
            "velocity": 0.5511811023622047
          },
          {
            "duration": 0.3244046645833265,
            "durationTicks": 218,
            "midi": 62,
            "name": "D4",
            "ticks": 53760,
            "time": 79.999976,
            "velocity": 0.5511811023622047
          },
          {
            "duration": 0.3244046645833407,
            "durationTicks": 218,
            "midi": 64,
            "name": "E4",
            "ticks": 54000,
            "time": 80.35711875,
            "velocity": 0.5905511811023622
          },
          {
            "duration": 0.3244046645833265,
            "durationTicks": 218,
            "midi": 66,
            "name": "F#4",
            "ticks": 54240,
            "time": 80.7142615,
            "velocity": 0.5984251968503937
          },
          {
            "duration": 0.3244046645833407,
            "durationTicks": 218,
            "midi": 67,
            "name": "G4",
            "ticks": 54480,
            "time": 81.07140425,
            "velocity": 0.5748031496062992
          },
          {
            "duration": 0.3244046645833265,
            "durationTicks": 218,
            "midi": 69,
            "name": "A4",
            "ticks": 54720,
            "time": 81.42854700000001,
            "velocity": 0.5826771653543307
          },
          {
            "duration": 0.3244046645833265,
            "durationTicks": 218,
            "midi": 64,
            "name": "E4",
            "ticks": 54960,
            "time": 81.78568975,
            "velocity": 0.5275590551181102
          },
          {
            "duration": 0.3244046645833407,
            "durationTicks": 218,
            "midi": 69,
            "name": "A4",
            "ticks": 55200,
            "time": 82.1428325,
            "velocity": 0.5826771653543307
          },
          {
            "duration": 0.3244046645833265,
            "durationTicks": 218,
            "midi": 67,
            "name": "G4",
            "ticks": 55440,
            "time": 82.49997525,
            "velocity": 0.5590551181102362
          },
          {
            "duration": 0.3244046645833407,
            "durationTicks": 218,
            "midi": 66,
            "name": "F#4",
            "ticks": 55680,
            "time": 82.857118,
            "velocity": 0.5433070866141733
          },
          {
            "duration": 0.3244046645833265,
            "durationTicks": 218,
            "midi": 71,
            "name": "B4",
            "ticks": 55920,
            "time": 83.21426075000001,
            "velocity": 0.5905511811023622
          },
          {
            "duration": 0.3244046645833265,
            "durationTicks": 218,
            "midi": 69,
            "name": "A4",
            "ticks": 56160,
            "time": 83.5714035,
            "velocity": 0.5511811023622047
          },
          {
            "duration": 0.3244046645833407,
            "durationTicks": 218,
            "midi": 67,
            "name": "G4",
            "ticks": 56400,
            "time": 83.92854625,
            "velocity": 0.5748031496062992
          },
          {
            "duration": 0.3244046645833265,
            "durationTicks": 218,
            "midi": 69,
            "name": "A4",
            "ticks": 56640,
            "time": 84.285689,
            "velocity": 0.5984251968503937
          },
          {
            "duration": 0.3244046645833407,
            "durationTicks": 218,
            "midi": 67,
            "name": "G4",
            "ticks": 56880,
            "time": 84.64283175,
            "velocity": 0.5354330708661418
          },
          {
            "duration": 0.3244046645833265,
            "durationTicks": 218,
            "midi": 66,
            "name": "F#4",
            "ticks": 57120,
            "time": 84.99997450000001,
            "velocity": 0.5354330708661418
          },
          {
            "duration": 0.3244046645833265,
            "durationTicks": 218,
            "midi": 64,
            "name": "E4",
            "ticks": 57360,
            "time": 85.35711725,
            "velocity": 0.5275590551181102
          },
          {
            "duration": 0.3244046645833407,
            "durationTicks": 218,
            "midi": 62,
            "name": "D4",
            "ticks": 57600,
            "time": 85.71426,
            "velocity": 0.5433070866141733
          },
          {
            "duration": 0.3244046645833265,
            "durationTicks": 218,
            "midi": 59,
            "name": "B3",
            "ticks": 57840,
            "time": 86.07140275,
            "velocity": 0.5433070866141733
          },
          {
            "duration": 0.3244046645833407,
            "durationTicks": 218,
            "midi": 71,
            "name": "B4",
            "ticks": 58080,
            "time": 86.4285455,
            "velocity": 0.6377952755905512
          },
          {
            "duration": 0.3244046645833265,
            "durationTicks": 218,
            "midi": 73,
            "name": "C#5",
            "ticks": 58320,
            "time": 86.78568825,
            "velocity": 0.5826771653543307
          },
          {
            "duration": 0.3244046645833407,
            "durationTicks": 218,
            "midi": 74,
            "name": "D5",
            "ticks": 58560,
            "time": 87.142831,
            "velocity": 0.5511811023622047
          },
          {
            "duration": 0.3244046645833407,
            "durationTicks": 218,
            "midi": 73,
            "name": "C#5",
            "ticks": 58800,
            "time": 87.49997375,
            "velocity": 0.5433070866141733
          },
          {
            "duration": 0.3244046645833265,
            "durationTicks": 218,
            "midi": 71,
            "name": "B4",
            "ticks": 59040,
            "time": 87.8571165,
            "velocity": 0.5433070866141733
          },
          {
            "duration": 0.3244046645833407,
            "durationTicks": 218,
            "midi": 69,
            "name": "A4",
            "ticks": 59280,
            "time": 88.21425925,
            "velocity": 0.5354330708661418
          },
          {
            "duration": 0.3244046645833265,
            "durationTicks": 218,
            "midi": 67,
            "name": "G4",
            "ticks": 59520,
            "time": 88.571402,
            "velocity": 0.5511811023622047
          },
          {
            "duration": 0.3244046645833407,
            "durationTicks": 218,
            "midi": 66,
            "name": "F#4",
            "ticks": 59760,
            "time": 88.92854475,
            "velocity": 0.5511811023622047
          },
          {
            "duration": 0.3244046645833265,
            "durationTicks": 218,
            "midi": 64,
            "name": "E4",
            "ticks": 60000,
            "time": 89.28568750000001,
            "velocity": 0.5433070866141733
          },
          {
            "duration": 0.3244046645833265,
            "durationTicks": 218,
            "midi": 71,
            "name": "B4",
            "ticks": 60240,
            "time": 89.64283025,
            "velocity": 0.6141732283464567
          },
          {
            "duration": 0.3244046645833407,
            "durationTicks": 218,
            "midi": 69,
            "name": "A4",
            "ticks": 60480,
            "time": 89.999973,
            "velocity": 0.5354330708661418
          },
          {
            "duration": 0.3244046645833265,
            "durationTicks": 218,
            "midi": 71,
            "name": "B4",
            "ticks": 60720,
            "time": 90.35711575,
            "velocity": 0.5669291338582677
          },
          {
            "duration": 0.3244046645833407,
            "durationTicks": 218,
            "midi": 69,
            "name": "A4",
            "ticks": 60960,
            "time": 90.7142585,
            "velocity": 0.5511811023622047
          },
          {
            "duration": 0.3244046645833265,
            "durationTicks": 218,
            "midi": 67,
            "name": "G4",
            "ticks": 61200,
            "time": 91.07140125000001,
            "velocity": 0.5433070866141733
          },
          {
            "duration": 0.6473212343749992,
            "durationTicks": 435,
            "midi": 66,
            "name": "F#4",
            "ticks": 61440,
            "time": 91.428544,
            "velocity": 0.5433070866141733
          },
          {
            "duration": 0.6473212343749992,
            "durationTicks": 435,
            "midi": 78,
            "name": "F#5",
            "ticks": 61920,
            "time": 92.1428295,
            "velocity": 0.7401574803149606
          },
          {
            "duration": 1.2886900895833406,
            "durationTicks": 866,
            "midi": 76,
            "name": "E5",
            "ticks": 62400,
            "time": 92.85711500000001,
            "velocity": 0.6456692913385826
          },
          {
            "duration": 0.6473212343749992,
            "durationTicks": 435,
            "midi": 74,
            "name": "D5",
            "ticks": 63840,
            "time": 94.9999715,
            "velocity": 0.6141732283464567
          },
          {
            "duration": 1.2886900895833406,
            "durationTicks": 866,
            "midi": 78,
            "name": "F#5",
            "ticks": 64320,
            "time": 95.714257,
            "velocity": 0.6929133858267716
          },
          {
            "duration": 1.2886900895833264,
            "durationTicks": 866,
            "midi": 83,
            "name": "B5",
            "ticks": 65280,
            "time": 97.14282800000001,
            "velocity": 0.6929133858267716
          },
          {
            "duration": 1.2886900895833406,
            "durationTicks": 866,
            "midi": 81,
            "name": "A5",
            "ticks": 66240,
            "time": 98.571399,
            "velocity": 0.6377952755905512
          },
          {
            "duration": 1.2886900895833406,
            "durationTicks": 866,
            "midi": 83,
            "name": "B5",
            "ticks": 67200,
            "time": 99.99997,
            "velocity": 0.7401574803149606
          },
          {
            "duration": 1.2886900895833406,
            "durationTicks": 866,
            "midi": 85,
            "name": "C#6",
            "ticks": 68160,
            "time": 101.428541,
            "velocity": 0.7874015748031497
          },
          {
            "duration": 0.6473212343749992,
            "durationTicks": 435,
            "midi": 86,
            "name": "D6",
            "ticks": 69120,
            "time": 102.857112,
            "velocity": 0.7716535433070866
          },
          {
            "duration": 0.6473212343749992,
            "durationTicks": 435,
            "midi": 74,
            "name": "D5",
            "ticks": 69600,
            "time": 103.5713975,
            "velocity": 0.6614173228346457
          },
          {
            "duration": 1.2886900895833406,
            "durationTicks": 866,
            "midi": 73,
            "name": "C#5",
            "ticks": 70080,
            "time": 104.285683,
            "velocity": 0.7322834645669292
          },
          {
            "duration": 0.6473212343749992,
            "durationTicks": 435,
            "midi": 71,
            "name": "B4",
            "ticks": 71520,
            "time": 106.4285395,
            "velocity": 0.6850393700787402
          },
          {
            "duration": 1.2886900895833406,
            "durationTicks": 866,
            "midi": 74,
            "name": "D5",
            "ticks": 72000,
            "time": 107.142825,
            "velocity": 0.7952755905511811
          },
          {
            "duration": 1.9315470395833358,
            "durationTicks": 1298,
            "midi": 74,
            "name": "D5",
            "ticks": 72960,
            "time": 108.57139600000001,
            "velocity": 0.7874015748031497
          },
          {
            "duration": 0.6473212343749992,
            "durationTicks": 435,
            "midi": 74,
            "name": "D5",
            "ticks": 74400,
            "time": 110.7142525,
            "velocity": 0.7637795275590551
          },
          {
            "duration": 0.6473212343749992,
            "durationTicks": 435,
            "midi": 74,
            "name": "D5",
            "ticks": 74880,
            "time": 111.428538,
            "velocity": 0.7559055118110236
          },
          {
            "duration": 0.6473212343749992,
            "durationTicks": 435,
            "midi": 79,
            "name": "G5",
            "ticks": 75360,
            "time": 112.1428235,
            "velocity": 0.8346456692913385
          },
          {
            "duration": 0.6473212343749992,
            "durationTicks": 435,
            "midi": 76,
            "name": "E5",
            "ticks": 75840,
            "time": 112.85710900000001,
            "velocity": 0.7480314960629921
          },
          {
            "duration": 0.6473212343749992,
            "durationTicks": 435,
            "midi": 81,
            "name": "A5",
            "ticks": 76320,
            "time": 113.5713945,
            "velocity": 0.8267716535433071
          },
          {
            "duration": 0.3630951291666662,
            "durationTicks": 244,
            "midi": 81,
            "name": "A5",
            "ticks": 76800,
            "time": 114.28568,
            "velocity": 0.7795275590551181
          },
          {
            "duration": 0.17857137499998998,
            "durationTicks": 120,
            "midi": 78,
            "name": "F#5",
            "ticks": 77040,
            "time": 114.64282275000001,
            "velocity": 0.7244094488188977
          },
          {
            "duration": 0.16815471145834238,
            "durationTicks": 113,
            "midi": 79,
            "name": "G5",
            "ticks": 77160,
            "time": 114.821394125,
            "velocity": 0.7952755905511811
          },
          {
            "duration": 0.3630951291666662,
            "durationTicks": 244,
            "midi": 81,
            "name": "A5",
            "ticks": 77280,
            "time": 114.9999655,
            "velocity": 0.7716535433070866
          },
          {
            "duration": 0.1785713750000042,
            "durationTicks": 120,
            "midi": 78,
            "name": "F#5",
            "ticks": 77520,
            "time": 115.35710825,
            "velocity": 0.7401574803149606
          },
          {
            "duration": 0.16815471145834238,
            "durationTicks": 113,
            "midi": 79,
            "name": "G5",
            "ticks": 77640,
            "time": 115.535679625,
            "velocity": 0.7795275590551181
          },
          {
            "duration": 0.1785713750000042,
            "durationTicks": 120,
            "midi": 81,
            "name": "A5",
            "ticks": 77760,
            "time": 115.714251,
            "velocity": 0.8110236220472441
          },
          {
            "duration": 0.17857137499998998,
            "durationTicks": 120,
            "midi": 69,
            "name": "A4",
            "ticks": 77880,
            "time": 115.89282237500001,
            "velocity": 0.6692913385826772
          },
          {
            "duration": 0.1785713750000042,
            "durationTicks": 120,
            "midi": 71,
            "name": "B4",
            "ticks": 78000,
            "time": 116.07139375,
            "velocity": 0.7795275590551181
          },
          {
            "duration": 0.1785713750000042,
            "durationTicks": 120,
            "midi": 73,
            "name": "C#5",
            "ticks": 78120,
            "time": 116.249965125,
            "velocity": 0.7874015748031497
          },
          {
            "duration": 0.17857137499998998,
            "durationTicks": 120,
            "midi": 74,
            "name": "D5",
            "ticks": 78240,
            "time": 116.4285365,
            "velocity": 0.7716535433070866
          },
          {
            "duration": 0.1785713750000042,
            "durationTicks": 120,
            "midi": 76,
            "name": "E5",
            "ticks": 78360,
            "time": 116.607107875,
            "velocity": 0.7716535433070866
          },
          {
            "duration": 0.1785713750000042,
            "durationTicks": 120,
            "midi": 78,
            "name": "F#5",
            "ticks": 78480,
            "time": 116.78567925,
            "velocity": 0.7874015748031497
          },
          {
            "duration": 0.16815471145834238,
            "durationTicks": 113,
            "midi": 79,
            "name": "G5",
            "ticks": 78600,
            "time": 116.964250625,
            "velocity": 0.7952755905511811
          },
          {
            "duration": 0.363095129166652,
            "durationTicks": 244,
            "midi": 78,
            "name": "F#5",
            "ticks": 78720,
            "time": 117.14282200000001,
            "velocity": 0.7637795275590551
          },
          {
            "duration": 0.1785713750000042,
            "durationTicks": 120,
            "midi": 74,
            "name": "D5",
            "ticks": 78960,
            "time": 117.49996475,
            "velocity": 0.7086614173228346
          },
          {
            "duration": 0.17857137499998998,
            "durationTicks": 120,
            "midi": 76,
            "name": "E5",
            "ticks": 79080,
            "time": 117.67853612500001,
            "velocity": 0.8031496062992126
          },
          {
            "duration": 0.33482132812500254,
            "durationTicks": 225,
            "midi": 78,
            "name": "F#5",
            "ticks": 79200,
            "time": 117.8571075,
            "velocity": 0.8188976377952756
          },
          {
            "duration": 0.17857137499998998,
            "durationTicks": 120,
            "midi": 66,
            "name": "F#4",
            "ticks": 79440,
            "time": 118.21425025,
            "velocity": 0.6535433070866141
          },
          {
            "duration": 0.16815471145834238,
            "durationTicks": 113,
            "midi": 67,
            "name": "G4",
            "ticks": 79560,
            "time": 118.392821625,
            "velocity": 0.7716535433070866
          },
          {
            "duration": 0.1785713750000042,
            "durationTicks": 120,
            "midi": 69,
            "name": "A4",
            "ticks": 79680,
            "time": 118.571393,
            "velocity": 0.7874015748031497
          },
          {
            "duration": 0.1785713750000042,
            "durationTicks": 120,
            "midi": 71,
            "name": "B4",
            "ticks": 79800,
            "time": 118.749964375,
            "velocity": 0.7952755905511811
          },
          {
            "duration": 0.17857137499998998,
            "durationTicks": 120,
            "midi": 69,
            "name": "A4",
            "ticks": 79920,
            "time": 118.92853575000001,
            "velocity": 0.7480314960629921
          },
          {
            "duration": 0.1785713750000042,
            "durationTicks": 120,
            "midi": 67,
            "name": "G4",
            "ticks": 80040,
            "time": 119.107107125,
            "velocity": 0.7401574803149606
          },
          {
            "duration": 0.1785713750000042,
            "durationTicks": 120,
            "midi": 69,
            "name": "A4",
            "ticks": 80160,
            "time": 119.2856785,
            "velocity": 0.7874015748031497
          },
          {
            "duration": 0.17857137499998998,
            "durationTicks": 120,
            "midi": 66,
            "name": "F#4",
            "ticks": 80280,
            "time": 119.46424987500001,
            "velocity": 0.7480314960629921
          },
          {
            "duration": 0.1785713750000042,
            "durationTicks": 120,
            "midi": 67,
            "name": "G4",
            "ticks": 80400,
            "time": 119.64282125,
            "velocity": 0.7952755905511811
          },
          {
            "duration": 0.16815471145834238,
            "durationTicks": 113,
            "midi": 69,
            "name": "A4",
            "ticks": 80520,
            "time": 119.821392625,
            "velocity": 0.7952755905511811
          },
          {
            "duration": 0.363095129166652,
            "durationTicks": 244,
            "midi": 67,
            "name": "G4",
            "ticks": 80640,
            "time": 119.999964,
            "velocity": 0.7401574803149606
          },
          {
            "duration": 0.1785713750000042,
            "durationTicks": 120,
            "midi": 71,
            "name": "B4",
            "ticks": 80880,
            "time": 120.35710675,
            "velocity": 0.7874015748031497
          },
          {
            "duration": 0.16815471145834238,
            "durationTicks": 113,
            "midi": 69,
            "name": "A4",
            "ticks": 81000,
            "time": 120.535678125,
            "velocity": 0.7480314960629921
          },
          {
            "duration": 0.363095129166652,
            "durationTicks": 244,
            "midi": 67,
            "name": "G4",
            "ticks": 81120,
            "time": 120.71424950000001,
            "velocity": 0.7637795275590551
          },
          {
            "duration": 0.1785713750000042,
            "durationTicks": 120,
            "midi": 66,
            "name": "F#4",
            "ticks": 81360,
            "time": 121.07139225,
            "velocity": 0.7401574803149606
          },
          {
            "duration": 0.16815471145834238,
            "durationTicks": 113,
            "midi": 64,
            "name": "E4",
            "ticks": 81480,
            "time": 121.249963625,
            "velocity": 0.7559055118110236
          },
          {
            "duration": 0.1785713750000042,
            "durationTicks": 120,
            "midi": 66,
            "name": "F#4",
            "ticks": 81600,
            "time": 121.428535,
            "velocity": 0.8031496062992126
          },
          {
            "duration": 0.1785713750000042,
            "durationTicks": 120,
            "midi": 64,
            "name": "E4",
            "ticks": 81720,
            "time": 121.607106375,
            "velocity": 0.7480314960629921
          },
          {
            "duration": 0.1785713750000042,
            "durationTicks": 120,
            "midi": 62,
            "name": "D4",
            "ticks": 81840,
            "time": 121.78567775,
            "velocity": 0.7401574803149606
          },
          {
            "duration": 0.17857137499998998,
            "durationTicks": 120,
            "midi": 64,
            "name": "E4",
            "ticks": 81960,
            "time": 121.96424912500001,
            "velocity": 0.7716535433070866
          },
          {
            "duration": 0.1785713750000042,
            "durationTicks": 120,
            "midi": 66,
            "name": "F#4",
            "ticks": 82080,
            "time": 122.1428205,
            "velocity": 0.7952755905511811
          },
          {
            "duration": 0.1785713750000042,
            "durationTicks": 120,
            "midi": 67,
            "name": "G4",
            "ticks": 82200,
            "time": 122.321391875,
            "velocity": 0.7874015748031497
          },
          {
            "duration": 0.17857137499998998,
            "durationTicks": 120,
            "midi": 69,
            "name": "A4",
            "ticks": 82320,
            "time": 122.49996325000001,
            "velocity": 0.8031496062992126
          },
          {
            "duration": 0.16815471145834238,
            "durationTicks": 113,
            "midi": 71,
            "name": "B4",
            "ticks": 82440,
            "time": 122.678534625,
            "velocity": 0.8031496062992126
          },
          {
            "duration": 0.3630951291666662,
            "durationTicks": 244,
            "midi": 67,
            "name": "G4",
            "ticks": 82560,
            "time": 122.857106,
            "velocity": 0.7165354330708661
          },
          {
            "duration": 0.17857137499998998,
            "durationTicks": 120,
            "midi": 71,
            "name": "B4",
            "ticks": 82800,
            "time": 123.21424875000001,
            "velocity": 0.7480314960629921
          },
          {
            "duration": 0.16815471145834238,
            "durationTicks": 113,
            "midi": 69,
            "name": "A4",
            "ticks": 82920,
            "time": 123.392820125,
            "velocity": 0.7401574803149606
          },
          {
            "duration": 0.3630951291666662,
            "durationTicks": 244,
            "midi": 71,
            "name": "B4",
            "ticks": 83040,
            "time": 123.5713915,
            "velocity": 0.7952755905511811
          },
          {
            "duration": 0.1785713750000042,
            "durationTicks": 120,
            "midi": 73,
            "name": "C#5",
            "ticks": 83280,
            "time": 123.92853425,
            "velocity": 0.8188976377952756
          },
          {
            "duration": 0.16815471145834238,
            "durationTicks": 113,
            "midi": 74,
            "name": "D5",
            "ticks": 83400,
            "time": 124.107105625,
            "velocity": 0.7952755905511811
          },
          {
            "duration": 0.17857137499998998,
            "durationTicks": 120,
            "midi": 69,
            "name": "A4",
            "ticks": 83520,
            "time": 124.285677,
            "velocity": 0.7244094488188977
          },
          {
            "duration": 0.1785713750000042,
            "durationTicks": 120,
            "midi": 71,
            "name": "B4",
            "ticks": 83640,
            "time": 124.464248375,
            "velocity": 0.8031496062992126
          },
          {
            "duration": 0.1785713750000042,
            "durationTicks": 120,
            "midi": 73,
            "name": "C#5",
            "ticks": 83760,
            "time": 124.64281975,
            "velocity": 0.7795275590551181
          },
          {
            "duration": 0.1785713750000042,
            "durationTicks": 120,
            "midi": 74,
            "name": "D5",
            "ticks": 83880,
            "time": 124.821391125,
            "velocity": 0.7874015748031497
          },
          {
            "duration": 0.17857137499998998,
            "durationTicks": 120,
            "midi": 76,
            "name": "E5",
            "ticks": 84000,
            "time": 124.99996250000001,
            "velocity": 0.7874015748031497
          },
          {
            "duration": 0.1785713750000042,
            "durationTicks": 120,
            "midi": 78,
            "name": "F#5",
            "ticks": 84120,
            "time": 125.178533875,
            "velocity": 0.7716535433070866
          },
          {
            "duration": 0.1785713750000042,
            "durationTicks": 120,
            "midi": 79,
            "name": "G5",
            "ticks": 84240,
            "time": 125.35710525,
            "velocity": 0.7874015748031497
          },
          {
            "duration": 0.16815471145834238,
            "durationTicks": 113,
            "midi": 81,
            "name": "A5",
            "ticks": 84360,
            "time": 125.53567662500001,
            "velocity": 0.7952755905511811
          },
          {
            "duration": 0.3630951291666662,
            "durationTicks": 244,
            "midi": 78,
            "name": "F#5",
            "ticks": 84480,
            "time": 125.714248,
            "velocity": 0.7322834645669292
          },
          {
            "duration": 0.17857137499998998,
            "durationTicks": 120,
            "midi": 74,
            "name": "D5",
            "ticks": 84720,
            "time": 126.07139075,
            "velocity": 0.6692913385826772
          },
          {
            "duration": 0.1681547114583566,
            "durationTicks": 113,
            "midi": 76,
            "name": "E5",
            "ticks": 84840,
            "time": 126.249962125,
            "velocity": 0.7795275590551181
          },
          {
            "duration": 0.3630951291666662,
            "durationTicks": 244,
            "midi": 78,
            "name": "F#5",
            "ticks": 84960,
            "time": 126.4285335,
            "velocity": 0.7874015748031497
          },
          {
            "duration": 0.17857137499998998,
            "durationTicks": 120,
            "midi": 76,
            "name": "E5",
            "ticks": 85200,
            "time": 126.78567625000001,
            "velocity": 0.7637795275590551
          },
          {
            "duration": 0.16815471145834238,
            "durationTicks": 113,
            "midi": 74,
            "name": "D5",
            "ticks": 85320,
            "time": 126.964247625,
            "velocity": 0.7401574803149606
          },
          {
            "duration": 0.1785713750000042,
            "durationTicks": 120,
            "midi": 76,
            "name": "E5",
            "ticks": 85440,
            "time": 127.142819,
            "velocity": 0.8031496062992126
          },
          {
            "duration": 0.17857137499998998,
            "durationTicks": 120,
            "midi": 73,
            "name": "C#5",
            "ticks": 85560,
            "time": 127.32139037500001,
            "velocity": 0.7401574803149606
          },
          {
            "duration": 0.1785713750000042,
            "durationTicks": 120,
            "midi": 74,
            "name": "D5",
            "ticks": 85680,
            "time": 127.49996175,
            "velocity": 0.7795275590551181
          },
          {
            "duration": 0.1785713750000042,
            "durationTicks": 120,
            "midi": 76,
            "name": "E5",
            "ticks": 85800,
            "time": 127.678533125,
            "velocity": 0.7952755905511811
          },
          {
            "duration": 0.1785713750000042,
            "durationTicks": 120,
            "midi": 78,
            "name": "F#5",
            "ticks": 85920,
            "time": 127.8571045,
            "velocity": 0.7874015748031497
          },
          {
            "duration": 0.17857137499998998,
            "durationTicks": 120,
            "midi": 76,
            "name": "E5",
            "ticks": 86040,
            "time": 128.035675875,
            "velocity": 0.7401574803149606
          },
          {
            "duration": 0.17857137499998998,
            "durationTicks": 120,
            "midi": 74,
            "name": "D5",
            "ticks": 86160,
            "time": 128.21424725,
            "velocity": 0.7401574803149606
          },
          {
            "duration": 0.1681547114583566,
            "durationTicks": 113,
            "midi": 73,
            "name": "C#5",
            "ticks": 86280,
            "time": 128.392818625,
            "velocity": 0.7559055118110236
          },
          {
            "duration": 0.363095129166652,
            "durationTicks": 244,
            "midi": 74,
            "name": "D5",
            "ticks": 86400,
            "time": 128.57139,
            "velocity": 0.7952755905511811
          },
          {
            "duration": 0.17857137499998998,
            "durationTicks": 120,
            "midi": 71,
            "name": "B4",
            "ticks": 86640,
            "time": 128.92853275000002,
            "velocity": 0.7637795275590551
          },
          {
            "duration": 0.17857137499998998,
            "durationTicks": 120,
            "midi": 73,
            "name": "C#5",
            "ticks": 86760,
            "time": 129.107104125,
            "velocity": 0.7874015748031497
          },
          {
            "duration": 0.33482132812500254,
            "durationTicks": 225,
            "midi": 74,
            "name": "D5",
            "ticks": 86880,
            "time": 129.2856755,
            "velocity": 0.7952755905511811
          },
          {
            "duration": 0.17857137499998998,
            "durationTicks": 120,
            "midi": 62,
            "name": "D4",
            "ticks": 87120,
            "time": 129.64281825,
            "velocity": 0.6692913385826772
          },
          {
            "duration": 0.1785713750000184,
            "durationTicks": 120,
            "midi": 64,
            "name": "E4",
            "ticks": 87240,
            "time": 129.821389625,
            "velocity": 0.7874015748031497
          },
          {
            "duration": 0.17857137499998998,
            "durationTicks": 120,
            "midi": 66,
            "name": "F#4",
            "ticks": 87360,
            "time": 129.999961,
            "velocity": 0.7795275590551181
          },
          {
            "duration": 0.17857137499998998,
            "durationTicks": 120,
            "midi": 67,
            "name": "G4",
            "ticks": 87480,
            "time": 130.178532375,
            "velocity": 0.7952755905511811
          },
          {
            "duration": 0.1785713750000184,
            "durationTicks": 120,
            "midi": 66,
            "name": "F#4",
            "ticks": 87600,
            "time": 130.35710375,
            "velocity": 0.7559055118110236
          },
          {
            "duration": 0.17857137499998998,
            "durationTicks": 120,
            "midi": 64,
            "name": "E4",
            "ticks": 87720,
            "time": 130.535675125,
            "velocity": 0.7401574803149606
          },
          {
            "duration": 0.17857137499998998,
            "durationTicks": 120,
            "midi": 66,
            "name": "F#4",
            "ticks": 87840,
            "time": 130.7142465,
            "velocity": 0.8031496062992126
          },
          {
            "duration": 0.1785713750000184,
            "durationTicks": 120,
            "midi": 74,
            "name": "D5",
            "ticks": 87960,
            "time": 130.892817875,
            "velocity": 0.8503937007874016
          },
          {
            "duration": 0.17857137499998998,
            "durationTicks": 120,
            "midi": 73,
            "name": "C#5",
            "ticks": 88080,
            "time": 131.07138925,
            "velocity": 0.7559055118110236
          },
          {
            "duration": 0.1681547114583566,
            "durationTicks": 113,
            "midi": 74,
            "name": "D5",
            "ticks": 88200,
            "time": 131.249960625,
            "velocity": 0.7795275590551181
          },
          {
            "duration": 0.3630951291666804,
            "durationTicks": 244,
            "midi": 71,
            "name": "B4",
            "ticks": 88320,
            "time": 131.428532,
            "velocity": 0.7322834645669292
          },
          {
            "duration": 0.1785713750000184,
            "durationTicks": 120,
            "midi": 74,
            "name": "D5",
            "ticks": 88560,
            "time": 131.78567475,
            "velocity": 0.7559055118110236
          },
          {
            "duration": 0.16815471145832817,
            "durationTicks": 113,
            "midi": 73,
            "name": "C#5",
            "ticks": 88680,
            "time": 131.96424612500002,
            "velocity": 0.7401574803149606
          },
          {
            "duration": 0.363095129166652,
            "durationTicks": 244,
            "midi": 71,
            "name": "B4",
            "ticks": 88800,
            "time": 132.1428175,
            "velocity": 0.7480314960629921
          },
          {
            "duration": 0.17857137499998998,
            "durationTicks": 120,
            "midi": 69,
            "name": "A4",
            "ticks": 89040,
            "time": 132.49996025000002,
            "velocity": 0.7244094488188977
          },
          {
            "duration": 0.16815471145832817,
            "durationTicks": 113,
            "midi": 67,
            "name": "G4",
            "ticks": 89160,
            "time": 132.678531625,
            "velocity": 0.7559055118110236
          },
          {
            "duration": 0.1785713750000184,
            "durationTicks": 120,
            "midi": 69,
            "name": "A4",
            "ticks": 89280,
            "time": 132.857103,
            "velocity": 0.7952755905511811
          },
          {
            "duration": 0.17857137499998998,
            "durationTicks": 120,
            "midi": 67,
            "name": "G4",
            "ticks": 89400,
            "time": 133.035674375,
            "velocity": 0.7401574803149606
          },
          {
            "duration": 0.17857137499998998,
            "durationTicks": 120,
            "midi": 66,
            "name": "F#4",
            "ticks": 89520,
            "time": 133.21424575,
            "velocity": 0.7480314960629921
          },
          {
            "duration": 0.1785713750000184,
            "durationTicks": 120,
            "midi": 67,
            "name": "G4",
            "ticks": 89640,
            "time": 133.392817125,
            "velocity": 0.7716535433070866
          },
          {
            "duration": 0.17857137499998998,
            "durationTicks": 120,
            "midi": 69,
            "name": "A4",
            "ticks": 89760,
            "time": 133.5713885,
            "velocity": 0.7952755905511811
          },
          {
            "duration": 0.17857137499998998,
            "durationTicks": 120,
            "midi": 71,
            "name": "B4",
            "ticks": 89880,
            "time": 133.749959875,
            "velocity": 0.8031496062992126
          },
          {
            "duration": 0.1785713750000184,
            "durationTicks": 120,
            "midi": 73,
            "name": "C#5",
            "ticks": 90000,
            "time": 133.92853125,
            "velocity": 0.7952755905511811
          },
          {
            "duration": 0.16815471145832817,
            "durationTicks": 113,
            "midi": 74,
            "name": "D5",
            "ticks": 90120,
            "time": 134.107102625,
            "velocity": 0.7874015748031497
          },
          {
            "duration": 0.363095129166652,
            "durationTicks": 244,
            "midi": 71,
            "name": "B4",
            "ticks": 90240,
            "time": 134.285674,
            "velocity": 0.7322834645669292
          },
          {
            "duration": 0.17857137499998998,
            "durationTicks": 120,
            "midi": 74,
            "name": "D5",
            "ticks": 90480,
            "time": 134.64281675,
            "velocity": 0.7637795275590551
          },
          {
            "duration": 0.1785713750000184,
            "durationTicks": 120,
            "midi": 73,
            "name": "C#5",
            "ticks": 90600,
            "time": 134.821388125,
            "velocity": 0.7559055118110236
          },
          {
            "duration": 0.363095129166652,
            "durationTicks": 244,
            "midi": 74,
            "name": "D5",
            "ticks": 90720,
            "time": 134.99995950000002,
            "velocity": 0.7952755905511811
          },
          {
            "duration": 0.1785713750000184,
            "durationTicks": 120,
            "midi": 76,
            "name": "E5",
            "ticks": 90960,
            "time": 135.35710225,
            "velocity": 0.8346456692913385
          },
          {
            "duration": 0.16815471145832817,
            "durationTicks": 113,
            "midi": 78,
            "name": "F#5",
            "ticks": 91080,
            "time": 135.53567362500002,
            "velocity": 0.7874015748031497
          },
          {
            "duration": 0.17857137499998998,
            "durationTicks": 120,
            "midi": 73,
            "name": "C#5",
            "ticks": 91200,
            "time": 135.714245,
            "velocity": 0.7086614173228346
          },
          {
            "duration": 0.1785713750000184,
            "durationTicks": 120,
            "midi": 74,
            "name": "D5",
            "ticks": 91320,
            "time": 135.892816375,
            "velocity": 0.7795275590551181
          },
          {
            "duration": 0.17857137499998998,
            "durationTicks": 120,
            "midi": 76,
            "name": "E5",
            "ticks": 91440,
            "time": 136.07138775,
            "velocity": 0.8110236220472441
          },
          {
            "duration": 0.17857137499998998,
            "durationTicks": 120,
            "midi": 74,
            "name": "D5",
            "ticks": 91560,
            "time": 136.249959125,
            "velocity": 0.7559055118110236
          },
          {
            "duration": 0.1785713750000184,
            "durationTicks": 120,
            "midi": 73,
            "name": "C#5",
            "ticks": 91680,
            "time": 136.4285305,
            "velocity": 0.7401574803149606
          },
          {
            "duration": 0.17857137499998998,
            "durationTicks": 120,
            "midi": 74,
            "name": "D5",
            "ticks": 91800,
            "time": 136.607101875,
            "velocity": 0.7795275590551181
          },
          {
            "duration": 0.17857137499998998,
            "durationTicks": 120,
            "midi": 71,
            "name": "B4",
            "ticks": 91920,
            "time": 136.78567325,
            "velocity": 0.7165354330708661
          },
          {
            "duration": 0.1681547114583566,
            "durationTicks": 113,
            "midi": 73,
            "name": "C#5",
            "ticks": 92040,
            "time": 136.964244625,
            "velocity": 0.7874015748031497
          },
          {
            "duration": 0.6473212343749992,
            "durationTicks": 435,
            "midi": 74,
            "name": "D5",
            "ticks": 92160,
            "time": 137.142816,
            "velocity": 0.5511811023622047
          },
          {
            "duration": 0.6473212343749992,
            "durationTicks": 435,
            "midi": 73,
            "name": "C#5",
            "ticks": 93120,
            "time": 138.57138700000002,
            "velocity": 0.5039370078740157
          },
          {
            "duration": 0.6473212343749992,
            "durationTicks": 435,
            "midi": 71,
            "name": "B4",
            "ticks": 94080,
            "time": 139.999958,
            "velocity": 0.5039370078740157
          },
          {
            "duration": 0.6473212343749992,
            "durationTicks": 435,
            "midi": 74,
            "name": "D5",
            "ticks": 95040,
            "time": 141.428529,
            "velocity": 0.5118110236220472
          },
          {
            "duration": 0.6473212343749992,
            "durationTicks": 435,
            "midi": 62,
            "name": "D4",
            "ticks": 96000,
            "time": 142.8571,
            "velocity": 0.49606299212598426
          },
          {
            "duration": 0.6473212343749992,
            "durationTicks": 435,
            "midi": 62,
            "name": "D4",
            "ticks": 96960,
            "time": 144.285671,
            "velocity": 0.5118110236220472
          },
          {
            "duration": 0.6473212343749992,
            "durationTicks": 435,
            "midi": 62,
            "name": "D4",
            "ticks": 97920,
            "time": 145.714242,
            "velocity": 0.49606299212598426
          },
          {
            "duration": 0.6473212343750276,
            "durationTicks": 435,
            "midi": 62,
            "name": "D4",
            "ticks": 98880,
            "time": 147.142813,
            "velocity": 0.5039370078740157
          },
          {
            "duration": 0.6473212343749992,
            "durationTicks": 435,
            "midi": 69,
            "name": "A4",
            "ticks": 100320,
            "time": 149.2856695,
            "velocity": 0.4330708661417323
          },
          {
            "duration": 0.6473212343749992,
            "durationTicks": 435,
            "midi": 69,
            "name": "A4",
            "ticks": 101280,
            "time": 150.71424050000002,
            "velocity": 0.41732283464566927
          },
          {
            "duration": 0.6473212343749992,
            "durationTicks": 435,
            "midi": 66,
            "name": "F#4",
            "ticks": 102240,
            "time": 152.1428115,
            "velocity": 0.4330708661417323
          },
          {
            "duration": 0.6473212343749992,
            "durationTicks": 435,
            "midi": 69,
            "name": "A4",
            "ticks": 103200,
            "time": 153.5713825,
            "velocity": 0.44881889763779526
          },
          {
            "duration": 0.6473212343749992,
            "durationTicks": 435,
            "midi": 67,
            "name": "G4",
            "ticks": 104160,
            "time": 154.9999535,
            "velocity": 0.4251968503937008
          },
          {
            "duration": 0.6473212343749992,
            "durationTicks": 435,
            "midi": 66,
            "name": "F#4",
            "ticks": 105120,
            "time": 156.4285245,
            "velocity": 0.4330708661417323
          },
          {
            "duration": 0.6473212343749992,
            "durationTicks": 435,
            "midi": 67,
            "name": "G4",
            "ticks": 106080,
            "time": 157.8570955,
            "velocity": 0.44881889763779526
          },
          {
            "duration": 0.6473212343749992,
            "durationTicks": 435,
            "midi": 76,
            "name": "E5",
            "ticks": 107040,
            "time": 159.2856665,
            "velocity": 0.5118110236220472
          },
          {
            "duration": 0.3244046645833407,
            "durationTicks": 218,
            "midi": 78,
            "name": "F#5",
            "ticks": 107520,
            "time": 159.999952,
            "velocity": 0.6771653543307087
          },
          {
            "duration": 0.363095129166652,
            "durationTicks": 244,
            "midi": 66,
            "name": "F#4",
            "ticks": 107760,
            "time": 160.35709475000002,
            "velocity": 0.5748031496062992
          },
          {
            "duration": 0.3630951291666804,
            "durationTicks": 244,
            "midi": 67,
            "name": "G4",
            "ticks": 108000,
            "time": 160.7142375,
            "velocity": 0.5590551181102362
          },
          {
            "duration": 0.363095129166652,
            "durationTicks": 244,
            "midi": 66,
            "name": "F#4",
            "ticks": 108240,
            "time": 161.07138025,
            "velocity": 0.6299212598425197
          },
          {
            "duration": 0.33482132812500254,
            "durationTicks": 225,
            "midi": 64,
            "name": "E4",
            "ticks": 108480,
            "time": 161.428523,
            "velocity": 0.6220472440944882
          },
          {
            "duration": 0.3630951291666804,
            "durationTicks": 244,
            "midi": 76,
            "name": "E5",
            "ticks": 108720,
            "time": 161.78566575,
            "velocity": 0.7637795275590551
          },
          {
            "duration": 0.363095129166652,
            "durationTicks": 244,
            "midi": 78,
            "name": "F#5",
            "ticks": 108960,
            "time": 162.1428085,
            "velocity": 0.8188976377952756
          },
          {
            "duration": 0.363095129166652,
            "durationTicks": 244,
            "midi": 76,
            "name": "E5",
            "ticks": 109200,
            "time": 162.49995125,
            "velocity": 0.6377952755905512
          },
          {
            "duration": 0.3348213281249741,
            "durationTicks": 225,
            "midi": 74,
            "name": "D5",
            "ticks": 109440,
            "time": 162.85709400000002,
            "velocity": 0.6062992125984252
          },
          {
            "duration": 0.3630951291666804,
            "durationTicks": 244,
            "midi": 66,
            "name": "F#4",
            "ticks": 109680,
            "time": 163.21423675,
            "velocity": 0.5748031496062992
          },
          {
            "duration": 0.33482132812500254,
            "durationTicks": 225,
            "midi": 62,
            "name": "D4",
            "ticks": 109920,
            "time": 163.5713795,
            "velocity": 0.5354330708661418
          },
          {
            "duration": 0.363095129166652,
            "durationTicks": 244,
            "midi": 74,
            "name": "D5",
            "ticks": 110160,
            "time": 163.92852225000001,
            "velocity": 0.7244094488188977
          },
          {
            "duration": 0.33482132812500254,
            "durationTicks": 225,
            "midi": 73,
            "name": "C#5",
            "ticks": 110400,
            "time": 164.285665,
            "velocity": 0.7086614173228346
          },
          {
            "duration": 0.363095129166652,
            "durationTicks": 244,
            "midi": 57,
            "name": "A3",
            "ticks": 110640,
            "time": 164.64280775,
            "velocity": 0.6220472440944882
          },
          {
            "duration": 0.363095129166652,
            "durationTicks": 244,
            "midi": 55,
            "name": "G3",
            "ticks": 110880,
            "time": 164.9999505,
            "velocity": 0.6062992125984252
          },
          {
            "duration": 0.3630951291666804,
            "durationTicks": 244,
            "midi": 57,
            "name": "A3",
            "ticks": 111120,
            "time": 165.35709325,
            "velocity": 0.6850393700787402
          },
          {
            "duration": 0.33482132812500254,
            "durationTicks": 225,
            "midi": 59,
            "name": "B3",
            "ticks": 111360,
            "time": 165.714236,
            "velocity": 0.7007874015748031
          },
          {
            "duration": 0.363095129166652,
            "durationTicks": 244,
            "midi": 71,
            "name": "B4",
            "ticks": 111600,
            "time": 166.07137875,
            "velocity": 0.7480314960629921
          },
          {
            "duration": 0.363095129166652,
            "durationTicks": 244,
            "midi": 69,
            "name": "A4",
            "ticks": 111840,
            "time": 166.42852150000002,
            "velocity": 0.7401574803149606
          },
          {
            "duration": 0.3630951291666804,
            "durationTicks": 244,
            "midi": 71,
            "name": "B4",
            "ticks": 112080,
            "time": 166.78566425,
            "velocity": 0.6929133858267716
          },
          {
            "duration": 0.33482132812500254,
            "durationTicks": 225,
            "midi": 69,
            "name": "A4",
            "ticks": 112320,
            "time": 167.142807,
            "velocity": 0.6771653543307087
          },
          {
            "duration": 0.363095129166652,
            "durationTicks": 244,
            "midi": 57,
            "name": "A3",
            "ticks": 112560,
            "time": 167.49994975,
            "velocity": 0.6299212598425197
          },
          {
            "duration": 0.3630951291666804,
            "durationTicks": 244,
            "midi": 55,
            "name": "G3",
            "ticks": 112800,
            "time": 167.8570925,
            "velocity": 0.5905511811023622
          },
          {
            "duration": 0.363095129166652,
            "durationTicks": 244,
            "midi": 57,
            "name": "A3",
            "ticks": 113040,
            "time": 168.21423525,
            "velocity": 0.6692913385826772
          },
          {
            "duration": 0.33482132812500254,
            "durationTicks": 225,
            "midi": 62,
            "name": "D4",
            "ticks": 113280,
            "time": 168.571378,
            "velocity": 0.7086614173228346
          },
          {
            "duration": 0.363095129166652,
            "durationTicks": 244,
            "midi": 71,
            "name": "B4",
            "ticks": 113520,
            "time": 168.92852075000002,
            "velocity": 0.7322834645669292
          },
          {
            "duration": 0.3630951291666804,
            "durationTicks": 244,
            "midi": 69,
            "name": "A4",
            "ticks": 113760,
            "time": 169.2856635,
            "velocity": 0.7244094488188977
          },
          {
            "duration": 0.363095129166652,
            "durationTicks": 244,
            "midi": 71,
            "name": "B4",
            "ticks": 114000,
            "time": 169.64280625,
            "velocity": 0.6692913385826772
          },
          {
            "duration": 0.33482132812500254,
            "durationTicks": 225,
            "midi": 73,
            "name": "C#5",
            "ticks": 114240,
            "time": 169.99994900000002,
            "velocity": 0.6850393700787402
          },
          {
            "duration": 0.3630951291666804,
            "durationTicks": 244,
            "midi": 61,
            "name": "C#4",
            "ticks": 114480,
            "time": 170.35709175,
            "velocity": 0.5748031496062992
          },
          {
            "duration": 0.363095129166652,
            "durationTicks": 244,
            "midi": 59,
            "name": "B3",
            "ticks": 114720,
            "time": 170.7142345,
            "velocity": 0.5590551181102362
          },
          {
            "duration": 0.363095129166652,
            "durationTicks": 244,
            "midi": 61,
            "name": "C#4",
            "ticks": 114960,
            "time": 171.07137725,
            "velocity": 0.6929133858267716
          },
          {
            "duration": 0.33482132812500254,
            "durationTicks": 225,
            "midi": 62,
            "name": "D4",
            "ticks": 115200,
            "time": 171.42852,
            "velocity": 0.6929133858267716
          },
          {
            "duration": 0.363095129166652,
            "durationTicks": 244,
            "midi": 74,
            "name": "D5",
            "ticks": 115440,
            "time": 171.78566275,
            "velocity": 0.7480314960629921
          },
          {
            "duration": 0.363095129166652,
            "durationTicks": 244,
            "midi": 76,
            "name": "E5",
            "ticks": 115680,
            "time": 172.1428055,
            "velocity": 0.7795275590551181
          },
          {
            "duration": 0.363095129166652,
            "durationTicks": 244,
            "midi": 74,
            "name": "D5",
            "ticks": 115920,
            "time": 172.49994825000002,
            "velocity": 0.6377952755905512
          },
          {
            "duration": 0.33482132812500254,
            "durationTicks": 225,
            "midi": 73,
            "name": "C#5",
            "ticks": 116160,
            "time": 172.857091,
            "velocity": 0.6299212598425197
          },
          {
            "duration": 0.363095129166652,
            "durationTicks": 244,
            "midi": 61,
            "name": "C#4",
            "ticks": 116400,
            "time": 173.21423375,
            "velocity": 0.5669291338582677
          },
          {
            "duration": 0.363095129166652,
            "durationTicks": 244,
            "midi": 62,
            "name": "D4",
            "ticks": 116640,
            "time": 173.5713765,
            "velocity": 0.5669291338582677
          },
          {
            "duration": 0.3630951291666804,
            "durationTicks": 244,
            "midi": 61,
            "name": "C#4",
            "ticks": 116880,
            "time": 173.92851925,
            "velocity": 0.6535433070866141
          },
          {
            "duration": 0.33482132812500254,
            "durationTicks": 225,
            "midi": 59,
            "name": "B3",
            "ticks": 117120,
            "time": 174.285662,
            "velocity": 0.6456692913385826
          },
          {
            "duration": 0.363095129166652,
            "durationTicks": 244,
            "midi": 71,
            "name": "B4",
            "ticks": 117360,
            "time": 174.64280475,
            "velocity": 0.7637795275590551
          },
          {
            "duration": 0.3630951291666804,
            "durationTicks": 244,
            "midi": 69,
            "name": "A4",
            "ticks": 117600,
            "time": 174.9999475,
            "velocity": 0.7637795275590551
          },
          {
            "duration": 0.3630951291666804,
            "durationTicks": 244,
            "midi": 71,
            "name": "B4",
            "ticks": 117840,
            "time": 175.35709025,
            "velocity": 0.6771653543307087
          },
          {
            "duration": 0.33482132812500254,
            "durationTicks": 225,
            "midi": 73,
            "name": "C#5",
            "ticks": 118080,
            "time": 175.714233,
            "velocity": 0.6929133858267716
          },
          {
            "duration": 0.363095129166652,
            "durationTicks": 244,
            "midi": 61,
            "name": "C#4",
            "ticks": 118320,
            "time": 176.07137575000002,
            "velocity": 0.5826771653543307
          },
          {
            "duration": 0.3630951291666804,
            "durationTicks": 244,
            "midi": 66,
            "name": "F#4",
            "ticks": 118560,
            "time": 176.4285185,
            "velocity": 0.6220472440944882
          },
          {
            "duration": 0.363095129166652,
            "durationTicks": 244,
            "midi": 64,
            "name": "E4",
            "ticks": 118800,
            "time": 176.78566125,
            "velocity": 0.6299212598425197
          },
          {
            "duration": 0.33482132812500254,
            "durationTicks": 225,
            "midi": 62,
            "name": "D4",
            "ticks": 119040,
            "time": 177.142804,
            "velocity": 0.5984251968503937
          },
          {
            "duration": 0.3630951291666804,
            "durationTicks": 244,
            "midi": 74,
            "name": "D5",
            "ticks": 119280,
            "time": 177.49994675,
            "velocity": 0.7637795275590551
          },
          {
            "duration": 0.363095129166652,
            "durationTicks": 244,
            "midi": 76,
            "name": "E5",
            "ticks": 119520,
            "time": 177.8570895,
            "velocity": 0.8031496062992126
          },
          {
            "duration": 0.363095129166652,
            "durationTicks": 244,
            "midi": 79,
            "name": "G5",
            "ticks": 119760,
            "time": 178.21423225,
            "velocity": 0.7007874015748031
          },
          {
            "duration": 0.3348213281249741,
            "durationTicks": 225,
            "midi": 78,
            "name": "F#5",
            "ticks": 120000,
            "time": 178.57137500000002,
            "velocity": 0.6929133858267716
          },
          {
            "duration": 0.3630951291666804,
            "durationTicks": 244,
            "midi": 66,
            "name": "F#4",
            "ticks": 120240,
            "time": 178.92851775,
            "velocity": 0.5669291338582677
          },
          {
            "duration": 0.363095129166652,
            "durationTicks": 244,
            "midi": 69,
            "name": "A4",
            "ticks": 120480,
            "time": 179.2856605,
            "velocity": 0.5748031496062992
          },
          {
            "duration": 0.363095129166652,
            "durationTicks": 244,
            "midi": 78,
            "name": "F#5",
            "ticks": 120720,
            "time": 179.64280325000001,
            "velocity": 0.7401574803149606
          },
          {
            "duration": 0.33482132812500254,
            "durationTicks": 225,
            "midi": 74,
            "name": "D5",
            "ticks": 120960,
            "time": 179.999946,
            "velocity": 0.7086614173228346
          },
          {
            "duration": 0.363095129166652,
            "durationTicks": 244,
            "midi": 79,
            "name": "G5",
            "ticks": 121200,
            "time": 180.35708875,
            "velocity": 0.6850393700787402
          },
          {
            "duration": 0.363095129166652,
            "durationTicks": 244,
            "midi": 78,
            "name": "F#5",
            "ticks": 121440,
            "time": 180.7142315,
            "velocity": 0.6614173228346457
          },
          {
            "duration": 0.3630951291666804,
            "durationTicks": 244,
            "midi": 79,
            "name": "G5",
            "ticks": 121680,
            "time": 181.07137425,
            "velocity": 0.6850393700787402
          },
          {
            "duration": 0.33482132812500254,
            "durationTicks": 225,
            "midi": 76,
            "name": "E5",
            "ticks": 121920,
            "time": 181.428517,
            "velocity": 0.6614173228346457
          },
          {
            "duration": 0.363095129166652,
            "durationTicks": 244,
            "midi": 69,
            "name": "A4",
            "ticks": 122160,
            "time": 181.78565975,
            "velocity": 0.5984251968503937
          },
          {
            "duration": 0.363095129166652,
            "durationTicks": 244,
            "midi": 67,
            "name": "G4",
            "ticks": 122400,
            "time": 182.14280250000002,
            "velocity": 0.5669291338582677
          },
          {
            "duration": 0.3630951291666804,
            "durationTicks": 244,
            "midi": 69,
            "name": "A4",
            "ticks": 122640,
            "time": 182.49994525,
            "velocity": 0.6929133858267716
          },
          {
            "duration": 0.33482132812500254,
            "durationTicks": 225,
            "midi": 66,
            "name": "F#4",
            "ticks": 122880,
            "time": 182.857088,
            "velocity": 0.6535433070866141
          },
          {
            "duration": 0.3244046645833123,
            "durationTicks": 218,
            "midi": 69,
            "name": "A4",
            "ticks": 123120,
            "time": 183.21423075,
            "velocity": 0.5590551181102362
          },
          {
            "duration": 0.3244046645833407,
            "durationTicks": 218,
            "midi": 69,
            "name": "A4",
            "ticks": 123360,
            "time": 183.5713735,
            "velocity": 0.5511811023622047
          },
          {
            "duration": 0.3244046645833123,
            "durationTicks": 218,
            "midi": 69,
            "name": "A4",
            "ticks": 123600,
            "time": 183.92851625,
            "velocity": 0.5511811023622047
          },
          {
            "duration": 0.3244046645833123,
            "durationTicks": 218,
            "midi": 69,
            "name": "A4",
            "ticks": 123840,
            "time": 184.285659,
            "velocity": 0.5433070866141733
          },
          {
            "duration": 0.3244046645833123,
            "durationTicks": 218,
            "midi": 69,
            "name": "A4",
            "ticks": 124080,
            "time": 184.64280175000002,
            "velocity": 0.5511811023622047
          },
          {
            "duration": 0.3244046645833407,
            "durationTicks": 218,
            "midi": 69,
            "name": "A4",
            "ticks": 124320,
            "time": 184.9999445,
            "velocity": 0.5590551181102362
          },
          {
            "duration": 0.3244046645833123,
            "durationTicks": 218,
            "midi": 69,
            "name": "A4",
            "ticks": 124560,
            "time": 185.35708725,
            "velocity": 0.5590551181102362
          },
          {
            "duration": 0.3244046645833123,
            "durationTicks": 218,
            "midi": 66,
            "name": "F#4",
            "ticks": 124800,
            "time": 185.71423000000001,
            "velocity": 0.5275590551181102
          },
          {
            "duration": 0.3244046645833407,
            "durationTicks": 218,
            "midi": 66,
            "name": "F#4",
            "ticks": 125040,
            "time": 186.07137275,
            "velocity": 0.5669291338582677
          },
          {
            "duration": 0.3244046645833123,
            "durationTicks": 218,
            "midi": 66,
            "name": "F#4",
            "ticks": 125280,
            "time": 186.4285155,
            "velocity": 0.5669291338582677
          },
          {
            "duration": 0.3244046645833123,
            "durationTicks": 218,
            "midi": 66,
            "name": "F#4",
            "ticks": 125520,
            "time": 186.78565825,
            "velocity": 0.5511811023622047
          },
          {
            "duration": 0.3244046645833407,
            "durationTicks": 218,
            "midi": 66,
            "name": "F#4",
            "ticks": 125760,
            "time": 187.142801,
            "velocity": 0.5590551181102362
          },
          {
            "duration": 0.3244046645833407,
            "durationTicks": 218,
            "midi": 66,
            "name": "F#4",
            "ticks": 126000,
            "time": 187.49994375,
            "velocity": 0.5590551181102362
          },
          {
            "duration": 0.3244046645833123,
            "durationTicks": 218,
            "midi": 69,
            "name": "A4",
            "ticks": 126240,
            "time": 187.8570865,
            "velocity": 0.5905511811023622
          },
          {
            "duration": 0.3244046645833123,
            "durationTicks": 218,
            "midi": 69,
            "name": "A4",
            "ticks": 126480,
            "time": 188.21422925000002,
            "velocity": 0.5511811023622047
          },
          {
            "duration": 0.3244046645833407,
            "durationTicks": 218,
            "midi": 67,
            "name": "G4",
            "ticks": 126720,
            "time": 188.571372,
            "velocity": 0.5511811023622047
          },
          {
            "duration": 0.3244046645833123,
            "durationTicks": 218,
            "midi": 67,
            "name": "G4",
            "ticks": 126960,
            "time": 188.92851475,
            "velocity": 0.5511811023622047
          },
          {
            "duration": 0.3244046645833123,
            "durationTicks": 218,
            "midi": 67,
            "name": "G4",
            "ticks": 127200,
            "time": 189.2856575,
            "velocity": 0.5669291338582677
          },
          {
            "duration": 0.3244046645833407,
            "durationTicks": 218,
            "midi": 74,
            "name": "D5",
            "ticks": 127440,
            "time": 189.64280025,
            "velocity": 0.5905511811023622
          },
          {
            "duration": 0.3244046645833123,
            "durationTicks": 218,
            "midi": 74,
            "name": "D5",
            "ticks": 127680,
            "time": 189.999943,
            "velocity": 0.5669291338582677
          },
          {
            "duration": 0.3244046645833123,
            "durationTicks": 218,
            "midi": 74,
            "name": "D5",
            "ticks": 127920,
            "time": 190.35708575,
            "velocity": 0.5669291338582677
          },
          {
            "duration": 0.3244046645833123,
            "durationTicks": 218,
            "midi": 74,
            "name": "D5",
            "ticks": 128160,
            "time": 190.71422850000002,
            "velocity": 0.5669291338582677
          },
          {
            "duration": 0.3244046645833407,
            "durationTicks": 218,
            "midi": 74,
            "name": "D5",
            "ticks": 128400,
            "time": 191.07137125,
            "velocity": 0.5669291338582677
          },
          {
            "duration": 0.3244046645833123,
            "durationTicks": 218,
            "midi": 74,
            "name": "D5",
            "ticks": 128640,
            "time": 191.428514,
            "velocity": 0.5669291338582677
          },
          {
            "duration": 0.3244046645833123,
            "durationTicks": 218,
            "midi": 74,
            "name": "D5",
            "ticks": 128880,
            "time": 191.78565675000002,
            "velocity": 0.5433070866141733
          },
          {
            "duration": 0.3244046645833407,
            "durationTicks": 218,
            "midi": 71,
            "name": "B4",
            "ticks": 129120,
            "time": 192.1427995,
            "velocity": 0.5354330708661418
          },
          {
            "duration": 0.3244046645833123,
            "durationTicks": 218,
            "midi": 71,
            "name": "B4",
            "ticks": 129360,
            "time": 192.49994225,
            "velocity": 0.5669291338582677
          },
          {
            "duration": 0.3244046645833123,
            "durationTicks": 218,
            "midi": 69,
            "name": "A4",
            "ticks": 129600,
            "time": 192.857085,
            "velocity": 0.5433070866141733
          },
          {
            "duration": 0.3244046645833407,
            "durationTicks": 218,
            "midi": 69,
            "name": "A4",
            "ticks": 129840,
            "time": 193.21422775,
            "velocity": 0.5748031496062992
          },
          {
            "duration": 0.3244046645833407,
            "durationTicks": 218,
            "midi": 76,
            "name": "E5",
            "ticks": 130080,
            "time": 193.5713705,
            "velocity": 0.5984251968503937
          },
          {
            "duration": 0.3244046645833123,
            "durationTicks": 218,
            "midi": 73,
            "name": "C#5",
            "ticks": 130320,
            "time": 193.92851325,
            "velocity": 0.5590551181102362
          },
          {
            "duration": 0.3244046645833123,
            "durationTicks": 218,
            "midi": 69,
            "name": "A4",
            "ticks": 130560,
            "time": 194.28565600000002,
            "velocity": 0.5039370078740157
          },
          {
            "duration": 0.3244046645833407,
            "durationTicks": 218,
            "midi": 78,
            "name": "F#5",
            "ticks": 130800,
            "time": 194.64279875,
            "velocity": 0.6062992125984252
          },
          {
            "duration": 0.3244046645833123,
            "durationTicks": 218,
            "midi": 78,
            "name": "F#5",
            "ticks": 131040,
            "time": 194.9999415,
            "velocity": 0.5826771653543307
          },
          {
            "duration": 0.3244046645833123,
            "durationTicks": 218,
            "midi": 78,
            "name": "F#5",
            "ticks": 131280,
            "time": 195.35708425,
            "velocity": 0.5669291338582677
          },
          {
            "duration": 0.3244046645833407,
            "durationTicks": 218,
            "midi": 76,
            "name": "E5",
            "ticks": 131520,
            "time": 195.714227,
            "velocity": 0.5275590551181102
          },
          {
            "duration": 0.3244046645833123,
            "durationTicks": 218,
            "midi": 76,
            "name": "E5",
            "ticks": 131760,
            "time": 196.07136975,
            "velocity": 0.5511811023622047
          },
          {
            "duration": 0.3244046645833123,
            "durationTicks": 218,
            "midi": 76,
            "name": "E5",
            "ticks": 132000,
            "time": 196.4285125,
            "velocity": 0.5590551181102362
          },
          {
            "duration": 0.3244046645833407,
            "durationTicks": 218,
            "midi": 76,
            "name": "E5",
            "ticks": 132240,
            "time": 196.78565525,
            "velocity": 0.5590551181102362
          },
          {
            "duration": 0.3244046645833407,
            "durationTicks": 218,
            "midi": 74,
            "name": "D5",
            "ticks": 132480,
            "time": 197.142798,
            "velocity": 0.5590551181102362
          },
          {
            "duration": 0.3244046645833123,
            "durationTicks": 218,
            "midi": 74,
            "name": "D5",
            "ticks": 132720,
            "time": 197.49994075,
            "velocity": 0.5511811023622047
          },
          {
            "duration": 0.3244046645833123,
            "durationTicks": 218,
            "midi": 74,
            "name": "D5",
            "ticks": 132960,
            "time": 197.85708350000002,
            "velocity": 0.5669291338582677
          },
          {
            "duration": 0.3244046645833407,
            "durationTicks": 218,
            "midi": 74,
            "name": "D5",
            "ticks": 133200,
            "time": 198.21422625,
            "velocity": 0.5669291338582677
          },
          {
            "duration": 0.3244046645833123,
            "durationTicks": 218,
            "midi": 81,
            "name": "A5",
            "ticks": 133440,
            "time": 198.571369,
            "velocity": 0.6062992125984252
          },
          {
            "duration": 0.3244046645833123,
            "durationTicks": 218,
            "midi": 81,
            "name": "A5",
            "ticks": 133680,
            "time": 198.92851175,
            "velocity": 0.5433070866141733
          },
          {
            "duration": 0.3244046645833407,
            "durationTicks": 218,
            "midi": 81,
            "name": "A5",
            "ticks": 133920,
            "time": 199.2856545,
            "velocity": 0.5748031496062992
          },
          {
            "duration": 0.3244046645833123,
            "durationTicks": 218,
            "midi": 81,
            "name": "A5",
            "ticks": 134160,
            "time": 199.64279725,
            "velocity": 0.5669291338582677
          },
          {
            "duration": 0.3244046645833123,
            "durationTicks": 218,
            "midi": 83,
            "name": "B5",
            "ticks": 134400,
            "time": 199.99994,
            "velocity": 0.5748031496062992
          },
          {
            "duration": 0.3244046645833123,
            "durationTicks": 218,
            "midi": 83,
            "name": "B5",
            "ticks": 134640,
            "time": 200.35708275000002,
            "velocity": 0.5511811023622047
          },
          {
            "duration": 0.3244046645833407,
            "durationTicks": 218,
            "midi": 83,
            "name": "B5",
            "ticks": 134880,
            "time": 200.7142255,
            "velocity": 0.5590551181102362
          },
          {
            "duration": 0.3244046645833123,
            "durationTicks": 218,
            "midi": 83,
            "name": "B5",
            "ticks": 135120,
            "time": 201.07136825,
            "velocity": 0.5511811023622047
          },
          {
            "duration": 0.3244046645833123,
            "durationTicks": 218,
            "midi": 81,
            "name": "A5",
            "ticks": 135360,
            "time": 201.42851100000001,
            "velocity": 0.5433070866141733
          },
          {
            "duration": 0.3244046645833407,
            "durationTicks": 218,
            "midi": 81,
            "name": "A5",
            "ticks": 135600,
            "time": 201.78565375,
            "velocity": 0.5669291338582677
          },
          {
            "duration": 0.3244046645833123,
            "durationTicks": 218,
            "midi": 81,
            "name": "A5",
            "ticks": 135840,
            "time": 202.1427965,
            "velocity": 0.5433070866141733
          },
          {
            "duration": 0.3244046645833123,
            "durationTicks": 218,
            "midi": 81,
            "name": "A5",
            "ticks": 136080,
            "time": 202.49993925,
            "velocity": 0.5511811023622047
          },
          {
            "duration": 0.3244046645833407,
            "durationTicks": 218,
            "midi": 83,
            "name": "B5",
            "ticks": 136320,
            "time": 202.857082,
            "velocity": 0.5826771653543307
          },
          {
            "duration": 0.3244046645833407,
            "durationTicks": 218,
            "midi": 83,
            "name": "B5",
            "ticks": 136560,
            "time": 203.21422475,
            "velocity": 0.5590551181102362
          },
          {
            "duration": 0.3244046645833123,
            "durationTicks": 218,
            "midi": 83,
            "name": "B5",
            "ticks": 136800,
            "time": 203.5713675,
            "velocity": 0.5590551181102362
          },
          {
            "duration": 0.3244046645833123,
            "durationTicks": 218,
            "midi": 83,
            "name": "B5",
            "ticks": 137040,
            "time": 203.92851025000002,
            "velocity": 0.5511811023622047
          },
          {
            "duration": 0.3244046645833407,
            "durationTicks": 218,
            "midi": 85,
            "name": "C#6",
            "ticks": 137280,
            "time": 204.285653,
            "velocity": 0.5669291338582677
          },
          {
            "duration": 0.3244046645833123,
            "durationTicks": 218,
            "midi": 73,
            "name": "C#5",
            "ticks": 137520,
            "time": 204.64279575,
            "velocity": 0.5039370078740157
          },
          {
            "duration": 0.3244046645833123,
            "durationTicks": 218,
            "midi": 73,
            "name": "C#5",
            "ticks": 137760,
            "time": 204.9999385,
            "velocity": 0.6062992125984252
          },
          {
            "duration": 0.3244046645833407,
            "durationTicks": 218,
            "midi": 73,
            "name": "C#5",
            "ticks": 138000,
            "time": 205.35708125,
            "velocity": 0.6456692913385826
          },
          {
            "duration": 0.3244046645833123,
            "durationTicks": 218,
            "midi": 74,
            "name": "D5",
            "ticks": 138240,
            "time": 205.714224,
            "velocity": 0.6614173228346457
          },
          {
            "duration": 0.17857137499998998,
            "durationTicks": 120,
            "midi": 62,
            "name": "D4",
            "ticks": 138480,
            "time": 206.07136675,
            "velocity": 0.5826771653543307
          },
          {
            "duration": 0.1785713750000184,
            "durationTicks": 120,
            "midi": 64,
            "name": "E4",
            "ticks": 138600,
            "time": 206.249938125,
            "velocity": 0.6614173228346457
          },
          {
            "duration": 0.3348213281249741,
            "durationTicks": 225,
            "midi": 66,
            "name": "F#4",
            "ticks": 138720,
            "time": 206.42850950000002,
            "velocity": 0.6692913385826772
          },
          {
            "duration": 0.3244046645833407,
            "durationTicks": 218,
            "midi": 62,
            "name": "D4",
            "ticks": 138960,
            "time": 206.78565225,
            "velocity": 0.6141732283464567
          },
          {
            "duration": 0.3244046645833123,
            "durationTicks": 218,
            "midi": 61,
            "name": "C#4",
            "ticks": 139200,
            "time": 207.142795,
            "velocity": 0.6456692913385826
          },
          {
            "duration": 0.17857137499998998,
            "durationTicks": 120,
            "midi": 73,
            "name": "C#5",
            "ticks": 139440,
            "time": 207.49993775000002,
            "velocity": 0.7637795275590551
          },
          {
            "duration": 0.17857137499998998,
            "durationTicks": 120,
            "midi": 74,
            "name": "D5",
            "ticks": 139560,
            "time": 207.678509125,
            "velocity": 0.7007874015748031
          },
          {
            "duration": 0.33482132812500254,
            "durationTicks": 225,
            "midi": 76,
            "name": "E5",
            "ticks": 139680,
            "time": 207.8570805,
            "velocity": 0.6771653543307087
          },
          {
            "duration": 0.3244046645833123,
            "durationTicks": 218,
            "midi": 73,
            "name": "C#5",
            "ticks": 139920,
            "time": 208.21422325,
            "velocity": 0.6377952755905512
          },
          {
            "duration": 0.3244046645833123,
            "durationTicks": 218,
            "midi": 71,
            "name": "B4",
            "ticks": 140160,
            "time": 208.571366,
            "velocity": 0.6299212598425197
          },
          {
            "duration": 0.1785713750000184,
            "durationTicks": 120,
            "midi": 59,
            "name": "B3",
            "ticks": 140400,
            "time": 208.92850875,
            "velocity": 0.6141732283464567
          },
          {
            "duration": 0.17857137499998998,
            "durationTicks": 120,
            "midi": 61,
            "name": "C#4",
            "ticks": 140520,
            "time": 209.107080125,
            "velocity": 0.6771653543307087
          },
          {
            "duration": 0.33482132812500254,
            "durationTicks": 225,
            "midi": 62,
            "name": "D4",
            "ticks": 140640,
            "time": 209.2856515,
            "velocity": 0.6692913385826772
          },
          {
            "duration": 0.3244046645833123,
            "durationTicks": 218,
            "midi": 59,
            "name": "B3",
            "ticks": 140880,
            "time": 209.64279425,
            "velocity": 0.6614173228346457
          },
          {
            "duration": 0.3244046645833123,
            "durationTicks": 218,
            "midi": 61,
            "name": "C#4",
            "ticks": 141120,
            "time": 209.99993700000002,
            "velocity": 0.6929133858267716
          },
          {
            "duration": 0.1785713750000184,
            "durationTicks": 120,
            "midi": 69,
            "name": "A4",
            "ticks": 141360,
            "time": 210.35707975,
            "velocity": 0.7244094488188977
          },
          {
            "duration": 0.17857137499998998,
            "durationTicks": 120,
            "midi": 67,
            "name": "G4",
            "ticks": 141480,
            "time": 210.53565112500002,
            "velocity": 0.6535433070866141
          },
          {
            "duration": 0.33482132812500254,
            "durationTicks": 225,
            "midi": 66,
            "name": "F#4",
            "ticks": 141600,
            "time": 210.7142225,
            "velocity": 0.6377952755905512
          },
          {
            "duration": 0.3244046645833123,
            "durationTicks": 218,
            "midi": 64,
            "name": "E4",
            "ticks": 141840,
            "time": 211.07136525,
            "velocity": 0.6535433070866141
          },
          {
            "duration": 0.3244046645833407,
            "durationTicks": 218,
            "midi": 62,
            "name": "D4",
            "ticks": 142080,
            "time": 211.428508,
            "velocity": 0.6535433070866141
          },
          {
            "duration": 0.17857137499998998,
            "durationTicks": 120,
            "midi": 66,
            "name": "F#4",
            "ticks": 142320,
            "time": 211.78565075,
            "velocity": 0.7086614173228346
          },
          {
            "duration": 0.1785713750000184,
            "durationTicks": 120,
            "midi": 64,
            "name": "E4",
            "ticks": 142440,
            "time": 211.964222125,
            "velocity": 0.6220472440944882
          },
          {
            "duration": 0.33482132812500254,
            "durationTicks": 225,
            "midi": 62,
            "name": "D4",
            "ticks": 142560,
            "time": 212.1427935,
            "velocity": 0.6377952755905512
          },
          {
            "duration": 0.3244046645833123,
            "durationTicks": 218,
            "midi": 67,
            "name": "G4",
            "ticks": 142800,
            "time": 212.49993625000002,
            "velocity": 0.7165354330708661
          },
          {
            "duration": 0.3244046645833407,
            "durationTicks": 218,
            "midi": 66,
            "name": "F#4",
            "ticks": 143040,
            "time": 212.857079,
            "velocity": 0.6692913385826772
          },
          {
            "duration": 0.17857137499998998,
            "durationTicks": 120,
            "midi": 62,
            "name": "D4",
            "ticks": 143280,
            "time": 213.21422175,
            "velocity": 0.6062992125984252
          },
          {
            "duration": 0.1785713750000184,
            "durationTicks": 120,
            "midi": 64,
            "name": "E4",
            "ticks": 143400,
            "time": 213.392793125,
            "velocity": 0.6929133858267716
          },
          {
            "duration": 0.33482132812500254,
            "durationTicks": 225,
            "midi": 66,
            "name": "F#4",
            "ticks": 143520,
            "time": 213.57136450000002,
            "velocity": 0.6614173228346457
          },
          {
            "duration": 0.3244046645833407,
            "durationTicks": 218,
            "midi": 69,
            "name": "A4",
            "ticks": 143760,
            "time": 213.92850725,
            "velocity": 0.6614173228346457
          },
          {
            "duration": 0.3244046645833123,
            "durationTicks": 218,
            "midi": 67,
            "name": "G4",
            "ticks": 144000,
            "time": 214.28565,
            "velocity": 0.6299212598425197
          },
          {
            "duration": 0.17857137499998998,
            "durationTicks": 120,
            "midi": 71,
            "name": "B4",
            "ticks": 144240,
            "time": 214.64279275,
            "velocity": 0.7007874015748031
          },
          {
            "duration": 0.17857137499998998,
            "durationTicks": 120,
            "midi": 69,
            "name": "A4",
            "ticks": 144360,
            "time": 214.821364125,
            "velocity": 0.6377952755905512
          },
          {
            "duration": 0.33482132812500254,
            "durationTicks": 225,
            "midi": 67,
            "name": "G4",
            "ticks": 144480,
            "time": 214.9999355,
            "velocity": 0.6377952755905512
          },
          {
            "duration": 0.3244046645833407,
            "durationTicks": 218,
            "midi": 66,
            "name": "F#4",
            "ticks": 144720,
            "time": 215.35707825,
            "velocity": 0.6377952755905512
          },
          {
            "duration": 0.3244046645833123,
            "durationTicks": 218,
            "midi": 64,
            "name": "E4",
            "ticks": 144960,
            "time": 215.714221,
            "velocity": 0.6456692913385826
          },
          {
            "duration": 0.17857137499998998,
            "durationTicks": 120,
            "midi": 69,
            "name": "A4",
            "ticks": 145200,
            "time": 216.07136375000002,
            "velocity": 0.7007874015748031
          },
          {
            "duration": 0.17857137499998998,
            "durationTicks": 120,
            "midi": 67,
            "name": "G4",
            "ticks": 145320,
            "time": 216.249935125,
            "velocity": 0.6456692913385826
          },
          {
            "duration": 0.33482132812500254,
            "durationTicks": 225,
            "midi": 66,
            "name": "F#4",
            "ticks": 145440,
            "time": 216.4285065,
            "velocity": 0.6614173228346457
          },
          {
            "duration": 0.3244046645833123,
            "durationTicks": 218,
            "midi": 64,
            "name": "E4",
            "ticks": 145680,
            "time": 216.78564925,
            "velocity": 0.6299212598425197
          },
          {
            "duration": 0.3244046645833123,
            "durationTicks": 218,
            "midi": 66,
            "name": "F#4",
            "ticks": 145920,
            "time": 217.14279200000001,
            "velocity": 0.6771653543307087
          },
          {
            "duration": 0.1785713750000184,
            "durationTicks": 120,
            "midi": 74,
            "name": "D5",
            "ticks": 146160,
            "time": 217.49993475,
            "velocity": 0.7007874015748031
          },
          {
            "duration": 0.17857137499998998,
            "durationTicks": 120,
            "midi": 73,
            "name": "C#5",
            "ticks": 146280,
            "time": 217.678506125,
            "velocity": 0.6614173228346457
          },
          {
            "duration": 0.33482132812500254,
            "durationTicks": 225,
            "midi": 74,
            "name": "D5",
            "ticks": 146400,
            "time": 217.8570775,
            "velocity": 0.6614173228346457
          },
          {
            "duration": 0.3244046645833123,
            "durationTicks": 218,
            "midi": 66,
            "name": "F#4",
            "ticks": 146640,
            "time": 218.21422025,
            "velocity": 0.6062992125984252
          },
          {
            "duration": 0.3244046645833123,
            "durationTicks": 218,
            "midi": 69,
            "name": "A4",
            "ticks": 146880,
            "time": 218.57136300000002,
            "velocity": 0.6929133858267716
          },
          {
            "duration": 0.1785713750000184,
            "durationTicks": 120,
            "midi": 69,
            "name": "A4",
            "ticks": 147120,
            "time": 218.92850575,
            "velocity": 0.6692913385826772
          },
          {
            "duration": 0.17857137499998998,
            "durationTicks": 120,
            "midi": 71,
            "name": "B4",
            "ticks": 147240,
            "time": 219.10707712500002,
            "velocity": 0.6771653543307087
          },
          {
            "duration": 0.33482132812500254,
            "durationTicks": 225,
            "midi": 73,
            "name": "C#5",
            "ticks": 147360,
            "time": 219.2856485,
            "velocity": 0.6771653543307087
          },
          {
            "duration": 0.3244046645833123,
            "durationTicks": 218,
            "midi": 69,
            "name": "A4",
            "ticks": 147600,
            "time": 219.64279125000002,
            "velocity": 0.6141732283464567
          },
          {
            "duration": 0.3244046645833407,
            "durationTicks": 218,
            "midi": 66,
            "name": "F#4",
            "ticks": 147840,
            "time": 219.999934,
            "velocity": 0.6377952755905512
          },
          {
            "duration": 0.17857137499998998,
            "durationTicks": 120,
            "midi": 74,
            "name": "D5",
            "ticks": 148080,
            "time": 220.35707675,
            "velocity": 0.7244094488188977
          },
          {
            "duration": 0.1785713750000184,
            "durationTicks": 120,
            "midi": 76,
            "name": "E5",
            "ticks": 148200,
            "time": 220.535648125,
            "velocity": 0.6850393700787402
          },
          {
            "duration": 0.33482132812500254,
            "durationTicks": 225,
            "midi": 78,
            "name": "F#5",
            "ticks": 148320,
            "time": 220.7142195,
            "velocity": 0.6850393700787402
          },
          {
            "duration": 0.3244046645833407,
            "durationTicks": 218,
            "midi": 74,
            "name": "D5",
            "ticks": 148560,
            "time": 221.07136225,
            "velocity": 0.6220472440944882
          },
          {
            "duration": 0.3244046645833407,
            "durationTicks": 218,
            "midi": 78,
            "name": "F#5",
            "ticks": 148800,
            "time": 221.428505,
            "velocity": 0.6850393700787402
          },
          {
            "duration": 0.17857137499998998,
            "durationTicks": 120,
            "midi": 78,
            "name": "F#5",
            "ticks": 149040,
            "time": 221.78564775,
            "velocity": 0.6692913385826772
          },
          {
            "duration": 0.1785713750000184,
            "durationTicks": 120,
            "midi": 76,
            "name": "E5",
            "ticks": 149160,
            "time": 221.964219125,
            "velocity": 0.6456692913385826
          },
          {
            "duration": 0.3348213281249741,
            "durationTicks": 225,
            "midi": 74,
            "name": "D5",
            "ticks": 149280,
            "time": 222.14279050000002,
            "velocity": 0.6692913385826772
          },
          {
            "duration": 0.3244046645833407,
            "durationTicks": 218,
            "midi": 73,
            "name": "C#5",
            "ticks": 149520,
            "time": 222.49993325,
            "velocity": 0.6535433070866141
          },
          {
            "duration": 0.3244046645833123,
            "durationTicks": 218,
            "midi": 71,
            "name": "B4",
            "ticks": 149760,
            "time": 222.857076,
            "velocity": 0.6377952755905512
          },
          {
            "duration": 0.17857137499998998,
            "durationTicks": 120,
            "midi": 71,
            "name": "B4",
            "ticks": 150000,
            "time": 223.21421875000001,
            "velocity": 0.6456692913385826
          },
          {
            "duration": 0.17857137499998998,
            "durationTicks": 120,
            "midi": 69,
            "name": "A4",
            "ticks": 150120,
            "time": 223.392790125,
            "velocity": 0.6535433070866141
          },
          {
            "duration": 0.33482132812500254,
            "durationTicks": 225,
            "midi": 71,
            "name": "B4",
            "ticks": 150240,
            "time": 223.5713615,
            "velocity": 0.6692913385826772
          },
          {
            "duration": 0.3244046645833123,
            "durationTicks": 218,
            "midi": 73,
            "name": "C#5",
            "ticks": 150480,
            "time": 223.92850425,
            "velocity": 0.6850393700787402
          },
          {
            "duration": 0.3244046645833123,
            "durationTicks": 218,
            "midi": 74,
            "name": "D5",
            "ticks": 150720,
            "time": 224.285647,
            "velocity": 0.6929133858267716
          },
          {
            "duration": 0.1785713750000184,
            "durationTicks": 120,
            "midi": 78,
            "name": "F#5",
            "ticks": 150960,
            "time": 224.64278975,
            "velocity": 0.7007874015748031
          },
          {
            "duration": 0.17857137499998998,
            "durationTicks": 120,
            "midi": 76,
            "name": "E5",
            "ticks": 151080,
            "time": 224.821361125,
            "velocity": 0.6535433070866141
          },
          {
            "duration": 0.33482132812500254,
            "durationTicks": 225,
            "midi": 74,
            "name": "D5",
            "ticks": 151200,
            "time": 224.9999325,
            "velocity": 0.6456692913385826
          },
          {
            "duration": 0.3244046645833123,
            "durationTicks": 218,
            "midi": 78,
            "name": "F#5",
            "ticks": 151440,
            "time": 225.35707525,
            "velocity": 0.7086614173228346
          },
          {
            "duration": 0.3244046645833123,
            "durationTicks": 218,
            "midi": 79,
            "name": "G5",
            "ticks": 151680,
            "time": 225.71421800000002,
            "velocity": 0.6850393700787402
          },
          {
            "duration": 0.1785713750000184,
            "durationTicks": 120,
            "midi": 74,
            "name": "D5",
            "ticks": 151920,
            "time": 226.07136075,
            "velocity": 0.6220472440944882
          },
          {
            "duration": 0.17857137499998998,
            "durationTicks": 120,
            "midi": 73,
            "name": "C#5",
            "ticks": 152040,
            "time": 226.24993212500002,
            "velocity": 0.6535433070866141
          },
          {
            "duration": 0.33482132812500254,
            "durationTicks": 225,
            "midi": 71,
            "name": "B4",
            "ticks": 152160,
            "time": 226.4285035,
            "velocity": 0.6299212598425197
          },
          {
            "duration": 0.3244046645833123,
            "durationTicks": 218,
            "midi": 71,
            "name": "B4",
            "ticks": 152400,
            "time": 226.78564625,
            "velocity": 0.6692913385826772
          },
          {
            "duration": 0.3244046645833407,
            "durationTicks": 218,
            "midi": 69,
            "name": "A4",
            "ticks": 152640,
            "time": 227.142789,
            "velocity": 0.6299212598425197
          },
          {
            "duration": 0.3244046645833123,
            "durationTicks": 218,
            "midi": 64,
            "name": "E4",
            "ticks": 152880,
            "time": 227.49993175,
            "velocity": 0.6141732283464567
          },
          {
            "duration": 0.3244046645833123,
            "durationTicks": 218,
            "midi": 69,
            "name": "A4",
            "ticks": 153120,
            "time": 227.8570745,
            "velocity": 0.7086614173228346
          },
          {
            "duration": 0.3244046645833123,
            "durationTicks": 218,
            "midi": 69,
            "name": "A4",
            "ticks": 153360,
            "time": 228.21421725000002,
            "velocity": 0.6850393700787402
          },
          {
            "duration": 1.9315470395833358,
            "durationTicks": 1298,
            "midi": 69,
            "name": "A4",
            "ticks": 153600,
            "time": 228.57136,
            "velocity": 0.6614173228346457
          },
          {
            "duration": 0.6473212343750276,
            "durationTicks": 435,
            "midi": 69,
            "name": "A4",
            "ticks": 155040,
            "time": 230.7142165,
            "velocity": 0.6614173228346457
          },
          {
            "duration": 1.9315470395833074,
            "durationTicks": 1298,
            "midi": 62,
            "name": "D4",
            "ticks": 155520,
            "time": 231.428502,
            "velocity": 0.5984251968503937
          },
          {
            "duration": 0.6473212343749992,
            "durationTicks": 435,
            "midi": 69,
            "name": "A4",
            "ticks": 156960,
            "time": 233.5713585,
            "velocity": 0.7086614173228346
          },
          {
            "duration": 1.2886900895833264,
            "durationTicks": 866,
            "midi": 67,
            "name": "G4",
            "ticks": 157440,
            "time": 234.28564400000002,
            "velocity": 0.6456692913385826
          },
          {
            "duration": 1.2886900895833548,
            "durationTicks": 866,
            "midi": 69,
            "name": "A4",
            "ticks": 158400,
            "time": 235.714215,
            "velocity": 0.6614173228346457
          },
          {
            "duration": 0.6473212343749992,
            "durationTicks": 435,
            "midi": 67,
            "name": "G4",
            "ticks": 159360,
            "time": 237.142786,
            "velocity": 0.6377952755905512
          },
          {
            "duration": 0.6473212343749992,
            "durationTicks": 435,
            "midi": 62,
            "name": "D4",
            "ticks": 159840,
            "time": 237.85707150000002,
            "velocity": 0.6299212598425197
          },
          {
            "duration": 0.9657735197916679,
            "durationTicks": 649,
            "midi": 62,
            "name": "D4",
            "ticks": 160320,
            "time": 238.571357,
            "velocity": 0.6614173228346457
          },
          {
            "duration": 0.3244046645833123,
            "durationTicks": 218,
            "midi": 61,
            "name": "C#4",
            "ticks": 161040,
            "time": 239.64278525,
            "velocity": 0.6299212598425197
          },
          {
            "duration": 0.6473212343749992,
            "durationTicks": 435,
            "midi": 62,
            "name": "D4",
            "ticks": 161280,
            "time": 239.999928,
            "velocity": 0.6771653543307087
          },
          {
            "duration": 0.6473212343749992,
            "durationTicks": 435,
            "midi": 74,
            "name": "D5",
            "ticks": 161760,
            "time": 240.7142135,
            "velocity": 0.8740157480314961
          },
          {
            "duration": 1.2886900895833264,
            "durationTicks": 866,
            "midi": 73,
            "name": "C#5",
            "ticks": 162240,
            "time": 241.42849900000002,
            "velocity": 0.7637795275590551
          },
          {
            "duration": 1.2886900895833548,
            "durationTicks": 866,
            "midi": 71,
            "name": "B4",
            "ticks": 163200,
            "time": 242.85707,
            "velocity": 0.7165354330708661
          },
          {
            "duration": 1.2886900895833548,
            "durationTicks": 866,
            "midi": 69,
            "name": "A4",
            "ticks": 164160,
            "time": 244.285641,
            "velocity": 0.6929133858267716
          },
          {
            "duration": 0.9657735197916679,
            "durationTicks": 649,
            "midi": 62,
            "name": "D4",
            "ticks": 165120,
            "time": 245.714212,
            "velocity": 0.6141732283464567
          },
          {
            "duration": 0.3244046645833407,
            "durationTicks": 218,
            "midi": 64,
            "name": "E4",
            "ticks": 165840,
            "time": 246.78564025,
            "velocity": 0.6771653543307087
          },
          {
            "duration": 1.2886900895833264,
            "durationTicks": 866,
            "midi": 66,
            "name": "F#4",
            "ticks": 166080,
            "time": 247.142783,
            "velocity": 0.6771653543307087
          },
          {
            "duration": 1.2886900895833264,
            "durationTicks": 866,
            "midi": 74,
            "name": "D5",
            "ticks": 167040,
            "time": 248.571354,
            "velocity": 0.7165354330708661
          },
          {
            "duration": 0.9657735197916395,
            "durationTicks": 649,
            "midi": 64,
            "name": "E4",
            "ticks": 168000,
            "time": 249.99992500000002,
            "velocity": 0.5826771653543307
          },
          {
            "duration": 0.3244046645833123,
            "durationTicks": 218,
            "midi": 64,
            "name": "E4",
            "ticks": 168720,
            "time": 251.07135325000002,
            "velocity": 0.6614173228346457
          },
          {
            "duration": 0.9657735197916679,
            "durationTicks": 649,
            "midi": 66,
            "name": "F#4",
            "ticks": 168960,
            "time": 251.428496,
            "velocity": 0.6929133858267716
          },
          {
            "duration": 0.3244046645833407,
            "durationTicks": 218,
            "midi": 78,
            "name": "F#5",
            "ticks": 169680,
            "time": 252.49992425,
            "velocity": 0.6299212598425197
          },
          {
            "duration": 0.3630951291666804,
            "durationTicks": 244,
            "midi": 78,
            "name": "F#5",
            "ticks": 169920,
            "time": 252.857067,
            "velocity": 0.5748031496062992
          },
          {
            "duration": 0.363095129166652,
            "durationTicks": 244,
            "midi": 79,
            "name": "G5",
            "ticks": 170160,
            "time": 253.21420975,
            "velocity": 0.5748031496062992
          },
          {
            "duration": 0.363095129166652,
            "durationTicks": 244,
            "midi": 78,
            "name": "F#5",
            "ticks": 170400,
            "time": 253.57135250000002,
            "velocity": 0.5433070866141733
          },
          {
            "duration": 0.33482132812500254,
            "durationTicks": 225,
            "midi": 76,
            "name": "E5",
            "ticks": 170640,
            "time": 253.92849525,
            "velocity": 0.5118110236220472
          },
          {
            "duration": 0.9657735197916679,
            "durationTicks": 649,
            "midi": 74,
            "name": "D5",
            "ticks": 170880,
            "time": 254.285638,
            "velocity": 0.5433070866141733
          },
          {
            "duration": 0.3244046645833123,
            "durationTicks": 218,
            "midi": 74,
            "name": "D5",
            "ticks": 171600,
            "time": 255.35706625,
            "velocity": 0.5354330708661418
          },
          {
            "duration": 0.3630951291666804,
            "durationTicks": 244,
            "midi": 74,
            "name": "D5",
            "ticks": 171840,
            "time": 255.714209,
            "velocity": 0.5748031496062992
          },
          {
            "duration": 0.363095129166652,
            "durationTicks": 244,
            "midi": 76,
            "name": "E5",
            "ticks": 172080,
            "time": 256.07135175,
            "velocity": 0.5826771653543307
          },
          {
            "duration": 0.363095129166652,
            "durationTicks": 244,
            "midi": 74,
            "name": "D5",
            "ticks": 172320,
            "time": 256.4284945,
            "velocity": 0.5118110236220472
          },
          {
            "duration": 0.33482132812503096,
            "durationTicks": 225,
            "midi": 73,
            "name": "C#5",
            "ticks": 172560,
            "time": 256.78563725,
            "velocity": 0.5118110236220472
          },
          {
            "duration": 1.2886900895833264,
            "durationTicks": 866,
            "midi": 71,
            "name": "B4",
            "ticks": 172800,
            "time": 257.14278,
            "velocity": 0.5433070866141733
          },
          {
            "duration": 1.2886900895833264,
            "durationTicks": 866,
            "midi": 74,
            "name": "D5",
            "ticks": 173760,
            "time": 258.571351,
            "velocity": 0.5826771653543307
          },
          {
            "duration": 0.363095129166652,
            "durationTicks": 244,
            "midi": 74,
            "name": "D5",
            "ticks": 174720,
            "time": 259.999922,
            "velocity": 0.5590551181102362
          },
          {
            "duration": 0.363095129166652,
            "durationTicks": 244,
            "midi": 72,
            "name": "C5",
            "ticks": 174960,
            "time": 260.35706475,
            "velocity": 0.5354330708661418
          },
          {
            "duration": 0.36309512916670883,
            "durationTicks": 244,
            "midi": 71,
            "name": "B4",
            "ticks": 175200,
            "time": 260.7142075,
            "velocity": 0.5511811023622047
          },
          {
            "duration": 0.3348213281249741,
            "durationTicks": 225,
            "midi": 72,
            "name": "C5",
            "ticks": 175440,
            "time": 261.07135025,
            "velocity": 0.5590551181102362
          },
          {
            "duration": 0.9657735197916395,
            "durationTicks": 649,
            "midi": 69,
            "name": "A4",
            "ticks": 175680,
            "time": 261.428493,
            "velocity": 0.5196850393700787
          },
          {
            "duration": 0.3244046645833123,
            "durationTicks": 218,
            "midi": 69,
            "name": "A4",
            "ticks": 176400,
            "time": 262.49992125,
            "velocity": 0.5669291338582677
          },
          {
            "duration": 0.9657735197916963,
            "durationTicks": 649,
            "midi": 69,
            "name": "A4",
            "ticks": 176640,
            "time": 262.857064,
            "velocity": 0.5511811023622047
          },
          {
            "duration": 0.3244046645833123,
            "durationTicks": 218,
            "midi": 81,
            "name": "A5",
            "ticks": 177360,
            "time": 263.92849225000003,
            "velocity": 0.6377952755905512
          },
          {
            "duration": 0.363095129166652,
            "durationTicks": 244,
            "midi": 81,
            "name": "A5",
            "ticks": 177600,
            "time": 264.285635,
            "velocity": 0.5826771653543307
          },
          {
            "duration": 0.363095129166652,
            "durationTicks": 244,
            "midi": 83,
            "name": "B5",
            "ticks": 177840,
            "time": 264.64277775,
            "velocity": 0.5826771653543307
          },
          {
            "duration": 0.363095129166652,
            "durationTicks": 244,
            "midi": 81,
            "name": "A5",
            "ticks": 178080,
            "time": 264.99992050000003,
            "velocity": 0.5511811023622047
          },
          {
            "duration": 0.3348213281249741,
            "durationTicks": 225,
            "midi": 79,
            "name": "G5",
            "ticks": 178320,
            "time": 265.35706325,
            "velocity": 0.5354330708661418
          },
          {
            "duration": 0.9657735197916963,
            "durationTicks": 649,
            "midi": 78,
            "name": "F#5",
            "ticks": 178560,
            "time": 265.714206,
            "velocity": 0.5433070866141733
          },
          {
            "duration": 0.32440466458336914,
            "durationTicks": 218,
            "midi": 78,
            "name": "F#5",
            "ticks": 179280,
            "time": 266.78563425,
            "velocity": 0.5669291338582677
          },
          {
            "duration": 0.363095129166652,
            "durationTicks": 244,
            "midi": 78,
            "name": "F#5",
            "ticks": 179520,
            "time": 267.142777,
            "velocity": 0.5511811023622047
          },
          {
            "duration": 0.363095129166652,
            "durationTicks": 244,
            "midi": 79,
            "name": "G5",
            "ticks": 179760,
            "time": 267.49991975,
            "velocity": 0.5826771653543307
          },
          {
            "duration": 0.36309512916670883,
            "durationTicks": 244,
            "midi": 78,
            "name": "F#5",
            "ticks": 180000,
            "time": 267.8570625,
            "velocity": 0.5275590551181102
          },
          {
            "duration": 0.3348213281249741,
            "durationTicks": 225,
            "midi": 76,
            "name": "E5",
            "ticks": 180240,
            "time": 268.21420525,
            "velocity": 0.5039370078740157
          },
          {
            "duration": 0.363095129166652,
            "durationTicks": 244,
            "midi": 74,
            "name": "D5",
            "ticks": 180480,
            "time": 268.571348,
            "velocity": 0.5511811023622047
          },
          {
            "duration": 0.36309512916670883,
            "durationTicks": 244,
            "midi": 72,
            "name": "C5",
            "ticks": 180720,
            "time": 268.92849075,
            "velocity": 0.5433070866141733
          },
          {
            "duration": 0.363095129166652,
            "durationTicks": 244,
            "midi": 71,
            "name": "B4",
            "ticks": 180960,
            "time": 269.2856335,
            "velocity": 0.5511811023622047
          },
          {
            "duration": 0.33482132812503096,
            "durationTicks": 225,
            "midi": 72,
            "name": "C5",
            "ticks": 181200,
            "time": 269.64277625,
            "velocity": 0.5826771653543307
          },
          {
            "duration": 0.9657735197916395,
            "durationTicks": 649,
            "midi": 69,
            "name": "A4",
            "ticks": 181440,
            "time": 269.99991900000003,
            "velocity": 0.5354330708661418
          },
          {
            "duration": 0.3244046645833123,
            "durationTicks": 218,
            "midi": 69,
            "name": "A4",
            "ticks": 182160,
            "time": 271.07134725000003,
            "velocity": 0.5669291338582677
          },
          {
            "duration": 0.6473212343749992,
            "durationTicks": 435,
            "midi": 67,
            "name": "G4",
            "ticks": 182400,
            "time": 271.42849,
            "velocity": 0.5433070866141733
          },
          {
            "duration": 0.6473212343749992,
            "durationTicks": 435,
            "midi": 74,
            "name": "D5",
            "ticks": 182880,
            "time": 272.1427755,
            "velocity": 0.6062992125984252
          },
          {
            "duration": 0.9657735197916963,
            "durationTicks": 649,
            "midi": 73,
            "name": "C#5",
            "ticks": 183360,
            "time": 272.857061,
            "velocity": 0.5511811023622047
          },
          {
            "duration": 0.32440466458336914,
            "durationTicks": 218,
            "midi": 73,
            "name": "C#5",
            "ticks": 184080,
            "time": 273.92848925,
            "velocity": 0.5590551181102362
          },
          {
            "duration": 0.6473212343749992,
            "durationTicks": 435,
            "midi": 74,
            "name": "D5",
            "ticks": 184320,
            "time": 274.285632,
            "velocity": 0.5826771653543307
          },
          {
            "duration": 1.2886900895833833,
            "durationTicks": 866,
            "midi": 74,
            "name": "D5",
            "ticks": 184800,
            "time": 274.9999175,
            "velocity": 0.6614173228346457
          },
          {
            "duration": 1.2886900895833264,
            "durationTicks": 866,
            "midi": 73,
            "name": "C#5",
            "ticks": 185760,
            "time": 276.4284885,
            "velocity": 0.6456692913385826
          },
          {
            "duration": 1.2886900895833264,
            "durationTicks": 866,
            "midi": 71,
            "name": "B4",
            "ticks": 186720,
            "time": 277.8570595,
            "velocity": 0.6456692913385826
          },
          {
            "duration": 1.3616067343749592,
            "durationTicks": 915,
            "midi": 69,
            "name": "A4",
            "ticks": 187680,
            "time": 279.2856305,
            "velocity": 0.6535433070866141
          },
          {
            "duration": 1.2886900895833264,
            "durationTicks": 866,
            "midi": 67,
            "name": "G4",
            "ticks": 188640,
            "time": 280.7142015,
            "velocity": 0.6299212598425197
          },
          {
            "duration": 0.6473212343749992,
            "durationTicks": 435,
            "midi": 66,
            "name": "F#4",
            "ticks": 189600,
            "time": 282.14277250000004,
            "velocity": 0.6299212598425197
          },
          {
            "duration": 0.9657735197916963,
            "durationTicks": 649,
            "midi": 66,
            "name": "F#4",
            "ticks": 190080,
            "time": 282.857058,
            "velocity": 0.6614173228346457
          },
          {
            "duration": 0.3244046645833123,
            "durationTicks": 218,
            "midi": 64,
            "name": "E4",
            "ticks": 190800,
            "time": 283.92848625,
            "velocity": 0.6377952755905512
          },
          {
            "duration": 1.2886900895833264,
            "durationTicks": 866,
            "midi": 64,
            "name": "E4",
            "ticks": 191040,
            "time": 284.28562900000003,
            "velocity": 0.6614173228346457
          },
          {
            "duration": 0.6473212343749992,
            "durationTicks": 435,
            "midi": 66,
            "name": "F#4",
            "ticks": 192000,
            "time": 285.7142,
            "velocity": 0.6929133858267716
          },
          {
            "duration": 1.2886900895833264,
            "durationTicks": 866,
            "midi": 78,
            "name": "F#5",
            "ticks": 192480,
            "time": 286.4284855,
            "velocity": 0.7322834645669292
          },
          {
            "duration": 0.6473212343749992,
            "durationTicks": 435,
            "midi": 76,
            "name": "E5",
            "ticks": 193440,
            "time": 287.8570565,
            "velocity": 0.6456692913385826
          },
          {
            "duration": 0.6473212343749992,
            "durationTicks": 435,
            "midi": 74,
            "name": "D5",
            "ticks": 193920,
            "time": 288.571342,
            "velocity": 0.6377952755905512
          },
          {
            "duration": 1.2886900895833264,
            "durationTicks": 866,
            "midi": 86,
            "name": "D6",
            "ticks": 194400,
            "time": 289.28562750000003,
            "velocity": 0.7637795275590551
          },
          {
            "duration": 0.6473212343749992,
            "durationTicks": 435,
            "midi": 84,
            "name": "C6",
            "ticks": 195360,
            "time": 290.7141985,
            "velocity": 0.6535433070866141
          },
          {
            "duration": 1.2886900895833264,
            "durationTicks": 866,
            "midi": 83,
            "name": "B5",
            "ticks": 195840,
            "time": 291.428484,
            "velocity": 0.6456692913385826
          },
          {
            "duration": 0.6473212343749992,
            "durationTicks": 435,
            "midi": 86,
            "name": "D6",
            "ticks": 196800,
            "time": 292.857055,
            "velocity": 0.6929133858267716
          },
          {
            "duration": 0.6473212343749992,
            "durationTicks": 435,
            "midi": 83,
            "name": "B5",
            "ticks": 197280,
            "time": 293.5713405,
            "velocity": 0.6535433070866141
          },
          {
            "duration": 1.2886900895833833,
            "durationTicks": 866,
            "midi": 83,
            "name": "B5",
            "ticks": 197760,
            "time": 294.285626,
            "velocity": 0.7165354330708661
          },
          {
            "duration": 1.2886900895833264,
            "durationTicks": 866,
            "midi": 81,
            "name": "A5",
            "ticks": 198720,
            "time": 295.714197,
            "velocity": 0.7244094488188977
          },
          {
            "duration": 1.2886900895833833,
            "durationTicks": 866,
            "midi": 81,
            "name": "A5",
            "ticks": 199680,
            "time": 297.142768,
            "velocity": 0.7637795275590551
          },
          {
            "duration": 1.0877972927083306,
            "durationTicks": 731,
            "midi": 69,
            "name": "A4",
            "ticks": 200640,
            "time": 298.571339,
            "velocity": 0.6456692913385826
          },
          {
            "duration": 0.363095129166652,
            "durationTicks": 244,
            "midi": 67,
            "name": "G4",
            "ticks": 201360,
            "time": 299.64276725,
            "velocity": 0.6220472440944882
          },
          {
            "duration": 1.355654355208344,
            "durationTicks": 911,
            "midi": 66,
            "name": "F#4",
            "ticks": 201600,
            "time": 299.99991,
            "velocity": 0.7401574803149606
          },
          {
            "duration": 1.0877972927083306,
            "durationTicks": 731,
            "midi": 78,
            "name": "F#5",
            "ticks": 202560,
            "time": 301.42848100000003,
            "velocity": 0.8740157480314961
          },
          {
            "duration": 0.363095129166652,
            "durationTicks": 244,
            "midi": 76,
            "name": "E5",
            "ticks": 203280,
            "time": 302.49990925000003,
            "velocity": 0.8661417322834646
          },
          {
            "duration": 2.031249390625021,
            "durationTicks": 1365,
            "midi": 74,
            "name": "D5",
            "ticks": 203520,
            "time": 302.857052,
            "velocity": 0.7559055118110236
          },
          {
            "duration": 0.6473212343749992,
            "durationTicks": 435,
            "midi": 74,
            "name": "D5",
            "ticks": 204960,
            "time": 304.9999085,
            "velocity": 0.7637795275590551
          },
          {
            "duration": 1.3201213791666646,
            "durationTicks": 866,
            "midi": 74,
            "name": "D5",
            "ticks": 205440,
            "time": 305.714194,
            "velocity": 0.7637795275590551
          },
          {
            "duration": 1.3201213791666646,
            "durationTicks": 866,
            "midi": 73,
            "name": "C#5",
            "ticks": 206400,
            "time": 307.177608,
            "velocity": 0.7480314960629921
          },
          {
            "duration": 0.6796875,
            "durationTicks": 435,
            "midi": 74,
            "name": "D5",
            "ticks": 207360,
            "time": 308.641022,
            "velocity": 0.7637795275590551
          },
          {
            "duration": 0.6796875,
            "durationTicks": 435,
            "midi": 62,
            "name": "D4",
            "ticks": 207840,
            "time": 309.391022,
            "velocity": 0.6614173228346457
          },
          {
            "duration": 0.6796875,
            "durationTicks": 435,
            "midi": 61,
            "name": "C#4",
            "ticks": 208320,
            "time": 310.141022,
            "velocity": 0.7322834645669292
          },
          {
            "duration": 0.6796875,
            "durationTicks": 435,
            "midi": 73,
            "name": "C#5",
            "ticks": 208800,
            "time": 310.891022,
            "velocity": 0.8740157480314961
          },
          {
            "duration": 0.6971146875000045,
            "durationTicks": 435,
            "midi": 71,
            "name": "B4",
            "ticks": 209280,
            "time": 311.641022,
            "velocity": 0.7795275590551181
          },
          {
            "duration": 0.6971146875000045,
            "durationTicks": 435,
            "midi": 59,
            "name": "B3",
            "ticks": 209760,
            "time": 312.410252,
            "velocity": 0.7086614173228346
          },
          {
            "duration": 0.6971146875000045,
            "durationTicks": 435,
            "midi": 57,
            "name": "A3",
            "ticks": 210240,
            "time": 313.179482,
            "velocity": 0.7559055118110236
          },
          {
            "duration": 0.7154603593750153,
            "durationTicks": 435,
            "midi": 69,
            "name": "A4",
            "ticks": 210720,
            "time": 313.948712,
            "velocity": 0.8818897637795275
          },
          {
            "duration": 0.7154603593750153,
            "durationTicks": 435,
            "midi": 67,
            "name": "G4",
            "ticks": 211200,
            "time": 314.7381855,
            "velocity": 0.7637795275590551
          },
          {
            "duration": 0.7347970156250199,
            "durationTicks": 435,
            "midi": 79,
            "name": "G5",
            "ticks": 211680,
            "time": 315.527659,
            "velocity": 0.8661417322834646
          },
          {
            "duration": 0.7347970156250199,
            "durationTicks": 435,
            "midi": 78,
            "name": "F#5",
            "ticks": 212160,
            "time": 316.33846950000003,
            "velocity": 0.7716535433070866
          },
          {
            "duration": 0.7552080312499925,
            "durationTicks": 435,
            "midi": 66,
            "name": "F#4",
            "ticks": 212640,
            "time": 317.14928000000003,
            "velocity": 0.6929133858267716
          },
          {
            "duration": 0.7552080312499925,
            "durationTicks": 435,
            "midi": 64,
            "name": "E4",
            "ticks": 213120,
            "time": 317.982613,
            "velocity": 0.7795275590551181
          },
          {
            "duration": 0.7767853906249798,
            "durationTicks": 435,
            "midi": 71,
            "name": "B4",
            "ticks": 213600,
            "time": 318.81594600000005,
            "velocity": 0.889763779527559
          },
          {
            "duration": 0.7996319531250151,
            "durationTicks": 435,
            "midi": 64,
            "name": "E4",
            "ticks": 214080,
            "time": 319.67308850000006,
            "velocity": 0.8031496062992126
          },
          {
            "duration": 0.849609375,
            "durationTicks": 435,
            "midi": 76,
            "name": "E5",
            "ticks": 214560,
            "time": 320.5554410000001,
            "velocity": 1
          },
          {
            "duration": 3.0069441437499904,
            "durationTicks": 866,
            "midi": 78,
            "name": "F#5",
            "ticks": 215040,
            "time": 321.4929410000001,
            "velocity": 0.9212598425196851
          }
        ],
        "endOfTrackTicks": 215907
      },
      {
        "channel": 4,
        "controlChanges": {
          "7": [
            {
              "number": 7,
              "ticks": 0,
              "time": 0,
              "value": 0.8582677165354331
            }
          ],
          "10": [
            {
              "number": 10,
              "ticks": 0,
              "time": 0,
              "value": 0.12598425196850394
            }
          ],
          "64": [
            {
              "number": 64,
              "ticks": 0,
              "time": 0,
              "value": 0
            }
          ],
          "121": [
            {
              "number": 121,
              "ticks": 0,
              "time": 0,
              "value": 0
            }
          ]
        },
        "pitchBends": [],
        "instrument": {
          "family": "strings",
          "number": 40,
          "name": "violin"
        },
        "name": "Violin 3",
        "notes": [
          {
            "duration": 1.4568448010416617,
            "durationTicks": 979,
            "midi": 78,
            "name": "F#5",
            "ticks": 23040,
            "time": 34.285704,
            "velocity": 0.4330708661417323
          },
          {
            "duration": 1.4568448010416688,
            "durationTicks": 979,
            "midi": 76,
            "name": "E5",
            "ticks": 24000,
            "time": 35.714275,
            "velocity": 0.3937007874015748
          },
          {
            "duration": 1.4568448010416688,
            "durationTicks": 979,
            "midi": 74,
            "name": "D5",
            "ticks": 24960,
            "time": 37.142846,
            "velocity": 0.4566929133858268
          },
          {
            "duration": 1.4568448010416617,
            "durationTicks": 979,
            "midi": 73,
            "name": "C#5",
            "ticks": 25920,
            "time": 38.571417000000004,
            "velocity": 0.4566929133858268
          },
          {
            "duration": 1.4568448010416688,
            "durationTicks": 979,
            "midi": 71,
            "name": "B4",
            "ticks": 26880,
            "time": 39.999988,
            "velocity": 0.4645669291338583
          },
          {
            "duration": 1.4568448010416688,
            "durationTicks": 979,
            "midi": 69,
            "name": "A4",
            "ticks": 27840,
            "time": 41.428559,
            "velocity": 0.44881889763779526
          },
          {
            "duration": 1.4568448010416688,
            "durationTicks": 979,
            "midi": 71,
            "name": "B4",
            "ticks": 28800,
            "time": 42.85713,
            "velocity": 0.5039370078740157
          },
          {
            "duration": 1.3556543552083298,
            "durationTicks": 911,
            "midi": 73,
            "name": "C#5",
            "ticks": 29760,
            "time": 44.285701,
            "velocity": 0.5196850393700787
          },
          {
            "duration": 1.2886900895833264,
            "durationTicks": 866,
            "midi": 74,
            "name": "D5",
            "ticks": 30720,
            "time": 45.714272,
            "velocity": 0.5039370078740157
          },
          {
            "duration": 1.2886900895833335,
            "durationTicks": 866,
            "midi": 73,
            "name": "C#5",
            "ticks": 31680,
            "time": 47.142843,
            "velocity": 0.47244094488188976
          },
          {
            "duration": 1.2886900895833264,
            "durationTicks": 866,
            "midi": 71,
            "name": "B4",
            "ticks": 32640,
            "time": 48.571414000000004,
            "velocity": 0.4645669291338583
          },
          {
            "duration": 1.2886900895833264,
            "durationTicks": 866,
            "midi": 69,
            "name": "A4",
            "ticks": 33600,
            "time": 49.999985,
            "velocity": 0.48031496062992124
          },
          {
            "duration": 1.2886900895833264,
            "durationTicks": 866,
            "midi": 67,
            "name": "G4",
            "ticks": 34560,
            "time": 51.428556,
            "velocity": 0.4645669291338583
          },
          {
            "duration": 1.2886900895833335,
            "durationTicks": 866,
            "midi": 66,
            "name": "F#4",
            "ticks": 35520,
            "time": 52.857127,
            "velocity": 0.41732283464566927
          },
          {
            "duration": 1.2886900895833264,
            "durationTicks": 866,
            "midi": 67,
            "name": "G4",
            "ticks": 36480,
            "time": 54.285698000000004,
            "velocity": 0.36220472440944884
          },
          {
            "duration": 1.2886900895833264,
            "durationTicks": 866,
            "midi": 64,
            "name": "E4",
            "ticks": 37440,
            "time": 55.714269,
            "velocity": 0.29133858267716534
          },
          {
            "duration": 0.7261902583333324,
            "durationTicks": 488,
            "midi": 62,
            "name": "D4",
            "ticks": 38400,
            "time": 57.14284,
            "velocity": 0.30708661417322836
          },
          {
            "duration": 0.67559503541667,
            "durationTicks": 454,
            "midi": 66,
            "name": "F#4",
            "ticks": 38880,
            "time": 57.8571255,
            "velocity": 0.33858267716535434
          },
          {
            "duration": 0.7261902583333324,
            "durationTicks": 488,
            "midi": 69,
            "name": "A4",
            "ticks": 39360,
            "time": 58.571411000000005,
            "velocity": 0.31496062992125984
          },
          {
            "duration": 0.67559503541667,
            "durationTicks": 454,
            "midi": 67,
            "name": "G4",
            "ticks": 39840,
            "time": 59.2856965,
            "velocity": 0.30708661417322836
          },
          {
            "duration": 0.7261902583333324,
            "durationTicks": 488,
            "midi": 66,
            "name": "F#4",
            "ticks": 40320,
            "time": 59.999982,
            "velocity": 0.3228346456692913
          },
          {
            "duration": 0.6755950354166771,
            "durationTicks": 454,
            "midi": 62,
            "name": "D4",
            "ticks": 40800,
            "time": 60.7142675,
            "velocity": 0.2992125984251969
          },
          {
            "duration": 0.7261902583333324,
            "durationTicks": 488,
            "midi": 66,
            "name": "F#4",
            "ticks": 41280,
            "time": 61.428553,
            "velocity": 0.3228346456692913
          },
          {
            "duration": 0.67559503541667,
            "durationTicks": 454,
            "midi": 64,
            "name": "E4",
            "ticks": 41760,
            "time": 62.1428385,
            "velocity": 0.3228346456692913
          },
          {
            "duration": 0.7261902583333324,
            "durationTicks": 488,
            "midi": 62,
            "name": "D4",
            "ticks": 42240,
            "time": 62.857124,
            "velocity": 0.2992125984251969
          },
          {
            "duration": 0.6755950354166771,
            "durationTicks": 454,
            "midi": 59,
            "name": "B3",
            "ticks": 42720,
            "time": 63.5714095,
            "velocity": 0.2992125984251969
          },
          {
            "duration": 0.7261902583333324,
            "durationTicks": 488,
            "midi": 62,
            "name": "D4",
            "ticks": 43200,
            "time": 64.285695,
            "velocity": 0.31496062992125984
          },
          {
            "duration": 0.6755950354166629,
            "durationTicks": 454,
            "midi": 69,
            "name": "A4",
            "ticks": 43680,
            "time": 64.9999805,
            "velocity": 0.33858267716535434
          },
          {
            "duration": 0.7261902583333324,
            "durationTicks": 488,
            "midi": 67,
            "name": "G4",
            "ticks": 44160,
            "time": 65.714266,
            "velocity": 0.31496062992125984
          },
          {
            "duration": 0.6755950354166771,
            "durationTicks": 454,
            "midi": 71,
            "name": "B4",
            "ticks": 44640,
            "time": 66.4285515,
            "velocity": 0.33070866141732286
          },
          {
            "duration": 0.7261902583333324,
            "durationTicks": 488,
            "midi": 69,
            "name": "A4",
            "ticks": 45120,
            "time": 67.142837,
            "velocity": 0.2992125984251969
          },
          {
            "duration": 0.6755950354166771,
            "durationTicks": 454,
            "midi": 67,
            "name": "G4",
            "ticks": 45600,
            "time": 67.8571225,
            "velocity": 0.30708661417322836
          },
          {
            "duration": 0.7261902583333324,
            "durationTicks": 488,
            "midi": 66,
            "name": "F#4",
            "ticks": 46080,
            "time": 68.571408,
            "velocity": 0.30708661417322836
          },
          {
            "duration": 0.6755950354166629,
            "durationTicks": 454,
            "midi": 62,
            "name": "D4",
            "ticks": 46560,
            "time": 69.28569350000001,
            "velocity": 0.29133858267716534
          },
          {
            "duration": 0.7261902583333324,
            "durationTicks": 488,
            "midi": 64,
            "name": "E4",
            "ticks": 47040,
            "time": 69.999979,
            "velocity": 0.33070866141732286
          },
          {
            "duration": 0.6755950354166771,
            "durationTicks": 454,
            "midi": 73,
            "name": "C#5",
            "ticks": 47520,
            "time": 70.7142645,
            "velocity": 0.3543307086614173
          },
          {
            "duration": 0.7261902583333324,
            "durationTicks": 488,
            "midi": 74,
            "name": "D5",
            "ticks": 48000,
            "time": 71.42855,
            "velocity": 0.3228346456692913
          },
          {
            "duration": 0.6755950354166629,
            "durationTicks": 454,
            "midi": 78,
            "name": "F#5",
            "ticks": 48480,
            "time": 72.1428355,
            "velocity": 0.3700787401574803
          },
          {
            "duration": 0.7261902583333324,
            "durationTicks": 488,
            "midi": 81,
            "name": "A5",
            "ticks": 48960,
            "time": 72.857121,
            "velocity": 0.4015748031496063
          },
          {
            "duration": 0.6755950354166771,
            "durationTicks": 454,
            "midi": 69,
            "name": "A4",
            "ticks": 49440,
            "time": 73.5714065,
            "velocity": 0.36220472440944884
          },
          {
            "duration": 0.7261902583333324,
            "durationTicks": 488,
            "midi": 71,
            "name": "B4",
            "ticks": 49920,
            "time": 74.285692,
            "velocity": 0.4566929133858268
          },
          {
            "duration": 0.6755950354166771,
            "durationTicks": 454,
            "midi": 67,
            "name": "G4",
            "ticks": 50400,
            "time": 74.9999775,
            "velocity": 0.47244094488188976
          },
          {
            "duration": 0.7261902583333324,
            "durationTicks": 488,
            "midi": 69,
            "name": "A4",
            "ticks": 50880,
            "time": 75.714263,
            "velocity": 0.5196850393700787
          },
          {
            "duration": 0.6755950354166629,
            "durationTicks": 454,
            "midi": 66,
            "name": "F#4",
            "ticks": 51360,
            "time": 76.4285485,
            "velocity": 0.5196850393700787
          },
          {
            "duration": 0.7261902583333324,
            "durationTicks": 488,
            "midi": 62,
            "name": "D4",
            "ticks": 51840,
            "time": 77.14283400000001,
            "velocity": 0.5590551181102362
          },
          {
            "duration": 0.6755950354166771,
            "durationTicks": 454,
            "midi": 74,
            "name": "D5",
            "ticks": 52320,
            "time": 77.8571195,
            "velocity": 0.7086614173228346
          },
          {
            "duration": 0.9657735197916679,
            "durationTicks": 649,
            "midi": 74,
            "name": "D5",
            "ticks": 52800,
            "time": 78.571405,
            "velocity": 0.6692913385826772
          },
          {
            "duration": 0.3244046645833407,
            "durationTicks": 218,
            "midi": 73,
            "name": "C#5",
            "ticks": 53520,
            "time": 79.64283325,
            "velocity": 0.6456692913385826
          },
          {
            "duration": 0.3244046645833265,
            "durationTicks": 218,
            "midi": 74,
            "name": "D5",
            "ticks": 53760,
            "time": 79.999976,
            "velocity": 0.6692913385826772
          },
          {
            "duration": 0.3244046645833407,
            "durationTicks": 218,
            "midi": 73,
            "name": "C#5",
            "ticks": 54000,
            "time": 80.35711875,
            "velocity": 0.6377952755905512
          },
          {
            "duration": 0.3244046645833265,
            "durationTicks": 218,
            "midi": 74,
            "name": "D5",
            "ticks": 54240,
            "time": 80.7142615,
            "velocity": 0.6850393700787402
          },
          {
            "duration": 0.3244046645833407,
            "durationTicks": 218,
            "midi": 62,
            "name": "D4",
            "ticks": 54480,
            "time": 81.07140425,
            "velocity": 0.5669291338582677
          },
          {
            "duration": 0.3244046645833265,
            "durationTicks": 218,
            "midi": 61,
            "name": "C#4",
            "ticks": 54720,
            "time": 81.42854700000001,
            "velocity": 0.6377952755905512
          },
          {
            "duration": 0.3244046645833265,
            "durationTicks": 218,
            "midi": 69,
            "name": "A4",
            "ticks": 54960,
            "time": 81.78568975,
            "velocity": 0.7322834645669292
          },
          {
            "duration": 0.3244046645833407,
            "durationTicks": 218,
            "midi": 64,
            "name": "E4",
            "ticks": 55200,
            "time": 82.1428325,
            "velocity": 0.6299212598425197
          },
          {
            "duration": 0.3244046645833265,
            "durationTicks": 218,
            "midi": 66,
            "name": "F#4",
            "ticks": 55440,
            "time": 82.49997525,
            "velocity": 0.7165354330708661
          },
          {
            "duration": 0.3244046645833407,
            "durationTicks": 218,
            "midi": 62,
            "name": "D4",
            "ticks": 55680,
            "time": 82.857118,
            "velocity": 0.6614173228346457
          },
          {
            "duration": 0.3244046645833265,
            "durationTicks": 218,
            "midi": 74,
            "name": "D5",
            "ticks": 55920,
            "time": 83.21426075000001,
            "velocity": 0.7795275590551181
          },
          {
            "duration": 0.3244046645833265,
            "durationTicks": 218,
            "midi": 73,
            "name": "C#5",
            "ticks": 56160,
            "time": 83.5714035,
            "velocity": 0.7165354330708661
          },
          {
            "duration": 0.3244046645833407,
            "durationTicks": 218,
            "midi": 71,
            "name": "B4",
            "ticks": 56400,
            "time": 83.92854625,
            "velocity": 0.7007874015748031
          },
          {
            "duration": 0.3244046645833265,
            "durationTicks": 218,
            "midi": 73,
            "name": "C#5",
            "ticks": 56640,
            "time": 84.285689,
            "velocity": 0.7559055118110236
          },
          {
            "duration": 0.3244046645833407,
            "durationTicks": 218,
            "midi": 78,
            "name": "F#5",
            "ticks": 56880,
            "time": 84.64283175,
            "velocity": 0.7874015748031497
          },
          {
            "duration": 0.3244046645833265,
            "durationTicks": 218,
            "midi": 81,
            "name": "A5",
            "ticks": 57120,
            "time": 84.99997450000001,
            "velocity": 0.7795275590551181
          },
          {
            "duration": 0.3244046645833265,
            "durationTicks": 218,
            "midi": 83,
            "name": "B5",
            "ticks": 57360,
            "time": 85.35711725,
            "velocity": 0.7952755905511811
          },
          {
            "duration": 0.3244046645833407,
            "durationTicks": 218,
            "midi": 79,
            "name": "G5",
            "ticks": 57600,
            "time": 85.71426,
            "velocity": 0.7480314960629921
          },
          {
            "duration": 0.3244046645833265,
            "durationTicks": 218,
            "midi": 78,
            "name": "F#5",
            "ticks": 57840,
            "time": 86.07140275,
            "velocity": 0.7559055118110236
          },
          {
            "duration": 0.3244046645833407,
            "durationTicks": 218,
            "midi": 76,
            "name": "E5",
            "ticks": 58080,
            "time": 86.4285455,
            "velocity": 0.7480314960629921
          },
          {
            "duration": 0.3244046645833265,
            "durationTicks": 218,
            "midi": 79,
            "name": "G5",
            "ticks": 58320,
            "time": 86.78568825,
            "velocity": 0.7874015748031497
          },
          {
            "duration": 0.3244046645833407,
            "durationTicks": 218,
            "midi": 78,
            "name": "F#5",
            "ticks": 58560,
            "time": 87.142831,
            "velocity": 0.7401574803149606
          },
          {
            "duration": 0.3244046645833407,
            "durationTicks": 218,
            "midi": 76,
            "name": "E5",
            "ticks": 58800,
            "time": 87.49997375,
            "velocity": 0.7165354330708661
          },
          {
            "duration": 0.3244046645833265,
            "durationTicks": 218,
            "midi": 74,
            "name": "D5",
            "ticks": 59040,
            "time": 87.8571165,
            "velocity": 0.7165354330708661
          },
          {
            "duration": 0.3244046645833407,
            "durationTicks": 218,
            "midi": 73,
            "name": "C#5",
            "ticks": 59280,
            "time": 88.21425925,
            "velocity": 0.7007874015748031
          },
          {
            "duration": 0.3244046645833265,
            "durationTicks": 218,
            "midi": 71,
            "name": "B4",
            "ticks": 59520,
            "time": 88.571402,
            "velocity": 0.6771653543307087
          },
          {
            "duration": 0.3244046645833407,
            "durationTicks": 218,
            "midi": 69,
            "name": "A4",
            "ticks": 59760,
            "time": 88.92854475,
            "velocity": 0.6692913385826772
          },
          {
            "duration": 0.3244046645833265,
            "durationTicks": 218,
            "midi": 67,
            "name": "G4",
            "ticks": 60000,
            "time": 89.28568750000001,
            "velocity": 0.6456692913385826
          },
          {
            "duration": 0.3244046645833265,
            "durationTicks": 218,
            "midi": 66,
            "name": "F#4",
            "ticks": 60240,
            "time": 89.64283025,
            "velocity": 0.6456692913385826
          },
          {
            "duration": 0.3244046645833407,
            "durationTicks": 218,
            "midi": 64,
            "name": "E4",
            "ticks": 60480,
            "time": 89.999973,
            "velocity": 0.6141732283464567
          },
          {
            "duration": 0.3244046645833265,
            "durationTicks": 218,
            "midi": 67,
            "name": "G4",
            "ticks": 60720,
            "time": 90.35711575,
            "velocity": 0.6377952755905512
          },
          {
            "duration": 0.3244046645833407,
            "durationTicks": 218,
            "midi": 66,
            "name": "F#4",
            "ticks": 60960,
            "time": 90.7142585,
            "velocity": 0.5669291338582677
          },
          {
            "duration": 0.3244046645833265,
            "durationTicks": 218,
            "midi": 64,
            "name": "E4",
            "ticks": 61200,
            "time": 91.07140125000001,
            "velocity": 0.5669291338582677
          },
          {
            "duration": 0.3244046645833407,
            "durationTicks": 218,
            "midi": 62,
            "name": "D4",
            "ticks": 61440,
            "time": 91.428544,
            "velocity": 0.5511811023622047
          },
          {
            "duration": 0.32440466458335493,
            "durationTicks": 218,
            "midi": 64,
            "name": "E4",
            "ticks": 61680,
            "time": 91.78568675,
            "velocity": 0.5826771653543307
          },
          {
            "duration": 0.3244046645833407,
            "durationTicks": 218,
            "midi": 66,
            "name": "F#4",
            "ticks": 61920,
            "time": 92.1428295,
            "velocity": 0.5748031496062992
          },
          {
            "duration": 0.3244046645833407,
            "durationTicks": 218,
            "midi": 67,
            "name": "G4",
            "ticks": 62160,
            "time": 92.49997225,
            "velocity": 0.5669291338582677
          },
          {
            "duration": 0.3244046645833407,
            "durationTicks": 218,
            "midi": 69,
            "name": "A4",
            "ticks": 62400,
            "time": 92.85711500000001,
            "velocity": 0.5748031496062992
          },
          {
            "duration": 0.3244046645833407,
            "durationTicks": 218,
            "midi": 64,
            "name": "E4",
            "ticks": 62640,
            "time": 93.21425775,
            "velocity": 0.5275590551181102
          },
          {
            "duration": 0.32440466458335493,
            "durationTicks": 218,
            "midi": 69,
            "name": "A4",
            "ticks": 62880,
            "time": 93.5714005,
            "velocity": 0.5826771653543307
          },
          {
            "duration": 0.3244046645833407,
            "durationTicks": 218,
            "midi": 67,
            "name": "G4",
            "ticks": 63120,
            "time": 93.92854325,
            "velocity": 0.5354330708661418
          },
          {
            "duration": 0.3244046645833407,
            "durationTicks": 218,
            "midi": 66,
            "name": "F#4",
            "ticks": 63360,
            "time": 94.285686,
            "velocity": 0.5354330708661418
          },
          {
            "duration": 0.3244046645833407,
            "durationTicks": 218,
            "midi": 71,
            "name": "B4",
            "ticks": 63600,
            "time": 94.64282875,
            "velocity": 0.5905511811023622
          },
          {
            "duration": 0.3244046645833407,
            "durationTicks": 218,
            "midi": 69,
            "name": "A4",
            "ticks": 63840,
            "time": 94.9999715,
            "velocity": 0.5275590551181102
          },
          {
            "duration": 0.3244046645833407,
            "durationTicks": 218,
            "midi": 67,
            "name": "G4",
            "ticks": 64080,
            "time": 95.35711425000001,
            "velocity": 0.5433070866141733
          },
          {
            "duration": 0.3244046645833407,
            "durationTicks": 218,
            "midi": 69,
            "name": "A4",
            "ticks": 64320,
            "time": 95.714257,
            "velocity": 0.5748031496062992
          },
          {
            "duration": 0.3244046645833407,
            "durationTicks": 218,
            "midi": 67,
            "name": "G4",
            "ticks": 64560,
            "time": 96.07139975,
            "velocity": 0.5433070866141733
          },
          {
            "duration": 0.3244046645833407,
            "durationTicks": 218,
            "midi": 66,
            "name": "F#4",
            "ticks": 64800,
            "time": 96.4285425,
            "velocity": 0.5275590551181102
          },
          {
            "duration": 0.3244046645833407,
            "durationTicks": 218,
            "midi": 64,
            "name": "E4",
            "ticks": 65040,
            "time": 96.78568525,
            "velocity": 0.5433070866141733
          },
          {
            "duration": 0.3244046645833407,
            "durationTicks": 218,
            "midi": 62,
            "name": "D4",
            "ticks": 65280,
            "time": 97.14282800000001,
            "velocity": 0.5354330708661418
          },
          {
            "duration": 0.3244046645833407,
            "durationTicks": 218,
            "midi": 59,
            "name": "B3",
            "ticks": 65520,
            "time": 97.49997075,
            "velocity": 0.5669291338582677
          },
          {
            "duration": 0.32440466458335493,
            "durationTicks": 218,
            "midi": 71,
            "name": "B4",
            "ticks": 65760,
            "time": 97.8571135,
            "velocity": 0.6377952755905512
          },
          {
            "duration": 0.3244046645833407,
            "durationTicks": 218,
            "midi": 73,
            "name": "C#5",
            "ticks": 66000,
            "time": 98.21425625,
            "velocity": 0.5905511811023622
          },
          {
            "duration": 0.3244046645833407,
            "durationTicks": 218,
            "midi": 74,
            "name": "D5",
            "ticks": 66240,
            "time": 98.571399,
            "velocity": 0.5748031496062992
          },
          {
            "duration": 0.3244046645833407,
            "durationTicks": 218,
            "midi": 73,
            "name": "C#5",
            "ticks": 66480,
            "time": 98.92854175000001,
            "velocity": 0.5433070866141733
          },
          {
            "duration": 0.3244046645833407,
            "durationTicks": 218,
            "midi": 71,
            "name": "B4",
            "ticks": 66720,
            "time": 99.2856845,
            "velocity": 0.5590551181102362
          },
          {
            "duration": 0.32440466458335493,
            "durationTicks": 218,
            "midi": 69,
            "name": "A4",
            "ticks": 66960,
            "time": 99.64282725,
            "velocity": 0.5275590551181102
          },
          {
            "duration": 0.3244046645833407,
            "durationTicks": 218,
            "midi": 67,
            "name": "G4",
            "ticks": 67200,
            "time": 99.99997,
            "velocity": 0.5275590551181102
          },
          {
            "duration": 0.3244046645833407,
            "durationTicks": 218,
            "midi": 66,
            "name": "F#4",
            "ticks": 67440,
            "time": 100.35711275,
            "velocity": 0.5511811023622047
          },
          {
            "duration": 0.3244046645833407,
            "durationTicks": 218,
            "midi": 64,
            "name": "E4",
            "ticks": 67680,
            "time": 100.71425550000001,
            "velocity": 0.5433070866141733
          },
          {
            "duration": 0.3244046645833407,
            "durationTicks": 218,
            "midi": 71,
            "name": "B4",
            "ticks": 67920,
            "time": 101.07139825,
            "velocity": 0.5984251968503937
          },
          {
            "duration": 0.32440466458335493,
            "durationTicks": 218,
            "midi": 69,
            "name": "A4",
            "ticks": 68160,
            "time": 101.428541,
            "velocity": 0.5511811023622047
          },
          {
            "duration": 0.3244046645833407,
            "durationTicks": 218,
            "midi": 71,
            "name": "B4",
            "ticks": 68400,
            "time": 101.78568375,
            "velocity": 0.5669291338582677
          },
          {
            "duration": 0.3244046645833407,
            "durationTicks": 218,
            "midi": 69,
            "name": "A4",
            "ticks": 68640,
            "time": 102.1428265,
            "velocity": 0.5433070866141733
          },
          {
            "duration": 0.3244046645833407,
            "durationTicks": 218,
            "midi": 67,
            "name": "G4",
            "ticks": 68880,
            "time": 102.49996925,
            "velocity": 0.5275590551181102
          },
          {
            "duration": 0.6473212343749992,
            "durationTicks": 435,
            "midi": 66,
            "name": "F#4",
            "ticks": 69120,
            "time": 102.857112,
            "velocity": 0.6614173228346457
          },
          {
            "duration": 0.6473212343749992,
            "durationTicks": 435,
            "midi": 78,
            "name": "F#5",
            "ticks": 69600,
            "time": 103.5713975,
            "velocity": 0.7401574803149606
          },
          {
            "duration": 1.2886900895833406,
            "durationTicks": 866,
            "midi": 76,
            "name": "E5",
            "ticks": 70080,
            "time": 104.285683,
            "velocity": 0.6535433070866141
          },
          {
            "duration": 0.6473212343749992,
            "durationTicks": 435,
            "midi": 74,
            "name": "D5",
            "ticks": 71520,
            "time": 106.4285395,
            "velocity": 0.5984251968503937
          },
          {
            "duration": 1.2886900895833406,
            "durationTicks": 866,
            "midi": 78,
            "name": "F#5",
            "ticks": 72000,
            "time": 107.142825,
            "velocity": 0.6850393700787402
          },
          {
            "duration": 1.2886900895833406,
            "durationTicks": 866,
            "midi": 83,
            "name": "B5",
            "ticks": 72960,
            "time": 108.57139600000001,
            "velocity": 0.7086614173228346
          },
          {
            "duration": 1.2886900895833406,
            "durationTicks": 866,
            "midi": 81,
            "name": "A5",
            "ticks": 73920,
            "time": 109.999967,
            "velocity": 0.6535433070866141
          },
          {
            "duration": 1.2886900895833406,
            "durationTicks": 866,
            "midi": 83,
            "name": "B5",
            "ticks": 74880,
            "time": 111.428538,
            "velocity": 0.6771653543307087
          },
          {
            "duration": 1.2886900895833264,
            "durationTicks": 866,
            "midi": 85,
            "name": "C#6",
            "ticks": 75840,
            "time": 112.85710900000001,
            "velocity": 0.6850393700787402
          },
          {
            "duration": 0.6473212343749992,
            "durationTicks": 435,
            "midi": 86,
            "name": "D6",
            "ticks": 76800,
            "time": 114.28568,
            "velocity": 0.6692913385826772
          },
          {
            "duration": 0.6473212343749992,
            "durationTicks": 435,
            "midi": 74,
            "name": "D5",
            "ticks": 77280,
            "time": 114.9999655,
            "velocity": 0.5669291338582677
          },
          {
            "duration": 1.2886900895833406,
            "durationTicks": 866,
            "midi": 73,
            "name": "C#5",
            "ticks": 77760,
            "time": 115.714251,
            "velocity": 0.6377952755905512
          },
          {
            "duration": 0.6473212343749992,
            "durationTicks": 435,
            "midi": 71,
            "name": "B4",
            "ticks": 79200,
            "time": 117.8571075,
            "velocity": 0.5826771653543307
          },
          {
            "duration": 1.2886900895833406,
            "durationTicks": 866,
            "midi": 74,
            "name": "D5",
            "ticks": 79680,
            "time": 118.571393,
            "velocity": 0.6850393700787402
          },
          {
            "duration": 1.9315470395833358,
            "durationTicks": 1298,
            "midi": 74,
            "name": "D5",
            "ticks": 80640,
            "time": 119.999964,
            "velocity": 0.6535433070866141
          },
          {
            "duration": 0.6473212343749992,
            "durationTicks": 435,
            "midi": 74,
            "name": "D5",
            "ticks": 82080,
            "time": 122.1428205,
            "velocity": 0.6614173228346457
          },
          {
            "duration": 0.6473212343749992,
            "durationTicks": 435,
            "midi": 74,
            "name": "D5",
            "ticks": 82560,
            "time": 122.857106,
            "velocity": 0.6456692913385826
          },
          {
            "duration": 0.6473212343749992,
            "durationTicks": 435,
            "midi": 79,
            "name": "G5",
            "ticks": 83040,
            "time": 123.5713915,
            "velocity": 0.7165354330708661
          },
          {
            "duration": 0.6473212343749992,
            "durationTicks": 435,
            "midi": 76,
            "name": "E5",
            "ticks": 83520,
            "time": 124.285677,
            "velocity": 0.6377952755905512
          },
          {
            "duration": 0.6473212343749992,
            "durationTicks": 435,
            "midi": 81,
            "name": "A5",
            "ticks": 84000,
            "time": 124.99996250000001,
            "velocity": 0.7244094488188977
          },
          {
            "duration": 0.3630951291666662,
            "durationTicks": 244,
            "midi": 81,
            "name": "A5",
            "ticks": 84480,
            "time": 125.714248,
            "velocity": 0.7716535433070866
          },
          {
            "duration": 0.17857137499998998,
            "durationTicks": 120,
            "midi": 78,
            "name": "F#5",
            "ticks": 84720,
            "time": 126.07139075,
            "velocity": 0.7401574803149606
          },
          {
            "duration": 0.1681547114583566,
            "durationTicks": 113,
            "midi": 79,
            "name": "G5",
            "ticks": 84840,
            "time": 126.249962125,
            "velocity": 0.7952755905511811
          },
          {
            "duration": 0.3630951291666662,
            "durationTicks": 244,
            "midi": 81,
            "name": "A5",
            "ticks": 84960,
            "time": 126.4285335,
            "velocity": 0.7874015748031497
          },
          {
            "duration": 0.17857137499998998,
            "durationTicks": 120,
            "midi": 78,
            "name": "F#5",
            "ticks": 85200,
            "time": 126.78567625000001,
            "velocity": 0.7559055118110236
          },
          {
            "duration": 0.16815471145834238,
            "durationTicks": 113,
            "midi": 79,
            "name": "G5",
            "ticks": 85320,
            "time": 126.964247625,
            "velocity": 0.7795275590551181
          },
          {
            "duration": 0.16220233229165615,
            "durationTicks": 109,
            "midi": 81,
            "name": "A5",
            "ticks": 85440,
            "time": 127.142819,
            "velocity": 0.8031496062992126
          },
          {
            "duration": 0.16220233229165615,
            "durationTicks": 109,
            "midi": 69,
            "name": "A4",
            "ticks": 85560,
            "time": 127.32139037500001,
            "velocity": 0.6692913385826772
          },
          {
            "duration": 0.1785713750000042,
            "durationTicks": 120,
            "midi": 71,
            "name": "B4",
            "ticks": 85680,
            "time": 127.49996175,
            "velocity": 0.7795275590551181
          },
          {
            "duration": 0.1785713750000042,
            "durationTicks": 120,
            "midi": 73,
            "name": "C#5",
            "ticks": 85800,
            "time": 127.678533125,
            "velocity": 0.7795275590551181
          },
          {
            "duration": 0.1785713750000042,
            "durationTicks": 120,
            "midi": 74,
            "name": "D5",
            "ticks": 85920,
            "time": 127.8571045,
            "velocity": 0.7952755905511811
          },
          {
            "duration": 0.17857137499998998,
            "durationTicks": 120,
            "midi": 76,
            "name": "E5",
            "ticks": 86040,
            "time": 128.035675875,
            "velocity": 0.7952755905511811
          },
          {
            "duration": 0.17857137499998998,
            "durationTicks": 120,
            "midi": 78,
            "name": "F#5",
            "ticks": 86160,
            "time": 128.21424725,
            "velocity": 0.8031496062992126
          },
          {
            "duration": 0.1681547114583566,
            "durationTicks": 113,
            "midi": 79,
            "name": "G5",
            "ticks": 86280,
            "time": 128.392818625,
            "velocity": 0.8031496062992126
          },
          {
            "duration": 0.363095129166652,
            "durationTicks": 244,
            "midi": 78,
            "name": "F#5",
            "ticks": 86400,
            "time": 128.57139,
            "velocity": 0.7322834645669292
          },
          {
            "duration": 0.17857137499998998,
            "durationTicks": 120,
            "midi": 74,
            "name": "D5",
            "ticks": 86640,
            "time": 128.92853275000002,
            "velocity": 0.7007874015748031
          },
          {
            "duration": 0.17857137499998998,
            "durationTicks": 120,
            "midi": 76,
            "name": "E5",
            "ticks": 86760,
            "time": 129.107104125,
            "velocity": 0.7874015748031497
          },
          {
            "duration": 0.33482132812500254,
            "durationTicks": 225,
            "midi": 78,
            "name": "F#5",
            "ticks": 86880,
            "time": 129.2856755,
            "velocity": 0.7874015748031497
          },
          {
            "duration": 0.17857137499998998,
            "durationTicks": 120,
            "midi": 66,
            "name": "F#4",
            "ticks": 87120,
            "time": 129.64281825,
            "velocity": 0.6692913385826772
          },
          {
            "duration": 0.1681547114583566,
            "durationTicks": 113,
            "midi": 67,
            "name": "G4",
            "ticks": 87240,
            "time": 129.821389625,
            "velocity": 0.7716535433070866
          },
          {
            "duration": 0.17857137499998998,
            "durationTicks": 120,
            "midi": 69,
            "name": "A4",
            "ticks": 87360,
            "time": 129.999961,
            "velocity": 0.7874015748031497
          },
          {
            "duration": 0.17857137499998998,
            "durationTicks": 120,
            "midi": 71,
            "name": "B4",
            "ticks": 87480,
            "time": 130.178532375,
            "velocity": 0.7952755905511811
          },
          {
            "duration": 0.1785713750000184,
            "durationTicks": 120,
            "midi": 69,
            "name": "A4",
            "ticks": 87600,
            "time": 130.35710375,
            "velocity": 0.7322834645669292
          },
          {
            "duration": 0.17857137499998998,
            "durationTicks": 120,
            "midi": 67,
            "name": "G4",
            "ticks": 87720,
            "time": 130.535675125,
            "velocity": 0.7480314960629921
          },
          {
            "duration": 0.17857137499998998,
            "durationTicks": 120,
            "midi": 69,
            "name": "A4",
            "ticks": 87840,
            "time": 130.7142465,
            "velocity": 0.7952755905511811
          },
          {
            "duration": 0.1785713750000184,
            "durationTicks": 120,
            "midi": 66,
            "name": "F#4",
            "ticks": 87960,
            "time": 130.892817875,
            "velocity": 0.7480314960629921
          },
          {
            "duration": 0.17857137499998998,
            "durationTicks": 120,
            "midi": 67,
            "name": "G4",
            "ticks": 88080,
            "time": 131.07138925,
            "velocity": 0.8031496062992126
          },
          {
            "duration": 0.1681547114583566,
            "durationTicks": 113,
            "midi": 69,
            "name": "A4",
            "ticks": 88200,
            "time": 131.249960625,
            "velocity": 0.7874015748031497
          },
          {
            "duration": 0.3630951291666804,
            "durationTicks": 244,
            "midi": 67,
            "name": "G4",
            "ticks": 88320,
            "time": 131.428532,
            "velocity": 0.7480314960629921
          },
          {
            "duration": 0.1785713750000184,
            "durationTicks": 120,
            "midi": 71,
            "name": "B4",
            "ticks": 88560,
            "time": 131.78567475,
            "velocity": 0.8110236220472441
          },
          {
            "duration": 0.17857137499998998,
            "durationTicks": 120,
            "midi": 69,
            "name": "A4",
            "ticks": 88680,
            "time": 131.96424612500002,
            "velocity": 0.7559055118110236
          },
          {
            "duration": 0.363095129166652,
            "durationTicks": 244,
            "midi": 67,
            "name": "G4",
            "ticks": 88800,
            "time": 132.1428175,
            "velocity": 0.7401574803149606
          },
          {
            "duration": 0.17857137499998998,
            "durationTicks": 120,
            "midi": 66,
            "name": "F#4",
            "ticks": 89040,
            "time": 132.49996025000002,
            "velocity": 0.7244094488188977
          },
          {
            "duration": 0.16815471145832817,
            "durationTicks": 113,
            "midi": 64,
            "name": "E4",
            "ticks": 89160,
            "time": 132.678531625,
            "velocity": 0.7322834645669292
          },
          {
            "duration": 0.1785713750000184,
            "durationTicks": 120,
            "midi": 66,
            "name": "F#4",
            "ticks": 89280,
            "time": 132.857103,
            "velocity": 0.8110236220472441
          },
          {
            "duration": 0.17857137499998998,
            "durationTicks": 120,
            "midi": 64,
            "name": "E4",
            "ticks": 89400,
            "time": 133.035674375,
            "velocity": 0.7637795275590551
          },
          {
            "duration": 0.17857137499998998,
            "durationTicks": 120,
            "midi": 62,
            "name": "D4",
            "ticks": 89520,
            "time": 133.21424575,
            "velocity": 0.7559055118110236
          },
          {
            "duration": 0.1785713750000184,
            "durationTicks": 120,
            "midi": 64,
            "name": "E4",
            "ticks": 89640,
            "time": 133.392817125,
            "velocity": 0.7874015748031497
          },
          {
            "duration": 0.17857137499998998,
            "durationTicks": 120,
            "midi": 66,
            "name": "F#4",
            "ticks": 89760,
            "time": 133.5713885,
            "velocity": 0.7874015748031497
          },
          {
            "duration": 0.17857137499998998,
            "durationTicks": 120,
            "midi": 67,
            "name": "G4",
            "ticks": 89880,
            "time": 133.749959875,
            "velocity": 0.7952755905511811
          },
          {
            "duration": 0.1785713750000184,
            "durationTicks": 120,
            "midi": 69,
            "name": "A4",
            "ticks": 90000,
            "time": 133.92853125,
            "velocity": 0.8031496062992126
          },
          {
            "duration": 0.16815471145832817,
            "durationTicks": 113,
            "midi": 71,
            "name": "B4",
            "ticks": 90120,
            "time": 134.107102625,
            "velocity": 0.7795275590551181
          },
          {
            "duration": 0.363095129166652,
            "durationTicks": 244,
            "midi": 67,
            "name": "G4",
            "ticks": 90240,
            "time": 134.285674,
            "velocity": 0.7244094488188977
          },
          {
            "duration": 0.17857137499998998,
            "durationTicks": 120,
            "midi": 71,
            "name": "B4",
            "ticks": 90480,
            "time": 134.64281675,
            "velocity": 0.7716535433070866
          },
          {
            "duration": 0.1681547114583566,
            "durationTicks": 113,
            "midi": 69,
            "name": "A4",
            "ticks": 90600,
            "time": 134.821388125,
            "velocity": 0.7480314960629921
          },
          {
            "duration": 0.363095129166652,
            "durationTicks": 244,
            "midi": 71,
            "name": "B4",
            "ticks": 90720,
            "time": 134.99995950000002,
            "velocity": 0.7952755905511811
          },
          {
            "duration": 0.1785713750000184,
            "durationTicks": 120,
            "midi": 73,
            "name": "C#5",
            "ticks": 90960,
            "time": 135.35710225,
            "velocity": 0.8188976377952756
          },
          {
            "duration": 0.16815471145832817,
            "durationTicks": 113,
            "midi": 74,
            "name": "D5",
            "ticks": 91080,
            "time": 135.53567362500002,
            "velocity": 0.7874015748031497
          },
          {
            "duration": 0.17857137499998998,
            "durationTicks": 120,
            "midi": 69,
            "name": "A4",
            "ticks": 91200,
            "time": 135.714245,
            "velocity": 0.7165354330708661
          },
          {
            "duration": 0.1785713750000184,
            "durationTicks": 120,
            "midi": 71,
            "name": "B4",
            "ticks": 91320,
            "time": 135.892816375,
            "velocity": 0.8031496062992126
          },
          {
            "duration": 0.17857137499998998,
            "durationTicks": 120,
            "midi": 73,
            "name": "C#5",
            "ticks": 91440,
            "time": 136.07138775,
            "velocity": 0.7874015748031497
          },
          {
            "duration": 0.17857137499998998,
            "durationTicks": 120,
            "midi": 74,
            "name": "D5",
            "ticks": 91560,
            "time": 136.249959125,
            "velocity": 0.7874015748031497
          },
          {
            "duration": 0.1785713750000184,
            "durationTicks": 120,
            "midi": 76,
            "name": "E5",
            "ticks": 91680,
            "time": 136.4285305,
            "velocity": 0.8031496062992126
          },
          {
            "duration": 0.17857137499998998,
            "durationTicks": 120,
            "midi": 78,
            "name": "F#5",
            "ticks": 91800,
            "time": 136.607101875,
            "velocity": 0.7874015748031497
          },
          {
            "duration": 0.17857137499998998,
            "durationTicks": 120,
            "midi": 79,
            "name": "G5",
            "ticks": 91920,
            "time": 136.78567325,
            "velocity": 0.7874015748031497
          },
          {
            "duration": 0.1681547114583566,
            "durationTicks": 113,
            "midi": 81,
            "name": "A5",
            "ticks": 92040,
            "time": 136.964244625,
            "velocity": 0.7952755905511811
          },
          {
            "duration": 0.363095129166652,
            "durationTicks": 244,
            "midi": 78,
            "name": "F#5",
            "ticks": 92160,
            "time": 137.142816,
            "velocity": 0.7401574803149606
          },
          {
            "duration": 0.1785713750000184,
            "durationTicks": 120,
            "midi": 74,
            "name": "D5",
            "ticks": 92400,
            "time": 137.49995875,
            "velocity": 0.7007874015748031
          },
          {
            "duration": 0.17857137499998998,
            "durationTicks": 120,
            "midi": 76,
            "name": "E5",
            "ticks": 92520,
            "time": 137.678530125,
            "velocity": 0.7952755905511811
          },
          {
            "duration": 0.363095129166652,
            "durationTicks": 244,
            "midi": 78,
            "name": "F#5",
            "ticks": 92640,
            "time": 137.8571015,
            "velocity": 0.7874015748031497
          },
          {
            "duration": 0.17857137499998998,
            "durationTicks": 120,
            "midi": 76,
            "name": "E5",
            "ticks": 92880,
            "time": 138.21424425,
            "velocity": 0.7637795275590551
          },
          {
            "duration": 0.1681547114583566,
            "durationTicks": 113,
            "midi": 74,
            "name": "D5",
            "ticks": 93000,
            "time": 138.392815625,
            "velocity": 0.7480314960629921
          },
          {
            "duration": 0.17857137499998998,
            "durationTicks": 120,
            "midi": 76,
            "name": "E5",
            "ticks": 93120,
            "time": 138.57138700000002,
            "velocity": 0.8031496062992126
          },
          {
            "duration": 0.17857137499998998,
            "durationTicks": 120,
            "midi": 73,
            "name": "C#5",
            "ticks": 93240,
            "time": 138.749958375,
            "velocity": 0.7322834645669292
          },
          {
            "duration": 0.1785713750000184,
            "durationTicks": 120,
            "midi": 74,
            "name": "D5",
            "ticks": 93360,
            "time": 138.92852975,
            "velocity": 0.7874015748031497
          },
          {
            "duration": 0.17857137499998998,
            "durationTicks": 120,
            "midi": 76,
            "name": "E5",
            "ticks": 93480,
            "time": 139.107101125,
            "velocity": 0.7874015748031497
          },
          {
            "duration": 0.17857137499998998,
            "durationTicks": 120,
            "midi": 78,
            "name": "F#5",
            "ticks": 93600,
            "time": 139.2856725,
            "velocity": 0.8031496062992126
          },
          {
            "duration": 0.1785713750000184,
            "durationTicks": 120,
            "midi": 76,
            "name": "E5",
            "ticks": 93720,
            "time": 139.464243875,
            "velocity": 0.7480314960629921
          },
          {
            "duration": 0.17857137499998998,
            "durationTicks": 120,
            "midi": 74,
            "name": "D5",
            "ticks": 93840,
            "time": 139.64281525,
            "velocity": 0.7559055118110236
          },
          {
            "duration": 0.1681547114583566,
            "durationTicks": 113,
            "midi": 73,
            "name": "C#5",
            "ticks": 93960,
            "time": 139.821386625,
            "velocity": 0.7401574803149606
          },
          {
            "duration": 0.3630951291666804,
            "durationTicks": 244,
            "midi": 74,
            "name": "D5",
            "ticks": 94080,
            "time": 139.999958,
            "velocity": 0.7874015748031497
          },
          {
            "duration": 0.17857137499998998,
            "durationTicks": 120,
            "midi": 71,
            "name": "B4",
            "ticks": 94320,
            "time": 140.35710075,
            "velocity": 0.7637795275590551
          },
          {
            "duration": 0.1785713750000184,
            "durationTicks": 120,
            "midi": 73,
            "name": "C#5",
            "ticks": 94440,
            "time": 140.535672125,
            "velocity": 0.7874015748031497
          },
          {
            "duration": 0.33482132812500254,
            "durationTicks": 225,
            "midi": 74,
            "name": "D5",
            "ticks": 94560,
            "time": 140.7142435,
            "velocity": 0.7874015748031497
          },
          {
            "duration": 0.17857137499998998,
            "durationTicks": 120,
            "midi": 62,
            "name": "D4",
            "ticks": 94800,
            "time": 141.07138625000002,
            "velocity": 0.6535433070866141
          },
          {
            "duration": 0.17857137499998998,
            "durationTicks": 120,
            "midi": 64,
            "name": "E4",
            "ticks": 94920,
            "time": 141.249957625,
            "velocity": 0.7874015748031497
          },
          {
            "duration": 0.1785713750000184,
            "durationTicks": 120,
            "midi": 66,
            "name": "F#4",
            "ticks": 95040,
            "time": 141.428529,
            "velocity": 0.8267716535433071
          },
          {
            "duration": 0.17857137499998998,
            "durationTicks": 120,
            "midi": 67,
            "name": "G4",
            "ticks": 95160,
            "time": 141.60710037500002,
            "velocity": 0.7874015748031497
          },
          {
            "duration": 0.17857137499998998,
            "durationTicks": 120,
            "midi": 66,
            "name": "F#4",
            "ticks": 95280,
            "time": 141.78567175,
            "velocity": 0.7401574803149606
          },
          {
            "duration": 0.1785713750000184,
            "durationTicks": 120,
            "midi": 64,
            "name": "E4",
            "ticks": 95400,
            "time": 141.964243125,
            "velocity": 0.7480314960629921
          },
          {
            "duration": 0.17857137499998998,
            "durationTicks": 120,
            "midi": 66,
            "name": "F#4",
            "ticks": 95520,
            "time": 142.14281450000001,
            "velocity": 0.7795275590551181
          },
          {
            "duration": 0.17857137499998998,
            "durationTicks": 120,
            "midi": 74,
            "name": "D5",
            "ticks": 95640,
            "time": 142.321385875,
            "velocity": 0.84251968503937
          },
          {
            "duration": 0.1785713750000184,
            "durationTicks": 120,
            "midi": 73,
            "name": "C#5",
            "ticks": 95760,
            "time": 142.49995725,
            "velocity": 0.7874015748031497
          },
          {
            "duration": 0.16815471145832817,
            "durationTicks": 113,
            "midi": 74,
            "name": "D5",
            "ticks": 95880,
            "time": 142.678528625,
            "velocity": 0.7952755905511811
          },
          {
            "duration": 0.363095129166652,
            "durationTicks": 244,
            "midi": 71,
            "name": "B4",
            "ticks": 96000,
            "time": 142.8571,
            "velocity": 0.7480314960629921
          },
          {
            "duration": 0.17857137499998998,
            "durationTicks": 120,
            "midi": 74,
            "name": "D5",
            "ticks": 96240,
            "time": 143.21424275,
            "velocity": 0.7874015748031497
          },
          {
            "duration": 0.1681547114583566,
            "durationTicks": 113,
            "midi": 73,
            "name": "C#5",
            "ticks": 96360,
            "time": 143.392814125,
            "velocity": 0.7401574803149606
          },
          {
            "duration": 0.3630951291666804,
            "durationTicks": 244,
            "midi": 71,
            "name": "B4",
            "ticks": 96480,
            "time": 143.5713855,
            "velocity": 0.7480314960629921
          },
          {
            "duration": 0.17857137499998998,
            "durationTicks": 120,
            "midi": 69,
            "name": "A4",
            "ticks": 96720,
            "time": 143.92852825,
            "velocity": 0.7244094488188977
          },
          {
            "duration": 0.1681547114583566,
            "durationTicks": 113,
            "midi": 67,
            "name": "G4",
            "ticks": 96840,
            "time": 144.107099625,
            "velocity": 0.7480314960629921
          },
          {
            "duration": 0.17857137499998998,
            "durationTicks": 120,
            "midi": 69,
            "name": "A4",
            "ticks": 96960,
            "time": 144.285671,
            "velocity": 0.7874015748031497
          },
          {
            "duration": 0.1785713750000184,
            "durationTicks": 120,
            "midi": 67,
            "name": "G4",
            "ticks": 97080,
            "time": 144.464242375,
            "velocity": 0.7637795275590551
          },
          {
            "duration": 0.17857137499998998,
            "durationTicks": 120,
            "midi": 66,
            "name": "F#4",
            "ticks": 97200,
            "time": 144.64281375000002,
            "velocity": 0.7559055118110236
          },
          {
            "duration": 0.17857137499998998,
            "durationTicks": 120,
            "midi": 67,
            "name": "G4",
            "ticks": 97320,
            "time": 144.821385125,
            "velocity": 0.7795275590551181
          },
          {
            "duration": 0.1785713750000184,
            "durationTicks": 120,
            "midi": 69,
            "name": "A4",
            "ticks": 97440,
            "time": 144.9999565,
            "velocity": 0.7795275590551181
          },
          {
            "duration": 0.17857137499998998,
            "durationTicks": 120,
            "midi": 71,
            "name": "B4",
            "ticks": 97560,
            "time": 145.17852787500001,
            "velocity": 0.7952755905511811
          },
          {
            "duration": 0.17857137499998998,
            "durationTicks": 120,
            "midi": 73,
            "name": "C#5",
            "ticks": 97680,
            "time": 145.35709925,
            "velocity": 0.7795275590551181
          },
          {
            "duration": 0.1681547114583566,
            "durationTicks": 113,
            "midi": 74,
            "name": "D5",
            "ticks": 97800,
            "time": 145.535670625,
            "velocity": 0.8031496062992126
          },
          {
            "duration": 0.363095129166652,
            "durationTicks": 244,
            "midi": 71,
            "name": "B4",
            "ticks": 97920,
            "time": 145.714242,
            "velocity": 0.7637795275590551
          },
          {
            "duration": 0.1785713750000184,
            "durationTicks": 120,
            "midi": 74,
            "name": "D5",
            "ticks": 98160,
            "time": 146.07138475,
            "velocity": 0.7795275590551181
          },
          {
            "duration": 0.17857137499998998,
            "durationTicks": 120,
            "midi": 73,
            "name": "C#5",
            "ticks": 98280,
            "time": 146.249956125,
            "velocity": 0.7480314960629921
          },
          {
            "duration": 0.33482132812500254,
            "durationTicks": 225,
            "midi": 74,
            "name": "D5",
            "ticks": 98400,
            "time": 146.4285275,
            "velocity": 0.8031496062992126
          },
          {
            "duration": 0.17857137499998998,
            "durationTicks": 120,
            "midi": 73,
            "name": "C#5",
            "ticks": 98640,
            "time": 146.78567025,
            "velocity": 0.7637795275590551
          },
          {
            "duration": 0.17857137499998998,
            "durationTicks": 120,
            "midi": 71,
            "name": "B4",
            "ticks": 98760,
            "time": 146.964241625,
            "velocity": 0.7401574803149606
          },
          {
            "duration": 0.1785713750000184,
            "durationTicks": 120,
            "midi": 73,
            "name": "C#5",
            "ticks": 98880,
            "time": 147.142813,
            "velocity": 0.7874015748031497
          },
          {
            "duration": 0.17857137499998998,
            "durationTicks": 120,
            "midi": 74,
            "name": "D5",
            "ticks": 99000,
            "time": 147.321384375,
            "velocity": 0.8110236220472441
          },
          {
            "duration": 0.1785713750000184,
            "durationTicks": 120,
            "midi": 76,
            "name": "E5",
            "ticks": 99120,
            "time": 147.49995575,
            "velocity": 0.7952755905511811
          },
          {
            "duration": 0.17857137499998998,
            "durationTicks": 120,
            "midi": 74,
            "name": "D5",
            "ticks": 99240,
            "time": 147.67852712500002,
            "velocity": 0.7480314960629921
          },
          {
            "duration": 0.17857137499998998,
            "durationTicks": 120,
            "midi": 73,
            "name": "C#5",
            "ticks": 99360,
            "time": 147.8570985,
            "velocity": 0.7637795275590551
          },
          {
            "duration": 0.1785713750000184,
            "durationTicks": 120,
            "midi": 74,
            "name": "D5",
            "ticks": 99480,
            "time": 148.035669875,
            "velocity": 0.7874015748031497
          },
          {
            "duration": 0.17857137499998998,
            "durationTicks": 120,
            "midi": 71,
            "name": "B4",
            "ticks": 99600,
            "time": 148.21424125000001,
            "velocity": 0.7401574803149606
          },
          {
            "duration": 0.16815471145832817,
            "durationTicks": 113,
            "midi": 73,
            "name": "C#5",
            "ticks": 99720,
            "time": 148.392812625,
            "velocity": 0.7874015748031497
          },
          {
            "duration": 0.6473212343749992,
            "durationTicks": 435,
            "midi": 74,
            "name": "D5",
            "ticks": 99840,
            "time": 148.571384,
            "velocity": 0.5748031496062992
          },
          {
            "duration": 0.6473212343749992,
            "durationTicks": 435,
            "midi": 73,
            "name": "C#5",
            "ticks": 100800,
            "time": 149.999955,
            "velocity": 0.4409448818897638
          },
          {
            "duration": 0.6473212343749992,
            "durationTicks": 435,
            "midi": 71,
            "name": "B4",
            "ticks": 101760,
            "time": 151.428526,
            "velocity": 0.4251968503937008
          },
          {
            "duration": 0.6473212343749992,
            "durationTicks": 435,
            "midi": 74,
            "name": "D5",
            "ticks": 102720,
            "time": 152.857097,
            "velocity": 0.4094488188976378
          },
          {
            "duration": 0.6473212343749992,
            "durationTicks": 435,
            "midi": 62,
            "name": "D4",
            "ticks": 103680,
            "time": 154.28566800000002,
            "velocity": 0.41732283464566927
          },
          {
            "duration": 0.6473212343749992,
            "durationTicks": 435,
            "midi": 62,
            "name": "D4",
            "ticks": 104640,
            "time": 155.714239,
            "velocity": 0.4330708661417323
          },
          {
            "duration": 0.6473212343749992,
            "durationTicks": 435,
            "midi": 62,
            "name": "D4",
            "ticks": 105600,
            "time": 157.14281,
            "velocity": 0.4251968503937008
          },
          {
            "duration": 0.6473212343749992,
            "durationTicks": 435,
            "midi": 62,
            "name": "D4",
            "ticks": 106560,
            "time": 158.571381,
            "velocity": 0.44881889763779526
          },
          {
            "duration": 0.6473212343749992,
            "durationTicks": 435,
            "midi": 69,
            "name": "A4",
            "ticks": 108000,
            "time": 160.7142375,
            "velocity": 0.4409448818897638
          },
          {
            "duration": 0.6473212343749992,
            "durationTicks": 435,
            "midi": 69,
            "name": "A4",
            "ticks": 108960,
            "time": 162.1428085,
            "velocity": 0.4409448818897638
          },
          {
            "duration": 0.6473212343749992,
            "durationTicks": 435,
            "midi": 66,
            "name": "F#4",
            "ticks": 109920,
            "time": 163.5713795,
            "velocity": 0.4251968503937008
          },
          {
            "duration": 0.6473212343749992,
            "durationTicks": 435,
            "midi": 69,
            "name": "A4",
            "ticks": 110880,
            "time": 164.9999505,
            "velocity": 0.4094488188976378
          },
          {
            "duration": 0.6473212343749992,
            "durationTicks": 435,
            "midi": 67,
            "name": "G4",
            "ticks": 111840,
            "time": 166.42852150000002,
            "velocity": 0.4330708661417323
          },
          {
            "duration": 0.6473212343749992,
            "durationTicks": 435,
            "midi": 66,
            "name": "F#4",
            "ticks": 112800,
            "time": 167.8570925,
            "velocity": 0.44881889763779526
          },
          {
            "duration": 0.6473212343749992,
            "durationTicks": 435,
            "midi": 67,
            "name": "G4",
            "ticks": 113760,
            "time": 169.2856635,
            "velocity": 0.4330708661417323
          },
          {
            "duration": 0.6473212343749992,
            "durationTicks": 435,
            "midi": 76,
            "name": "E5",
            "ticks": 114720,
            "time": 170.7142345,
            "velocity": 0.44881889763779526
          },
          {
            "duration": 0.32440466458336914,
            "durationTicks": 218,
            "midi": 78,
            "name": "F#5",
            "ticks": 115200,
            "time": 171.42852,
            "velocity": 0.5590551181102362
          },
          {
            "duration": 0.363095129166652,
            "durationTicks": 244,
            "midi": 66,
            "name": "F#4",
            "ticks": 115440,
            "time": 171.78566275,
            "velocity": 0.48031496062992124
          },
          {
            "duration": 0.363095129166652,
            "durationTicks": 244,
            "midi": 67,
            "name": "G4",
            "ticks": 115680,
            "time": 172.1428055,
            "velocity": 0.49606299212598426
          },
          {
            "duration": 0.363095129166652,
            "durationTicks": 244,
            "midi": 66,
            "name": "F#4",
            "ticks": 115920,
            "time": 172.49994825000002,
            "velocity": 0.5433070866141733
          },
          {
            "duration": 0.33482132812500254,
            "durationTicks": 225,
            "midi": 64,
            "name": "E4",
            "ticks": 116160,
            "time": 172.857091,
            "velocity": 0.5354330708661418
          },
          {
            "duration": 0.363095129166652,
            "durationTicks": 244,
            "midi": 76,
            "name": "E5",
            "ticks": 116400,
            "time": 173.21423375,
            "velocity": 0.6141732283464567
          },
          {
            "duration": 0.363095129166652,
            "durationTicks": 244,
            "midi": 78,
            "name": "F#5",
            "ticks": 116640,
            "time": 173.5713765,
            "velocity": 0.6377952755905512
          },
          {
            "duration": 0.3630951291666804,
            "durationTicks": 244,
            "midi": 76,
            "name": "E5",
            "ticks": 116880,
            "time": 173.92851925,
            "velocity": 0.5354330708661418
          },
          {
            "duration": 0.33482132812500254,
            "durationTicks": 225,
            "midi": 74,
            "name": "D5",
            "ticks": 117120,
            "time": 174.285662,
            "velocity": 0.5118110236220472
          },
          {
            "duration": 0.363095129166652,
            "durationTicks": 244,
            "midi": 66,
            "name": "F#4",
            "ticks": 117360,
            "time": 174.64280475,
            "velocity": 0.5039370078740157
          },
          {
            "duration": 0.33482132812500254,
            "durationTicks": 225,
            "midi": 62,
            "name": "D4",
            "ticks": 117600,
            "time": 174.9999475,
            "velocity": 0.47244094488188976
          },
          {
            "duration": 0.3630951291666804,
            "durationTicks": 244,
            "midi": 74,
            "name": "D5",
            "ticks": 117840,
            "time": 175.35709025,
            "velocity": 0.6220472440944882
          },
          {
            "duration": 0.33482132812500254,
            "durationTicks": 225,
            "midi": 73,
            "name": "C#5",
            "ticks": 118080,
            "time": 175.714233,
            "velocity": 0.6141732283464567
          },
          {
            "duration": 0.363095129166652,
            "durationTicks": 244,
            "midi": 57,
            "name": "A3",
            "ticks": 118320,
            "time": 176.07137575000002,
            "velocity": 0.5275590551181102
          },
          {
            "duration": 0.3630951291666804,
            "durationTicks": 244,
            "midi": 55,
            "name": "G3",
            "ticks": 118560,
            "time": 176.4285185,
            "velocity": 0.5196850393700787
          },
          {
            "duration": 0.363095129166652,
            "durationTicks": 244,
            "midi": 57,
            "name": "A3",
            "ticks": 118800,
            "time": 176.78566125,
            "velocity": 0.5748031496062992
          },
          {
            "duration": 0.33482132812500254,
            "durationTicks": 225,
            "midi": 59,
            "name": "B3",
            "ticks": 119040,
            "time": 177.142804,
            "velocity": 0.5748031496062992
          },
          {
            "duration": 0.3630951291666804,
            "durationTicks": 244,
            "midi": 71,
            "name": "B4",
            "ticks": 119280,
            "time": 177.49994675,
            "velocity": 0.6299212598425197
          },
          {
            "duration": 0.363095129166652,
            "durationTicks": 244,
            "midi": 69,
            "name": "A4",
            "ticks": 119520,
            "time": 177.8570895,
            "velocity": 0.5984251968503937
          },
          {
            "duration": 0.363095129166652,
            "durationTicks": 244,
            "midi": 71,
            "name": "B4",
            "ticks": 119760,
            "time": 178.21423225,
            "velocity": 0.5905511811023622
          },
          {
            "duration": 0.3348213281249741,
            "durationTicks": 225,
            "midi": 69,
            "name": "A4",
            "ticks": 120000,
            "time": 178.57137500000002,
            "velocity": 0.5748031496062992
          },
          {
            "duration": 0.3630951291666804,
            "durationTicks": 244,
            "midi": 57,
            "name": "A3",
            "ticks": 120240,
            "time": 178.92851775,
            "velocity": 0.5196850393700787
          },
          {
            "duration": 0.363095129166652,
            "durationTicks": 244,
            "midi": 55,
            "name": "G3",
            "ticks": 120480,
            "time": 179.2856605,
            "velocity": 0.5039370078740157
          },
          {
            "duration": 0.363095129166652,
            "durationTicks": 244,
            "midi": 57,
            "name": "A3",
            "ticks": 120720,
            "time": 179.64280325000001,
            "velocity": 0.5433070866141733
          },
          {
            "duration": 0.33482132812500254,
            "durationTicks": 225,
            "midi": 62,
            "name": "D4",
            "ticks": 120960,
            "time": 179.999946,
            "velocity": 0.5905511811023622
          },
          {
            "duration": 0.363095129166652,
            "durationTicks": 244,
            "midi": 71,
            "name": "B4",
            "ticks": 121200,
            "time": 180.35708875,
            "velocity": 0.6141732283464567
          },
          {
            "duration": 0.363095129166652,
            "durationTicks": 244,
            "midi": 69,
            "name": "A4",
            "ticks": 121440,
            "time": 180.7142315,
            "velocity": 0.6062992125984252
          },
          {
            "duration": 0.3630951291666804,
            "durationTicks": 244,
            "midi": 71,
            "name": "B4",
            "ticks": 121680,
            "time": 181.07137425,
            "velocity": 0.5511811023622047
          },
          {
            "duration": 0.33482132812500254,
            "durationTicks": 225,
            "midi": 73,
            "name": "C#5",
            "ticks": 121920,
            "time": 181.428517,
            "velocity": 0.5669291338582677
          },
          {
            "duration": 0.363095129166652,
            "durationTicks": 244,
            "midi": 61,
            "name": "C#4",
            "ticks": 122160,
            "time": 181.78565975,
            "velocity": 0.48031496062992124
          },
          {
            "duration": 0.363095129166652,
            "durationTicks": 244,
            "midi": 59,
            "name": "B3",
            "ticks": 122400,
            "time": 182.14280250000002,
            "velocity": 0.48031496062992124
          },
          {
            "duration": 0.3630951291666804,
            "durationTicks": 244,
            "midi": 61,
            "name": "C#4",
            "ticks": 122640,
            "time": 182.49994525,
            "velocity": 0.5905511811023622
          },
          {
            "duration": 0.33482132812500254,
            "durationTicks": 225,
            "midi": 62,
            "name": "D4",
            "ticks": 122880,
            "time": 182.857088,
            "velocity": 0.5984251968503937
          },
          {
            "duration": 0.363095129166652,
            "durationTicks": 244,
            "midi": 74,
            "name": "D5",
            "ticks": 123120,
            "time": 183.21423075,
            "velocity": 0.7480314960629921
          },
          {
            "duration": 0.3630951291666804,
            "durationTicks": 244,
            "midi": 76,
            "name": "E5",
            "ticks": 123360,
            "time": 183.5713735,
            "velocity": 0.7874015748031497
          },
          {
            "duration": 0.363095129166652,
            "durationTicks": 244,
            "midi": 74,
            "name": "D5",
            "ticks": 123600,
            "time": 183.92851625,
            "velocity": 0.6299212598425197
          },
          {
            "duration": 0.33482132812500254,
            "durationTicks": 225,
            "midi": 73,
            "name": "C#5",
            "ticks": 123840,
            "time": 184.285659,
            "velocity": 0.6377952755905512
          },
          {
            "duration": 0.363095129166652,
            "durationTicks": 244,
            "midi": 61,
            "name": "C#4",
            "ticks": 124080,
            "time": 184.64280175000002,
            "velocity": 0.5669291338582677
          },
          {
            "duration": 0.3630951291666804,
            "durationTicks": 244,
            "midi": 62,
            "name": "D4",
            "ticks": 124320,
            "time": 184.9999445,
            "velocity": 0.5748031496062992
          },
          {
            "duration": 0.363095129166652,
            "durationTicks": 244,
            "midi": 61,
            "name": "C#4",
            "ticks": 124560,
            "time": 185.35708725,
            "velocity": 0.6377952755905512
          },
          {
            "duration": 0.33482132812500254,
            "durationTicks": 225,
            "midi": 59,
            "name": "B3",
            "ticks": 124800,
            "time": 185.71423000000001,
            "velocity": 0.6299212598425197
          },
          {
            "duration": 0.3630951291666804,
            "durationTicks": 244,
            "midi": 71,
            "name": "B4",
            "ticks": 125040,
            "time": 186.07137275,
            "velocity": 0.7559055118110236
          },
          {
            "duration": 0.363095129166652,
            "durationTicks": 244,
            "midi": 69,
            "name": "A4",
            "ticks": 125280,
            "time": 186.4285155,
            "velocity": 0.7559055118110236
          },
          {
            "duration": 0.363095129166652,
            "durationTicks": 244,
            "midi": 71,
            "name": "B4",
            "ticks": 125520,
            "time": 186.78565825,
            "velocity": 0.6692913385826772
          },
          {
            "duration": 0.33482132812500254,
            "durationTicks": 225,
            "midi": 73,
            "name": "C#5",
            "ticks": 125760,
            "time": 187.142801,
            "velocity": 0.6929133858267716
          },
          {
            "duration": 0.363095129166652,
            "durationTicks": 244,
            "midi": 61,
            "name": "C#4",
            "ticks": 126000,
            "time": 187.49994375,
            "velocity": 0.5748031496062992
          },
          {
            "duration": 0.363095129166652,
            "durationTicks": 244,
            "midi": 66,
            "name": "F#4",
            "ticks": 126240,
            "time": 187.8570865,
            "velocity": 0.5984251968503937
          },
          {
            "duration": 0.363095129166652,
            "durationTicks": 244,
            "midi": 64,
            "name": "E4",
            "ticks": 126480,
            "time": 188.21422925000002,
            "velocity": 0.6299212598425197
          },
          {
            "duration": 0.33482132812500254,
            "durationTicks": 225,
            "midi": 62,
            "name": "D4",
            "ticks": 126720,
            "time": 188.571372,
            "velocity": 0.6141732283464567
          },
          {
            "duration": 0.363095129166652,
            "durationTicks": 244,
            "midi": 74,
            "name": "D5",
            "ticks": 126960,
            "time": 188.92851475,
            "velocity": 0.7637795275590551
          },
          {
            "duration": 0.363095129166652,
            "durationTicks": 244,
            "midi": 76,
            "name": "E5",
            "ticks": 127200,
            "time": 189.2856575,
            "velocity": 0.7874015748031497
          },
          {
            "duration": 0.3630951291666804,
            "durationTicks": 244,
            "midi": 79,
            "name": "G5",
            "ticks": 127440,
            "time": 189.64280025,
            "velocity": 0.6614173228346457
          },
          {
            "duration": 0.33482132812500254,
            "durationTicks": 225,
            "midi": 78,
            "name": "F#5",
            "ticks": 127680,
            "time": 189.999943,
            "velocity": 0.6377952755905512
          },
          {
            "duration": 0.363095129166652,
            "durationTicks": 244,
            "midi": 66,
            "name": "F#4",
            "ticks": 127920,
            "time": 190.35708575,
            "velocity": 0.5669291338582677
          },
          {
            "duration": 0.363095129166652,
            "durationTicks": 244,
            "midi": 69,
            "name": "A4",
            "ticks": 128160,
            "time": 190.71422850000002,
            "velocity": 0.5826771653543307
          },
          {
            "duration": 0.3630951291666804,
            "durationTicks": 244,
            "midi": 78,
            "name": "F#5",
            "ticks": 128400,
            "time": 191.07137125,
            "velocity": 0.7322834645669292
          },
          {
            "duration": 0.33482132812500254,
            "durationTicks": 225,
            "midi": 74,
            "name": "D5",
            "ticks": 128640,
            "time": 191.428514,
            "velocity": 0.7007874015748031
          },
          {
            "duration": 0.363095129166652,
            "durationTicks": 244,
            "midi": 79,
            "name": "G5",
            "ticks": 128880,
            "time": 191.78565675000002,
            "velocity": 0.6929133858267716
          },
          {
            "duration": 0.3630951291666804,
            "durationTicks": 244,
            "midi": 78,
            "name": "F#5",
            "ticks": 129120,
            "time": 192.1427995,
            "velocity": 0.6850393700787402
          },
          {
            "duration": 0.363095129166652,
            "durationTicks": 244,
            "midi": 79,
            "name": "G5",
            "ticks": 129360,
            "time": 192.49994225,
            "velocity": 0.6614173228346457
          },
          {
            "duration": 0.33482132812500254,
            "durationTicks": 225,
            "midi": 76,
            "name": "E5",
            "ticks": 129600,
            "time": 192.857085,
            "velocity": 0.6535433070866141
          },
          {
            "duration": 0.3630951291666804,
            "durationTicks": 244,
            "midi": 69,
            "name": "A4",
            "ticks": 129840,
            "time": 193.21422775,
            "velocity": 0.6141732283464567
          },
          {
            "duration": 0.363095129166652,
            "durationTicks": 244,
            "midi": 67,
            "name": "G4",
            "ticks": 130080,
            "time": 193.5713705,
            "velocity": 0.5826771653543307
          },
          {
            "duration": 0.363095129166652,
            "durationTicks": 244,
            "midi": 69,
            "name": "A4",
            "ticks": 130320,
            "time": 193.92851325,
            "velocity": 0.6692913385826772
          },
          {
            "duration": 0.3348213281249741,
            "durationTicks": 225,
            "midi": 66,
            "name": "F#4",
            "ticks": 130560,
            "time": 194.28565600000002,
            "velocity": 0.6456692913385826
          },
          {
            "duration": 0.3244046645833407,
            "durationTicks": 218,
            "midi": 69,
            "name": "A4",
            "ticks": 130800,
            "time": 194.64279875,
            "velocity": 0.5826771653543307
          },
          {
            "duration": 0.3244046645833123,
            "durationTicks": 218,
            "midi": 69,
            "name": "A4",
            "ticks": 131040,
            "time": 194.9999415,
            "velocity": 0.5590551181102362
          },
          {
            "duration": 0.3244046645833123,
            "durationTicks": 218,
            "midi": 69,
            "name": "A4",
            "ticks": 131280,
            "time": 195.35708425,
            "velocity": 0.5511811023622047
          },
          {
            "duration": 0.3244046645833407,
            "durationTicks": 218,
            "midi": 69,
            "name": "A4",
            "ticks": 131520,
            "time": 195.714227,
            "velocity": 0.5748031496062992
          },
          {
            "duration": 0.3244046645833123,
            "durationTicks": 218,
            "midi": 69,
            "name": "A4",
            "ticks": 131760,
            "time": 196.07136975,
            "velocity": 0.5590551181102362
          },
          {
            "duration": 0.3244046645833123,
            "durationTicks": 218,
            "midi": 69,
            "name": "A4",
            "ticks": 132000,
            "time": 196.4285125,
            "velocity": 0.5433070866141733
          },
          {
            "duration": 0.3244046645833407,
            "durationTicks": 218,
            "midi": 69,
            "name": "A4",
            "ticks": 132240,
            "time": 196.78565525,
            "velocity": 0.5590551181102362
          },
          {
            "duration": 0.3244046645833407,
            "durationTicks": 218,
            "midi": 66,
            "name": "F#4",
            "ticks": 132480,
            "time": 197.142798,
            "velocity": 0.5433070866141733
          },
          {
            "duration": 0.3244046645833123,
            "durationTicks": 218,
            "midi": 66,
            "name": "F#4",
            "ticks": 132720,
            "time": 197.49994075,
            "velocity": 0.5511811023622047
          },
          {
            "duration": 0.3244046645833123,
            "durationTicks": 218,
            "midi": 66,
            "name": "F#4",
            "ticks": 132960,
            "time": 197.85708350000002,
            "velocity": 0.5669291338582677
          },
          {
            "duration": 0.3244046645833407,
            "durationTicks": 218,
            "midi": 66,
            "name": "F#4",
            "ticks": 133200,
            "time": 198.21422625,
            "velocity": 0.5748031496062992
          },
          {
            "duration": 0.3244046645833123,
            "durationTicks": 218,
            "midi": 66,
            "name": "F#4",
            "ticks": 133440,
            "time": 198.571369,
            "velocity": 0.5590551181102362
          },
          {
            "duration": 0.3244046645833123,
            "durationTicks": 218,
            "midi": 66,
            "name": "F#4",
            "ticks": 133680,
            "time": 198.92851175,
            "velocity": 0.5590551181102362
          },
          {
            "duration": 0.3244046645833407,
            "durationTicks": 218,
            "midi": 69,
            "name": "A4",
            "ticks": 133920,
            "time": 199.2856545,
            "velocity": 0.5669291338582677
          },
          {
            "duration": 0.3244046645833123,
            "durationTicks": 218,
            "midi": 69,
            "name": "A4",
            "ticks": 134160,
            "time": 199.64279725,
            "velocity": 0.5511811023622047
          },
          {
            "duration": 0.3244046645833123,
            "durationTicks": 218,
            "midi": 67,
            "name": "G4",
            "ticks": 134400,
            "time": 199.99994,
            "velocity": 0.5511811023622047
          },
          {
            "duration": 0.3244046645833123,
            "durationTicks": 218,
            "midi": 67,
            "name": "G4",
            "ticks": 134640,
            "time": 200.35708275000002,
            "velocity": 0.5669291338582677
          },
          {
            "duration": 0.3244046645833407,
            "durationTicks": 218,
            "midi": 67,
            "name": "G4",
            "ticks": 134880,
            "time": 200.7142255,
            "velocity": 0.5748031496062992
          },
          {
            "duration": 0.3244046645833123,
            "durationTicks": 218,
            "midi": 74,
            "name": "D5",
            "ticks": 135120,
            "time": 201.07136825,
            "velocity": 0.6141732283464567
          },
          {
            "duration": 0.3244046645833123,
            "durationTicks": 218,
            "midi": 74,
            "name": "D5",
            "ticks": 135360,
            "time": 201.42851100000001,
            "velocity": 0.5669291338582677
          },
          {
            "duration": 0.3244046645833407,
            "durationTicks": 218,
            "midi": 74,
            "name": "D5",
            "ticks": 135600,
            "time": 201.78565375,
            "velocity": 0.5669291338582677
          },
          {
            "duration": 0.3244046645833123,
            "durationTicks": 218,
            "midi": 74,
            "name": "D5",
            "ticks": 135840,
            "time": 202.1427965,
            "velocity": 0.5669291338582677
          },
          {
            "duration": 0.3244046645833123,
            "durationTicks": 218,
            "midi": 74,
            "name": "D5",
            "ticks": 136080,
            "time": 202.49993925,
            "velocity": 0.5669291338582677
          },
          {
            "duration": 0.3244046645833407,
            "durationTicks": 218,
            "midi": 74,
            "name": "D5",
            "ticks": 136320,
            "time": 202.857082,
            "velocity": 0.5590551181102362
          },
          {
            "duration": 0.3244046645833407,
            "durationTicks": 218,
            "midi": 74,
            "name": "D5",
            "ticks": 136560,
            "time": 203.21422475,
            "velocity": 0.5590551181102362
          },
          {
            "duration": 0.3244046645833123,
            "durationTicks": 218,
            "midi": 71,
            "name": "B4",
            "ticks": 136800,
            "time": 203.5713675,
            "velocity": 0.5275590551181102
          },
          {
            "duration": 0.3244046645833123,
            "durationTicks": 218,
            "midi": 71,
            "name": "B4",
            "ticks": 137040,
            "time": 203.92851025000002,
            "velocity": 0.5669291338582677
          },
          {
            "duration": 0.3244046645833407,
            "durationTicks": 218,
            "midi": 69,
            "name": "A4",
            "ticks": 137280,
            "time": 204.285653,
            "velocity": 0.5590551181102362
          },
          {
            "duration": 0.3244046645833123,
            "durationTicks": 218,
            "midi": 69,
            "name": "A4",
            "ticks": 137520,
            "time": 204.64279575,
            "velocity": 0.5669291338582677
          },
          {
            "duration": 0.3244046645833123,
            "durationTicks": 218,
            "midi": 76,
            "name": "E5",
            "ticks": 137760,
            "time": 204.9999385,
            "velocity": 0.6062992125984252
          },
          {
            "duration": 0.3244046645833407,
            "durationTicks": 218,
            "midi": 73,
            "name": "C#5",
            "ticks": 138000,
            "time": 205.35708125,
            "velocity": 0.5511811023622047
          },
          {
            "duration": 0.3244046645833123,
            "durationTicks": 218,
            "midi": 69,
            "name": "A4",
            "ticks": 138240,
            "time": 205.714224,
            "velocity": 0.5196850393700787
          },
          {
            "duration": 0.3244046645833123,
            "durationTicks": 218,
            "midi": 78,
            "name": "F#5",
            "ticks": 138480,
            "time": 206.07136675,
            "velocity": 0.5984251968503937
          },
          {
            "duration": 0.3244046645833123,
            "durationTicks": 218,
            "midi": 78,
            "name": "F#5",
            "ticks": 138720,
            "time": 206.42850950000002,
            "velocity": 0.5669291338582677
          },
          {
            "duration": 0.3244046645833407,
            "durationTicks": 218,
            "midi": 78,
            "name": "F#5",
            "ticks": 138960,
            "time": 206.78565225,
            "velocity": 0.5748031496062992
          },
          {
            "duration": 0.3244046645833123,
            "durationTicks": 218,
            "midi": 76,
            "name": "E5",
            "ticks": 139200,
            "time": 207.142795,
            "velocity": 0.5590551181102362
          },
          {
            "duration": 0.3244046645833123,
            "durationTicks": 218,
            "midi": 76,
            "name": "E5",
            "ticks": 139440,
            "time": 207.49993775000002,
            "velocity": 0.5590551181102362
          },
          {
            "duration": 0.3244046645833407,
            "durationTicks": 218,
            "midi": 76,
            "name": "E5",
            "ticks": 139680,
            "time": 207.8570805,
            "velocity": 0.5590551181102362
          },
          {
            "duration": 0.3244046645833123,
            "durationTicks": 218,
            "midi": 76,
            "name": "E5",
            "ticks": 139920,
            "time": 208.21422325,
            "velocity": 0.5748031496062992
          },
          {
            "duration": 0.3244046645833123,
            "durationTicks": 218,
            "midi": 74,
            "name": "D5",
            "ticks": 140160,
            "time": 208.571366,
            "velocity": 0.5511811023622047
          },
          {
            "duration": 0.3244046645833407,
            "durationTicks": 218,
            "midi": 74,
            "name": "D5",
            "ticks": 140400,
            "time": 208.92850875,
            "velocity": 0.5590551181102362
          },
          {
            "duration": 0.3244046645833407,
            "durationTicks": 218,
            "midi": 74,
            "name": "D5",
            "ticks": 140640,
            "time": 209.2856515,
            "velocity": 0.5590551181102362
          },
          {
            "duration": 0.3244046645833123,
            "durationTicks": 218,
            "midi": 74,
            "name": "D5",
            "ticks": 140880,
            "time": 209.64279425,
            "velocity": 0.5669291338582677
          },
          {
            "duration": 0.3244046645833123,
            "durationTicks": 218,
            "midi": 81,
            "name": "A5",
            "ticks": 141120,
            "time": 209.99993700000002,
            "velocity": 0.6141732283464567
          },
          {
            "duration": 0.3244046645833407,
            "durationTicks": 218,
            "midi": 81,
            "name": "A5",
            "ticks": 141360,
            "time": 210.35707975,
            "velocity": 0.5669291338582677
          },
          {
            "duration": 0.3244046645833123,
            "durationTicks": 218,
            "midi": 81,
            "name": "A5",
            "ticks": 141600,
            "time": 210.7142225,
            "velocity": 0.5669291338582677
          },
          {
            "duration": 0.3244046645833123,
            "durationTicks": 218,
            "midi": 81,
            "name": "A5",
            "ticks": 141840,
            "time": 211.07136525,
            "velocity": 0.5748031496062992
          },
          {
            "duration": 0.3244046645833407,
            "durationTicks": 218,
            "midi": 83,
            "name": "B5",
            "ticks": 142080,
            "time": 211.428508,
            "velocity": 0.5511811023622047
          },
          {
            "duration": 0.3244046645833123,
            "durationTicks": 218,
            "midi": 83,
            "name": "B5",
            "ticks": 142320,
            "time": 211.78565075,
            "velocity": 0.5748031496062992
          },
          {
            "duration": 0.3244046645833123,
            "durationTicks": 218,
            "midi": 83,
            "name": "B5",
            "ticks": 142560,
            "time": 212.1427935,
            "velocity": 0.5590551181102362
          },
          {
            "duration": 0.3244046645833123,
            "durationTicks": 218,
            "midi": 83,
            "name": "B5",
            "ticks": 142800,
            "time": 212.49993625000002,
            "velocity": 0.5511811023622047
          },
          {
            "duration": 0.3244046645833407,
            "durationTicks": 218,
            "midi": 81,
            "name": "A5",
            "ticks": 143040,
            "time": 212.857079,
            "velocity": 0.5511811023622047
          },
          {
            "duration": 0.3244046645833123,
            "durationTicks": 218,
            "midi": 81,
            "name": "A5",
            "ticks": 143280,
            "time": 213.21422175,
            "velocity": 0.5511811023622047
          },
          {
            "duration": 0.3244046645833123,
            "durationTicks": 218,
            "midi": 81,
            "name": "A5",
            "ticks": 143520,
            "time": 213.57136450000002,
            "velocity": 0.5748031496062992
          },
          {
            "duration": 0.3244046645833407,
            "durationTicks": 218,
            "midi": 81,
            "name": "A5",
            "ticks": 143760,
            "time": 213.92850725,
            "velocity": 0.5590551181102362
          },
          {
            "duration": 0.3244046645833123,
            "durationTicks": 218,
            "midi": 83,
            "name": "B5",
            "ticks": 144000,
            "time": 214.28565,
            "velocity": 0.5748031496062992
          },
          {
            "duration": 0.3244046645833123,
            "durationTicks": 218,
            "midi": 83,
            "name": "B5",
            "ticks": 144240,
            "time": 214.64279275,
            "velocity": 0.5433070866141733
          },
          {
            "duration": 0.3244046645833407,
            "durationTicks": 218,
            "midi": 83,
            "name": "B5",
            "ticks": 144480,
            "time": 214.9999355,
            "velocity": 0.5590551181102362
          },
          {
            "duration": 0.3244046645833407,
            "durationTicks": 218,
            "midi": 83,
            "name": "B5",
            "ticks": 144720,
            "time": 215.35707825,
            "velocity": 0.5511811023622047
          },
          {
            "duration": 0.3244046645833123,
            "durationTicks": 218,
            "midi": 85,
            "name": "C#6",
            "ticks": 144960,
            "time": 215.714221,
            "velocity": 0.5748031496062992
          },
          {
            "duration": 0.3244046645833123,
            "durationTicks": 218,
            "midi": 73,
            "name": "C#5",
            "ticks": 145200,
            "time": 216.07136375000002,
            "velocity": 0.5039370078740157
          },
          {
            "duration": 0.3244046645833407,
            "durationTicks": 218,
            "midi": 73,
            "name": "C#5",
            "ticks": 145440,
            "time": 216.4285065,
            "velocity": 0.6062992125984252
          },
          {
            "duration": 0.3244046645833123,
            "durationTicks": 218,
            "midi": 73,
            "name": "C#5",
            "ticks": 145680,
            "time": 216.78564925,
            "velocity": 0.6456692913385826
          },
          {
            "duration": 0.3244046645833123,
            "durationTicks": 218,
            "midi": 74,
            "name": "D5",
            "ticks": 145920,
            "time": 217.14279200000001,
            "velocity": 0.6692913385826772
          },
          {
            "duration": 0.1785713750000184,
            "durationTicks": 120,
            "midi": 62,
            "name": "D4",
            "ticks": 146160,
            "time": 217.49993475,
            "velocity": 0.5748031496062992
          },
          {
            "duration": 0.17857137499998998,
            "durationTicks": 120,
            "midi": 64,
            "name": "E4",
            "ticks": 146280,
            "time": 217.678506125,
            "velocity": 0.6614173228346457
          },
          {
            "duration": 0.33482132812500254,
            "durationTicks": 225,
            "midi": 66,
            "name": "F#4",
            "ticks": 146400,
            "time": 217.8570775,
            "velocity": 0.6771653543307087
          },
          {
            "duration": 0.3244046645833123,
            "durationTicks": 218,
            "midi": 62,
            "name": "D4",
            "ticks": 146640,
            "time": 218.21422025,
            "velocity": 0.6377952755905512
          },
          {
            "duration": 0.3244046645833123,
            "durationTicks": 218,
            "midi": 61,
            "name": "C#4",
            "ticks": 146880,
            "time": 218.57136300000002,
            "velocity": 0.6535433070866141
          },
          {
            "duration": 0.1785713750000184,
            "durationTicks": 120,
            "midi": 73,
            "name": "C#5",
            "ticks": 147120,
            "time": 218.92850575,
            "velocity": 0.7322834645669292
          },
          {
            "duration": 0.17857137499998998,
            "durationTicks": 120,
            "midi": 74,
            "name": "D5",
            "ticks": 147240,
            "time": 219.10707712500002,
            "velocity": 0.6692913385826772
          },
          {
            "duration": 0.33482132812500254,
            "durationTicks": 225,
            "midi": 76,
            "name": "E5",
            "ticks": 147360,
            "time": 219.2856485,
            "velocity": 0.6771653543307087
          },
          {
            "duration": 0.3244046645833123,
            "durationTicks": 218,
            "midi": 73,
            "name": "C#5",
            "ticks": 147600,
            "time": 219.64279125000002,
            "velocity": 0.6377952755905512
          },
          {
            "duration": 0.3244046645833407,
            "durationTicks": 218,
            "midi": 71,
            "name": "B4",
            "ticks": 147840,
            "time": 219.999934,
            "velocity": 0.6456692913385826
          },
          {
            "duration": 0.17857137499998998,
            "durationTicks": 120,
            "midi": 59,
            "name": "B3",
            "ticks": 148080,
            "time": 220.35707675,
            "velocity": 0.6062992125984252
          },
          {
            "duration": 0.1785713750000184,
            "durationTicks": 120,
            "midi": 61,
            "name": "C#4",
            "ticks": 148200,
            "time": 220.535648125,
            "velocity": 0.6771653543307087
          },
          {
            "duration": 0.33482132812500254,
            "durationTicks": 225,
            "midi": 62,
            "name": "D4",
            "ticks": 148320,
            "time": 220.7142195,
            "velocity": 0.6771653543307087
          },
          {
            "duration": 0.3244046645833407,
            "durationTicks": 218,
            "midi": 59,
            "name": "B3",
            "ticks": 148560,
            "time": 221.07136225,
            "velocity": 0.6692913385826772
          },
          {
            "duration": 0.3244046645833407,
            "durationTicks": 218,
            "midi": 61,
            "name": "C#4",
            "ticks": 148800,
            "time": 221.428505,
            "velocity": 0.6692913385826772
          },
          {
            "duration": 0.17857137499998998,
            "durationTicks": 120,
            "midi": 69,
            "name": "A4",
            "ticks": 149040,
            "time": 221.78564775,
            "velocity": 0.7244094488188977
          },
          {
            "duration": 0.1785713750000184,
            "durationTicks": 120,
            "midi": 67,
            "name": "G4",
            "ticks": 149160,
            "time": 221.964219125,
            "velocity": 0.6299212598425197
          },
          {
            "duration": 0.3348213281249741,
            "durationTicks": 225,
            "midi": 66,
            "name": "F#4",
            "ticks": 149280,
            "time": 222.14279050000002,
            "velocity": 0.6377952755905512
          },
          {
            "duration": 0.3244046645833407,
            "durationTicks": 218,
            "midi": 64,
            "name": "E4",
            "ticks": 149520,
            "time": 222.49993325,
            "velocity": 0.6377952755905512
          },
          {
            "duration": 0.3244046645833123,
            "durationTicks": 218,
            "midi": 62,
            "name": "D4",
            "ticks": 149760,
            "time": 222.857076,
            "velocity": 0.6535433070866141
          },
          {
            "duration": 0.17857137499998998,
            "durationTicks": 120,
            "midi": 66,
            "name": "F#4",
            "ticks": 150000,
            "time": 223.21421875000001,
            "velocity": 0.7007874015748031
          },
          {
            "duration": 0.17857137499998998,
            "durationTicks": 120,
            "midi": 64,
            "name": "E4",
            "ticks": 150120,
            "time": 223.392790125,
            "velocity": 0.6377952755905512
          },
          {
            "duration": 0.33482132812500254,
            "durationTicks": 225,
            "midi": 62,
            "name": "D4",
            "ticks": 150240,
            "time": 223.5713615,
            "velocity": 0.6456692913385826
          },
          {
            "duration": 0.3244046645833123,
            "durationTicks": 218,
            "midi": 67,
            "name": "G4",
            "ticks": 150480,
            "time": 223.92850425,
            "velocity": 0.7086614173228346
          },
          {
            "duration": 0.3244046645833123,
            "durationTicks": 218,
            "midi": 66,
            "name": "F#4",
            "ticks": 150720,
            "time": 224.285647,
            "velocity": 0.6456692913385826
          },
          {
            "duration": 0.1785713750000184,
            "durationTicks": 120,
            "midi": 62,
            "name": "D4",
            "ticks": 150960,
            "time": 224.64278975,
            "velocity": 0.6141732283464567
          },
          {
            "duration": 0.17857137499998998,
            "durationTicks": 120,
            "midi": 64,
            "name": "E4",
            "ticks": 151080,
            "time": 224.821361125,
            "velocity": 0.6771653543307087
          },
          {
            "duration": 0.33482132812500254,
            "durationTicks": 225,
            "midi": 66,
            "name": "F#4",
            "ticks": 151200,
            "time": 224.9999325,
            "velocity": 0.6771653543307087
          },
          {
            "duration": 0.3244046645833123,
            "durationTicks": 218,
            "midi": 69,
            "name": "A4",
            "ticks": 151440,
            "time": 225.35707525,
            "velocity": 0.6929133858267716
          },
          {
            "duration": 0.3244046645833123,
            "durationTicks": 218,
            "midi": 67,
            "name": "G4",
            "ticks": 151680,
            "time": 225.71421800000002,
            "velocity": 0.6535433070866141
          },
          {
            "duration": 0.1785713750000184,
            "durationTicks": 120,
            "midi": 71,
            "name": "B4",
            "ticks": 151920,
            "time": 226.07136075,
            "velocity": 0.6929133858267716
          },
          {
            "duration": 0.17857137499998998,
            "durationTicks": 120,
            "midi": 69,
            "name": "A4",
            "ticks": 152040,
            "time": 226.24993212500002,
            "velocity": 0.6456692913385826
          },
          {
            "duration": 0.33482132812500254,
            "durationTicks": 225,
            "midi": 67,
            "name": "G4",
            "ticks": 152160,
            "time": 226.4285035,
            "velocity": 0.6377952755905512
          },
          {
            "duration": 0.3244046645833123,
            "durationTicks": 218,
            "midi": 66,
            "name": "F#4",
            "ticks": 152400,
            "time": 226.78564625,
            "velocity": 0.6456692913385826
          },
          {
            "duration": 0.3244046645833407,
            "durationTicks": 218,
            "midi": 64,
            "name": "E4",
            "ticks": 152640,
            "time": 227.142789,
            "velocity": 0.6535433070866141
          },
          {
            "duration": 0.17857137499998998,
            "durationTicks": 120,
            "midi": 69,
            "name": "A4",
            "ticks": 152880,
            "time": 227.49993175,
            "velocity": 0.7086614173228346
          },
          {
            "duration": 0.1785713750000184,
            "durationTicks": 120,
            "midi": 67,
            "name": "G4",
            "ticks": 153000,
            "time": 227.678503125,
            "velocity": 0.6456692913385826
          },
          {
            "duration": 0.33482132812500254,
            "durationTicks": 225,
            "midi": 66,
            "name": "F#4",
            "ticks": 153120,
            "time": 227.8570745,
            "velocity": 0.6456692913385826
          },
          {
            "duration": 0.3244046645833123,
            "durationTicks": 218,
            "midi": 64,
            "name": "E4",
            "ticks": 153360,
            "time": 228.21421725000002,
            "velocity": 0.6377952755905512
          },
          {
            "duration": 0.3244046645833407,
            "durationTicks": 218,
            "midi": 66,
            "name": "F#4",
            "ticks": 153600,
            "time": 228.57136,
            "velocity": 0.6850393700787402
          },
          {
            "duration": 0.17857137499998998,
            "durationTicks": 120,
            "midi": 74,
            "name": "D5",
            "ticks": 153840,
            "time": 228.92850275,
            "velocity": 0.7086614173228346
          },
          {
            "duration": 0.1785713750000184,
            "durationTicks": 120,
            "midi": 73,
            "name": "C#5",
            "ticks": 153960,
            "time": 229.107074125,
            "velocity": 0.6456692913385826
          },
          {
            "duration": 0.33482132812500254,
            "durationTicks": 225,
            "midi": 74,
            "name": "D5",
            "ticks": 154080,
            "time": 229.28564550000002,
            "velocity": 0.6850393700787402
          },
          {
            "duration": 0.3244046645833407,
            "durationTicks": 218,
            "midi": 66,
            "name": "F#4",
            "ticks": 154320,
            "time": 229.64278825,
            "velocity": 0.5984251968503937
          },
          {
            "duration": 0.3244046645833123,
            "durationTicks": 218,
            "midi": 69,
            "name": "A4",
            "ticks": 154560,
            "time": 229.999931,
            "velocity": 0.6850393700787402
          },
          {
            "duration": 0.17857137499998998,
            "durationTicks": 120,
            "midi": 69,
            "name": "A4",
            "ticks": 154800,
            "time": 230.35707375,
            "velocity": 0.6456692913385826
          },
          {
            "duration": 0.17857137499998998,
            "durationTicks": 120,
            "midi": 71,
            "name": "B4",
            "ticks": 154920,
            "time": 230.535645125,
            "velocity": 0.6771653543307087
          },
          {
            "duration": 0.33482132812500254,
            "durationTicks": 225,
            "midi": 73,
            "name": "C#5",
            "ticks": 155040,
            "time": 230.7142165,
            "velocity": 0.6929133858267716
          },
          {
            "duration": 0.3244046645833407,
            "durationTicks": 218,
            "midi": 69,
            "name": "A4",
            "ticks": 155280,
            "time": 231.07135925,
            "velocity": 0.6141732283464567
          },
          {
            "duration": 0.3244046645833123,
            "durationTicks": 218,
            "midi": 66,
            "name": "F#4",
            "ticks": 155520,
            "time": 231.428502,
            "velocity": 0.6299212598425197
          },
          {
            "duration": 0.17857137499998998,
            "durationTicks": 120,
            "midi": 74,
            "name": "D5",
            "ticks": 155760,
            "time": 231.78564475000002,
            "velocity": 0.7401574803149606
          },
          {
            "duration": 0.17857137499998998,
            "durationTicks": 120,
            "midi": 76,
            "name": "E5",
            "ticks": 155880,
            "time": 231.964216125,
            "velocity": 0.6929133858267716
          },
          {
            "duration": 0.33482132812500254,
            "durationTicks": 225,
            "midi": 78,
            "name": "F#5",
            "ticks": 156000,
            "time": 232.1427875,
            "velocity": 0.6850393700787402
          },
          {
            "duration": 0.3244046645833123,
            "durationTicks": 218,
            "midi": 74,
            "name": "D5",
            "ticks": 156240,
            "time": 232.49993025,
            "velocity": 0.6456692913385826
          },
          {
            "duration": 0.3244046645833123,
            "durationTicks": 218,
            "midi": 78,
            "name": "F#5",
            "ticks": 156480,
            "time": 232.857073,
            "velocity": 0.7165354330708661
          },
          {
            "duration": 0.1785713750000184,
            "durationTicks": 120,
            "midi": 78,
            "name": "F#5",
            "ticks": 156720,
            "time": 233.21421575,
            "velocity": 0.6692913385826772
          },
          {
            "duration": 0.17857137499998998,
            "durationTicks": 120,
            "midi": 76,
            "name": "E5",
            "ticks": 156840,
            "time": 233.392787125,
            "velocity": 0.6535433070866141
          },
          {
            "duration": 0.33482132812500254,
            "durationTicks": 225,
            "midi": 74,
            "name": "D5",
            "ticks": 156960,
            "time": 233.5713585,
            "velocity": 0.6377952755905512
          },
          {
            "duration": 0.3244046645833123,
            "durationTicks": 218,
            "midi": 73,
            "name": "C#5",
            "ticks": 157200,
            "time": 233.92850125,
            "velocity": 0.6377952755905512
          },
          {
            "duration": 0.3244046645833123,
            "durationTicks": 218,
            "midi": 71,
            "name": "B4",
            "ticks": 157440,
            "time": 234.28564400000002,
            "velocity": 0.6456692913385826
          },
          {
            "duration": 0.16220233229165615,
            "durationTicks": 109,
            "midi": 71,
            "name": "B4",
            "ticks": 157680,
            "time": 234.64278675,
            "velocity": 0.6535433070866141
          },
          {
            "duration": 0.16220233229165615,
            "durationTicks": 109,
            "midi": 69,
            "name": "A4",
            "ticks": 157800,
            "time": 234.82135812500002,
            "velocity": 0.6456692913385826
          },
          {
            "duration": 0.3244046645833123,
            "durationTicks": 218,
            "midi": 71,
            "name": "B4",
            "ticks": 157920,
            "time": 234.9999295,
            "velocity": 0.6692913385826772
          },
          {
            "duration": 0.3244046645833123,
            "durationTicks": 218,
            "midi": 73,
            "name": "C#5",
            "ticks": 158160,
            "time": 235.35707225000002,
            "velocity": 0.6692913385826772
          },
          {
            "duration": 0.3244046645833407,
            "durationTicks": 218,
            "midi": 74,
            "name": "D5",
            "ticks": 158400,
            "time": 235.714215,
            "velocity": 0.6771653543307087
          },
          {
            "duration": 0.16220233229165615,
            "durationTicks": 109,
            "midi": 78,
            "name": "F#5",
            "ticks": 158640,
            "time": 236.07135775,
            "velocity": 0.6929133858267716
          },
          {
            "duration": 0.16220233229168457,
            "durationTicks": 109,
            "midi": 76,
            "name": "E5",
            "ticks": 158760,
            "time": 236.249929125,
            "velocity": 0.6377952755905512
          },
          {
            "duration": 0.3244046645833123,
            "durationTicks": 218,
            "midi": 74,
            "name": "D5",
            "ticks": 158880,
            "time": 236.4285005,
            "velocity": 0.6456692913385826
          },
          {
            "duration": 0.3244046645833407,
            "durationTicks": 218,
            "midi": 78,
            "name": "F#5",
            "ticks": 159120,
            "time": 236.78564325,
            "velocity": 0.7007874015748031
          },
          {
            "duration": 0.3244046645833407,
            "durationTicks": 218,
            "midi": 79,
            "name": "G5",
            "ticks": 159360,
            "time": 237.142786,
            "velocity": 0.6929133858267716
          },
          {
            "duration": 0.16220233229165615,
            "durationTicks": 109,
            "midi": 74,
            "name": "D5",
            "ticks": 159600,
            "time": 237.49992875,
            "velocity": 0.6141732283464567
          },
          {
            "duration": 0.16220233229165615,
            "durationTicks": 109,
            "midi": 73,
            "name": "C#5",
            "ticks": 159720,
            "time": 237.678500125,
            "velocity": 0.6535433070866141
          },
          {
            "duration": 0.3244046645833123,
            "durationTicks": 218,
            "midi": 71,
            "name": "B4",
            "ticks": 159840,
            "time": 237.85707150000002,
            "velocity": 0.6299212598425197
          },
          {
            "duration": 0.3244046645833407,
            "durationTicks": 218,
            "midi": 71,
            "name": "B4",
            "ticks": 160080,
            "time": 238.21421425,
            "velocity": 0.6771653543307087
          },
          {
            "duration": 0.3244046645833123,
            "durationTicks": 218,
            "midi": 69,
            "name": "A4",
            "ticks": 160320,
            "time": 238.571357,
            "velocity": 0.6299212598425197
          },
          {
            "duration": 0.3244046645833123,
            "durationTicks": 218,
            "midi": 64,
            "name": "E4",
            "ticks": 160560,
            "time": 238.92849975000001,
            "velocity": 0.6220472440944882
          },
          {
            "duration": 0.3244046645833407,
            "durationTicks": 218,
            "midi": 69,
            "name": "A4",
            "ticks": 160800,
            "time": 239.2856425,
            "velocity": 0.7165354330708661
          },
          {
            "duration": 0.3244046645833123,
            "durationTicks": 218,
            "midi": 69,
            "name": "A4",
            "ticks": 161040,
            "time": 239.64278525,
            "velocity": 0.6535433070866141
          },
          {
            "duration": 1.9315470395833074,
            "durationTicks": 1298,
            "midi": 69,
            "name": "A4",
            "ticks": 161280,
            "time": 239.999928,
            "velocity": 0.6692913385826772
          },
          {
            "duration": 0.6473212343749992,
            "durationTicks": 435,
            "midi": 69,
            "name": "A4",
            "ticks": 162720,
            "time": 242.1427845,
            "velocity": 0.6535433070866141
          },
          {
            "duration": 1.9315470395833358,
            "durationTicks": 1298,
            "midi": 62,
            "name": "D4",
            "ticks": 163200,
            "time": 242.85707,
            "velocity": 0.5905511811023622
          },
          {
            "duration": 0.6473212343749992,
            "durationTicks": 435,
            "midi": 69,
            "name": "A4",
            "ticks": 164640,
            "time": 244.99992650000002,
            "velocity": 0.7165354330708661
          },
          {
            "duration": 1.2886900895833548,
            "durationTicks": 866,
            "midi": 67,
            "name": "G4",
            "ticks": 165120,
            "time": 245.714212,
            "velocity": 0.6456692913385826
          },
          {
            "duration": 1.2886900895833264,
            "durationTicks": 866,
            "midi": 69,
            "name": "A4",
            "ticks": 166080,
            "time": 247.142783,
            "velocity": 0.6929133858267716
          },
          {
            "duration": 0.6473212343749992,
            "durationTicks": 435,
            "midi": 67,
            "name": "G4",
            "ticks": 167040,
            "time": 248.571354,
            "velocity": 0.6456692913385826
          },
          {
            "duration": 0.6473212343749992,
            "durationTicks": 435,
            "midi": 62,
            "name": "D4",
            "ticks": 167520,
            "time": 249.2856395,
            "velocity": 0.6220472440944882
          },
          {
            "duration": 0.9657735197916395,
            "durationTicks": 649,
            "midi": 62,
            "name": "D4",
            "ticks": 168000,
            "time": 249.99992500000002,
            "velocity": 0.6614173228346457
          },
          {
            "duration": 0.3244046645833123,
            "durationTicks": 218,
            "midi": 61,
            "name": "C#4",
            "ticks": 168720,
            "time": 251.07135325000002,
            "velocity": 0.6535433070866141
          },
          {
            "duration": 0.6473212343749992,
            "durationTicks": 435,
            "midi": 62,
            "name": "D4",
            "ticks": 168960,
            "time": 251.428496,
            "velocity": 0.6771653543307087
          },
          {
            "duration": 0.6473212343749992,
            "durationTicks": 435,
            "midi": 74,
            "name": "D5",
            "ticks": 169440,
            "time": 252.1427815,
            "velocity": 0.889763779527559
          },
          {
            "duration": 1.2886900895833548,
            "durationTicks": 866,
            "midi": 73,
            "name": "C#5",
            "ticks": 169920,
            "time": 252.857067,
            "velocity": 0.7716535433070866
          },
          {
            "duration": 1.2886900895833264,
            "durationTicks": 866,
            "midi": 71,
            "name": "B4",
            "ticks": 170880,
            "time": 254.285638,
            "velocity": 0.7322834645669292
          },
          {
            "duration": 1.2886900895833548,
            "durationTicks": 866,
            "midi": 69,
            "name": "A4",
            "ticks": 171840,
            "time": 255.714209,
            "velocity": 0.6929133858267716
          },
          {
            "duration": 0.9657735197916395,
            "durationTicks": 649,
            "midi": 62,
            "name": "D4",
            "ticks": 172800,
            "time": 257.14278,
            "velocity": 0.5984251968503937
          },
          {
            "duration": 0.3244046645833123,
            "durationTicks": 218,
            "midi": 64,
            "name": "E4",
            "ticks": 173520,
            "time": 258.21420825,
            "velocity": 0.6850393700787402
          },
          {
            "duration": 1.2886900895833264,
            "durationTicks": 866,
            "midi": 66,
            "name": "F#4",
            "ticks": 173760,
            "time": 258.571351,
            "velocity": 0.6771653543307087
          },
          {
            "duration": 1.2886900895833264,
            "durationTicks": 866,
            "midi": 74,
            "name": "D5",
            "ticks": 174720,
            "time": 259.999922,
            "velocity": 0.7165354330708661
          },
          {
            "duration": 0.9657735197916395,
            "durationTicks": 649,
            "midi": 64,
            "name": "E4",
            "ticks": 175680,
            "time": 261.428493,
            "velocity": 0.5984251968503937
          },
          {
            "duration": 0.3244046645833123,
            "durationTicks": 218,
            "midi": 64,
            "name": "E4",
            "ticks": 176400,
            "time": 262.49992125,
            "velocity": 0.6614173228346457
          },
          {
            "duration": 0.9657735197916963,
            "durationTicks": 649,
            "midi": 66,
            "name": "F#4",
            "ticks": 176640,
            "time": 262.857064,
            "velocity": 0.6929133858267716
          },
          {
            "duration": 0.3244046645833123,
            "durationTicks": 218,
            "midi": 78,
            "name": "F#5",
            "ticks": 177360,
            "time": 263.92849225000003,
            "velocity": 0.6299212598425197
          },
          {
            "duration": 0.363095129166652,
            "durationTicks": 244,
            "midi": 78,
            "name": "F#5",
            "ticks": 177600,
            "time": 264.285635,
            "velocity": 0.5669291338582677
          },
          {
            "duration": 0.363095129166652,
            "durationTicks": 244,
            "midi": 79,
            "name": "G5",
            "ticks": 177840,
            "time": 264.64277775,
            "velocity": 0.5826771653543307
          },
          {
            "duration": 0.363095129166652,
            "durationTicks": 244,
            "midi": 78,
            "name": "F#5",
            "ticks": 178080,
            "time": 264.99992050000003,
            "velocity": 0.5590551181102362
          },
          {
            "duration": 0.3348213281249741,
            "durationTicks": 225,
            "midi": 76,
            "name": "E5",
            "ticks": 178320,
            "time": 265.35706325,
            "velocity": 0.5354330708661418
          },
          {
            "duration": 0.9657735197916963,
            "durationTicks": 649,
            "midi": 74,
            "name": "D5",
            "ticks": 178560,
            "time": 265.714206,
            "velocity": 0.5590551181102362
          },
          {
            "duration": 0.32440466458336914,
            "durationTicks": 218,
            "midi": 74,
            "name": "D5",
            "ticks": 179280,
            "time": 266.78563425,
            "velocity": 0.5590551181102362
          },
          {
            "duration": 0.363095129166652,
            "durationTicks": 244,
            "midi": 74,
            "name": "D5",
            "ticks": 179520,
            "time": 267.142777,
            "velocity": 0.5511811023622047
          },
          {
            "duration": 0.363095129166652,
            "durationTicks": 244,
            "midi": 76,
            "name": "E5",
            "ticks": 179760,
            "time": 267.49991975,
            "velocity": 0.5511811023622047
          },
          {
            "duration": 0.36309512916670883,
            "durationTicks": 244,
            "midi": 74,
            "name": "D5",
            "ticks": 180000,
            "time": 267.8570625,
            "velocity": 0.5590551181102362
          },
          {
            "duration": 0.3348213281249741,
            "durationTicks": 225,
            "midi": 73,
            "name": "C#5",
            "ticks": 180240,
            "time": 268.21420525,
            "velocity": 0.5511811023622047
          },
          {
            "duration": 1.2886900895833264,
            "durationTicks": 866,
            "midi": 71,
            "name": "B4",
            "ticks": 180480,
            "time": 268.571348,
            "velocity": 0.5511811023622047
          },
          {
            "duration": 1.2886900895833264,
            "durationTicks": 866,
            "midi": 74,
            "name": "D5",
            "ticks": 181440,
            "time": 269.99991900000003,
            "velocity": 0.5826771653543307
          },
          {
            "duration": 0.363095129166652,
            "durationTicks": 244,
            "midi": 74,
            "name": "D5",
            "ticks": 182400,
            "time": 271.42849,
            "velocity": 0.5433070866141733
          },
          {
            "duration": 0.363095129166652,
            "durationTicks": 244,
            "midi": 72,
            "name": "C5",
            "ticks": 182640,
            "time": 271.78563275,
            "velocity": 0.5275590551181102
          },
          {
            "duration": 0.363095129166652,
            "durationTicks": 244,
            "midi": 71,
            "name": "B4",
            "ticks": 182880,
            "time": 272.1427755,
            "velocity": 0.5511811023622047
          },
          {
            "duration": 0.3348213281249741,
            "durationTicks": 225,
            "midi": 72,
            "name": "C5",
            "ticks": 183120,
            "time": 272.49991825,
            "velocity": 0.5748031496062992
          },
          {
            "duration": 0.9657735197916963,
            "durationTicks": 649,
            "midi": 69,
            "name": "A4",
            "ticks": 183360,
            "time": 272.857061,
            "velocity": 0.5433070866141733
          },
          {
            "duration": 0.32440466458336914,
            "durationTicks": 218,
            "midi": 69,
            "name": "A4",
            "ticks": 184080,
            "time": 273.92848925,
            "velocity": 0.5669291338582677
          },
          {
            "duration": 0.9657735197916395,
            "durationTicks": 649,
            "midi": 69,
            "name": "A4",
            "ticks": 184320,
            "time": 274.285632,
            "velocity": 0.5748031496062992
          },
          {
            "duration": 0.3244046645833123,
            "durationTicks": 218,
            "midi": 81,
            "name": "A5",
            "ticks": 185040,
            "time": 275.35706025,
            "velocity": 0.6299212598425197
          },
          {
            "duration": 0.363095129166652,
            "durationTicks": 244,
            "midi": 81,
            "name": "A5",
            "ticks": 185280,
            "time": 275.714203,
            "velocity": 0.5590551181102362
          },
          {
            "duration": 0.363095129166652,
            "durationTicks": 244,
            "midi": 83,
            "name": "B5",
            "ticks": 185520,
            "time": 276.07134575000003,
            "velocity": 0.5669291338582677
          },
          {
            "duration": 0.363095129166652,
            "durationTicks": 244,
            "midi": 81,
            "name": "A5",
            "ticks": 185760,
            "time": 276.4284885,
            "velocity": 0.5669291338582677
          },
          {
            "duration": 0.33482132812503096,
            "durationTicks": 225,
            "midi": 79,
            "name": "G5",
            "ticks": 186000,
            "time": 276.78563125,
            "velocity": 0.5511811023622047
          },
          {
            "duration": 0.9657735197916395,
            "durationTicks": 649,
            "midi": 78,
            "name": "F#5",
            "ticks": 186240,
            "time": 277.14277400000003,
            "velocity": 0.5590551181102362
          },
          {
            "duration": 0.3244046645833123,
            "durationTicks": 218,
            "midi": 78,
            "name": "F#5",
            "ticks": 186960,
            "time": 278.21420225,
            "velocity": 0.5590551181102362
          },
          {
            "duration": 0.363095129166652,
            "durationTicks": 244,
            "midi": 78,
            "name": "F#5",
            "ticks": 187200,
            "time": 278.571345,
            "velocity": 0.5748031496062992
          },
          {
            "duration": 0.363095129166652,
            "durationTicks": 244,
            "midi": 79,
            "name": "G5",
            "ticks": 187440,
            "time": 278.92848775,
            "velocity": 0.5748031496062992
          },
          {
            "duration": 0.363095129166652,
            "durationTicks": 244,
            "midi": 78,
            "name": "F#5",
            "ticks": 187680,
            "time": 279.2856305,
            "velocity": 0.5354330708661418
          },
          {
            "duration": 0.3348213281249741,
            "durationTicks": 225,
            "midi": 76,
            "name": "E5",
            "ticks": 187920,
            "time": 279.64277325,
            "velocity": 0.5354330708661418
          },
          {
            "duration": 0.36309512916670883,
            "durationTicks": 244,
            "midi": 74,
            "name": "D5",
            "ticks": 188160,
            "time": 279.999916,
            "velocity": 0.5511811023622047
          },
          {
            "duration": 0.363095129166652,
            "durationTicks": 244,
            "midi": 72,
            "name": "C5",
            "ticks": 188400,
            "time": 280.35705875,
            "velocity": 0.5354330708661418
          },
          {
            "duration": 0.363095129166652,
            "durationTicks": 244,
            "midi": 71,
            "name": "B4",
            "ticks": 188640,
            "time": 280.7142015,
            "velocity": 0.5433070866141733
          },
          {
            "duration": 0.33482132812503096,
            "durationTicks": 225,
            "midi": 72,
            "name": "C5",
            "ticks": 188880,
            "time": 281.07134425,
            "velocity": 0.5590551181102362
          },
          {
            "duration": 0.9657735197916395,
            "durationTicks": 649,
            "midi": 69,
            "name": "A4",
            "ticks": 189120,
            "time": 281.428487,
            "velocity": 0.5354330708661418
          },
          {
            "duration": 0.3244046645833123,
            "durationTicks": 218,
            "midi": 69,
            "name": "A4",
            "ticks": 189840,
            "time": 282.49991525,
            "velocity": 0.5826771653543307
          },
          {
            "duration": 0.6473212343749992,
            "durationTicks": 435,
            "midi": 67,
            "name": "G4",
            "ticks": 190080,
            "time": 282.857058,
            "velocity": 0.5433070866141733
          },
          {
            "duration": 0.6473212343749992,
            "durationTicks": 435,
            "midi": 74,
            "name": "D5",
            "ticks": 190560,
            "time": 283.5713435,
            "velocity": 0.6299212598425197
          },
          {
            "duration": 0.9657735197916395,
            "durationTicks": 649,
            "midi": 73,
            "name": "C#5",
            "ticks": 191040,
            "time": 284.28562900000003,
            "velocity": 0.5433070866141733
          },
          {
            "duration": 0.3244046645833123,
            "durationTicks": 218,
            "midi": 73,
            "name": "C#5",
            "ticks": 191760,
            "time": 285.35705725,
            "velocity": 0.5748031496062992
          },
          {
            "duration": 0.6473212343749992,
            "durationTicks": 435,
            "midi": 74,
            "name": "D5",
            "ticks": 192000,
            "time": 285.7142,
            "velocity": 0.5984251968503937
          },
          {
            "duration": 1.2886900895833264,
            "durationTicks": 866,
            "midi": 74,
            "name": "D5",
            "ticks": 192480,
            "time": 286.4284855,
            "velocity": 0.6614173228346457
          },
          {
            "duration": 1.2886900895833264,
            "durationTicks": 866,
            "midi": 73,
            "name": "C#5",
            "ticks": 193440,
            "time": 287.8570565,
            "velocity": 0.6692913385826772
          },
          {
            "duration": 1.2886900895833264,
            "durationTicks": 866,
            "midi": 71,
            "name": "B4",
            "ticks": 194400,
            "time": 289.28562750000003,
            "velocity": 0.6456692913385826
          },
          {
            "duration": 1.361606734375016,
            "durationTicks": 915,
            "midi": 69,
            "name": "A4",
            "ticks": 195360,
            "time": 290.7141985,
            "velocity": 0.6220472440944882
          },
          {
            "duration": 1.2886900895833833,
            "durationTicks": 866,
            "midi": 67,
            "name": "G4",
            "ticks": 196320,
            "time": 292.1427695,
            "velocity": 0.6456692913385826
          },
          {
            "duration": 0.6473212343749992,
            "durationTicks": 435,
            "midi": 66,
            "name": "F#4",
            "ticks": 197280,
            "time": 293.5713405,
            "velocity": 0.6377952755905512
          },
          {
            "duration": 1.0877972927083874,
            "durationTicks": 731,
            "midi": 66,
            "name": "F#4",
            "ticks": 197760,
            "time": 294.285626,
            "velocity": 0.6614173228346457
          },
          {
            "duration": 0.3348213281249741,
            "durationTicks": 225,
            "midi": 64,
            "name": "E4",
            "ticks": 198480,
            "time": 295.35705425000003,
            "velocity": 0.6299212598425197
          },
          {
            "duration": 1.2886900895833264,
            "durationTicks": 866,
            "midi": 64,
            "name": "E4",
            "ticks": 198720,
            "time": 295.714197,
            "velocity": 0.6692913385826772
          },
          {
            "duration": 0.6473212343749992,
            "durationTicks": 435,
            "midi": 66,
            "name": "F#4",
            "ticks": 199680,
            "time": 297.142768,
            "velocity": 0.6692913385826772
          },
          {
            "duration": 1.2886900895833264,
            "durationTicks": 866,
            "midi": 78,
            "name": "F#5",
            "ticks": 200160,
            "time": 297.8570535,
            "velocity": 0.7559055118110236
          },
          {
            "duration": 0.6473212343749992,
            "durationTicks": 435,
            "midi": 76,
            "name": "E5",
            "ticks": 201120,
            "time": 299.2856245,
            "velocity": 0.6535433070866141
          },
          {
            "duration": 0.6473212343749992,
            "durationTicks": 435,
            "midi": 74,
            "name": "D5",
            "ticks": 201600,
            "time": 299.99991,
            "velocity": 0.6456692913385826
          },
          {
            "duration": 1.2886900895833264,
            "durationTicks": 866,
            "midi": 86,
            "name": "D6",
            "ticks": 202080,
            "time": 300.7141955,
            "velocity": 0.7401574803149606
          },
          {
            "duration": 0.6473212343749992,
            "durationTicks": 435,
            "midi": 84,
            "name": "C6",
            "ticks": 203040,
            "time": 302.1427665,
            "velocity": 0.6535433070866141
          },
          {
            "duration": 1.2886900895833264,
            "durationTicks": 866,
            "midi": 83,
            "name": "B5",
            "ticks": 203520,
            "time": 302.857052,
            "velocity": 0.6377952755905512
          },
          {
            "duration": 0.6473212343749992,
            "durationTicks": 435,
            "midi": 86,
            "name": "D6",
            "ticks": 204480,
            "time": 304.285623,
            "velocity": 0.6929133858267716
          },
          {
            "duration": 0.6473212343749992,
            "durationTicks": 435,
            "midi": 83,
            "name": "B5",
            "ticks": 204960,
            "time": 304.9999085,
            "velocity": 0.6535433070866141
          },
          {
            "duration": 1.3201213791666646,
            "durationTicks": 866,
            "midi": 83,
            "name": "B5",
            "ticks": 205440,
            "time": 305.714194,
            "velocity": 0.7165354330708661
          },
          {
            "duration": 1.3201213791666646,
            "durationTicks": 866,
            "midi": 81,
            "name": "A5",
            "ticks": 206400,
            "time": 307.177608,
            "velocity": 0.7401574803149606
          },
          {
            "duration": 1.3531249999999773,
            "durationTicks": 866,
            "midi": 81,
            "name": "A5",
            "ticks": 207360,
            "time": 308.641022,
            "velocity": 0.7795275590551181
          },
          {
            "duration": 1.1421874999999773,
            "durationTicks": 731,
            "midi": 69,
            "name": "A4",
            "ticks": 208320,
            "time": 310.141022,
            "velocity": 0.7952755905511811
          },
          {
            "duration": 0.3814102499999876,
            "durationTicks": 244,
            "midi": 67,
            "name": "G4",
            "ticks": 209040,
            "time": 311.266022,
            "velocity": 0.7480314960629921
          },
          {
            "duration": 1.45993443750001,
            "durationTicks": 911,
            "midi": 66,
            "name": "F#4",
            "ticks": 209280,
            "time": 311.641022,
            "velocity": 0.8503937007874016
          },
          {
            "duration": 1.1820588510416883,
            "durationTicks": 731,
            "midi": 78,
            "name": "F#5",
            "ticks": 210240,
            "time": 313.179482,
            "velocity": 0.984251968503937
          },
          {
            "duration": 0.4013156958333184,
            "durationTicks": 244,
            "midi": 76,
            "name": "E5",
            "ticks": 210960,
            "time": 314.34344875,
            "velocity": 0.9763779527559056
          },
          {
            "duration": 2.2844053593750573,
            "durationTicks": 1365,
            "midi": 74,
            "name": "D5",
            "ticks": 211200,
            "time": 314.7381855,
            "velocity": 0.8661417322834646
          },
          {
            "duration": 0.7552080312499925,
            "durationTicks": 435,
            "midi": 74,
            "name": "D5",
            "ticks": 212640,
            "time": 317.14928000000003,
            "velocity": 0.9448818897637795
          },
          {
            "duration": 1.522618427083387,
            "durationTicks": 866,
            "midi": 74,
            "name": "D5",
            "ticks": 213120,
            "time": 317.982613,
            "velocity": 0.984251968503937
          },
          {
            "duration": 1.6362587500000245,
            "durationTicks": 866,
            "midi": 73,
            "name": "C#5",
            "ticks": 214080,
            "time": 319.67308850000006,
            "velocity": 0.8740157480314961
          },
          {
            "duration": 3.0069441437499904,
            "durationTicks": 866,
            "midi": 74,
            "name": "D5",
            "ticks": 215040,
            "time": 321.4929410000001,
            "velocity": 0.9291338582677166
          }
        ],
        "endOfTrackTicks": 215907
      },
      {
        "channel": 1,
        "controlChanges": {
          "7": [
            {
              "number": 7,
              "ticks": 0,
              "time": 0,
              "value": 0.7086614173228346
            }
          ],
          "10": [
            {
              "number": 10,
              "ticks": 0,
              "time": 0,
              "value": 0.7480314960629921
            }
          ],
          "64": [
            {
              "number": 64,
              "ticks": 0,
              "time": 0,
              "value": 0
            }
          ],
          "121": [
            {
              "number": 121,
              "ticks": 0,
              "time": 0,
              "value": 0
            }
          ]
        },
        "pitchBends": [],
        "instrument": {
          "family": "strings",
          "number": 42,
          "name": "cello"
        },
        "name": "Cello",
        "notes": [
          {
            "duration": 1.4568448010416666,
            "durationTicks": 979,
            "midi": 50,
            "name": "D3",
            "ticks": 0,
            "time": 0,
            "velocity": 0.6141732283464567
          },
          {
            "duration": 1.4568448010416668,
            "durationTicks": 979,
            "midi": 45,
            "name": "A2",
            "ticks": 960,
            "time": 1.428571,
            "velocity": 0.6535433070866141
          },
          {
            "duration": 1.4568448010416666,
            "durationTicks": 979,
            "midi": 47,
            "name": "B2",
            "ticks": 1920,
            "time": 2.857142,
            "velocity": 0.7244094488188977
          },
          {
            "duration": 1.4568448010416661,
            "durationTicks": 979,
            "midi": 42,
            "name": "F#2",
            "ticks": 2880,
            "time": 4.285713,
            "velocity": 0.7559055118110236
          },
          {
            "duration": 1.4568448010416661,
            "durationTicks": 979,
            "midi": 43,
            "name": "G2",
            "ticks": 3840,
            "time": 5.714284,
            "velocity": 0.7952755905511811
          },
          {
            "duration": 1.4568448010416661,
            "durationTicks": 979,
            "midi": 38,
            "name": "D2",
            "ticks": 4800,
            "time": 7.142855,
            "velocity": 0.6456692913385826
          },
          {
            "duration": 1.4568448010416652,
            "durationTicks": 979,
            "midi": 43,
            "name": "G2",
            "ticks": 5760,
            "time": 8.571426,
            "velocity": 0.6062992125984252
          },
          {
            "duration": 1.3556543552083333,
            "durationTicks": 911,
            "midi": 45,
            "name": "A2",
            "ticks": 6720,
            "time": 9.999997,
            "velocity": 0.49606299212598426
          },
          {
            "duration": 1.456844801041667,
            "durationTicks": 979,
            "midi": 50,
            "name": "D3",
            "ticks": 7680,
            "time": 11.428568,
            "velocity": 0.49606299212598426
          },
          {
            "duration": 1.456844801041667,
            "durationTicks": 979,
            "midi": 45,
            "name": "A2",
            "ticks": 8640,
            "time": 12.857139,
            "velocity": 0.47244094488188976
          },
          {
            "duration": 1.456844801041667,
            "durationTicks": 979,
            "midi": 47,
            "name": "B2",
            "ticks": 9600,
            "time": 14.28571,
            "velocity": 0.49606299212598426
          },
          {
            "duration": 1.4568448010416688,
            "durationTicks": 979,
            "midi": 42,
            "name": "F#2",
            "ticks": 10560,
            "time": 15.714281,
            "velocity": 0.48031496062992124
          },
          {
            "duration": 1.4568448010416652,
            "durationTicks": 979,
            "midi": 43,
            "name": "G2",
            "ticks": 11520,
            "time": 17.142852,
            "velocity": 0.4881889763779528
          },
          {
            "duration": 1.4568448010416688,
            "durationTicks": 979,
            "midi": 38,
            "name": "D2",
            "ticks": 12480,
            "time": 18.571423,
            "velocity": 0.4645669291338583
          },
          {
            "duration": 1.4568448010416652,
            "durationTicks": 979,
            "midi": 43,
            "name": "G2",
            "ticks": 13440,
            "time": 19.999994,
            "velocity": 0.5039370078740157
          },
          {
            "duration": 1.3556543552083369,
            "durationTicks": 911,
            "midi": 45,
            "name": "A2",
            "ticks": 14400,
            "time": 21.428565,
            "velocity": 0.5354330708661418
          },
          {
            "duration": 1.4568448010416652,
            "durationTicks": 979,
            "midi": 50,
            "name": "D3",
            "ticks": 15360,
            "time": 22.857136,
            "velocity": 0.5039370078740157
          },
          {
            "duration": 1.4568448010416652,
            "durationTicks": 979,
            "midi": 45,
            "name": "A2",
            "ticks": 16320,
            "time": 24.285707000000002,
            "velocity": 0.5039370078740157
          },
          {
            "duration": 1.4568448010416652,
            "durationTicks": 979,
            "midi": 47,
            "name": "B2",
            "ticks": 17280,
            "time": 25.714278,
            "velocity": 0.5039370078740157
          },
          {
            "duration": 1.4568448010416652,
            "durationTicks": 979,
            "midi": 42,
            "name": "F#2",
            "ticks": 18240,
            "time": 27.142849000000002,
            "velocity": 0.48031496062992124
          },
          {
            "duration": 1.4568448010416688,
            "durationTicks": 979,
            "midi": 43,
            "name": "G2",
            "ticks": 19200,
            "time": 28.57142,
            "velocity": 0.48031496062992124
          },
          {
            "duration": 1.4568448010416652,
            "durationTicks": 979,
            "midi": 38,
            "name": "D2",
            "ticks": 20160,
            "time": 29.999991,
            "velocity": 0.47244094488188976
          },
          {
            "duration": 1.4568448010416688,
            "durationTicks": 979,
            "midi": 43,
            "name": "G2",
            "ticks": 21120,
            "time": 31.428562,
            "velocity": 0.49606299212598426
          },
          {
            "duration": 1.3556543552083369,
            "durationTicks": 911,
            "midi": 45,
            "name": "A2",
            "ticks": 22080,
            "time": 32.857133,
            "velocity": 0.5039370078740157
          },
          {
            "duration": 1.4568448010416617,
            "durationTicks": 979,
            "midi": 50,
            "name": "D3",
            "ticks": 23040,
            "time": 34.285704,
            "velocity": 0.49606299212598426
          },
          {
            "duration": 1.4568448010416688,
            "durationTicks": 979,
            "midi": 45,
            "name": "A2",
            "ticks": 24000,
            "time": 35.714275,
            "velocity": 0.4645669291338583
          },
          {
            "duration": 1.4568448010416688,
            "durationTicks": 979,
            "midi": 47,
            "name": "B2",
            "ticks": 24960,
            "time": 37.142846,
            "velocity": 0.48031496062992124
          },
          {
            "duration": 1.4568448010416617,
            "durationTicks": 979,
            "midi": 42,
            "name": "F#2",
            "ticks": 25920,
            "time": 38.571417000000004,
            "velocity": 0.4645669291338583
          },
          {
            "duration": 1.4568448010416688,
            "durationTicks": 979,
            "midi": 43,
            "name": "G2",
            "ticks": 26880,
            "time": 39.999988,
            "velocity": 0.49606299212598426
          },
          {
            "duration": 1.4568448010416688,
            "durationTicks": 979,
            "midi": 38,
            "name": "D2",
            "ticks": 27840,
            "time": 41.428559,
            "velocity": 0.48031496062992124
          },
          {
            "duration": 1.4568448010416688,
            "durationTicks": 979,
            "midi": 43,
            "name": "G2",
            "ticks": 28800,
            "time": 42.85713,
            "velocity": 0.49606299212598426
          },
          {
            "duration": 1.3556543552083298,
            "durationTicks": 911,
            "midi": 45,
            "name": "A2",
            "ticks": 29760,
            "time": 44.285701,
            "velocity": 0.5039370078740157
          },
          {
            "duration": 1.2886900895833264,
            "durationTicks": 866,
            "midi": 50,
            "name": "D3",
            "ticks": 30720,
            "time": 45.714272,
            "velocity": 0.49606299212598426
          },
          {
            "duration": 1.2886900895833335,
            "durationTicks": 866,
            "midi": 45,
            "name": "A2",
            "ticks": 31680,
            "time": 47.142843,
            "velocity": 0.4566929133858268
          },
          {
            "duration": 1.2886900895833264,
            "durationTicks": 866,
            "midi": 47,
            "name": "B2",
            "ticks": 32640,
            "time": 48.571414000000004,
            "velocity": 0.48031496062992124
          },
          {
            "duration": 1.2886900895833264,
            "durationTicks": 866,
            "midi": 42,
            "name": "F#2",
            "ticks": 33600,
            "time": 49.999985,
            "velocity": 0.44881889763779526
          },
          {
            "duration": 1.2886900895833264,
            "durationTicks": 866,
            "midi": 43,
            "name": "G2",
            "ticks": 34560,
            "time": 51.428556,
            "velocity": 0.4881889763779528
          },
          {
            "duration": 1.2886900895833335,
            "durationTicks": 866,
            "midi": 38,
            "name": "D2",
            "ticks": 35520,
            "time": 52.857127,
            "velocity": 0.4645669291338583
          },
          {
            "duration": 1.2886900895833264,
            "durationTicks": 866,
            "midi": 43,
            "name": "G2",
            "ticks": 36480,
            "time": 54.285698000000004,
            "velocity": 0.5039370078740157
          },
          {
            "duration": 1.2886900895833264,
            "durationTicks": 866,
            "midi": 45,
            "name": "A2",
            "ticks": 37440,
            "time": 55.714269,
            "velocity": 0.48031496062992124
          },
          {
            "duration": 1.2886900895833335,
            "durationTicks": 866,
            "midi": 50,
            "name": "D3",
            "ticks": 38400,
            "time": 57.14284,
            "velocity": 0.49606299212598426
          },
          {
            "duration": 1.2886900895833264,
            "durationTicks": 866,
            "midi": 45,
            "name": "A2",
            "ticks": 39360,
            "time": 58.571411000000005,
            "velocity": 0.47244094488188976
          },
          {
            "duration": 1.2886900895833264,
            "durationTicks": 866,
            "midi": 47,
            "name": "B2",
            "ticks": 40320,
            "time": 59.999982,
            "velocity": 0.5039370078740157
          },
          {
            "duration": 1.2886900895833264,
            "durationTicks": 866,
            "midi": 42,
            "name": "F#2",
            "ticks": 41280,
            "time": 61.428553,
            "velocity": 0.47244094488188976
          },
          {
            "duration": 1.2886900895833264,
            "durationTicks": 866,
            "midi": 43,
            "name": "G2",
            "ticks": 42240,
            "time": 62.857124,
            "velocity": 0.47244094488188976
          },
          {
            "duration": 1.2886900895833264,
            "durationTicks": 866,
            "midi": 38,
            "name": "D2",
            "ticks": 43200,
            "time": 64.285695,
            "velocity": 0.4566929133858268
          },
          {
            "duration": 1.2886900895833406,
            "durationTicks": 866,
            "midi": 43,
            "name": "G2",
            "ticks": 44160,
            "time": 65.714266,
            "velocity": 0.49606299212598426
          },
          {
            "duration": 1.2886900895833264,
            "durationTicks": 866,
            "midi": 45,
            "name": "A2",
            "ticks": 45120,
            "time": 67.142837,
            "velocity": 0.4881889763779528
          },
          {
            "duration": 1.2886900895833264,
            "durationTicks": 866,
            "midi": 50,
            "name": "D3",
            "ticks": 46080,
            "time": 68.571408,
            "velocity": 0.5039370078740157
          },
          {
            "duration": 1.2886900895833406,
            "durationTicks": 866,
            "midi": 45,
            "name": "A2",
            "ticks": 47040,
            "time": 69.999979,
            "velocity": 0.48031496062992124
          },
          {
            "duration": 1.2886900895833264,
            "durationTicks": 866,
            "midi": 47,
            "name": "B2",
            "ticks": 48000,
            "time": 71.42855,
            "velocity": 0.49606299212598426
          },
          {
            "duration": 1.2886900895833264,
            "durationTicks": 866,
            "midi": 42,
            "name": "F#2",
            "ticks": 48960,
            "time": 72.857121,
            "velocity": 0.4645669291338583
          },
          {
            "duration": 1.2886900895833264,
            "durationTicks": 866,
            "midi": 43,
            "name": "G2",
            "ticks": 49920,
            "time": 74.285692,
            "velocity": 0.5039370078740157
          },
          {
            "duration": 1.2886900895833264,
            "durationTicks": 866,
            "midi": 38,
            "name": "D2",
            "ticks": 50880,
            "time": 75.714263,
            "velocity": 0.47244094488188976
          },
          {
            "duration": 1.2886900895833264,
            "durationTicks": 866,
            "midi": 43,
            "name": "G2",
            "ticks": 51840,
            "time": 77.14283400000001,
            "velocity": 0.49606299212598426
          },
          {
            "duration": 1.2886900895833264,
            "durationTicks": 866,
            "midi": 45,
            "name": "A2",
            "ticks": 52800,
            "time": 78.571405,
            "velocity": 0.4881889763779528
          },
          {
            "duration": 1.2886900895833264,
            "durationTicks": 866,
            "midi": 50,
            "name": "D3",
            "ticks": 53760,
            "time": 79.999976,
            "velocity": 0.5984251968503937
          },
          {
            "duration": 1.2886900895833264,
            "durationTicks": 866,
            "midi": 45,
            "name": "A2",
            "ticks": 54720,
            "time": 81.42854700000001,
            "velocity": 0.5433070866141733
          },
          {
            "duration": 1.2886900895833264,
            "durationTicks": 866,
            "midi": 47,
            "name": "B2",
            "ticks": 55680,
            "time": 82.857118,
            "velocity": 0.5669291338582677
          },
          {
            "duration": 1.2886900895833264,
            "durationTicks": 866,
            "midi": 42,
            "name": "F#2",
            "ticks": 56640,
            "time": 84.285689,
            "velocity": 0.5275590551181102
          },
          {
            "duration": 1.2886900895833406,
            "durationTicks": 866,
            "midi": 43,
            "name": "G2",
            "ticks": 57600,
            "time": 85.71426,
            "velocity": 0.5433070866141733
          },
          {
            "duration": 1.2886900895833264,
            "durationTicks": 866,
            "midi": 38,
            "name": "D2",
            "ticks": 58560,
            "time": 87.142831,
            "velocity": 0.5354330708661418
          },
          {
            "duration": 1.2886900895833264,
            "durationTicks": 866,
            "midi": 43,
            "name": "G2",
            "ticks": 59520,
            "time": 88.571402,
            "velocity": 0.5748031496062992
          },
          {
            "duration": 1.2886900895833406,
            "durationTicks": 866,
            "midi": 45,
            "name": "A2",
            "ticks": 60480,
            "time": 89.999973,
            "velocity": 0.5511811023622047
          },
          {
            "duration": 1.2886900895833406,
            "durationTicks": 866,
            "midi": 50,
            "name": "D3",
            "ticks": 61440,
            "time": 91.428544,
            "velocity": 0.6771653543307087
          },
          {
            "duration": 1.2886900895833406,
            "durationTicks": 866,
            "midi": 45,
            "name": "A2",
            "ticks": 62400,
            "time": 92.85711500000001,
            "velocity": 0.6377952755905512
          },
          {
            "duration": 1.2886900895833406,
            "durationTicks": 866,
            "midi": 47,
            "name": "B2",
            "ticks": 63360,
            "time": 94.285686,
            "velocity": 0.6614173228346457
          },
          {
            "duration": 1.2886900895833406,
            "durationTicks": 866,
            "midi": 42,
            "name": "F#2",
            "ticks": 64320,
            "time": 95.714257,
            "velocity": 0.6220472440944882
          },
          {
            "duration": 1.2886900895833264,
            "durationTicks": 866,
            "midi": 43,
            "name": "G2",
            "ticks": 65280,
            "time": 97.14282800000001,
            "velocity": 0.6692913385826772
          },
          {
            "duration": 1.2886900895833406,
            "durationTicks": 866,
            "midi": 38,
            "name": "D2",
            "ticks": 66240,
            "time": 98.571399,
            "velocity": 0.6456692913385826
          },
          {
            "duration": 1.2886900895833406,
            "durationTicks": 866,
            "midi": 43,
            "name": "G2",
            "ticks": 67200,
            "time": 99.99997,
            "velocity": 0.6850393700787402
          },
          {
            "duration": 1.2886900895833406,
            "durationTicks": 866,
            "midi": 45,
            "name": "A2",
            "ticks": 68160,
            "time": 101.428541,
            "velocity": 0.6771653543307087
          },
          {
            "duration": 1.2886900895833406,
            "durationTicks": 866,
            "midi": 50,
            "name": "D3",
            "ticks": 69120,
            "time": 102.857112,
            "velocity": 0.6771653543307087
          },
          {
            "duration": 1.2886900895833406,
            "durationTicks": 866,
            "midi": 45,
            "name": "A2",
            "ticks": 70080,
            "time": 104.285683,
            "velocity": 0.6456692913385826
          },
          {
            "duration": 1.2886900895833406,
            "durationTicks": 866,
            "midi": 47,
            "name": "B2",
            "ticks": 71040,
            "time": 105.714254,
            "velocity": 0.6614173228346457
          },
          {
            "duration": 1.2886900895833406,
            "durationTicks": 866,
            "midi": 42,
            "name": "F#2",
            "ticks": 72000,
            "time": 107.142825,
            "velocity": 0.6456692913385826
          },
          {
            "duration": 1.2886900895833406,
            "durationTicks": 866,
            "midi": 43,
            "name": "G2",
            "ticks": 72960,
            "time": 108.57139600000001,
            "velocity": 0.6614173228346457
          },
          {
            "duration": 1.2886900895833406,
            "durationTicks": 866,
            "midi": 38,
            "name": "D2",
            "ticks": 73920,
            "time": 109.999967,
            "velocity": 0.6299212598425197
          },
          {
            "duration": 1.2886900895833406,
            "durationTicks": 866,
            "midi": 43,
            "name": "G2",
            "ticks": 74880,
            "time": 111.428538,
            "velocity": 0.6692913385826772
          },
          {
            "duration": 1.2886900895833264,
            "durationTicks": 866,
            "midi": 45,
            "name": "A2",
            "ticks": 75840,
            "time": 112.85710900000001,
            "velocity": 0.6614173228346457
          },
          {
            "duration": 1.2886900895833406,
            "durationTicks": 866,
            "midi": 50,
            "name": "D3",
            "ticks": 76800,
            "time": 114.28568,
            "velocity": 0.6771653543307087
          },
          {
            "duration": 1.2886900895833406,
            "durationTicks": 866,
            "midi": 45,
            "name": "A2",
            "ticks": 77760,
            "time": 115.714251,
            "velocity": 0.6456692913385826
          },
          {
            "duration": 1.2886900895833264,
            "durationTicks": 866,
            "midi": 47,
            "name": "B2",
            "ticks": 78720,
            "time": 117.14282200000001,
            "velocity": 0.6771653543307087
          },
          {
            "duration": 1.2886900895833406,
            "durationTicks": 866,
            "midi": 42,
            "name": "F#2",
            "ticks": 79680,
            "time": 118.571393,
            "velocity": 0.6614173228346457
          },
          {
            "duration": 1.2886900895833406,
            "durationTicks": 866,
            "midi": 43,
            "name": "G2",
            "ticks": 80640,
            "time": 119.999964,
            "velocity": 0.6692913385826772
          },
          {
            "duration": 1.2886900895833406,
            "durationTicks": 866,
            "midi": 38,
            "name": "D2",
            "ticks": 81600,
            "time": 121.428535,
            "velocity": 0.6377952755905512
          },
          {
            "duration": 1.2886900895833406,
            "durationTicks": 866,
            "midi": 43,
            "name": "G2",
            "ticks": 82560,
            "time": 122.857106,
            "velocity": 0.6771653543307087
          },
          {
            "duration": 1.2886900895833406,
            "durationTicks": 866,
            "midi": 45,
            "name": "A2",
            "ticks": 83520,
            "time": 124.285677,
            "velocity": 0.6692913385826772
          },
          {
            "duration": 1.2886900895833406,
            "durationTicks": 866,
            "midi": 50,
            "name": "D3",
            "ticks": 84480,
            "time": 125.714248,
            "velocity": 0.6692913385826772
          },
          {
            "duration": 1.2886900895833264,
            "durationTicks": 866,
            "midi": 45,
            "name": "A2",
            "ticks": 85440,
            "time": 127.142819,
            "velocity": 0.6377952755905512
          },
          {
            "duration": 1.2886900895833264,
            "durationTicks": 866,
            "midi": 47,
            "name": "B2",
            "ticks": 86400,
            "time": 128.57139,
            "velocity": 0.6771653543307087
          },
          {
            "duration": 1.2886900895833264,
            "durationTicks": 866,
            "midi": 42,
            "name": "F#2",
            "ticks": 87360,
            "time": 129.999961,
            "velocity": 0.6377952755905512
          },
          {
            "duration": 1.2886900895833548,
            "durationTicks": 866,
            "midi": 43,
            "name": "G2",
            "ticks": 88320,
            "time": 131.428532,
            "velocity": 0.6614173228346457
          },
          {
            "duration": 1.2886900895833548,
            "durationTicks": 866,
            "midi": 38,
            "name": "D2",
            "ticks": 89280,
            "time": 132.857103,
            "velocity": 0.6377952755905512
          },
          {
            "duration": 1.2886900895833548,
            "durationTicks": 866,
            "midi": 43,
            "name": "G2",
            "ticks": 90240,
            "time": 134.285674,
            "velocity": 0.6929133858267716
          },
          {
            "duration": 1.2886900895833264,
            "durationTicks": 866,
            "midi": 45,
            "name": "A2",
            "ticks": 91200,
            "time": 135.714245,
            "velocity": 0.6614173228346457
          },
          {
            "duration": 1.2886900895833264,
            "durationTicks": 866,
            "midi": 50,
            "name": "D3",
            "ticks": 92160,
            "time": 137.142816,
            "velocity": 0.5669291338582677
          },
          {
            "duration": 1.2886900895833264,
            "durationTicks": 866,
            "midi": 45,
            "name": "A2",
            "ticks": 93120,
            "time": 138.57138700000002,
            "velocity": 0.5511811023622047
          },
          {
            "duration": 1.2886900895833548,
            "durationTicks": 866,
            "midi": 47,
            "name": "B2",
            "ticks": 94080,
            "time": 139.999958,
            "velocity": 0.5748031496062992
          },
          {
            "duration": 1.2886900895833548,
            "durationTicks": 866,
            "midi": 42,
            "name": "F#2",
            "ticks": 95040,
            "time": 141.428529,
            "velocity": 0.5354330708661418
          },
          {
            "duration": 1.2886900895833264,
            "durationTicks": 866,
            "midi": 43,
            "name": "G2",
            "ticks": 96000,
            "time": 142.8571,
            "velocity": 0.5511811023622047
          },
          {
            "duration": 1.2886900895833264,
            "durationTicks": 866,
            "midi": 38,
            "name": "D2",
            "ticks": 96960,
            "time": 144.285671,
            "velocity": 0.5354330708661418
          },
          {
            "duration": 1.2886900895833264,
            "durationTicks": 866,
            "midi": 43,
            "name": "G2",
            "ticks": 97920,
            "time": 145.714242,
            "velocity": 0.5905511811023622
          },
          {
            "duration": 1.2886900895833548,
            "durationTicks": 866,
            "midi": 45,
            "name": "A2",
            "ticks": 98880,
            "time": 147.142813,
            "velocity": 0.5669291338582677
          },
          {
            "duration": 1.2886900895833548,
            "durationTicks": 866,
            "midi": 50,
            "name": "D3",
            "ticks": 99840,
            "time": 148.571384,
            "velocity": 0.4881889763779528
          },
          {
            "duration": 1.2886900895833548,
            "durationTicks": 866,
            "midi": 45,
            "name": "A2",
            "ticks": 100800,
            "time": 149.999955,
            "velocity": 0.4566929133858268
          },
          {
            "duration": 1.2886900895833264,
            "durationTicks": 866,
            "midi": 47,
            "name": "B2",
            "ticks": 101760,
            "time": 151.428526,
            "velocity": 0.49606299212598426
          },
          {
            "duration": 1.2886900895833264,
            "durationTicks": 866,
            "midi": 42,
            "name": "F#2",
            "ticks": 102720,
            "time": 152.857097,
            "velocity": 0.4645669291338583
          },
          {
            "duration": 1.2886900895833264,
            "durationTicks": 866,
            "midi": 43,
            "name": "G2",
            "ticks": 103680,
            "time": 154.28566800000002,
            "velocity": 0.48031496062992124
          },
          {
            "duration": 1.2886900895833548,
            "durationTicks": 866,
            "midi": 38,
            "name": "D2",
            "ticks": 104640,
            "time": 155.714239,
            "velocity": 0.48031496062992124
          },
          {
            "duration": 1.2886900895833548,
            "durationTicks": 866,
            "midi": 43,
            "name": "G2",
            "ticks": 105600,
            "time": 157.14281,
            "velocity": 0.4881889763779528
          },
          {
            "duration": 1.2886900895833264,
            "durationTicks": 866,
            "midi": 45,
            "name": "A2",
            "ticks": 106560,
            "time": 158.571381,
            "velocity": 0.5039370078740157
          },
          {
            "duration": 1.2886900895833264,
            "durationTicks": 866,
            "midi": 50,
            "name": "D3",
            "ticks": 107520,
            "time": 159.999952,
            "velocity": 0.47244094488188976
          },
          {
            "duration": 1.2886900895833264,
            "durationTicks": 866,
            "midi": 45,
            "name": "A2",
            "ticks": 108480,
            "time": 161.428523,
            "velocity": 0.48031496062992124
          },
          {
            "duration": 1.2886900895833264,
            "durationTicks": 866,
            "midi": 47,
            "name": "B2",
            "ticks": 109440,
            "time": 162.85709400000002,
            "velocity": 0.5039370078740157
          },
          {
            "duration": 1.2886900895833548,
            "durationTicks": 866,
            "midi": 42,
            "name": "F#2",
            "ticks": 110400,
            "time": 164.285665,
            "velocity": 0.48031496062992124
          },
          {
            "duration": 1.2886900895833548,
            "durationTicks": 866,
            "midi": 43,
            "name": "G2",
            "ticks": 111360,
            "time": 165.714236,
            "velocity": 0.49606299212598426
          },
          {
            "duration": 1.2886900895833264,
            "durationTicks": 866,
            "midi": 38,
            "name": "D2",
            "ticks": 112320,
            "time": 167.142807,
            "velocity": 0.47244094488188976
          },
          {
            "duration": 1.2886900895833264,
            "durationTicks": 866,
            "midi": 43,
            "name": "G2",
            "ticks": 113280,
            "time": 168.571378,
            "velocity": 0.5039370078740157
          },
          {
            "duration": 1.2886900895833264,
            "durationTicks": 866,
            "midi": 45,
            "name": "A2",
            "ticks": 114240,
            "time": 169.99994900000002,
            "velocity": 0.49606299212598426
          },
          {
            "duration": 1.2886900895833548,
            "durationTicks": 866,
            "midi": 50,
            "name": "D3",
            "ticks": 115200,
            "time": 171.42852,
            "velocity": 0.49606299212598426
          },
          {
            "duration": 1.2886900895833548,
            "durationTicks": 866,
            "midi": 45,
            "name": "A2",
            "ticks": 116160,
            "time": 172.857091,
            "velocity": 0.4645669291338583
          },
          {
            "duration": 1.2886900895833548,
            "durationTicks": 866,
            "midi": 47,
            "name": "B2",
            "ticks": 117120,
            "time": 174.285662,
            "velocity": 0.48031496062992124
          },
          {
            "duration": 1.2886900895833264,
            "durationTicks": 866,
            "midi": 42,
            "name": "F#2",
            "ticks": 118080,
            "time": 175.714233,
            "velocity": 0.4645669291338583
          },
          {
            "duration": 1.2886900895833264,
            "durationTicks": 866,
            "midi": 43,
            "name": "G2",
            "ticks": 119040,
            "time": 177.142804,
            "velocity": 0.49606299212598426
          },
          {
            "duration": 1.2886900895833264,
            "durationTicks": 866,
            "midi": 38,
            "name": "D2",
            "ticks": 120000,
            "time": 178.57137500000002,
            "velocity": 0.4330708661417323
          },
          {
            "duration": 1.2886900895833548,
            "durationTicks": 866,
            "midi": 43,
            "name": "G2",
            "ticks": 120960,
            "time": 179.999946,
            "velocity": 0.4881889763779528
          },
          {
            "duration": 1.2886900895833548,
            "durationTicks": 866,
            "midi": 45,
            "name": "A2",
            "ticks": 121920,
            "time": 181.428517,
            "velocity": 0.49606299212598426
          },
          {
            "duration": 1.2886900895833264,
            "durationTicks": 866,
            "midi": 50,
            "name": "D3",
            "ticks": 122880,
            "time": 182.857088,
            "velocity": 0.4881889763779528
          },
          {
            "duration": 1.2886900895833264,
            "durationTicks": 866,
            "midi": 45,
            "name": "A2",
            "ticks": 123840,
            "time": 184.285659,
            "velocity": 0.47244094488188976
          },
          {
            "duration": 1.2886900895833264,
            "durationTicks": 866,
            "midi": 47,
            "name": "B2",
            "ticks": 124800,
            "time": 185.71423000000001,
            "velocity": 0.49606299212598426
          },
          {
            "duration": 1.2886900895833548,
            "durationTicks": 866,
            "midi": 42,
            "name": "F#2",
            "ticks": 125760,
            "time": 187.142801,
            "velocity": 0.4566929133858268
          },
          {
            "duration": 1.2886900895833548,
            "durationTicks": 866,
            "midi": 43,
            "name": "G2",
            "ticks": 126720,
            "time": 188.571372,
            "velocity": 0.48031496062992124
          },
          {
            "duration": 1.2886900895833548,
            "durationTicks": 866,
            "midi": 38,
            "name": "D2",
            "ticks": 127680,
            "time": 189.999943,
            "velocity": 0.4566929133858268
          },
          {
            "duration": 1.2886900895833264,
            "durationTicks": 866,
            "midi": 43,
            "name": "G2",
            "ticks": 128640,
            "time": 191.428514,
            "velocity": 0.47244094488188976
          },
          {
            "duration": 1.2886900895833264,
            "durationTicks": 866,
            "midi": 45,
            "name": "A2",
            "ticks": 129600,
            "time": 192.857085,
            "velocity": 0.47244094488188976
          },
          {
            "duration": 1.2886900895833264,
            "durationTicks": 866,
            "midi": 50,
            "name": "D3",
            "ticks": 130560,
            "time": 194.28565600000002,
            "velocity": 0.48031496062992124
          },
          {
            "duration": 1.2886900895833548,
            "durationTicks": 866,
            "midi": 45,
            "name": "A2",
            "ticks": 131520,
            "time": 195.714227,
            "velocity": 0.48031496062992124
          },
          {
            "duration": 1.2886900895833548,
            "durationTicks": 866,
            "midi": 47,
            "name": "B2",
            "ticks": 132480,
            "time": 197.142798,
            "velocity": 0.5039370078740157
          },
          {
            "duration": 1.2886900895833264,
            "durationTicks": 866,
            "midi": 42,
            "name": "F#2",
            "ticks": 133440,
            "time": 198.571369,
            "velocity": 0.44881889763779526
          },
          {
            "duration": 1.2886900895833264,
            "durationTicks": 866,
            "midi": 43,
            "name": "G2",
            "ticks": 134400,
            "time": 199.99994,
            "velocity": 0.48031496062992124
          },
          {
            "duration": 1.2886900895833264,
            "durationTicks": 866,
            "midi": 38,
            "name": "D2",
            "ticks": 135360,
            "time": 201.42851100000001,
            "velocity": 0.4566929133858268
          },
          {
            "duration": 1.2886900895833548,
            "durationTicks": 866,
            "midi": 43,
            "name": "G2",
            "ticks": 136320,
            "time": 202.857082,
            "velocity": 0.49606299212598426
          },
          {
            "duration": 1.2886900895833548,
            "durationTicks": 866,
            "midi": 45,
            "name": "A2",
            "ticks": 137280,
            "time": 204.285653,
            "velocity": 0.49606299212598426
          },
          {
            "duration": 1.2886900895833548,
            "durationTicks": 866,
            "midi": 50,
            "name": "D3",
            "ticks": 138240,
            "time": 205.714224,
            "velocity": 0.5905511811023622
          },
          {
            "duration": 1.2886900895833264,
            "durationTicks": 866,
            "midi": 45,
            "name": "A2",
            "ticks": 139200,
            "time": 207.142795,
            "velocity": 0.5433070866141733
          },
          {
            "duration": 1.2886900895833264,
            "durationTicks": 866,
            "midi": 47,
            "name": "B2",
            "ticks": 140160,
            "time": 208.571366,
            "velocity": 0.5511811023622047
          },
          {
            "duration": 1.2886900895833264,
            "durationTicks": 866,
            "midi": 42,
            "name": "F#2",
            "ticks": 141120,
            "time": 209.99993700000002,
            "velocity": 0.5354330708661418
          },
          {
            "duration": 1.2886900895833548,
            "durationTicks": 866,
            "midi": 43,
            "name": "G2",
            "ticks": 142080,
            "time": 211.428508,
            "velocity": 0.5590551181102362
          },
          {
            "duration": 1.2886900895833548,
            "durationTicks": 866,
            "midi": 38,
            "name": "D2",
            "ticks": 143040,
            "time": 212.857079,
            "velocity": 0.5511811023622047
          },
          {
            "duration": 1.2886900895833264,
            "durationTicks": 866,
            "midi": 43,
            "name": "G2",
            "ticks": 144000,
            "time": 214.28565,
            "velocity": 0.5669291338582677
          },
          {
            "duration": 1.2886900895833264,
            "durationTicks": 866,
            "midi": 45,
            "name": "A2",
            "ticks": 144960,
            "time": 215.714221,
            "velocity": 0.5826771653543307
          },
          {
            "duration": 1.2886900895833264,
            "durationTicks": 866,
            "midi": 50,
            "name": "D3",
            "ticks": 145920,
            "time": 217.14279200000001,
            "velocity": 0.5748031496062992
          },
          {
            "duration": 1.2886900895833264,
            "durationTicks": 866,
            "midi": 45,
            "name": "A2",
            "ticks": 146880,
            "time": 218.57136300000002,
            "velocity": 0.5433070866141733
          },
          {
            "duration": 1.2886900895833548,
            "durationTicks": 866,
            "midi": 47,
            "name": "B2",
            "ticks": 147840,
            "time": 219.999934,
            "velocity": 0.5590551181102362
          },
          {
            "duration": 1.2886900895833548,
            "durationTicks": 866,
            "midi": 42,
            "name": "F#2",
            "ticks": 148800,
            "time": 221.428505,
            "velocity": 0.5354330708661418
          },
          {
            "duration": 1.2886900895833264,
            "durationTicks": 866,
            "midi": 43,
            "name": "G2",
            "ticks": 149760,
            "time": 222.857076,
            "velocity": 0.5590551181102362
          },
          {
            "duration": 1.2886900895833264,
            "durationTicks": 866,
            "midi": 38,
            "name": "D2",
            "ticks": 150720,
            "time": 224.285647,
            "velocity": 0.5275590551181102
          },
          {
            "duration": 1.2886900895833264,
            "durationTicks": 866,
            "midi": 43,
            "name": "G2",
            "ticks": 151680,
            "time": 225.71421800000002,
            "velocity": 0.5905511811023622
          },
          {
            "duration": 1.2886900895833548,
            "durationTicks": 866,
            "midi": 45,
            "name": "A2",
            "ticks": 152640,
            "time": 227.142789,
            "velocity": 0.5590551181102362
          },
          {
            "duration": 1.2886900895833548,
            "durationTicks": 866,
            "midi": 50,
            "name": "D3",
            "ticks": 153600,
            "time": 228.57136,
            "velocity": 0.5826771653543307
          },
          {
            "duration": 1.2886900895833548,
            "durationTicks": 866,
            "midi": 45,
            "name": "A2",
            "ticks": 154560,
            "time": 229.999931,
            "velocity": 0.5511811023622047
          },
          {
            "duration": 1.2886900895833264,
            "durationTicks": 866,
            "midi": 47,
            "name": "B2",
            "ticks": 155520,
            "time": 231.428502,
            "velocity": 0.5669291338582677
          },
          {
            "duration": 1.2886900895833264,
            "durationTicks": 866,
            "midi": 42,
            "name": "F#2",
            "ticks": 156480,
            "time": 232.857073,
            "velocity": 0.5433070866141733
          },
          {
            "duration": 1.2886900895833264,
            "durationTicks": 866,
            "midi": 43,
            "name": "G2",
            "ticks": 157440,
            "time": 234.28564400000002,
            "velocity": 0.5590551181102362
          },
          {
            "duration": 1.2886900895833548,
            "durationTicks": 866,
            "midi": 38,
            "name": "D2",
            "ticks": 158400,
            "time": 235.714215,
            "velocity": 0.5433070866141733
          },
          {
            "duration": 1.2886900895833548,
            "durationTicks": 866,
            "midi": 43,
            "name": "G2",
            "ticks": 159360,
            "time": 237.142786,
            "velocity": 0.5826771653543307
          },
          {
            "duration": 1.2886900895833264,
            "durationTicks": 866,
            "midi": 45,
            "name": "A2",
            "ticks": 160320,
            "time": 238.571357,
            "velocity": 0.5669291338582677
          },
          {
            "duration": 1.2886900895833264,
            "durationTicks": 866,
            "midi": 50,
            "name": "D3",
            "ticks": 161280,
            "time": 239.999928,
            "velocity": 0.5590551181102362
          },
          {
            "duration": 1.2886900895833264,
            "durationTicks": 866,
            "midi": 45,
            "name": "A2",
            "ticks": 162240,
            "time": 241.42849900000002,
            "velocity": 0.5433070866141733
          },
          {
            "duration": 1.2886900895833548,
            "durationTicks": 866,
            "midi": 47,
            "name": "B2",
            "ticks": 163200,
            "time": 242.85707,
            "velocity": 0.5669291338582677
          },
          {
            "duration": 1.2886900895833548,
            "durationTicks": 866,
            "midi": 42,
            "name": "F#2",
            "ticks": 164160,
            "time": 244.285641,
            "velocity": 0.5433070866141733
          },
          {
            "duration": 1.2886900895833548,
            "durationTicks": 866,
            "midi": 43,
            "name": "G2",
            "ticks": 165120,
            "time": 245.714212,
            "velocity": 0.5669291338582677
          },
          {
            "duration": 1.2886900895833264,
            "durationTicks": 866,
            "midi": 38,
            "name": "D2",
            "ticks": 166080,
            "time": 247.142783,
            "velocity": 0.5433070866141733
          },
          {
            "duration": 1.2886900895833264,
            "durationTicks": 866,
            "midi": 43,
            "name": "G2",
            "ticks": 167040,
            "time": 248.571354,
            "velocity": 0.5669291338582677
          },
          {
            "duration": 1.2886900895833264,
            "durationTicks": 866,
            "midi": 45,
            "name": "A2",
            "ticks": 168000,
            "time": 249.99992500000002,
            "velocity": 0.5590551181102362
          },
          {
            "duration": 1.2886900895833548,
            "durationTicks": 866,
            "midi": 50,
            "name": "D3",
            "ticks": 168960,
            "time": 251.428496,
            "velocity": 0.5905511811023622
          },
          {
            "duration": 1.2886900895833548,
            "durationTicks": 866,
            "midi": 45,
            "name": "A2",
            "ticks": 169920,
            "time": 252.857067,
            "velocity": 0.5354330708661418
          },
          {
            "duration": 1.2886900895833264,
            "durationTicks": 866,
            "midi": 47,
            "name": "B2",
            "ticks": 170880,
            "time": 254.285638,
            "velocity": 0.5748031496062992
          },
          {
            "duration": 1.2886900895833548,
            "durationTicks": 866,
            "midi": 42,
            "name": "F#2",
            "ticks": 171840,
            "time": 255.714209,
            "velocity": 0.5590551181102362
          },
          {
            "duration": 1.2886900895833264,
            "durationTicks": 866,
            "midi": 43,
            "name": "G2",
            "ticks": 172800,
            "time": 257.14278,
            "velocity": 0.5669291338582677
          },
          {
            "duration": 1.2886900895833264,
            "durationTicks": 866,
            "midi": 38,
            "name": "D2",
            "ticks": 173760,
            "time": 258.571351,
            "velocity": 0.5590551181102362
          },
          {
            "duration": 1.2886900895833264,
            "durationTicks": 866,
            "midi": 43,
            "name": "G2",
            "ticks": 174720,
            "time": 259.999922,
            "velocity": 0.5669291338582677
          },
          {
            "duration": 1.2886900895833264,
            "durationTicks": 866,
            "midi": 45,
            "name": "A2",
            "ticks": 175680,
            "time": 261.428493,
            "velocity": 0.5590551181102362
          },
          {
            "duration": 1.2886900895833833,
            "durationTicks": 866,
            "midi": 50,
            "name": "D3",
            "ticks": 176640,
            "time": 262.857064,
            "velocity": 0.5826771653543307
          },
          {
            "duration": 1.2886900895833264,
            "durationTicks": 866,
            "midi": 45,
            "name": "A2",
            "ticks": 177600,
            "time": 264.285635,
            "velocity": 0.5590551181102362
          },
          {
            "duration": 1.2886900895833833,
            "durationTicks": 866,
            "midi": 47,
            "name": "B2",
            "ticks": 178560,
            "time": 265.714206,
            "velocity": 0.5669291338582677
          },
          {
            "duration": 1.2886900895833264,
            "durationTicks": 866,
            "midi": 42,
            "name": "F#2",
            "ticks": 179520,
            "time": 267.142777,
            "velocity": 0.5511811023622047
          },
          {
            "duration": 1.2886900895833264,
            "durationTicks": 866,
            "midi": 43,
            "name": "G2",
            "ticks": 180480,
            "time": 268.571348,
            "velocity": 0.5433070866141733
          },
          {
            "duration": 1.2886900895833264,
            "durationTicks": 866,
            "midi": 38,
            "name": "D2",
            "ticks": 181440,
            "time": 269.99991900000003,
            "velocity": 0.5590551181102362
          },
          {
            "duration": 1.2886900895833264,
            "durationTicks": 866,
            "midi": 43,
            "name": "G2",
            "ticks": 182400,
            "time": 271.42849,
            "velocity": 0.5748031496062992
          },
          {
            "duration": 1.2886900895833833,
            "durationTicks": 866,
            "midi": 45,
            "name": "A2",
            "ticks": 183360,
            "time": 272.857061,
            "velocity": 0.5590551181102362
          },
          {
            "duration": 1.2886900895833264,
            "durationTicks": 866,
            "midi": 50,
            "name": "D3",
            "ticks": 184320,
            "time": 274.285632,
            "velocity": 0.5905511811023622
          },
          {
            "duration": 1.2886900895833264,
            "durationTicks": 866,
            "midi": 45,
            "name": "A2",
            "ticks": 185280,
            "time": 275.714203,
            "velocity": 0.5354330708661418
          },
          {
            "duration": 1.2886900895833264,
            "durationTicks": 866,
            "midi": 47,
            "name": "B2",
            "ticks": 186240,
            "time": 277.14277400000003,
            "velocity": 0.5669291338582677
          },
          {
            "duration": 1.2886900895833264,
            "durationTicks": 866,
            "midi": 42,
            "name": "F#2",
            "ticks": 187200,
            "time": 278.571345,
            "velocity": 0.5433070866141733
          },
          {
            "duration": 1.2886900895833833,
            "durationTicks": 866,
            "midi": 43,
            "name": "G2",
            "ticks": 188160,
            "time": 279.999916,
            "velocity": 0.5511811023622047
          },
          {
            "duration": 1.2886900895833264,
            "durationTicks": 866,
            "midi": 38,
            "name": "D2",
            "ticks": 189120,
            "time": 281.428487,
            "velocity": 0.5433070866141733
          },
          {
            "duration": 1.2886900895833264,
            "durationTicks": 866,
            "midi": 43,
            "name": "G2",
            "ticks": 190080,
            "time": 282.857058,
            "velocity": 0.5748031496062992
          },
          {
            "duration": 1.2886900895833264,
            "durationTicks": 866,
            "midi": 45,
            "name": "A2",
            "ticks": 191040,
            "time": 284.28562900000003,
            "velocity": 0.5826771653543307
          },
          {
            "duration": 1.2886900895833264,
            "durationTicks": 866,
            "midi": 50,
            "name": "D3",
            "ticks": 192000,
            "time": 285.7142,
            "velocity": 0.6771653543307087
          },
          {
            "duration": 1.2886900895833833,
            "durationTicks": 866,
            "midi": 45,
            "name": "A2",
            "ticks": 192960,
            "time": 287.142771,
            "velocity": 0.6141732283464567
          },
          {
            "duration": 1.2886900895833264,
            "durationTicks": 866,
            "midi": 47,
            "name": "B2",
            "ticks": 193920,
            "time": 288.571342,
            "velocity": 0.6771653543307087
          },
          {
            "duration": 1.2886900895833264,
            "durationTicks": 866,
            "midi": 42,
            "name": "F#2",
            "ticks": 194880,
            "time": 289.999913,
            "velocity": 0.6456692913385826
          },
          {
            "duration": 1.2886900895833264,
            "durationTicks": 866,
            "midi": 43,
            "name": "G2",
            "ticks": 195840,
            "time": 291.428484,
            "velocity": 0.6850393700787402
          },
          {
            "duration": 1.2886900895833264,
            "durationTicks": 866,
            "midi": 38,
            "name": "D2",
            "ticks": 196800,
            "time": 292.857055,
            "velocity": 0.6456692913385826
          },
          {
            "duration": 1.2886900895833833,
            "durationTicks": 866,
            "midi": 43,
            "name": "G2",
            "ticks": 197760,
            "time": 294.285626,
            "velocity": 0.6850393700787402
          },
          {
            "duration": 1.2886900895833264,
            "durationTicks": 866,
            "midi": 45,
            "name": "A2",
            "ticks": 198720,
            "time": 295.714197,
            "velocity": 0.6535433070866141
          },
          {
            "duration": 1.2886900895833833,
            "durationTicks": 866,
            "midi": 50,
            "name": "D3",
            "ticks": 199680,
            "time": 297.142768,
            "velocity": 0.6692913385826772
          },
          {
            "duration": 1.2886900895833264,
            "durationTicks": 866,
            "midi": 45,
            "name": "A2",
            "ticks": 200640,
            "time": 298.571339,
            "velocity": 0.6377952755905512
          },
          {
            "duration": 1.2886900895833264,
            "durationTicks": 866,
            "midi": 47,
            "name": "B2",
            "ticks": 201600,
            "time": 299.99991,
            "velocity": 0.6614173228346457
          },
          {
            "duration": 1.2886900895833264,
            "durationTicks": 866,
            "midi": 42,
            "name": "F#2",
            "ticks": 202560,
            "time": 301.42848100000003,
            "velocity": 0.6614173228346457
          },
          {
            "duration": 1.2886900895833264,
            "durationTicks": 866,
            "midi": 43,
            "name": "G2",
            "ticks": 203520,
            "time": 302.857052,
            "velocity": 0.6535433070866141
          },
          {
            "duration": 1.2886900895833833,
            "durationTicks": 866,
            "midi": 38,
            "name": "D2",
            "ticks": 204480,
            "time": 304.285623,
            "velocity": 0.6377952755905512
          },
          {
            "duration": 1.3201213791666646,
            "durationTicks": 866,
            "midi": 43,
            "name": "G2",
            "ticks": 205440,
            "time": 305.714194,
            "velocity": 0.6771653543307087
          },
          {
            "duration": 1.3201213791666646,
            "durationTicks": 866,
            "midi": 45,
            "name": "A2",
            "ticks": 206400,
            "time": 307.177608,
            "velocity": 0.6614173228346457
          },
          {
            "duration": 1.3531249999999773,
            "durationTicks": 866,
            "midi": 50,
            "name": "D3",
            "ticks": 207360,
            "time": 308.641022,
            "velocity": 0.6929133858267716
          },
          {
            "duration": 1.3531249999999773,
            "durationTicks": 866,
            "midi": 45,
            "name": "A2",
            "ticks": 208320,
            "time": 310.141022,
            "velocity": 0.6220472440944882
          },
          {
            "duration": 1.3878191250000214,
            "durationTicks": 866,
            "midi": 47,
            "name": "B2",
            "ticks": 209280,
            "time": 311.641022,
            "velocity": 0.6692913385826772
          },
          {
            "duration": 1.4040982729166558,
            "durationTicks": 866,
            "midi": 42,
            "name": "F#2",
            "ticks": 210240,
            "time": 313.179482,
            "velocity": 0.6377952755905512
          },
          {
            "duration": 1.441500277083378,
            "durationTicks": 866,
            "midi": 43,
            "name": "G2",
            "ticks": 211200,
            "time": 314.7381855,
            "velocity": 0.6535433070866141
          },
          {
            "duration": 1.4809491208333156,
            "durationTicks": 866,
            "midi": 38,
            "name": "D2",
            "ticks": 212160,
            "time": 316.33846950000003,
            "velocity": 0.6692913385826772
          },
          {
            "duration": 1.522618427083387,
            "durationTicks": 866,
            "midi": 43,
            "name": "G2",
            "ticks": 213120,
            "time": 317.982613,
            "velocity": 0.7244094488188977
          },
          {
            "duration": 1.6362587500000245,
            "durationTicks": 866,
            "midi": 45,
            "name": "A2",
            "ticks": 214080,
            "time": 319.67308850000006,
            "velocity": 0.7559055118110236
          },
          {
            "duration": 3.0069441437499904,
            "durationTicks": 866,
            "midi": 50,
            "name": "D3",
            "ticks": 215040,
            "time": 321.4929410000001,
            "velocity": 0.7716535433070866
          }
        ],
        "endOfTrackTicks": 215907
      },
      {
        "channel": 0,
        "controlChanges": {
          "7": [
            {
              "number": 7,
              "ticks": 0,
              "time": 0,
              "value": 0.33858267716535434
            },
            {
              "number": 7,
              "ticks": 0,
              "time": 0,
              "value": 0.33858267716535434
            }
          ],
          "10": [
            {
              "number": 10,
              "ticks": 0,
              "time": 0,
              "value": 0.5984251968503937
            },
            {
              "number": 10,
              "ticks": 0,
              "time": 0,
              "value": 0.5984251968503937
            }
          ],
          "64": [
            {
              "number": 64,
              "ticks": 0,
              "time": 0,
              "value": 0
            },
            {
              "number": 64,
              "ticks": 0,
              "time": 0,
              "value": 0
            }
          ],
          "121": [
            {
              "number": 121,
              "ticks": 0,
              "time": 0,
              "value": 0
            },
            {
              "number": 121,
              "ticks": 0,
              "time": 0,
              "value": 0
            }
          ]
        },
        "pitchBends": [],
        "instrument": {
          "family": "piano",
          "number": 6,
          "name": "harpsichord"
        },
        "name": "Keyboard",
        "notes": [
          {
            "duration": 1.2886900895833333,
            "durationTicks": 866,
            "midi": 66,
            "name": "F#4",
            "ticks": 0,
            "time": 0,
            "velocity": 0.4251968503937008
          },
          {
            "duration": 1.2886900895833333,
            "durationTicks": 866,
            "midi": 74,
            "name": "D5",
            "ticks": 0,
            "time": 0,
            "velocity": 0.4251968503937008
          },
          {
            "duration": 1.2886900895833333,
            "durationTicks": 866,
            "midi": 50,
            "name": "D3",
            "ticks": 0,
            "time": 0,
            "velocity": 0.4330708661417323
          },
          {
            "duration": 1.2886900895833333,
            "durationTicks": 866,
            "midi": 57,
            "name": "A3",
            "ticks": 0,
            "time": 0,
            "velocity": 0.4330708661417323
          },
          {
            "duration": 1.2886900895833333,
            "durationTicks": 866,
            "midi": 69,
            "name": "A4",
            "ticks": 960,
            "time": 1.428571,
            "velocity": 0.47244094488188976
          },
          {
            "duration": 1.2886900895833333,
            "durationTicks": 866,
            "midi": 73,
            "name": "C#5",
            "ticks": 960,
            "time": 1.428571,
            "velocity": 0.47244094488188976
          },
          {
            "duration": 1.2886900895833333,
            "durationTicks": 866,
            "midi": 45,
            "name": "A2",
            "ticks": 960,
            "time": 1.428571,
            "velocity": 0.44881889763779526
          },
          {
            "duration": 1.2886900895833333,
            "durationTicks": 866,
            "midi": 52,
            "name": "E3",
            "ticks": 960,
            "time": 1.428571,
            "velocity": 0.44881889763779526
          },
          {
            "duration": 1.288690089583333,
            "durationTicks": 866,
            "midi": 62,
            "name": "D4",
            "ticks": 1920,
            "time": 2.857142,
            "velocity": 0.4566929133858268
          },
          {
            "duration": 1.288690089583333,
            "durationTicks": 866,
            "midi": 71,
            "name": "B4",
            "ticks": 1920,
            "time": 2.857142,
            "velocity": 0.4566929133858268
          },
          {
            "duration": 1.288690089583333,
            "durationTicks": 866,
            "midi": 47,
            "name": "B2",
            "ticks": 1920,
            "time": 2.857142,
            "velocity": 0.47244094488188976
          },
          {
            "duration": 1.288690089583333,
            "durationTicks": 866,
            "midi": 54,
            "name": "F#3",
            "ticks": 1920,
            "time": 2.857142,
            "velocity": 0.47244094488188976
          },
          {
            "duration": 1.2886900895833326,
            "durationTicks": 866,
            "midi": 66,
            "name": "F#4",
            "ticks": 2880,
            "time": 4.285713,
            "velocity": 0.47244094488188976
          },
          {
            "duration": 1.2886900895833326,
            "durationTicks": 866,
            "midi": 69,
            "name": "A4",
            "ticks": 2880,
            "time": 4.285713,
            "velocity": 0.47244094488188976
          },
          {
            "duration": 1.2886900895833326,
            "durationTicks": 866,
            "midi": 42,
            "name": "F#2",
            "ticks": 2880,
            "time": 4.285713,
            "velocity": 0.47244094488188976
          },
          {
            "duration": 1.2886900895833326,
            "durationTicks": 866,
            "midi": 49,
            "name": "C#3",
            "ticks": 2880,
            "time": 4.285713,
            "velocity": 0.47244094488188976
          },
          {
            "duration": 1.2886900895833335,
            "durationTicks": 866,
            "midi": 59,
            "name": "B3",
            "ticks": 3840,
            "time": 5.714284,
            "velocity": 0.47244094488188976
          },
          {
            "duration": 1.2886900895833335,
            "durationTicks": 866,
            "midi": 67,
            "name": "G4",
            "ticks": 3840,
            "time": 5.714284,
            "velocity": 0.47244094488188976
          },
          {
            "duration": 1.2886900895833335,
            "durationTicks": 866,
            "midi": 43,
            "name": "G2",
            "ticks": 3840,
            "time": 5.714284,
            "velocity": 0.4881889763779528
          },
          {
            "duration": 1.2886900895833335,
            "durationTicks": 866,
            "midi": 50,
            "name": "D3",
            "ticks": 3840,
            "time": 5.714284,
            "velocity": 0.4881889763779528
          },
          {
            "duration": 1.2886900895833344,
            "durationTicks": 866,
            "midi": 66,
            "name": "F#4",
            "ticks": 4800,
            "time": 7.142855,
            "velocity": 0.5039370078740157
          },
          {
            "duration": 1.2886900895833344,
            "durationTicks": 866,
            "midi": 69,
            "name": "A4",
            "ticks": 4800,
            "time": 7.142855,
            "velocity": 0.5039370078740157
          },
          {
            "duration": 1.2886900895833344,
            "durationTicks": 866,
            "midi": 38,
            "name": "D2",
            "ticks": 4800,
            "time": 7.142855,
            "velocity": 0.49606299212598426
          },
          {
            "duration": 1.2886900895833344,
            "durationTicks": 866,
            "midi": 50,
            "name": "D3",
            "ticks": 4800,
            "time": 7.142855,
            "velocity": 0.49606299212598426
          },
          {
            "duration": 1.2886900895833335,
            "durationTicks": 866,
            "midi": 62,
            "name": "D4",
            "ticks": 5760,
            "time": 8.571426,
            "velocity": 0.49606299212598426
          },
          {
            "duration": 1.2886900895833335,
            "durationTicks": 866,
            "midi": 71,
            "name": "B4",
            "ticks": 5760,
            "time": 8.571426,
            "velocity": 0.49606299212598426
          },
          {
            "duration": 1.2886900895833335,
            "durationTicks": 866,
            "midi": 43,
            "name": "G2",
            "ticks": 5760,
            "time": 8.571426,
            "velocity": 0.4881889763779528
          },
          {
            "duration": 1.2886900895833335,
            "durationTicks": 866,
            "midi": 55,
            "name": "G3",
            "ticks": 5760,
            "time": 8.571426,
            "velocity": 0.4881889763779528
          },
          {
            "duration": 1.2886900895833335,
            "durationTicks": 866,
            "midi": 64,
            "name": "E4",
            "ticks": 6720,
            "time": 9.999997,
            "velocity": 0.5039370078740157
          },
          {
            "duration": 1.2886900895833335,
            "durationTicks": 866,
            "midi": 73,
            "name": "C#5",
            "ticks": 6720,
            "time": 9.999997,
            "velocity": 0.5039370078740157
          },
          {
            "duration": 1.2886900895833335,
            "durationTicks": 866,
            "midi": 45,
            "name": "A2",
            "ticks": 6720,
            "time": 9.999997,
            "velocity": 0.48031496062992124
          },
          {
            "duration": 1.2886900895833335,
            "durationTicks": 866,
            "midi": 57,
            "name": "A3",
            "ticks": 6720,
            "time": 9.999997,
            "velocity": 0.48031496062992124
          },
          {
            "duration": 1.2886900895833335,
            "durationTicks": 866,
            "midi": 66,
            "name": "F#4",
            "ticks": 7680,
            "time": 11.428568,
            "velocity": 0.49606299212598426
          },
          {
            "duration": 1.2886900895833335,
            "durationTicks": 866,
            "midi": 69,
            "name": "A4",
            "ticks": 7680,
            "time": 11.428568,
            "velocity": 0.49606299212598426
          },
          {
            "duration": 1.2886900895833335,
            "durationTicks": 866,
            "midi": 74,
            "name": "D5",
            "ticks": 7680,
            "time": 11.428568,
            "velocity": 0.49606299212598426
          },
          {
            "duration": 1.2886900895833335,
            "durationTicks": 866,
            "midi": 50,
            "name": "D3",
            "ticks": 7680,
            "time": 11.428568,
            "velocity": 0.4645669291338583
          },
          {
            "duration": 1.2886900895833335,
            "durationTicks": 866,
            "midi": 64,
            "name": "E4",
            "ticks": 8640,
            "time": 12.857139,
            "velocity": 0.47244094488188976
          },
          {
            "duration": 1.2886900895833335,
            "durationTicks": 866,
            "midi": 69,
            "name": "A4",
            "ticks": 8640,
            "time": 12.857139,
            "velocity": 0.47244094488188976
          },
          {
            "duration": 1.2886900895833335,
            "durationTicks": 866,
            "midi": 73,
            "name": "C#5",
            "ticks": 8640,
            "time": 12.857139,
            "velocity": 0.47244094488188976
          },
          {
            "duration": 1.2886900895833335,
            "durationTicks": 866,
            "midi": 45,
            "name": "A2",
            "ticks": 8640,
            "time": 12.857139,
            "velocity": 0.47244094488188976
          },
          {
            "duration": 1.2886900895833335,
            "durationTicks": 866,
            "midi": 62,
            "name": "D4",
            "ticks": 9600,
            "time": 14.28571,
            "velocity": 0.47244094488188976
          },
          {
            "duration": 1.2886900895833335,
            "durationTicks": 866,
            "midi": 66,
            "name": "F#4",
            "ticks": 9600,
            "time": 14.28571,
            "velocity": 0.47244094488188976
          },
          {
            "duration": 1.2886900895833335,
            "durationTicks": 866,
            "midi": 71,
            "name": "B4",
            "ticks": 9600,
            "time": 14.28571,
            "velocity": 0.47244094488188976
          },
          {
            "duration": 1.2886900895833335,
            "durationTicks": 866,
            "midi": 47,
            "name": "B2",
            "ticks": 9600,
            "time": 14.28571,
            "velocity": 0.48031496062992124
          },
          {
            "duration": 1.2886900895833335,
            "durationTicks": 866,
            "midi": 61,
            "name": "C#4",
            "ticks": 10560,
            "time": 15.714281,
            "velocity": 0.4645669291338583
          },
          {
            "duration": 1.2886900895833335,
            "durationTicks": 866,
            "midi": 66,
            "name": "F#4",
            "ticks": 10560,
            "time": 15.714281,
            "velocity": 0.4645669291338583
          },
          {
            "duration": 1.2886900895833335,
            "durationTicks": 866,
            "midi": 69,
            "name": "A4",
            "ticks": 10560,
            "time": 15.714281,
            "velocity": 0.4645669291338583
          },
          {
            "duration": 1.2886900895833335,
            "durationTicks": 866,
            "midi": 42,
            "name": "F#2",
            "ticks": 10560,
            "time": 15.714281,
            "velocity": 0.4645669291338583
          },
          {
            "duration": 1.2886900895833335,
            "durationTicks": 866,
            "midi": 59,
            "name": "B3",
            "ticks": 11520,
            "time": 17.142852,
            "velocity": 0.47244094488188976
          },
          {
            "duration": 1.2886900895833335,
            "durationTicks": 866,
            "midi": 62,
            "name": "D4",
            "ticks": 11520,
            "time": 17.142852,
            "velocity": 0.47244094488188976
          },
          {
            "duration": 1.2886900895833335,
            "durationTicks": 866,
            "midi": 67,
            "name": "G4",
            "ticks": 11520,
            "time": 17.142852,
            "velocity": 0.47244094488188976
          },
          {
            "duration": 1.2886900895833335,
            "durationTicks": 866,
            "midi": 43,
            "name": "G2",
            "ticks": 11520,
            "time": 17.142852,
            "velocity": 0.49606299212598426
          },
          {
            "duration": 1.2886900895833335,
            "durationTicks": 866,
            "midi": 57,
            "name": "A3",
            "ticks": 12480,
            "time": 18.571423,
            "velocity": 0.48031496062992124
          },
          {
            "duration": 1.2886900895833335,
            "durationTicks": 866,
            "midi": 62,
            "name": "D4",
            "ticks": 12480,
            "time": 18.571423,
            "velocity": 0.48031496062992124
          },
          {
            "duration": 1.2886900895833335,
            "durationTicks": 866,
            "midi": 66,
            "name": "F#4",
            "ticks": 12480,
            "time": 18.571423,
            "velocity": 0.48031496062992124
          },
          {
            "duration": 1.2886900895833335,
            "durationTicks": 866,
            "midi": 38,
            "name": "D2",
            "ticks": 12480,
            "time": 18.571423,
            "velocity": 0.4645669291338583
          },
          {
            "duration": 1.2886900895833335,
            "durationTicks": 866,
            "midi": 59,
            "name": "B3",
            "ticks": 13440,
            "time": 19.999994,
            "velocity": 0.48031496062992124
          },
          {
            "duration": 1.2886900895833335,
            "durationTicks": 866,
            "midi": 62,
            "name": "D4",
            "ticks": 13440,
            "time": 19.999994,
            "velocity": 0.48031496062992124
          },
          {
            "duration": 1.2886900895833335,
            "durationTicks": 866,
            "midi": 67,
            "name": "G4",
            "ticks": 13440,
            "time": 19.999994,
            "velocity": 0.48031496062992124
          },
          {
            "duration": 1.2886900895833335,
            "durationTicks": 866,
            "midi": 43,
            "name": "G2",
            "ticks": 13440,
            "time": 19.999994,
            "velocity": 0.5118110236220472
          },
          {
            "duration": 1.2886900895833335,
            "durationTicks": 866,
            "midi": 61,
            "name": "C#4",
            "ticks": 14400,
            "time": 21.428565,
            "velocity": 0.49606299212598426
          },
          {
            "duration": 1.2886900895833335,
            "durationTicks": 866,
            "midi": 64,
            "name": "E4",
            "ticks": 14400,
            "time": 21.428565,
            "velocity": 0.49606299212598426
          },
          {
            "duration": 1.2886900895833335,
            "durationTicks": 866,
            "midi": 69,
            "name": "A4",
            "ticks": 14400,
            "time": 21.428565,
            "velocity": 0.49606299212598426
          },
          {
            "duration": 1.2886900895833335,
            "durationTicks": 866,
            "midi": 45,
            "name": "A2",
            "ticks": 14400,
            "time": 21.428565,
            "velocity": 0.49606299212598426
          },
          {
            "duration": 1.2886900895833335,
            "durationTicks": 866,
            "midi": 66,
            "name": "F#4",
            "ticks": 15360,
            "time": 22.857136,
            "velocity": 0.5354330708661418
          },
          {
            "duration": 1.2886900895833335,
            "durationTicks": 866,
            "midi": 78,
            "name": "F#5",
            "ticks": 15360,
            "time": 22.857136,
            "velocity": 0.5354330708661418
          },
          {
            "duration": 1.2886900895833335,
            "durationTicks": 866,
            "midi": 50,
            "name": "D3",
            "ticks": 15360,
            "time": 22.857136,
            "velocity": 0.5039370078740157
          },
          {
            "duration": 1.2886900895833335,
            "durationTicks": 866,
            "midi": 64,
            "name": "E4",
            "ticks": 16320,
            "time": 24.285707000000002,
            "velocity": 0.4566929133858268
          },
          {
            "duration": 1.2886900895833335,
            "durationTicks": 866,
            "midi": 76,
            "name": "E5",
            "ticks": 16320,
            "time": 24.285707000000002,
            "velocity": 0.4566929133858268
          },
          {
            "duration": 1.2886900895833335,
            "durationTicks": 866,
            "midi": 45,
            "name": "A2",
            "ticks": 16320,
            "time": 24.285707000000002,
            "velocity": 0.48031496062992124
          },
          {
            "duration": 1.2886900895833335,
            "durationTicks": 866,
            "midi": 62,
            "name": "D4",
            "ticks": 17280,
            "time": 25.714278,
            "velocity": 0.4566929133858268
          },
          {
            "duration": 1.2886900895833335,
            "durationTicks": 866,
            "midi": 74,
            "name": "D5",
            "ticks": 17280,
            "time": 25.714278,
            "velocity": 0.4566929133858268
          },
          {
            "duration": 1.2886900895833335,
            "durationTicks": 866,
            "midi": 47,
            "name": "B2",
            "ticks": 17280,
            "time": 25.714278,
            "velocity": 0.48031496062992124
          },
          {
            "duration": 1.2886900895833335,
            "durationTicks": 866,
            "midi": 61,
            "name": "C#4",
            "ticks": 18240,
            "time": 27.142849000000002,
            "velocity": 0.48031496062992124
          },
          {
            "duration": 1.2886900895833335,
            "durationTicks": 866,
            "midi": 73,
            "name": "C#5",
            "ticks": 18240,
            "time": 27.142849000000002,
            "velocity": 0.48031496062992124
          },
          {
            "duration": 1.2886900895833335,
            "durationTicks": 866,
            "midi": 42,
            "name": "F#2",
            "ticks": 18240,
            "time": 27.142849000000002,
            "velocity": 0.4645669291338583
          },
          {
            "duration": 1.2886900895833335,
            "durationTicks": 866,
            "midi": 59,
            "name": "B3",
            "ticks": 19200,
            "time": 28.57142,
            "velocity": 0.48031496062992124
          },
          {
            "duration": 1.2886900895833335,
            "durationTicks": 866,
            "midi": 71,
            "name": "B4",
            "ticks": 19200,
            "time": 28.57142,
            "velocity": 0.48031496062992124
          },
          {
            "duration": 1.2886900895833335,
            "durationTicks": 866,
            "midi": 43,
            "name": "G2",
            "ticks": 19200,
            "time": 28.57142,
            "velocity": 0.5039370078740157
          },
          {
            "duration": 1.2886900895833335,
            "durationTicks": 866,
            "midi": 57,
            "name": "A3",
            "ticks": 20160,
            "time": 29.999991,
            "velocity": 0.44881889763779526
          },
          {
            "duration": 1.2886900895833335,
            "durationTicks": 866,
            "midi": 69,
            "name": "A4",
            "ticks": 20160,
            "time": 29.999991,
            "velocity": 0.44881889763779526
          },
          {
            "duration": 1.2886900895833335,
            "durationTicks": 866,
            "midi": 38,
            "name": "D2",
            "ticks": 20160,
            "time": 29.999991,
            "velocity": 0.4645669291338583
          },
          {
            "duration": 1.2886900895833335,
            "durationTicks": 866,
            "midi": 59,
            "name": "B3",
            "ticks": 21120,
            "time": 31.428562,
            "velocity": 0.4881889763779528
          },
          {
            "duration": 1.2886900895833335,
            "durationTicks": 866,
            "midi": 71,
            "name": "B4",
            "ticks": 21120,
            "time": 31.428562,
            "velocity": 0.4881889763779528
          },
          {
            "duration": 1.2886900895833335,
            "durationTicks": 866,
            "midi": 43,
            "name": "G2",
            "ticks": 21120,
            "time": 31.428562,
            "velocity": 0.49606299212598426
          },
          {
            "duration": 1.2886900895833335,
            "durationTicks": 866,
            "midi": 61,
            "name": "C#4",
            "ticks": 22080,
            "time": 32.857133,
            "velocity": 0.5118110236220472
          },
          {
            "duration": 1.2886900895833335,
            "durationTicks": 866,
            "midi": 73,
            "name": "C#5",
            "ticks": 22080,
            "time": 32.857133,
            "velocity": 0.5118110236220472
          },
          {
            "duration": 1.2886900895833335,
            "durationTicks": 866,
            "midi": 45,
            "name": "A2",
            "ticks": 22080,
            "time": 32.857133,
            "velocity": 0.49606299212598426
          },
          {
            "duration": 1.2886900895833335,
            "durationTicks": 866,
            "midi": 74,
            "name": "D5",
            "ticks": 23040,
            "time": 34.285704,
            "velocity": 0.5039370078740157
          },
          {
            "duration": 1.2886900895833335,
            "durationTicks": 866,
            "midi": 78,
            "name": "F#5",
            "ticks": 23040,
            "time": 34.285704,
            "velocity": 0.5039370078740157
          },
          {
            "duration": 1.2886900895833335,
            "durationTicks": 866,
            "midi": 50,
            "name": "D3",
            "ticks": 23040,
            "time": 34.285704,
            "velocity": 0.4881889763779528
          },
          {
            "duration": 1.2886900895833335,
            "durationTicks": 866,
            "midi": 73,
            "name": "C#5",
            "ticks": 24000,
            "time": 35.714275,
            "velocity": 0.49606299212598426
          },
          {
            "duration": 1.2886900895833335,
            "durationTicks": 866,
            "midi": 76,
            "name": "E5",
            "ticks": 24000,
            "time": 35.714275,
            "velocity": 0.49606299212598426
          },
          {
            "duration": 1.2886900895833335,
            "durationTicks": 866,
            "midi": 45,
            "name": "A2",
            "ticks": 24000,
            "time": 35.714275,
            "velocity": 0.49606299212598426
          },
          {
            "duration": 1.2886900895833335,
            "durationTicks": 866,
            "midi": 71,
            "name": "B4",
            "ticks": 24960,
            "time": 37.142846,
            "velocity": 0.47244094488188976
          },
          {
            "duration": 1.2886900895833335,
            "durationTicks": 866,
            "midi": 74,
            "name": "D5",
            "ticks": 24960,
            "time": 37.142846,
            "velocity": 0.47244094488188976
          },
          {
            "duration": 1.2886900895833335,
            "durationTicks": 866,
            "midi": 47,
            "name": "B2",
            "ticks": 24960,
            "time": 37.142846,
            "velocity": 0.4881889763779528
          },
          {
            "duration": 1.2886900895833335,
            "durationTicks": 866,
            "midi": 69,
            "name": "A4",
            "ticks": 25920,
            "time": 38.571417000000004,
            "velocity": 0.4566929133858268
          },
          {
            "duration": 1.2886900895833335,
            "durationTicks": 866,
            "midi": 73,
            "name": "C#5",
            "ticks": 25920,
            "time": 38.571417000000004,
            "velocity": 0.4566929133858268
          },
          {
            "duration": 1.2886900895833335,
            "durationTicks": 866,
            "midi": 42,
            "name": "F#2",
            "ticks": 25920,
            "time": 38.571417000000004,
            "velocity": 0.4645669291338583
          },
          {
            "duration": 1.2886900895833335,
            "durationTicks": 866,
            "midi": 67,
            "name": "G4",
            "ticks": 26880,
            "time": 39.999988,
            "velocity": 0.4330708661417323
          },
          {
            "duration": 1.2886900895833335,
            "durationTicks": 866,
            "midi": 71,
            "name": "B4",
            "ticks": 26880,
            "time": 39.999988,
            "velocity": 0.4330708661417323
          },
          {
            "duration": 1.2886900895833335,
            "durationTicks": 866,
            "midi": 43,
            "name": "G2",
            "ticks": 26880,
            "time": 39.999988,
            "velocity": 0.4881889763779528
          },
          {
            "duration": 1.2886900895833335,
            "durationTicks": 866,
            "midi": 66,
            "name": "F#4",
            "ticks": 27840,
            "time": 41.428559,
            "velocity": 0.48031496062992124
          },
          {
            "duration": 1.2886900895833335,
            "durationTicks": 866,
            "midi": 69,
            "name": "A4",
            "ticks": 27840,
            "time": 41.428559,
            "velocity": 0.48031496062992124
          },
          {
            "duration": 1.2886900895833335,
            "durationTicks": 866,
            "midi": 38,
            "name": "D2",
            "ticks": 27840,
            "time": 41.428559,
            "velocity": 0.4566929133858268
          },
          {
            "duration": 1.2886900895833335,
            "durationTicks": 866,
            "midi": 67,
            "name": "G4",
            "ticks": 28800,
            "time": 42.85713,
            "velocity": 0.5039370078740157
          },
          {
            "duration": 1.2886900895833335,
            "durationTicks": 866,
            "midi": 71,
            "name": "B4",
            "ticks": 28800,
            "time": 42.85713,
            "velocity": 0.5039370078740157
          },
          {
            "duration": 1.2886900895833335,
            "durationTicks": 866,
            "midi": 43,
            "name": "G2",
            "ticks": 28800,
            "time": 42.85713,
            "velocity": 0.4881889763779528
          },
          {
            "duration": 1.2886900895833335,
            "durationTicks": 866,
            "midi": 64,
            "name": "E4",
            "ticks": 29760,
            "time": 44.285701,
            "velocity": 0.4881889763779528
          },
          {
            "duration": 1.2886900895833335,
            "durationTicks": 866,
            "midi": 73,
            "name": "C#5",
            "ticks": 29760,
            "time": 44.285701,
            "velocity": 0.4881889763779528
          },
          {
            "duration": 1.2886900895833335,
            "durationTicks": 866,
            "midi": 45,
            "name": "A2",
            "ticks": 29760,
            "time": 44.285701,
            "velocity": 0.48031496062992124
          },
          {
            "duration": 1.2886900895833264,
            "durationTicks": 866,
            "midi": 74,
            "name": "D5",
            "ticks": 30720,
            "time": 45.714272,
            "velocity": 0.4881889763779528
          },
          {
            "duration": 0.6473212343749992,
            "durationTicks": 435,
            "midi": 62,
            "name": "D4",
            "ticks": 30720,
            "time": 45.714272,
            "velocity": 0.4409448818897638
          },
          {
            "duration": 1.2886900895833264,
            "durationTicks": 866,
            "midi": 50,
            "name": "D3",
            "ticks": 30720,
            "time": 45.714272,
            "velocity": 0.49606299212598426
          },
          {
            "duration": 0.6473212343749992,
            "durationTicks": 435,
            "midi": 66,
            "name": "F#4",
            "ticks": 31200,
            "time": 46.428557500000004,
            "velocity": 0.5039370078740157
          },
          {
            "duration": 1.2886900895833335,
            "durationTicks": 866,
            "midi": 73,
            "name": "C#5",
            "ticks": 31680,
            "time": 47.142843,
            "velocity": 0.4645669291338583
          },
          {
            "duration": 0.6473212343749992,
            "durationTicks": 435,
            "midi": 69,
            "name": "A4",
            "ticks": 31680,
            "time": 47.142843,
            "velocity": 0.49606299212598426
          },
          {
            "duration": 1.2886900895833335,
            "durationTicks": 866,
            "midi": 45,
            "name": "A2",
            "ticks": 31680,
            "time": 47.142843,
            "velocity": 0.4566929133858268
          },
          {
            "duration": 0.6473212343749992,
            "durationTicks": 435,
            "midi": 67,
            "name": "G4",
            "ticks": 32160,
            "time": 47.8571285,
            "velocity": 0.47244094488188976
          },
          {
            "duration": 1.2886900895833264,
            "durationTicks": 866,
            "midi": 71,
            "name": "B4",
            "ticks": 32640,
            "time": 48.571414000000004,
            "velocity": 0.4645669291338583
          },
          {
            "duration": 0.6473212343749992,
            "durationTicks": 435,
            "midi": 66,
            "name": "F#4",
            "ticks": 32640,
            "time": 48.571414000000004,
            "velocity": 0.4566929133858268
          },
          {
            "duration": 1.2886900895833264,
            "durationTicks": 866,
            "midi": 47,
            "name": "B2",
            "ticks": 32640,
            "time": 48.571414000000004,
            "velocity": 0.47244094488188976
          },
          {
            "duration": 0.6473212343749992,
            "durationTicks": 435,
            "midi": 62,
            "name": "D4",
            "ticks": 33120,
            "time": 49.2856995,
            "velocity": 0.4330708661417323
          },
          {
            "duration": 1.2886900895833264,
            "durationTicks": 866,
            "midi": 69,
            "name": "A4",
            "ticks": 33600,
            "time": 49.999985,
            "velocity": 0.48031496062992124
          },
          {
            "duration": 0.6473212343749992,
            "durationTicks": 435,
            "midi": 66,
            "name": "F#4",
            "ticks": 33600,
            "time": 49.999985,
            "velocity": 0.4881889763779528
          },
          {
            "duration": 1.2886900895833264,
            "durationTicks": 866,
            "midi": 42,
            "name": "F#2",
            "ticks": 33600,
            "time": 49.999985,
            "velocity": 0.4645669291338583
          },
          {
            "duration": 0.6473212343750063,
            "durationTicks": 435,
            "midi": 64,
            "name": "E4",
            "ticks": 34080,
            "time": 50.7142705,
            "velocity": 0.4645669291338583
          },
          {
            "duration": 1.2886900895833264,
            "durationTicks": 866,
            "midi": 67,
            "name": "G4",
            "ticks": 34560,
            "time": 51.428556,
            "velocity": 0.4566929133858268
          },
          {
            "duration": 0.6473212343749992,
            "durationTicks": 435,
            "midi": 62,
            "name": "D4",
            "ticks": 34560,
            "time": 51.428556,
            "velocity": 0.4881889763779528
          },
          {
            "duration": 1.2886900895833264,
            "durationTicks": 866,
            "midi": 43,
            "name": "G2",
            "ticks": 34560,
            "time": 51.428556,
            "velocity": 0.48031496062992124
          },
          {
            "duration": 0.6473212343749992,
            "durationTicks": 435,
            "midi": 59,
            "name": "B3",
            "ticks": 35040,
            "time": 52.1428415,
            "velocity": 0.48031496062992124
          },
          {
            "duration": 1.2886900895833335,
            "durationTicks": 866,
            "midi": 66,
            "name": "F#4",
            "ticks": 35520,
            "time": 52.857127,
            "velocity": 0.4645669291338583
          },
          {
            "duration": 0.6473212343750063,
            "durationTicks": 435,
            "midi": 62,
            "name": "D4",
            "ticks": 35520,
            "time": 52.857127,
            "velocity": 0.5196850393700787
          },
          {
            "duration": 1.2886900895833335,
            "durationTicks": 866,
            "midi": 38,
            "name": "D2",
            "ticks": 35520,
            "time": 52.857127,
            "velocity": 0.4566929133858268
          },
          {
            "duration": 0.6473212343749992,
            "durationTicks": 435,
            "midi": 69,
            "name": "A4",
            "ticks": 36000,
            "time": 53.5714125,
            "velocity": 0.5196850393700787
          },
          {
            "duration": 1.2886900895833264,
            "durationTicks": 866,
            "midi": 67,
            "name": "G4",
            "ticks": 36480,
            "time": 54.285698000000004,
            "velocity": 0.49606299212598426
          },
          {
            "duration": 1.2886900895833264,
            "durationTicks": 866,
            "midi": 43,
            "name": "G2",
            "ticks": 36480,
            "time": 54.285698000000004,
            "velocity": 0.5118110236220472
          },
          {
            "duration": 0.6473212343749992,
            "durationTicks": 435,
            "midi": 71,
            "name": "B4",
            "ticks": 36960,
            "time": 54.9999835,
            "velocity": 0.5196850393700787
          },
          {
            "duration": 0.6473212343749992,
            "durationTicks": 435,
            "midi": 69,
            "name": "A4",
            "ticks": 37440,
            "time": 55.714269,
            "velocity": 0.47244094488188976
          },
          {
            "duration": 1.2886900895833264,
            "durationTicks": 866,
            "midi": 64,
            "name": "E4",
            "ticks": 37440,
            "time": 55.714269,
            "velocity": 0.4645669291338583
          },
          {
            "duration": 1.2886900895833264,
            "durationTicks": 866,
            "midi": 45,
            "name": "A2",
            "ticks": 37440,
            "time": 55.714269,
            "velocity": 0.49606299212598426
          },
          {
            "duration": 0.6473212343749992,
            "durationTicks": 435,
            "midi": 67,
            "name": "G4",
            "ticks": 37920,
            "time": 56.428554500000004,
            "velocity": 0.4645669291338583
          },
          {
            "duration": 0.6473212343749992,
            "durationTicks": 435,
            "midi": 66,
            "name": "F#4",
            "ticks": 38400,
            "time": 57.14284,
            "velocity": 0.4645669291338583
          },
          {
            "duration": 0.6473212343749992,
            "durationTicks": 435,
            "midi": 62,
            "name": "D4",
            "ticks": 38400,
            "time": 57.14284,
            "velocity": 0.4645669291338583
          },
          {
            "duration": 1.2886900895833335,
            "durationTicks": 866,
            "midi": 50,
            "name": "D3",
            "ticks": 38400,
            "time": 57.14284,
            "velocity": 0.49606299212598426
          },
          {
            "duration": 0.6473212343749992,
            "durationTicks": 435,
            "midi": 62,
            "name": "D4",
            "ticks": 38880,
            "time": 57.8571255,
            "velocity": 0.4566929133858268
          },
          {
            "duration": 0.6473212343749992,
            "durationTicks": 435,
            "midi": 66,
            "name": "F#4",
            "ticks": 38880,
            "time": 57.8571255,
            "velocity": 0.5039370078740157
          },
          {
            "duration": 0.6473212343749992,
            "durationTicks": 435,
            "midi": 69,
            "name": "A4",
            "ticks": 39360,
            "time": 58.571411000000005,
            "velocity": 0.5275590551181102
          },
          {
            "duration": 0.6473212343749992,
            "durationTicks": 435,
            "midi": 64,
            "name": "E4",
            "ticks": 39360,
            "time": 58.571411000000005,
            "velocity": 0.4566929133858268
          },
          {
            "duration": 1.2886900895833264,
            "durationTicks": 866,
            "midi": 45,
            "name": "A2",
            "ticks": 39360,
            "time": 58.571411000000005,
            "velocity": 0.47244094488188976
          },
          {
            "duration": 0.6473212343749992,
            "durationTicks": 435,
            "midi": 73,
            "name": "C#5",
            "ticks": 39840,
            "time": 59.2856965,
            "velocity": 0.5118110236220472
          },
          {
            "duration": 0.6473212343749992,
            "durationTicks": 435,
            "midi": 67,
            "name": "G4",
            "ticks": 39840,
            "time": 59.2856965,
            "velocity": 0.5039370078740157
          },
          {
            "duration": 0.6473212343749992,
            "durationTicks": 435,
            "midi": 74,
            "name": "D5",
            "ticks": 40320,
            "time": 59.999982,
            "velocity": 0.49606299212598426
          },
          {
            "duration": 0.6473212343749992,
            "durationTicks": 435,
            "midi": 66,
            "name": "F#4",
            "ticks": 40320,
            "time": 59.999982,
            "velocity": 0.4645669291338583
          },
          {
            "duration": 1.2886900895833264,
            "durationTicks": 866,
            "midi": 47,
            "name": "B2",
            "ticks": 40320,
            "time": 59.999982,
            "velocity": 0.49606299212598426
          },
          {
            "duration": 0.6473212343750063,
            "durationTicks": 435,
            "midi": 78,
            "name": "F#5",
            "ticks": 40800,
            "time": 60.7142675,
            "velocity": 0.49606299212598426
          },
          {
            "duration": 0.6473212343750063,
            "durationTicks": 435,
            "midi": 74,
            "name": "D5",
            "ticks": 40800,
            "time": 60.7142675,
            "velocity": 0.5354330708661418
          },
          {
            "duration": 0.6473212343749992,
            "durationTicks": 435,
            "midi": 81,
            "name": "A5",
            "ticks": 41280,
            "time": 61.428553,
            "velocity": 0.49606299212598426
          },
          {
            "duration": 0.6473212343749992,
            "durationTicks": 435,
            "midi": 78,
            "name": "F#5",
            "ticks": 41280,
            "time": 61.428553,
            "velocity": 0.5039370078740157
          },
          {
            "duration": 1.2886900895833264,
            "durationTicks": 866,
            "midi": 42,
            "name": "F#2",
            "ticks": 41280,
            "time": 61.428553,
            "velocity": 0.48031496062992124
          },
          {
            "duration": 0.6473212343749992,
            "durationTicks": 435,
            "midi": 76,
            "name": "E5",
            "ticks": 41760,
            "time": 62.1428385,
            "velocity": 0.4409448818897638
          },
          {
            "duration": 0.6473212343749992,
            "durationTicks": 435,
            "midi": 69,
            "name": "A4",
            "ticks": 41760,
            "time": 62.1428385,
            "velocity": 0.4330708661417323
          },
          {
            "duration": 0.6473212343749992,
            "durationTicks": 435,
            "midi": 71,
            "name": "B4",
            "ticks": 42240,
            "time": 62.857124,
            "velocity": 0.4409448818897638
          },
          {
            "duration": 0.6473212343749992,
            "durationTicks": 435,
            "midi": 62,
            "name": "D4",
            "ticks": 42240,
            "time": 62.857124,
            "velocity": 0.4409448818897638
          },
          {
            "duration": 1.2886900895833264,
            "durationTicks": 866,
            "midi": 43,
            "name": "G2",
            "ticks": 42240,
            "time": 62.857124,
            "velocity": 0.48031496062992124
          },
          {
            "duration": 0.6473212343749992,
            "durationTicks": 435,
            "midi": 67,
            "name": "G4",
            "ticks": 42720,
            "time": 63.5714095,
            "velocity": 0.4566929133858268
          },
          {
            "duration": 0.6473212343749992,
            "durationTicks": 435,
            "midi": 59,
            "name": "B3",
            "ticks": 42720,
            "time": 63.5714095,
            "velocity": 0.47244094488188976
          },
          {
            "duration": 0.6473212343749992,
            "durationTicks": 435,
            "midi": 69,
            "name": "A4",
            "ticks": 43200,
            "time": 64.285695,
            "velocity": 0.49606299212598426
          },
          {
            "duration": 0.6473212343749992,
            "durationTicks": 435,
            "midi": 62,
            "name": "D4",
            "ticks": 43200,
            "time": 64.285695,
            "velocity": 0.48031496062992124
          },
          {
            "duration": 1.2886900895833264,
            "durationTicks": 866,
            "midi": 38,
            "name": "D2",
            "ticks": 43200,
            "time": 64.285695,
            "velocity": 0.47244094488188976
          },
          {
            "duration": 0.6473212343749992,
            "durationTicks": 435,
            "midi": 66,
            "name": "F#4",
            "ticks": 43680,
            "time": 64.9999805,
            "velocity": 0.47244094488188976
          },
          {
            "duration": 0.6473212343749992,
            "durationTicks": 435,
            "midi": 69,
            "name": "A4",
            "ticks": 43680,
            "time": 64.9999805,
            "velocity": 0.5275590551181102
          },
          {
            "duration": 0.6473212343750134,
            "durationTicks": 435,
            "midi": 62,
            "name": "D4",
            "ticks": 44160,
            "time": 65.714266,
            "velocity": 0.4566929133858268
          },
          {
            "duration": 0.6473212343750134,
            "durationTicks": 435,
            "midi": 67,
            "name": "G4",
            "ticks": 44160,
            "time": 65.714266,
            "velocity": 0.4645669291338583
          },
          {
            "duration": 1.2886900895833406,
            "durationTicks": 866,
            "midi": 43,
            "name": "G2",
            "ticks": 44160,
            "time": 65.714266,
            "velocity": 0.5118110236220472
          },
          {
            "duration": 0.6473212343749992,
            "durationTicks": 435,
            "midi": 74,
            "name": "D5",
            "ticks": 44640,
            "time": 66.4285515,
            "velocity": 0.7401574803149606
          },
          {
            "duration": 0.6473212343749992,
            "durationTicks": 435,
            "midi": 71,
            "name": "B4",
            "ticks": 44640,
            "time": 66.4285515,
            "velocity": 0.5196850393700787
          },
          {
            "duration": 0.9657735197916679,
            "durationTicks": 649,
            "midi": 74,
            "name": "D5",
            "ticks": 45120,
            "time": 67.142837,
            "velocity": 0.6692913385826772
          },
          {
            "duration": 0.6473212343749992,
            "durationTicks": 435,
            "midi": 69,
            "name": "A4",
            "ticks": 45120,
            "time": 67.142837,
            "velocity": 0.4566929133858268
          },
          {
            "duration": 1.2886900895833264,
            "durationTicks": 866,
            "midi": 45,
            "name": "A2",
            "ticks": 45120,
            "time": 67.142837,
            "velocity": 0.6771653543307087
          },
          {
            "duration": 0.6473212343749992,
            "durationTicks": 435,
            "midi": 67,
            "name": "G4",
            "ticks": 45600,
            "time": 67.8571225,
            "velocity": 0.47244094488188976
          },
          {
            "duration": 0.3244046645833407,
            "durationTicks": 218,
            "midi": 73,
            "name": "C#5",
            "ticks": 45840,
            "time": 68.21426525,
            "velocity": 0.6456692913385826
          },
          {
            "duration": 0.3244046645833265,
            "durationTicks": 218,
            "midi": 74,
            "name": "D5",
            "ticks": 46080,
            "time": 68.571408,
            "velocity": 0.6614173228346457
          },
          {
            "duration": 0.9657735197916679,
            "durationTicks": 649,
            "midi": 66,
            "name": "F#4",
            "ticks": 46080,
            "time": 68.571408,
            "velocity": 0.47244094488188976
          },
          {
            "duration": 1.2886900895833264,
            "durationTicks": 866,
            "midi": 50,
            "name": "D3",
            "ticks": 46080,
            "time": 68.571408,
            "velocity": 0.6850393700787402
          },
          {
            "duration": 0.3244046645833407,
            "durationTicks": 218,
            "midi": 73,
            "name": "C#5",
            "ticks": 46320,
            "time": 68.92855075,
            "velocity": 0.6377952755905512
          },
          {
            "duration": 0.3244046645833265,
            "durationTicks": 218,
            "midi": 74,
            "name": "D5",
            "ticks": 46560,
            "time": 69.28569350000001,
            "velocity": 0.6850393700787402
          },
          {
            "duration": 0.3244046645833265,
            "durationTicks": 218,
            "midi": 62,
            "name": "D4",
            "ticks": 46800,
            "time": 69.64283625,
            "velocity": 0.5669291338582677
          },
          {
            "duration": 0.6473212343749992,
            "durationTicks": 435,
            "midi": 61,
            "name": "C#4",
            "ticks": 47040,
            "time": 69.999979,
            "velocity": 0.6377952755905512
          },
          {
            "duration": 1.2886900895833406,
            "durationTicks": 866,
            "midi": 45,
            "name": "A2",
            "ticks": 47040,
            "time": 69.999979,
            "velocity": 0.6377952755905512
          },
          {
            "duration": 0.3244046645833265,
            "durationTicks": 218,
            "midi": 69,
            "name": "A4",
            "ticks": 47280,
            "time": 70.35712175,
            "velocity": 0.7007874015748031
          },
          {
            "duration": 0.6473212343749992,
            "durationTicks": 435,
            "midi": 64,
            "name": "E4",
            "ticks": 47520,
            "time": 70.7142645,
            "velocity": 0.6299212598425197
          },
          {
            "duration": 0.3244046645833265,
            "durationTicks": 218,
            "midi": 66,
            "name": "F#4",
            "ticks": 47760,
            "time": 71.07140725000001,
            "velocity": 0.6614173228346457
          },
          {
            "duration": 0.6473212343749992,
            "durationTicks": 435,
            "midi": 62,
            "name": "D4",
            "ticks": 48000,
            "time": 71.42855,
            "velocity": 0.6220472440944882
          },
          {
            "duration": 1.2886900895833264,
            "durationTicks": 866,
            "midi": 47,
            "name": "B2",
            "ticks": 48000,
            "time": 71.42855,
            "velocity": 0.6535433070866141
          },
          {
            "duration": 0.3244046645833407,
            "durationTicks": 218,
            "midi": 74,
            "name": "D5",
            "ticks": 48240,
            "time": 71.78569275,
            "velocity": 0.7007874015748031
          },
          {
            "duration": 0.3244046645833265,
            "durationTicks": 218,
            "midi": 73,
            "name": "C#5",
            "ticks": 48480,
            "time": 72.1428355,
            "velocity": 0.6614173228346457
          },
          {
            "duration": 0.6473212343749992,
            "durationTicks": 435,
            "midi": 66,
            "name": "F#4",
            "ticks": 48480,
            "time": 72.1428355,
            "velocity": 0.5118110236220472
          },
          {
            "duration": 0.3244046645833407,
            "durationTicks": 218,
            "midi": 71,
            "name": "B4",
            "ticks": 48720,
            "time": 72.49997825,
            "velocity": 0.6377952755905512
          },
          {
            "duration": 0.3244046645833265,
            "durationTicks": 218,
            "midi": 73,
            "name": "C#5",
            "ticks": 48960,
            "time": 72.857121,
            "velocity": 0.6692913385826772
          },
          {
            "duration": 0.6473212343749992,
            "durationTicks": 435,
            "midi": 69,
            "name": "A4",
            "ticks": 48960,
            "time": 72.857121,
            "velocity": 0.5196850393700787
          },
          {
            "duration": 1.2886900895833264,
            "durationTicks": 866,
            "midi": 42,
            "name": "F#2",
            "ticks": 48960,
            "time": 72.857121,
            "velocity": 0.6377952755905512
          },
          {
            "duration": 0.3244046645833407,
            "durationTicks": 218,
            "midi": 78,
            "name": "F#5",
            "ticks": 49200,
            "time": 73.21426375,
            "velocity": 0.7086614173228346
          },
          {
            "duration": 0.3244046645833407,
            "durationTicks": 218,
            "midi": 81,
            "name": "A5",
            "ticks": 49440,
            "time": 73.5714065,
            "velocity": 0.6850393700787402
          },
          {
            "duration": 0.6473212343750134,
            "durationTicks": 435,
            "midi": 73,
            "name": "C#5",
            "ticks": 49440,
            "time": 73.5714065,
            "velocity": 0.5118110236220472
          },
          {
            "duration": 0.3244046645833265,
            "durationTicks": 218,
            "midi": 83,
            "name": "B5",
            "ticks": 49680,
            "time": 73.92854925,
            "velocity": 0.6771653543307087
          },
          {
            "duration": 0.3244046645833407,
            "durationTicks": 218,
            "midi": 79,
            "name": "G5",
            "ticks": 49920,
            "time": 74.285692,
            "velocity": 0.6062992125984252
          },
          {
            "duration": 0.6473212343749992,
            "durationTicks": 435,
            "midi": 71,
            "name": "B4",
            "ticks": 49920,
            "time": 74.285692,
            "velocity": 0.47244094488188976
          },
          {
            "duration": 1.2886900895833264,
            "durationTicks": 866,
            "midi": 43,
            "name": "G2",
            "ticks": 49920,
            "time": 74.285692,
            "velocity": 0.6614173228346457
          },
          {
            "duration": 0.3244046645833265,
            "durationTicks": 218,
            "midi": 78,
            "name": "F#5",
            "ticks": 50160,
            "time": 74.64283475,
            "velocity": 0.6456692913385826
          },
          {
            "duration": 0.3244046645833407,
            "durationTicks": 218,
            "midi": 76,
            "name": "E5",
            "ticks": 50400,
            "time": 74.9999775,
            "velocity": 0.6535433070866141
          },
          {
            "duration": 0.6473212343749992,
            "durationTicks": 435,
            "midi": 67,
            "name": "G4",
            "ticks": 50400,
            "time": 74.9999775,
            "velocity": 0.4566929133858268
          },
          {
            "duration": 0.3244046645833265,
            "durationTicks": 218,
            "midi": 79,
            "name": "G5",
            "ticks": 50640,
            "time": 75.35712025000001,
            "velocity": 0.6929133858267716
          },
          {
            "duration": 0.3244046645833265,
            "durationTicks": 218,
            "midi": 78,
            "name": "F#5",
            "ticks": 50880,
            "time": 75.714263,
            "velocity": 0.6535433070866141
          },
          {
            "duration": 0.6473212343749992,
            "durationTicks": 435,
            "midi": 69,
            "name": "A4",
            "ticks": 50880,
            "time": 75.714263,
            "velocity": 0.4881889763779528
          },
          {
            "duration": 1.2886900895833264,
            "durationTicks": 866,
            "midi": 38,
            "name": "D2",
            "ticks": 50880,
            "time": 75.714263,
            "velocity": 0.6456692913385826
          },
          {
            "duration": 0.3244046645833407,
            "durationTicks": 218,
            "midi": 76,
            "name": "E5",
            "ticks": 51120,
            "time": 76.07140575,
            "velocity": 0.6220472440944882
          },
          {
            "duration": 0.3244046645833265,
            "durationTicks": 218,
            "midi": 74,
            "name": "D5",
            "ticks": 51360,
            "time": 76.4285485,
            "velocity": 0.6377952755905512
          },
          {
            "duration": 0.6473212343749992,
            "durationTicks": 435,
            "midi": 66,
            "name": "F#4",
            "ticks": 51360,
            "time": 76.4285485,
            "velocity": 0.4645669291338583
          },
          {
            "duration": 0.3244046645833407,
            "durationTicks": 218,
            "midi": 73,
            "name": "C#5",
            "ticks": 51600,
            "time": 76.78569125,
            "velocity": 0.6377952755905512
          },
          {
            "duration": 0.3244046645833265,
            "durationTicks": 218,
            "midi": 71,
            "name": "B4",
            "ticks": 51840,
            "time": 77.14283400000001,
            "velocity": 0.6377952755905512
          },
          {
            "duration": 1.2886900895833264,
            "durationTicks": 866,
            "midi": 62,
            "name": "D4",
            "ticks": 51840,
            "time": 77.14283400000001,
            "velocity": 0.4645669291338583
          },
          {
            "duration": 1.2886900895833264,
            "durationTicks": 866,
            "midi": 43,
            "name": "G2",
            "ticks": 51840,
            "time": 77.14283400000001,
            "velocity": 0.6929133858267716
          },
          {
            "duration": 0.3244046645833265,
            "durationTicks": 218,
            "midi": 69,
            "name": "A4",
            "ticks": 52080,
            "time": 77.49997675,
            "velocity": 0.6456692913385826
          },
          {
            "duration": 0.3244046645833407,
            "durationTicks": 218,
            "midi": 67,
            "name": "G4",
            "ticks": 52320,
            "time": 77.8571195,
            "velocity": 0.6377952755905512
          },
          {
            "duration": 0.3244046645833265,
            "durationTicks": 218,
            "midi": 66,
            "name": "F#4",
            "ticks": 52560,
            "time": 78.21426225,
            "velocity": 0.6535433070866141
          },
          {
            "duration": 1.2886900895833264,
            "durationTicks": 866,
            "midi": 64,
            "name": "E4",
            "ticks": 52800,
            "time": 78.571405,
            "velocity": 0.6141732283464567
          },
          {
            "duration": 1.2886900895833264,
            "durationTicks": 866,
            "midi": 45,
            "name": "A2",
            "ticks": 52800,
            "time": 78.571405,
            "velocity": 0.6614173228346457
          },
          {
            "duration": 0.3244046645833265,
            "durationTicks": 218,
            "midi": 67,
            "name": "G4",
            "ticks": 53040,
            "time": 78.92854775,
            "velocity": 0.6456692913385826
          },
          {
            "duration": 0.3244046645833265,
            "durationTicks": 218,
            "midi": 66,
            "name": "F#4",
            "ticks": 53280,
            "time": 79.2856905,
            "velocity": 0.5984251968503937
          },
          {
            "duration": 0.3244046645833407,
            "durationTicks": 218,
            "midi": 64,
            "name": "E4",
            "ticks": 53520,
            "time": 79.64283325,
            "velocity": 0.6062992125984252
          },
          {
            "duration": 1.2886900895833264,
            "durationTicks": 866,
            "midi": 62,
            "name": "D4",
            "ticks": 53760,
            "time": 79.999976,
            "velocity": 0.5275590551181102
          },
          {
            "duration": 1.2886900895833264,
            "durationTicks": 866,
            "midi": 50,
            "name": "D3",
            "ticks": 53760,
            "time": 79.999976,
            "velocity": 0.5669291338582677
          },
          {
            "duration": 0.3244046645833407,
            "durationTicks": 218,
            "midi": 64,
            "name": "E4",
            "ticks": 54000,
            "time": 80.35711875,
            "velocity": 0.5511811023622047
          },
          {
            "duration": 0.3244046645833265,
            "durationTicks": 218,
            "midi": 66,
            "name": "F#4",
            "ticks": 54240,
            "time": 80.7142615,
            "velocity": 0.5354330708661418
          },
          {
            "duration": 0.3244046645833407,
            "durationTicks": 218,
            "midi": 67,
            "name": "G4",
            "ticks": 54480,
            "time": 81.07140425,
            "velocity": 0.5275590551181102
          },
          {
            "duration": 0.3244046645833265,
            "durationTicks": 218,
            "midi": 69,
            "name": "A4",
            "ticks": 54720,
            "time": 81.42854700000001,
            "velocity": 0.5748031496062992
          },
          {
            "duration": 0.6473212343749992,
            "durationTicks": 435,
            "midi": 61,
            "name": "C#4",
            "ticks": 54720,
            "time": 81.42854700000001,
            "velocity": 0.5275590551181102
          },
          {
            "duration": 1.2886900895833264,
            "durationTicks": 866,
            "midi": 45,
            "name": "A2",
            "ticks": 54720,
            "time": 81.42854700000001,
            "velocity": 0.5590551181102362
          },
          {
            "duration": 0.3244046645833265,
            "durationTicks": 218,
            "midi": 64,
            "name": "E4",
            "ticks": 54960,
            "time": 81.78568975,
            "velocity": 0.5275590551181102
          },
          {
            "duration": 0.3244046645833407,
            "durationTicks": 218,
            "midi": 69,
            "name": "A4",
            "ticks": 55200,
            "time": 82.1428325,
            "velocity": 0.5984251968503937
          },
          {
            "duration": 0.6473212343749992,
            "durationTicks": 435,
            "midi": 64,
            "name": "E4",
            "ticks": 55200,
            "time": 82.1428325,
            "velocity": 0.5748031496062992
          },
          {
            "duration": 0.3244046645833265,
            "durationTicks": 218,
            "midi": 67,
            "name": "G4",
            "ticks": 55440,
            "time": 82.49997525,
            "velocity": 0.5511811023622047
          },
          {
            "duration": 0.3244046645833407,
            "durationTicks": 218,
            "midi": 66,
            "name": "F#4",
            "ticks": 55680,
            "time": 82.857118,
            "velocity": 0.5511811023622047
          },
          {
            "duration": 1.2886900895833264,
            "durationTicks": 866,
            "midi": 62,
            "name": "D4",
            "ticks": 55680,
            "time": 82.857118,
            "velocity": 0.5354330708661418
          },
          {
            "duration": 1.2886900895833264,
            "durationTicks": 866,
            "midi": 47,
            "name": "B2",
            "ticks": 55680,
            "time": 82.857118,
            "velocity": 0.5748031496062992
          },
          {
            "duration": 0.3244046645833265,
            "durationTicks": 218,
            "midi": 71,
            "name": "B4",
            "ticks": 55920,
            "time": 83.21426075000001,
            "velocity": 0.6062992125984252
          },
          {
            "duration": 0.3244046645833265,
            "durationTicks": 218,
            "midi": 69,
            "name": "A4",
            "ticks": 56160,
            "time": 83.5714035,
            "velocity": 0.5511811023622047
          },
          {
            "duration": 0.3244046645833407,
            "durationTicks": 218,
            "midi": 67,
            "name": "G4",
            "ticks": 56400,
            "time": 83.92854625,
            "velocity": 0.5590551181102362
          },
          {
            "duration": 0.3244046645833265,
            "durationTicks": 218,
            "midi": 69,
            "name": "A4",
            "ticks": 56640,
            "time": 84.285689,
            "velocity": 0.5669291338582677
          },
          {
            "duration": 1.2886900895833264,
            "durationTicks": 866,
            "midi": 61,
            "name": "C#4",
            "ticks": 56640,
            "time": 84.285689,
            "velocity": 0.5433070866141733
          },
          {
            "duration": 1.2886900895833264,
            "durationTicks": 866,
            "midi": 42,
            "name": "F#2",
            "ticks": 56640,
            "time": 84.285689,
            "velocity": 0.5511811023622047
          },
          {
            "duration": 0.3244046645833407,
            "durationTicks": 218,
            "midi": 67,
            "name": "G4",
            "ticks": 56880,
            "time": 84.64283175,
            "velocity": 0.5590551181102362
          },
          {
            "duration": 0.3244046645833265,
            "durationTicks": 218,
            "midi": 66,
            "name": "F#4",
            "ticks": 57120,
            "time": 84.99997450000001,
            "velocity": 0.5354330708661418
          },
          {
            "duration": 0.3244046645833265,
            "durationTicks": 218,
            "midi": 64,
            "name": "E4",
            "ticks": 57360,
            "time": 85.35711725,
            "velocity": 0.5511811023622047
          },
          {
            "duration": 0.3244046645833407,
            "durationTicks": 218,
            "midi": 62,
            "name": "D4",
            "ticks": 57600,
            "time": 85.71426,
            "velocity": 0.5354330708661418
          },
          {
            "duration": 0.6473212343749992,
            "durationTicks": 435,
            "midi": 55,
            "name": "G3",
            "ticks": 57600,
            "time": 85.71426,
            "velocity": 0.5354330708661418
          },
          {
            "duration": 1.2886900895833406,
            "durationTicks": 866,
            "midi": 43,
            "name": "G2",
            "ticks": 57600,
            "time": 85.71426,
            "velocity": 0.5669291338582677
          },
          {
            "duration": 0.3244046645833265,
            "durationTicks": 218,
            "midi": 59,
            "name": "B3",
            "ticks": 57840,
            "time": 86.07140275,
            "velocity": 0.5511811023622047
          },
          {
            "duration": 0.3244046645833407,
            "durationTicks": 218,
            "midi": 71,
            "name": "B4",
            "ticks": 58080,
            "time": 86.4285455,
            "velocity": 0.6456692913385826
          },
          {
            "duration": 0.6473212343749992,
            "durationTicks": 435,
            "midi": 64,
            "name": "E4",
            "ticks": 58080,
            "time": 86.4285455,
            "velocity": 0.6141732283464567
          },
          {
            "duration": 0.3244046645833265,
            "durationTicks": 218,
            "midi": 73,
            "name": "C#5",
            "ticks": 58320,
            "time": 86.78568825,
            "velocity": 0.5826771653543307
          },
          {
            "duration": 0.3244046645833407,
            "durationTicks": 218,
            "midi": 74,
            "name": "D5",
            "ticks": 58560,
            "time": 87.142831,
            "velocity": 0.5669291338582677
          },
          {
            "duration": 1.2886900895833264,
            "durationTicks": 866,
            "midi": 66,
            "name": "F#4",
            "ticks": 58560,
            "time": 87.142831,
            "velocity": 0.5748031496062992
          },
          {
            "duration": 1.2886900895833264,
            "durationTicks": 866,
            "midi": 38,
            "name": "D2",
            "ticks": 58560,
            "time": 87.142831,
            "velocity": 0.5275590551181102
          },
          {
            "duration": 0.3244046645833407,
            "durationTicks": 218,
            "midi": 73,
            "name": "C#5",
            "ticks": 58800,
            "time": 87.49997375,
            "velocity": 0.5433070866141733
          },
          {
            "duration": 0.3244046645833265,
            "durationTicks": 218,
            "midi": 71,
            "name": "B4",
            "ticks": 59040,
            "time": 87.8571165,
            "velocity": 0.5354330708661418
          },
          {
            "duration": 0.3244046645833407,
            "durationTicks": 218,
            "midi": 69,
            "name": "A4",
            "ticks": 59280,
            "time": 88.21425925,
            "velocity": 0.5433070866141733
          },
          {
            "duration": 0.3244046645833265,
            "durationTicks": 218,
            "midi": 67,
            "name": "G4",
            "ticks": 59520,
            "time": 88.571402,
            "velocity": 0.5433070866141733
          },
          {
            "duration": 0.6473212343749992,
            "durationTicks": 435,
            "midi": 59,
            "name": "B3",
            "ticks": 59520,
            "time": 88.571402,
            "velocity": 0.5275590551181102
          },
          {
            "duration": 1.2886900895833264,
            "durationTicks": 866,
            "midi": 43,
            "name": "G2",
            "ticks": 59520,
            "time": 88.571402,
            "velocity": 0.5669291338582677
          },
          {
            "duration": 0.3244046645833407,
            "durationTicks": 218,
            "midi": 66,
            "name": "F#4",
            "ticks": 59760,
            "time": 88.92854475,
            "velocity": 0.5354330708661418
          },
          {
            "duration": 0.3244046645833265,
            "durationTicks": 218,
            "midi": 64,
            "name": "E4",
            "ticks": 60000,
            "time": 89.28568750000001,
            "velocity": 0.5590551181102362
          },
          {
            "duration": 0.6473212343749992,
            "durationTicks": 435,
            "midi": 55,
            "name": "G3",
            "ticks": 60000,
            "time": 89.28568750000001,
            "velocity": 0.5433070866141733
          },
          {
            "duration": 0.3244046645833265,
            "durationTicks": 218,
            "midi": 71,
            "name": "B4",
            "ticks": 60240,
            "time": 89.64283025,
            "velocity": 0.6220472440944882
          },
          {
            "duration": 0.3244046645833407,
            "durationTicks": 218,
            "midi": 69,
            "name": "A4",
            "ticks": 60480,
            "time": 89.999973,
            "velocity": 0.5354330708661418
          },
          {
            "duration": 0.6473212343749992,
            "durationTicks": 435,
            "midi": 57,
            "name": "A3",
            "ticks": 60480,
            "time": 89.999973,
            "velocity": 0.5669291338582677
          },
          {
            "duration": 1.2886900895833406,
            "durationTicks": 866,
            "midi": 45,
            "name": "A2",
            "ticks": 60480,
            "time": 89.999973,
            "velocity": 0.5669291338582677
          },
          {
            "duration": 0.3244046645833265,
            "durationTicks": 218,
            "midi": 71,
            "name": "B4",
            "ticks": 60720,
            "time": 90.35711575,
            "velocity": 0.5905511811023622
          },
          {
            "duration": 0.3244046645833407,
            "durationTicks": 218,
            "midi": 69,
            "name": "A4",
            "ticks": 60960,
            "time": 90.7142585,
            "velocity": 0.5275590551181102
          },
          {
            "duration": 0.6473212343749992,
            "durationTicks": 435,
            "midi": 64,
            "name": "E4",
            "ticks": 60960,
            "time": 90.7142585,
            "velocity": 0.6141732283464567
          },
          {
            "duration": 0.3244046645833265,
            "durationTicks": 218,
            "midi": 67,
            "name": "G4",
            "ticks": 61200,
            "time": 91.07140125000001,
            "velocity": 0.5354330708661418
          },
          {
            "duration": 0.6473212343749992,
            "durationTicks": 435,
            "midi": 62,
            "name": "D4",
            "ticks": 61440,
            "time": 91.428544,
            "velocity": 0.5118110236220472
          },
          {
            "duration": 1.2886900895833406,
            "durationTicks": 866,
            "midi": 50,
            "name": "D3",
            "ticks": 61440,
            "time": 91.428544,
            "velocity": 0.5748031496062992
          },
          {
            "duration": 0.32440466458335493,
            "durationTicks": 218,
            "midi": 64,
            "name": "E4",
            "ticks": 61680,
            "time": 91.78568675,
            "velocity": 0.5275590551181102
          },
          {
            "duration": 0.6473212343749992,
            "durationTicks": 435,
            "midi": 66,
            "name": "F#4",
            "ticks": 61920,
            "time": 92.1428295,
            "velocity": 0.5748031496062992
          },
          {
            "duration": 0.3244046645833407,
            "durationTicks": 218,
            "midi": 67,
            "name": "G4",
            "ticks": 62160,
            "time": 92.49997225,
            "velocity": 0.5826771653543307
          },
          {
            "duration": 0.3244046645833407,
            "durationTicks": 218,
            "midi": 69,
            "name": "A4",
            "ticks": 62400,
            "time": 92.85711500000001,
            "velocity": 0.5748031496062992
          },
          {
            "duration": 0.6473212343749992,
            "durationTicks": 435,
            "midi": 61,
            "name": "C#4",
            "ticks": 62400,
            "time": 92.85711500000001,
            "velocity": 0.5275590551181102
          },
          {
            "duration": 1.2886900895833406,
            "durationTicks": 866,
            "midi": 45,
            "name": "A2",
            "ticks": 62400,
            "time": 92.85711500000001,
            "velocity": 0.5354330708661418
          },
          {
            "duration": 0.3244046645833407,
            "durationTicks": 218,
            "midi": 64,
            "name": "E4",
            "ticks": 62640,
            "time": 93.21425775,
            "velocity": 0.5118110236220472
          },
          {
            "duration": 0.32440466458335493,
            "durationTicks": 218,
            "midi": 69,
            "name": "A4",
            "ticks": 62880,
            "time": 93.5714005,
            "velocity": 0.5826771653543307
          },
          {
            "duration": 0.6473212343750134,
            "durationTicks": 435,
            "midi": 64,
            "name": "E4",
            "ticks": 62880,
            "time": 93.5714005,
            "velocity": 0.5826771653543307
          },
          {
            "duration": 0.3244046645833407,
            "durationTicks": 218,
            "midi": 67,
            "name": "G4",
            "ticks": 63120,
            "time": 93.92854325,
            "velocity": 0.5433070866141733
          },
          {
            "duration": 0.6473212343749992,
            "durationTicks": 435,
            "midi": 66,
            "name": "F#4",
            "ticks": 63360,
            "time": 94.285686,
            "velocity": 0.5511811023622047
          },
          {
            "duration": 1.2886900895833406,
            "durationTicks": 866,
            "midi": 47,
            "name": "B2",
            "ticks": 63360,
            "time": 94.285686,
            "velocity": 0.5354330708661418
          },
          {
            "duration": 0.3244046645833407,
            "durationTicks": 218,
            "midi": 71,
            "name": "B4",
            "ticks": 63600,
            "time": 94.64282875,
            "velocity": 0.5826771653543307
          },
          {
            "duration": 0.3244046645833407,
            "durationTicks": 218,
            "midi": 69,
            "name": "A4",
            "ticks": 63840,
            "time": 94.9999715,
            "velocity": 0.5433070866141733
          },
          {
            "duration": 0.6473212343749992,
            "durationTicks": 435,
            "midi": 62,
            "name": "D4",
            "ticks": 63840,
            "time": 94.9999715,
            "velocity": 0.5275590551181102
          },
          {
            "duration": 0.3244046645833407,
            "durationTicks": 218,
            "midi": 67,
            "name": "G4",
            "ticks": 64080,
            "time": 95.35711425000001,
            "velocity": 0.5433070866141733
          },
          {
            "duration": 0.3244046645833407,
            "durationTicks": 218,
            "midi": 69,
            "name": "A4",
            "ticks": 64320,
            "time": 95.714257,
            "velocity": 0.5984251968503937
          },
          {
            "duration": 0.6473212343749992,
            "durationTicks": 435,
            "midi": 66,
            "name": "F#4",
            "ticks": 64320,
            "time": 95.714257,
            "velocity": 0.5905511811023622
          },
          {
            "duration": 1.2886900895833406,
            "durationTicks": 866,
            "midi": 42,
            "name": "F#2",
            "ticks": 64320,
            "time": 95.714257,
            "velocity": 0.5275590551181102
          },
          {
            "duration": 0.3244046645833407,
            "durationTicks": 218,
            "midi": 67,
            "name": "G4",
            "ticks": 64560,
            "time": 96.07139975,
            "velocity": 0.5354330708661418
          },
          {
            "duration": 0.3244046645833407,
            "durationTicks": 218,
            "midi": 66,
            "name": "F#4",
            "ticks": 64800,
            "time": 96.4285425,
            "velocity": 0.5354330708661418
          },
          {
            "duration": 0.6473212343749992,
            "durationTicks": 435,
            "midi": 62,
            "name": "D4",
            "ticks": 64800,
            "time": 96.4285425,
            "velocity": 0.5354330708661418
          },
          {
            "duration": 0.3244046645833407,
            "durationTicks": 218,
            "midi": 64,
            "name": "E4",
            "ticks": 65040,
            "time": 96.78568525,
            "velocity": 0.5196850393700787
          },
          {
            "duration": 1.2886900895833264,
            "durationTicks": 866,
            "midi": 62,
            "name": "D4",
            "ticks": 65280,
            "time": 97.14282800000001,
            "velocity": 0.5354330708661418
          },
          {
            "duration": 1.2886900895833264,
            "durationTicks": 866,
            "midi": 43,
            "name": "G2",
            "ticks": 65280,
            "time": 97.14282800000001,
            "velocity": 0.5511811023622047
          },
          {
            "duration": 0.3244046645833407,
            "durationTicks": 218,
            "midi": 59,
            "name": "B3",
            "ticks": 65520,
            "time": 97.49997075,
            "velocity": 0.5196850393700787
          },
          {
            "duration": 0.32440466458335493,
            "durationTicks": 218,
            "midi": 71,
            "name": "B4",
            "ticks": 65760,
            "time": 97.8571135,
            "velocity": 0.6141732283464567
          },
          {
            "duration": 0.3244046645833407,
            "durationTicks": 218,
            "midi": 73,
            "name": "C#5",
            "ticks": 66000,
            "time": 98.21425625,
            "velocity": 0.5511811023622047
          },
          {
            "duration": 0.3244046645833407,
            "durationTicks": 218,
            "midi": 74,
            "name": "D5",
            "ticks": 66240,
            "time": 98.571399,
            "velocity": 0.5826771653543307
          },
          {
            "duration": 1.2886900895833406,
            "durationTicks": 866,
            "midi": 69,
            "name": "A4",
            "ticks": 66240,
            "time": 98.571399,
            "velocity": 0.6220472440944882
          },
          {
            "duration": 1.2886900895833406,
            "durationTicks": 866,
            "midi": 38,
            "name": "D2",
            "ticks": 66240,
            "time": 98.571399,
            "velocity": 0.5511811023622047
          },
          {
            "duration": 0.3244046645833407,
            "durationTicks": 218,
            "midi": 73,
            "name": "C#5",
            "ticks": 66480,
            "time": 98.92854175000001,
            "velocity": 0.5354330708661418
          },
          {
            "duration": 0.3244046645833407,
            "durationTicks": 218,
            "midi": 71,
            "name": "B4",
            "ticks": 66720,
            "time": 99.2856845,
            "velocity": 0.5511811023622047
          },
          {
            "duration": 0.32440466458335493,
            "durationTicks": 218,
            "midi": 69,
            "name": "A4",
            "ticks": 66960,
            "time": 99.64282725,
            "velocity": 0.5354330708661418
          },
          {
            "duration": 0.3244046645833407,
            "durationTicks": 218,
            "midi": 67,
            "name": "G4",
            "ticks": 67200,
            "time": 99.99997,
            "velocity": 0.5354330708661418
          },
          {
            "duration": 1.2886900895833406,
            "durationTicks": 866,
            "midi": 62,
            "name": "D4",
            "ticks": 67200,
            "time": 99.99997,
            "velocity": 0.5118110236220472
          },
          {
            "duration": 1.2886900895833406,
            "durationTicks": 866,
            "midi": 43,
            "name": "G2",
            "ticks": 67200,
            "time": 99.99997,
            "velocity": 0.5748031496062992
          },
          {
            "duration": 0.3244046645833407,
            "durationTicks": 218,
            "midi": 66,
            "name": "F#4",
            "ticks": 67440,
            "time": 100.35711275,
            "velocity": 0.5511811023622047
          },
          {
            "duration": 0.3244046645833407,
            "durationTicks": 218,
            "midi": 64,
            "name": "E4",
            "ticks": 67680,
            "time": 100.71425550000001,
            "velocity": 0.5433070866141733
          },
          {
            "duration": 0.3244046645833407,
            "durationTicks": 218,
            "midi": 71,
            "name": "B4",
            "ticks": 67920,
            "time": 101.07139825,
            "velocity": 0.6141732283464567
          },
          {
            "duration": 0.32440466458335493,
            "durationTicks": 218,
            "midi": 69,
            "name": "A4",
            "ticks": 68160,
            "time": 101.428541,
            "velocity": 0.5433070866141733
          },
          {
            "duration": 1.2886900895833406,
            "durationTicks": 866,
            "midi": 61,
            "name": "C#4",
            "ticks": 68160,
            "time": 101.428541,
            "velocity": 0.5433070866141733
          },
          {
            "duration": 1.2886900895833406,
            "durationTicks": 866,
            "midi": 45,
            "name": "A2",
            "ticks": 68160,
            "time": 101.428541,
            "velocity": 0.5669291338582677
          },
          {
            "duration": 0.3244046645833407,
            "durationTicks": 218,
            "midi": 71,
            "name": "B4",
            "ticks": 68400,
            "time": 101.78568375,
            "velocity": 0.5826771653543307
          },
          {
            "duration": 0.3244046645833407,
            "durationTicks": 218,
            "midi": 69,
            "name": "A4",
            "ticks": 68640,
            "time": 102.1428265,
            "velocity": 0.5433070866141733
          },
          {
            "duration": 0.3244046645833407,
            "durationTicks": 218,
            "midi": 67,
            "name": "G4",
            "ticks": 68880,
            "time": 102.49996925,
            "velocity": 0.5433070866141733
          },
          {
            "duration": 0.6473212343749992,
            "durationTicks": 435,
            "midi": 66,
            "name": "F#4",
            "ticks": 69120,
            "time": 102.857112,
            "velocity": 0.7165354330708661
          },
          {
            "duration": 0.6473212343749992,
            "durationTicks": 435,
            "midi": 74,
            "name": "D5",
            "ticks": 69120,
            "time": 102.857112,
            "velocity": 0.7165354330708661
          },
          {
            "duration": 1.2886900895833406,
            "durationTicks": 866,
            "midi": 50,
            "name": "D3",
            "ticks": 69120,
            "time": 102.857112,
            "velocity": 0.7007874015748031
          },
          {
            "duration": 0.6473212343749992,
            "durationTicks": 435,
            "midi": 74,
            "name": "D5",
            "ticks": 69600,
            "time": 103.5713975,
            "velocity": 0.7086614173228346
          },
          {
            "duration": 0.6473212343749992,
            "durationTicks": 435,
            "midi": 78,
            "name": "F#5",
            "ticks": 69600,
            "time": 103.5713975,
            "velocity": 0.7086614173228346
          },
          {
            "duration": 1.2886900895833406,
            "durationTicks": 866,
            "midi": 73,
            "name": "C#5",
            "ticks": 70080,
            "time": 104.285683,
            "velocity": 0.6377952755905512
          },
          {
            "duration": 1.2886900895833406,
            "durationTicks": 866,
            "midi": 76,
            "name": "E5",
            "ticks": 70080,
            "time": 104.285683,
            "velocity": 0.6377952755905512
          },
          {
            "duration": 1.2886900895833406,
            "durationTicks": 866,
            "midi": 45,
            "name": "A2",
            "ticks": 70080,
            "time": 104.285683,
            "velocity": 0.6377952755905512
          },
          {
            "duration": 1.2886900895833406,
            "durationTicks": 866,
            "midi": 47,
            "name": "B2",
            "ticks": 71040,
            "time": 105.714254,
            "velocity": 0.6692913385826772
          },
          {
            "duration": 0.6473212343749992,
            "durationTicks": 435,
            "midi": 71,
            "name": "B4",
            "ticks": 71520,
            "time": 106.4285395,
            "velocity": 0.5826771653543307
          },
          {
            "duration": 0.6473212343749992,
            "durationTicks": 435,
            "midi": 74,
            "name": "D5",
            "ticks": 71520,
            "time": 106.4285395,
            "velocity": 0.5826771653543307
          },
          {
            "duration": 1.2886900895833406,
            "durationTicks": 866,
            "midi": 74,
            "name": "D5",
            "ticks": 72000,
            "time": 107.142825,
            "velocity": 0.7086614173228346
          },
          {
            "duration": 1.2886900895833406,
            "durationTicks": 866,
            "midi": 78,
            "name": "F#5",
            "ticks": 72000,
            "time": 107.142825,
            "velocity": 0.7086614173228346
          },
          {
            "duration": 1.2886900895833406,
            "durationTicks": 866,
            "midi": 42,
            "name": "F#2",
            "ticks": 72000,
            "time": 107.142825,
            "velocity": 0.6456692913385826
          },
          {
            "duration": 1.9315470395833358,
            "durationTicks": 1298,
            "midi": 74,
            "name": "D5",
            "ticks": 72960,
            "time": 108.57139600000001,
            "velocity": 0.6299212598425197
          },
          {
            "duration": 1.2886900895833406,
            "durationTicks": 866,
            "midi": 71,
            "name": "B4",
            "ticks": 72960,
            "time": 108.57139600000001,
            "velocity": 0.7401574803149606
          },
          {
            "duration": 1.2886900895833406,
            "durationTicks": 866,
            "midi": 43,
            "name": "G2",
            "ticks": 72960,
            "time": 108.57139600000001,
            "velocity": 0.6535433070866141
          },
          {
            "duration": 1.2886900895833406,
            "durationTicks": 866,
            "midi": 69,
            "name": "A4",
            "ticks": 73920,
            "time": 109.999967,
            "velocity": 0.6456692913385826
          },
          {
            "duration": 1.2886900895833406,
            "durationTicks": 866,
            "midi": 38,
            "name": "D2",
            "ticks": 73920,
            "time": 109.999967,
            "velocity": 0.6456692913385826
          },
          {
            "duration": 0.6473212343749992,
            "durationTicks": 435,
            "midi": 74,
            "name": "D5",
            "ticks": 74400,
            "time": 110.7142525,
            "velocity": 0.6614173228346457
          },
          {
            "duration": 0.6473212343749992,
            "durationTicks": 435,
            "midi": 74,
            "name": "D5",
            "ticks": 74880,
            "time": 111.428538,
            "velocity": 0.6614173228346457
          },
          {
            "duration": 1.2886900895833406,
            "durationTicks": 866,
            "midi": 71,
            "name": "B4",
            "ticks": 74880,
            "time": 111.428538,
            "velocity": 0.6850393700787402
          },
          {
            "duration": 1.2886900895833406,
            "durationTicks": 866,
            "midi": 43,
            "name": "G2",
            "ticks": 74880,
            "time": 111.428538,
            "velocity": 0.7007874015748031
          },
          {
            "duration": 0.6473212343749992,
            "durationTicks": 435,
            "midi": 79,
            "name": "G5",
            "ticks": 75360,
            "time": 112.1428235,
            "velocity": 0.7007874015748031
          },
          {
            "duration": 0.6473212343749992,
            "durationTicks": 435,
            "midi": 76,
            "name": "E5",
            "ticks": 75840,
            "time": 112.85710900000001,
            "velocity": 0.6614173228346457
          },
          {
            "duration": 1.2886900895833264,
            "durationTicks": 866,
            "midi": 73,
            "name": "C#5",
            "ticks": 75840,
            "time": 112.85710900000001,
            "velocity": 0.6850393700787402
          },
          {
            "duration": 1.2886900895833264,
            "durationTicks": 866,
            "midi": 45,
            "name": "A2",
            "ticks": 75840,
            "time": 112.85710900000001,
            "velocity": 0.6850393700787402
          },
          {
            "duration": 0.6473212343749992,
            "durationTicks": 435,
            "midi": 81,
            "name": "A5",
            "ticks": 76320,
            "time": 113.5713945,
            "velocity": 0.7007874015748031
          },
          {
            "duration": 0.3630951291666662,
            "durationTicks": 244,
            "midi": 81,
            "name": "A5",
            "ticks": 76800,
            "time": 114.28568,
            "velocity": 0.7874015748031497
          },
          {
            "duration": 1.2886900895833406,
            "durationTicks": 866,
            "midi": 50,
            "name": "D3",
            "ticks": 76800,
            "time": 114.28568,
            "velocity": 0.8031496062992126
          },
          {
            "duration": 0.17857137499998998,
            "durationTicks": 120,
            "midi": 78,
            "name": "F#5",
            "ticks": 77040,
            "time": 114.64282275000001,
            "velocity": 0.7637795275590551
          },
          {
            "duration": 0.16815471145834238,
            "durationTicks": 113,
            "midi": 79,
            "name": "G5",
            "ticks": 77160,
            "time": 114.821394125,
            "velocity": 0.7874015748031497
          },
          {
            "duration": 0.3630951291666662,
            "durationTicks": 244,
            "midi": 81,
            "name": "A5",
            "ticks": 77280,
            "time": 114.9999655,
            "velocity": 0.7874015748031497
          },
          {
            "duration": 0.1785713750000042,
            "durationTicks": 120,
            "midi": 78,
            "name": "F#5",
            "ticks": 77520,
            "time": 115.35710825,
            "velocity": 0.7480314960629921
          },
          {
            "duration": 0.1785713750000042,
            "durationTicks": 120,
            "midi": 79,
            "name": "G5",
            "ticks": 77640,
            "time": 115.535679625,
            "velocity": 0.7874015748031497
          },
          {
            "duration": 0.16815471145834238,
            "durationTicks": 113,
            "midi": 81,
            "name": "A5",
            "ticks": 77760,
            "time": 115.714251,
            "velocity": 0.8031496062992126
          },
          {
            "duration": 1.2886900895833406,
            "durationTicks": 866,
            "midi": 45,
            "name": "A2",
            "ticks": 77760,
            "time": 115.714251,
            "velocity": 0.7480314960629921
          },
          {
            "duration": 0.17857137499998998,
            "durationTicks": 120,
            "midi": 69,
            "name": "A4",
            "ticks": 77880,
            "time": 115.89282237500001,
            "velocity": 0.6692913385826772
          },
          {
            "duration": 0.1785713750000042,
            "durationTicks": 120,
            "midi": 71,
            "name": "B4",
            "ticks": 78000,
            "time": 116.07139375,
            "velocity": 0.7874015748031497
          },
          {
            "duration": 0.1785713750000042,
            "durationTicks": 120,
            "midi": 73,
            "name": "C#5",
            "ticks": 78120,
            "time": 116.249965125,
            "velocity": 0.7874015748031497
          },
          {
            "duration": 0.17857137499998998,
            "durationTicks": 120,
            "midi": 74,
            "name": "D5",
            "ticks": 78240,
            "time": 116.4285365,
            "velocity": 0.7795275590551181
          },
          {
            "duration": 0.1785713750000042,
            "durationTicks": 120,
            "midi": 76,
            "name": "E5",
            "ticks": 78360,
            "time": 116.607107875,
            "velocity": 0.8031496062992126
          },
          {
            "duration": 0.1785713750000042,
            "durationTicks": 120,
            "midi": 78,
            "name": "F#5",
            "ticks": 78480,
            "time": 116.78567925,
            "velocity": 0.7874015748031497
          },
          {
            "duration": 0.16815471145834238,
            "durationTicks": 113,
            "midi": 79,
            "name": "G5",
            "ticks": 78600,
            "time": 116.964250625,
            "velocity": 0.8110236220472441
          },
          {
            "duration": 0.363095129166652,
            "durationTicks": 244,
            "midi": 78,
            "name": "F#5",
            "ticks": 78720,
            "time": 117.14282200000001,
            "velocity": 0.7480314960629921
          },
          {
            "duration": 1.2886900895833264,
            "durationTicks": 866,
            "midi": 47,
            "name": "B2",
            "ticks": 78720,
            "time": 117.14282200000001,
            "velocity": 0.7795275590551181
          },
          {
            "duration": 0.1785713750000042,
            "durationTicks": 120,
            "midi": 74,
            "name": "D5",
            "ticks": 78960,
            "time": 117.49996475,
            "velocity": 0.7165354330708661
          },
          {
            "duration": 0.17857137499998998,
            "durationTicks": 120,
            "midi": 76,
            "name": "E5",
            "ticks": 79080,
            "time": 117.67853612500001,
            "velocity": 0.8110236220472441
          },
          {
            "duration": 0.33482132812500254,
            "durationTicks": 225,
            "midi": 78,
            "name": "F#5",
            "ticks": 79200,
            "time": 117.8571075,
            "velocity": 0.7952755905511811
          },
          {
            "duration": 0.17857137499998998,
            "durationTicks": 120,
            "midi": 66,
            "name": "F#4",
            "ticks": 79440,
            "time": 118.21425025,
            "velocity": 0.6692913385826772
          },
          {
            "duration": 0.16815471145834238,
            "durationTicks": 113,
            "midi": 67,
            "name": "G4",
            "ticks": 79560,
            "time": 118.392821625,
            "velocity": 0.7716535433070866
          },
          {
            "duration": 0.1785713750000042,
            "durationTicks": 120,
            "midi": 69,
            "name": "A4",
            "ticks": 79680,
            "time": 118.571393,
            "velocity": 0.7952755905511811
          },
          {
            "duration": 1.2886900895833406,
            "durationTicks": 866,
            "midi": 42,
            "name": "F#2",
            "ticks": 79680,
            "time": 118.571393,
            "velocity": 0.7559055118110236
          },
          {
            "duration": 0.1785713750000042,
            "durationTicks": 120,
            "midi": 71,
            "name": "B4",
            "ticks": 79800,
            "time": 118.749964375,
            "velocity": 0.7952755905511811
          },
          {
            "duration": 0.17857137499998998,
            "durationTicks": 120,
            "midi": 69,
            "name": "A4",
            "ticks": 79920,
            "time": 118.92853575000001,
            "velocity": 0.7480314960629921
          },
          {
            "duration": 0.1785713750000042,
            "durationTicks": 120,
            "midi": 67,
            "name": "G4",
            "ticks": 80040,
            "time": 119.107107125,
            "velocity": 0.7244094488188977
          },
          {
            "duration": 0.1785713750000042,
            "durationTicks": 120,
            "midi": 69,
            "name": "A4",
            "ticks": 80160,
            "time": 119.2856785,
            "velocity": 0.7716535433070866
          },
          {
            "duration": 0.17857137499998998,
            "durationTicks": 120,
            "midi": 66,
            "name": "F#4",
            "ticks": 80280,
            "time": 119.46424987500001,
            "velocity": 0.7559055118110236
          },
          {
            "duration": 0.1785713750000042,
            "durationTicks": 120,
            "midi": 67,
            "name": "G4",
            "ticks": 80400,
            "time": 119.64282125,
            "velocity": 0.7874015748031497
          },
          {
            "duration": 0.16815471145834238,
            "durationTicks": 113,
            "midi": 69,
            "name": "A4",
            "ticks": 80520,
            "time": 119.821392625,
            "velocity": 0.7795275590551181
          },
          {
            "duration": 0.363095129166652,
            "durationTicks": 244,
            "midi": 67,
            "name": "G4",
            "ticks": 80640,
            "time": 119.999964,
            "velocity": 0.7480314960629921
          },
          {
            "duration": 1.2886900895833406,
            "durationTicks": 866,
            "midi": 43,
            "name": "G2",
            "ticks": 80640,
            "time": 119.999964,
            "velocity": 0.7716535433070866
          },
          {
            "duration": 0.1785713750000042,
            "durationTicks": 120,
            "midi": 71,
            "name": "B4",
            "ticks": 80880,
            "time": 120.35710675,
            "velocity": 0.7874015748031497
          },
          {
            "duration": 0.1785713750000042,
            "durationTicks": 120,
            "midi": 69,
            "name": "A4",
            "ticks": 81000,
            "time": 120.535678125,
            "velocity": 0.7637795275590551
          },
          {
            "duration": 0.363095129166652,
            "durationTicks": 244,
            "midi": 67,
            "name": "G4",
            "ticks": 81120,
            "time": 120.71424950000001,
            "velocity": 0.7401574803149606
          },
          {
            "duration": 0.1785713750000042,
            "durationTicks": 120,
            "midi": 66,
            "name": "F#4",
            "ticks": 81360,
            "time": 121.07139225,
            "velocity": 0.7244094488188977
          },
          {
            "duration": 0.16815471145834238,
            "durationTicks": 113,
            "midi": 64,
            "name": "E4",
            "ticks": 81480,
            "time": 121.249963625,
            "velocity": 0.7480314960629921
          },
          {
            "duration": 0.1785713750000042,
            "durationTicks": 120,
            "midi": 66,
            "name": "F#4",
            "ticks": 81600,
            "time": 121.428535,
            "velocity": 0.7952755905511811
          },
          {
            "duration": 1.2886900895833406,
            "durationTicks": 866,
            "midi": 38,
            "name": "D2",
            "ticks": 81600,
            "time": 121.428535,
            "velocity": 0.7480314960629921
          },
          {
            "duration": 0.1785713750000042,
            "durationTicks": 120,
            "midi": 64,
            "name": "E4",
            "ticks": 81720,
            "time": 121.607106375,
            "velocity": 0.7480314960629921
          },
          {
            "duration": 0.1785713750000042,
            "durationTicks": 120,
            "midi": 62,
            "name": "D4",
            "ticks": 81840,
            "time": 121.78567775,
            "velocity": 0.7244094488188977
          },
          {
            "duration": 0.17857137499998998,
            "durationTicks": 120,
            "midi": 64,
            "name": "E4",
            "ticks": 81960,
            "time": 121.96424912500001,
            "velocity": 0.7952755905511811
          },
          {
            "duration": 0.1785713750000042,
            "durationTicks": 120,
            "midi": 66,
            "name": "F#4",
            "ticks": 82080,
            "time": 122.1428205,
            "velocity": 0.7795275590551181
          },
          {
            "duration": 0.1785713750000042,
            "durationTicks": 120,
            "midi": 67,
            "name": "G4",
            "ticks": 82200,
            "time": 122.321391875,
            "velocity": 0.8031496062992126
          },
          {
            "duration": 0.17857137499998998,
            "durationTicks": 120,
            "midi": 69,
            "name": "A4",
            "ticks": 82320,
            "time": 122.49996325000001,
            "velocity": 0.8031496062992126
          },
          {
            "duration": 0.16815471145834238,
            "durationTicks": 113,
            "midi": 71,
            "name": "B4",
            "ticks": 82440,
            "time": 122.678534625,
            "velocity": 0.7952755905511811
          },
          {
            "duration": 0.3630951291666662,
            "durationTicks": 244,
            "midi": 67,
            "name": "G4",
            "ticks": 82560,
            "time": 122.857106,
            "velocity": 0.7244094488188977
          },
          {
            "duration": 1.2886900895833406,
            "durationTicks": 866,
            "midi": 43,
            "name": "G2",
            "ticks": 82560,
            "time": 122.857106,
            "velocity": 0.7874015748031497
          },
          {
            "duration": 0.17857137499998998,
            "durationTicks": 120,
            "midi": 71,
            "name": "B4",
            "ticks": 82800,
            "time": 123.21424875000001,
            "velocity": 0.7559055118110236
          },
          {
            "duration": 0.1785713750000042,
            "durationTicks": 120,
            "midi": 69,
            "name": "A4",
            "ticks": 82920,
            "time": 123.392820125,
            "velocity": 0.7401574803149606
          },
          {
            "duration": 0.3630951291666662,
            "durationTicks": 244,
            "midi": 71,
            "name": "B4",
            "ticks": 83040,
            "time": 123.5713915,
            "velocity": 0.7795275590551181
          },
          {
            "duration": 0.1785713750000042,
            "durationTicks": 120,
            "midi": 73,
            "name": "C#5",
            "ticks": 83280,
            "time": 123.92853425,
            "velocity": 0.7874015748031497
          },
          {
            "duration": 0.16815471145834238,
            "durationTicks": 113,
            "midi": 74,
            "name": "D5",
            "ticks": 83400,
            "time": 124.107105625,
            "velocity": 0.7716535433070866
          },
          {
            "duration": 0.17857137499998998,
            "durationTicks": 120,
            "midi": 69,
            "name": "A4",
            "ticks": 83520,
            "time": 124.285677,
            "velocity": 0.7322834645669292
          },
          {
            "duration": 1.2886900895833406,
            "durationTicks": 866,
            "midi": 45,
            "name": "A2",
            "ticks": 83520,
            "time": 124.285677,
            "velocity": 0.7874015748031497
          },
          {
            "duration": 0.1785713750000042,
            "durationTicks": 120,
            "midi": 71,
            "name": "B4",
            "ticks": 83640,
            "time": 124.464248375,
            "velocity": 0.7952755905511811
          },
          {
            "duration": 0.1785713750000042,
            "durationTicks": 120,
            "midi": 73,
            "name": "C#5",
            "ticks": 83760,
            "time": 124.64281975,
            "velocity": 0.7795275590551181
          },
          {
            "duration": 0.1785713750000042,
            "durationTicks": 120,
            "midi": 74,
            "name": "D5",
            "ticks": 83880,
            "time": 124.821391125,
            "velocity": 0.7952755905511811
          },
          {
            "duration": 0.17857137499998998,
            "durationTicks": 120,
            "midi": 76,
            "name": "E5",
            "ticks": 84000,
            "time": 124.99996250000001,
            "velocity": 0.7952755905511811
          },
          {
            "duration": 0.1785713750000042,
            "durationTicks": 120,
            "midi": 78,
            "name": "F#5",
            "ticks": 84120,
            "time": 125.178533875,
            "velocity": 0.8031496062992126
          },
          {
            "duration": 0.1785713750000042,
            "durationTicks": 120,
            "midi": 79,
            "name": "G5",
            "ticks": 84240,
            "time": 125.35710525,
            "velocity": 0.8031496062992126
          },
          {
            "duration": 0.16815471145834238,
            "durationTicks": 113,
            "midi": 81,
            "name": "A5",
            "ticks": 84360,
            "time": 125.53567662500001,
            "velocity": 0.7952755905511811
          },
          {
            "duration": 0.3630951291666662,
            "durationTicks": 244,
            "midi": 81,
            "name": "A5",
            "ticks": 84480,
            "time": 125.714248,
            "velocity": 0.7637795275590551
          },
          {
            "duration": 1.2886900895833406,
            "durationTicks": 866,
            "midi": 50,
            "name": "D3",
            "ticks": 84480,
            "time": 125.714248,
            "velocity": 0.7952755905511811
          },
          {
            "duration": 0.17857137499998998,
            "durationTicks": 120,
            "midi": 78,
            "name": "F#5",
            "ticks": 84720,
            "time": 126.07139075,
            "velocity": 0.7322834645669292
          },
          {
            "duration": 0.1681547114583566,
            "durationTicks": 113,
            "midi": 79,
            "name": "G5",
            "ticks": 84840,
            "time": 126.249962125,
            "velocity": 0.8031496062992126
          },
          {
            "duration": 0.3630951291666662,
            "durationTicks": 244,
            "midi": 81,
            "name": "A5",
            "ticks": 84960,
            "time": 126.4285335,
            "velocity": 0.7952755905511811
          },
          {
            "duration": 0.17857137499998998,
            "durationTicks": 120,
            "midi": 78,
            "name": "F#5",
            "ticks": 85200,
            "time": 126.78567625000001,
            "velocity": 0.7559055118110236
          },
          {
            "duration": 0.16815471145834238,
            "durationTicks": 113,
            "midi": 79,
            "name": "G5",
            "ticks": 85320,
            "time": 126.964247625,
            "velocity": 0.7952755905511811
          },
          {
            "duration": 0.1785713750000042,
            "durationTicks": 120,
            "midi": 81,
            "name": "A5",
            "ticks": 85440,
            "time": 127.142819,
            "velocity": 0.7874015748031497
          },
          {
            "duration": 1.2886900895833264,
            "durationTicks": 866,
            "midi": 45,
            "name": "A2",
            "ticks": 85440,
            "time": 127.142819,
            "velocity": 0.7480314960629921
          },
          {
            "duration": 0.17857137499998998,
            "durationTicks": 120,
            "midi": 69,
            "name": "A4",
            "ticks": 85560,
            "time": 127.32139037500001,
            "velocity": 0.6771653543307087
          },
          {
            "duration": 0.1785713750000042,
            "durationTicks": 120,
            "midi": 71,
            "name": "B4",
            "ticks": 85680,
            "time": 127.49996175,
            "velocity": 0.7874015748031497
          },
          {
            "duration": 0.1785713750000042,
            "durationTicks": 120,
            "midi": 73,
            "name": "C#5",
            "ticks": 85800,
            "time": 127.678533125,
            "velocity": 0.7952755905511811
          },
          {
            "duration": 0.1785713750000042,
            "durationTicks": 120,
            "midi": 74,
            "name": "D5",
            "ticks": 85920,
            "time": 127.8571045,
            "velocity": 0.7874015748031497
          },
          {
            "duration": 0.17857137499998998,
            "durationTicks": 120,
            "midi": 76,
            "name": "E5",
            "ticks": 86040,
            "time": 128.035675875,
            "velocity": 0.8031496062992126
          },
          {
            "duration": 0.17857137499998998,
            "durationTicks": 120,
            "midi": 78,
            "name": "F#5",
            "ticks": 86160,
            "time": 128.21424725,
            "velocity": 0.7874015748031497
          },
          {
            "duration": 0.1681547114583566,
            "durationTicks": 113,
            "midi": 79,
            "name": "G5",
            "ticks": 86280,
            "time": 128.392818625,
            "velocity": 0.7952755905511811
          },
          {
            "duration": 0.363095129166652,
            "durationTicks": 244,
            "midi": 78,
            "name": "F#5",
            "ticks": 86400,
            "time": 128.57139,
            "velocity": 0.7559055118110236
          },
          {
            "duration": 1.2886900895833264,
            "durationTicks": 866,
            "midi": 47,
            "name": "B2",
            "ticks": 86400,
            "time": 128.57139,
            "velocity": 0.7716535433070866
          },
          {
            "duration": 0.17857137499998998,
            "durationTicks": 120,
            "midi": 74,
            "name": "D5",
            "ticks": 86640,
            "time": 128.92853275000002,
            "velocity": 0.7086614173228346
          },
          {
            "duration": 0.16815471145832817,
            "durationTicks": 113,
            "midi": 76,
            "name": "E5",
            "ticks": 86760,
            "time": 129.107104125,
            "velocity": 0.8031496062992126
          },
          {
            "duration": 0.3630951291666804,
            "durationTicks": 244,
            "midi": 78,
            "name": "F#5",
            "ticks": 86880,
            "time": 129.2856755,
            "velocity": 0.7952755905511811
          },
          {
            "duration": 0.17857137499998998,
            "durationTicks": 120,
            "midi": 66,
            "name": "F#4",
            "ticks": 87120,
            "time": 129.64281825,
            "velocity": 0.6771653543307087
          },
          {
            "duration": 0.1681547114583566,
            "durationTicks": 113,
            "midi": 67,
            "name": "G4",
            "ticks": 87240,
            "time": 129.821389625,
            "velocity": 0.7637795275590551
          },
          {
            "duration": 0.17857137499998998,
            "durationTicks": 120,
            "midi": 69,
            "name": "A4",
            "ticks": 87360,
            "time": 129.999961,
            "velocity": 0.7716535433070866
          },
          {
            "duration": 1.2886900895833264,
            "durationTicks": 866,
            "midi": 42,
            "name": "F#2",
            "ticks": 87360,
            "time": 129.999961,
            "velocity": 0.7637795275590551
          },
          {
            "duration": 0.17857137499998998,
            "durationTicks": 120,
            "midi": 71,
            "name": "B4",
            "ticks": 87480,
            "time": 130.178532375,
            "velocity": 0.7795275590551181
          },
          {
            "duration": 0.1785713750000184,
            "durationTicks": 120,
            "midi": 69,
            "name": "A4",
            "ticks": 87600,
            "time": 130.35710375,
            "velocity": 0.7401574803149606
          },
          {
            "duration": 0.17857137499998998,
            "durationTicks": 120,
            "midi": 67,
            "name": "G4",
            "ticks": 87720,
            "time": 130.535675125,
            "velocity": 0.7401574803149606
          },
          {
            "duration": 0.17857137499998998,
            "durationTicks": 120,
            "midi": 69,
            "name": "A4",
            "ticks": 87840,
            "time": 130.7142465,
            "velocity": 0.7952755905511811
          },
          {
            "duration": 0.1785713750000184,
            "durationTicks": 120,
            "midi": 66,
            "name": "F#4",
            "ticks": 87960,
            "time": 130.892817875,
            "velocity": 0.7401574803149606
          },
          {
            "duration": 0.17857137499998998,
            "durationTicks": 120,
            "midi": 67,
            "name": "G4",
            "ticks": 88080,
            "time": 131.07138925,
            "velocity": 0.7952755905511811
          },
          {
            "duration": 0.1681547114583566,
            "durationTicks": 113,
            "midi": 69,
            "name": "A4",
            "ticks": 88200,
            "time": 131.249960625,
            "velocity": 0.8031496062992126
          },
          {
            "duration": 0.3630951291666804,
            "durationTicks": 244,
            "midi": 67,
            "name": "G4",
            "ticks": 88320,
            "time": 131.428532,
            "velocity": 0.7480314960629921
          },
          {
            "duration": 1.2886900895833548,
            "durationTicks": 866,
            "midi": 43,
            "name": "G2",
            "ticks": 88320,
            "time": 131.428532,
            "velocity": 0.7795275590551181
          },
          {
            "duration": 0.1785713750000184,
            "durationTicks": 120,
            "midi": 71,
            "name": "B4",
            "ticks": 88560,
            "time": 131.78567475,
            "velocity": 0.7795275590551181
          },
          {
            "duration": 0.17857137499998998,
            "durationTicks": 120,
            "midi": 69,
            "name": "A4",
            "ticks": 88680,
            "time": 131.96424612500002,
            "velocity": 0.7480314960629921
          },
          {
            "duration": 0.363095129166652,
            "durationTicks": 244,
            "midi": 67,
            "name": "G4",
            "ticks": 88800,
            "time": 132.1428175,
            "velocity": 0.7559055118110236
          },
          {
            "duration": 0.17857137499998998,
            "durationTicks": 120,
            "midi": 66,
            "name": "F#4",
            "ticks": 89040,
            "time": 132.49996025000002,
            "velocity": 0.7401574803149606
          },
          {
            "duration": 0.16815471145832817,
            "durationTicks": 113,
            "midi": 64,
            "name": "E4",
            "ticks": 89160,
            "time": 132.678531625,
            "velocity": 0.7480314960629921
          },
          {
            "duration": 0.1785713750000184,
            "durationTicks": 120,
            "midi": 66,
            "name": "F#4",
            "ticks": 89280,
            "time": 132.857103,
            "velocity": 0.8110236220472441
          },
          {
            "duration": 1.2886900895833548,
            "durationTicks": 866,
            "midi": 38,
            "name": "D2",
            "ticks": 89280,
            "time": 132.857103,
            "velocity": 0.7401574803149606
          },
          {
            "duration": 0.17857137499998998,
            "durationTicks": 120,
            "midi": 64,
            "name": "E4",
            "ticks": 89400,
            "time": 133.035674375,
            "velocity": 0.7637795275590551
          },
          {
            "duration": 0.17857137499998998,
            "durationTicks": 120,
            "midi": 62,
            "name": "D4",
            "ticks": 89520,
            "time": 133.21424575,
            "velocity": 0.7637795275590551
          },
          {
            "duration": 0.1785713750000184,
            "durationTicks": 120,
            "midi": 64,
            "name": "E4",
            "ticks": 89640,
            "time": 133.392817125,
            "velocity": 0.8031496062992126
          },
          {
            "duration": 0.17857137499998998,
            "durationTicks": 120,
            "midi": 66,
            "name": "F#4",
            "ticks": 89760,
            "time": 133.5713885,
            "velocity": 0.8188976377952756
          },
          {
            "duration": 0.17857137499998998,
            "durationTicks": 120,
            "midi": 67,
            "name": "G4",
            "ticks": 89880,
            "time": 133.749959875,
            "velocity": 0.7874015748031497
          },
          {
            "duration": 0.1785713750000184,
            "durationTicks": 120,
            "midi": 69,
            "name": "A4",
            "ticks": 90000,
            "time": 133.92853125,
            "velocity": 0.7874015748031497
          },
          {
            "duration": 0.16815471145832817,
            "durationTicks": 113,
            "midi": 71,
            "name": "B4",
            "ticks": 90120,
            "time": 134.107102625,
            "velocity": 0.7874015748031497
          },
          {
            "duration": 0.363095129166652,
            "durationTicks": 244,
            "midi": 67,
            "name": "G4",
            "ticks": 90240,
            "time": 134.285674,
            "velocity": 0.7007874015748031
          },
          {
            "duration": 1.2886900895833548,
            "durationTicks": 866,
            "midi": 43,
            "name": "G2",
            "ticks": 90240,
            "time": 134.285674,
            "velocity": 0.7952755905511811
          },
          {
            "duration": 0.17857137499998998,
            "durationTicks": 120,
            "midi": 71,
            "name": "B4",
            "ticks": 90480,
            "time": 134.64281675,
            "velocity": 0.7559055118110236
          },
          {
            "duration": 0.1785713750000184,
            "durationTicks": 120,
            "midi": 69,
            "name": "A4",
            "ticks": 90600,
            "time": 134.821388125,
            "velocity": 0.7322834645669292
          },
          {
            "duration": 0.363095129166652,
            "durationTicks": 244,
            "midi": 71,
            "name": "B4",
            "ticks": 90720,
            "time": 134.99995950000002,
            "velocity": 0.7952755905511811
          },
          {
            "duration": 0.1785713750000184,
            "durationTicks": 120,
            "midi": 73,
            "name": "C#5",
            "ticks": 90960,
            "time": 135.35710225,
            "velocity": 0.8110236220472441
          },
          {
            "duration": 0.16815471145832817,
            "durationTicks": 113,
            "midi": 74,
            "name": "D5",
            "ticks": 91080,
            "time": 135.53567362500002,
            "velocity": 0.8031496062992126
          },
          {
            "duration": 0.17857137499998998,
            "durationTicks": 120,
            "midi": 69,
            "name": "A4",
            "ticks": 91200,
            "time": 135.714245,
            "velocity": 0.7086614173228346
          },
          {
            "duration": 1.2886900895833264,
            "durationTicks": 866,
            "midi": 45,
            "name": "A2",
            "ticks": 91200,
            "time": 135.714245,
            "velocity": 0.7795275590551181
          },
          {
            "duration": 0.1785713750000184,
            "durationTicks": 120,
            "midi": 71,
            "name": "B4",
            "ticks": 91320,
            "time": 135.892816375,
            "velocity": 0.7795275590551181
          },
          {
            "duration": 0.17857137499998998,
            "durationTicks": 120,
            "midi": 73,
            "name": "C#5",
            "ticks": 91440,
            "time": 136.07138775,
            "velocity": 0.7952755905511811
          },
          {
            "duration": 0.17857137499998998,
            "durationTicks": 120,
            "midi": 74,
            "name": "D5",
            "ticks": 91560,
            "time": 136.249959125,
            "velocity": 0.7874015748031497
          },
          {
            "duration": 0.1785713750000184,
            "durationTicks": 120,
            "midi": 76,
            "name": "E5",
            "ticks": 91680,
            "time": 136.4285305,
            "velocity": 0.7952755905511811
          },
          {
            "duration": 0.17857137499998998,
            "durationTicks": 120,
            "midi": 78,
            "name": "F#5",
            "ticks": 91800,
            "time": 136.607101875,
            "velocity": 0.8110236220472441
          },
          {
            "duration": 0.17857137499998998,
            "durationTicks": 120,
            "midi": 79,
            "name": "G5",
            "ticks": 91920,
            "time": 136.78567325,
            "velocity": 0.7874015748031497
          },
          {
            "duration": 0.1681547114583566,
            "durationTicks": 113,
            "midi": 81,
            "name": "A5",
            "ticks": 92040,
            "time": 136.964244625,
            "velocity": 0.7952755905511811
          },
          {
            "duration": 0.363095129166652,
            "durationTicks": 244,
            "midi": 78,
            "name": "F#5",
            "ticks": 92160,
            "time": 137.142816,
            "velocity": 0.7401574803149606
          },
          {
            "duration": 1.2886900895833264,
            "durationTicks": 866,
            "midi": 50,
            "name": "D3",
            "ticks": 92160,
            "time": 137.142816,
            "velocity": 0.8110236220472441
          },
          {
            "duration": 0.1785713750000184,
            "durationTicks": 120,
            "midi": 74,
            "name": "D5",
            "ticks": 92400,
            "time": 137.49995875,
            "velocity": 0.6929133858267716
          },
          {
            "duration": 0.17857137499998998,
            "durationTicks": 120,
            "midi": 76,
            "name": "E5",
            "ticks": 92520,
            "time": 137.678530125,
            "velocity": 0.7952755905511811
          },
          {
            "duration": 0.363095129166652,
            "durationTicks": 244,
            "midi": 78,
            "name": "F#5",
            "ticks": 92640,
            "time": 137.8571015,
            "velocity": 0.7952755905511811
          },
          {
            "duration": 0.17857137499998998,
            "durationTicks": 120,
            "midi": 76,
            "name": "E5",
            "ticks": 92880,
            "time": 138.21424425,
            "velocity": 0.7559055118110236
          },
          {
            "duration": 0.1681547114583566,
            "durationTicks": 113,
            "midi": 74,
            "name": "D5",
            "ticks": 93000,
            "time": 138.392815625,
            "velocity": 0.7401574803149606
          },
          {
            "duration": 0.17857137499998998,
            "durationTicks": 120,
            "midi": 76,
            "name": "E5",
            "ticks": 93120,
            "time": 138.57138700000002,
            "velocity": 0.7952755905511811
          },
          {
            "duration": 1.2886900895833264,
            "durationTicks": 866,
            "midi": 45,
            "name": "A2",
            "ticks": 93120,
            "time": 138.57138700000002,
            "velocity": 0.7480314960629921
          },
          {
            "duration": 0.17857137499998998,
            "durationTicks": 120,
            "midi": 73,
            "name": "C#5",
            "ticks": 93240,
            "time": 138.749958375,
            "velocity": 0.7401574803149606
          },
          {
            "duration": 0.1785713750000184,
            "durationTicks": 120,
            "midi": 74,
            "name": "D5",
            "ticks": 93360,
            "time": 138.92852975,
            "velocity": 0.7637795275590551
          },
          {
            "duration": 0.17857137499998998,
            "durationTicks": 120,
            "midi": 76,
            "name": "E5",
            "ticks": 93480,
            "time": 139.107101125,
            "velocity": 0.7874015748031497
          },
          {
            "duration": 0.17857137499998998,
            "durationTicks": 120,
            "midi": 78,
            "name": "F#5",
            "ticks": 93600,
            "time": 139.2856725,
            "velocity": 0.7874015748031497
          },
          {
            "duration": 0.1785713750000184,
            "durationTicks": 120,
            "midi": 76,
            "name": "E5",
            "ticks": 93720,
            "time": 139.464243875,
            "velocity": 0.7559055118110236
          },
          {
            "duration": 0.17857137499998998,
            "durationTicks": 120,
            "midi": 74,
            "name": "D5",
            "ticks": 93840,
            "time": 139.64281525,
            "velocity": 0.7480314960629921
          },
          {
            "duration": 0.1681547114583566,
            "durationTicks": 113,
            "midi": 73,
            "name": "C#5",
            "ticks": 93960,
            "time": 139.821386625,
            "velocity": 0.7322834645669292
          },
          {
            "duration": 0.3630951291666804,
            "durationTicks": 244,
            "midi": 74,
            "name": "D5",
            "ticks": 94080,
            "time": 139.999958,
            "velocity": 0.7874015748031497
          },
          {
            "duration": 1.2886900895833548,
            "durationTicks": 866,
            "midi": 47,
            "name": "B2",
            "ticks": 94080,
            "time": 139.999958,
            "velocity": 0.7952755905511811
          },
          {
            "duration": 0.17857137499998998,
            "durationTicks": 120,
            "midi": 71,
            "name": "B4",
            "ticks": 94320,
            "time": 140.35710075,
            "velocity": 0.7401574803149606
          },
          {
            "duration": 0.1785713750000184,
            "durationTicks": 120,
            "midi": 73,
            "name": "C#5",
            "ticks": 94440,
            "time": 140.535672125,
            "velocity": 0.7952755905511811
          },
          {
            "duration": 0.33482132812500254,
            "durationTicks": 225,
            "midi": 74,
            "name": "D5",
            "ticks": 94560,
            "time": 140.7142435,
            "velocity": 0.7716535433070866
          },
          {
            "duration": 0.17857137499998998,
            "durationTicks": 120,
            "midi": 62,
            "name": "D4",
            "ticks": 94800,
            "time": 141.07138625000002,
            "velocity": 0.6771653543307087
          },
          {
            "duration": 0.17857137499998998,
            "durationTicks": 120,
            "midi": 64,
            "name": "E4",
            "ticks": 94920,
            "time": 141.249957625,
            "velocity": 0.7874015748031497
          },
          {
            "duration": 0.1785713750000184,
            "durationTicks": 120,
            "midi": 66,
            "name": "F#4",
            "ticks": 95040,
            "time": 141.428529,
            "velocity": 0.7795275590551181
          },
          {
            "duration": 1.2886900895833548,
            "durationTicks": 866,
            "midi": 42,
            "name": "F#2",
            "ticks": 95040,
            "time": 141.428529,
            "velocity": 0.7480314960629921
          },
          {
            "duration": 0.17857137499998998,
            "durationTicks": 120,
            "midi": 67,
            "name": "G4",
            "ticks": 95160,
            "time": 141.60710037500002,
            "velocity": 0.7952755905511811
          },
          {
            "duration": 0.17857137499998998,
            "durationTicks": 120,
            "midi": 66,
            "name": "F#4",
            "ticks": 95280,
            "time": 141.78567175,
            "velocity": 0.7322834645669292
          },
          {
            "duration": 0.1785713750000184,
            "durationTicks": 120,
            "midi": 64,
            "name": "E4",
            "ticks": 95400,
            "time": 141.964243125,
            "velocity": 0.7480314960629921
          },
          {
            "duration": 0.17857137499998998,
            "durationTicks": 120,
            "midi": 66,
            "name": "F#4",
            "ticks": 95520,
            "time": 142.14281450000001,
            "velocity": 0.7952755905511811
          },
          {
            "duration": 0.17857137499998998,
            "durationTicks": 120,
            "midi": 74,
            "name": "D5",
            "ticks": 95640,
            "time": 142.321385875,
            "velocity": 0.8503937007874016
          },
          {
            "duration": 0.1785713750000184,
            "durationTicks": 120,
            "midi": 73,
            "name": "C#5",
            "ticks": 95760,
            "time": 142.49995725,
            "velocity": 0.7559055118110236
          },
          {
            "duration": 0.16815471145832817,
            "durationTicks": 113,
            "midi": 74,
            "name": "D5",
            "ticks": 95880,
            "time": 142.678528625,
            "velocity": 0.7874015748031497
          },
          {
            "duration": 0.363095129166652,
            "durationTicks": 244,
            "midi": 71,
            "name": "B4",
            "ticks": 96000,
            "time": 142.8571,
            "velocity": 0.7480314960629921
          },
          {
            "duration": 1.2886900895833264,
            "durationTicks": 866,
            "midi": 43,
            "name": "G2",
            "ticks": 96000,
            "time": 142.8571,
            "velocity": 0.7559055118110236
          },
          {
            "duration": 0.17857137499998998,
            "durationTicks": 120,
            "midi": 74,
            "name": "D5",
            "ticks": 96240,
            "time": 143.21424275,
            "velocity": 0.7952755905511811
          },
          {
            "duration": 0.17857137499998998,
            "durationTicks": 120,
            "midi": 73,
            "name": "C#5",
            "ticks": 96360,
            "time": 143.392814125,
            "velocity": 0.7401574803149606
          },
          {
            "duration": 0.3630951291666804,
            "durationTicks": 244,
            "midi": 71,
            "name": "B4",
            "ticks": 96480,
            "time": 143.5713855,
            "velocity": 0.7480314960629921
          },
          {
            "duration": 0.17857137499998998,
            "durationTicks": 120,
            "midi": 69,
            "name": "A4",
            "ticks": 96720,
            "time": 143.92852825,
            "velocity": 0.7322834645669292
          },
          {
            "duration": 0.1681547114583566,
            "durationTicks": 113,
            "midi": 67,
            "name": "G4",
            "ticks": 96840,
            "time": 144.107099625,
            "velocity": 0.7480314960629921
          },
          {
            "duration": 0.17857137499998998,
            "durationTicks": 120,
            "midi": 69,
            "name": "A4",
            "ticks": 96960,
            "time": 144.285671,
            "velocity": 0.8110236220472441
          },
          {
            "duration": 1.2886900895833264,
            "durationTicks": 866,
            "midi": 38,
            "name": "D2",
            "ticks": 96960,
            "time": 144.285671,
            "velocity": 0.7637795275590551
          },
          {
            "duration": 0.1785713750000184,
            "durationTicks": 120,
            "midi": 67,
            "name": "G4",
            "ticks": 97080,
            "time": 144.464242375,
            "velocity": 0.7244094488188977
          },
          {
            "duration": 0.17857137499998998,
            "durationTicks": 120,
            "midi": 66,
            "name": "F#4",
            "ticks": 97200,
            "time": 144.64281375000002,
            "velocity": 0.7480314960629921
          },
          {
            "duration": 0.17857137499998998,
            "durationTicks": 120,
            "midi": 67,
            "name": "G4",
            "ticks": 97320,
            "time": 144.821385125,
            "velocity": 0.8031496062992126
          },
          {
            "duration": 0.1785713750000184,
            "durationTicks": 120,
            "midi": 69,
            "name": "A4",
            "ticks": 97440,
            "time": 144.9999565,
            "velocity": 0.8031496062992126
          },
          {
            "duration": 0.17857137499998998,
            "durationTicks": 120,
            "midi": 71,
            "name": "B4",
            "ticks": 97560,
            "time": 145.17852787500001,
            "velocity": 0.7795275590551181
          },
          {
            "duration": 0.17857137499998998,
            "durationTicks": 120,
            "midi": 73,
            "name": "C#5",
            "ticks": 97680,
            "time": 145.35709925,
            "velocity": 0.8031496062992126
          },
          {
            "duration": 0.1681547114583566,
            "durationTicks": 113,
            "midi": 74,
            "name": "D5",
            "ticks": 97800,
            "time": 145.535670625,
            "velocity": 0.7874015748031497
          },
          {
            "duration": 0.363095129166652,
            "durationTicks": 244,
            "midi": 71,
            "name": "B4",
            "ticks": 97920,
            "time": 145.714242,
            "velocity": 0.7401574803149606
          },
          {
            "duration": 1.2886900895833264,
            "durationTicks": 866,
            "midi": 43,
            "name": "G2",
            "ticks": 97920,
            "time": 145.714242,
            "velocity": 0.7795275590551181
          },
          {
            "duration": 0.1785713750000184,
            "durationTicks": 120,
            "midi": 74,
            "name": "D5",
            "ticks": 98160,
            "time": 146.07138475,
            "velocity": 0.7637795275590551
          },
          {
            "duration": 0.17857137499998998,
            "durationTicks": 120,
            "midi": 73,
            "name": "C#5",
            "ticks": 98280,
            "time": 146.249956125,
            "velocity": 0.7480314960629921
          },
          {
            "duration": 0.363095129166652,
            "durationTicks": 244,
            "midi": 74,
            "name": "D5",
            "ticks": 98400,
            "time": 146.4285275,
            "velocity": 0.7874015748031497
          },
          {
            "duration": 0.17857137499998998,
            "durationTicks": 120,
            "midi": 73,
            "name": "C#5",
            "ticks": 98640,
            "time": 146.78567025,
            "velocity": 0.7559055118110236
          },
          {
            "duration": 0.1681547114583566,
            "durationTicks": 113,
            "midi": 71,
            "name": "B4",
            "ticks": 98760,
            "time": 146.964241625,
            "velocity": 0.7480314960629921
          },
          {
            "duration": 0.1785713750000184,
            "durationTicks": 120,
            "midi": 73,
            "name": "C#5",
            "ticks": 98880,
            "time": 147.142813,
            "velocity": 0.7874015748031497
          },
          {
            "duration": 1.2886900895833548,
            "durationTicks": 866,
            "midi": 45,
            "name": "A2",
            "ticks": 98880,
            "time": 147.142813,
            "velocity": 0.7874015748031497
          },
          {
            "duration": 0.17857137499998998,
            "durationTicks": 120,
            "midi": 74,
            "name": "D5",
            "ticks": 99000,
            "time": 147.321384375,
            "velocity": 0.7874015748031497
          },
          {
            "duration": 0.1785713750000184,
            "durationTicks": 120,
            "midi": 76,
            "name": "E5",
            "ticks": 99120,
            "time": 147.49995575,
            "velocity": 0.7874015748031497
          },
          {
            "duration": 0.17857137499998998,
            "durationTicks": 120,
            "midi": 74,
            "name": "D5",
            "ticks": 99240,
            "time": 147.67852712500002,
            "velocity": 0.7401574803149606
          },
          {
            "duration": 0.17857137499998998,
            "durationTicks": 120,
            "midi": 73,
            "name": "C#5",
            "ticks": 99360,
            "time": 147.8570985,
            "velocity": 0.7480314960629921
          },
          {
            "duration": 0.1785713750000184,
            "durationTicks": 120,
            "midi": 74,
            "name": "D5",
            "ticks": 99480,
            "time": 148.035669875,
            "velocity": 0.7874015748031497
          },
          {
            "duration": 0.17857137499998998,
            "durationTicks": 120,
            "midi": 71,
            "name": "B4",
            "ticks": 99600,
            "time": 148.21424125000001,
            "velocity": 0.7559055118110236
          },
          {
            "duration": 0.16815471145832817,
            "durationTicks": 113,
            "midi": 73,
            "name": "C#5",
            "ticks": 99720,
            "time": 148.392812625,
            "velocity": 0.7874015748031497
          },
          {
            "duration": 0.6473212343749992,
            "durationTicks": 435,
            "midi": 74,
            "name": "D5",
            "ticks": 99840,
            "time": 148.571384,
            "velocity": 0.7795275590551181
          },
          {
            "duration": 1.2886900895833548,
            "durationTicks": 866,
            "midi": 50,
            "name": "D3",
            "ticks": 99840,
            "time": 148.571384,
            "velocity": 0.8031496062992126
          },
          {
            "duration": 0.6473212343749992,
            "durationTicks": 435,
            "midi": 69,
            "name": "A4",
            "ticks": 100320,
            "time": 149.2856695,
            "velocity": 0.7244094488188977
          },
          {
            "duration": 0.6473212343749992,
            "durationTicks": 435,
            "midi": 73,
            "name": "C#5",
            "ticks": 100800,
            "time": 149.999955,
            "velocity": 0.8346456692913385
          },
          {
            "duration": 1.2886900895833548,
            "durationTicks": 866,
            "midi": 45,
            "name": "A2",
            "ticks": 100800,
            "time": 149.999955,
            "velocity": 0.7559055118110236
          },
          {
            "duration": 0.6473212343749992,
            "durationTicks": 435,
            "midi": 69,
            "name": "A4",
            "ticks": 101280,
            "time": 150.71424050000002,
            "velocity": 0.7401574803149606
          },
          {
            "duration": 0.6473212343749992,
            "durationTicks": 435,
            "midi": 71,
            "name": "B4",
            "ticks": 101760,
            "time": 151.428526,
            "velocity": 0.8031496062992126
          },
          {
            "duration": 1.2886900895833264,
            "durationTicks": 866,
            "midi": 47,
            "name": "B2",
            "ticks": 101760,
            "time": 151.428526,
            "velocity": 0.7795275590551181
          },
          {
            "duration": 0.6473212343749992,
            "durationTicks": 435,
            "midi": 66,
            "name": "F#4",
            "ticks": 102240,
            "time": 152.1428115,
            "velocity": 0.7244094488188977
          },
          {
            "duration": 0.6473212343749992,
            "durationTicks": 435,
            "midi": 74,
            "name": "D5",
            "ticks": 102720,
            "time": 152.857097,
            "velocity": 0.8503937007874016
          },
          {
            "duration": 1.2886900895833264,
            "durationTicks": 866,
            "midi": 42,
            "name": "F#2",
            "ticks": 102720,
            "time": 152.857097,
            "velocity": 0.7401574803149606
          },
          {
            "duration": 0.6473212343749992,
            "durationTicks": 435,
            "midi": 69,
            "name": "A4",
            "ticks": 103200,
            "time": 153.5713825,
            "velocity": 0.7401574803149606
          },
          {
            "duration": 0.6473212343749992,
            "durationTicks": 435,
            "midi": 62,
            "name": "D4",
            "ticks": 103680,
            "time": 154.28566800000002,
            "velocity": 0.7165354330708661
          },
          {
            "duration": 1.2886900895833264,
            "durationTicks": 866,
            "midi": 43,
            "name": "G2",
            "ticks": 103680,
            "time": 154.28566800000002,
            "velocity": 0.7716535433070866
          },
          {
            "duration": 0.6473212343749992,
            "durationTicks": 435,
            "midi": 67,
            "name": "G4",
            "ticks": 104160,
            "time": 154.9999535,
            "velocity": 0.8188976377952756
          },
          {
            "duration": 0.6473212343749992,
            "durationTicks": 435,
            "midi": 62,
            "name": "D4",
            "ticks": 104640,
            "time": 155.714239,
            "velocity": 0.7322834645669292
          },
          {
            "duration": 1.2886900895833548,
            "durationTicks": 866,
            "midi": 38,
            "name": "D2",
            "ticks": 104640,
            "time": 155.714239,
            "velocity": 0.7637795275590551
          },
          {
            "duration": 0.6473212343749992,
            "durationTicks": 435,
            "midi": 66,
            "name": "F#4",
            "ticks": 105120,
            "time": 156.4285245,
            "velocity": 0.8267716535433071
          },
          {
            "duration": 0.6473212343749992,
            "durationTicks": 435,
            "midi": 62,
            "name": "D4",
            "ticks": 105600,
            "time": 157.14281,
            "velocity": 0.7322834645669292
          },
          {
            "duration": 1.2886900895833548,
            "durationTicks": 866,
            "midi": 43,
            "name": "G2",
            "ticks": 105600,
            "time": 157.14281,
            "velocity": 0.7952755905511811
          },
          {
            "duration": 0.6473212343749992,
            "durationTicks": 435,
            "midi": 67,
            "name": "G4",
            "ticks": 106080,
            "time": 157.8570955,
            "velocity": 0.8346456692913385
          },
          {
            "duration": 0.6473212343749992,
            "durationTicks": 435,
            "midi": 62,
            "name": "D4",
            "ticks": 106560,
            "time": 158.571381,
            "velocity": 0.7244094488188977
          },
          {
            "duration": 1.2886900895833264,
            "durationTicks": 866,
            "midi": 45,
            "name": "A2",
            "ticks": 106560,
            "time": 158.571381,
            "velocity": 0.7874015748031497
          },
          {
            "duration": 0.6473212343749992,
            "durationTicks": 435,
            "midi": 76,
            "name": "E5",
            "ticks": 107040,
            "time": 159.2856665,
            "velocity": 0.8582677165354331
          },
          {
            "duration": 0.3244046645833407,
            "durationTicks": 218,
            "midi": 78,
            "name": "F#5",
            "ticks": 107520,
            "time": 159.999952,
            "velocity": 0.6850393700787402
          },
          {
            "duration": 1.2886900895833264,
            "durationTicks": 866,
            "midi": 50,
            "name": "D3",
            "ticks": 107520,
            "time": 159.999952,
            "velocity": 0.6929133858267716
          },
          {
            "duration": 0.3244046645833407,
            "durationTicks": 218,
            "midi": 66,
            "name": "F#4",
            "ticks": 107760,
            "time": 160.35709475000002,
            "velocity": 0.5826771653543307
          },
          {
            "duration": 0.3244046645833407,
            "durationTicks": 218,
            "midi": 67,
            "name": "G4",
            "ticks": 108000,
            "time": 160.7142375,
            "velocity": 0.6614173228346457
          },
          {
            "duration": 0.3244046645833407,
            "durationTicks": 218,
            "midi": 66,
            "name": "F#4",
            "ticks": 108240,
            "time": 161.07138025,
            "velocity": 0.6299212598425197
          },
          {
            "duration": 0.3244046645833407,
            "durationTicks": 218,
            "midi": 64,
            "name": "E4",
            "ticks": 108480,
            "time": 161.428523,
            "velocity": 0.6299212598425197
          },
          {
            "duration": 1.2886900895833264,
            "durationTicks": 866,
            "midi": 45,
            "name": "A2",
            "ticks": 108480,
            "time": 161.428523,
            "velocity": 0.6377952755905512
          },
          {
            "duration": 0.3244046645833407,
            "durationTicks": 218,
            "midi": 76,
            "name": "E5",
            "ticks": 108720,
            "time": 161.78566575,
            "velocity": 0.7480314960629921
          },
          {
            "duration": 0.3244046645833407,
            "durationTicks": 218,
            "midi": 78,
            "name": "F#5",
            "ticks": 108960,
            "time": 162.1428085,
            "velocity": 0.6929133858267716
          },
          {
            "duration": 0.3244046645833407,
            "durationTicks": 218,
            "midi": 76,
            "name": "E5",
            "ticks": 109200,
            "time": 162.49995125,
            "velocity": 0.6299212598425197
          },
          {
            "duration": 0.3244046645833407,
            "durationTicks": 218,
            "midi": 74,
            "name": "D5",
            "ticks": 109440,
            "time": 162.85709400000002,
            "velocity": 0.6299212598425197
          },
          {
            "duration": 1.2886900895833264,
            "durationTicks": 866,
            "midi": 47,
            "name": "B2",
            "ticks": 109440,
            "time": 162.85709400000002,
            "velocity": 0.6929133858267716
          },
          {
            "duration": 0.3244046645833407,
            "durationTicks": 218,
            "midi": 66,
            "name": "F#4",
            "ticks": 109680,
            "time": 163.21423675,
            "velocity": 0.5984251968503937
          },
          {
            "duration": 0.3244046645833407,
            "durationTicks": 218,
            "midi": 62,
            "name": "D4",
            "ticks": 109920,
            "time": 163.5713795,
            "velocity": 0.6141732283464567
          },
          {
            "duration": 0.3244046645833407,
            "durationTicks": 218,
            "midi": 74,
            "name": "D5",
            "ticks": 110160,
            "time": 163.92852225000001,
            "velocity": 0.7401574803149606
          },
          {
            "duration": 0.3244046645833407,
            "durationTicks": 218,
            "midi": 73,
            "name": "C#5",
            "ticks": 110400,
            "time": 164.285665,
            "velocity": 0.6614173228346457
          },
          {
            "duration": 1.2886900895833548,
            "durationTicks": 866,
            "midi": 42,
            "name": "F#2",
            "ticks": 110400,
            "time": 164.285665,
            "velocity": 0.6456692913385826
          },
          {
            "duration": 0.3244046645833407,
            "durationTicks": 218,
            "midi": 57,
            "name": "A3",
            "ticks": 110640,
            "time": 164.64280775,
            "velocity": 0.6220472440944882
          },
          {
            "duration": 0.3244046645833407,
            "durationTicks": 218,
            "midi": 55,
            "name": "G3",
            "ticks": 110880,
            "time": 164.9999505,
            "velocity": 0.6456692913385826
          },
          {
            "duration": 0.32440466458336914,
            "durationTicks": 218,
            "midi": 57,
            "name": "A3",
            "ticks": 111120,
            "time": 165.35709325,
            "velocity": 0.6850393700787402
          },
          {
            "duration": 0.3244046645833407,
            "durationTicks": 218,
            "midi": 59,
            "name": "B3",
            "ticks": 111360,
            "time": 165.714236,
            "velocity": 0.6692913385826772
          },
          {
            "duration": 1.2886900895833548,
            "durationTicks": 866,
            "midi": 43,
            "name": "G2",
            "ticks": 111360,
            "time": 165.714236,
            "velocity": 0.6614173228346457
          },
          {
            "duration": 0.3244046645833407,
            "durationTicks": 218,
            "midi": 71,
            "name": "B4",
            "ticks": 111600,
            "time": 166.07137875,
            "velocity": 0.7322834645669292
          },
          {
            "duration": 0.3244046645833407,
            "durationTicks": 218,
            "midi": 69,
            "name": "A4",
            "ticks": 111840,
            "time": 166.42852150000002,
            "velocity": 0.6614173228346457
          },
          {
            "duration": 0.3244046645833407,
            "durationTicks": 218,
            "midi": 71,
            "name": "B4",
            "ticks": 112080,
            "time": 166.78566425,
            "velocity": 0.6771653543307087
          },
          {
            "duration": 0.3244046645833407,
            "durationTicks": 218,
            "midi": 69,
            "name": "A4",
            "ticks": 112320,
            "time": 167.142807,
            "velocity": 0.6456692913385826
          },
          {
            "duration": 1.2886900895833264,
            "durationTicks": 866,
            "midi": 38,
            "name": "D2",
            "ticks": 112320,
            "time": 167.142807,
            "velocity": 0.6535433070866141
          },
          {
            "duration": 0.3244046645833407,
            "durationTicks": 218,
            "midi": 57,
            "name": "A3",
            "ticks": 112560,
            "time": 167.49994975,
            "velocity": 0.6062992125984252
          },
          {
            "duration": 0.3244046645833407,
            "durationTicks": 218,
            "midi": 55,
            "name": "G3",
            "ticks": 112800,
            "time": 167.8570925,
            "velocity": 0.6456692913385826
          },
          {
            "duration": 0.3244046645833407,
            "durationTicks": 218,
            "midi": 57,
            "name": "A3",
            "ticks": 113040,
            "time": 168.21423525,
            "velocity": 0.6771653543307087
          },
          {
            "duration": 0.3244046645833407,
            "durationTicks": 218,
            "midi": 62,
            "name": "D4",
            "ticks": 113280,
            "time": 168.571378,
            "velocity": 0.7086614173228346
          },
          {
            "duration": 1.2886900895833264,
            "durationTicks": 866,
            "midi": 43,
            "name": "G2",
            "ticks": 113280,
            "time": 168.571378,
            "velocity": 0.6614173228346457
          },
          {
            "duration": 0.3244046645833407,
            "durationTicks": 218,
            "midi": 71,
            "name": "B4",
            "ticks": 113520,
            "time": 168.92852075000002,
            "velocity": 0.7322834645669292
          },
          {
            "duration": 0.3244046645833407,
            "durationTicks": 218,
            "midi": 69,
            "name": "A4",
            "ticks": 113760,
            "time": 169.2856635,
            "velocity": 0.6377952755905512
          },
          {
            "duration": 0.3244046645833407,
            "durationTicks": 218,
            "midi": 71,
            "name": "B4",
            "ticks": 114000,
            "time": 169.64280625,
            "velocity": 0.6850393700787402
          },
          {
            "duration": 0.3244046645833407,
            "durationTicks": 218,
            "midi": 73,
            "name": "C#5",
            "ticks": 114240,
            "time": 169.99994900000002,
            "velocity": 0.6771653543307087
          },
          {
            "duration": 1.2886900895833264,
            "durationTicks": 866,
            "midi": 45,
            "name": "A2",
            "ticks": 114240,
            "time": 169.99994900000002,
            "velocity": 0.6614173228346457
          },
          {
            "duration": 0.3244046645833407,
            "durationTicks": 218,
            "midi": 61,
            "name": "C#4",
            "ticks": 114480,
            "time": 170.35709175,
            "velocity": 0.5669291338582677
          },
          {
            "duration": 0.3244046645833407,
            "durationTicks": 218,
            "midi": 59,
            "name": "B3",
            "ticks": 114720,
            "time": 170.7142345,
            "velocity": 0.6377952755905512
          },
          {
            "duration": 0.3244046645833407,
            "durationTicks": 218,
            "midi": 61,
            "name": "C#4",
            "ticks": 114960,
            "time": 171.07137725,
            "velocity": 0.6850393700787402
          },
          {
            "duration": 0.32440466458336914,
            "durationTicks": 218,
            "midi": 62,
            "name": "D4",
            "ticks": 115200,
            "time": 171.42852,
            "velocity": 0.6771653543307087
          },
          {
            "duration": 1.2886900895833548,
            "durationTicks": 866,
            "midi": 50,
            "name": "D3",
            "ticks": 115200,
            "time": 171.42852,
            "velocity": 0.6692913385826772
          },
          {
            "duration": 0.3244046645833407,
            "durationTicks": 218,
            "midi": 74,
            "name": "D5",
            "ticks": 115440,
            "time": 171.78566275,
            "velocity": 0.7244094488188977
          },
          {
            "duration": 0.3244046645833407,
            "durationTicks": 218,
            "midi": 76,
            "name": "E5",
            "ticks": 115680,
            "time": 172.1428055,
            "velocity": 0.6692913385826772
          },
          {
            "duration": 0.3244046645833407,
            "durationTicks": 218,
            "midi": 74,
            "name": "D5",
            "ticks": 115920,
            "time": 172.49994825000002,
            "velocity": 0.6377952755905512
          },
          {
            "duration": 0.3244046645833407,
            "durationTicks": 218,
            "midi": 73,
            "name": "C#5",
            "ticks": 116160,
            "time": 172.857091,
            "velocity": 0.6535433070866141
          },
          {
            "duration": 1.2886900895833548,
            "durationTicks": 866,
            "midi": 45,
            "name": "A2",
            "ticks": 116160,
            "time": 172.857091,
            "velocity": 0.6220472440944882
          },
          {
            "duration": 0.3244046645833407,
            "durationTicks": 218,
            "midi": 61,
            "name": "C#4",
            "ticks": 116400,
            "time": 173.21423375,
            "velocity": 0.5590551181102362
          },
          {
            "duration": 0.3244046645833407,
            "durationTicks": 218,
            "midi": 62,
            "name": "D4",
            "ticks": 116640,
            "time": 173.5713765,
            "velocity": 0.6535433070866141
          },
          {
            "duration": 0.3244046645833407,
            "durationTicks": 218,
            "midi": 61,
            "name": "C#4",
            "ticks": 116880,
            "time": 173.92851925,
            "velocity": 0.6377952755905512
          },
          {
            "duration": 0.3244046645833407,
            "durationTicks": 218,
            "midi": 59,
            "name": "B3",
            "ticks": 117120,
            "time": 174.285662,
            "velocity": 0.6377952755905512
          },
          {
            "duration": 1.2886900895833548,
            "durationTicks": 866,
            "midi": 47,
            "name": "B2",
            "ticks": 117120,
            "time": 174.285662,
            "velocity": 0.6535433070866141
          },
          {
            "duration": 0.3244046645833407,
            "durationTicks": 218,
            "midi": 71,
            "name": "B4",
            "ticks": 117360,
            "time": 174.64280475,
            "velocity": 0.7401574803149606
          },
          {
            "duration": 0.32440466458336914,
            "durationTicks": 218,
            "midi": 69,
            "name": "A4",
            "ticks": 117600,
            "time": 174.9999475,
            "velocity": 0.6456692913385826
          },
          {
            "duration": 0.3244046645833407,
            "durationTicks": 218,
            "midi": 71,
            "name": "B4",
            "ticks": 117840,
            "time": 175.35709025,
            "velocity": 0.6771653543307087
          },
          {
            "duration": 0.3244046645833407,
            "durationTicks": 218,
            "midi": 73,
            "name": "C#5",
            "ticks": 118080,
            "time": 175.714233,
            "velocity": 0.6692913385826772
          },
          {
            "duration": 1.2886900895833264,
            "durationTicks": 866,
            "midi": 42,
            "name": "F#2",
            "ticks": 118080,
            "time": 175.714233,
            "velocity": 0.6377952755905512
          },
          {
            "duration": 0.3244046645833407,
            "durationTicks": 218,
            "midi": 61,
            "name": "C#4",
            "ticks": 118320,
            "time": 176.07137575000002,
            "velocity": 0.5826771653543307
          },
          {
            "duration": 0.3244046645833407,
            "durationTicks": 218,
            "midi": 66,
            "name": "F#4",
            "ticks": 118560,
            "time": 176.4285185,
            "velocity": 0.7007874015748031
          },
          {
            "duration": 0.3244046645833407,
            "durationTicks": 218,
            "midi": 64,
            "name": "E4",
            "ticks": 118800,
            "time": 176.78566125,
            "velocity": 0.6377952755905512
          },
          {
            "duration": 0.3244046645833407,
            "durationTicks": 218,
            "midi": 62,
            "name": "D4",
            "ticks": 119040,
            "time": 177.142804,
            "velocity": 0.6456692913385826
          },
          {
            "duration": 1.2886900895833264,
            "durationTicks": 866,
            "midi": 43,
            "name": "G2",
            "ticks": 119040,
            "time": 177.142804,
            "velocity": 0.6692913385826772
          },
          {
            "duration": 0.3244046645833407,
            "durationTicks": 218,
            "midi": 74,
            "name": "D5",
            "ticks": 119280,
            "time": 177.49994675,
            "velocity": 0.7716535433070866
          },
          {
            "duration": 0.3244046645833407,
            "durationTicks": 218,
            "midi": 76,
            "name": "E5",
            "ticks": 119520,
            "time": 177.8570895,
            "velocity": 0.7007874015748031
          },
          {
            "duration": 0.3244046645833407,
            "durationTicks": 218,
            "midi": 79,
            "name": "G5",
            "ticks": 119760,
            "time": 178.21423225,
            "velocity": 0.6850393700787402
          },
          {
            "duration": 0.3244046645833407,
            "durationTicks": 218,
            "midi": 78,
            "name": "F#5",
            "ticks": 120000,
            "time": 178.57137500000002,
            "velocity": 0.6377952755905512
          },
          {
            "duration": 1.2886900895833264,
            "durationTicks": 866,
            "midi": 38,
            "name": "D2",
            "ticks": 120000,
            "time": 178.57137500000002,
            "velocity": 0.6377952755905512
          },
          {
            "duration": 0.3244046645833407,
            "durationTicks": 218,
            "midi": 66,
            "name": "F#4",
            "ticks": 120240,
            "time": 178.92851775,
            "velocity": 0.5826771653543307
          },
          {
            "duration": 0.3244046645833407,
            "durationTicks": 218,
            "midi": 69,
            "name": "A4",
            "ticks": 120480,
            "time": 179.2856605,
            "velocity": 0.6850393700787402
          },
          {
            "duration": 0.3244046645833407,
            "durationTicks": 218,
            "midi": 78,
            "name": "F#5",
            "ticks": 120720,
            "time": 179.64280325000001,
            "velocity": 0.7401574803149606
          },
          {
            "duration": 0.3244046645833407,
            "durationTicks": 218,
            "midi": 74,
            "name": "D5",
            "ticks": 120960,
            "time": 179.999946,
            "velocity": 0.6377952755905512
          },
          {
            "duration": 1.2886900895833548,
            "durationTicks": 866,
            "midi": 43,
            "name": "G2",
            "ticks": 120960,
            "time": 179.999946,
            "velocity": 0.6692913385826772
          },
          {
            "duration": 0.3244046645833407,
            "durationTicks": 218,
            "midi": 79,
            "name": "G5",
            "ticks": 121200,
            "time": 180.35708875,
            "velocity": 0.7086614173228346
          },
          {
            "duration": 0.3244046645833407,
            "durationTicks": 218,
            "midi": 78,
            "name": "F#5",
            "ticks": 121440,
            "time": 180.7142315,
            "velocity": 0.6535433070866141
          },
          {
            "duration": 0.32440466458336914,
            "durationTicks": 218,
            "midi": 79,
            "name": "G5",
            "ticks": 121680,
            "time": 181.07137425,
            "velocity": 0.6771653543307087
          },
          {
            "duration": 0.3244046645833407,
            "durationTicks": 218,
            "midi": 76,
            "name": "E5",
            "ticks": 121920,
            "time": 181.428517,
            "velocity": 0.6377952755905512
          },
          {
            "duration": 1.2886900895833548,
            "durationTicks": 866,
            "midi": 45,
            "name": "A2",
            "ticks": 121920,
            "time": 181.428517,
            "velocity": 0.6692913385826772
          },
          {
            "duration": 0.3244046645833407,
            "durationTicks": 218,
            "midi": 69,
            "name": "A4",
            "ticks": 122160,
            "time": 181.78565975,
            "velocity": 0.5905511811023622
          },
          {
            "duration": 0.3244046645833407,
            "durationTicks": 218,
            "midi": 67,
            "name": "G4",
            "ticks": 122400,
            "time": 182.14280250000002,
            "velocity": 0.6377952755905512
          },
          {
            "duration": 0.3244046645833407,
            "durationTicks": 218,
            "midi": 69,
            "name": "A4",
            "ticks": 122640,
            "time": 182.49994525,
            "velocity": 0.6929133858267716
          },
          {
            "duration": 0.3244046645833123,
            "durationTicks": 218,
            "midi": 62,
            "name": "D4",
            "ticks": 122880,
            "time": 182.857088,
            "velocity": 0.6062992125984252
          },
          {
            "duration": 1.2886900895833264,
            "durationTicks": 866,
            "midi": 50,
            "name": "D3",
            "ticks": 122880,
            "time": 182.857088,
            "velocity": 0.6850393700787402
          },
          {
            "duration": 0.3244046645833123,
            "durationTicks": 218,
            "midi": 74,
            "name": "D5",
            "ticks": 123120,
            "time": 183.21423075,
            "velocity": 0.7480314960629921
          },
          {
            "duration": 0.3244046645833407,
            "durationTicks": 218,
            "midi": 76,
            "name": "E5",
            "ticks": 123360,
            "time": 183.5713735,
            "velocity": 0.6614173228346457
          },
          {
            "duration": 0.3244046645833123,
            "durationTicks": 218,
            "midi": 74,
            "name": "D5",
            "ticks": 123600,
            "time": 183.92851625,
            "velocity": 0.6377952755905512
          },
          {
            "duration": 0.3244046645833123,
            "durationTicks": 218,
            "midi": 73,
            "name": "C#5",
            "ticks": 123840,
            "time": 184.285659,
            "velocity": 0.6456692913385826
          },
          {
            "duration": 1.2886900895833264,
            "durationTicks": 866,
            "midi": 45,
            "name": "A2",
            "ticks": 123840,
            "time": 184.285659,
            "velocity": 0.6299212598425197
          },
          {
            "duration": 0.3244046645833123,
            "durationTicks": 218,
            "midi": 61,
            "name": "C#4",
            "ticks": 124080,
            "time": 184.64280175000002,
            "velocity": 0.5669291338582677
          },
          {
            "duration": 0.3244046645833407,
            "durationTicks": 218,
            "midi": 62,
            "name": "D4",
            "ticks": 124320,
            "time": 184.9999445,
            "velocity": 0.7007874015748031
          },
          {
            "duration": 0.3244046645833123,
            "durationTicks": 218,
            "midi": 61,
            "name": "C#4",
            "ticks": 124560,
            "time": 185.35708725,
            "velocity": 0.6377952755905512
          },
          {
            "duration": 0.3244046645833123,
            "durationTicks": 218,
            "midi": 59,
            "name": "B3",
            "ticks": 124800,
            "time": 185.71423000000001,
            "velocity": 0.6377952755905512
          },
          {
            "duration": 1.2886900895833264,
            "durationTicks": 866,
            "midi": 47,
            "name": "B2",
            "ticks": 124800,
            "time": 185.71423000000001,
            "velocity": 0.6692913385826772
          },
          {
            "duration": 0.3244046645833407,
            "durationTicks": 218,
            "midi": 71,
            "name": "B4",
            "ticks": 125040,
            "time": 186.07137275,
            "velocity": 0.7559055118110236
          },
          {
            "duration": 0.3244046645833123,
            "durationTicks": 218,
            "midi": 69,
            "name": "A4",
            "ticks": 125280,
            "time": 186.4285155,
            "velocity": 0.6614173228346457
          },
          {
            "duration": 0.3244046645833123,
            "durationTicks": 218,
            "midi": 71,
            "name": "B4",
            "ticks": 125520,
            "time": 186.78565825,
            "velocity": 0.6771653543307087
          },
          {
            "duration": 0.3244046645833407,
            "durationTicks": 218,
            "midi": 73,
            "name": "C#5",
            "ticks": 125760,
            "time": 187.142801,
            "velocity": 0.6692913385826772
          },
          {
            "duration": 1.2886900895833548,
            "durationTicks": 866,
            "midi": 42,
            "name": "F#2",
            "ticks": 125760,
            "time": 187.142801,
            "velocity": 0.6377952755905512
          },
          {
            "duration": 0.3244046645833407,
            "durationTicks": 218,
            "midi": 61,
            "name": "C#4",
            "ticks": 126000,
            "time": 187.49994375,
            "velocity": 0.5669291338582677
          },
          {
            "duration": 0.3244046645833123,
            "durationTicks": 218,
            "midi": 66,
            "name": "F#4",
            "ticks": 126240,
            "time": 187.8570865,
            "velocity": 0.7007874015748031
          },
          {
            "duration": 0.3244046645833123,
            "durationTicks": 218,
            "midi": 64,
            "name": "E4",
            "ticks": 126480,
            "time": 188.21422925000002,
            "velocity": 0.6535433070866141
          },
          {
            "duration": 0.3244046645833407,
            "durationTicks": 218,
            "midi": 62,
            "name": "D4",
            "ticks": 126720,
            "time": 188.571372,
            "velocity": 0.6141732283464567
          },
          {
            "duration": 1.2886900895833548,
            "durationTicks": 866,
            "midi": 43,
            "name": "G2",
            "ticks": 126720,
            "time": 188.571372,
            "velocity": 0.6929133858267716
          },
          {
            "duration": 0.3244046645833123,
            "durationTicks": 218,
            "midi": 74,
            "name": "D5",
            "ticks": 126960,
            "time": 188.92851475,
            "velocity": 0.7480314960629921
          },
          {
            "duration": 0.3244046645833123,
            "durationTicks": 218,
            "midi": 76,
            "name": "E5",
            "ticks": 127200,
            "time": 189.2856575,
            "velocity": 0.6692913385826772
          },
          {
            "duration": 0.3244046645833407,
            "durationTicks": 218,
            "midi": 79,
            "name": "G5",
            "ticks": 127440,
            "time": 189.64280025,
            "velocity": 0.7007874015748031
          },
          {
            "duration": 0.3244046645833123,
            "durationTicks": 218,
            "midi": 78,
            "name": "F#5",
            "ticks": 127680,
            "time": 189.999943,
            "velocity": 0.6377952755905512
          },
          {
            "duration": 1.2886900895833548,
            "durationTicks": 866,
            "midi": 38,
            "name": "D2",
            "ticks": 127680,
            "time": 189.999943,
            "velocity": 0.6377952755905512
          },
          {
            "duration": 0.3244046645833123,
            "durationTicks": 218,
            "midi": 66,
            "name": "F#4",
            "ticks": 127920,
            "time": 190.35708575,
            "velocity": 0.5590551181102362
          },
          {
            "duration": 0.3244046645833123,
            "durationTicks": 218,
            "midi": 69,
            "name": "A4",
            "ticks": 128160,
            "time": 190.71422850000002,
            "velocity": 0.6929133858267716
          },
          {
            "duration": 0.3244046645833407,
            "durationTicks": 218,
            "midi": 78,
            "name": "F#5",
            "ticks": 128400,
            "time": 191.07137125,
            "velocity": 0.7322834645669292
          },
          {
            "duration": 0.3244046645833123,
            "durationTicks": 218,
            "midi": 74,
            "name": "D5",
            "ticks": 128640,
            "time": 191.428514,
            "velocity": 0.6220472440944882
          },
          {
            "duration": 1.2886900895833264,
            "durationTicks": 866,
            "midi": 43,
            "name": "G2",
            "ticks": 128640,
            "time": 191.428514,
            "velocity": 0.7007874015748031
          },
          {
            "duration": 0.3244046645833123,
            "durationTicks": 218,
            "midi": 79,
            "name": "G5",
            "ticks": 128880,
            "time": 191.78565675000002,
            "velocity": 0.7007874015748031
          },
          {
            "duration": 0.3244046645833407,
            "durationTicks": 218,
            "midi": 78,
            "name": "F#5",
            "ticks": 129120,
            "time": 192.1427995,
            "velocity": 0.6377952755905512
          },
          {
            "duration": 0.3244046645833123,
            "durationTicks": 218,
            "midi": 79,
            "name": "G5",
            "ticks": 129360,
            "time": 192.49994225,
            "velocity": 0.6771653543307087
          },
          {
            "duration": 0.3244046645833123,
            "durationTicks": 218,
            "midi": 76,
            "name": "E5",
            "ticks": 129600,
            "time": 192.857085,
            "velocity": 0.6141732283464567
          },
          {
            "duration": 1.2886900895833264,
            "durationTicks": 866,
            "midi": 45,
            "name": "A2",
            "ticks": 129600,
            "time": 192.857085,
            "velocity": 0.6692913385826772
          },
          {
            "duration": 0.3244046645833407,
            "durationTicks": 218,
            "midi": 69,
            "name": "A4",
            "ticks": 129840,
            "time": 193.21422775,
            "velocity": 0.5984251968503937
          },
          {
            "duration": 0.3244046645833407,
            "durationTicks": 218,
            "midi": 67,
            "name": "G4",
            "ticks": 130080,
            "time": 193.5713705,
            "velocity": 0.6377952755905512
          },
          {
            "duration": 0.3244046645833123,
            "durationTicks": 218,
            "midi": 69,
            "name": "A4",
            "ticks": 130320,
            "time": 193.92851325,
            "velocity": 0.6929133858267716
          },
          {
            "duration": 0.3244046645833123,
            "durationTicks": 218,
            "midi": 66,
            "name": "F#4",
            "ticks": 130560,
            "time": 194.28565600000002,
            "velocity": 0.6692913385826772
          },
          {
            "duration": 0.3244046645833123,
            "durationTicks": 218,
            "midi": 69,
            "name": "A4",
            "ticks": 130560,
            "time": 194.28565600000002,
            "velocity": 0.6692913385826772
          },
          {
            "duration": 1.2886900895833264,
            "durationTicks": 866,
            "midi": 50,
            "name": "D3",
            "ticks": 130560,
            "time": 194.28565600000002,
            "velocity": 0.6771653543307087
          },
          {
            "duration": 0.3244046645833407,
            "durationTicks": 218,
            "midi": 69,
            "name": "A4",
            "ticks": 130800,
            "time": 194.64279875,
            "velocity": 0.7165354330708661
          },
          {
            "duration": 0.3244046645833407,
            "durationTicks": 218,
            "midi": 78,
            "name": "F#5",
            "ticks": 130800,
            "time": 194.64279875,
            "velocity": 0.7165354330708661
          },
          {
            "duration": 0.3244046645833123,
            "durationTicks": 218,
            "midi": 69,
            "name": "A4",
            "ticks": 131040,
            "time": 194.9999415,
            "velocity": 0.6614173228346457
          },
          {
            "duration": 0.3244046645833123,
            "durationTicks": 218,
            "midi": 78,
            "name": "F#5",
            "ticks": 131040,
            "time": 194.9999415,
            "velocity": 0.6614173228346457
          },
          {
            "duration": 0.3244046645833123,
            "durationTicks": 218,
            "midi": 69,
            "name": "A4",
            "ticks": 131280,
            "time": 195.35708425,
            "velocity": 0.6614173228346457
          },
          {
            "duration": 0.3244046645833123,
            "durationTicks": 218,
            "midi": 78,
            "name": "F#5",
            "ticks": 131280,
            "time": 195.35708425,
            "velocity": 0.6614173228346457
          },
          {
            "duration": 0.3244046645833407,
            "durationTicks": 218,
            "midi": 69,
            "name": "A4",
            "ticks": 131520,
            "time": 195.714227,
            "velocity": 0.6220472440944882
          },
          {
            "duration": 0.3244046645833407,
            "durationTicks": 218,
            "midi": 76,
            "name": "E5",
            "ticks": 131520,
            "time": 195.714227,
            "velocity": 0.6220472440944882
          },
          {
            "duration": 1.2886900895833548,
            "durationTicks": 866,
            "midi": 45,
            "name": "A2",
            "ticks": 131520,
            "time": 195.714227,
            "velocity": 0.6377952755905512
          },
          {
            "duration": 0.3244046645833123,
            "durationTicks": 218,
            "midi": 69,
            "name": "A4",
            "ticks": 131760,
            "time": 196.07136975,
            "velocity": 0.6614173228346457
          },
          {
            "duration": 0.3244046645833123,
            "durationTicks": 218,
            "midi": 76,
            "name": "E5",
            "ticks": 131760,
            "time": 196.07136975,
            "velocity": 0.6614173228346457
          },
          {
            "duration": 0.3244046645833123,
            "durationTicks": 218,
            "midi": 69,
            "name": "A4",
            "ticks": 132000,
            "time": 196.4285125,
            "velocity": 0.6614173228346457
          },
          {
            "duration": 0.3244046645833123,
            "durationTicks": 218,
            "midi": 76,
            "name": "E5",
            "ticks": 132000,
            "time": 196.4285125,
            "velocity": 0.6614173228346457
          },
          {
            "duration": 0.3244046645833407,
            "durationTicks": 218,
            "midi": 69,
            "name": "A4",
            "ticks": 132240,
            "time": 196.78565525,
            "velocity": 0.6614173228346457
          },
          {
            "duration": 0.3244046645833407,
            "durationTicks": 218,
            "midi": 76,
            "name": "E5",
            "ticks": 132240,
            "time": 196.78565525,
            "velocity": 0.6614173228346457
          },
          {
            "duration": 0.3244046645833407,
            "durationTicks": 218,
            "midi": 66,
            "name": "F#4",
            "ticks": 132480,
            "time": 197.142798,
            "velocity": 0.6299212598425197
          },
          {
            "duration": 0.3244046645833407,
            "durationTicks": 218,
            "midi": 74,
            "name": "D5",
            "ticks": 132480,
            "time": 197.142798,
            "velocity": 0.6299212598425197
          },
          {
            "duration": 1.2886900895833548,
            "durationTicks": 866,
            "midi": 47,
            "name": "B2",
            "ticks": 132480,
            "time": 197.142798,
            "velocity": 0.6771653543307087
          },
          {
            "duration": 0.3244046645833123,
            "durationTicks": 218,
            "midi": 66,
            "name": "F#4",
            "ticks": 132720,
            "time": 197.49994075,
            "velocity": 0.6692913385826772
          },
          {
            "duration": 0.3244046645833123,
            "durationTicks": 218,
            "midi": 74,
            "name": "D5",
            "ticks": 132720,
            "time": 197.49994075,
            "velocity": 0.6692913385826772
          },
          {
            "duration": 0.3244046645833123,
            "durationTicks": 218,
            "midi": 66,
            "name": "F#4",
            "ticks": 132960,
            "time": 197.85708350000002,
            "velocity": 0.6771653543307087
          },
          {
            "duration": 0.3244046645833123,
            "durationTicks": 218,
            "midi": 74,
            "name": "D5",
            "ticks": 132960,
            "time": 197.85708350000002,
            "velocity": 0.6771653543307087
          },
          {
            "duration": 0.3244046645833407,
            "durationTicks": 218,
            "midi": 66,
            "name": "F#4",
            "ticks": 133200,
            "time": 198.21422625,
            "velocity": 0.6614173228346457
          },
          {
            "duration": 0.3244046645833407,
            "durationTicks": 218,
            "midi": 74,
            "name": "D5",
            "ticks": 133200,
            "time": 198.21422625,
            "velocity": 0.6614173228346457
          },
          {
            "duration": 0.3244046645833123,
            "durationTicks": 218,
            "midi": 78,
            "name": "F#5",
            "ticks": 133440,
            "time": 198.571369,
            "velocity": 0.7244094488188977
          },
          {
            "duration": 0.3244046645833123,
            "durationTicks": 218,
            "midi": 81,
            "name": "A5",
            "ticks": 133440,
            "time": 198.571369,
            "velocity": 0.7244094488188977
          },
          {
            "duration": 1.2886900895833264,
            "durationTicks": 866,
            "midi": 42,
            "name": "F#2",
            "ticks": 133440,
            "time": 198.571369,
            "velocity": 0.6614173228346457
          },
          {
            "duration": 0.3244046645833123,
            "durationTicks": 218,
            "midi": 78,
            "name": "F#5",
            "ticks": 133680,
            "time": 198.92851175,
            "velocity": 0.6614173228346457
          },
          {
            "duration": 0.3244046645833123,
            "durationTicks": 218,
            "midi": 81,
            "name": "A5",
            "ticks": 133680,
            "time": 198.92851175,
            "velocity": 0.6614173228346457
          },
          {
            "duration": 0.3244046645833407,
            "durationTicks": 218,
            "midi": 69,
            "name": "A4",
            "ticks": 133920,
            "time": 199.2856545,
            "velocity": 0.6377952755905512
          },
          {
            "duration": 0.3244046645833407,
            "durationTicks": 218,
            "midi": 81,
            "name": "A5",
            "ticks": 133920,
            "time": 199.2856545,
            "velocity": 0.6377952755905512
          },
          {
            "duration": 0.3244046645833123,
            "durationTicks": 218,
            "midi": 69,
            "name": "A4",
            "ticks": 134160,
            "time": 199.64279725,
            "velocity": 0.6535433070866141
          },
          {
            "duration": 0.3244046645833123,
            "durationTicks": 218,
            "midi": 81,
            "name": "A5",
            "ticks": 134160,
            "time": 199.64279725,
            "velocity": 0.6535433070866141
          },
          {
            "duration": 0.3244046645833123,
            "durationTicks": 218,
            "midi": 79,
            "name": "G5",
            "ticks": 134400,
            "time": 199.99994,
            "velocity": 0.6692913385826772
          },
          {
            "duration": 0.3244046645833123,
            "durationTicks": 218,
            "midi": 83,
            "name": "B5",
            "ticks": 134400,
            "time": 199.99994,
            "velocity": 0.6692913385826772
          },
          {
            "duration": 1.2886900895833264,
            "durationTicks": 866,
            "midi": 43,
            "name": "G2",
            "ticks": 134400,
            "time": 199.99994,
            "velocity": 0.6614173228346457
          },
          {
            "duration": 0.3244046645833123,
            "durationTicks": 218,
            "midi": 79,
            "name": "G5",
            "ticks": 134640,
            "time": 200.35708275000002,
            "velocity": 0.6377952755905512
          },
          {
            "duration": 0.3244046645833123,
            "durationTicks": 218,
            "midi": 83,
            "name": "B5",
            "ticks": 134640,
            "time": 200.35708275000002,
            "velocity": 0.6377952755905512
          },
          {
            "duration": 0.3244046645833407,
            "durationTicks": 218,
            "midi": 79,
            "name": "G5",
            "ticks": 134880,
            "time": 200.7142255,
            "velocity": 0.6614173228346457
          },
          {
            "duration": 0.3244046645833407,
            "durationTicks": 218,
            "midi": 83,
            "name": "B5",
            "ticks": 134880,
            "time": 200.7142255,
            "velocity": 0.6614173228346457
          },
          {
            "duration": 0.3244046645833123,
            "durationTicks": 218,
            "midi": 74,
            "name": "D5",
            "ticks": 135120,
            "time": 201.07136825,
            "velocity": 0.6614173228346457
          },
          {
            "duration": 0.3244046645833123,
            "durationTicks": 218,
            "midi": 83,
            "name": "B5",
            "ticks": 135120,
            "time": 201.07136825,
            "velocity": 0.6614173228346457
          },
          {
            "duration": 0.3244046645833123,
            "durationTicks": 218,
            "midi": 74,
            "name": "D5",
            "ticks": 135360,
            "time": 201.42851100000001,
            "velocity": 0.6220472440944882
          },
          {
            "duration": 0.3244046645833123,
            "durationTicks": 218,
            "midi": 81,
            "name": "A5",
            "ticks": 135360,
            "time": 201.42851100000001,
            "velocity": 0.6220472440944882
          },
          {
            "duration": 1.2886900895833264,
            "durationTicks": 866,
            "midi": 38,
            "name": "D2",
            "ticks": 135360,
            "time": 201.42851100000001,
            "velocity": 0.6456692913385826
          },
          {
            "duration": 0.3244046645833407,
            "durationTicks": 218,
            "midi": 74,
            "name": "D5",
            "ticks": 135600,
            "time": 201.78565375,
            "velocity": 0.6692913385826772
          },
          {
            "duration": 0.3244046645833407,
            "durationTicks": 218,
            "midi": 81,
            "name": "A5",
            "ticks": 135600,
            "time": 201.78565375,
            "velocity": 0.6692913385826772
          },
          {
            "duration": 0.3244046645833123,
            "durationTicks": 218,
            "midi": 74,
            "name": "D5",
            "ticks": 135840,
            "time": 202.1427965,
            "velocity": 0.6614173228346457
          },
          {
            "duration": 0.3244046645833123,
            "durationTicks": 218,
            "midi": 81,
            "name": "A5",
            "ticks": 135840,
            "time": 202.1427965,
            "velocity": 0.6614173228346457
          },
          {
            "duration": 0.3244046645833123,
            "durationTicks": 218,
            "midi": 74,
            "name": "D5",
            "ticks": 136080,
            "time": 202.49993925,
            "velocity": 0.6456692913385826
          },
          {
            "duration": 0.3244046645833123,
            "durationTicks": 218,
            "midi": 81,
            "name": "A5",
            "ticks": 136080,
            "time": 202.49993925,
            "velocity": 0.6456692913385826
          },
          {
            "duration": 0.3244046645833407,
            "durationTicks": 218,
            "midi": 74,
            "name": "D5",
            "ticks": 136320,
            "time": 202.857082,
            "velocity": 0.6692913385826772
          },
          {
            "duration": 0.3244046645833407,
            "durationTicks": 218,
            "midi": 83,
            "name": "B5",
            "ticks": 136320,
            "time": 202.857082,
            "velocity": 0.6692913385826772
          },
          {
            "duration": 1.2886900895833548,
            "durationTicks": 866,
            "midi": 43,
            "name": "G2",
            "ticks": 136320,
            "time": 202.857082,
            "velocity": 0.7007874015748031
          },
          {
            "duration": 0.3244046645833407,
            "durationTicks": 218,
            "midi": 74,
            "name": "D5",
            "ticks": 136560,
            "time": 203.21422475,
            "velocity": 0.6850393700787402
          },
          {
            "duration": 0.3244046645833407,
            "durationTicks": 218,
            "midi": 83,
            "name": "B5",
            "ticks": 136560,
            "time": 203.21422475,
            "velocity": 0.6850393700787402
          },
          {
            "duration": 0.3244046645833123,
            "durationTicks": 218,
            "midi": 71,
            "name": "B4",
            "ticks": 136800,
            "time": 203.5713675,
            "velocity": 0.6456692913385826
          },
          {
            "duration": 0.3244046645833123,
            "durationTicks": 218,
            "midi": 83,
            "name": "B5",
            "ticks": 136800,
            "time": 203.5713675,
            "velocity": 0.6456692913385826
          },
          {
            "duration": 0.3244046645833123,
            "durationTicks": 218,
            "midi": 71,
            "name": "B4",
            "ticks": 137040,
            "time": 203.92851025000002,
            "velocity": 0.6692913385826772
          },
          {
            "duration": 0.3244046645833123,
            "durationTicks": 218,
            "midi": 83,
            "name": "B5",
            "ticks": 137040,
            "time": 203.92851025000002,
            "velocity": 0.6692913385826772
          },
          {
            "duration": 0.3244046645833407,
            "durationTicks": 218,
            "midi": 73,
            "name": "C#5",
            "ticks": 137280,
            "time": 204.285653,
            "velocity": 0.6614173228346457
          },
          {
            "duration": 0.3244046645833407,
            "durationTicks": 218,
            "midi": 85,
            "name": "C#6",
            "ticks": 137280,
            "time": 204.285653,
            "velocity": 0.6614173228346457
          },
          {
            "duration": 1.2886900895833548,
            "durationTicks": 866,
            "midi": 45,
            "name": "A2",
            "ticks": 137280,
            "time": 204.285653,
            "velocity": 0.6850393700787402
          },
          {
            "duration": 0.3244046645833123,
            "durationTicks": 218,
            "midi": 73,
            "name": "C#5",
            "ticks": 137520,
            "time": 204.64279575,
            "velocity": 0.6456692913385826
          },
          {
            "duration": 0.3244046645833123,
            "durationTicks": 218,
            "midi": 81,
            "name": "A5",
            "ticks": 137520,
            "time": 204.64279575,
            "velocity": 0.6456692913385826
          },
          {
            "duration": 0.3244046645833123,
            "durationTicks": 218,
            "midi": 73,
            "name": "C#5",
            "ticks": 137760,
            "time": 204.9999385,
            "velocity": 0.6614173228346457
          },
          {
            "duration": 0.3244046645833123,
            "durationTicks": 218,
            "midi": 76,
            "name": "E5",
            "ticks": 137760,
            "time": 204.9999385,
            "velocity": 0.6614173228346457
          },
          {
            "duration": 0.3244046645833407,
            "durationTicks": 218,
            "midi": 69,
            "name": "A4",
            "ticks": 138000,
            "time": 205.35708125,
            "velocity": 0.7244094488188977
          },
          {
            "duration": 0.3244046645833407,
            "durationTicks": 218,
            "midi": 73,
            "name": "C#5",
            "ticks": 138000,
            "time": 205.35708125,
            "velocity": 0.7244094488188977
          },
          {
            "duration": 0.3244046645833123,
            "durationTicks": 218,
            "midi": 74,
            "name": "D5",
            "ticks": 138240,
            "time": 205.714224,
            "velocity": 0.6771653543307087
          },
          {
            "duration": 1.2886900895833548,
            "durationTicks": 866,
            "midi": 50,
            "name": "D3",
            "ticks": 138240,
            "time": 205.714224,
            "velocity": 0.6850393700787402
          },
          {
            "duration": 0.16220233229165615,
            "durationTicks": 109,
            "midi": 62,
            "name": "D4",
            "ticks": 138480,
            "time": 206.07136675,
            "velocity": 0.5669291338582677
          },
          {
            "duration": 0.16220233229165615,
            "durationTicks": 109,
            "midi": 64,
            "name": "E4",
            "ticks": 138600,
            "time": 206.249938125,
            "velocity": 0.6850393700787402
          },
          {
            "duration": 0.3244046645833123,
            "durationTicks": 218,
            "midi": 66,
            "name": "F#4",
            "ticks": 138720,
            "time": 206.42850950000002,
            "velocity": 0.6850393700787402
          },
          {
            "duration": 0.3244046645833407,
            "durationTicks": 218,
            "midi": 62,
            "name": "D4",
            "ticks": 138960,
            "time": 206.78565225,
            "velocity": 0.6141732283464567
          },
          {
            "duration": 0.3244046645833123,
            "durationTicks": 218,
            "midi": 61,
            "name": "C#4",
            "ticks": 139200,
            "time": 207.142795,
            "velocity": 0.6535433070866141
          },
          {
            "duration": 1.2886900895833264,
            "durationTicks": 866,
            "midi": 45,
            "name": "A2",
            "ticks": 139200,
            "time": 207.142795,
            "velocity": 0.6377952755905512
          },
          {
            "duration": 0.16220233229165615,
            "durationTicks": 109,
            "midi": 73,
            "name": "C#5",
            "ticks": 139440,
            "time": 207.49993775000002,
            "velocity": 0.7559055118110236
          },
          {
            "duration": 0.16220233229165615,
            "durationTicks": 109,
            "midi": 74,
            "name": "D5",
            "ticks": 139560,
            "time": 207.678509125,
            "velocity": 0.6850393700787402
          },
          {
            "duration": 0.3244046645833407,
            "durationTicks": 218,
            "midi": 76,
            "name": "E5",
            "ticks": 139680,
            "time": 207.8570805,
            "velocity": 0.6771653543307087
          },
          {
            "duration": 0.3244046645833123,
            "durationTicks": 218,
            "midi": 73,
            "name": "C#5",
            "ticks": 139920,
            "time": 208.21422325,
            "velocity": 0.6377952755905512
          },
          {
            "duration": 0.3244046645833123,
            "durationTicks": 218,
            "midi": 71,
            "name": "B4",
            "ticks": 140160,
            "time": 208.571366,
            "velocity": 0.6456692913385826
          },
          {
            "duration": 1.2886900895833264,
            "durationTicks": 866,
            "midi": 47,
            "name": "B2",
            "ticks": 140160,
            "time": 208.571366,
            "velocity": 0.6535433070866141
          },
          {
            "duration": 0.16220233229168457,
            "durationTicks": 109,
            "midi": 59,
            "name": "B3",
            "ticks": 140400,
            "time": 208.92850875,
            "velocity": 0.6220472440944882
          },
          {
            "duration": 0.16220233229165615,
            "durationTicks": 109,
            "midi": 61,
            "name": "C#4",
            "ticks": 140520,
            "time": 209.107080125,
            "velocity": 0.6850393700787402
          },
          {
            "duration": 0.3244046645833407,
            "durationTicks": 218,
            "midi": 62,
            "name": "D4",
            "ticks": 140640,
            "time": 209.2856515,
            "velocity": 0.6850393700787402
          },
          {
            "duration": 0.3244046645833123,
            "durationTicks": 218,
            "midi": 59,
            "name": "B3",
            "ticks": 140880,
            "time": 209.64279425,
            "velocity": 0.6535433070866141
          },
          {
            "duration": 0.3244046645833123,
            "durationTicks": 218,
            "midi": 61,
            "name": "C#4",
            "ticks": 141120,
            "time": 209.99993700000002,
            "velocity": 0.6929133858267716
          },
          {
            "duration": 1.2886900895833264,
            "durationTicks": 866,
            "midi": 42,
            "name": "F#2",
            "ticks": 141120,
            "time": 209.99993700000002,
            "velocity": 0.6456692913385826
          },
          {
            "duration": 0.16220233229165615,
            "durationTicks": 109,
            "midi": 69,
            "name": "A4",
            "ticks": 141360,
            "time": 210.35707975,
            "velocity": 0.7086614173228346
          },
          {
            "duration": 0.16220233229165615,
            "durationTicks": 109,
            "midi": 67,
            "name": "G4",
            "ticks": 141480,
            "time": 210.53565112500002,
            "velocity": 0.6456692913385826
          },
          {
            "duration": 0.3244046645833123,
            "durationTicks": 218,
            "midi": 66,
            "name": "F#4",
            "ticks": 141600,
            "time": 210.7142225,
            "velocity": 0.6377952755905512
          },
          {
            "duration": 0.3244046645833123,
            "durationTicks": 218,
            "midi": 64,
            "name": "E4",
            "ticks": 141840,
            "time": 211.07136525,
            "velocity": 0.6377952755905512
          },
          {
            "duration": 0.3244046645833407,
            "durationTicks": 218,
            "midi": 62,
            "name": "D4",
            "ticks": 142080,
            "time": 211.428508,
            "velocity": 0.6377952755905512
          },
          {
            "duration": 1.2886900895833548,
            "durationTicks": 866,
            "midi": 43,
            "name": "G2",
            "ticks": 142080,
            "time": 211.428508,
            "velocity": 0.6535433070866141
          },
          {
            "duration": 0.16220233229165615,
            "durationTicks": 109,
            "midi": 66,
            "name": "F#4",
            "ticks": 142320,
            "time": 211.78565075,
            "velocity": 0.6850393700787402
          },
          {
            "duration": 0.16220233229168457,
            "durationTicks": 109,
            "midi": 64,
            "name": "E4",
            "ticks": 142440,
            "time": 211.964222125,
            "velocity": 0.6299212598425197
          },
          {
            "duration": 0.3244046645833123,
            "durationTicks": 218,
            "midi": 62,
            "name": "D4",
            "ticks": 142560,
            "time": 212.1427935,
            "velocity": 0.6377952755905512
          },
          {
            "duration": 0.3244046645833123,
            "durationTicks": 218,
            "midi": 67,
            "name": "G4",
            "ticks": 142800,
            "time": 212.49993625000002,
            "velocity": 0.6929133858267716
          },
          {
            "duration": 0.3244046645833407,
            "durationTicks": 218,
            "midi": 66,
            "name": "F#4",
            "ticks": 143040,
            "time": 212.857079,
            "velocity": 0.6614173228346457
          },
          {
            "duration": 1.2886900895833548,
            "durationTicks": 866,
            "midi": 38,
            "name": "D2",
            "ticks": 143040,
            "time": 212.857079,
            "velocity": 0.6220472440944882
          },
          {
            "duration": 0.16220233229165615,
            "durationTicks": 109,
            "midi": 62,
            "name": "D4",
            "ticks": 143280,
            "time": 213.21422175,
            "velocity": 0.6377952755905512
          },
          {
            "duration": 0.16220233229165615,
            "durationTicks": 109,
            "midi": 64,
            "name": "E4",
            "ticks": 143400,
            "time": 213.392793125,
            "velocity": 0.6771653543307087
          },
          {
            "duration": 0.3244046645833123,
            "durationTicks": 218,
            "midi": 66,
            "name": "F#4",
            "ticks": 143520,
            "time": 213.57136450000002,
            "velocity": 0.6771653543307087
          },
          {
            "duration": 0.3244046645833407,
            "durationTicks": 218,
            "midi": 69,
            "name": "A4",
            "ticks": 143760,
            "time": 213.92850725,
            "velocity": 0.6850393700787402
          },
          {
            "duration": 0.3244046645833123,
            "durationTicks": 218,
            "midi": 67,
            "name": "G4",
            "ticks": 144000,
            "time": 214.28565,
            "velocity": 0.6456692913385826
          },
          {
            "duration": 1.2886900895833264,
            "durationTicks": 866,
            "midi": 43,
            "name": "G2",
            "ticks": 144000,
            "time": 214.28565,
            "velocity": 0.6929133858267716
          },
          {
            "duration": 0.16220233229165615,
            "durationTicks": 109,
            "midi": 71,
            "name": "B4",
            "ticks": 144240,
            "time": 214.64279275,
            "velocity": 0.6929133858267716
          },
          {
            "duration": 0.16220233229165615,
            "durationTicks": 109,
            "midi": 69,
            "name": "A4",
            "ticks": 144360,
            "time": 214.821364125,
            "velocity": 0.6377952755905512
          },
          {
            "duration": 0.3244046645833407,
            "durationTicks": 218,
            "midi": 67,
            "name": "G4",
            "ticks": 144480,
            "time": 214.9999355,
            "velocity": 0.6220472440944882
          },
          {
            "duration": 0.3244046645833407,
            "durationTicks": 218,
            "midi": 66,
            "name": "F#4",
            "ticks": 144720,
            "time": 215.35707825,
            "velocity": 0.6456692913385826
          },
          {
            "duration": 0.3244046645833123,
            "durationTicks": 218,
            "midi": 64,
            "name": "E4",
            "ticks": 144960,
            "time": 215.714221,
            "velocity": 0.6220472440944882
          },
          {
            "duration": 1.2886900895833264,
            "durationTicks": 866,
            "midi": 45,
            "name": "A2",
            "ticks": 144960,
            "time": 215.714221,
            "velocity": 0.6456692913385826
          },
          {
            "duration": 0.16220233229165615,
            "durationTicks": 109,
            "midi": 69,
            "name": "A4",
            "ticks": 145200,
            "time": 216.07136375000002,
            "velocity": 0.7086614173228346
          },
          {
            "duration": 0.16220233229165615,
            "durationTicks": 109,
            "midi": 67,
            "name": "G4",
            "ticks": 145320,
            "time": 216.249935125,
            "velocity": 0.6535433070866141
          },
          {
            "duration": 0.3244046645833407,
            "durationTicks": 218,
            "midi": 66,
            "name": "F#4",
            "ticks": 145440,
            "time": 216.4285065,
            "velocity": 0.6299212598425197
          },
          {
            "duration": 0.3244046645833123,
            "durationTicks": 218,
            "midi": 64,
            "name": "E4",
            "ticks": 145680,
            "time": 216.78564925,
            "velocity": 0.6377952755905512
          },
          {
            "duration": 0.3244046645833123,
            "durationTicks": 218,
            "midi": 66,
            "name": "F#4",
            "ticks": 145920,
            "time": 217.14279200000001,
            "velocity": 0.6614173228346457
          },
          {
            "duration": 1.2886900895833264,
            "durationTicks": 866,
            "midi": 50,
            "name": "D3",
            "ticks": 145920,
            "time": 217.14279200000001,
            "velocity": 0.6771653543307087
          },
          {
            "duration": 0.16220233229168457,
            "durationTicks": 109,
            "midi": 74,
            "name": "D5",
            "ticks": 146160,
            "time": 217.49993475,
            "velocity": 0.7007874015748031
          },
          {
            "duration": 0.16220233229165615,
            "durationTicks": 109,
            "midi": 73,
            "name": "C#5",
            "ticks": 146280,
            "time": 217.678506125,
            "velocity": 0.6456692913385826
          },
          {
            "duration": 0.3244046645833123,
            "durationTicks": 218,
            "midi": 74,
            "name": "D5",
            "ticks": 146400,
            "time": 217.8570775,
            "velocity": 0.6692913385826772
          },
          {
            "duration": 0.3244046645833123,
            "durationTicks": 218,
            "midi": 66,
            "name": "F#4",
            "ticks": 146640,
            "time": 218.21422025,
            "velocity": 0.5905511811023622
          },
          {
            "duration": 0.3244046645833123,
            "durationTicks": 218,
            "midi": 69,
            "name": "A4",
            "ticks": 146880,
            "time": 218.57136300000002,
            "velocity": 0.7007874015748031
          },
          {
            "duration": 1.2886900895833264,
            "durationTicks": 866,
            "midi": 45,
            "name": "A2",
            "ticks": 146880,
            "time": 218.57136300000002,
            "velocity": 0.6220472440944882
          },
          {
            "duration": 0.16220233229165615,
            "durationTicks": 109,
            "midi": 69,
            "name": "A4",
            "ticks": 147120,
            "time": 218.92850575,
            "velocity": 0.6535433070866141
          },
          {
            "duration": 0.16220233229165615,
            "durationTicks": 109,
            "midi": 71,
            "name": "B4",
            "ticks": 147240,
            "time": 219.10707712500002,
            "velocity": 0.6771653543307087
          },
          {
            "duration": 0.3244046645833123,
            "durationTicks": 218,
            "midi": 73,
            "name": "C#5",
            "ticks": 147360,
            "time": 219.2856485,
            "velocity": 0.6850393700787402
          },
          {
            "duration": 0.3244046645833123,
            "durationTicks": 218,
            "midi": 69,
            "name": "A4",
            "ticks": 147600,
            "time": 219.64279125000002,
            "velocity": 0.6299212598425197
          },
          {
            "duration": 0.3244046645833407,
            "durationTicks": 218,
            "midi": 66,
            "name": "F#4",
            "ticks": 147840,
            "time": 219.999934,
            "velocity": 0.6535433070866141
          },
          {
            "duration": 1.2886900895833548,
            "durationTicks": 866,
            "midi": 47,
            "name": "B2",
            "ticks": 147840,
            "time": 219.999934,
            "velocity": 0.6535433070866141
          },
          {
            "duration": 0.16220233229165615,
            "durationTicks": 109,
            "midi": 74,
            "name": "D5",
            "ticks": 148080,
            "time": 220.35707675,
            "velocity": 0.7322834645669292
          },
          {
            "duration": 0.16220233229168457,
            "durationTicks": 109,
            "midi": 76,
            "name": "E5",
            "ticks": 148200,
            "time": 220.535648125,
            "velocity": 0.6850393700787402
          },
          {
            "duration": 0.3244046645833123,
            "durationTicks": 218,
            "midi": 78,
            "name": "F#5",
            "ticks": 148320,
            "time": 220.7142195,
            "velocity": 0.6929133858267716
          },
          {
            "duration": 0.3244046645833407,
            "durationTicks": 218,
            "midi": 74,
            "name": "D5",
            "ticks": 148560,
            "time": 221.07136225,
            "velocity": 0.6299212598425197
          },
          {
            "duration": 0.3244046645833407,
            "durationTicks": 218,
            "midi": 78,
            "name": "F#5",
            "ticks": 148800,
            "time": 221.428505,
            "velocity": 0.7007874015748031
          },
          {
            "duration": 1.2886900895833548,
            "durationTicks": 866,
            "midi": 42,
            "name": "F#2",
            "ticks": 148800,
            "time": 221.428505,
            "velocity": 0.6456692913385826
          },
          {
            "duration": 0.16220233229165615,
            "durationTicks": 109,
            "midi": 78,
            "name": "F#5",
            "ticks": 149040,
            "time": 221.78564775,
            "velocity": 0.6456692913385826
          },
          {
            "duration": 0.16220233229165615,
            "durationTicks": 109,
            "midi": 76,
            "name": "E5",
            "ticks": 149160,
            "time": 221.964219125,
            "velocity": 0.6377952755905512
          },
          {
            "duration": 0.3244046645833123,
            "durationTicks": 218,
            "midi": 74,
            "name": "D5",
            "ticks": 149280,
            "time": 222.14279050000002,
            "velocity": 0.6299212598425197
          },
          {
            "duration": 0.3244046645833407,
            "durationTicks": 218,
            "midi": 73,
            "name": "C#5",
            "ticks": 149520,
            "time": 222.49993325,
            "velocity": 0.6535433070866141
          },
          {
            "duration": 0.3244046645833123,
            "durationTicks": 218,
            "midi": 71,
            "name": "B4",
            "ticks": 149760,
            "time": 222.857076,
            "velocity": 0.6535433070866141
          },
          {
            "duration": 1.2886900895833264,
            "durationTicks": 866,
            "midi": 43,
            "name": "G2",
            "ticks": 149760,
            "time": 222.857076,
            "velocity": 0.6692913385826772
          },
          {
            "duration": 0.16220233229165615,
            "durationTicks": 109,
            "midi": 71,
            "name": "B4",
            "ticks": 150000,
            "time": 223.21421875000001,
            "velocity": 0.6614173228346457
          },
          {
            "duration": 0.16220233229165615,
            "durationTicks": 109,
            "midi": 69,
            "name": "A4",
            "ticks": 150120,
            "time": 223.392790125,
            "velocity": 0.6456692913385826
          },
          {
            "duration": 0.3244046645833407,
            "durationTicks": 218,
            "midi": 71,
            "name": "B4",
            "ticks": 150240,
            "time": 223.5713615,
            "velocity": 0.6929133858267716
          },
          {
            "duration": 0.3244046645833123,
            "durationTicks": 218,
            "midi": 73,
            "name": "C#5",
            "ticks": 150480,
            "time": 223.92850425,
            "velocity": 0.6771653543307087
          },
          {
            "duration": 0.3244046645833123,
            "durationTicks": 218,
            "midi": 74,
            "name": "D5",
            "ticks": 150720,
            "time": 224.285647,
            "velocity": 0.6771653543307087
          },
          {
            "duration": 1.2886900895833264,
            "durationTicks": 866,
            "midi": 38,
            "name": "D2",
            "ticks": 150720,
            "time": 224.285647,
            "velocity": 0.6299212598425197
          },
          {
            "duration": 0.16220233229168457,
            "durationTicks": 109,
            "midi": 78,
            "name": "F#5",
            "ticks": 150960,
            "time": 224.64278975,
            "velocity": 0.6850393700787402
          },
          {
            "duration": 0.16220233229165615,
            "durationTicks": 109,
            "midi": 76,
            "name": "E5",
            "ticks": 151080,
            "time": 224.821361125,
            "velocity": 0.6456692913385826
          },
          {
            "duration": 0.3244046645833407,
            "durationTicks": 218,
            "midi": 74,
            "name": "D5",
            "ticks": 151200,
            "time": 224.9999325,
            "velocity": 0.6377952755905512
          },
          {
            "duration": 0.3244046645833123,
            "durationTicks": 218,
            "midi": 78,
            "name": "F#5",
            "ticks": 151440,
            "time": 225.35707525,
            "velocity": 0.7007874015748031
          },
          {
            "duration": 0.3244046645833123,
            "durationTicks": 218,
            "midi": 79,
            "name": "G5",
            "ticks": 151680,
            "time": 225.71421800000002,
            "velocity": 0.6614173228346457
          },
          {
            "duration": 1.2886900895833264,
            "durationTicks": 866,
            "midi": 43,
            "name": "G2",
            "ticks": 151680,
            "time": 225.71421800000002,
            "velocity": 0.7007874015748031
          },
          {
            "duration": 0.16220233229165615,
            "durationTicks": 109,
            "midi": 74,
            "name": "D5",
            "ticks": 151920,
            "time": 226.07136075,
            "velocity": 0.6062992125984252
          },
          {
            "duration": 0.16220233229165615,
            "durationTicks": 109,
            "midi": 73,
            "name": "C#5",
            "ticks": 152040,
            "time": 226.24993212500002,
            "velocity": 0.6299212598425197
          },
          {
            "duration": 0.3244046645833123,
            "durationTicks": 218,
            "midi": 71,
            "name": "B4",
            "ticks": 152160,
            "time": 226.4285035,
            "velocity": 0.6299212598425197
          },
          {
            "duration": 0.3244046645833123,
            "durationTicks": 218,
            "midi": 71,
            "name": "B4",
            "ticks": 152400,
            "time": 226.78564625,
            "velocity": 0.6614173228346457
          },
          {
            "duration": 0.3244046645833407,
            "durationTicks": 218,
            "midi": 69,
            "name": "A4",
            "ticks": 152640,
            "time": 227.142789,
            "velocity": 0.6377952755905512
          },
          {
            "duration": 1.2886900895833548,
            "durationTicks": 866,
            "midi": 45,
            "name": "A2",
            "ticks": 152640,
            "time": 227.142789,
            "velocity": 0.6535433070866141
          },
          {
            "duration": 0.3244046645833123,
            "durationTicks": 218,
            "midi": 64,
            "name": "E4",
            "ticks": 152880,
            "time": 227.49993175,
            "velocity": 0.6062992125984252
          },
          {
            "duration": 0.3244046645833123,
            "durationTicks": 218,
            "midi": 69,
            "name": "A4",
            "ticks": 153120,
            "time": 227.8570745,
            "velocity": 0.7165354330708661
          },
          {
            "duration": 0.3244046645833123,
            "durationTicks": 218,
            "midi": 69,
            "name": "A4",
            "ticks": 153360,
            "time": 228.21421725000002,
            "velocity": 0.6614173228346457
          },
          {
            "duration": 0.3244046645833407,
            "durationTicks": 218,
            "midi": 66,
            "name": "F#4",
            "ticks": 153600,
            "time": 228.57136,
            "velocity": 0.6377952755905512
          },
          {
            "duration": 1.2886900895833548,
            "durationTicks": 866,
            "midi": 50,
            "name": "D3",
            "ticks": 153600,
            "time": 228.57136,
            "velocity": 0.6850393700787402
          },
          {
            "duration": 0.16220233229165615,
            "durationTicks": 109,
            "midi": 74,
            "name": "D5",
            "ticks": 153840,
            "time": 228.92850275,
            "velocity": 0.7086614173228346
          },
          {
            "duration": 0.16220233229165615,
            "durationTicks": 109,
            "midi": 73,
            "name": "C#5",
            "ticks": 153960,
            "time": 229.107074125,
            "velocity": 0.6535433070866141
          },
          {
            "duration": 0.3244046645833123,
            "durationTicks": 218,
            "midi": 74,
            "name": "D5",
            "ticks": 154080,
            "time": 229.28564550000002,
            "velocity": 0.6771653543307087
          },
          {
            "duration": 0.3244046645833407,
            "durationTicks": 218,
            "midi": 66,
            "name": "F#4",
            "ticks": 154320,
            "time": 229.64278825,
            "velocity": 0.6062992125984252
          },
          {
            "duration": 0.3244046645833123,
            "durationTicks": 218,
            "midi": 69,
            "name": "A4",
            "ticks": 154560,
            "time": 229.999931,
            "velocity": 0.6929133858267716
          },
          {
            "duration": 1.2886900895833548,
            "durationTicks": 866,
            "midi": 45,
            "name": "A2",
            "ticks": 154560,
            "time": 229.999931,
            "velocity": 0.6299212598425197
          },
          {
            "duration": 0.16220233229165615,
            "durationTicks": 109,
            "midi": 69,
            "name": "A4",
            "ticks": 154800,
            "time": 230.35707375,
            "velocity": 0.6535433070866141
          },
          {
            "duration": 0.16220233229165615,
            "durationTicks": 109,
            "midi": 71,
            "name": "B4",
            "ticks": 154920,
            "time": 230.535645125,
            "velocity": 0.7007874015748031
          },
          {
            "duration": 0.3244046645833407,
            "durationTicks": 218,
            "midi": 73,
            "name": "C#5",
            "ticks": 155040,
            "time": 230.7142165,
            "velocity": 0.6850393700787402
          },
          {
            "duration": 0.3244046645833407,
            "durationTicks": 218,
            "midi": 69,
            "name": "A4",
            "ticks": 155280,
            "time": 231.07135925,
            "velocity": 0.6299212598425197
          },
          {
            "duration": 0.3244046645833123,
            "durationTicks": 218,
            "midi": 66,
            "name": "F#4",
            "ticks": 155520,
            "time": 231.428502,
            "velocity": 0.6456692913385826
          },
          {
            "duration": 1.2886900895833264,
            "durationTicks": 866,
            "midi": 47,
            "name": "B2",
            "ticks": 155520,
            "time": 231.428502,
            "velocity": 0.6771653543307087
          },
          {
            "duration": 0.16220233229165615,
            "durationTicks": 109,
            "midi": 74,
            "name": "D5",
            "ticks": 155760,
            "time": 231.78564475000002,
            "velocity": 0.7086614173228346
          },
          {
            "duration": 0.16220233229165615,
            "durationTicks": 109,
            "midi": 76,
            "name": "E5",
            "ticks": 155880,
            "time": 231.964216125,
            "velocity": 0.6929133858267716
          },
          {
            "duration": 0.3244046645833407,
            "durationTicks": 218,
            "midi": 78,
            "name": "F#5",
            "ticks": 156000,
            "time": 232.1427875,
            "velocity": 0.6771653543307087
          },
          {
            "duration": 0.3244046645833123,
            "durationTicks": 218,
            "midi": 74,
            "name": "D5",
            "ticks": 156240,
            "time": 232.49993025,
            "velocity": 0.6220472440944882
          },
          {
            "duration": 0.3244046645833123,
            "durationTicks": 218,
            "midi": 78,
            "name": "F#5",
            "ticks": 156480,
            "time": 232.857073,
            "velocity": 0.7007874015748031
          },
          {
            "duration": 1.2886900895833264,
            "durationTicks": 866,
            "midi": 42,
            "name": "F#2",
            "ticks": 156480,
            "time": 232.857073,
            "velocity": 0.6456692913385826
          },
          {
            "duration": 0.16220233229168457,
            "durationTicks": 109,
            "midi": 78,
            "name": "F#5",
            "ticks": 156720,
            "time": 233.21421575,
            "velocity": 0.6692913385826772
          },
          {
            "duration": 0.16220233229165615,
            "durationTicks": 109,
            "midi": 76,
            "name": "E5",
            "ticks": 156840,
            "time": 233.392787125,
            "velocity": 0.6220472440944882
          },
          {
            "duration": 0.3244046645833123,
            "durationTicks": 218,
            "midi": 74,
            "name": "D5",
            "ticks": 156960,
            "time": 233.5713585,
            "velocity": 0.6299212598425197
          },
          {
            "duration": 0.3244046645833123,
            "durationTicks": 218,
            "midi": 73,
            "name": "C#5",
            "ticks": 157200,
            "time": 233.92850125,
            "velocity": 0.6614173228346457
          },
          {
            "duration": 0.3244046645833123,
            "durationTicks": 218,
            "midi": 71,
            "name": "B4",
            "ticks": 157440,
            "time": 234.28564400000002,
            "velocity": 0.6456692913385826
          },
          {
            "duration": 1.2886900895833264,
            "durationTicks": 866,
            "midi": 43,
            "name": "G2",
            "ticks": 157440,
            "time": 234.28564400000002,
            "velocity": 0.6614173228346457
          },
          {
            "duration": 0.16220233229165615,
            "durationTicks": 109,
            "midi": 71,
            "name": "B4",
            "ticks": 157680,
            "time": 234.64278675,
            "velocity": 0.6771653543307087
          },
          {
            "duration": 0.16220233229165615,
            "durationTicks": 109,
            "midi": 69,
            "name": "A4",
            "ticks": 157800,
            "time": 234.82135812500002,
            "velocity": 0.6377952755905512
          },
          {
            "duration": 0.3244046645833123,
            "durationTicks": 218,
            "midi": 71,
            "name": "B4",
            "ticks": 157920,
            "time": 234.9999295,
            "velocity": 0.6771653543307087
          },
          {
            "duration": 0.3244046645833123,
            "durationTicks": 218,
            "midi": 73,
            "name": "C#5",
            "ticks": 158160,
            "time": 235.35707225000002,
            "velocity": 0.6850393700787402
          },
          {
            "duration": 0.3244046645833407,
            "durationTicks": 218,
            "midi": 74,
            "name": "D5",
            "ticks": 158400,
            "time": 235.714215,
            "velocity": 0.6614173228346457
          },
          {
            "duration": 1.2886900895833548,
            "durationTicks": 866,
            "midi": 38,
            "name": "D2",
            "ticks": 158400,
            "time": 235.714215,
            "velocity": 0.6377952755905512
          },
          {
            "duration": 0.16220233229165615,
            "durationTicks": 109,
            "midi": 78,
            "name": "F#5",
            "ticks": 158640,
            "time": 236.07135775,
            "velocity": 0.7007874015748031
          },
          {
            "duration": 0.16220233229168457,
            "durationTicks": 109,
            "midi": 76,
            "name": "E5",
            "ticks": 158760,
            "time": 236.249929125,
            "velocity": 0.6220472440944882
          },
          {
            "duration": 0.3244046645833123,
            "durationTicks": 218,
            "midi": 74,
            "name": "D5",
            "ticks": 158880,
            "time": 236.4285005,
            "velocity": 0.6456692913385826
          },
          {
            "duration": 0.3244046645833407,
            "durationTicks": 218,
            "midi": 78,
            "name": "F#5",
            "ticks": 159120,
            "time": 236.78564325,
            "velocity": 0.7165354330708661
          },
          {
            "duration": 0.3244046645833407,
            "durationTicks": 218,
            "midi": 79,
            "name": "G5",
            "ticks": 159360,
            "time": 237.142786,
            "velocity": 0.6692913385826772
          },
          {
            "duration": 1.2886900895833548,
            "durationTicks": 866,
            "midi": 43,
            "name": "G2",
            "ticks": 159360,
            "time": 237.142786,
            "velocity": 0.6614173228346457
          },
          {
            "duration": 0.16220233229165615,
            "durationTicks": 109,
            "midi": 74,
            "name": "D5",
            "ticks": 159600,
            "time": 237.49992875,
            "velocity": 0.6220472440944882
          },
          {
            "duration": 0.16220233229165615,
            "durationTicks": 109,
            "midi": 73,
            "name": "C#5",
            "ticks": 159720,
            "time": 237.678500125,
            "velocity": 0.6377952755905512
          },
          {
            "duration": 0.3244046645833123,
            "durationTicks": 218,
            "midi": 71,
            "name": "B4",
            "ticks": 159840,
            "time": 237.85707150000002,
            "velocity": 0.6456692913385826
          },
          {
            "duration": 0.3244046645833407,
            "durationTicks": 218,
            "midi": 71,
            "name": "B4",
            "ticks": 160080,
            "time": 238.21421425,
            "velocity": 0.6456692913385826
          },
          {
            "duration": 0.3244046645833123,
            "durationTicks": 218,
            "midi": 69,
            "name": "A4",
            "ticks": 160320,
            "time": 238.571357,
            "velocity": 0.6220472440944882
          },
          {
            "duration": 1.2886900895833264,
            "durationTicks": 866,
            "midi": 45,
            "name": "A2",
            "ticks": 160320,
            "time": 238.571357,
            "velocity": 0.6850393700787402
          },
          {
            "duration": 0.3244046645833123,
            "durationTicks": 218,
            "midi": 64,
            "name": "E4",
            "ticks": 160560,
            "time": 238.92849975000001,
            "velocity": 0.6299212598425197
          },
          {
            "duration": 0.3244046645833407,
            "durationTicks": 218,
            "midi": 69,
            "name": "A4",
            "ticks": 160800,
            "time": 239.2856425,
            "velocity": 0.6850393700787402
          },
          {
            "duration": 0.3244046645833123,
            "durationTicks": 218,
            "midi": 69,
            "name": "A4",
            "ticks": 161040,
            "time": 239.64278525,
            "velocity": 0.6614173228346457
          },
          {
            "duration": 0.6473212343749992,
            "durationTicks": 435,
            "midi": 62,
            "name": "D4",
            "ticks": 161280,
            "time": 239.999928,
            "velocity": 0.7086614173228346
          },
          {
            "duration": 1.9315470395833074,
            "durationTicks": 1298,
            "midi": 69,
            "name": "A4",
            "ticks": 161280,
            "time": 239.999928,
            "velocity": 0.7401574803149606
          },
          {
            "duration": 1.2886900895833264,
            "durationTicks": 866,
            "midi": 50,
            "name": "D3",
            "ticks": 161280,
            "time": 239.999928,
            "velocity": 0.7874015748031497
          },
          {
            "duration": 0.6473212343749992,
            "durationTicks": 435,
            "midi": 74,
            "name": "D5",
            "ticks": 161760,
            "time": 240.7142135,
            "velocity": 0.8582677165354331
          },
          {
            "duration": 1.2886900895833264,
            "durationTicks": 866,
            "midi": 73,
            "name": "C#5",
            "ticks": 162240,
            "time": 241.42849900000002,
            "velocity": 0.7559055118110236
          },
          {
            "duration": 1.2886900895833264,
            "durationTicks": 866,
            "midi": 45,
            "name": "A2",
            "ticks": 162240,
            "time": 241.42849900000002,
            "velocity": 0.7322834645669292
          },
          {
            "duration": 0.6473212343749992,
            "durationTicks": 435,
            "midi": 69,
            "name": "A4",
            "ticks": 162720,
            "time": 242.1427845,
            "velocity": 0.7874015748031497
          },
          {
            "duration": 1.2886900895833548,
            "durationTicks": 866,
            "midi": 71,
            "name": "B4",
            "ticks": 163200,
            "time": 242.85707,
            "velocity": 0.7401574803149606
          },
          {
            "duration": 1.9315470395833358,
            "durationTicks": 1298,
            "midi": 62,
            "name": "D4",
            "ticks": 163200,
            "time": 242.85707,
            "velocity": 0.7086614173228346
          },
          {
            "duration": 1.2886900895833548,
            "durationTicks": 866,
            "midi": 47,
            "name": "B2",
            "ticks": 163200,
            "time": 242.85707,
            "velocity": 0.7795275590551181
          },
          {
            "duration": 1.2886900895833548,
            "durationTicks": 866,
            "midi": 69,
            "name": "A4",
            "ticks": 164160,
            "time": 244.285641,
            "velocity": 0.7401574803149606
          },
          {
            "duration": 1.2886900895833548,
            "durationTicks": 866,
            "midi": 42,
            "name": "F#2",
            "ticks": 164160,
            "time": 244.285641,
            "velocity": 0.7322834645669292
          },
          {
            "duration": 0.6473212343749992,
            "durationTicks": 435,
            "midi": 69,
            "name": "A4",
            "ticks": 164640,
            "time": 244.99992650000002,
            "velocity": 0.8188976377952756
          },
          {
            "duration": 1.2886900895833548,
            "durationTicks": 866,
            "midi": 67,
            "name": "G4",
            "ticks": 165120,
            "time": 245.714212,
            "velocity": 0.7480314960629921
          },
          {
            "duration": 0.9657735197916679,
            "durationTicks": 649,
            "midi": 62,
            "name": "D4",
            "ticks": 165120,
            "time": 245.714212,
            "velocity": 0.7007874015748031
          },
          {
            "duration": 1.2886900895833548,
            "durationTicks": 866,
            "midi": 43,
            "name": "G2",
            "ticks": 165120,
            "time": 245.714212,
            "velocity": 0.7795275590551181
          },
          {
            "duration": 0.3244046645833407,
            "durationTicks": 218,
            "midi": 64,
            "name": "E4",
            "ticks": 165840,
            "time": 246.78564025,
            "velocity": 0.7874015748031497
          },
          {
            "duration": 1.2886900895833264,
            "durationTicks": 866,
            "midi": 69,
            "name": "A4",
            "ticks": 166080,
            "time": 247.142783,
            "velocity": 0.7952755905511811
          },
          {
            "duration": 1.2886900895833264,
            "durationTicks": 866,
            "midi": 66,
            "name": "F#4",
            "ticks": 166080,
            "time": 247.142783,
            "velocity": 0.7952755905511811
          },
          {
            "duration": 1.2886900895833264,
            "durationTicks": 866,
            "midi": 38,
            "name": "D2",
            "ticks": 166080,
            "time": 247.142783,
            "velocity": 0.7480314960629921
          },
          {
            "duration": 1.2886900895833264,
            "durationTicks": 866,
            "midi": 74,
            "name": "D5",
            "ticks": 167040,
            "time": 248.571354,
            "velocity": 0.8031496062992126
          },
          {
            "duration": 0.6473212343749992,
            "durationTicks": 435,
            "midi": 67,
            "name": "G4",
            "ticks": 167040,
            "time": 248.571354,
            "velocity": 0.8110236220472441
          },
          {
            "duration": 1.2886900895833264,
            "durationTicks": 866,
            "midi": 43,
            "name": "G2",
            "ticks": 167040,
            "time": 248.571354,
            "velocity": 0.7874015748031497
          },
          {
            "duration": 0.6473212343749992,
            "durationTicks": 435,
            "midi": 62,
            "name": "D4",
            "ticks": 167520,
            "time": 249.2856395,
            "velocity": 0.7244094488188977
          },
          {
            "duration": 0.9657735197916395,
            "durationTicks": 649,
            "midi": 64,
            "name": "E4",
            "ticks": 168000,
            "time": 249.99992500000002,
            "velocity": 0.6850393700787402
          },
          {
            "duration": 0.9657735197916395,
            "durationTicks": 649,
            "midi": 62,
            "name": "D4",
            "ticks": 168000,
            "time": 249.99992500000002,
            "velocity": 0.7637795275590551
          },
          {
            "duration": 1.2886900895833264,
            "durationTicks": 866,
            "midi": 45,
            "name": "A2",
            "ticks": 168000,
            "time": 249.99992500000002,
            "velocity": 0.7795275590551181
          },
          {
            "duration": 0.3244046645833123,
            "durationTicks": 218,
            "midi": 64,
            "name": "E4",
            "ticks": 168720,
            "time": 251.07135325000002,
            "velocity": 0.7480314960629921
          },
          {
            "duration": 0.3244046645833123,
            "durationTicks": 218,
            "midi": 61,
            "name": "C#4",
            "ticks": 168720,
            "time": 251.07135325000002,
            "velocity": 0.7480314960629921
          },
          {
            "duration": 0.9657735197916679,
            "durationTicks": 649,
            "midi": 66,
            "name": "F#4",
            "ticks": 168960,
            "time": 251.428496,
            "velocity": 0.5826771653543307
          },
          {
            "duration": 0.6473212343749992,
            "durationTicks": 435,
            "midi": 62,
            "name": "D4",
            "ticks": 168960,
            "time": 251.428496,
            "velocity": 0.5669291338582677
          },
          {
            "duration": 1.2886900895833548,
            "durationTicks": 866,
            "midi": 50,
            "name": "D3",
            "ticks": 168960,
            "time": 251.428496,
            "velocity": 0.5826771653543307
          },
          {
            "duration": 0.6473212343749992,
            "durationTicks": 435,
            "midi": 74,
            "name": "D5",
            "ticks": 169440,
            "time": 252.1427815,
            "velocity": 0.6456692913385826
          },
          {
            "duration": 0.3244046645833407,
            "durationTicks": 218,
            "midi": 78,
            "name": "F#5",
            "ticks": 169680,
            "time": 252.49992425,
            "velocity": 0.6377952755905512
          },
          {
            "duration": 0.3244046645833407,
            "durationTicks": 218,
            "midi": 78,
            "name": "F#5",
            "ticks": 169920,
            "time": 252.857067,
            "velocity": 0.5669291338582677
          },
          {
            "duration": 1.2886900895833548,
            "durationTicks": 866,
            "midi": 73,
            "name": "C#5",
            "ticks": 169920,
            "time": 252.857067,
            "velocity": 0.5433070866141733
          },
          {
            "duration": 1.2886900895833548,
            "durationTicks": 866,
            "midi": 45,
            "name": "A2",
            "ticks": 169920,
            "time": 252.857067,
            "velocity": 0.5275590551181102
          },
          {
            "duration": 0.3244046645833123,
            "durationTicks": 218,
            "midi": 79,
            "name": "G5",
            "ticks": 170160,
            "time": 253.21420975,
            "velocity": 0.5748031496062992
          },
          {
            "duration": 0.3244046645833123,
            "durationTicks": 218,
            "midi": 78,
            "name": "F#5",
            "ticks": 170400,
            "time": 253.57135250000002,
            "velocity": 0.5590551181102362
          },
          {
            "duration": 0.3244046645833407,
            "durationTicks": 218,
            "midi": 76,
            "name": "E5",
            "ticks": 170640,
            "time": 253.92849525,
            "velocity": 0.5511811023622047
          },
          {
            "duration": 0.9657735197916679,
            "durationTicks": 649,
            "midi": 74,
            "name": "D5",
            "ticks": 170880,
            "time": 254.285638,
            "velocity": 0.5590551181102362
          },
          {
            "duration": 1.2886900895833264,
            "durationTicks": 866,
            "midi": 71,
            "name": "B4",
            "ticks": 170880,
            "time": 254.285638,
            "velocity": 0.5354330708661418
          },
          {
            "duration": 1.2886900895833264,
            "durationTicks": 866,
            "midi": 47,
            "name": "B2",
            "ticks": 170880,
            "time": 254.285638,
            "velocity": 0.5826771653543307
          },
          {
            "duration": 0.3244046645833123,
            "durationTicks": 218,
            "midi": 74,
            "name": "D5",
            "ticks": 171600,
            "time": 255.35706625,
            "velocity": 0.5590551181102362
          },
          {
            "duration": 0.3244046645833407,
            "durationTicks": 218,
            "midi": 74,
            "name": "D5",
            "ticks": 171840,
            "time": 255.714209,
            "velocity": 0.5511811023622047
          },
          {
            "duration": 1.2886900895833548,
            "durationTicks": 866,
            "midi": 69,
            "name": "A4",
            "ticks": 171840,
            "time": 255.714209,
            "velocity": 0.5590551181102362
          },
          {
            "duration": 1.2886900895833548,
            "durationTicks": 866,
            "midi": 42,
            "name": "F#2",
            "ticks": 171840,
            "time": 255.714209,
            "velocity": 0.5275590551181102
          },
          {
            "duration": 0.3244046645833123,
            "durationTicks": 218,
            "midi": 76,
            "name": "E5",
            "ticks": 172080,
            "time": 256.07135175,
            "velocity": 0.5748031496062992
          },
          {
            "duration": 0.3244046645833123,
            "durationTicks": 218,
            "midi": 74,
            "name": "D5",
            "ticks": 172320,
            "time": 256.4284945,
            "velocity": 0.5511811023622047
          },
          {
            "duration": 0.32440466458336914,
            "durationTicks": 218,
            "midi": 73,
            "name": "C#5",
            "ticks": 172560,
            "time": 256.78563725,
            "velocity": 0.5511811023622047
          },
          {
            "duration": 1.2886900895833264,
            "durationTicks": 866,
            "midi": 71,
            "name": "B4",
            "ticks": 172800,
            "time": 257.14278,
            "velocity": 0.5511811023622047
          },
          {
            "duration": 0.9657735197916395,
            "durationTicks": 649,
            "midi": 62,
            "name": "D4",
            "ticks": 172800,
            "time": 257.14278,
            "velocity": 0.5118110236220472
          },
          {
            "duration": 1.2886900895833264,
            "durationTicks": 866,
            "midi": 43,
            "name": "G2",
            "ticks": 172800,
            "time": 257.14278,
            "velocity": 0.5590551181102362
          },
          {
            "duration": 0.3244046645833123,
            "durationTicks": 218,
            "midi": 64,
            "name": "E4",
            "ticks": 173520,
            "time": 258.21420825,
            "velocity": 0.5748031496062992
          },
          {
            "duration": 1.2886900895833264,
            "durationTicks": 866,
            "midi": 74,
            "name": "D5",
            "ticks": 173760,
            "time": 258.571351,
            "velocity": 0.5826771653543307
          },
          {
            "duration": 1.2886900895833264,
            "durationTicks": 866,
            "midi": 66,
            "name": "F#4",
            "ticks": 173760,
            "time": 258.571351,
            "velocity": 0.5748031496062992
          },
          {
            "duration": 1.2886900895833264,
            "durationTicks": 866,
            "midi": 38,
            "name": "D2",
            "ticks": 173760,
            "time": 258.571351,
            "velocity": 0.5590551181102362
          },
          {
            "duration": 0.3244046645833123,
            "durationTicks": 218,
            "midi": 74,
            "name": "D5",
            "ticks": 174720,
            "time": 259.999922,
            "velocity": 0.5511811023622047
          },
          {
            "duration": 1.2886900895833264,
            "durationTicks": 866,
            "midi": 62,
            "name": "D4",
            "ticks": 174720,
            "time": 259.999922,
            "velocity": 0.5354330708661418
          },
          {
            "duration": 1.2886900895833264,
            "durationTicks": 866,
            "midi": 43,
            "name": "G2",
            "ticks": 174720,
            "time": 259.999922,
            "velocity": 0.5748031496062992
          },
          {
            "duration": 0.3244046645833123,
            "durationTicks": 218,
            "midi": 72,
            "name": "C5",
            "ticks": 174960,
            "time": 260.35706475,
            "velocity": 0.5511811023622047
          },
          {
            "duration": 0.32440466458336914,
            "durationTicks": 218,
            "midi": 71,
            "name": "B4",
            "ticks": 175200,
            "time": 260.7142075,
            "velocity": 0.5354330708661418
          },
          {
            "duration": 0.3244046645833123,
            "durationTicks": 218,
            "midi": 72,
            "name": "C5",
            "ticks": 175440,
            "time": 261.07135025,
            "velocity": 0.5905511811023622
          },
          {
            "duration": 0.9657735197916395,
            "durationTicks": 649,
            "midi": 69,
            "name": "A4",
            "ticks": 175680,
            "time": 261.428493,
            "velocity": 0.5590551181102362
          },
          {
            "duration": 0.9657735197916395,
            "durationTicks": 649,
            "midi": 64,
            "name": "E4",
            "ticks": 175680,
            "time": 261.428493,
            "velocity": 0.5826771653543307
          },
          {
            "duration": 1.2886900895833264,
            "durationTicks": 866,
            "midi": 45,
            "name": "A2",
            "ticks": 175680,
            "time": 261.428493,
            "velocity": 0.5669291338582677
          },
          {
            "duration": 0.3244046645833123,
            "durationTicks": 218,
            "midi": 69,
            "name": "A4",
            "ticks": 176400,
            "time": 262.49992125,
            "velocity": 0.5826771653543307
          },
          {
            "duration": 0.3244046645833123,
            "durationTicks": 218,
            "midi": 64,
            "name": "E4",
            "ticks": 176400,
            "time": 262.49992125,
            "velocity": 0.5590551181102362
          },
          {
            "duration": 0.9657735197916963,
            "durationTicks": 649,
            "midi": 66,
            "name": "F#4",
            "ticks": 176640,
            "time": 262.857064,
            "velocity": 0.5590551181102362
          },
          {
            "duration": 0.9657735197916963,
            "durationTicks": 649,
            "midi": 69,
            "name": "A4",
            "ticks": 176640,
            "time": 262.857064,
            "velocity": 0.5590551181102362
          },
          {
            "duration": 1.2886900895833833,
            "durationTicks": 866,
            "midi": 50,
            "name": "D3",
            "ticks": 176640,
            "time": 262.857064,
            "velocity": 0.5905511811023622
          },
          {
            "duration": 0.3244046645833123,
            "durationTicks": 218,
            "midi": 78,
            "name": "F#5",
            "ticks": 177360,
            "time": 263.92849225000003,
            "velocity": 0.6299212598425197
          },
          {
            "duration": 0.3244046645833123,
            "durationTicks": 218,
            "midi": 81,
            "name": "A5",
            "ticks": 177360,
            "time": 263.92849225000003,
            "velocity": 0.6299212598425197
          },
          {
            "duration": 0.3244046645833123,
            "durationTicks": 218,
            "midi": 78,
            "name": "F#5",
            "ticks": 177600,
            "time": 264.285635,
            "velocity": 0.5826771653543307
          },
          {
            "duration": 0.3244046645833123,
            "durationTicks": 218,
            "midi": 81,
            "name": "A5",
            "ticks": 177600,
            "time": 264.285635,
            "velocity": 0.5826771653543307
          },
          {
            "duration": 1.2886900895833264,
            "durationTicks": 866,
            "midi": 45,
            "name": "A2",
            "ticks": 177600,
            "time": 264.285635,
            "velocity": 0.5275590551181102
          },
          {
            "duration": 0.3244046645833123,
            "durationTicks": 218,
            "midi": 79,
            "name": "G5",
            "ticks": 177840,
            "time": 264.64277775,
            "velocity": 0.5826771653543307
          },
          {
            "duration": 0.3244046645833123,
            "durationTicks": 218,
            "midi": 83,
            "name": "B5",
            "ticks": 177840,
            "time": 264.64277775,
            "velocity": 0.5826771653543307
          },
          {
            "duration": 0.3244046645833123,
            "durationTicks": 218,
            "midi": 78,
            "name": "F#5",
            "ticks": 178080,
            "time": 264.99992050000003,
            "velocity": 0.5275590551181102
          },
          {
            "duration": 0.3244046645833123,
            "durationTicks": 218,
            "midi": 81,
            "name": "A5",
            "ticks": 178080,
            "time": 264.99992050000003,
            "velocity": 0.5275590551181102
          },
          {
            "duration": 0.3244046645833123,
            "durationTicks": 218,
            "midi": 76,
            "name": "E5",
            "ticks": 178320,
            "time": 265.35706325,
            "velocity": 0.5433070866141733
          },
          {
            "duration": 0.3244046645833123,
            "durationTicks": 218,
            "midi": 79,
            "name": "G5",
            "ticks": 178320,
            "time": 265.35706325,
            "velocity": 0.5433070866141733
          },
          {
            "duration": 0.9657735197916963,
            "durationTicks": 649,
            "midi": 74,
            "name": "D5",
            "ticks": 178560,
            "time": 265.714206,
            "velocity": 0.5354330708661418
          },
          {
            "duration": 0.9657735197916963,
            "durationTicks": 649,
            "midi": 78,
            "name": "F#5",
            "ticks": 178560,
            "time": 265.714206,
            "velocity": 0.5354330708661418
          },
          {
            "duration": 1.2886900895833833,
            "durationTicks": 866,
            "midi": 47,
            "name": "B2",
            "ticks": 178560,
            "time": 265.714206,
            "velocity": 0.5511811023622047
          },
          {
            "duration": 0.32440466458336914,
            "durationTicks": 218,
            "midi": 74,
            "name": "D5",
            "ticks": 179280,
            "time": 266.78563425,
            "velocity": 0.5590551181102362
          },
          {
            "duration": 0.32440466458336914,
            "durationTicks": 218,
            "midi": 78,
            "name": "F#5",
            "ticks": 179280,
            "time": 266.78563425,
            "velocity": 0.5590551181102362
          },
          {
            "duration": 0.3244046645833123,
            "durationTicks": 218,
            "midi": 74,
            "name": "D5",
            "ticks": 179520,
            "time": 267.142777,
            "velocity": 0.5511811023622047
          },
          {
            "duration": 0.3244046645833123,
            "durationTicks": 218,
            "midi": 78,
            "name": "F#5",
            "ticks": 179520,
            "time": 267.142777,
            "velocity": 0.5511811023622047
          },
          {
            "duration": 1.2886900895833264,
            "durationTicks": 866,
            "midi": 42,
            "name": "F#2",
            "ticks": 179520,
            "time": 267.142777,
            "velocity": 0.5511811023622047
          },
          {
            "duration": 0.3244046645833123,
            "durationTicks": 218,
            "midi": 76,
            "name": "E5",
            "ticks": 179760,
            "time": 267.49991975,
            "velocity": 0.5826771653543307
          },
          {
            "duration": 0.3244046645833123,
            "durationTicks": 218,
            "midi": 79,
            "name": "G5",
            "ticks": 179760,
            "time": 267.49991975,
            "velocity": 0.5826771653543307
          },
          {
            "duration": 0.32440466458336914,
            "durationTicks": 218,
            "midi": 74,
            "name": "D5",
            "ticks": 180000,
            "time": 267.8570625,
            "velocity": 0.5590551181102362
          },
          {
            "duration": 0.32440466458336914,
            "durationTicks": 218,
            "midi": 78,
            "name": "F#5",
            "ticks": 180000,
            "time": 267.8570625,
            "velocity": 0.5590551181102362
          },
          {
            "duration": 0.3244046645833123,
            "durationTicks": 218,
            "midi": 73,
            "name": "C#5",
            "ticks": 180240,
            "time": 268.21420525,
            "velocity": 0.5433070866141733
          },
          {
            "duration": 0.3244046645833123,
            "durationTicks": 218,
            "midi": 76,
            "name": "E5",
            "ticks": 180240,
            "time": 268.21420525,
            "velocity": 0.5433070866141733
          },
          {
            "duration": 0.3244046645833123,
            "durationTicks": 218,
            "midi": 74,
            "name": "D5",
            "ticks": 180480,
            "time": 268.571348,
            "velocity": 0.5433070866141733
          },
          {
            "duration": 0.6473212343749992,
            "durationTicks": 435,
            "midi": 71,
            "name": "B4",
            "ticks": 180480,
            "time": 268.571348,
            "velocity": 0.6062992125984252
          },
          {
            "duration": 1.2886900895833264,
            "durationTicks": 866,
            "midi": 43,
            "name": "G2",
            "ticks": 180480,
            "time": 268.571348,
            "velocity": 0.5590551181102362
          },
          {
            "duration": 0.32440466458336914,
            "durationTicks": 218,
            "midi": 72,
            "name": "C5",
            "ticks": 180720,
            "time": 268.92849075,
            "velocity": 0.5511811023622047
          },
          {
            "duration": 0.3244046645833123,
            "durationTicks": 218,
            "midi": 71,
            "name": "B4",
            "ticks": 180960,
            "time": 269.2856335,
            "velocity": 0.5669291338582677
          },
          {
            "duration": 0.6473212343749992,
            "durationTicks": 435,
            "midi": 67,
            "name": "G4",
            "ticks": 180960,
            "time": 269.2856335,
            "velocity": 0.5511811023622047
          },
          {
            "duration": 0.3244046645833123,
            "durationTicks": 218,
            "midi": 72,
            "name": "C5",
            "ticks": 181200,
            "time": 269.64277625,
            "velocity": 0.5826771653543307
          },
          {
            "duration": 0.9657735197916395,
            "durationTicks": 649,
            "midi": 69,
            "name": "A4",
            "ticks": 181440,
            "time": 269.99991900000003,
            "velocity": 0.5433070866141733
          },
          {
            "duration": 1.2886900895833264,
            "durationTicks": 866,
            "midi": 62,
            "name": "D4",
            "ticks": 181440,
            "time": 269.99991900000003,
            "velocity": 0.5275590551181102
          },
          {
            "duration": 1.2886900895833264,
            "durationTicks": 866,
            "midi": 38,
            "name": "D2",
            "ticks": 181440,
            "time": 269.99991900000003,
            "velocity": 0.5433070866141733
          },
          {
            "duration": 0.3244046645833123,
            "durationTicks": 218,
            "midi": 69,
            "name": "A4",
            "ticks": 182160,
            "time": 271.07134725000003,
            "velocity": 0.5511811023622047
          },
          {
            "duration": 0.6473212343749992,
            "durationTicks": 435,
            "midi": 67,
            "name": "G4",
            "ticks": 182400,
            "time": 271.42849,
            "velocity": 0.5275590551181102
          },
          {
            "duration": 0.3244046645833123,
            "durationTicks": 218,
            "midi": 62,
            "name": "D4",
            "ticks": 182400,
            "time": 271.42849,
            "velocity": 0.5433070866141733
          },
          {
            "duration": 1.2886900895833264,
            "durationTicks": 866,
            "midi": 43,
            "name": "G2",
            "ticks": 182400,
            "time": 271.42849,
            "velocity": 0.5669291338582677
          },
          {
            "duration": 0.3244046645833123,
            "durationTicks": 218,
            "midi": 60,
            "name": "C4",
            "ticks": 182640,
            "time": 271.78563275,
            "velocity": 0.5433070866141733
          },
          {
            "duration": 0.6473212343749992,
            "durationTicks": 435,
            "midi": 62,
            "name": "D4",
            "ticks": 182880,
            "time": 272.1427755,
            "velocity": 0.5354330708661418
          },
          {
            "duration": 0.3244046645833123,
            "durationTicks": 218,
            "midi": 59,
            "name": "B3",
            "ticks": 182880,
            "time": 272.1427755,
            "velocity": 0.5669291338582677
          },
          {
            "duration": 0.3244046645833123,
            "durationTicks": 218,
            "midi": 62,
            "name": "D4",
            "ticks": 183120,
            "time": 272.49991825,
            "velocity": 0.5905511811023622
          },
          {
            "duration": 0.9657735197916963,
            "durationTicks": 649,
            "midi": 69,
            "name": "A4",
            "ticks": 183360,
            "time": 272.857061,
            "velocity": 0.6062992125984252
          },
          {
            "duration": 0.9657735197916963,
            "durationTicks": 649,
            "midi": 61,
            "name": "C#4",
            "ticks": 183360,
            "time": 272.857061,
            "velocity": 0.5511811023622047
          },
          {
            "duration": 1.2886900895833833,
            "durationTicks": 866,
            "midi": 45,
            "name": "A2",
            "ticks": 183360,
            "time": 272.857061,
            "velocity": 0.5669291338582677
          },
          {
            "duration": 0.32440466458336914,
            "durationTicks": 218,
            "midi": 69,
            "name": "A4",
            "ticks": 184080,
            "time": 273.92848925,
            "velocity": 0.5748031496062992
          },
          {
            "duration": 0.32440466458336914,
            "durationTicks": 218,
            "midi": 61,
            "name": "C#4",
            "ticks": 184080,
            "time": 273.92848925,
            "velocity": 0.5433070866141733
          },
          {
            "duration": 0.9657735197916395,
            "durationTicks": 649,
            "midi": 69,
            "name": "A4",
            "ticks": 184320,
            "time": 274.285632,
            "velocity": 0.5669291338582677
          },
          {
            "duration": 0.6473212343749992,
            "durationTicks": 435,
            "midi": 62,
            "name": "D4",
            "ticks": 184320,
            "time": 274.285632,
            "velocity": 0.5669291338582677
          },
          {
            "duration": 1.2886900895833264,
            "durationTicks": 866,
            "midi": 50,
            "name": "D3",
            "ticks": 184320,
            "time": 274.285632,
            "velocity": 0.5984251968503937
          },
          {
            "duration": 1.2886900895833833,
            "durationTicks": 866,
            "midi": 74,
            "name": "D5",
            "ticks": 184800,
            "time": 274.9999175,
            "velocity": 0.6456692913385826
          },
          {
            "duration": 0.3244046645833123,
            "durationTicks": 218,
            "midi": 81,
            "name": "A5",
            "ticks": 185040,
            "time": 275.35706025,
            "velocity": 0.6377952755905512
          },
          {
            "duration": 0.3244046645833123,
            "durationTicks": 218,
            "midi": 81,
            "name": "A5",
            "ticks": 185280,
            "time": 275.714203,
            "velocity": 0.5590551181102362
          },
          {
            "duration": 1.2886900895833264,
            "durationTicks": 866,
            "midi": 45,
            "name": "A2",
            "ticks": 185280,
            "time": 275.714203,
            "velocity": 0.5433070866141733
          },
          {
            "duration": 0.3244046645833123,
            "durationTicks": 218,
            "midi": 83,
            "name": "B5",
            "ticks": 185520,
            "time": 276.07134575000003,
            "velocity": 0.5826771653543307
          },
          {
            "duration": 0.3244046645833123,
            "durationTicks": 218,
            "midi": 81,
            "name": "A5",
            "ticks": 185760,
            "time": 276.4284885,
            "velocity": 0.5354330708661418
          },
          {
            "duration": 1.2886900895833264,
            "durationTicks": 866,
            "midi": 73,
            "name": "C#5",
            "ticks": 185760,
            "time": 276.4284885,
            "velocity": 0.5433070866141733
          },
          {
            "duration": 0.3244046645833123,
            "durationTicks": 218,
            "midi": 79,
            "name": "G5",
            "ticks": 186000,
            "time": 276.78563125,
            "velocity": 0.5511811023622047
          },
          {
            "duration": 0.9657735197916395,
            "durationTicks": 649,
            "midi": 78,
            "name": "F#5",
            "ticks": 186240,
            "time": 277.14277400000003,
            "velocity": 0.5196850393700787
          },
          {
            "duration": 1.2886900895833264,
            "durationTicks": 866,
            "midi": 47,
            "name": "B2",
            "ticks": 186240,
            "time": 277.14277400000003,
            "velocity": 0.5748031496062992
          },
          {
            "duration": 1.2886900895833264,
            "durationTicks": 866,
            "midi": 71,
            "name": "B4",
            "ticks": 186720,
            "time": 277.8570595,
            "velocity": 0.5354330708661418
          },
          {
            "duration": 0.3244046645833123,
            "durationTicks": 218,
            "midi": 78,
            "name": "F#5",
            "ticks": 186960,
            "time": 278.21420225,
            "velocity": 0.5669291338582677
          },
          {
            "duration": 0.3244046645833123,
            "durationTicks": 218,
            "midi": 78,
            "name": "F#5",
            "ticks": 187200,
            "time": 278.571345,
            "velocity": 0.5748031496062992
          },
          {
            "duration": 1.2886900895833264,
            "durationTicks": 866,
            "midi": 42,
            "name": "F#2",
            "ticks": 187200,
            "time": 278.571345,
            "velocity": 0.5433070866141733
          },
          {
            "duration": 0.32440466458336914,
            "durationTicks": 218,
            "midi": 79,
            "name": "G5",
            "ticks": 187440,
            "time": 278.92848775,
            "velocity": 0.5590551181102362
          },
          {
            "duration": 0.3244046645833123,
            "durationTicks": 218,
            "midi": 78,
            "name": "F#5",
            "ticks": 187680,
            "time": 279.2856305,
            "velocity": 0.5511811023622047
          },
          {
            "duration": 1.3616067343749592,
            "durationTicks": 915,
            "midi": 69,
            "name": "A4",
            "ticks": 187680,
            "time": 279.2856305,
            "velocity": 0.5433070866141733
          },
          {
            "duration": 0.3244046645833123,
            "durationTicks": 218,
            "midi": 76,
            "name": "E5",
            "ticks": 187920,
            "time": 279.64277325,
            "velocity": 0.5433070866141733
          },
          {
            "duration": 0.32440466458336914,
            "durationTicks": 218,
            "midi": 74,
            "name": "D5",
            "ticks": 188160,
            "time": 279.999916,
            "velocity": 0.5511811023622047
          },
          {
            "duration": 1.2886900895833833,
            "durationTicks": 866,
            "midi": 43,
            "name": "G2",
            "ticks": 188160,
            "time": 279.999916,
            "velocity": 0.5748031496062992
          },
          {
            "duration": 0.3244046645833123,
            "durationTicks": 218,
            "midi": 72,
            "name": "C5",
            "ticks": 188400,
            "time": 280.35705875,
            "velocity": 0.5433070866141733
          },
          {
            "duration": 0.3244046645833123,
            "durationTicks": 218,
            "midi": 71,
            "name": "B4",
            "ticks": 188640,
            "time": 280.7142015,
            "velocity": 0.5433070866141733
          },
          {
            "duration": 1.2886900895833264,
            "durationTicks": 866,
            "midi": 67,
            "name": "G4",
            "ticks": 188640,
            "time": 280.7142015,
            "velocity": 0.5354330708661418
          },
          {
            "duration": 0.32440466458336914,
            "durationTicks": 218,
            "midi": 72,
            "name": "C5",
            "ticks": 188880,
            "time": 281.07134425,
            "velocity": 0.5748031496062992
          },
          {
            "duration": 0.9657735197916395,
            "durationTicks": 649,
            "midi": 69,
            "name": "A4",
            "ticks": 189120,
            "time": 281.428487,
            "velocity": 0.5354330708661418
          },
          {
            "duration": 1.2886900895833264,
            "durationTicks": 866,
            "midi": 38,
            "name": "D2",
            "ticks": 189120,
            "time": 281.428487,
            "velocity": 0.5511811023622047
          },
          {
            "duration": 0.6473212343749992,
            "durationTicks": 435,
            "midi": 66,
            "name": "F#4",
            "ticks": 189600,
            "time": 282.14277250000004,
            "velocity": 0.5590551181102362
          },
          {
            "duration": 0.3244046645833123,
            "durationTicks": 218,
            "midi": 69,
            "name": "A4",
            "ticks": 189840,
            "time": 282.49991525,
            "velocity": 0.5433070866141733
          },
          {
            "duration": 0.6473212343749992,
            "durationTicks": 435,
            "midi": 67,
            "name": "G4",
            "ticks": 190080,
            "time": 282.857058,
            "velocity": 0.5354330708661418
          },
          {
            "duration": 0.9657735197916963,
            "durationTicks": 649,
            "midi": 66,
            "name": "F#4",
            "ticks": 190080,
            "time": 282.857058,
            "velocity": 0.5590551181102362
          },
          {
            "duration": 1.2886900895833264,
            "durationTicks": 866,
            "midi": 43,
            "name": "G2",
            "ticks": 190080,
            "time": 282.857058,
            "velocity": 0.5905511811023622
          },
          {
            "duration": 0.6473212343749992,
            "durationTicks": 435,
            "midi": 74,
            "name": "D5",
            "ticks": 190560,
            "time": 283.5713435,
            "velocity": 0.6062992125984252
          },
          {
            "duration": 0.3244046645833123,
            "durationTicks": 218,
            "midi": 64,
            "name": "E4",
            "ticks": 190800,
            "time": 283.92848625,
            "velocity": 0.5354330708661418
          },
          {
            "duration": 0.9657735197916395,
            "durationTicks": 649,
            "midi": 73,
            "name": "C#5",
            "ticks": 191040,
            "time": 284.28562900000003,
            "velocity": 0.5511811023622047
          },
          {
            "duration": 1.2886900895833264,
            "durationTicks": 866,
            "midi": 64,
            "name": "E4",
            "ticks": 191040,
            "time": 284.28562900000003,
            "velocity": 0.5590551181102362
          },
          {
            "duration": 1.2886900895833264,
            "durationTicks": 866,
            "midi": 45,
            "name": "A2",
            "ticks": 191040,
            "time": 284.28562900000003,
            "velocity": 0.5748031496062992
          },
          {
            "duration": 0.3244046645833123,
            "durationTicks": 218,
            "midi": 73,
            "name": "C#5",
            "ticks": 191760,
            "time": 285.35705725,
            "velocity": 0.5748031496062992
          },
          {
            "duration": 0.6473212343749992,
            "durationTicks": 435,
            "midi": 74,
            "name": "D5",
            "ticks": 192000,
            "time": 285.7142,
            "velocity": 0.5826771653543307
          },
          {
            "duration": 0.6473212343749992,
            "durationTicks": 435,
            "midi": 66,
            "name": "F#4",
            "ticks": 192000,
            "time": 285.7142,
            "velocity": 0.5590551181102362
          },
          {
            "duration": 1.2886900895833264,
            "durationTicks": 866,
            "midi": 50,
            "name": "D3",
            "ticks": 192000,
            "time": 285.7142,
            "velocity": 0.5826771653543307
          },
          {
            "duration": 1.2886900895833264,
            "durationTicks": 866,
            "midi": 78,
            "name": "F#5",
            "ticks": 192480,
            "time": 286.4284855,
            "velocity": 0.5826771653543307
          },
          {
            "duration": 1.2886900895833264,
            "durationTicks": 866,
            "midi": 74,
            "name": "D5",
            "ticks": 192480,
            "time": 286.4284855,
            "velocity": 0.5984251968503937
          },
          {
            "duration": 1.2886900895833833,
            "durationTicks": 866,
            "midi": 45,
            "name": "A2",
            "ticks": 192960,
            "time": 287.142771,
            "velocity": 0.5275590551181102
          },
          {
            "duration": 0.6473212343749992,
            "durationTicks": 435,
            "midi": 76,
            "name": "E5",
            "ticks": 193440,
            "time": 287.8570565,
            "velocity": 0.5354330708661418
          },
          {
            "duration": 1.2886900895833264,
            "durationTicks": 866,
            "midi": 73,
            "name": "C#5",
            "ticks": 193440,
            "time": 287.8570565,
            "velocity": 0.5511811023622047
          },
          {
            "duration": 0.6473212343749992,
            "durationTicks": 435,
            "midi": 74,
            "name": "D5",
            "ticks": 193920,
            "time": 288.571342,
            "velocity": 0.5669291338582677
          },
          {
            "duration": 1.2886900895833264,
            "durationTicks": 866,
            "midi": 47,
            "name": "B2",
            "ticks": 193920,
            "time": 288.571342,
            "velocity": 0.5669291338582677
          },
          {
            "duration": 1.2886900895833264,
            "durationTicks": 866,
            "midi": 86,
            "name": "D6",
            "ticks": 194400,
            "time": 289.28562750000003,
            "velocity": 0.6377952755905512
          },
          {
            "duration": 1.2886900895833264,
            "durationTicks": 866,
            "midi": 83,
            "name": "B5",
            "ticks": 194400,
            "time": 289.28562750000003,
            "velocity": 0.6220472440944882
          },
          {
            "duration": 1.2886900895833264,
            "durationTicks": 866,
            "midi": 42,
            "name": "F#2",
            "ticks": 194880,
            "time": 289.999913,
            "velocity": 0.5354330708661418
          },
          {
            "duration": 0.6473212343749992,
            "durationTicks": 435,
            "midi": 84,
            "name": "C6",
            "ticks": 195360,
            "time": 290.7141985,
            "velocity": 0.5511811023622047
          },
          {
            "duration": 1.361606734375016,
            "durationTicks": 915,
            "midi": 81,
            "name": "A5",
            "ticks": 195360,
            "time": 290.7141985,
            "velocity": 0.5511811023622047
          },
          {
            "duration": 1.2886900895833264,
            "durationTicks": 866,
            "midi": 83,
            "name": "B5",
            "ticks": 195840,
            "time": 291.428484,
            "velocity": 0.5275590551181102
          },
          {
            "duration": 1.2886900895833264,
            "durationTicks": 866,
            "midi": 43,
            "name": "G2",
            "ticks": 195840,
            "time": 291.428484,
            "velocity": 0.5669291338582677
          },
          {
            "duration": 1.2886900895833833,
            "durationTicks": 866,
            "midi": 79,
            "name": "G5",
            "ticks": 196320,
            "time": 292.1427695,
            "velocity": 0.5275590551181102
          },
          {
            "duration": 0.6473212343749992,
            "durationTicks": 435,
            "midi": 86,
            "name": "D6",
            "ticks": 196800,
            "time": 292.857055,
            "velocity": 0.5669291338582677
          },
          {
            "duration": 1.2886900895833264,
            "durationTicks": 866,
            "midi": 38,
            "name": "D2",
            "ticks": 196800,
            "time": 292.857055,
            "velocity": 0.5433070866141733
          },
          {
            "duration": 0.6473212343749992,
            "durationTicks": 435,
            "midi": 83,
            "name": "B5",
            "ticks": 197280,
            "time": 293.5713405,
            "velocity": 0.5669291338582677
          },
          {
            "duration": 0.6473212343749992,
            "durationTicks": 435,
            "midi": 78,
            "name": "F#5",
            "ticks": 197280,
            "time": 293.5713405,
            "velocity": 0.5984251968503937
          },
          {
            "duration": 1.2886900895833833,
            "durationTicks": 866,
            "midi": 83,
            "name": "B5",
            "ticks": 197760,
            "time": 294.285626,
            "velocity": 0.6614173228346457
          },
          {
            "duration": 0.9657735197916963,
            "durationTicks": 649,
            "midi": 78,
            "name": "F#5",
            "ticks": 197760,
            "time": 294.285626,
            "velocity": 0.6377952755905512
          },
          {
            "duration": 1.2886900895833833,
            "durationTicks": 866,
            "midi": 43,
            "name": "G2",
            "ticks": 197760,
            "time": 294.285626,
            "velocity": 0.6692913385826772
          },
          {
            "duration": 0.3244046645833123,
            "durationTicks": 218,
            "midi": 76,
            "name": "E5",
            "ticks": 198480,
            "time": 295.35705425000003,
            "velocity": 0.7007874015748031
          },
          {
            "duration": 1.2886900895833264,
            "durationTicks": 866,
            "midi": 81,
            "name": "A5",
            "ticks": 198720,
            "time": 295.714197,
            "velocity": 0.7322834645669292
          },
          {
            "duration": 1.2886900895833264,
            "durationTicks": 866,
            "midi": 76,
            "name": "E5",
            "ticks": 198720,
            "time": 295.714197,
            "velocity": 0.7559055118110236
          },
          {
            "duration": 1.2886900895833264,
            "durationTicks": 866,
            "midi": 45,
            "name": "A2",
            "ticks": 198720,
            "time": 295.714197,
            "velocity": 0.7559055118110236
          },
          {
            "duration": 1.2886900895833833,
            "durationTicks": 866,
            "midi": 69,
            "name": "A4",
            "ticks": 199680,
            "time": 297.142768,
            "velocity": 0.6614173228346457
          },
          {
            "duration": 0.6473212343749992,
            "durationTicks": 435,
            "midi": 66,
            "name": "F#4",
            "ticks": 199680,
            "time": 297.142768,
            "velocity": 0.6929133858267716
          },
          {
            "duration": 1.2886900895833833,
            "durationTicks": 866,
            "midi": 50,
            "name": "D3",
            "ticks": 199680,
            "time": 297.142768,
            "velocity": 0.8031496062992126
          },
          {
            "duration": 1.2886900895833264,
            "durationTicks": 866,
            "midi": 66,
            "name": "F#4",
            "ticks": 200160,
            "time": 297.8570535,
            "velocity": 0.7716535433070866
          },
          {
            "duration": 1.0877972927083306,
            "durationTicks": 731,
            "midi": 69,
            "name": "A4",
            "ticks": 200640,
            "time": 298.571339,
            "velocity": 0.7637795275590551
          },
          {
            "duration": 1.2886900895833264,
            "durationTicks": 866,
            "midi": 45,
            "name": "A2",
            "ticks": 200640,
            "time": 298.571339,
            "velocity": 0.7401574803149606
          },
          {
            "duration": 0.6755950354166771,
            "durationTicks": 454,
            "midi": 64,
            "name": "E4",
            "ticks": 201120,
            "time": 299.2856245,
            "velocity": 0.7559055118110236
          },
          {
            "duration": 0.3348213281249741,
            "durationTicks": 225,
            "midi": 67,
            "name": "G4",
            "ticks": 201360,
            "time": 299.64276725,
            "velocity": 0.7480314960629921
          },
          {
            "duration": 1.2886900895833264,
            "durationTicks": 866,
            "midi": 66,
            "name": "F#4",
            "ticks": 201600,
            "time": 299.99991,
            "velocity": 0.7401574803149606
          },
          {
            "duration": 0.6473212343749992,
            "durationTicks": 435,
            "midi": 62,
            "name": "D4",
            "ticks": 201600,
            "time": 299.99991,
            "velocity": 0.7559055118110236
          },
          {
            "duration": 1.2886900895833264,
            "durationTicks": 866,
            "midi": 47,
            "name": "B2",
            "ticks": 201600,
            "time": 299.99991,
            "velocity": 0.7795275590551181
          },
          {
            "duration": 1.2886900895833264,
            "durationTicks": 866,
            "midi": 74,
            "name": "D5",
            "ticks": 202080,
            "time": 300.7141955,
            "velocity": 0.8661417322834646
          },
          {
            "duration": 1.0877972927083306,
            "durationTicks": 731,
            "midi": 78,
            "name": "F#5",
            "ticks": 202560,
            "time": 301.42848100000003,
            "velocity": 0.8740157480314961
          },
          {
            "duration": 1.2886900895833264,
            "durationTicks": 866,
            "midi": 42,
            "name": "F#2",
            "ticks": 202560,
            "time": 301.42848100000003,
            "velocity": 0.7559055118110236
          },
          {
            "duration": 0.6755950354166771,
            "durationTicks": 454,
            "midi": 72,
            "name": "C5",
            "ticks": 203040,
            "time": 302.1427665,
            "velocity": 0.7637795275590551
          },
          {
            "duration": 0.3348213281249741,
            "durationTicks": 225,
            "midi": 76,
            "name": "E5",
            "ticks": 203280,
            "time": 302.49990925000003,
            "velocity": 0.8582677165354331
          },
          {
            "duration": 1.9315470395833358,
            "durationTicks": 1298,
            "midi": 74,
            "name": "D5",
            "ticks": 203520,
            "time": 302.857052,
            "velocity": 0.7480314960629921
          },
          {
            "duration": 1.9315470395833358,
            "durationTicks": 1298,
            "midi": 71,
            "name": "B4",
            "ticks": 203520,
            "time": 302.857052,
            "velocity": 0.7559055118110236
          },
          {
            "duration": 1.2886900895833264,
            "durationTicks": 866,
            "midi": 43,
            "name": "G2",
            "ticks": 203520,
            "time": 302.857052,
            "velocity": 0.7716535433070866
          },
          {
            "duration": 1.2886900895833833,
            "durationTicks": 866,
            "midi": 38,
            "name": "D2",
            "ticks": 204480,
            "time": 304.285623,
            "velocity": 0.7480314960629921
          },
          {
            "duration": 0.6473212343749992,
            "durationTicks": 435,
            "midi": 74,
            "name": "D5",
            "ticks": 204960,
            "time": 304.9999085,
            "velocity": 0.7716535433070866
          },
          {
            "duration": 0.6473212343749992,
            "durationTicks": 435,
            "midi": 71,
            "name": "B4",
            "ticks": 204960,
            "time": 304.9999085,
            "velocity": 0.7874015748031497
          },
          {
            "duration": 1.3201213791666646,
            "durationTicks": 866,
            "midi": 74,
            "name": "D5",
            "ticks": 205440,
            "time": 305.714194,
            "velocity": 0.7795275590551181
          },
          {
            "duration": 1.3201213791666646,
            "durationTicks": 866,
            "midi": 71,
            "name": "B4",
            "ticks": 205440,
            "time": 305.714194,
            "velocity": 0.7795275590551181
          },
          {
            "duration": 1.3201213791666646,
            "durationTicks": 866,
            "midi": 43,
            "name": "G2",
            "ticks": 205440,
            "time": 305.714194,
            "velocity": 0.8110236220472441
          },
          {
            "duration": 1.3201213791666646,
            "durationTicks": 866,
            "midi": 73,
            "name": "C#5",
            "ticks": 206400,
            "time": 307.177608,
            "velocity": 0.7401574803149606
          },
          {
            "duration": 1.3201213791666646,
            "durationTicks": 866,
            "midi": 69,
            "name": "A4",
            "ticks": 206400,
            "time": 307.177608,
            "velocity": 0.7480314960629921
          },
          {
            "duration": 1.3201213791666646,
            "durationTicks": 866,
            "midi": 45,
            "name": "A2",
            "ticks": 206400,
            "time": 307.177608,
            "velocity": 0.7795275590551181
          },
          {
            "duration": 0.6796875,
            "durationTicks": 435,
            "midi": 74,
            "name": "D5",
            "ticks": 207360,
            "time": 308.641022,
            "velocity": 0.8110236220472441
          },
          {
            "duration": 1.3531249999999773,
            "durationTicks": 866,
            "midi": 69,
            "name": "A4",
            "ticks": 207360,
            "time": 308.641022,
            "velocity": 0.7637795275590551
          },
          {
            "duration": 1.3531249999999773,
            "durationTicks": 866,
            "midi": 50,
            "name": "D3",
            "ticks": 207360,
            "time": 308.641022,
            "velocity": 0.8110236220472441
          },
          {
            "duration": 0.6796875,
            "durationTicks": 435,
            "midi": 62,
            "name": "D4",
            "ticks": 207840,
            "time": 309.391022,
            "velocity": 0.6535433070866141
          },
          {
            "duration": 0.6796875,
            "durationTicks": 435,
            "midi": 61,
            "name": "C#4",
            "ticks": 208320,
            "time": 310.141022,
            "velocity": 0.7480314960629921
          },
          {
            "duration": 1.0140625000000227,
            "durationTicks": 649,
            "midi": 69,
            "name": "A4",
            "ticks": 208320,
            "time": 310.141022,
            "velocity": 0.7637795275590551
          },
          {
            "duration": 1.3531249999999773,
            "durationTicks": 866,
            "midi": 57,
            "name": "A3",
            "ticks": 208320,
            "time": 310.141022,
            "velocity": 0.7952755905511811
          },
          {
            "duration": 1.3531249999999773,
            "durationTicks": 866,
            "midi": 45,
            "name": "A2",
            "ticks": 208320,
            "time": 310.141022,
            "velocity": 0.7480314960629921
          },
          {
            "duration": 0.6796875,
            "durationTicks": 435,
            "midi": 73,
            "name": "C#5",
            "ticks": 208800,
            "time": 310.891022,
            "velocity": 0.8582677165354331
          },
          {
            "duration": 0.34062499999998863,
            "durationTicks": 218,
            "midi": 67,
            "name": "G4",
            "ticks": 209040,
            "time": 311.266022,
            "velocity": 0.7480314960629921
          },
          {
            "duration": 0.6971146875000045,
            "durationTicks": 435,
            "midi": 71,
            "name": "B4",
            "ticks": 209280,
            "time": 311.641022,
            "velocity": 0.7480314960629921
          },
          {
            "duration": 1.3878191250000214,
            "durationTicks": 866,
            "midi": 66,
            "name": "F#4",
            "ticks": 209280,
            "time": 311.641022,
            "velocity": 0.7322834645669292
          },
          {
            "duration": 1.3878191250000214,
            "durationTicks": 866,
            "midi": 54,
            "name": "F#3",
            "ticks": 209280,
            "time": 311.641022,
            "velocity": 0.7637795275590551
          },
          {
            "duration": 1.3878191250000214,
            "durationTicks": 866,
            "midi": 47,
            "name": "B2",
            "ticks": 209280,
            "time": 311.641022,
            "velocity": 0.7795275590551181
          },
          {
            "duration": 0.6971146875000045,
            "durationTicks": 435,
            "midi": 59,
            "name": "B3",
            "ticks": 209760,
            "time": 312.410252,
            "velocity": 0.7244094488188977
          },
          {
            "duration": 0.6971146875000045,
            "durationTicks": 435,
            "midi": 57,
            "name": "A3",
            "ticks": 210240,
            "time": 313.179482,
            "velocity": 0.7795275590551181
          },
          {
            "duration": 1.0471904614583423,
            "durationTicks": 649,
            "midi": 66,
            "name": "F#4",
            "ticks": 210240,
            "time": 313.179482,
            "velocity": 0.7795275590551181
          },
          {
            "duration": 1.4040982729166558,
            "durationTicks": 866,
            "midi": 54,
            "name": "F#3",
            "ticks": 210240,
            "time": 313.179482,
            "velocity": 0.7716535433070866
          },
          {
            "duration": 1.4040982729166558,
            "durationTicks": 866,
            "midi": 42,
            "name": "F#2",
            "ticks": 210240,
            "time": 313.179482,
            "velocity": 0.7716535433070866
          },
          {
            "duration": 0.7154603593750153,
            "durationTicks": 435,
            "midi": 69,
            "name": "A4",
            "ticks": 210720,
            "time": 313.948712,
            "velocity": 0.8976377952755905
          },
          {
            "duration": 0.35855254791670177,
            "durationTicks": 218,
            "midi": 64,
            "name": "E4",
            "ticks": 210960,
            "time": 314.34344875,
            "velocity": 0.7874015748031497
          },
          {
            "duration": 0.7154603593750153,
            "durationTicks": 435,
            "midi": 67,
            "name": "G4",
            "ticks": 211200,
            "time": 314.7381855,
            "velocity": 0.8031496062992126
          },
          {
            "duration": 0.7154603593750153,
            "durationTicks": 435,
            "midi": 62,
            "name": "D4",
            "ticks": 211200,
            "time": 314.7381855,
            "velocity": 0.7874015748031497
          },
          {
            "duration": 1.441500277083378,
            "durationTicks": 866,
            "midi": 50,
            "name": "D3",
            "ticks": 211200,
            "time": 314.7381855,
            "velocity": 0.7795275590551181
          },
          {
            "duration": 1.441500277083378,
            "durationTicks": 866,
            "midi": 43,
            "name": "G2",
            "ticks": 211200,
            "time": 314.7381855,
            "velocity": 0.8188976377952756
          },
          {
            "duration": 0.7347970156250199,
            "durationTicks": 435,
            "midi": 79,
            "name": "G5",
            "ticks": 211680,
            "time": 315.527659,
            "velocity": 0.905511811023622
          },
          {
            "duration": 1.462837277083338,
            "durationTicks": 866,
            "midi": 74,
            "name": "D5",
            "ticks": 211680,
            "time": 315.527659,
            "velocity": 0.9212598425196851
          },
          {
            "duration": 0.7347970156250199,
            "durationTicks": 435,
            "midi": 78,
            "name": "F#5",
            "ticks": 212160,
            "time": 316.33846950000003,
            "velocity": 0.8346456692913385
          },
          {
            "duration": 1.4809491208333156,
            "durationTicks": 866,
            "midi": 50,
            "name": "D3",
            "ticks": 212160,
            "time": 316.33846950000003,
            "velocity": 0.8346456692913385
          },
          {
            "duration": 1.4809491208333156,
            "durationTicks": 866,
            "midi": 38,
            "name": "D2",
            "ticks": 212160,
            "time": 316.33846950000003,
            "velocity": 0.8031496062992126
          },
          {
            "duration": 0.7552080312499925,
            "durationTicks": 435,
            "midi": 74,
            "name": "D5",
            "ticks": 212640,
            "time": 317.14928000000003,
            "velocity": 0.8031496062992126
          },
          {
            "duration": 0.7552080312499925,
            "durationTicks": 435,
            "midi": 66,
            "name": "F#4",
            "ticks": 212640,
            "time": 317.14928000000003,
            "velocity": 0.8031496062992126
          },
          {
            "duration": 1.522618427083387,
            "durationTicks": 866,
            "midi": 74,
            "name": "D5",
            "ticks": 213120,
            "time": 317.982613,
            "velocity": 0.8503937007874016
          },
          {
            "duration": 0.7552080312499925,
            "durationTicks": 435,
            "midi": 64,
            "name": "E4",
            "ticks": 213120,
            "time": 317.982613,
            "velocity": 0.8031496062992126
          },
          {
            "duration": 1.522618427083387,
            "durationTicks": 866,
            "midi": 52,
            "name": "E3",
            "ticks": 213120,
            "time": 317.982613,
            "velocity": 0.889763779527559
          },
          {
            "duration": 1.522618427083387,
            "durationTicks": 866,
            "midi": 55,
            "name": "G3",
            "ticks": 213120,
            "time": 317.982613,
            "velocity": 0.889763779527559
          },
          {
            "duration": 1.522618427083387,
            "durationTicks": 866,
            "midi": 43,
            "name": "G2",
            "ticks": 213120,
            "time": 317.982613,
            "velocity": 0.8976377952755905
          },
          {
            "duration": 0.7767853906249798,
            "durationTicks": 435,
            "midi": 71,
            "name": "B4",
            "ticks": 213600,
            "time": 318.81594600000005,
            "velocity": 0.9291338582677166
          },
          {
            "duration": 1.6362587500000245,
            "durationTicks": 866,
            "midi": 73,
            "name": "C#5",
            "ticks": 214080,
            "time": 319.67308850000006,
            "velocity": 0.8503937007874016
          },
          {
            "duration": 0.7996319531250151,
            "durationTicks": 435,
            "midi": 64,
            "name": "E4",
            "ticks": 214080,
            "time": 319.67308850000006,
            "velocity": 0.8031496062992126
          },
          {
            "duration": 1.6362587500000245,
            "durationTicks": 866,
            "midi": 52,
            "name": "E3",
            "ticks": 214080,
            "time": 319.67308850000006,
            "velocity": 0.8740157480314961
          },
          {
            "duration": 1.6362587500000245,
            "durationTicks": 866,
            "midi": 55,
            "name": "G3",
            "ticks": 214080,
            "time": 319.67308850000006,
            "velocity": 0.8740157480314961
          },
          {
            "duration": 1.6362587500000245,
            "durationTicks": 866,
            "midi": 45,
            "name": "A2",
            "ticks": 214080,
            "time": 319.67308850000006,
            "velocity": 0.889763779527559
          },
          {
            "duration": 0.849609375,
            "durationTicks": 435,
            "midi": 76,
            "name": "E5",
            "ticks": 214560,
            "time": 320.5554410000001,
            "velocity": 1
          },
          {
            "duration": 3.0069441437499904,
            "durationTicks": 866,
            "midi": 74,
            "name": "D5",
            "ticks": 215040,
            "time": 321.4929410000001,
            "velocity": 0.9448818897637795
          },
          {
            "duration": 3.0069441437499904,
            "durationTicks": 866,
            "midi": 78,
            "name": "F#5",
            "ticks": 215040,
            "time": 321.4929410000001,
            "velocity": 0.9448818897637795
          },
          {
            "duration": 3.0069441437499904,
            "durationTicks": 866,
            "midi": 66,
            "name": "F#4",
            "ticks": 215040,
            "time": 321.4929410000001,
            "velocity": 0.7952755905511811
          },
          {
            "duration": 3.0069441437499904,
            "durationTicks": 866,
            "midi": 50,
            "name": "D3",
            "ticks": 215040,
            "time": 321.4929410000001,
            "velocity": 0.84251968503937
          },
          {
            "duration": 3.0069441437499904,
            "durationTicks": 866,
            "midi": 38,
            "name": "D2",
            "ticks": 215040,
            "time": 321.4929410000001,
            "velocity": 0.8582677165354331
          }
        ],
        "endOfTrackTicks": 215907
      }
    ]
  }