{
  "header": {
    "keySignatures": [],
    "meta": [],
    "name": "",
    "ppq": 384,
    "tempos": [
      {
        "bpm": 200,
        "ticks": 0
      }
    ],
    "timeSignatures": [
      {
        "ticks": 0,
        "timeSignature": [
          4,
          4
        ],
        "measures": 0
      }
    ]
  },
  "tracks": [
    {
      "channel": 0,
      "controlChanges": {
        "7": [
          {
            "number": 7,
            "ticks": 1536,
            "time": 1.2,
            "value": 0.6299212598425197
          },
          {
            "number": 7,
            "ticks": 1536,
            "time": 1.2,
            "value": 0.6299212598425197
          }
        ]
      },
      "pitchBends": [],
      "instrument": {
        "family": "bass",
        "number": 35,
        "name": "fretless bass"
      },
      "name": "FRETLESS",
      "notes": [
        {
          "duration": 0.6031250000000001,
          "durationTicks": 772,
          "midi": 34,
          "name": "A#1",
          "ticks": 1544,
          "time": 1.2062499999999998,
          "velocity": 0.7874015748031497
        },
        {
          "duration": 0.2999999999999998,
          "durationTicks": 384,
          "midi": 29,
          "name": "F1",
          "ticks": 4196,
          "time": 3.278125,
          "velocity": 0.7874015748031497
        },
        {
          "duration": 0.3656250000000001,
          "durationTicks": 468,
          "midi": 34,
          "name": "A#1",
          "ticks": 4580,
          "time": 3.578125,
          "velocity": 0.7874015748031497
        },
        {
          "duration": 0.3406249999999993,
          "durationTicks": 436,
          "midi": 34,
          "name": "A#1",
          "ticks": 7672,
          "time": 5.99375,
          "velocity": 0.7874015748031497
        },
        {
          "duration": 0.2921875000000007,
          "durationTicks": 374,
          "midi": 29,
          "name": "F1",
          "ticks": 10328,
          "time": 8.06875,
          "velocity": 0.7874015748031497
        },
        {
          "duration": 0.2859374999999993,
          "durationTicks": 366,
          "midi": 34,
          "name": "A#1",
          "ticks": 10706,
          "time": 8.3640625,
          "velocity": 0.7874015748031497
        },
        {
          "duration": 0.21875000000000178,
          "durationTicks": 280,
          "midi": 41,
          "name": "F2",
          "ticks": 12664,
          "time": 9.893749999999999,
          "velocity": 0.7874015748031497
        },
        {
          "duration": 0.21250000000000036,
          "durationTicks": 272,
          "midi": 46,
          "name": "A#2",
          "ticks": 13416,
          "time": 10.48125,
          "velocity": 0.7874015748031497
        },
        {
          "duration": 0.020312500000001066,
          "durationTicks": 26,
          "midi": 34,
          "name": "A#1",
          "ticks": 13800,
          "time": 10.78125,
          "velocity": 0.7874015748031497
        },
        {
          "duration": 0.15625000000000178,
          "durationTicks": 200,
          "midi": 38,
          "name": "D2",
          "ticks": 14364,
          "time": 11.221874999999999,
          "velocity": 0.7874015748031497
        },
        {
          "duration": 0.15468750000000142,
          "durationTicks": 198,
          "midi": 41,
          "name": "F2",
          "ticks": 14558,
          "time": 11.3734375,
          "velocity": 0.7874015748031497
        },
        {
          "duration": 0.19531250000000178,
          "durationTicks": 250,
          "midi": 41,
          "name": "F2",
          "ticks": 14914,
          "time": 11.651562499999999,
          "velocity": 0.7874015748031497
        },
        {
          "duration": 0.22500000000000142,
          "durationTicks": 288,
          "midi": 29,
          "name": "F1",
          "ticks": 15668,
          "time": 12.240625,
          "velocity": 0.7874015748031497
        },
        {
          "duration": 0.19374999999999964,
          "durationTicks": 248,
          "midi": 34,
          "name": "A#1",
          "ticks": 16456,
          "time": 12.85625,
          "velocity": 0.7874015748031497
        },
        {
          "duration": 0.3718749999999993,
          "durationTicks": 476,
          "midi": 34,
          "name": "A#1",
          "ticks": 16832,
          "time": 13.15,
          "velocity": 0.7874015748031497
        },
        {
          "duration": 0.2734375,
          "durationTicks": 350,
          "midi": 38,
          "name": "D2",
          "ticks": 17438,
          "time": 13.6234375,
          "velocity": 0.7874015748031497
        },
        {
          "duration": 0.203125,
          "durationTicks": 260,
          "midi": 41,
          "name": "F2",
          "ticks": 18008,
          "time": 14.06875,
          "velocity": 0.7874015748031497
        },
        {
          "duration": 0.19062499999999893,
          "durationTicks": 244,
          "midi": 41,
          "name": "F2",
          "ticks": 18756,
          "time": 14.653125,
          "velocity": 0.7874015748031497
        },
        {
          "duration": 0.18906250000000036,
          "durationTicks": 242,
          "midi": 46,
          "name": "A#2",
          "ticks": 19540,
          "time": 15.265624999999998,
          "velocity": 0.7874015748031497
        },
        {
          "duration": 0.421875,
          "durationTicks": 540,
          "midi": 34,
          "name": "A#1",
          "ticks": 19920,
          "time": 15.5625,
          "velocity": 0.7874015748031497
        },
        {
          "duration": 0.21250000000000213,
          "durationTicks": 272,
          "midi": 38,
          "name": "D2",
          "ticks": 20532,
          "time": 16.040625,
          "velocity": 0.7874015748031497
        },
        {
          "duration": 0.18593750000000142,
          "durationTicks": 238,
          "midi": 41,
          "name": "F2",
          "ticks": 20928,
          "time": 16.349999999999998,
          "velocity": 0.7874015748031497
        },
        {
          "duration": 0.17031250000000142,
          "durationTicks": 218,
          "midi": 29,
          "name": "F1",
          "ticks": 21454,
          "time": 16.760937499999997,
          "velocity": 0.7874015748031497
        },
        {
          "duration": 0.20156249999999787,
          "durationTicks": 258,
          "midi": 29,
          "name": "F1",
          "ticks": 21840,
          "time": 17.0625,
          "velocity": 0.7874015748031497
        },
        {
          "duration": 0.17031250000000142,
          "durationTicks": 218,
          "midi": 34,
          "name": "A#1",
          "ticks": 22246,
          "time": 17.3796875,
          "velocity": 0.7874015748031497
        },
        {
          "duration": 0.1687499999999993,
          "durationTicks": 216,
          "midi": 34,
          "name": "A#1",
          "ticks": 22612,
          "time": 17.665625,
          "velocity": 0.7874015748031497
        },
        {
          "duration": 0.3515625,
          "durationTicks": 450,
          "midi": 34,
          "name": "A#1",
          "ticks": 22988,
          "time": 17.959375,
          "velocity": 0.7874015748031497
        },
        {
          "duration": 0.3265625000000014,
          "durationTicks": 418,
          "midi": 38,
          "name": "D2",
          "ticks": 23592,
          "time": 18.43125,
          "velocity": 0.7874015748031497
        },
        {
          "duration": 0.2156249999999993,
          "durationTicks": 276,
          "midi": 41,
          "name": "F2",
          "ticks": 24148,
          "time": 18.865624999999998,
          "velocity": 0.7874015748031497
        },
        {
          "duration": 0.24062500000000142,
          "durationTicks": 308,
          "midi": 41,
          "name": "F2",
          "ticks": 24886,
          "time": 19.4421875,
          "velocity": 0.7874015748031497
        },
        {
          "duration": 0.21718749999999787,
          "durationTicks": 278,
          "midi": 46,
          "name": "A#2",
          "ticks": 25644,
          "time": 20.034375,
          "velocity": 0.7874015748031497
        },
        {
          "duration": 0.41406249999999645,
          "durationTicks": 530,
          "midi": 39,
          "name": "D#2",
          "ticks": 26064,
          "time": 20.3625,
          "velocity": 0.7874015748031497
        },
        {
          "duration": 0.36249999999999716,
          "durationTicks": 464,
          "midi": 43,
          "name": "G2",
          "ticks": 26668,
          "time": 20.834375,
          "velocity": 0.7874015748031497
        },
        {
          "duration": 0.22187499999999716,
          "durationTicks": 284,
          "midi": 46,
          "name": "A#2",
          "ticks": 27216,
          "time": 21.2625,
          "velocity": 0.7874015748031497
        },
        {
          "duration": 0.20156249999999787,
          "durationTicks": 258,
          "midi": 46,
          "name": "A#2",
          "ticks": 27992,
          "time": 21.86875,
          "velocity": 0.7874015748031497
        },
        {
          "duration": 0.15781250000000213,
          "durationTicks": 202,
          "midi": 46,
          "name": "A#2",
          "ticks": 28752,
          "time": 22.4625,
          "velocity": 0.7874015748031497
        },
        {
          "duration": 0.4312499999999986,
          "durationTicks": 552,
          "midi": 29,
          "name": "F1",
          "ticks": 29128,
          "time": 22.75625,
          "velocity": 0.7874015748031497
        },
        {
          "duration": 0.375,
          "durationTicks": 480,
          "midi": 33,
          "name": "A1",
          "ticks": 29752,
          "time": 23.243750000000002,
          "velocity": 0.7874015748031497
        },
        {
          "duration": 0.1984375000000007,
          "durationTicks": 254,
          "midi": 36,
          "name": "C2",
          "ticks": 30286,
          "time": 23.6609375,
          "velocity": 0.7874015748031497
        },
        {
          "duration": 0.22500000000000142,
          "durationTicks": 288,
          "midi": 46,
          "name": "A#2",
          "ticks": 31056,
          "time": 24.2625,
          "velocity": 0.7874015748031497
        },
        {
          "duration": 0.2624999999999993,
          "durationTicks": 336,
          "midi": 41,
          "name": "F2",
          "ticks": 31780,
          "time": 24.828125,
          "velocity": 0.7874015748031497
        },
        {
          "duration": 0.46406249999999716,
          "durationTicks": 594,
          "midi": 39,
          "name": "D#2",
          "ticks": 32216,
          "time": 25.16875,
          "velocity": 0.7874015748031497
        },
        {
          "duration": 0.3000000000000007,
          "durationTicks": 384,
          "midi": 43,
          "name": "G2",
          "ticks": 32832,
          "time": 25.65,
          "velocity": 0.7874015748031497
        },
        {
          "duration": 0.21718750000000142,
          "durationTicks": 278,
          "midi": 46,
          "name": "A#2",
          "ticks": 33362,
          "time": 26.0640625,
          "velocity": 0.7874015748031497
        },
        {
          "duration": 0.17812499999999787,
          "durationTicks": 228,
          "midi": 46,
          "name": "A#2",
          "ticks": 34140,
          "time": 26.671875,
          "velocity": 0.7874015748031497
        },
        {
          "duration": 0.1437500000000007,
          "durationTicks": 184,
          "midi": 41,
          "name": "F2",
          "ticks": 34904,
          "time": 27.268749999999997,
          "velocity": 0.7874015748031497
        },
        {
          "duration": 0.28281250000000213,
          "durationTicks": 362,
          "midi": 41,
          "name": "F2",
          "ticks": 35294,
          "time": 27.573437499999997,
          "velocity": 0.7874015748031497
        },
        {
          "duration": 0.6843749999999993,
          "durationTicks": 876,
          "midi": 41,
          "name": "F2",
          "ticks": 35880,
          "time": 28.03125,
          "velocity": 0.7874015748031497
        },
        {
          "duration": 0.24062499999999787,
          "durationTicks": 308,
          "midi": 34,
          "name": "A#1",
          "ticks": 36828,
          "time": 28.771874999999998,
          "velocity": 0.7874015748031497
        },
        {
          "duration": 0.3000000000000007,
          "durationTicks": 384,
          "midi": 38,
          "name": "D2",
          "ticks": 38016,
          "time": 29.7,
          "velocity": 0.7874015748031497
        },
        {
          "duration": 0.29999999999999716,
          "durationTicks": 384,
          "midi": 34,
          "name": "A#1",
          "ticks": 38400,
          "time": 30,
          "velocity": 0.7874015748031497
        },
        {
          "duration": 0.1296874999999993,
          "durationTicks": 166,
          "midi": 34,
          "name": "A#1",
          "ticks": 39150,
          "time": 30.5859375,
          "velocity": 0.7874015748031497
        },
        {
          "duration": 0.11874999999999858,
          "durationTicks": 152,
          "midi": 34,
          "name": "A#1",
          "ticks": 39388,
          "time": 30.771875,
          "velocity": 0.7874015748031497
        },
        {
          "duration": 0.14687499999999787,
          "durationTicks": 188,
          "midi": 34,
          "name": "A#1",
          "ticks": 39724,
          "time": 31.034375,
          "velocity": 0.7874015748031497
        },
        {
          "duration": 0.4187499999999993,
          "durationTicks": 536,
          "midi": 39,
          "name": "D#2",
          "ticks": 39912,
          "time": 31.18125,
          "velocity": 0.7874015748031497
        },
        {
          "duration": 0.4109374999999993,
          "durationTicks": 526,
          "midi": 43,
          "name": "G2",
          "ticks": 40506,
          "time": 31.6453125,
          "velocity": 0.7874015748031497
        },
        {
          "duration": 0.24531249999999716,
          "durationTicks": 314,
          "midi": 46,
          "name": "A#2",
          "ticks": 41060,
          "time": 32.078125,
          "velocity": 0.7874015748031497
        },
        {
          "duration": 0.078125,
          "durationTicks": 100,
          "midi": 34,
          "name": "A#1",
          "ticks": 41800,
          "time": 32.65625,
          "velocity": 0.7874015748031497
        },
        {
          "duration": 0.16562499999999858,
          "durationTicks": 212,
          "midi": 34,
          "name": "A#1",
          "ticks": 42002,
          "time": 32.8140625,
          "velocity": 0.7874015748031497
        },
        {
          "duration": 0.28593750000000284,
          "durationTicks": 366,
          "midi": 38,
          "name": "D2",
          "ticks": 42214,
          "time": 32.9796875,
          "velocity": 0.7874015748031497
        },
        {
          "duration": 0.28593750000000284,
          "durationTicks": 366,
          "midi": 41,
          "name": "F2",
          "ticks": 42580,
          "time": 33.265625,
          "velocity": 0.7874015748031497
        },
        {
          "duration": 0.4671875000000014,
          "durationTicks": 598,
          "midi": 29,
          "name": "F1",
          "ticks": 42960,
          "time": 33.5625,
          "velocity": 0.7874015748031497
        },
        {
          "duration": 0.4281250000000014,
          "durationTicks": 548,
          "midi": 33,
          "name": "A1",
          "ticks": 43572,
          "time": 34.040625,
          "velocity": 0.7874015748031497
        },
        {
          "duration": 0.13906250000000142,
          "durationTicks": 178,
          "midi": 36,
          "name": "C2",
          "ticks": 44120,
          "time": 34.46875,
          "velocity": 0.7874015748031497
        },
        {
          "duration": 0.078125,
          "durationTicks": 100,
          "midi": 46,
          "name": "A#2",
          "ticks": 44516,
          "time": 34.778124999999996,
          "velocity": 0.7874015748031497
        },
        {
          "duration": 0.07187500000000568,
          "durationTicks": 92,
          "midi": 46,
          "name": "A#2",
          "ticks": 44708,
          "time": 34.928124999999994,
          "velocity": 0.7874015748031497
        },
        {
          "duration": 0.05781249999999716,
          "durationTicks": 74,
          "midi": 46,
          "name": "A#2",
          "ticks": 44898,
          "time": 35.0765625,
          "velocity": 0.7874015748031497
        },
        {
          "duration": 0.125,
          "durationTicks": 160,
          "midi": 46,
          "name": "A#2",
          "ticks": 45064,
          "time": 35.20625,
          "velocity": 0.7874015748031497
        },
        {
          "duration": 0.24531250000000426,
          "durationTicks": 314,
          "midi": 43,
          "name": "G2",
          "ticks": 45362,
          "time": 35.4390625,
          "velocity": 0.7874015748031497
        },
        {
          "duration": 0.2968749999999929,
          "durationTicks": 380,
          "midi": 41,
          "name": "F2",
          "ticks": 45676,
          "time": 35.684375,
          "velocity": 0.7874015748031497
        },
        {
          "duration": 0.38750000000000284,
          "durationTicks": 496,
          "midi": 39,
          "name": "D#2",
          "ticks": 46056,
          "time": 35.981249999999996,
          "velocity": 0.7874015748031497
        },
        {
          "duration": 0.359375,
          "durationTicks": 460,
          "midi": 43,
          "name": "G2",
          "ticks": 46664,
          "time": 36.45625,
          "velocity": 0.7874015748031497
        },
        {
          "duration": 0.19687499999999858,
          "durationTicks": 252,
          "midi": 46,
          "name": "A#2",
          "ticks": 47200,
          "time": 36.875,
          "velocity": 0.7874015748031497
        },
        {
          "duration": 0.06875000000000142,
          "durationTicks": 88,
          "midi": 29,
          "name": "F1",
          "ticks": 47966,
          "time": 37.473437499999996,
          "velocity": 0.7874015748031497
        },
        {
          "duration": 0.15781249999999858,
          "durationTicks": 202,
          "midi": 29,
          "name": "F1",
          "ticks": 48152,
          "time": 37.61875,
          "velocity": 0.7874015748031497
        },
        {
          "duration": 0.2953125000000014,
          "durationTicks": 378,
          "midi": 33,
          "name": "A1",
          "ticks": 48354,
          "time": 37.7765625,
          "velocity": 0.7874015748031497
        },
        {
          "duration": 0.27031250000000284,
          "durationTicks": 346,
          "midi": 36,
          "name": "C2",
          "ticks": 48732,
          "time": 38.071875,
          "velocity": 0.7874015748031497
        },
        {
          "duration": 0.3609375000000057,
          "durationTicks": 462,
          "midi": 34,
          "name": "A#1",
          "ticks": 49112,
          "time": 38.36875,
          "velocity": 0.7874015748031497
        },
        {
          "duration": 0.21718750000000142,
          "durationTicks": 278,
          "midi": 38,
          "name": "D2",
          "ticks": 49704,
          "time": 38.83125,
          "velocity": 0.7874015748031497
        },
        {
          "duration": 0.18437500000000284,
          "durationTicks": 236,
          "midi": 41,
          "name": "F2",
          "ticks": 50280,
          "time": 39.28125,
          "velocity": 0.7874015748031497
        },
        {
          "duration": 0.07187499999999858,
          "durationTicks": 92,
          "midi": 46,
          "name": "A#2",
          "ticks": 50872,
          "time": 39.74375,
          "velocity": 0.7874015748031497
        },
        {
          "duration": 0.06562499999999716,
          "durationTicks": 84,
          "midi": 46,
          "name": "A#2",
          "ticks": 51052,
          "time": 39.884375,
          "velocity": 0.7874015748031497
        },
        {
          "duration": 0.10624999999999574,
          "durationTicks": 136,
          "midi": 46,
          "name": "A#2",
          "ticks": 51240,
          "time": 40.03125,
          "velocity": 0.7874015748031497
        },
        {
          "duration": 0.28125,
          "durationTicks": 360,
          "midi": 43,
          "name": "G2",
          "ticks": 51420,
          "time": 40.171875,
          "velocity": 0.7874015748031497
        },
        {
          "duration": 0.2421874999999929,
          "durationTicks": 310,
          "midi": 41,
          "name": "F2",
          "ticks": 51780,
          "time": 40.453125,
          "velocity": 0.7874015748031497
        },
        {
          "duration": 0.36250000000000426,
          "durationTicks": 464,
          "midi": 39,
          "name": "D#2",
          "ticks": 52180,
          "time": 40.76562499999999,
          "velocity": 0.7874015748031497
        },
        {
          "duration": 0.3843749999999986,
          "durationTicks": 492,
          "midi": 43,
          "name": "G2",
          "ticks": 52764,
          "time": 41.221875,
          "velocity": 0.7874015748031497
        },
        {
          "duration": 0.18281250000000426,
          "durationTicks": 234,
          "midi": 46,
          "name": "A#2",
          "ticks": 53338,
          "time": 41.670312499999994,
          "velocity": 0.7874015748031497
        },
        {
          "duration": 0.06562499999999716,
          "durationTicks": 84,
          "midi": 29,
          "name": "F1",
          "ticks": 54108,
          "time": 42.271875,
          "velocity": 0.7874015748031497
        },
        {
          "duration": 0.15156250000000426,
          "durationTicks": 194,
          "midi": 29,
          "name": "F1",
          "ticks": 54286,
          "time": 42.410937499999996,
          "velocity": 0.7874015748031497
        },
        {
          "duration": 0.2953125000000014,
          "durationTicks": 378,
          "midi": 33,
          "name": "A1",
          "ticks": 54478,
          "time": 42.560937499999994,
          "velocity": 0.7874015748031497
        },
        {
          "duration": 0.234375,
          "durationTicks": 300,
          "midi": 36,
          "name": "C2",
          "ticks": 54868,
          "time": 42.865624999999994,
          "velocity": 0.7874015748031497
        },
        {
          "duration": 0.3999999999999986,
          "durationTicks": 512,
          "midi": 31,
          "name": "G1",
          "ticks": 55252,
          "time": 43.165625,
          "velocity": 0.7874015748031497
        },
        {
          "duration": 0.41718750000000426,
          "durationTicks": 534,
          "midi": 34,
          "name": "A#1",
          "ticks": 55850,
          "time": 43.6328125,
          "velocity": 0.7874015748031497
        },
        {
          "duration": 0.19843749999999005,
          "durationTicks": 254,
          "midi": 38,
          "name": "D2",
          "ticks": 56414,
          "time": 44.073437500000004,
          "velocity": 0.7874015748031497
        },
        {
          "duration": 0.06718750000000284,
          "durationTicks": 86,
          "midi": 36,
          "name": "C2",
          "ticks": 57004,
          "time": 44.534375,
          "velocity": 0.7874015748031497
        },
        {
          "duration": 0.06406249999999858,
          "durationTicks": 82,
          "midi": 36,
          "name": "C2",
          "ticks": 57182,
          "time": 44.6734375,
          "velocity": 0.7874015748031497
        },
        {
          "duration": 0.10625000000000284,
          "durationTicks": 136,
          "midi": 36,
          "name": "C2",
          "ticks": 57352,
          "time": 44.80625,
          "velocity": 0.7874015748031497
        },
        {
          "duration": 0.07500000000000284,
          "durationTicks": 96,
          "midi": 39,
          "name": "D#2",
          "ticks": 57516,
          "time": 44.934374999999996,
          "velocity": 0.7874015748031497
        },
        {
          "duration": 0.25,
          "durationTicks": 320,
          "midi": 40,
          "name": "E2",
          "ticks": 57612,
          "time": 45.009375,
          "velocity": 0.7874015748031497
        },
        {
          "duration": 0.2874999999999943,
          "durationTicks": 368,
          "midi": 43,
          "name": "G2",
          "ticks": 57932,
          "time": 45.259375,
          "velocity": 0.7874015748031497
        },
        {
          "duration": 0.3890625000000014,
          "durationTicks": 498,
          "midi": 39,
          "name": "D#2",
          "ticks": 58354,
          "time": 45.5890625,
          "velocity": 0.7874015748031497
        },
        {
          "duration": 0.34687500000000426,
          "durationTicks": 444,
          "midi": 43,
          "name": "G2",
          "ticks": 58944,
          "time": 46.05,
          "velocity": 0.7874015748031497
        },
        {
          "duration": 0.11406249999998863,
          "durationTicks": 146,
          "midi": 46,
          "name": "A#2",
          "ticks": 59504,
          "time": 46.487500000000004,
          "velocity": 0.7874015748031497
        },
        {
          "duration": 0.13125000000000142,
          "durationTicks": 168,
          "midi": 41,
          "name": "F2",
          "ticks": 59896,
          "time": 46.793749999999996,
          "velocity": 0.7874015748031497
        },
        {
          "duration": 0.08437500000000142,
          "durationTicks": 108,
          "midi": 29,
          "name": "F1",
          "ticks": 60092,
          "time": 46.946875,
          "velocity": 0.7874015748031497
        },
        {
          "duration": 0.08906250000000426,
          "durationTicks": 114,
          "midi": 29,
          "name": "F1",
          "ticks": 60268,
          "time": 47.084374999999994,
          "velocity": 0.7874015748031497
        },
        {
          "duration": 0.140625,
          "durationTicks": 180,
          "midi": 29,
          "name": "F1",
          "ticks": 60464,
          "time": 47.237500000000004,
          "velocity": 0.7874015748031497
        },
        {
          "duration": 0.2953124999999943,
          "durationTicks": 378,
          "midi": 33,
          "name": "A1",
          "ticks": 60644,
          "time": 47.378125000000004,
          "velocity": 0.7874015748031497
        },
        {
          "duration": 0.2953125000000014,
          "durationTicks": 378,
          "midi": 36,
          "name": "C2",
          "ticks": 61028,
          "time": 47.678125,
          "velocity": 0.7874015748031497
        },
        {
          "duration": 0.2734374999999929,
          "durationTicks": 350,
          "midi": 34,
          "name": "A#1",
          "ticks": 61406,
          "time": 47.9734375,
          "velocity": 0.7874015748031497
        },
        {
          "duration": 0.29218749999999716,
          "durationTicks": 374,
          "midi": 34,
          "name": "A#1",
          "ticks": 64102,
          "time": 50.0796875,
          "velocity": 0.7874015748031497
        },
        {
          "duration": 0.22968749999999716,
          "durationTicks": 294,
          "midi": 29,
          "name": "F1",
          "ticks": 66398,
          "time": 51.8734375,
          "velocity": 0.7874015748031497
        },
        {
          "duration": 0.19687499999999858,
          "durationTicks": 252,
          "midi": 34,
          "name": "A#1",
          "ticks": 67184,
          "time": 52.487500000000004,
          "velocity": 0.7874015748031497
        },
        {
          "duration": 0.3984375,
          "durationTicks": 510,
          "midi": 34,
          "name": "A#1",
          "ticks": 67542,
          "time": 52.7671875,
          "velocity": 0.7874015748031497
        },
        {
          "duration": 0.15312500000000284,
          "durationTicks": 196,
          "midi": 38,
          "name": "D2",
          "ticks": 68136,
          "time": 53.231249999999996,
          "velocity": 0.7874015748031497
        },
        {
          "duration": 0.15468750000000142,
          "durationTicks": 198,
          "midi": 41,
          "name": "F2",
          "ticks": 68334,
          "time": 53.3859375,
          "velocity": 0.7874015748031497
        },
        {
          "duration": 0.2031249999999929,
          "durationTicks": 260,
          "midi": 41,
          "name": "F2",
          "ticks": 68696,
          "time": 53.66875,
          "velocity": 0.7874015748031497
        },
        {
          "duration": 0.2656250000000071,
          "durationTicks": 340,
          "midi": 29,
          "name": "F1",
          "ticks": 69448,
          "time": 54.256249999999994,
          "velocity": 0.7874015748031497
        },
        {
          "duration": 0.18437500000000284,
          "durationTicks": 236,
          "midi": 34,
          "name": "A#1",
          "ticks": 70216,
          "time": 54.856249999999996,
          "velocity": 0.7874015748031497
        },
        {
          "duration": 0.375,
          "durationTicks": 480,
          "midi": 34,
          "name": "A#1",
          "ticks": 70608,
          "time": 55.1625,
          "velocity": 0.7874015748031497
        },
        {
          "duration": 0.34375,
          "durationTicks": 440,
          "midi": 38,
          "name": "D2",
          "ticks": 71220,
          "time": 55.640625,
          "velocity": 0.7874015748031497
        },
        {
          "duration": 0.19218749999999574,
          "durationTicks": 246,
          "midi": 41,
          "name": "F2",
          "ticks": 71764,
          "time": 56.065625,
          "velocity": 0.7874015748031497
        },
        {
          "duration": 0.22031249999999858,
          "durationTicks": 282,
          "midi": 41,
          "name": "F2",
          "ticks": 72528,
          "time": 56.6625,
          "velocity": 0.7874015748031497
        },
        {
          "duration": 0.17499999999999005,
          "durationTicks": 224,
          "midi": 46,
          "name": "A#2",
          "ticks": 73304,
          "time": 57.268750000000004,
          "velocity": 0.7874015748031497
        },
        {
          "duration": 0.3499999999999943,
          "durationTicks": 448,
          "midi": 34,
          "name": "A#1",
          "ticks": 73704,
          "time": 57.58125,
          "velocity": 0.7874015748031497
        },
        {
          "duration": 0.3531249999999986,
          "durationTicks": 452,
          "midi": 38,
          "name": "D2",
          "ticks": 74284,
          "time": 58.034375,
          "velocity": 0.7874015748031497
        },
        {
          "duration": 0.23906250000000284,
          "durationTicks": 306,
          "midi": 41,
          "name": "F2",
          "ticks": 74814,
          "time": 58.4484375,
          "velocity": 0.7874015748031497
        },
        {
          "duration": 0.18906249999999858,
          "durationTicks": 242,
          "midi": 29,
          "name": "F1",
          "ticks": 75210,
          "time": 58.7578125,
          "velocity": 0.7874015748031497
        },
        {
          "duration": 0.27812499999998863,
          "durationTicks": 356,
          "midi": 29,
          "name": "F1",
          "ticks": 75596,
          "time": 59.059375,
          "velocity": 0.7874015748031497
        },
        {
          "duration": 0.17656249999999574,
          "durationTicks": 226,
          "midi": 34,
          "name": "A#1",
          "ticks": 75990,
          "time": 59.3671875,
          "velocity": 0.7874015748031497
        },
        {
          "duration": 0.19687499999999858,
          "durationTicks": 252,
          "midi": 34,
          "name": "A#1",
          "ticks": 76376,
          "time": 59.66875,
          "velocity": 0.7874015748031497
        },
        {
          "duration": 0.3421875000000014,
          "durationTicks": 438,
          "midi": 34,
          "name": "A#1",
          "ticks": 76776,
          "time": 59.981249999999996,
          "velocity": 0.7874015748031497
        },
        {
          "duration": 0.3578125000000014,
          "durationTicks": 458,
          "midi": 38,
          "name": "D2",
          "ticks": 77374,
          "time": 60.4484375,
          "velocity": 0.7874015748031497
        },
        {
          "duration": 0.17031250000000142,
          "durationTicks": 218,
          "midi": 41,
          "name": "F2",
          "ticks": 77908,
          "time": 60.865624999999994,
          "velocity": 0.7874015748031497
        },
        {
          "duration": 0.2828125000000057,
          "durationTicks": 362,
          "midi": 41,
          "name": "F2",
          "ticks": 78678,
          "time": 61.467187499999994,
          "velocity": 0.7874015748031497
        },
        {
          "duration": 0.21875,
          "durationTicks": 280,
          "midi": 46,
          "name": "A#2",
          "ticks": 79472,
          "time": 62.0875,
          "velocity": 0.7874015748031497
        },
        {
          "duration": 0.42499999999999716,
          "durationTicks": 544,
          "midi": 39,
          "name": "D#2",
          "ticks": 79844,
          "time": 62.378125,
          "velocity": 0.7874015748031497
        },
        {
          "duration": 0.3734375000000014,
          "durationTicks": 478,
          "midi": 43,
          "name": "G2",
          "ticks": 80446,
          "time": 62.848437499999996,
          "velocity": 0.7874015748031497
        },
        {
          "duration": 0.25,
          "durationTicks": 320,
          "midi": 46,
          "name": "A#2",
          "ticks": 80964,
          "time": 63.253125,
          "velocity": 0.7874015748031497
        },
        {
          "duration": 0.20937500000000142,
          "durationTicks": 268,
          "midi": 46,
          "name": "A#2",
          "ticks": 81760,
          "time": 63.87499999999999,
          "velocity": 0.7874015748031497
        },
        {
          "duration": 0.24531250000001137,
          "durationTicks": 314,
          "midi": 41,
          "name": "F2",
          "ticks": 82518,
          "time": 64.4671875,
          "velocity": 0.7874015748031497
        },
        {
          "duration": 0.3890624999999943,
          "durationTicks": 498,
          "midi": 29,
          "name": "F1",
          "ticks": 82896,
          "time": 64.7625,
          "velocity": 0.7874015748031497
        },
        {
          "duration": 0.4234375000000057,
          "durationTicks": 542,
          "midi": 33,
          "name": "A1",
          "ticks": 83494,
          "time": 65.2296875,
          "velocity": 0.7874015748031497
        },
        {
          "duration": 0.20781249999998863,
          "durationTicks": 266,
          "midi": 36,
          "name": "C2",
          "ticks": 84062,
          "time": 65.6734375,
          "velocity": 0.7874015748031497
        },
        {
          "duration": 0.20625000000001137,
          "durationTicks": 264,
          "midi": 46,
          "name": "A#2",
          "ticks": 84848,
          "time": 66.2875,
          "velocity": 0.7874015748031497
        },
        {
          "duration": 0.2562500000000085,
          "durationTicks": 328,
          "midi": 41,
          "name": "F2",
          "ticks": 85588,
          "time": 66.865625,
          "velocity": 0.7874015748031497
        },
        {
          "duration": 0.390625,
          "durationTicks": 500,
          "midi": 39,
          "name": "D#2",
          "ticks": 85984,
          "time": 67.175,
          "velocity": 0.7874015748031497
        },
        {
          "duration": 0.375,
          "durationTicks": 480,
          "midi": 43,
          "name": "G2",
          "ticks": 86568,
          "time": 67.63125,
          "velocity": 0.7874015748031497
        },
        {
          "duration": 0.21718750000000853,
          "durationTicks": 278,
          "midi": 46,
          "name": "A#2",
          "ticks": 87102,
          "time": 68.04843749999999,
          "velocity": 0.7874015748031497
        },
        {
          "duration": 0.16718749999999716,
          "durationTicks": 214,
          "midi": 46,
          "name": "A#2",
          "ticks": 87910,
          "time": 68.6796875,
          "velocity": 0.7874015748031497
        },
        {
          "duration": 0.18593749999999432,
          "durationTicks": 238,
          "midi": 41,
          "name": "F2",
          "ticks": 88652,
          "time": 69.259375,
          "velocity": 0.7874015748031497
        },
        {
          "duration": 0.46406249999999716,
          "durationTicks": 594,
          "midi": 29,
          "name": "F1",
          "ticks": 89030,
          "time": 69.5546875,
          "velocity": 0.7874015748031497
        },
        {
          "duration": 0.41718749999999716,
          "durationTicks": 534,
          "midi": 33,
          "name": "A1",
          "ticks": 89624,
          "time": 70.01875,
          "velocity": 0.7874015748031497
        },
        {
          "duration": 0.25468750000000284,
          "durationTicks": 326,
          "midi": 36,
          "name": "C2",
          "ticks": 90158,
          "time": 70.4359375,
          "velocity": 0.7874015748031497
        },
        {
          "duration": 0.2265625,
          "durationTicks": 290,
          "midi": 34,
          "name": "A#1",
          "ticks": 90960,
          "time": 71.0625,
          "velocity": 0.7874015748031497
        },
        {
          "duration": 0.265625,
          "durationTicks": 340,
          "midi": 38,
          "name": "D2",
          "ticks": 91744,
          "time": 71.675,
          "velocity": 0.7874015748031497
        },
        {
          "duration": 0.22812499999999147,
          "durationTicks": 292,
          "midi": 34,
          "name": "A#1",
          "ticks": 92124,
          "time": 71.971875,
          "velocity": 0.7874015748031497
        },
        {
          "duration": 0.11249999999999716,
          "durationTicks": 144,
          "midi": 34,
          "name": "A#1",
          "ticks": 92920,
          "time": 72.59375,
          "velocity": 0.7874015748031497
        },
        {
          "duration": 0.12656250000000568,
          "durationTicks": 162,
          "midi": 34,
          "name": "A#1",
          "ticks": 93118,
          "time": 72.7484375,
          "velocity": 0.7874015748031497
        },
        {
          "duration": 0.13750000000000284,
          "durationTicks": 176,
          "midi": 34,
          "name": "A#1",
          "ticks": 93514,
          "time": 73.0578125,
          "velocity": 0.7874015748031497
        },
        {
          "duration": 0.37031249999999716,
          "durationTicks": 474,
          "midi": 39,
          "name": "D#2",
          "ticks": 93690,
          "time": 73.1953125,
          "velocity": 0.7874015748031497
        },
        {
          "duration": 0.37812500000001137,
          "durationTicks": 484,
          "midi": 43,
          "name": "G2",
          "ticks": 94252,
          "time": 73.63437499999999,
          "velocity": 0.7874015748031497
        },
        {
          "duration": 0.22343750000000284,
          "durationTicks": 286,
          "midi": 46,
          "name": "A#2",
          "ticks": 94798,
          "time": 74.0609375,
          "velocity": 0.7874015748031497
        },
        {
          "duration": 0.08281250000000284,
          "durationTicks": 106,
          "midi": 34,
          "name": "A#1",
          "ticks": 95568,
          "time": 74.6625,
          "velocity": 0.7874015748031497
        },
        {
          "duration": 0.11249999999999716,
          "durationTicks": 144,
          "midi": 34,
          "name": "A#1",
          "ticks": 95744,
          "time": 74.8,
          "velocity": 0.7874015748031497
        },
        {
          "duration": 0.040624999999991473,
          "durationTicks": 52,
          "midi": 37,
          "name": "C#2",
          "ticks": 95960,
          "time": 74.96875,
          "velocity": 0.7874015748031497
        },
        {
          "duration": 0.26875000000001137,
          "durationTicks": 344,
          "midi": 38,
          "name": "D2",
          "ticks": 96012,
          "time": 75.00937499999999,
          "velocity": 0.7874015748031497
        },
        {
          "duration": 0.24062499999999432,
          "durationTicks": 308,
          "midi": 41,
          "name": "F2",
          "ticks": 96356,
          "time": 75.278125,
          "velocity": 0.7874015748031497
        },
        {
          "duration": 0.3999999999999915,
          "durationTicks": 512,
          "midi": 29,
          "name": "F1",
          "ticks": 96740,
          "time": 75.578125,
          "velocity": 0.7874015748031497
        },
        {
          "duration": 0.3500000000000085,
          "durationTicks": 448,
          "midi": 33,
          "name": "A1",
          "ticks": 97348,
          "time": 76.053125,
          "velocity": 0.7874015748031497
        },
        {
          "duration": 0.14687499999999432,
          "durationTicks": 188,
          "midi": 36,
          "name": "C2",
          "ticks": 97874,
          "time": 76.4640625,
          "velocity": 0.7874015748031497
        },
        {
          "duration": 0.08437499999999432,
          "durationTicks": 108,
          "midi": 46,
          "name": "A#2",
          "ticks": 98280,
          "time": 76.78125,
          "velocity": 0.7874015748031497
        },
        {
          "duration": 0.06406249999999147,
          "durationTicks": 82,
          "midi": 46,
          "name": "A#2",
          "ticks": 98680,
          "time": 77.09375,
          "velocity": 0.7874015748031497
        },
        {
          "duration": 0.13125000000000853,
          "durationTicks": 168,
          "midi": 46,
          "name": "A#2",
          "ticks": 98840,
          "time": 77.21874999999999,
          "velocity": 0.7874015748031497
        },
        {
          "duration": 0.28437499999999716,
          "durationTicks": 364,
          "midi": 43,
          "name": "G2",
          "ticks": 99044,
          "time": 77.378125,
          "velocity": 0.7874015748031497
        },
        {
          "duration": 0.23593749999999147,
          "durationTicks": 302,
          "midi": 41,
          "name": "F2",
          "ticks": 99408,
          "time": 77.6625,
          "velocity": 0.7874015748031497
        },
        {
          "duration": 0.17812499999999432,
          "durationTicks": 228,
          "midi": 39,
          "name": "D#2",
          "ticks": 99804,
          "time": 77.971875,
          "velocity": 0.7874015748031497
        },
        {
          "duration": 0.23124999999998863,
          "durationTicks": 296,
          "midi": 43,
          "name": "G2",
          "ticks": 100396,
          "time": 78.434375,
          "velocity": 0.7874015748031497
        },
        {
          "duration": 0.16875000000000284,
          "durationTicks": 216,
          "midi": 46,
          "name": "A#2",
          "ticks": 100960,
          "time": 78.875,
          "velocity": 0.7874015748031497
        },
        {
          "duration": 0.0687499999999801,
          "durationTicks": 88,
          "midi": 29,
          "name": "F1",
          "ticks": 101572,
          "time": 79.353125,
          "velocity": 0.7874015748031497
        },
        {
          "duration": 0.07187500000000568,
          "durationTicks": 92,
          "midi": 29,
          "name": "F1",
          "ticks": 101744,
          "time": 79.4875,
          "velocity": 0.7874015748031497
        },
        {
          "duration": 0.13750000000000284,
          "durationTicks": 176,
          "midi": 29,
          "name": "F1",
          "ticks": 101928,
          "time": 79.63125,
          "velocity": 0.7874015748031497
        },
        {
          "duration": 0.30156250000000284,
          "durationTicks": 386,
          "midi": 33,
          "name": "A1",
          "ticks": 102104,
          "time": 79.76875,
          "velocity": 0.7874015748031497
        },
        {
          "duration": 0.24062499999999432,
          "durationTicks": 308,
          "midi": 36,
          "name": "C2",
          "ticks": 102496,
          "time": 80.075,
          "velocity": 0.7874015748031497
        },
        {
          "duration": 0.19062500000001137,
          "durationTicks": 244,
          "midi": 34,
          "name": "A#1",
          "ticks": 102888,
          "time": 80.38125,
          "velocity": 0.7874015748031497
        },
        {
          "duration": 0.1875,
          "durationTicks": 240,
          "midi": 38,
          "name": "D2",
          "ticks": 103476,
          "time": 80.840625,
          "velocity": 0.7874015748031497
        },
        {
          "duration": 0.16718750000001137,
          "durationTicks": 214,
          "midi": 41,
          "name": "F2",
          "ticks": 104036,
          "time": 81.27812499999999,
          "velocity": 0.7874015748031497
        },
        {
          "duration": 0.0703125,
          "durationTicks": 90,
          "midi": 46,
          "name": "A#2",
          "ticks": 104636,
          "time": 81.74687499999999,
          "velocity": 0.7874015748031497
        },
        {
          "duration": 0.06718750000001705,
          "durationTicks": 86,
          "midi": 46,
          "name": "A#2",
          "ticks": 104810,
          "time": 81.88281249999999,
          "velocity": 0.7874015748031497
        },
        {
          "duration": 0.11562500000000853,
          "durationTicks": 148,
          "midi": 46,
          "name": "A#2",
          "ticks": 104996,
          "time": 82.02812499999999,
          "velocity": 0.7874015748031497
        },
        {
          "duration": 0.29999999999999716,
          "durationTicks": 384,
          "midi": 43,
          "name": "G2",
          "ticks": 105180,
          "time": 82.171875,
          "velocity": 0.7874015748031497
        },
        {
          "duration": 0.234375,
          "durationTicks": 300,
          "midi": 41,
          "name": "F2",
          "ticks": 105564,
          "time": 82.471875,
          "velocity": 0.7874015748031497
        },
        {
          "duration": 0.30156249999998863,
          "durationTicks": 386,
          "midi": 39,
          "name": "D#2",
          "ticks": 105952,
          "time": 82.775,
          "velocity": 0.7874015748031497
        },
        {
          "duration": 0.23906250000000284,
          "durationTicks": 306,
          "midi": 43,
          "name": "G2",
          "ticks": 106530,
          "time": 83.2265625,
          "velocity": 0.7874015748031497
        },
        {
          "duration": 0.17656250000000284,
          "durationTicks": 226,
          "midi": 46,
          "name": "A#2",
          "ticks": 107088,
          "time": 83.6625,
          "velocity": 0.7874015748031497
        },
        {
          "duration": 0.0703125,
          "durationTicks": 90,
          "midi": 29,
          "name": "F1",
          "ticks": 107692,
          "time": 84.134375,
          "velocity": 0.7874015748031497
        },
        {
          "duration": 0.07187499999999147,
          "durationTicks": 92,
          "midi": 29,
          "name": "F1",
          "ticks": 107868,
          "time": 84.271875,
          "velocity": 0.7874015748031497
        },
        {
          "duration": 0.14375000000001137,
          "durationTicks": 184,
          "midi": 29,
          "name": "F1",
          "ticks": 108056,
          "time": 84.41874999999999,
          "velocity": 0.7874015748031497
        },
        {
          "duration": 0.2968749999999858,
          "durationTicks": 380,
          "midi": 33,
          "name": "A1",
          "ticks": 108240,
          "time": 84.5625,
          "velocity": 0.7874015748031497
        },
        {
          "duration": 0.2640624999999943,
          "durationTicks": 338,
          "midi": 36,
          "name": "C2",
          "ticks": 108628,
          "time": 84.86562500000001,
          "velocity": 0.7874015748031497
        },
        {
          "duration": 0.2953124999999943,
          "durationTicks": 378,
          "midi": 31,
          "name": "G1",
          "ticks": 109026,
          "time": 85.1765625,
          "velocity": 0.7874015748031497
        },
        {
          "duration": 0.3437499999999858,
          "durationTicks": 440,
          "midi": 34,
          "name": "A#1",
          "ticks": 109620,
          "time": 85.640625,
          "velocity": 0.7874015748031497
        },
        {
          "duration": 0.20625000000001137,
          "durationTicks": 264,
          "midi": 38,
          "name": "D2",
          "ticks": 110150,
          "time": 86.05468749999999,
          "velocity": 0.7874015748031497
        },
        {
          "duration": 0.07187499999999147,
          "durationTicks": 92,
          "midi": 36,
          "name": "C2",
          "ticks": 110760,
          "time": 86.53125,
          "velocity": 0.7874015748031497
        },
        {
          "duration": 0.06250000000001421,
          "durationTicks": 80,
          "midi": 36,
          "name": "C2",
          "ticks": 110948,
          "time": 86.678125,
          "velocity": 0.7874015748031497
        },
        {
          "duration": 0.10468750000001137,
          "durationTicks": 134,
          "midi": 36,
          "name": "C2",
          "ticks": 111116,
          "time": 86.80937499999999,
          "velocity": 0.7874015748031497
        },
        {
          "duration": 0.0703125,
          "durationTicks": 90,
          "midi": 39,
          "name": "D#2",
          "ticks": 111284,
          "time": 86.940625,
          "velocity": 0.7874015748031497
        },
        {
          "duration": 0.24531250000001137,
          "durationTicks": 314,
          "midi": 40,
          "name": "E2",
          "ticks": 111374,
          "time": 87.0109375,
          "velocity": 0.7874015748031497
        },
        {
          "duration": 0.24374999999999147,
          "durationTicks": 312,
          "midi": 43,
          "name": "G2",
          "ticks": 111688,
          "time": 87.25625000000001,
          "velocity": 0.7874015748031497
        },
        {
          "duration": 0.2906250000000057,
          "durationTicks": 372,
          "midi": 39,
          "name": "D#2",
          "ticks": 112096,
          "time": 87.575,
          "velocity": 0.7874015748031497
        },
        {
          "duration": 0.2515625000000057,
          "durationTicks": 322,
          "midi": 43,
          "name": "G2",
          "ticks": 112686,
          "time": 88.0359375,
          "velocity": 0.7874015748031497
        },
        {
          "duration": 0.18125000000000568,
          "durationTicks": 232,
          "midi": 46,
          "name": "A#2",
          "ticks": 113228,
          "time": 88.459375,
          "velocity": 0.7874015748031497
        },
        {
          "duration": 0.07656250000002274,
          "durationTicks": 98,
          "midi": 29,
          "name": "F1",
          "ticks": 113840,
          "time": 88.93749999999999,
          "velocity": 0.7874015748031497
        },
        {
          "duration": 0.07343749999999716,
          "durationTicks": 94,
          "midi": 29,
          "name": "F1",
          "ticks": 114014,
          "time": 89.0734375,
          "velocity": 0.7874015748031497
        },
        {
          "duration": 0.14375000000001137,
          "durationTicks": 184,
          "midi": 29,
          "name": "F1",
          "ticks": 114200,
          "time": 89.21874999999999,
          "velocity": 0.7874015748031497
        },
        {
          "duration": 0.2953124999999943,
          "durationTicks": 378,
          "midi": 33,
          "name": "A1",
          "ticks": 114384,
          "time": 89.3625,
          "velocity": 0.7874015748031497
        },
        {
          "duration": 0.24843750000000853,
          "durationTicks": 318,
          "midi": 36,
          "name": "C2",
          "ticks": 114762,
          "time": 89.65781249999999,
          "velocity": 0.7874015748031497
        },
        {
          "duration": 0.29999999999999716,
          "durationTicks": 384,
          "midi": 39,
          "name": "D#2",
          "ticks": 115126,
          "time": 89.9421875,
          "velocity": 0.7874015748031497
        },
        {
          "duration": 0.2906250000000057,
          "durationTicks": 372,
          "midi": 43,
          "name": "G2",
          "ticks": 115764,
          "time": 90.440625,
          "velocity": 0.7874015748031497
        },
        {
          "duration": 0.17343749999999147,
          "durationTicks": 222,
          "midi": 46,
          "name": "A#2",
          "ticks": 116348,
          "time": 90.896875,
          "velocity": 0.7874015748031497
        },
        {
          "duration": 0.07500000000000284,
          "durationTicks": 96,
          "midi": 34,
          "name": "A#1",
          "ticks": 117100,
          "time": 91.484375,
          "velocity": 0.7874015748031497
        },
        {
          "duration": 0.14375000000001137,
          "durationTicks": 184,
          "midi": 34,
          "name": "A#1",
          "ticks": 117272,
          "time": 91.61874999999999,
          "velocity": 0.7874015748031497
        },
        {
          "duration": 0.2874999999999943,
          "durationTicks": 368,
          "midi": 38,
          "name": "D2",
          "ticks": 117484,
          "time": 91.784375,
          "velocity": 0.7874015748031497
        },
        {
          "duration": 0.2734374999999858,
          "durationTicks": 350,
          "midi": 41,
          "name": "F2",
          "ticks": 117870,
          "time": 92.0859375,
          "velocity": 0.7874015748031497
        },
        {
          "duration": 0.3296875000000057,
          "durationTicks": 422,
          "midi": 41,
          "name": "F2",
          "ticks": 118272,
          "time": 92.39999999999999,
          "velocity": 0.7874015748031497
        },
        {
          "duration": 0.29374999999998863,
          "durationTicks": 376,
          "midi": 45,
          "name": "A2",
          "ticks": 118888,
          "time": 92.88125000000001,
          "velocity": 0.7874015748031497
        },
        {
          "duration": 0.05781249999999716,
          "durationTicks": 74,
          "midi": 47,
          "name": "B2",
          "ticks": 119392,
          "time": 93.275,
          "velocity": 0.7874015748031497
        },
        {
          "duration": 0.2640624999999943,
          "durationTicks": 338,
          "midi": 48,
          "name": "C3",
          "ticks": 119466,
          "time": 93.3328125,
          "velocity": 0.7874015748031497
        },
        {
          "duration": 0.0859375,
          "durationTicks": 110,
          "midi": 34,
          "name": "A#1",
          "ticks": 120244,
          "time": 93.940625,
          "velocity": 0.7874015748031497
        },
        {
          "duration": 0.1015625,
          "durationTicks": 130,
          "midi": 34,
          "name": "A#1",
          "ticks": 120426,
          "time": 94.0828125,
          "velocity": 0.7874015748031497
        },
        {
          "duration": 0.20156250000000853,
          "durationTicks": 258,
          "midi": 38,
          "name": "D2",
          "ticks": 120634,
          "time": 94.2453125,
          "velocity": 0.7874015748031497
        },
        {
          "duration": 0.2187499999999858,
          "durationTicks": 280,
          "midi": 41,
          "name": "F2",
          "ticks": 120982,
          "time": 94.5171875,
          "velocity": 0.7874015748031497
        },
        {
          "duration": 0.2499999999999858,
          "durationTicks": 320,
          "midi": 39,
          "name": "D#2",
          "ticks": 121320,
          "time": 94.78125,
          "velocity": 0.7874015748031497
        },
        {
          "duration": 0.25312499999999716,
          "durationTicks": 324,
          "midi": 43,
          "name": "G2",
          "ticks": 121900,
          "time": 95.234375,
          "velocity": 0.7874015748031497
        },
        {
          "duration": 0.1875,
          "durationTicks": 240,
          "midi": 46,
          "name": "A#2",
          "ticks": 122452,
          "time": 95.665625,
          "velocity": 0.7874015748031497
        },
        {
          "duration": 0.07187500000000568,
          "durationTicks": 92,
          "midi": 29,
          "name": "F1",
          "ticks": 123244,
          "time": 96.284375,
          "velocity": 0.7874015748031497
        },
        {
          "duration": 0.14999999999999147,
          "durationTicks": 192,
          "midi": 29,
          "name": "F1",
          "ticks": 123420,
          "time": 96.421875,
          "velocity": 0.7874015748031497
        },
        {
          "duration": 0.2906250000000057,
          "durationTicks": 372,
          "midi": 33,
          "name": "A1",
          "ticks": 123612,
          "time": 96.57187499999999,
          "velocity": 0.7874015748031497
        },
        {
          "duration": 0.22343750000000284,
          "durationTicks": 286,
          "midi": 36,
          "name": "C2",
          "ticks": 123996,
          "time": 96.871875,
          "velocity": 0.7874015748031497
        },
        {
          "duration": 0.2906250000000057,
          "durationTicks": 372,
          "midi": 34,
          "name": "A#1",
          "ticks": 124368,
          "time": 97.1625,
          "velocity": 0.7874015748031497
        },
        {
          "duration": 0.29218749999999716,
          "durationTicks": 374,
          "midi": 38,
          "name": "D2",
          "ticks": 124954,
          "time": 97.6203125,
          "velocity": 0.7874015748031497
        },
        {
          "duration": 0.19374999999999432,
          "durationTicks": 248,
          "midi": 41,
          "name": "F2",
          "ticks": 125500,
          "time": 98.046875,
          "velocity": 0.7874015748031497
        },
        {
          "duration": 0.08124999999999716,
          "durationTicks": 104,
          "midi": 34,
          "name": "A#1",
          "ticks": 126288,
          "time": 98.6625,
          "velocity": 0.7874015748031497
        },
        {
          "duration": 0.13437500000000568,
          "durationTicks": 172,
          "midi": 34,
          "name": "A#1",
          "ticks": 126468,
          "time": 98.803125,
          "velocity": 0.7874015748031497
        },
        {
          "duration": 0.29999999999999716,
          "durationTicks": 384,
          "midi": 38,
          "name": "D2",
          "ticks": 126676,
          "time": 98.965625,
          "velocity": 0.7874015748031497
        },
        {
          "duration": 0.23125000000001705,
          "durationTicks": 296,
          "midi": 41,
          "name": "F2",
          "ticks": 127076,
          "time": 99.27812499999999,
          "velocity": 0.7874015748031497
        },
        {
          "duration": 0.2750000000000057,
          "durationTicks": 352,
          "midi": 39,
          "name": "D#2",
          "ticks": 127454,
          "time": 99.5734375,
          "velocity": 0.7874015748031497
        },
        {
          "duration": 0.3453125000000057,
          "durationTicks": 442,
          "midi": 43,
          "name": "G2",
          "ticks": 128036,
          "time": 100.02812499999999,
          "velocity": 0.7874015748031497
        },
        {
          "duration": 0.1953125,
          "durationTicks": 250,
          "midi": 46,
          "name": "A#2",
          "ticks": 128586,
          "time": 100.4578125,
          "velocity": 0.7874015748031497
        },
        {
          "duration": 0.07187499999999147,
          "durationTicks": 92,
          "midi": 29,
          "name": "F1",
          "ticks": 129172,
          "time": 100.915625,
          "velocity": 0.7874015748031497
        },
        {
          "duration": 0.06875000000000853,
          "durationTicks": 88,
          "midi": 29,
          "name": "F1",
          "ticks": 129354,
          "time": 101.0578125,
          "velocity": 0.7874015748031497
        },
        {
          "duration": 0.1484375,
          "durationTicks": 190,
          "midi": 29,
          "name": "F1",
          "ticks": 129546,
          "time": 101.2078125,
          "velocity": 0.7874015748031497
        },
        {
          "duration": 0.2984375000000057,
          "durationTicks": 382,
          "midi": 33,
          "name": "A1",
          "ticks": 129734,
          "time": 101.3546875,
          "velocity": 0.7874015748031497
        },
        {
          "duration": 0.24531250000001137,
          "durationTicks": 314,
          "midi": 36,
          "name": "C2",
          "ticks": 130124,
          "time": 101.659375,
          "velocity": 0.7874015748031497
        },
        {
          "duration": 0.38750000000000284,
          "durationTicks": 496,
          "midi": 31,
          "name": "G1",
          "ticks": 130532,
          "time": 101.97812499999999,
          "velocity": 0.7874015748031497
        },
        {
          "duration": 0.4140625,
          "durationTicks": 530,
          "midi": 34,
          "name": "A#1",
          "ticks": 131114,
          "time": 102.4328125,
          "velocity": 0.7874015748031497
        },
        {
          "duration": 0.19375000000000853,
          "durationTicks": 248,
          "midi": 38,
          "name": "D2",
          "ticks": 131684,
          "time": 102.878125,
          "velocity": 0.7874015748031497
        },
        {
          "duration": 0.06875000000000853,
          "durationTicks": 88,
          "midi": 36,
          "name": "C2",
          "ticks": 132278,
          "time": 103.3421875,
          "velocity": 0.7874015748031497
        },
        {
          "duration": 0.0625,
          "durationTicks": 80,
          "midi": 36,
          "name": "C2",
          "ticks": 132464,
          "time": 103.4875,
          "velocity": 0.7874015748031497
        },
        {
          "duration": 0.10937499999998579,
          "durationTicks": 140,
          "midi": 36,
          "name": "C2",
          "ticks": 132636,
          "time": 103.621875,
          "velocity": 0.7874015748031497
        },
        {
          "duration": 0.07968750000000568,
          "durationTicks": 102,
          "midi": 39,
          "name": "D#2",
          "ticks": 132790,
          "time": 103.7421875,
          "velocity": 0.7874015748031497
        },
        {
          "duration": 0.24843749999999432,
          "durationTicks": 318,
          "midi": 40,
          "name": "E2",
          "ticks": 132892,
          "time": 103.821875,
          "velocity": 0.7874015748031497
        },
        {
          "duration": 0.2718750000000085,
          "durationTicks": 348,
          "midi": 43,
          "name": "G2",
          "ticks": 133210,
          "time": 104.0703125,
          "velocity": 0.7874015748031497
        },
        {
          "duration": 0.328125,
          "durationTicks": 420,
          "midi": 39,
          "name": "D#2",
          "ticks": 133624,
          "time": 104.39375,
          "velocity": 0.7874015748031497
        },
        {
          "duration": 0.27812499999998863,
          "durationTicks": 356,
          "midi": 43,
          "name": "G2",
          "ticks": 134188,
          "time": 104.83437500000001,
          "velocity": 0.7874015748031497
        },
        {
          "duration": 0.14531250000000284,
          "durationTicks": 186,
          "midi": 46,
          "name": "A#2",
          "ticks": 134746,
          "time": 105.2703125,
          "velocity": 0.7874015748031497
        },
        {
          "duration": 0.17031249999999432,
          "durationTicks": 218,
          "midi": 41,
          "name": "F2",
          "ticks": 135132,
          "time": 105.57187499999999,
          "velocity": 0.7874015748031497
        },
        {
          "duration": 0.08437499999999432,
          "durationTicks": 108,
          "midi": 29,
          "name": "F1",
          "ticks": 135328,
          "time": 105.72500000000001,
          "velocity": 0.7874015748031497
        },
        {
          "duration": 0.0859375,
          "durationTicks": 110,
          "midi": 29,
          "name": "F1",
          "ticks": 135504,
          "time": 105.8625,
          "velocity": 0.7874015748031497
        },
        {
          "duration": 0.14531250000000284,
          "durationTicks": 186,
          "midi": 29,
          "name": "F1",
          "ticks": 135706,
          "time": 106.0203125,
          "velocity": 0.7874015748031497
        },
        {
          "duration": 0.28437499999998295,
          "durationTicks": 364,
          "midi": 33,
          "name": "A1",
          "ticks": 135892,
          "time": 106.165625,
          "velocity": 0.7874015748031497
        },
        {
          "duration": 0.2906250000000057,
          "durationTicks": 372,
          "midi": 36,
          "name": "C2",
          "ticks": 136264,
          "time": 106.45625,
          "velocity": 0.7874015748031497
        },
        {
          "duration": 0.23749999999998295,
          "durationTicks": 304,
          "midi": 34,
          "name": "A#1",
          "ticks": 136648,
          "time": 106.75625000000001,
          "velocity": 0.7874015748031497
        },
        {
          "duration": 0.15937499999999716,
          "durationTicks": 204,
          "midi": 29,
          "name": "F1",
          "ticks": 138204,
          "time": 107.971875,
          "velocity": 0.7874015748031497
        },
        {
          "duration": 0.18281250000001137,
          "durationTicks": 234,
          "midi": 29,
          "name": "F1",
          "ticks": 138590,
          "time": 108.27343749999999,
          "velocity": 0.7874015748031497
        },
        {
          "duration": 0.23750000000001137,
          "durationTicks": 304,
          "midi": 34,
          "name": "A#1",
          "ticks": 138972,
          "time": 108.57187499999999,
          "velocity": 0.7874015748031497
        },
        {
          "duration": 0.2890625,
          "durationTicks": 370,
          "midi": 39,
          "name": "D#2",
          "ticks": 145928,
          "time": 114.00625,
          "velocity": 1
        },
        {
          "duration": 0.35625000000000284,
          "durationTicks": 456,
          "midi": 39,
          "name": "D#2",
          "ticks": 146492,
          "time": 114.44687499999999,
          "velocity": 1
        },
        {
          "duration": 0.2718749999999943,
          "durationTicks": 348,
          "midi": 34,
          "name": "A#1",
          "ticks": 147046,
          "time": 114.8796875,
          "velocity": 1
        },
        {
          "duration": 0.3421875000000085,
          "durationTicks": 438,
          "midi": 41,
          "name": "F2",
          "ticks": 148986,
          "time": 116.39531249999999,
          "velocity": 0.7874015748031497
        },
        {
          "duration": 0.39531250000001705,
          "durationTicks": 506,
          "midi": 41,
          "name": "F2",
          "ticks": 149576,
          "time": 116.85624999999999,
          "velocity": 0.7874015748031497
        },
        {
          "duration": 0.21875,
          "durationTicks": 280,
          "midi": 34,
          "name": "A#1",
          "ticks": 150120,
          "time": 117.28125,
          "velocity": 0.7874015748031497
        },
        {
          "duration": 0.29999999999999716,
          "durationTicks": 384,
          "midi": 29,
          "name": "F1",
          "ticks": 152064,
          "time": 118.8,
          "velocity": 0.7874015748031497
        },
        {
          "duration": 0.29999999999999716,
          "durationTicks": 384,
          "midi": 33,
          "name": "A1",
          "ticks": 152640,
          "time": 119.25,
          "velocity": 0.7874015748031497
        },
        {
          "duration": 0.15000000000000568,
          "durationTicks": 192,
          "midi": 34,
          "name": "A#1",
          "ticks": 153408,
          "time": 119.85,
          "velocity": 0.7874015748031497
        },
        {
          "duration": 0.0703125,
          "durationTicks": 90,
          "midi": 46,
          "name": "A#2",
          "ticks": 153758,
          "time": 120.1234375,
          "velocity": 0.7874015748031497
        },
        {
          "duration": 0.07343749999999716,
          "durationTicks": 94,
          "midi": 46,
          "name": "A#2",
          "ticks": 153928,
          "time": 120.25625,
          "velocity": 0.7874015748031497
        },
        {
          "duration": 0.13124999999999432,
          "durationTicks": 168,
          "midi": 46,
          "name": "A#2",
          "ticks": 154120,
          "time": 120.40625,
          "velocity": 0.7874015748031497
        },
        {
          "duration": 0.2656250000000142,
          "durationTicks": 340,
          "midi": 43,
          "name": "G2",
          "ticks": 154340,
          "time": 120.57812499999999,
          "velocity": 0.7874015748031497
        },
        {
          "duration": 0.15000000000000568,
          "durationTicks": 192,
          "midi": 41,
          "name": "F2",
          "ticks": 154708,
          "time": 120.865625,
          "velocity": 0.7874015748031497
        },
        {
          "duration": 0.3140625000000057,
          "durationTicks": 402,
          "midi": 29,
          "name": "F1",
          "ticks": 155096,
          "time": 121.16874999999999,
          "velocity": 0.7874015748031497
        },
        {
          "duration": 0.2718749999999943,
          "durationTicks": 348,
          "midi": 33,
          "name": "A1",
          "ticks": 155672,
          "time": 121.61874999999999,
          "velocity": 0.7874015748031497
        },
        {
          "duration": 0.20937499999999432,
          "durationTicks": 268,
          "midi": 34,
          "name": "A#1",
          "ticks": 156238,
          "time": 122.0609375,
          "velocity": 0.7874015748031497
        },
        {
          "duration": 0.078125,
          "durationTicks": 100,
          "midi": 46,
          "name": "A#2",
          "ticks": 156828,
          "time": 122.521875,
          "velocity": 0.7874015748031497
        },
        {
          "duration": 0.07500000000000284,
          "durationTicks": 96,
          "midi": 46,
          "name": "A#2",
          "ticks": 157016,
          "time": 122.66874999999999,
          "velocity": 0.7874015748031497
        },
        {
          "duration": 0.1171875,
          "durationTicks": 150,
          "midi": 46,
          "name": "A#2",
          "ticks": 157208,
          "time": 122.81875,
          "velocity": 0.7874015748031497
        },
        {
          "duration": 0.22187500000001137,
          "durationTicks": 284,
          "midi": 43,
          "name": "G2",
          "ticks": 157412,
          "time": 122.97812499999999,
          "velocity": 0.7874015748031497
        },
        {
          "duration": 0.15625,
          "durationTicks": 200,
          "midi": 41,
          "name": "F2",
          "ticks": 157774,
          "time": 123.2609375,
          "velocity": 0.7874015748031497
        },
        {
          "duration": 0.15000000000000568,
          "durationTicks": 192,
          "midi": 39,
          "name": "D#2",
          "ticks": 158208,
          "time": 123.6,
          "velocity": 0.7874015748031497
        },
        {
          "duration": 0.14999999999999147,
          "durationTicks": 192,
          "midi": 34,
          "name": "A#1",
          "ticks": 158784,
          "time": 124.05,
          "velocity": 0.7874015748031497
        },
        {
          "duration": 0.15000000000000568,
          "durationTicks": 192,
          "midi": 39,
          "name": "D#2",
          "ticks": 158976,
          "time": 124.19999999999999,
          "velocity": 0.7874015748031497
        },
        {
          "duration": 0.14999999999999147,
          "durationTicks": 192,
          "midi": 39,
          "name": "D#2",
          "ticks": 159360,
          "time": 124.5,
          "velocity": 0.7874015748031497
        },
        {
          "duration": 0.15000000000000568,
          "durationTicks": 192,
          "midi": 36,
          "name": "C2",
          "ticks": 159552,
          "time": 124.64999999999999,
          "velocity": 0.7874015748031497
        },
        {
          "duration": 0.29999999999999716,
          "durationTicks": 384,
          "midi": 38,
          "name": "D2",
          "ticks": 159744,
          "time": 124.8,
          "velocity": 0.7874015748031497
        },
        {
          "duration": 0.29999999999999716,
          "durationTicks": 384,
          "midi": 34,
          "name": "A#1",
          "ticks": 160320,
          "time": 125.25,
          "velocity": 0.7874015748031497
        },
        {
          "duration": 0.30000000000001137,
          "durationTicks": 384,
          "midi": 38,
          "name": "D2",
          "ticks": 160896,
          "time": 125.69999999999999,
          "velocity": 0.7874015748031497
        },
        {
          "duration": 0.29999999999999716,
          "durationTicks": 384,
          "midi": 36,
          "name": "C2",
          "ticks": 161280,
          "time": 126,
          "velocity": 0.7874015748031497
        },
        {
          "duration": 0.30000000000001137,
          "durationTicks": 384,
          "midi": 33,
          "name": "A1",
          "ticks": 161856,
          "time": 126.44999999999999,
          "velocity": 0.7874015748031497
        },
        {
          "duration": 0.29999999999999716,
          "durationTicks": 384,
          "midi": 36,
          "name": "C2",
          "ticks": 162432,
          "time": 126.89999999999999,
          "velocity": 0.7874015748031497
        },
        {
          "duration": 0.30000000000001137,
          "durationTicks": 384,
          "midi": 34,
          "name": "A#1",
          "ticks": 162816,
          "time": 127.19999999999999,
          "velocity": 0.7874015748031497
        },
        {
          "duration": 0.24062499999999432,
          "durationTicks": 308,
          "midi": 39,
          "name": "D#2",
          "ticks": 164348,
          "time": 128.396875,
          "velocity": 0.7874015748031497
        },
        {
          "duration": 0.29218750000001137,
          "durationTicks": 374,
          "midi": 43,
          "name": "G2",
          "ticks": 164900,
          "time": 128.828125,
          "velocity": 0.7874015748031497
        },
        {
          "duration": 0.20625000000001137,
          "durationTicks": 264,
          "midi": 46,
          "name": "A#2",
          "ticks": 165452,
          "time": 129.25937499999998,
          "velocity": 0.7874015748031497
        },
        {
          "duration": 0.3187499999999943,
          "durationTicks": 408,
          "midi": 34,
          "name": "A#1",
          "ticks": 165848,
          "time": 129.56875,
          "velocity": 0.7874015748031497
        },
        {
          "duration": 0.13906249999999432,
          "durationTicks": 178,
          "midi": 38,
          "name": "D2",
          "ticks": 166450,
          "time": 130.0390625,
          "velocity": 0.7874015748031497
        },
        {
          "duration": 0.20468750000000568,
          "durationTicks": 262,
          "midi": 43,
          "name": "G2",
          "ticks": 166634,
          "time": 130.18281249999998,
          "velocity": 0.7874015748031497
        },
        {
          "duration": 0.21875,
          "durationTicks": 280,
          "midi": 41,
          "name": "F2",
          "ticks": 166998,
          "time": 130.4671875,
          "velocity": 0.7874015748031497
        },
        {
          "duration": 0.35468749999998295,
          "durationTicks": 454,
          "midi": 29,
          "name": "F1",
          "ticks": 167390,
          "time": 130.7734375,
          "velocity": 0.7874015748031497
        },
        {
          "duration": 0.2984375000000057,
          "durationTicks": 382,
          "midi": 33,
          "name": "A1",
          "ticks": 167984,
          "time": 131.23749999999998,
          "velocity": 0.7874015748031497
        },
        {
          "duration": 0.20468750000000568,
          "durationTicks": 262,
          "midi": 36,
          "name": "C2",
          "ticks": 168516,
          "time": 131.653125,
          "velocity": 0.7874015748031497
        },
        {
          "duration": 0.06875000000002274,
          "durationTicks": 88,
          "midi": 46,
          "name": "A#2",
          "ticks": 169124,
          "time": 132.12812499999998,
          "velocity": 0.7874015748031497
        },
        {
          "duration": 0.07187500000000568,
          "durationTicks": 92,
          "midi": 46,
          "name": "A#2",
          "ticks": 169308,
          "time": 132.271875,
          "velocity": 0.7874015748031497
        },
        {
          "duration": 0.12031249999998295,
          "durationTicks": 154,
          "midi": 46,
          "name": "A#2",
          "ticks": 169492,
          "time": 132.415625,
          "velocity": 0.7874015748031497
        },
        {
          "duration": 0.23749999999998295,
          "durationTicks": 304,
          "midi": 43,
          "name": "G2",
          "ticks": 169684,
          "time": 132.565625,
          "velocity": 0.7874015748031497
        },
        {
          "duration": 0.22500000000002274,
          "durationTicks": 288,
          "midi": 41,
          "name": "F2",
          "ticks": 170056,
          "time": 132.85625,
          "velocity": 0.7874015748031497
        },
        {
          "duration": 0.3343749999999943,
          "durationTicks": 428,
          "midi": 39,
          "name": "D#2",
          "ticks": 170448,
          "time": 133.1625,
          "velocity": 0.7874015748031497
        },
        {
          "duration": 0.3046875,
          "durationTicks": 390,
          "midi": 43,
          "name": "G2",
          "ticks": 171040,
          "time": 133.625,
          "velocity": 0.7874015748031497
        },
        {
          "duration": 0.20468750000000568,
          "durationTicks": 262,
          "midi": 46,
          "name": "A#2",
          "ticks": 171590,
          "time": 134.0546875,
          "velocity": 0.7874015748031497
        },
        {
          "duration": 0.3343749999999943,
          "durationTicks": 428,
          "midi": 41,
          "name": "F2",
          "ticks": 172020,
          "time": 134.390625,
          "velocity": 0.7874015748031497
        },
        {
          "duration": 0.3531250000000057,
          "durationTicks": 452,
          "midi": 45,
          "name": "A2",
          "ticks": 172588,
          "time": 134.834375,
          "velocity": 0.7874015748031497
        },
        {
          "duration": 0.140625,
          "durationTicks": 180,
          "midi": 48,
          "name": "C3",
          "ticks": 173124,
          "time": 135.25312499999998,
          "velocity": 0.7874015748031497
        },
        {
          "duration": 0.3453125000000057,
          "durationTicks": 442,
          "midi": 34,
          "name": "A#1",
          "ticks": 173528,
          "time": 135.56875,
          "velocity": 0.7874015748031497
        },
        {
          "duration": 0.3265624999999943,
          "durationTicks": 418,
          "midi": 38,
          "name": "D2",
          "ticks": 174118,
          "time": 136.0296875,
          "velocity": 0.7874015748031497
        },
        {
          "duration": 0.20624999999998295,
          "durationTicks": 264,
          "midi": 41,
          "name": "F2",
          "ticks": 174664,
          "time": 136.45625,
          "velocity": 0.7874015748031497
        },
        {
          "duration": 0.1953125,
          "durationTicks": 250,
          "midi": 34,
          "name": "A#1",
          "ticks": 175066,
          "time": 136.7703125,
          "velocity": 0.7874015748031497
        },
        {
          "duration": 0.15468749999999432,
          "durationTicks": 198,
          "midi": 34,
          "name": "A#1",
          "ticks": 175658,
          "time": 137.2328125,
          "velocity": 0.7874015748031497
        },
        {
          "duration": 0.27031250000001705,
          "durationTicks": 346,
          "midi": 29,
          "name": "F1",
          "ticks": 175856,
          "time": 137.3875,
          "velocity": 0.7874015748031497
        },
        {
          "duration": 0.2578125,
          "durationTicks": 330,
          "midi": 34,
          "name": "A#1",
          "ticks": 176202,
          "time": 137.6578125,
          "velocity": 0.7874015748031497
        },
        {
          "duration": 0.34062500000001705,
          "durationTicks": 436,
          "midi": 39,
          "name": "D#2",
          "ticks": 176604,
          "time": 137.97187499999998,
          "velocity": 0.7874015748031497
        },
        {
          "duration": 0.3187499999999943,
          "durationTicks": 408,
          "midi": 43,
          "name": "G2",
          "ticks": 177180,
          "time": 138.421875,
          "velocity": 0.7874015748031497
        },
        {
          "duration": 0.140625,
          "durationTicks": 180,
          "midi": 46,
          "name": "A#2",
          "ticks": 177706,
          "time": 138.8328125,
          "velocity": 0.7874015748031497
        },
        {
          "duration": 0.15468749999999432,
          "durationTicks": 198,
          "midi": 41,
          "name": "F2",
          "ticks": 178120,
          "time": 139.15625,
          "velocity": 0.7874015748031497
        },
        {
          "duration": 0.078125,
          "durationTicks": 100,
          "midi": 29,
          "name": "F1",
          "ticks": 178300,
          "time": 139.296875,
          "velocity": 0.7874015748031497
        },
        {
          "duration": 0.07499999999998863,
          "durationTicks": 96,
          "midi": 29,
          "name": "F1",
          "ticks": 178488,
          "time": 139.44375,
          "velocity": 0.7874015748031497
        },
        {
          "duration": 0.15937499999998295,
          "durationTicks": 204,
          "midi": 29,
          "name": "F1",
          "ticks": 178688,
          "time": 139.6,
          "velocity": 0.7874015748031497
        },
        {
          "duration": 0.30156250000001705,
          "durationTicks": 386,
          "midi": 33,
          "name": "A1",
          "ticks": 178892,
          "time": 139.75937499999998,
          "velocity": 0.7874015748031497
        },
        {
          "duration": 0.2562499999999943,
          "durationTicks": 328,
          "midi": 36,
          "name": "C2",
          "ticks": 179278,
          "time": 140.0609375,
          "velocity": 0.7874015748031497
        },
        {
          "duration": 0.3453125000000057,
          "durationTicks": 442,
          "midi": 31,
          "name": "G1",
          "ticks": 179682,
          "time": 140.3765625,
          "velocity": 0.7874015748031497
        },
        {
          "duration": 0.3984375,
          "durationTicks": 510,
          "midi": 34,
          "name": "A#1",
          "ticks": 180282,
          "time": 140.8453125,
          "velocity": 0.7874015748031497
        },
        {
          "duration": 0.18125000000000568,
          "durationTicks": 232,
          "midi": 38,
          "name": "D2",
          "ticks": 180804,
          "time": 141.25312499999998,
          "velocity": 0.7874015748031497
        },
        {
          "duration": 0.07656249999999432,
          "durationTicks": 98,
          "midi": 36,
          "name": "C2",
          "ticks": 181404,
          "time": 141.72187499999998,
          "velocity": 0.7874015748031497
        },
        {
          "duration": 0.06875000000002274,
          "durationTicks": 88,
          "midi": 36,
          "name": "C2",
          "ticks": 181592,
          "time": 141.86874999999998,
          "velocity": 0.7874015748031497
        },
        {
          "duration": 0.11562500000002274,
          "durationTicks": 148,
          "midi": 36,
          "name": "C2",
          "ticks": 181772,
          "time": 142.00937499999998,
          "velocity": 0.7874015748031497
        },
        {
          "duration": 0.06562499999998295,
          "durationTicks": 84,
          "midi": 39,
          "name": "D#2",
          "ticks": 181928,
          "time": 142.13125,
          "velocity": 0.7874015748031497
        },
        {
          "duration": 0.25312500000001137,
          "durationTicks": 324,
          "midi": 40,
          "name": "E2",
          "ticks": 182012,
          "time": 142.19687499999998,
          "velocity": 0.7874015748031497
        },
        {
          "duration": 0.2734375,
          "durationTicks": 350,
          "midi": 43,
          "name": "G2",
          "ticks": 182338,
          "time": 142.4515625,
          "velocity": 0.7874015748031497
        },
        {
          "duration": 0.33281250000001705,
          "durationTicks": 426,
          "midi": 39,
          "name": "D#2",
          "ticks": 182746,
          "time": 142.7703125,
          "velocity": 0.7874015748031497
        },
        {
          "duration": 0.24375000000000568,
          "durationTicks": 312,
          "midi": 43,
          "name": "G2",
          "ticks": 183356,
          "time": 143.246875,
          "velocity": 0.7874015748031497
        },
        {
          "duration": 0.13124999999999432,
          "durationTicks": 168,
          "midi": 46,
          "name": "A#2",
          "ticks": 183892,
          "time": 143.665625,
          "velocity": 0.7874015748031497
        },
        {
          "duration": 0.20625000000001137,
          "durationTicks": 264,
          "midi": 41,
          "name": "F2",
          "ticks": 184292,
          "time": 143.97812499999998,
          "velocity": 0.7874015748031497
        },
        {
          "duration": 0.2328124999999659,
          "durationTicks": 298,
          "midi": 29,
          "name": "F1",
          "ticks": 184654,
          "time": 144.2609375,
          "velocity": 0.7874015748031497
        },
        {
          "duration": 0.22343750000001705,
          "durationTicks": 286,
          "midi": 33,
          "name": "A1",
          "ticks": 185046,
          "time": 144.5671875,
          "velocity": 0.7874015748031497
        },
        {
          "duration": 0.26250000000001705,
          "durationTicks": 336,
          "midi": 36,
          "name": "C2",
          "ticks": 185436,
          "time": 144.871875,
          "velocity": 0.7874015748031497
        },
        {
          "duration": 0.20937499999999432,
          "durationTicks": 268,
          "midi": 34,
          "name": "A#1",
          "ticks": 185828,
          "time": 145.178125,
          "velocity": 0.7874015748031497
        },
        {
          "duration": 0.28750000000002274,
          "durationTicks": 368,
          "midi": 29,
          "name": "F1",
          "ticks": 188516,
          "time": 147.278125,
          "velocity": 0.7874015748031497
        },
        {
          "duration": 0.23749999999998295,
          "durationTicks": 304,
          "midi": 34,
          "name": "A#1",
          "ticks": 188884,
          "time": 147.565625,
          "velocity": 0.7874015748031497
        },
        {
          "duration": 0.19374999999999432,
          "durationTicks": 248,
          "midi": 29,
          "name": "F1",
          "ticks": 190820,
          "time": 149.078125,
          "velocity": 0.7874015748031497
        },
        {
          "duration": 0.30000000000001137,
          "durationTicks": 384,
          "midi": 34,
          "name": "A#1",
          "ticks": 191596,
          "time": 149.684375,
          "velocity": 0.7874015748031497
        },
        {
          "duration": 0.24375000000000568,
          "durationTicks": 312,
          "midi": 36,
          "name": "C2",
          "ticks": 191980,
          "time": 149.984375,
          "velocity": 0.7874015748031497
        },
        {
          "duration": 0.2828125000000057,
          "durationTicks": 362,
          "midi": 43,
          "name": "G2",
          "ticks": 194678,
          "time": 152.0921875,
          "velocity": 0.7874015748031497
        },
        {
          "duration": 0.41874999999998863,
          "durationTicks": 536,
          "midi": 36,
          "name": "C2",
          "ticks": 195060,
          "time": 152.390625,
          "velocity": 0.7874015748031497
        },
        {
          "duration": 0.4078125000000057,
          "durationTicks": 522,
          "midi": 40,
          "name": "E2",
          "ticks": 195622,
          "time": 152.8296875,
          "velocity": 0.7874015748031497
        },
        {
          "duration": 0.19218749999998863,
          "durationTicks": 246,
          "midi": 43,
          "name": "G2",
          "ticks": 196152,
          "time": 153.24375,
          "velocity": 0.7874015748031497
        },
        {
          "duration": 0.29999999999998295,
          "durationTicks": 384,
          "midi": 31,
          "name": "G1",
          "ticks": 196992,
          "time": 153.9,
          "velocity": 0.7874015748031497
        },
        {
          "duration": 0.26875000000001137,
          "durationTicks": 344,
          "midi": 36,
          "name": "C2",
          "ticks": 197760,
          "time": 154.5,
          "velocity": 0.7874015748031497
        },
        {
          "duration": 0.375,
          "durationTicks": 480,
          "midi": 29,
          "name": "F1",
          "ticks": 198104,
          "time": 154.76875,
          "velocity": 0.7874015748031497
        },
        {
          "duration": 0.421875,
          "durationTicks": 540,
          "midi": 33,
          "name": "A1",
          "ticks": 198672,
          "time": 155.2125,
          "velocity": 0.7874015748031497
        },
        {
          "duration": 0.13437500000000568,
          "durationTicks": 172,
          "midi": 36,
          "name": "C2",
          "ticks": 199236,
          "time": 155.653125,
          "velocity": 0.7874015748031497
        },
        {
          "duration": 0.0703125,
          "durationTicks": 90,
          "midi": 36,
          "name": "C2",
          "ticks": 200040,
          "time": 156.28125,
          "velocity": 0.7874015748031497
        },
        {
          "duration": 0.10937499999997158,
          "durationTicks": 140,
          "midi": 36,
          "name": "C2",
          "ticks": 200216,
          "time": 156.41875000000002,
          "velocity": 0.7874015748031497
        },
        {
          "duration": 0.06874999999999432,
          "durationTicks": 88,
          "midi": 39,
          "name": "D#2",
          "ticks": 200388,
          "time": 156.553125,
          "velocity": 0.7874015748031497
        },
        {
          "duration": 0.23906249999998863,
          "durationTicks": 306,
          "midi": 40,
          "name": "E2",
          "ticks": 200476,
          "time": 156.621875,
          "velocity": 0.7874015748031497
        },
        {
          "duration": 0.2984375000000341,
          "durationTicks": 382,
          "midi": 43,
          "name": "G2",
          "ticks": 200782,
          "time": 156.86093749999998,
          "velocity": 0.7874015748031497
        },
        {
          "duration": 0.3687500000000057,
          "durationTicks": 472,
          "midi": 31,
          "name": "G1",
          "ticks": 201186,
          "time": 157.1765625,
          "velocity": 0.7874015748031497
        },
        {
          "duration": 0.37812499999998295,
          "durationTicks": 484,
          "midi": 35,
          "name": "B1",
          "ticks": 201764,
          "time": 157.628125,
          "velocity": 0.7874015748031497
        },
        {
          "duration": 0.21406250000001137,
          "durationTicks": 274,
          "midi": 38,
          "name": "D2",
          "ticks": 202314,
          "time": 158.05781249999998,
          "velocity": 0.7874015748031497
        },
        {
          "duration": 0.07187500000000568,
          "durationTicks": 92,
          "midi": 36,
          "name": "C2",
          "ticks": 202920,
          "time": 158.53125,
          "velocity": 0.7874015748031497
        },
        {
          "duration": 0.07187499999997726,
          "durationTicks": 92,
          "midi": 36,
          "name": "C2",
          "ticks": 203108,
          "time": 158.678125,
          "velocity": 0.7874015748031497
        },
        {
          "duration": 0.12343750000002274,
          "durationTicks": 158,
          "midi": 36,
          "name": "C2",
          "ticks": 203298,
          "time": 158.8265625,
          "velocity": 0.7874015748031497
        },
        {
          "duration": 0.23281249999999432,
          "durationTicks": 298,
          "midi": 33,
          "name": "A1",
          "ticks": 203484,
          "time": 158.97187499999998,
          "velocity": 0.7874015748031497
        },
        {
          "duration": 0.24375000000000568,
          "durationTicks": 312,
          "midi": 31,
          "name": "G1",
          "ticks": 203852,
          "time": 159.259375,
          "velocity": 0.7874015748031497
        },
        {
          "duration": 0.4046874999999943,
          "durationTicks": 518,
          "midi": 29,
          "name": "F1",
          "ticks": 204248,
          "time": 159.56875,
          "velocity": 0.7874015748031497
        },
        {
          "duration": 0.37812500000001137,
          "durationTicks": 484,
          "midi": 33,
          "name": "A1",
          "ticks": 204844,
          "time": 160.03437499999998,
          "velocity": 0.7874015748031497
        },
        {
          "duration": 0.21875,
          "durationTicks": 280,
          "midi": 36,
          "name": "C2",
          "ticks": 205388,
          "time": 160.459375,
          "velocity": 0.7874015748031497
        },
        {
          "duration": 0.07656250000002274,
          "durationTicks": 98,
          "midi": 31,
          "name": "G1",
          "ticks": 205998,
          "time": 160.9359375,
          "velocity": 0.7874015748031497
        },
        {
          "duration": 0.07812500000002842,
          "durationTicks": 100,
          "midi": 31,
          "name": "G1",
          "ticks": 206182,
          "time": 161.07968749999998,
          "velocity": 0.7874015748031497
        },
        {
          "duration": 0.13749999999998863,
          "durationTicks": 176,
          "midi": 31,
          "name": "G1",
          "ticks": 206372,
          "time": 161.228125,
          "velocity": 0.7874015748031497
        },
        {
          "duration": 0.30156250000001705,
          "durationTicks": 386,
          "midi": 35,
          "name": "B1",
          "ticks": 206560,
          "time": 161.37499999999997,
          "velocity": 0.7874015748031497
        },
        {
          "duration": 0.21562500000001705,
          "durationTicks": 276,
          "midi": 38,
          "name": "D2",
          "ticks": 206960,
          "time": 161.6875,
          "velocity": 0.7874015748031497
        },
        {
          "duration": 0.3890624999999943,
          "durationTicks": 498,
          "midi": 36,
          "name": "C2",
          "ticks": 207344,
          "time": 161.9875,
          "velocity": 0.7874015748031497
        },
        {
          "duration": 0.37031250000001137,
          "durationTicks": 474,
          "midi": 40,
          "name": "E2",
          "ticks": 207918,
          "time": 162.4359375,
          "velocity": 0.7874015748031497
        },
        {
          "duration": 0.20156249999999432,
          "durationTicks": 258,
          "midi": 43,
          "name": "G2",
          "ticks": 208440,
          "time": 162.84375,
          "velocity": 0.7874015748031497
        },
        {
          "duration": 0.06406249999997726,
          "durationTicks": 82,
          "midi": 48,
          "name": "C3",
          "ticks": 208878,
          "time": 163.1859375,
          "velocity": 0.7874015748031497
        },
        {
          "duration": 0.07656249999999432,
          "durationTicks": 98,
          "midi": 48,
          "name": "C3",
          "ticks": 209056,
          "time": 163.325,
          "velocity": 0.7874015748031497
        },
        {
          "duration": 0.07656250000002274,
          "durationTicks": 98,
          "midi": 48,
          "name": "C3",
          "ticks": 209254,
          "time": 163.47968749999998,
          "velocity": 0.7874015748031497
        },
        {
          "duration": 0.11250000000001137,
          "durationTicks": 144,
          "midi": 48,
          "name": "C3",
          "ticks": 209450,
          "time": 163.6328125,
          "velocity": 0.7874015748031497
        },
        {
          "duration": 0.0625,
          "durationTicks": 80,
          "midi": 39,
          "name": "D#2",
          "ticks": 209628,
          "time": 163.771875,
          "velocity": 0.7874015748031497
        },
        {
          "duration": 0.24375000000000568,
          "durationTicks": 312,
          "midi": 40,
          "name": "E2",
          "ticks": 209708,
          "time": 163.834375,
          "velocity": 0.7874015748031497
        },
        {
          "duration": 0.23124999999998863,
          "durationTicks": 296,
          "midi": 43,
          "name": "G2",
          "ticks": 210020,
          "time": 164.078125,
          "velocity": 0.7874015748031497
        },
        {
          "duration": 0.36562500000002274,
          "durationTicks": 468,
          "midi": 29,
          "name": "F1",
          "ticks": 210414,
          "time": 164.38593749999998,
          "velocity": 0.7874015748031497
        },
        {
          "duration": 0.4421874999999602,
          "durationTicks": 566,
          "midi": 33,
          "name": "A1",
          "ticks": 210986,
          "time": 164.83281250000002,
          "velocity": 0.7874015748031497
        },
        {
          "duration": 0.23125000000001705,
          "durationTicks": 296,
          "midi": 36,
          "name": "C2",
          "ticks": 211552,
          "time": 165.27499999999998,
          "velocity": 0.7874015748031497
        },
        {
          "duration": 0.07656249999999432,
          "durationTicks": 98,
          "midi": 31,
          "name": "G1",
          "ticks": 212330,
          "time": 165.8828125,
          "velocity": 0.7874015748031497
        },
        {
          "duration": 0.12499999999997158,
          "durationTicks": 160,
          "midi": 31,
          "name": "G1",
          "ticks": 212504,
          "time": 166.01875,
          "velocity": 0.7874015748031497
        },
        {
          "duration": 0.12187500000001705,
          "durationTicks": 156,
          "midi": 34,
          "name": "A#1",
          "ticks": 212680,
          "time": 166.15624999999997,
          "velocity": 0.7874015748031497
        },
        {
          "duration": 0.20781250000001705,
          "durationTicks": 266,
          "midi": 35,
          "name": "B1",
          "ticks": 212836,
          "time": 166.278125,
          "velocity": 0.7874015748031497
        },
        {
          "duration": 0.27031249999998863,
          "durationTicks": 346,
          "midi": 38,
          "name": "D2",
          "ticks": 213102,
          "time": 166.4859375,
          "velocity": 0.7874015748031497
        },
        {
          "duration": 0.3515625,
          "durationTicks": 450,
          "midi": 33,
          "name": "A1",
          "ticks": 213492,
          "time": 166.790625,
          "velocity": 0.7874015748031497
        },
        {
          "duration": 0.31875000000002274,
          "durationTicks": 408,
          "midi": 36,
          "name": "C2",
          "ticks": 214074,
          "time": 167.24531249999998,
          "velocity": 0.7874015748031497
        },
        {
          "duration": 0.203125,
          "durationTicks": 260,
          "midi": 40,
          "name": "E2",
          "ticks": 214608,
          "time": 167.6625,
          "velocity": 0.7874015748031497
        },
        {
          "duration": 0.07812499999997158,
          "durationTicks": 100,
          "midi": 38,
          "name": "D2",
          "ticks": 215204,
          "time": 168.128125,
          "velocity": 0.7874015748031497
        },
        {
          "duration": 0.07343750000003979,
          "durationTicks": 94,
          "midi": 38,
          "name": "D2",
          "ticks": 215392,
          "time": 168.27499999999998,
          "velocity": 0.7874015748031497
        },
        {
          "duration": 0.13593749999998295,
          "durationTicks": 174,
          "midi": 38,
          "name": "D2",
          "ticks": 215578,
          "time": 168.4203125,
          "velocity": 0.7874015748031497
        },
        {
          "duration": 0.30156250000001705,
          "durationTicks": 386,
          "midi": 30,
          "name": "F#1",
          "ticks": 215764,
          "time": 168.56562499999998,
          "velocity": 0.7874015748031497
        },
        {
          "duration": 0.28593749999998863,
          "durationTicks": 366,
          "midi": 33,
          "name": "A1",
          "ticks": 216150,
          "time": 168.8671875,
          "velocity": 0.7874015748031497
        },
        {
          "duration": 0.421875,
          "durationTicks": 540,
          "midi": 29,
          "name": "F1",
          "ticks": 216544,
          "time": 169.17499999999998,
          "velocity": 0.7874015748031497
        },
        {
          "duration": 0.38749999999998863,
          "durationTicks": 496,
          "midi": 33,
          "name": "A1",
          "ticks": 217148,
          "time": 169.646875,
          "velocity": 0.7874015748031497
        },
        {
          "duration": 0.2093749999999659,
          "durationTicks": 268,
          "midi": 36,
          "name": "C2",
          "ticks": 217676,
          "time": 170.05937500000002,
          "velocity": 0.7874015748031497
        },
        {
          "duration": 0.07812499999997158,
          "durationTicks": 100,
          "midi": 31,
          "name": "G1",
          "ticks": 218276,
          "time": 170.52812500000002,
          "velocity": 0.7874015748031497
        },
        {
          "duration": 0.07187500000000568,
          "durationTicks": 92,
          "midi": 31,
          "name": "G1",
          "ticks": 218460,
          "time": 170.671875,
          "velocity": 0.7874015748031497
        },
        {
          "duration": 0.14531249999998863,
          "durationTicks": 186,
          "midi": 31,
          "name": "G1",
          "ticks": 218638,
          "time": 170.8109375,
          "velocity": 0.7874015748031497
        },
        {
          "duration": 0.28750000000002274,
          "durationTicks": 368,
          "midi": 35,
          "name": "B1",
          "ticks": 218824,
          "time": 170.95624999999998,
          "velocity": 0.7874015748031497
        },
        {
          "duration": 0.2781249999999602,
          "durationTicks": 356,
          "midi": 38,
          "name": "D2",
          "ticks": 219224,
          "time": 171.26875,
          "velocity": 0.7874015748031497
        },
        {
          "duration": 0.21250000000000568,
          "durationTicks": 272,
          "midi": 36,
          "name": "C2",
          "ticks": 219600,
          "time": 171.5625,
          "velocity": 0.7874015748031497
        },
        {
          "duration": 0.234375,
          "durationTicks": 300,
          "midi": 31,
          "name": "G1",
          "ticks": 222300,
          "time": 173.671875,
          "velocity": 0.7874015748031497
        },
        {
          "duration": 0.3968749999999943,
          "durationTicks": 508,
          "midi": 29,
          "name": "F1",
          "ticks": 222708,
          "time": 173.990625,
          "velocity": 0.7874015748031497
        },
        {
          "duration": 0.33437500000002274,
          "durationTicks": 428,
          "midi": 33,
          "name": "A1",
          "ticks": 223296,
          "time": 174.45,
          "velocity": 0.7874015748031497
        },
        {
          "duration": 0.19374999999999432,
          "durationTicks": 248,
          "midi": 36,
          "name": "C2",
          "ticks": 223828,
          "time": 174.865625,
          "velocity": 0.7874015748031497
        },
        {
          "duration": 0.07968749999997726,
          "durationTicks": 102,
          "midi": 31,
          "name": "G1",
          "ticks": 224442,
          "time": 175.3453125,
          "velocity": 0.7874015748031497
        },
        {
          "duration": 0.06874999999999432,
          "durationTicks": 88,
          "midi": 31,
          "name": "G1",
          "ticks": 224624,
          "time": 175.4875,
          "velocity": 0.7874015748031497
        },
        {
          "duration": 0.15000000000000568,
          "durationTicks": 192,
          "midi": 31,
          "name": "G1",
          "ticks": 224804,
          "time": 175.628125,
          "velocity": 0.7874015748031497
        },
        {
          "duration": 0.29062499999997726,
          "durationTicks": 372,
          "midi": 35,
          "name": "B1",
          "ticks": 224996,
          "time": 175.77812500000002,
          "velocity": 0.7874015748031497
        },
        {
          "duration": 0.26093750000001137,
          "durationTicks": 334,
          "midi": 38,
          "name": "D2",
          "ticks": 225384,
          "time": 176.08124999999998,
          "velocity": 0.7874015748031497
        },
        {
          "duration": 0.26093749999998295,
          "durationTicks": 334,
          "midi": 36,
          "name": "C2",
          "ticks": 225768,
          "time": 176.38125,
          "velocity": 0.7874015748031497
        },
        {
          "duration": 0.2750000000000057,
          "durationTicks": 352,
          "midi": 31,
          "name": "G1",
          "ticks": 228448,
          "time": 178.475,
          "velocity": 0.7874015748031497
        },
        {
          "duration": 0.4062500000000284,
          "durationTicks": 520,
          "midi": 29,
          "name": "F1",
          "ticks": 228832,
          "time": 178.77499999999998,
          "velocity": 0.7874015748031497
        },
        {
          "duration": 0.3921875000000057,
          "durationTicks": 502,
          "midi": 33,
          "name": "A1",
          "ticks": 229418,
          "time": 179.2328125,
          "velocity": 0.7874015748031497
        },
        {
          "duration": 0.234375,
          "durationTicks": 300,
          "midi": 36,
          "name": "C2",
          "ticks": 229960,
          "time": 179.65624999999997,
          "velocity": 0.7874015748031497
        },
        {
          "duration": 0.06406250000000568,
          "durationTicks": 82,
          "midi": 31,
          "name": "G1",
          "ticks": 230586,
          "time": 180.1453125,
          "velocity": 0.7874015748031497
        },
        {
          "duration": 0.060937499999994316,
          "durationTicks": 78,
          "midi": 31,
          "name": "G1",
          "ticks": 230764,
          "time": 180.28437499999998,
          "velocity": 0.7874015748031497
        },
        {
          "duration": 0.11875000000000568,
          "durationTicks": 152,
          "midi": 31,
          "name": "G1",
          "ticks": 230928,
          "time": 180.4125,
          "velocity": 0.7874015748031497
        },
        {
          "duration": 0.0765624999999659,
          "durationTicks": 98,
          "midi": 34,
          "name": "A#1",
          "ticks": 231092,
          "time": 180.540625,
          "velocity": 0.7874015748031497
        },
        {
          "duration": 0.2375000000000398,
          "durationTicks": 304,
          "midi": 35,
          "name": "B1",
          "ticks": 231190,
          "time": 180.61718749999997,
          "velocity": 0.7874015748031497
        },
        {
          "duration": 0.24531249999998295,
          "durationTicks": 314,
          "midi": 38,
          "name": "D2",
          "ticks": 231494,
          "time": 180.8546875,
          "velocity": 0.7874015748031497
        },
        {
          "duration": 0.38749999999998863,
          "durationTicks": 496,
          "midi": 33,
          "name": "A1",
          "ticks": 231896,
          "time": 181.16875000000002,
          "velocity": 0.7874015748031497
        },
        {
          "duration": 0.375,
          "durationTicks": 480,
          "midi": 36,
          "name": "C2",
          "ticks": 232504,
          "time": 181.64374999999998,
          "velocity": 0.7874015748031497
        },
        {
          "duration": 0.21406249999998295,
          "durationTicks": 274,
          "midi": 40,
          "name": "E2",
          "ticks": 233030,
          "time": 182.0546875,
          "velocity": 0.7874015748031497
        },
        {
          "duration": 0.08125000000001137,
          "durationTicks": 104,
          "midi": 38,
          "name": "D2",
          "ticks": 233632,
          "time": 182.52499999999998,
          "velocity": 0.7874015748031497
        },
        {
          "duration": 0.0703125,
          "durationTicks": 90,
          "midi": 38,
          "name": "D2",
          "ticks": 233818,
          "time": 182.6703125,
          "velocity": 0.7874015748031497
        },
        {
          "duration": 0.12968749999998863,
          "durationTicks": 166,
          "midi": 38,
          "name": "D2",
          "ticks": 234000,
          "time": 182.8125,
          "velocity": 0.7874015748031497
        },
        {
          "duration": 0.11875000000000568,
          "durationTicks": 152,
          "midi": 41,
          "name": "F2",
          "ticks": 234168,
          "time": 182.94375,
          "velocity": 0.7874015748031497
        },
        {
          "duration": 0.21562500000001705,
          "durationTicks": 276,
          "midi": 42,
          "name": "F#2",
          "ticks": 234320,
          "time": 183.0625,
          "velocity": 0.7874015748031497
        },
        {
          "duration": 0.19843749999995453,
          "durationTicks": 254,
          "midi": 45,
          "name": "A2",
          "ticks": 234596,
          "time": 183.27812500000002,
          "velocity": 0.7874015748031497
        },
        {
          "duration": 0.3984375,
          "durationTicks": 510,
          "midi": 29,
          "name": "F1",
          "ticks": 234976,
          "time": 183.575,
          "velocity": 0.7874015748031497
        },
        {
          "duration": 0.4140625,
          "durationTicks": 530,
          "midi": 33,
          "name": "A1",
          "ticks": 235568,
          "time": 184.0375,
          "velocity": 0.7874015748031497
        },
        {
          "duration": 0.2328124999999659,
          "durationTicks": 298,
          "midi": 36,
          "name": "C2",
          "ticks": 236112,
          "time": 184.4625,
          "velocity": 0.7874015748031497
        },
        {
          "duration": 0.07656250000002274,
          "durationTicks": 98,
          "midi": 31,
          "name": "G1",
          "ticks": 236722,
          "time": 184.93906249999998,
          "velocity": 0.7874015748031497
        },
        {
          "duration": 0.07187499999997726,
          "durationTicks": 92,
          "midi": 31,
          "name": "G1",
          "ticks": 236912,
          "time": 185.0875,
          "velocity": 0.7874015748031497
        },
        {
          "duration": 0.13437499999997726,
          "durationTicks": 172,
          "midi": 31,
          "name": "G1",
          "ticks": 237092,
          "time": 185.228125,
          "velocity": 0.7874015748031497
        },
        {
          "duration": 0.2906250000000057,
          "durationTicks": 372,
          "midi": 35,
          "name": "B1",
          "ticks": 237264,
          "time": 185.36249999999998,
          "velocity": 0.7874015748031497
        },
        {
          "duration": 0.22031250000000568,
          "durationTicks": 282,
          "midi": 38,
          "name": "D2",
          "ticks": 237664,
          "time": 185.67499999999998,
          "velocity": 0.7874015748031497
        },
        {
          "duration": 1.2249999999999943,
          "durationTicks": 1568,
          "midi": 36,
          "name": "C2",
          "ticks": 238048,
          "time": 185.975,
          "velocity": 0.7874015748031497
        },
        {
          "duration": 0.31718749999998863,
          "durationTicks": 406,
          "midi": 31,
          "name": "G1",
          "ticks": 240728,
          "time": 188.06875,
          "velocity": 0.7874015748031497
        },
        {
          "duration": 1.21875,
          "durationTicks": 1560,
          "midi": 36,
          "name": "C2",
          "ticks": 241134,
          "time": 188.38593749999998,
          "velocity": 0.7874015748031497
        },
        {
          "duration": 0.606250000000017,
          "durationTicks": 776,
          "midi": 31,
          "name": "G1",
          "ticks": 243064,
          "time": 189.89374999999998,
          "velocity": 0.7874015748031497
        },
        {
          "duration": 0.21718749999999432,
          "durationTicks": 278,
          "midi": 36,
          "name": "C2",
          "ticks": 243840,
          "time": 190.5,
          "velocity": 0.7874015748031497
        }
      ],
      "endOfTrackTicks": 245760
    },
    {
      "channel": 0,
      "controlChanges": {},
      "pitchBends": [],
      "instrument": {
        "family": "bass",
        "number": 36,
        "name": "slap bass 1"
      },
      "name": "",
      "notes": [
        {
          "duration": 0.15625,
          "durationTicks": 200,
          "midi": 29,
          "name": "F1",
          "ticks": 143064,
          "time": 111.76875,
          "velocity": 1
        },
        {
          "duration": 0.125,
          "durationTicks": 160,
          "midi": 29,
          "name": "F1",
          "ticks": 143432,
          "time": 112.05624999999999,
          "velocity": 1
        },
        {
          "duration": 0.24062499999999432,
          "durationTicks": 308,
          "midi": 33,
          "name": "A1",
          "ticks": 143628,
          "time": 112.209375,
          "velocity": 1
        },
        {
          "duration": 0.12812500000001137,
          "durationTicks": 164,
          "midi": 29,
          "name": "F1",
          "ticks": 144002,
          "time": 112.50156249999999,
          "velocity": 1
        },
        {
          "duration": 0.19374999999999432,
          "durationTicks": 248,
          "midi": 34,
          "name": "A#1",
          "ticks": 144214,
          "time": 112.6671875,
          "velocity": 1
        },
        {
          "duration": 0.24843750000000853,
          "durationTicks": 318,
          "midi": 46,
          "name": "A#2",
          "ticks": 144588,
          "time": 112.959375,
          "velocity": 1
        }
      ]
    },
    {
      "channel": 1,
      "controlChanges": {
        "7": [
          {
            "number": 7,
            "ticks": 1536,
            "time": 1.2,
            "value": 0.8661417322834646
          },
          {
            "number": 7,
            "ticks": 1536,
            "time": 1.2,
            "value": 0.8661417322834646
          }
        ]
      },
      "pitchBends": [],
      "instrument": {
        "family": "percussive",
        "number": 114,
        "name": "steel drums"
      },
      "name": "STEEL DRUM",
      "notes": [
        {
          "duration": 0.15625,
          "durationTicks": 200,
          "midi": 65,
          "name": "F4",
          "ticks": 14176,
          "time": 11.075,
          "velocity": 1
        },
        {
          "duration": 0.1687499999999993,
          "durationTicks": 216,
          "midi": 70,
          "name": "A#4",
          "ticks": 14384,
          "time": 11.2375,
          "velocity": 1
        },
        {
          "duration": 0.14687499999999964,
          "durationTicks": 188,
          "midi": 70,
          "name": "A#4",
          "ticks": 14750,
          "time": 11.5234375,
          "velocity": 1
        },
        {
          "duration": 0.10312500000000036,
          "durationTicks": 132,
          "midi": 70,
          "name": "A#4",
          "ticks": 15110,
          "time": 11.8046875,
          "velocity": 1
        },
        {
          "duration": 0.2062500000000007,
          "durationTicks": 264,
          "midi": 69,
          "name": "A4",
          "ticks": 15292,
          "time": 11.946874999999999,
          "velocity": 1
        },
        {
          "duration": 0.2234374999999993,
          "durationTicks": 286,
          "midi": 72,
          "name": "C5",
          "ticks": 15674,
          "time": 12.2453125,
          "velocity": 1
        },
        {
          "duration": 0.24062499999999964,
          "durationTicks": 308,
          "midi": 70,
          "name": "A#4",
          "ticks": 16066,
          "time": 12.5515625,
          "velocity": 1
        },
        {
          "duration": 0.17031249999999964,
          "durationTicks": 218,
          "midi": 65,
          "name": "F4",
          "ticks": 16456,
          "time": 12.85625,
          "velocity": 1
        },
        {
          "duration": 0.1296874999999993,
          "durationTicks": 166,
          "midi": 62,
          "name": "D4",
          "ticks": 17228,
          "time": 13.459375,
          "velocity": 1
        },
        {
          "duration": 0.15624999999999822,
          "durationTicks": 200,
          "midi": 65,
          "name": "F4",
          "ticks": 17456,
          "time": 13.637500000000001,
          "velocity": 1
        },
        {
          "duration": 0.15781249999999858,
          "durationTicks": 202,
          "midi": 65,
          "name": "F4",
          "ticks": 17822,
          "time": 13.9234375,
          "velocity": 1
        },
        {
          "duration": 0.1609374999999975,
          "durationTicks": 206,
          "midi": 65,
          "name": "F4",
          "ticks": 18176,
          "time": 14.200000000000001,
          "velocity": 1
        },
        {
          "duration": 0.2453125000000007,
          "durationTicks": 314,
          "midi": 60,
          "name": "C4",
          "ticks": 18382,
          "time": 14.360937499999999,
          "velocity": 1
        },
        {
          "duration": 0.203125,
          "durationTicks": 260,
          "midi": 65,
          "name": "F4",
          "ticks": 18768,
          "time": 14.6625,
          "velocity": 1
        },
        {
          "duration": 0.34531250000000213,
          "durationTicks": 442,
          "midi": 62,
          "name": "D4",
          "ticks": 19132,
          "time": 14.946874999999999,
          "velocity": 1
        },
        {
          "duration": 0.13750000000000107,
          "durationTicks": 176,
          "midi": 65,
          "name": "F4",
          "ticks": 20320,
          "time": 15.874999999999998,
          "velocity": 1
        },
        {
          "duration": 0.1593750000000007,
          "durationTicks": 204,
          "midi": 70,
          "name": "A#4",
          "ticks": 20532,
          "time": 16.040625,
          "velocity": 1
        },
        {
          "duration": 0.078125,
          "durationTicks": 100,
          "midi": 70,
          "name": "A#4",
          "ticks": 20894,
          "time": 16.3234375,
          "velocity": 1
        },
        {
          "duration": 0.1921874999999993,
          "durationTicks": 246,
          "midi": 70,
          "name": "A#4",
          "ticks": 21090,
          "time": 16.4765625,
          "velocity": 1
        },
        {
          "duration": 0.1828125000000007,
          "durationTicks": 234,
          "midi": 69,
          "name": "A4",
          "ticks": 21470,
          "time": 16.7734375,
          "velocity": 1
        },
        {
          "duration": 0.19687499999999858,
          "durationTicks": 252,
          "midi": 72,
          "name": "C5",
          "ticks": 21856,
          "time": 17.075,
          "velocity": 1
        },
        {
          "duration": 0.24687500000000284,
          "durationTicks": 316,
          "midi": 70,
          "name": "A#4",
          "ticks": 22222,
          "time": 17.3609375,
          "velocity": 1
        },
        {
          "duration": 0.1906250000000007,
          "durationTicks": 244,
          "midi": 65,
          "name": "F4",
          "ticks": 22626,
          "time": 17.6765625,
          "velocity": 1
        },
        {
          "duration": 0.13750000000000284,
          "durationTicks": 176,
          "midi": 62,
          "name": "D4",
          "ticks": 23338,
          "time": 18.232812499999998,
          "velocity": 1
        },
        {
          "duration": 0.1609374999999993,
          "durationTicks": 206,
          "midi": 65,
          "name": "F4",
          "ticks": 23576,
          "time": 18.41875,
          "velocity": 1
        },
        {
          "duration": 0.14687500000000142,
          "durationTicks": 188,
          "midi": 65,
          "name": "F4",
          "ticks": 23958,
          "time": 18.717187499999998,
          "velocity": 1
        },
        {
          "duration": 0.1515625000000007,
          "durationTicks": 194,
          "midi": 65,
          "name": "F4",
          "ticks": 24326,
          "time": 19.0046875,
          "velocity": 1
        },
        {
          "duration": 0.21093750000000355,
          "durationTicks": 270,
          "midi": 60,
          "name": "C4",
          "ticks": 24538,
          "time": 19.170312499999998,
          "velocity": 1
        },
        {
          "duration": 0.21249999999999858,
          "durationTicks": 272,
          "midi": 65,
          "name": "F4",
          "ticks": 24912,
          "time": 19.4625,
          "velocity": 1
        },
        {
          "duration": 0.41249999999999787,
          "durationTicks": 528,
          "midi": 62,
          "name": "D4",
          "ticks": 25260,
          "time": 19.734375,
          "velocity": 1
        },
        {
          "duration": 0.13750000000000284,
          "durationTicks": 176,
          "midi": 67,
          "name": "G4",
          "ticks": 26432,
          "time": 20.65,
          "velocity": 1
        },
        {
          "duration": 0.16718749999999716,
          "durationTicks": 214,
          "midi": 70,
          "name": "A#4",
          "ticks": 26662,
          "time": 20.829687500000002,
          "velocity": 1
        },
        {
          "duration": 0.18124999999999858,
          "durationTicks": 232,
          "midi": 70,
          "name": "A#4",
          "ticks": 27040,
          "time": 21.125,
          "velocity": 1
        },
        {
          "duration": 0.13125000000000142,
          "durationTicks": 168,
          "midi": 67,
          "name": "G4",
          "ticks": 27408,
          "time": 21.412499999999998,
          "velocity": 1
        },
        {
          "duration": 0.2234374999999993,
          "durationTicks": 286,
          "midi": 65,
          "name": "F4",
          "ticks": 27610,
          "time": 21.5703125,
          "velocity": 1
        },
        {
          "duration": 0.19687499999999858,
          "durationTicks": 252,
          "midi": 70,
          "name": "A#4",
          "ticks": 27990,
          "time": 21.8671875,
          "velocity": 1
        },
        {
          "duration": 0.2390624999999993,
          "durationTicks": 306,
          "midi": 65,
          "name": "F4",
          "ticks": 28360,
          "time": 22.15625,
          "velocity": 1
        },
        {
          "duration": 0.18125000000000213,
          "durationTicks": 232,
          "midi": 70,
          "name": "A#4",
          "ticks": 28776,
          "time": 22.48125,
          "velocity": 1
        },
        {
          "duration": 0.11562500000000142,
          "durationTicks": 148,
          "midi": 72,
          "name": "C5",
          "ticks": 29532,
          "time": 23.071875,
          "velocity": 1
        },
        {
          "duration": 0.16093750000000284,
          "durationTicks": 206,
          "midi": 72,
          "name": "C5",
          "ticks": 29762,
          "time": 23.2515625,
          "velocity": 1
        },
        {
          "duration": 0.17656250000000284,
          "durationTicks": 226,
          "midi": 72,
          "name": "C5",
          "ticks": 30126,
          "time": 23.5359375,
          "velocity": 1
        },
        {
          "duration": 0.08281249999999929,
          "durationTicks": 106,
          "midi": 70,
          "name": "A#4",
          "ticks": 30474,
          "time": 23.8078125,
          "velocity": 1
        },
        {
          "duration": 0.03281250000000213,
          "durationTicks": 42,
          "midi": 72,
          "name": "C5",
          "ticks": 30648,
          "time": 23.943749999999998,
          "velocity": 1
        },
        {
          "duration": 0.1906250000000007,
          "durationTicks": 244,
          "midi": 74,
          "name": "D5",
          "ticks": 30690,
          "time": 23.9765625,
          "velocity": 1
        },
        {
          "duration": 0.20468750000000213,
          "durationTicks": 262,
          "midi": 72,
          "name": "C5",
          "ticks": 31058,
          "time": 24.264062499999998,
          "velocity": 1
        },
        {
          "duration": 0.27031250000000284,
          "durationTicks": 346,
          "midi": 70,
          "name": "A#4",
          "ticks": 31446,
          "time": 24.5671875,
          "velocity": 1
        },
        {
          "duration": 0.109375,
          "durationTicks": 140,
          "midi": 67,
          "name": "G4",
          "ticks": 32616,
          "time": 25.48125,
          "velocity": 1
        },
        {
          "duration": 0.17812500000000142,
          "durationTicks": 228,
          "midi": 70,
          "name": "A#4",
          "ticks": 32808,
          "time": 25.631249999999998,
          "velocity": 1
        },
        {
          "duration": 0.1906250000000007,
          "durationTicks": 244,
          "midi": 70,
          "name": "A#4",
          "ticks": 33174,
          "time": 25.9171875,
          "velocity": 1
        },
        {
          "duration": 0.12343749999999787,
          "durationTicks": 158,
          "midi": 67,
          "name": "G4",
          "ticks": 33538,
          "time": 26.2015625,
          "velocity": 1
        },
        {
          "duration": 0.24843750000000142,
          "durationTicks": 318,
          "midi": 65,
          "name": "F4",
          "ticks": 33738,
          "time": 26.357812499999998,
          "velocity": 1
        },
        {
          "duration": 0.20156250000000142,
          "durationTicks": 258,
          "midi": 70,
          "name": "A#4",
          "ticks": 34120,
          "time": 26.65625,
          "velocity": 1
        },
        {
          "duration": 0.2749999999999986,
          "durationTicks": 352,
          "midi": 65,
          "name": "F4",
          "ticks": 34496,
          "time": 26.95,
          "velocity": 1
        },
        {
          "duration": 0.19687499999999858,
          "durationTicks": 252,
          "midi": 70,
          "name": "A#4",
          "ticks": 34914,
          "time": 27.2765625,
          "velocity": 1
        },
        {
          "duration": 0.10624999999999929,
          "durationTicks": 136,
          "midi": 72,
          "name": "C5",
          "ticks": 35672,
          "time": 27.86875,
          "velocity": 1
        },
        {
          "duration": 0.15312500000000284,
          "durationTicks": 196,
          "midi": 72,
          "name": "C5",
          "ticks": 35898,
          "time": 28.045312499999998,
          "velocity": 1
        },
        {
          "duration": 0.1687499999999993,
          "durationTicks": 216,
          "midi": 72,
          "name": "C5",
          "ticks": 36264,
          "time": 28.33125,
          "velocity": 1
        },
        {
          "duration": 0.0859375,
          "durationTicks": 110,
          "midi": 70,
          "name": "A#4",
          "ticks": 36596,
          "time": 28.590625,
          "velocity": 1
        },
        {
          "duration": 0.03281250000000213,
          "durationTicks": 42,
          "midi": 72,
          "name": "C5",
          "ticks": 36794,
          "time": 28.745312499999997,
          "velocity": 1
        },
        {
          "duration": 0.1765624999999993,
          "durationTicks": 226,
          "midi": 74,
          "name": "D5",
          "ticks": 36836,
          "time": 28.778125,
          "velocity": 1
        },
        {
          "duration": 0.18124999999999858,
          "durationTicks": 232,
          "midi": 72,
          "name": "C5",
          "ticks": 37200,
          "time": 29.0625,
          "velocity": 1
        },
        {
          "duration": 0.24687500000000284,
          "durationTicks": 316,
          "midi": 70,
          "name": "A#4",
          "ticks": 37556,
          "time": 29.340624999999996,
          "velocity": 1
        },
        {
          "duration": 0.13281249999999645,
          "durationTicks": 170,
          "midi": 74,
          "name": "D5",
          "ticks": 39208,
          "time": 30.63125,
          "velocity": 1
        },
        {
          "duration": 0.1593750000000007,
          "durationTicks": 204,
          "midi": 72,
          "name": "C5",
          "ticks": 39430,
          "time": 30.8046875,
          "velocity": 1
        },
        {
          "duration": 0.12499999999999645,
          "durationTicks": 160,
          "midi": 70,
          "name": "A#4",
          "ticks": 39760,
          "time": 31.0625,
          "velocity": 1
        },
        {
          "duration": 0.36718749999999645,
          "durationTicks": 470,
          "midi": 67,
          "name": "G4",
          "ticks": 39958,
          "time": 31.2171875,
          "velocity": 1
        },
        {
          "duration": 0.16093749999999574,
          "durationTicks": 206,
          "midi": 74,
          "name": "D5",
          "ticks": 42058,
          "time": 32.8578125,
          "velocity": 1
        },
        {
          "duration": 0.16875000000000284,
          "durationTicks": 216,
          "midi": 72,
          "name": "C5",
          "ticks": 42400,
          "time": 33.125,
          "velocity": 1
        },
        {
          "duration": 0.078125,
          "durationTicks": 100,
          "midi": 70,
          "name": "A#4",
          "ticks": 42744,
          "time": 33.39375,
          "velocity": 1
        },
        {
          "duration": 0.45781249999999574,
          "durationTicks": 586,
          "midi": 72,
          "name": "C5",
          "ticks": 42946,
          "time": 33.5515625,
          "velocity": 1
        },
        {
          "duration": 0.16093750000000284,
          "durationTicks": 206,
          "midi": 74,
          "name": "D5",
          "ticks": 45144,
          "time": 35.26875,
          "velocity": 1
        },
        {
          "duration": 0.1875,
          "durationTicks": 240,
          "midi": 72,
          "name": "C5",
          "ticks": 45484,
          "time": 35.534375,
          "velocity": 1
        },
        {
          "duration": 0.15781250000000568,
          "durationTicks": 202,
          "midi": 70,
          "name": "A#4",
          "ticks": 45816,
          "time": 35.793749999999996,
          "velocity": 1
        },
        {
          "duration": 0.29999999999999716,
          "durationTicks": 384,
          "midi": 67,
          "name": "G4",
          "ticks": 46032,
          "time": 35.9625,
          "velocity": 1
        },
        {
          "duration": 0.109375,
          "durationTicks": 140,
          "midi": 63,
          "name": "D#4",
          "ticks": 46424,
          "time": 36.26875,
          "velocity": 1
        },
        {
          "duration": 0.2031249999999929,
          "durationTicks": 260,
          "midi": 74,
          "name": "D5",
          "ticks": 46638,
          "time": 36.4359375,
          "velocity": 1
        },
        {
          "duration": 0.18124999999999858,
          "durationTicks": 232,
          "midi": 72,
          "name": "C5",
          "ticks": 47000,
          "time": 36.71875,
          "velocity": 1
        },
        {
          "duration": 0.13437499999999147,
          "durationTicks": 172,
          "midi": 70,
          "name": "A#4",
          "ticks": 47356,
          "time": 36.996875,
          "velocity": 1
        },
        {
          "duration": 0.25468749999999574,
          "durationTicks": 326,
          "midi": 67,
          "name": "G4",
          "ticks": 47580,
          "time": 37.171875,
          "velocity": 1
        },
        {
          "duration": 0.15312500000000284,
          "durationTicks": 196,
          "midi": 65,
          "name": "F4",
          "ticks": 47954,
          "time": 37.4640625,
          "velocity": 1
        },
        {
          "duration": 0.16874999999999574,
          "durationTicks": 216,
          "midi": 74,
          "name": "D5",
          "ticks": 48178,
          "time": 37.6390625,
          "velocity": 1
        },
        {
          "duration": 0.18593750000000142,
          "durationTicks": 238,
          "midi": 72,
          "name": "C5",
          "ticks": 48546,
          "time": 37.926562499999996,
          "velocity": 1
        },
        {
          "duration": 0.1015625,
          "durationTicks": 130,
          "midi": 70,
          "name": "A#4",
          "ticks": 48894,
          "time": 38.1984375,
          "velocity": 1
        },
        {
          "duration": 0.5015624999999915,
          "durationTicks": 642,
          "midi": 74,
          "name": "D5",
          "ticks": 49096,
          "time": 38.35625,
          "velocity": 1
        },
        {
          "duration": 0.18124999999999858,
          "durationTicks": 232,
          "midi": 74,
          "name": "D5",
          "ticks": 51278,
          "time": 40.0609375,
          "velocity": 1
        },
        {
          "duration": 0.19218750000000284,
          "durationTicks": 246,
          "midi": 72,
          "name": "C5",
          "ticks": 51640,
          "time": 40.34374999999999,
          "velocity": 1
        },
        {
          "duration": 0.11249999999999716,
          "durationTicks": 144,
          "midi": 70,
          "name": "A#4",
          "ticks": 51994,
          "time": 40.6203125,
          "velocity": 1
        },
        {
          "duration": 0.2421875000000071,
          "durationTicks": 310,
          "midi": 67,
          "name": "G4",
          "ticks": 52186,
          "time": 40.770312499999996,
          "velocity": 1
        },
        {
          "duration": 0.2109375,
          "durationTicks": 270,
          "midi": 70,
          "name": "A#4",
          "ticks": 52576,
          "time": 41.074999999999996,
          "velocity": 1
        },
        {
          "duration": 0.2734375000000071,
          "durationTicks": 350,
          "midi": 70,
          "name": "A#4",
          "ticks": 52978,
          "time": 41.389062499999994,
          "velocity": 1
        },
        {
          "duration": 0.11874999999999858,
          "durationTicks": 152,
          "midi": 67,
          "name": "G4",
          "ticks": 53328,
          "time": 41.6625,
          "velocity": 1
        },
        {
          "duration": 0.2265625000000071,
          "durationTicks": 290,
          "midi": 72,
          "name": "C5",
          "ticks": 53544,
          "time": 41.83125,
          "velocity": 1
        },
        {
          "duration": 0.20624999999999716,
          "durationTicks": 264,
          "midi": 72,
          "name": "C5",
          "ticks": 54308,
          "time": 42.428125,
          "velocity": 1
        },
        {
          "duration": 0.14687499999999432,
          "durationTicks": 188,
          "midi": 70,
          "name": "A#4",
          "ticks": 54710,
          "time": 42.7421875,
          "velocity": 1
        },
        {
          "duration": 0.0781249999999929,
          "durationTicks": 100,
          "midi": 72,
          "name": "C5",
          "ticks": 55046,
          "time": 43.0046875,
          "velocity": 1
        },
        {
          "duration": 0.03437500000000426,
          "durationTicks": 44,
          "midi": 72,
          "name": "C5",
          "ticks": 55258,
          "time": 43.170312499999994,
          "velocity": 1
        },
        {
          "duration": 0.1640625,
          "durationTicks": 210,
          "midi": 74,
          "name": "D5",
          "ticks": 55302,
          "time": 43.2046875,
          "velocity": 1
        },
        {
          "duration": 0.17812500000000142,
          "durationTicks": 228,
          "midi": 74,
          "name": "D5",
          "ticks": 55652,
          "time": 43.478125,
          "velocity": 1
        },
        {
          "duration": 0.14999999999999858,
          "durationTicks": 192,
          "midi": 72,
          "name": "C5",
          "ticks": 55880,
          "time": 43.65625,
          "velocity": 1
        },
        {
          "duration": 0.14687499999999432,
          "durationTicks": 188,
          "midi": 72,
          "name": "C5",
          "ticks": 56222,
          "time": 43.9234375,
          "velocity": 1
        },
        {
          "duration": 0.26875000000000426,
          "durationTicks": 344,
          "midi": 70,
          "name": "A#4",
          "ticks": 56410,
          "time": 44.07031249999999,
          "velocity": 1
        },
        {
          "duration": 0.1875,
          "durationTicks": 240,
          "midi": 74,
          "name": "D5",
          "ticks": 57376,
          "time": 44.824999999999996,
          "velocity": 1
        },
        {
          "duration": 0.18593750000000142,
          "durationTicks": 238,
          "midi": 72,
          "name": "C5",
          "ticks": 57754,
          "time": 45.1203125,
          "velocity": 1
        },
        {
          "duration": 0.11562499999999432,
          "durationTicks": 148,
          "midi": 70,
          "name": "A#4",
          "ticks": 58094,
          "time": 45.385937500000004,
          "velocity": 1
        },
        {
          "duration": 0.25468750000000284,
          "durationTicks": 326,
          "midi": 67,
          "name": "G4",
          "ticks": 58312,
          "time": 45.55625,
          "velocity": 1
        },
        {
          "duration": 0.140625,
          "durationTicks": 180,
          "midi": 65,
          "name": "F4",
          "ticks": 58686,
          "time": 45.848437499999996,
          "velocity": 1
        },
        {
          "duration": 0.1796875,
          "durationTicks": 230,
          "midi": 74,
          "name": "D5",
          "ticks": 58908,
          "time": 46.021875,
          "velocity": 1
        },
        {
          "duration": 0.19999999999999574,
          "durationTicks": 256,
          "midi": 72,
          "name": "C5",
          "ticks": 59280,
          "time": 46.3125,
          "velocity": 1
        },
        {
          "duration": 0.11093749999999147,
          "durationTicks": 142,
          "midi": 70,
          "name": "A#4",
          "ticks": 59624,
          "time": 46.581250000000004,
          "velocity": 1
        },
        {
          "duration": 0.25468750000000284,
          "durationTicks": 326,
          "midi": 67,
          "name": "G4",
          "ticks": 59848,
          "time": 46.756249999999994,
          "velocity": 1
        },
        {
          "duration": 0.15000000000000568,
          "durationTicks": 192,
          "midi": 65,
          "name": "F4",
          "ticks": 60242,
          "time": 47.0640625,
          "velocity": 1
        },
        {
          "duration": 0.1796874999999929,
          "durationTicks": 230,
          "midi": 74,
          "name": "D5",
          "ticks": 60470,
          "time": 47.2421875,
          "velocity": 1
        },
        {
          "duration": 0.19999999999999574,
          "durationTicks": 256,
          "midi": 72,
          "name": "C5",
          "ticks": 60824,
          "time": 47.518750000000004,
          "velocity": 1
        },
        {
          "duration": 0.10000000000000142,
          "durationTicks": 128,
          "midi": 70,
          "name": "A#4",
          "ticks": 61174,
          "time": 47.7921875,
          "velocity": 1
        },
        {
          "duration": 0.5249999999999986,
          "durationTicks": 672,
          "midi": 70,
          "name": "A#4",
          "ticks": 61404,
          "time": 47.971875,
          "velocity": 1
        },
        {
          "duration": 0.09531249999999858,
          "durationTicks": 122,
          "midi": 62,
          "name": "D4",
          "ticks": 67952,
          "time": 53.0875,
          "velocity": 1
        },
        {
          "duration": 0.09531249999999858,
          "durationTicks": 122,
          "midi": 70,
          "name": "A#4",
          "ticks": 67952,
          "time": 53.0875,
          "velocity": 1
        },
        {
          "duration": 0.17500000000000426,
          "durationTicks": 224,
          "midi": 62,
          "name": "D4",
          "ticks": 68160,
          "time": 53.25,
          "velocity": 1
        },
        {
          "duration": 0.17500000000000426,
          "durationTicks": 224,
          "midi": 70,
          "name": "A#4",
          "ticks": 68160,
          "time": 53.25,
          "velocity": 1
        },
        {
          "duration": 0.16249999999999432,
          "durationTicks": 208,
          "midi": 62,
          "name": "D4",
          "ticks": 68538,
          "time": 53.5453125,
          "velocity": 1
        },
        {
          "duration": 0.16249999999999432,
          "durationTicks": 208,
          "midi": 70,
          "name": "A#4",
          "ticks": 68538,
          "time": 53.5453125,
          "velocity": 1
        },
        {
          "duration": 0.12968750000000995,
          "durationTicks": 166,
          "midi": 62,
          "name": "D4",
          "ticks": 68878,
          "time": 53.810937499999994,
          "velocity": 1
        },
        {
          "duration": 0.12968750000000995,
          "durationTicks": 166,
          "midi": 70,
          "name": "A#4",
          "ticks": 68878,
          "time": 53.810937499999994,
          "velocity": 1
        },
        {
          "duration": 0.21249999999999858,
          "durationTicks": 272,
          "midi": 60,
          "name": "C4",
          "ticks": 69082,
          "time": 53.9703125,
          "velocity": 1
        },
        {
          "duration": 0.21249999999999858,
          "durationTicks": 272,
          "midi": 69,
          "name": "A4",
          "ticks": 69082,
          "time": 53.9703125,
          "velocity": 1
        },
        {
          "duration": 0.1796875,
          "durationTicks": 230,
          "midi": 63,
          "name": "D#4",
          "ticks": 69472,
          "time": 54.275,
          "velocity": 1
        },
        {
          "duration": 0.1796875,
          "durationTicks": 230,
          "midi": 72,
          "name": "C5",
          "ticks": 69472,
          "time": 54.275,
          "velocity": 1
        },
        {
          "duration": 0.24687500000000284,
          "durationTicks": 316,
          "midi": 62,
          "name": "D4",
          "ticks": 69842,
          "time": 54.5640625,
          "velocity": 1
        },
        {
          "duration": 0.24687500000000284,
          "durationTicks": 316,
          "midi": 70,
          "name": "A#4",
          "ticks": 69842,
          "time": 54.5640625,
          "velocity": 1
        },
        {
          "duration": 0.22499999999999432,
          "durationTicks": 288,
          "midi": 65,
          "name": "F4",
          "ticks": 70244,
          "time": 54.878125000000004,
          "velocity": 1
        },
        {
          "duration": 0.22499999999999432,
          "durationTicks": 288,
          "midi": 58,
          "name": "A#3",
          "ticks": 70244,
          "time": 54.878125000000004,
          "velocity": 1
        },
        {
          "duration": 0.08906250000000426,
          "durationTicks": 114,
          "midi": 65,
          "name": "F4",
          "ticks": 71016,
          "time": 55.481249999999996,
          "velocity": 1
        },
        {
          "duration": 0.13437499999999858,
          "durationTicks": 172,
          "midi": 65,
          "name": "F4",
          "ticks": 71232,
          "time": 55.65,
          "velocity": 1
        },
        {
          "duration": 0.14531250000000284,
          "durationTicks": 186,
          "midi": 65,
          "name": "F4",
          "ticks": 71600,
          "time": 55.9375,
          "velocity": 1
        },
        {
          "duration": 0.15937499999999716,
          "durationTicks": 204,
          "midi": 65,
          "name": "F4",
          "ticks": 71952,
          "time": 56.2125,
          "velocity": 1
        },
        {
          "duration": 0.20625000000000426,
          "durationTicks": 264,
          "midi": 60,
          "name": "C4",
          "ticks": 72156,
          "time": 56.371874999999996,
          "velocity": 1
        },
        {
          "duration": 0.1796875,
          "durationTicks": 230,
          "midi": 65,
          "name": "F4",
          "ticks": 72528,
          "time": 56.6625,
          "velocity": 1
        },
        {
          "duration": 0.3453124999999986,
          "durationTicks": 442,
          "midi": 62,
          "name": "D4",
          "ticks": 72870,
          "time": 56.9296875,
          "velocity": 1
        },
        {
          "duration": 0.07187499999999147,
          "durationTicks": 92,
          "midi": 62,
          "name": "D4",
          "ticks": 74120,
          "time": 57.90625,
          "velocity": 1
        },
        {
          "duration": 0.07187499999999147,
          "durationTicks": 92,
          "midi": 70,
          "name": "A#4",
          "ticks": 74120,
          "time": 57.90625,
          "velocity": 1
        },
        {
          "duration": 0.17812500000000142,
          "durationTicks": 228,
          "midi": 62,
          "name": "D4",
          "ticks": 74318,
          "time": 58.0609375,
          "velocity": 1
        },
        {
          "duration": 0.17812500000000142,
          "durationTicks": 228,
          "midi": 70,
          "name": "A#4",
          "ticks": 74318,
          "time": 58.0609375,
          "velocity": 1
        },
        {
          "duration": 0.1640625,
          "durationTicks": 210,
          "midi": 62,
          "name": "D4",
          "ticks": 74702,
          "time": 58.3609375,
          "velocity": 1
        },
        {
          "duration": 0.1640625,
          "durationTicks": 210,
          "midi": 70,
          "name": "A#4",
          "ticks": 74702,
          "time": 58.3609375,
          "velocity": 1
        },
        {
          "duration": 0.1249999999999929,
          "durationTicks": 160,
          "midi": 62,
          "name": "D4",
          "ticks": 75056,
          "time": 58.6375,
          "velocity": 1
        },
        {
          "duration": 0.1249999999999929,
          "durationTicks": 160,
          "midi": 70,
          "name": "A#4",
          "ticks": 75056,
          "time": 58.6375,
          "velocity": 1
        },
        {
          "duration": 0.1875,
          "durationTicks": 240,
          "midi": 60,
          "name": "C4",
          "ticks": 75264,
          "time": 58.8,
          "velocity": 1
        },
        {
          "duration": 0.1875,
          "durationTicks": 240,
          "midi": 69,
          "name": "A4",
          "ticks": 75264,
          "time": 58.8,
          "velocity": 1
        },
        {
          "duration": 0.18437499999999574,
          "durationTicks": 236,
          "midi": 63,
          "name": "D#4",
          "ticks": 75638,
          "time": 59.0921875,
          "velocity": 1
        },
        {
          "duration": 0.18437499999999574,
          "durationTicks": 236,
          "midi": 72,
          "name": "C5",
          "ticks": 75638,
          "time": 59.0921875,
          "velocity": 1
        },
        {
          "duration": 0.27031249999999574,
          "durationTicks": 346,
          "midi": 62,
          "name": "D4",
          "ticks": 76020,
          "time": 59.390625,
          "velocity": 1
        },
        {
          "duration": 0.27031249999999574,
          "durationTicks": 346,
          "midi": 70,
          "name": "A#4",
          "ticks": 76020,
          "time": 59.390625,
          "velocity": 1
        },
        {
          "duration": 0.22031249999999858,
          "durationTicks": 282,
          "midi": 58,
          "name": "A#3",
          "ticks": 76422,
          "time": 59.7046875,
          "velocity": 1
        },
        {
          "duration": 0.22031249999999858,
          "durationTicks": 282,
          "midi": 65,
          "name": "F4",
          "ticks": 76422,
          "time": 59.7046875,
          "velocity": 1
        },
        {
          "duration": 0.1015625,
          "durationTicks": 130,
          "midi": 65,
          "name": "F4",
          "ticks": 77174,
          "time": 60.2921875,
          "velocity": 1
        },
        {
          "duration": 0.12656249999999858,
          "durationTicks": 162,
          "midi": 65,
          "name": "F4",
          "ticks": 77416,
          "time": 60.481249999999996,
          "velocity": 1
        },
        {
          "duration": 0.13125000000000142,
          "durationTicks": 168,
          "midi": 65,
          "name": "F4",
          "ticks": 77768,
          "time": 60.75625,
          "velocity": 1
        },
        {
          "duration": 0.11250000000000426,
          "durationTicks": 144,
          "midi": 65,
          "name": "F4",
          "ticks": 78104,
          "time": 61.01875,
          "velocity": 1
        },
        {
          "duration": 0.17031250000000853,
          "durationTicks": 218,
          "midi": 60,
          "name": "C4",
          "ticks": 78288,
          "time": 61.162499999999994,
          "velocity": 1
        },
        {
          "duration": 0.18437500000000284,
          "durationTicks": 236,
          "midi": 60,
          "name": "C4",
          "ticks": 78670,
          "time": 61.46093749999999,
          "velocity": 1
        },
        {
          "duration": 0.3453125000000057,
          "durationTicks": 442,
          "midi": 62,
          "name": "D4",
          "ticks": 79048,
          "time": 61.756249999999994,
          "velocity": 1
        },
        {
          "duration": 0.13749999999998863,
          "durationTicks": 176,
          "midi": 67,
          "name": "G4",
          "ticks": 80216,
          "time": 62.66875,
          "velocity": 1
        },
        {
          "duration": 0.16875000000000284,
          "durationTicks": 216,
          "midi": 70,
          "name": "A#4",
          "ticks": 80432,
          "time": 62.8375,
          "velocity": 1
        },
        {
          "duration": 0.171875,
          "durationTicks": 220,
          "midi": 70,
          "name": "A#4",
          "ticks": 80814,
          "time": 63.1359375,
          "velocity": 1
        },
        {
          "duration": 0.11874999999999858,
          "durationTicks": 152,
          "midi": 67,
          "name": "G4",
          "ticks": 81184,
          "time": 63.425,
          "velocity": 1
        },
        {
          "duration": 0.2109375,
          "durationTicks": 270,
          "midi": 65,
          "name": "F4",
          "ticks": 81370,
          "time": 63.57031249999999,
          "velocity": 1
        },
        {
          "duration": 0.18593750000000142,
          "durationTicks": 238,
          "midi": 70,
          "name": "A#4",
          "ticks": 81732,
          "time": 63.853125,
          "velocity": 1
        },
        {
          "duration": 0.25468750000000284,
          "durationTicks": 326,
          "midi": 65,
          "name": "F4",
          "ticks": 82128,
          "time": 64.1625,
          "velocity": 1
        },
        {
          "duration": 0.20781250000000284,
          "durationTicks": 266,
          "midi": 70,
          "name": "A#4",
          "ticks": 82516,
          "time": 64.46562499999999,
          "velocity": 1
        },
        {
          "duration": 0.10781250000000853,
          "durationTicks": 138,
          "midi": 63,
          "name": "D#4",
          "ticks": 83288,
          "time": 65.06875,
          "velocity": 1
        },
        {
          "duration": 0.10781250000000853,
          "durationTicks": 138,
          "midi": 72,
          "name": "C5",
          "ticks": 83288,
          "time": 65.06875,
          "velocity": 1
        },
        {
          "duration": 0.15156249999998295,
          "durationTicks": 194,
          "midi": 63,
          "name": "D#4",
          "ticks": 83522,
          "time": 65.2515625,
          "velocity": 1
        },
        {
          "duration": 0.15156249999998295,
          "durationTicks": 194,
          "midi": 72,
          "name": "C5",
          "ticks": 83522,
          "time": 65.2515625,
          "velocity": 1
        },
        {
          "duration": 0.15937499999999716,
          "durationTicks": 204,
          "midi": 63,
          "name": "D#4",
          "ticks": 83878,
          "time": 65.5296875,
          "velocity": 1
        },
        {
          "duration": 0.15937499999999716,
          "durationTicks": 204,
          "midi": 72,
          "name": "C5",
          "ticks": 83878,
          "time": 65.5296875,
          "velocity": 1
        },
        {
          "duration": 0.07343749999999716,
          "durationTicks": 94,
          "midi": 62,
          "name": "D4",
          "ticks": 84214,
          "time": 65.7921875,
          "velocity": 1
        },
        {
          "duration": 0.07343749999999716,
          "durationTicks": 94,
          "midi": 70,
          "name": "A#4",
          "ticks": 84214,
          "time": 65.7921875,
          "velocity": 1
        },
        {
          "duration": 0.046875,
          "durationTicks": 60,
          "midi": 63,
          "name": "D#4",
          "ticks": 84400,
          "time": 65.9375,
          "velocity": 1
        },
        {
          "duration": 0.046875,
          "durationTicks": 60,
          "midi": 72,
          "name": "C5",
          "ticks": 84400,
          "time": 65.9375,
          "velocity": 1
        },
        {
          "duration": 0.18437500000000284,
          "durationTicks": 236,
          "midi": 65,
          "name": "F4",
          "ticks": 84460,
          "time": 65.984375,
          "velocity": 1
        },
        {
          "duration": 0.18437500000000284,
          "durationTicks": 236,
          "midi": 74,
          "name": "D5",
          "ticks": 84460,
          "time": 65.984375,
          "velocity": 1
        },
        {
          "duration": 0.18124999999999147,
          "durationTicks": 232,
          "midi": 63,
          "name": "D#4",
          "ticks": 84812,
          "time": 66.259375,
          "velocity": 1
        },
        {
          "duration": 0.18124999999999147,
          "durationTicks": 232,
          "midi": 72,
          "name": "C5",
          "ticks": 84812,
          "time": 66.259375,
          "velocity": 1
        },
        {
          "duration": 0.21406249999999716,
          "durationTicks": 274,
          "midi": 62,
          "name": "D4",
          "ticks": 85208,
          "time": 66.56875,
          "velocity": 1
        },
        {
          "duration": 0.21406249999999716,
          "durationTicks": 274,
          "midi": 70,
          "name": "A#4",
          "ticks": 85208,
          "time": 66.56875,
          "velocity": 1
        },
        {
          "duration": 0.12031249999999716,
          "durationTicks": 154,
          "midi": 67,
          "name": "G4",
          "ticks": 86380,
          "time": 67.484375,
          "velocity": 1
        },
        {
          "duration": 0.1640625,
          "durationTicks": 210,
          "midi": 70,
          "name": "A#4",
          "ticks": 86568,
          "time": 67.63125,
          "velocity": 1
        },
        {
          "duration": 0.19843749999999716,
          "durationTicks": 254,
          "midi": 70,
          "name": "A#4",
          "ticks": 86946,
          "time": 67.9265625,
          "velocity": 1
        },
        {
          "duration": 0.13593749999999716,
          "durationTicks": 174,
          "midi": 67,
          "name": "G4",
          "ticks": 87314,
          "time": 68.2140625,
          "velocity": 1
        },
        {
          "duration": 0.25468750000000284,
          "durationTicks": 326,
          "midi": 65,
          "name": "F4",
          "ticks": 87510,
          "time": 68.3671875,
          "velocity": 1
        },
        {
          "duration": 0.22968749999999716,
          "durationTicks": 294,
          "midi": 70,
          "name": "A#4",
          "ticks": 87906,
          "time": 68.6765625,
          "velocity": 1
        },
        {
          "duration": 0.23281249999999432,
          "durationTicks": 298,
          "midi": 65,
          "name": "F4",
          "ticks": 88290,
          "time": 68.9765625,
          "velocity": 1
        },
        {
          "duration": 0.20624999999999716,
          "durationTicks": 264,
          "midi": 70,
          "name": "A#4",
          "ticks": 88682,
          "time": 69.2828125,
          "velocity": 1
        },
        {
          "duration": 0.22500000000000853,
          "durationTicks": 288,
          "midi": 74,
          "name": "D5",
          "ticks": 91762,
          "time": 71.68906249999999,
          "velocity": 1
        },
        {
          "duration": 0.19843749999999716,
          "durationTicks": 254,
          "midi": 70,
          "name": "A#4",
          "ticks": 92168,
          "time": 72.00625,
          "velocity": 1
        },
        {
          "duration": 0.17656250000000284,
          "durationTicks": 226,
          "midi": 74,
          "name": "D5",
          "ticks": 92904,
          "time": 72.58125,
          "velocity": 1
        },
        {
          "duration": 0.17812499999999432,
          "durationTicks": 228,
          "midi": 72,
          "name": "C5",
          "ticks": 93130,
          "time": 72.7578125,
          "velocity": 1
        },
        {
          "duration": 0.11406250000000284,
          "durationTicks": 146,
          "midi": 70,
          "name": "A#4",
          "ticks": 93474,
          "time": 73.0265625,
          "velocity": 1
        },
        {
          "duration": 0.5250000000000057,
          "durationTicks": 672,
          "midi": 67,
          "name": "G4",
          "ticks": 93698,
          "time": 73.2015625,
          "velocity": 1
        },
        {
          "duration": 0.15781250000000568,
          "durationTicks": 202,
          "midi": 74,
          "name": "D5",
          "ticks": 95802,
          "time": 74.84531249999999,
          "velocity": 1
        },
        {
          "duration": 0.18906250000000568,
          "durationTicks": 242,
          "midi": 72,
          "name": "C5",
          "ticks": 96172,
          "time": 75.13437499999999,
          "velocity": 1
        },
        {
          "duration": 0.07656250000000853,
          "durationTicks": 98,
          "midi": 70,
          "name": "A#4",
          "ticks": 96528,
          "time": 75.4125,
          "velocity": 1
        },
        {
          "duration": 0.5687500000000085,
          "durationTicks": 728,
          "midi": 72,
          "name": "C5",
          "ticks": 96744,
          "time": 75.58125,
          "velocity": 1
        },
        {
          "duration": 0.1875,
          "durationTicks": 240,
          "midi": 74,
          "name": "D5",
          "ticks": 98874,
          "time": 77.2453125,
          "velocity": 1
        },
        {
          "duration": 0.19843750000001137,
          "durationTicks": 254,
          "midi": 72,
          "name": "C5",
          "ticks": 99248,
          "time": 77.5375,
          "velocity": 1
        },
        {
          "duration": 0.14531250000000284,
          "durationTicks": 186,
          "midi": 70,
          "name": "A#4",
          "ticks": 99612,
          "time": 77.82187499999999,
          "velocity": 1
        },
        {
          "duration": 0.23124999999998863,
          "durationTicks": 296,
          "midi": 67,
          "name": "G4",
          "ticks": 99816,
          "time": 77.98125,
          "velocity": 1
        },
        {
          "duration": 0.10312499999999147,
          "durationTicks": 132,
          "midi": 63,
          "name": "D#4",
          "ticks": 100176,
          "time": 78.2625,
          "velocity": 1
        },
        {
          "duration": 0.21250000000000568,
          "durationTicks": 272,
          "midi": 74,
          "name": "D5",
          "ticks": 100394,
          "time": 78.4328125,
          "velocity": 1
        },
        {
          "duration": 0.18125000000000568,
          "durationTicks": 232,
          "midi": 72,
          "name": "C5",
          "ticks": 100776,
          "time": 78.73125,
          "velocity": 1
        },
        {
          "duration": 0.1250000000000142,
          "durationTicks": 160,
          "midi": 70,
          "name": "A#4",
          "ticks": 101112,
          "time": 78.99374999999999,
          "velocity": 1
        },
        {
          "duration": 0.23281250000000853,
          "durationTicks": 298,
          "midi": 67,
          "name": "G4",
          "ticks": 101330,
          "time": 79.16406249999999,
          "velocity": 1
        },
        {
          "duration": 0.15937499999999716,
          "durationTicks": 204,
          "midi": 65,
          "name": "F4",
          "ticks": 101708,
          "time": 79.459375,
          "velocity": 1
        },
        {
          "duration": 0.17343749999999147,
          "durationTicks": 222,
          "midi": 74,
          "name": "D5",
          "ticks": 101954,
          "time": 79.6515625,
          "velocity": 1
        },
        {
          "duration": 0.19843750000001137,
          "durationTicks": 254,
          "midi": 72,
          "name": "C5",
          "ticks": 102314,
          "time": 79.9328125,
          "velocity": 1
        },
        {
          "duration": 0.10624999999998863,
          "durationTicks": 136,
          "midi": 70,
          "name": "A#4",
          "ticks": 102658,
          "time": 80.20156250000001,
          "velocity": 1
        },
        {
          "duration": 0.6156249999999943,
          "durationTicks": 788,
          "midi": 74,
          "name": "D5",
          "ticks": 102864,
          "time": 80.3625,
          "velocity": 1
        },
        {
          "duration": 0.17500000000001137,
          "durationTicks": 224,
          "midi": 74,
          "name": "D5",
          "ticks": 105056,
          "time": 82.07499999999999,
          "velocity": 1
        },
        {
          "duration": 0.20468750000000568,
          "durationTicks": 262,
          "midi": 72,
          "name": "C5",
          "ticks": 105428,
          "time": 82.365625,
          "velocity": 1
        },
        {
          "duration": 0.11562500000000853,
          "durationTicks": 148,
          "midi": 70,
          "name": "A#4",
          "ticks": 105758,
          "time": 82.6234375,
          "velocity": 1
        },
        {
          "duration": 0.20937499999999432,
          "durationTicks": 268,
          "midi": 67,
          "name": "G4",
          "ticks": 105976,
          "time": 82.79375,
          "velocity": 1
        },
        {
          "duration": 0.18281249999999716,
          "durationTicks": 234,
          "midi": 70,
          "name": "A#4",
          "ticks": 106338,
          "time": 83.0765625,
          "velocity": 1
        },
        {
          "duration": 0.2968750000000142,
          "durationTicks": 380,
          "midi": 70,
          "name": "A#4",
          "ticks": 106736,
          "time": 83.38749999999999,
          "velocity": 1
        },
        {
          "duration": 0.1156249999999801,
          "durationTicks": 148,
          "midi": 67,
          "name": "G4",
          "ticks": 107128,
          "time": 83.69375000000001,
          "velocity": 1
        },
        {
          "duration": 0.25468750000000284,
          "durationTicks": 326,
          "midi": 72,
          "name": "C5",
          "ticks": 107324,
          "time": 83.846875,
          "velocity": 1
        },
        {
          "duration": 0.19999999999998863,
          "durationTicks": 256,
          "midi": 72,
          "name": "C5",
          "ticks": 108106,
          "time": 84.4578125,
          "velocity": 1
        },
        {
          "duration": 0.16093750000000284,
          "durationTicks": 206,
          "midi": 70,
          "name": "A#4",
          "ticks": 108498,
          "time": 84.7640625,
          "velocity": 1
        },
        {
          "duration": 0.09062500000001705,
          "durationTicks": 116,
          "midi": 72,
          "name": "C5",
          "ticks": 108836,
          "time": 85.02812499999999,
          "velocity": 1
        },
        {
          "duration": 0.05468750000001421,
          "durationTicks": 70,
          "midi": 72,
          "name": "C5",
          "ticks": 108980,
          "time": 85.14062499999999,
          "velocity": 1
        },
        {
          "duration": 0.17343749999999147,
          "durationTicks": 222,
          "midi": 74,
          "name": "D5",
          "ticks": 109050,
          "time": 85.1953125,
          "velocity": 1
        },
        {
          "duration": 0.12968749999998863,
          "durationTicks": 166,
          "midi": 74,
          "name": "D5",
          "ticks": 109420,
          "time": 85.484375,
          "velocity": 1
        },
        {
          "duration": 0.17499999999998295,
          "durationTicks": 224,
          "midi": 72,
          "name": "C5",
          "ticks": 109648,
          "time": 85.66250000000001,
          "velocity": 1
        },
        {
          "duration": 0.13750000000000284,
          "durationTicks": 176,
          "midi": 72,
          "name": "C5",
          "ticks": 110020,
          "time": 85.953125,
          "velocity": 1
        },
        {
          "duration": 0.24843750000000853,
          "durationTicks": 318,
          "midi": 70,
          "name": "A#4",
          "ticks": 110208,
          "time": 86.1,
          "velocity": 1
        },
        {
          "duration": 0.19843749999999716,
          "durationTicks": 254,
          "midi": 74,
          "name": "D5",
          "ticks": 111138,
          "time": 86.8265625,
          "velocity": 1
        },
        {
          "duration": 0.19375000000002274,
          "durationTicks": 248,
          "midi": 72,
          "name": "C5",
          "ticks": 111530,
          "time": 87.13281249999999,
          "velocity": 1
        },
        {
          "duration": 0.13749999999998863,
          "durationTicks": 176,
          "midi": 70,
          "name": "A#4",
          "ticks": 111906,
          "time": 87.4265625,
          "velocity": 1
        },
        {
          "duration": 0.25468750000000284,
          "durationTicks": 326,
          "midi": 67,
          "name": "G4",
          "ticks": 112114,
          "time": 87.5890625,
          "velocity": 1
        },
        {
          "duration": 0.10312500000000568,
          "durationTicks": 132,
          "midi": 63,
          "name": "D#4",
          "ticks": 112524,
          "time": 87.909375,
          "velocity": 1
        },
        {
          "duration": 0.21562500000000284,
          "durationTicks": 276,
          "midi": 74,
          "name": "D5",
          "ticks": 112730,
          "time": 88.07031249999999,
          "velocity": 1
        },
        {
          "duration": 0.19375000000000853,
          "durationTicks": 248,
          "midi": 72,
          "name": "C5",
          "ticks": 113108,
          "time": 88.365625,
          "velocity": 1
        },
        {
          "duration": 0.12968750000001705,
          "durationTicks": 166,
          "midi": 70,
          "name": "A#4",
          "ticks": 113412,
          "time": 88.60312499999999,
          "velocity": 1
        },
        {
          "duration": 0.23281249999999432,
          "durationTicks": 298,
          "midi": 67,
          "name": "G4",
          "ticks": 113650,
          "time": 88.7890625,
          "velocity": 1
        },
        {
          "duration": 0.14999999999999147,
          "durationTicks": 192,
          "midi": 65,
          "name": "F4",
          "ticks": 114030,
          "time": 89.0859375,
          "velocity": 1
        },
        {
          "duration": 0.19374999999999432,
          "durationTicks": 248,
          "midi": 74,
          "name": "D5",
          "ticks": 114262,
          "time": 89.2671875,
          "velocity": 1
        },
        {
          "duration": 0.19374999999999432,
          "durationTicks": 248,
          "midi": 72,
          "name": "C5",
          "ticks": 114624,
          "time": 89.55,
          "velocity": 1
        },
        {
          "duration": 0.10156249999998579,
          "durationTicks": 130,
          "midi": 70,
          "name": "A#4",
          "ticks": 114970,
          "time": 89.8203125,
          "velocity": 1
        },
        {
          "duration": 0.6374999999999886,
          "durationTicks": 816,
          "midi": 70,
          "name": "A#4",
          "ticks": 115184,
          "time": 89.9875,
          "velocity": 1
        },
        {
          "duration": 0.18124999999999147,
          "durationTicks": 232,
          "midi": 74,
          "name": "D5",
          "ticks": 117316,
          "time": 91.653125,
          "velocity": 1
        },
        {
          "duration": 0.1953125,
          "durationTicks": 250,
          "midi": 72,
          "name": "C5",
          "ticks": 117696,
          "time": 91.95,
          "velocity": 1
        },
        {
          "duration": 0.09843750000000284,
          "durationTicks": 126,
          "midi": 70,
          "name": "A#4",
          "ticks": 118024,
          "time": 92.20625,
          "velocity": 1
        },
        {
          "duration": 0.6375000000000028,
          "durationTicks": 816,
          "midi": 72,
          "name": "C5",
          "ticks": 118248,
          "time": 92.38125,
          "velocity": 1
        },
        {
          "duration": 0.20156250000000853,
          "durationTicks": 258,
          "midi": 74,
          "name": "D5",
          "ticks": 120372,
          "time": 94.04062499999999,
          "velocity": 1
        },
        {
          "duration": 0.20468750000000568,
          "durationTicks": 262,
          "midi": 72,
          "name": "C5",
          "ticks": 120764,
          "time": 94.346875,
          "velocity": 1
        },
        {
          "duration": 0.13437499999999147,
          "durationTicks": 172,
          "midi": 70,
          "name": "A#4",
          "ticks": 121126,
          "time": 94.6296875,
          "velocity": 1
        },
        {
          "duration": 0.25468750000001705,
          "durationTicks": 326,
          "midi": 67,
          "name": "G4",
          "ticks": 121352,
          "time": 94.80624999999999,
          "velocity": 1
        },
        {
          "duration": 0.11249999999999716,
          "durationTicks": 144,
          "midi": 63,
          "name": "D#4",
          "ticks": 121746,
          "time": 95.1140625,
          "velocity": 1
        },
        {
          "duration": 0.20624999999999716,
          "durationTicks": 264,
          "midi": 74,
          "name": "D5",
          "ticks": 121964,
          "time": 95.284375,
          "velocity": 1
        },
        {
          "duration": 0.18281249999999716,
          "durationTicks": 234,
          "midi": 72,
          "name": "C5",
          "ticks": 122328,
          "time": 95.56875,
          "velocity": 1
        },
        {
          "duration": 0.17031249999999432,
          "durationTicks": 218,
          "midi": 70,
          "name": "A#4",
          "ticks": 122656,
          "time": 95.825,
          "velocity": 1
        },
        {
          "duration": 0.23281250000000853,
          "durationTicks": 298,
          "midi": 67,
          "name": "G4",
          "ticks": 122874,
          "time": 95.9953125,
          "velocity": 1
        },
        {
          "duration": 0.16562499999999147,
          "durationTicks": 212,
          "midi": 65,
          "name": "F4",
          "ticks": 123240,
          "time": 96.28125,
          "velocity": 1
        },
        {
          "duration": 0.21250000000000568,
          "durationTicks": 272,
          "midi": 74,
          "name": "D5",
          "ticks": 123488,
          "time": 96.475,
          "velocity": 1
        },
        {
          "duration": 0.19843750000001137,
          "durationTicks": 254,
          "midi": 72,
          "name": "C5",
          "ticks": 123860,
          "time": 96.76562499999999,
          "velocity": 1
        },
        {
          "duration": 0.11562499999999432,
          "durationTicks": 148,
          "midi": 70,
          "name": "A#4",
          "ticks": 124186,
          "time": 97.0203125,
          "velocity": 1
        },
        {
          "duration": 0.6375000000000028,
          "durationTicks": 816,
          "midi": 74,
          "name": "D5",
          "ticks": 124398,
          "time": 97.1859375,
          "velocity": 1
        },
        {
          "duration": 0.20937500000000853,
          "durationTicks": 268,
          "midi": 74,
          "name": "D5",
          "ticks": 126572,
          "time": 98.88437499999999,
          "velocity": 1
        },
        {
          "duration": 0.20468750000000568,
          "durationTicks": 262,
          "midi": 72,
          "name": "C5",
          "ticks": 126944,
          "time": 99.175,
          "velocity": 1
        },
        {
          "duration": 0.11249999999999716,
          "durationTicks": 144,
          "midi": 70,
          "name": "A#4",
          "ticks": 127266,
          "time": 99.4265625,
          "velocity": 1
        },
        {
          "duration": 0.2109375,
          "durationTicks": 270,
          "midi": 67,
          "name": "G4",
          "ticks": 127474,
          "time": 99.5890625,
          "velocity": 1
        },
        {
          "duration": 0.19374999999999432,
          "durationTicks": 248,
          "midi": 70,
          "name": "A#4",
          "ticks": 127860,
          "time": 99.890625,
          "velocity": 1
        },
        {
          "duration": 0.2890625,
          "durationTicks": 370,
          "midi": 70,
          "name": "A#4",
          "ticks": 128252,
          "time": 100.19687499999999,
          "velocity": 1
        },
        {
          "duration": 0.11875000000000568,
          "durationTicks": 152,
          "midi": 67,
          "name": "G4",
          "ticks": 128622,
          "time": 100.48593749999999,
          "velocity": 1
        },
        {
          "duration": 0.24531249999999716,
          "durationTicks": 314,
          "midi": 72,
          "name": "C5",
          "ticks": 128832,
          "time": 100.64999999999999,
          "velocity": 1
        },
        {
          "duration": 0.22499999999999432,
          "durationTicks": 288,
          "midi": 72,
          "name": "C5",
          "ticks": 129594,
          "time": 101.2453125,
          "velocity": 1
        },
        {
          "duration": 0.15781250000000568,
          "durationTicks": 202,
          "midi": 70,
          "name": "A#4",
          "ticks": 129986,
          "time": 101.55156249999999,
          "velocity": 1
        },
        {
          "duration": 0.09375,
          "durationTicks": 120,
          "midi": 72,
          "name": "C5",
          "ticks": 130326,
          "time": 101.8171875,
          "velocity": 1
        },
        {
          "duration": 0.15156250000001137,
          "durationTicks": 194,
          "midi": 74,
          "name": "D5",
          "ticks": 130544,
          "time": 101.9875,
          "velocity": 1
        },
        {
          "duration": 0.13124999999999432,
          "durationTicks": 168,
          "midi": 74,
          "name": "D5",
          "ticks": 130904,
          "time": 102.26875,
          "velocity": 1
        },
        {
          "duration": 0.17499999999999716,
          "durationTicks": 224,
          "midi": 72,
          "name": "C5",
          "ticks": 131130,
          "time": 102.4453125,
          "velocity": 1
        },
        {
          "duration": 0.15312500000000284,
          "durationTicks": 196,
          "midi": 72,
          "name": "C5",
          "ticks": 131516,
          "time": 102.74687499999999,
          "velocity": 1
        },
        {
          "duration": 0.2578125,
          "durationTicks": 330,
          "midi": 70,
          "name": "A#4",
          "ticks": 131712,
          "time": 102.89999999999999,
          "velocity": 1
        },
        {
          "duration": 0.18593750000000853,
          "durationTicks": 238,
          "midi": 74,
          "name": "D5",
          "ticks": 132720,
          "time": 103.6875,
          "velocity": 1
        },
        {
          "duration": 0.18437499999998863,
          "durationTicks": 236,
          "midi": 72,
          "name": "C5",
          "ticks": 133080,
          "time": 103.96875,
          "velocity": 1
        },
        {
          "duration": 0.11562499999999432,
          "durationTicks": 148,
          "midi": 70,
          "name": "A#4",
          "ticks": 133414,
          "time": 104.2296875,
          "velocity": 1
        },
        {
          "duration": 0.23281249999999432,
          "durationTicks": 298,
          "midi": 67,
          "name": "G4",
          "ticks": 133634,
          "time": 104.4015625,
          "velocity": 1
        },
        {
          "duration": 0.07500000000000284,
          "durationTicks": 96,
          "midi": 63,
          "name": "D#4",
          "ticks": 134034,
          "time": 104.7140625,
          "velocity": 1
        },
        {
          "duration": 0.2031250000000142,
          "durationTicks": 260,
          "midi": 74,
          "name": "D5",
          "ticks": 134222,
          "time": 104.86093749999999,
          "velocity": 1
        },
        {
          "duration": 0.20624999999999716,
          "durationTicks": 264,
          "midi": 72,
          "name": "C5",
          "ticks": 134602,
          "time": 105.1578125,
          "velocity": 1
        },
        {
          "duration": 0.11874999999999147,
          "durationTicks": 152,
          "midi": 70,
          "name": "A#4",
          "ticks": 134946,
          "time": 105.4265625,
          "velocity": 1
        },
        {
          "duration": 0.23281250000000853,
          "durationTicks": 298,
          "midi": 67,
          "name": "G4",
          "ticks": 135162,
          "time": 105.59531249999999,
          "velocity": 1
        },
        {
          "duration": 0.13750000000001705,
          "durationTicks": 176,
          "midi": 65,
          "name": "F4",
          "ticks": 135530,
          "time": 105.88281249999999,
          "velocity": 1
        },
        {
          "duration": 0.20624999999999716,
          "durationTicks": 264,
          "midi": 74,
          "name": "D5",
          "ticks": 135750,
          "time": 106.0546875,
          "velocity": 1
        },
        {
          "duration": 0.16562499999999147,
          "durationTicks": 212,
          "midi": 72,
          "name": "C5",
          "ticks": 136120,
          "time": 106.34375,
          "velocity": 1
        },
        {
          "duration": 0.10468750000001137,
          "durationTicks": 134,
          "midi": 70,
          "name": "A#4",
          "ticks": 136448,
          "time": 106.6,
          "velocity": 1
        },
        {
          "duration": 0.6375000000000028,
          "durationTicks": 816,
          "midi": 70,
          "name": "A#4",
          "ticks": 136696,
          "time": 106.79375,
          "velocity": 1
        },
        {
          "duration": 0.13906250000000853,
          "durationTicks": 178,
          "midi": 65,
          "name": "F4",
          "ticks": 139392,
          "time": 108.89999999999999,
          "velocity": 1
        },
        {
          "duration": 0.17656250000000284,
          "durationTicks": 226,
          "midi": 69,
          "name": "A4",
          "ticks": 139608,
          "time": 109.06875,
          "velocity": 1
        },
        {
          "duration": 0.14531250000000284,
          "durationTicks": 186,
          "midi": 69,
          "name": "A4",
          "ticks": 139998,
          "time": 109.3734375,
          "velocity": 1
        },
        {
          "duration": 0.09218750000000853,
          "durationTicks": 118,
          "midi": 69,
          "name": "A4",
          "ticks": 140342,
          "time": 109.64218749999999,
          "velocity": 1
        },
        {
          "duration": 0.2187500000000142,
          "durationTicks": 280,
          "midi": 69,
          "name": "A4",
          "ticks": 140570,
          "time": 109.82031249999999,
          "velocity": 1
        },
        {
          "duration": 0.08906249999999716,
          "durationTicks": 114,
          "midi": 65,
          "name": "F4",
          "ticks": 140936,
          "time": 110.10624999999999,
          "velocity": 1
        },
        {
          "duration": 0.15625,
          "durationTicks": 200,
          "midi": 65,
          "name": "F4",
          "ticks": 141160,
          "time": 110.28125,
          "velocity": 1
        },
        {
          "duration": 0.140625,
          "durationTicks": 180,
          "midi": 65,
          "name": "F4",
          "ticks": 141518,
          "time": 110.5609375,
          "velocity": 1
        },
        {
          "duration": 0.09531249999999147,
          "durationTicks": 122,
          "midi": 65,
          "name": "F4",
          "ticks": 141864,
          "time": 110.83125,
          "velocity": 1
        },
        {
          "duration": 0.16093749999998863,
          "durationTicks": 206,
          "midi": 65,
          "name": "F4",
          "ticks": 142066,
          "time": 110.9890625,
          "velocity": 1
        },
        {
          "duration": 0.12656249999999147,
          "durationTicks": 162,
          "midi": 65,
          "name": "F4",
          "ticks": 142470,
          "time": 111.3046875,
          "velocity": 1
        },
        {
          "duration": 0.17656250000000284,
          "durationTicks": 226,
          "midi": 69,
          "name": "A4",
          "ticks": 142664,
          "time": 111.45625,
          "velocity": 1
        },
        {
          "duration": 0.14374999999999716,
          "durationTicks": 184,
          "midi": 69,
          "name": "A4",
          "ticks": 143050,
          "time": 111.7578125,
          "velocity": 1
        },
        {
          "duration": 0.09218750000000853,
          "durationTicks": 118,
          "midi": 69,
          "name": "A4",
          "ticks": 143396,
          "time": 112.02812499999999,
          "velocity": 1
        },
        {
          "duration": 0.20624999999999716,
          "durationTicks": 264,
          "midi": 69,
          "name": "A4",
          "ticks": 143608,
          "time": 112.19375000000001,
          "velocity": 1
        },
        {
          "duration": 0.08906249999999716,
          "durationTicks": 114,
          "midi": 65,
          "name": "F4",
          "ticks": 143968,
          "time": 112.47500000000001,
          "velocity": 1
        },
        {
          "duration": 0.15156249999999716,
          "durationTicks": 194,
          "midi": 65,
          "name": "F4",
          "ticks": 144198,
          "time": 112.6546875,
          "velocity": 1
        },
        {
          "duration": 0.13437500000000568,
          "durationTicks": 172,
          "midi": 65,
          "name": "F4",
          "ticks": 144560,
          "time": 112.93749999999999,
          "velocity": 1
        },
        {
          "duration": 0.08906249999999716,
          "durationTicks": 114,
          "midi": 65,
          "name": "F4",
          "ticks": 144888,
          "time": 113.19375,
          "velocity": 1
        },
        {
          "duration": 0.16093750000001705,
          "durationTicks": 206,
          "midi": 65,
          "name": "F4",
          "ticks": 145106,
          "time": 113.36406249999999,
          "velocity": 1
        },
        {
          "duration": 0.10156250000001421,
          "durationTicks": 130,
          "midi": 65,
          "name": "F4",
          "ticks": 145512,
          "time": 113.68124999999999,
          "velocity": 1
        },
        {
          "duration": 0.17343750000000568,
          "durationTicks": 222,
          "midi": 67,
          "name": "G4",
          "ticks": 145706,
          "time": 113.83281249999999,
          "velocity": 1
        },
        {
          "duration": 0.1484375000000142,
          "durationTicks": 190,
          "midi": 67,
          "name": "G4",
          "ticks": 146096,
          "time": 114.13749999999999,
          "velocity": 1
        },
        {
          "duration": 0.11093749999997726,
          "durationTicks": 142,
          "midi": 67,
          "name": "G4",
          "ticks": 146458,
          "time": 114.42031250000001,
          "velocity": 1
        },
        {
          "duration": 0.234375,
          "durationTicks": 300,
          "midi": 70,
          "name": "A#4",
          "ticks": 146660,
          "time": 114.57812499999999,
          "velocity": 1
        },
        {
          "duration": 0.14687499999999432,
          "durationTicks": 188,
          "midi": 67,
          "name": "G4",
          "ticks": 147066,
          "time": 114.8953125,
          "velocity": 1
        },
        {
          "duration": 0.16874999999998863,
          "durationTicks": 216,
          "midi": 65,
          "name": "F4",
          "ticks": 147298,
          "time": 115.07656250000001,
          "velocity": 1
        },
        {
          "duration": 0.15468750000000853,
          "durationTicks": 198,
          "midi": 65,
          "name": "F4",
          "ticks": 147658,
          "time": 115.3578125,
          "velocity": 1
        },
        {
          "duration": 0.11874999999999147,
          "durationTicks": 152,
          "midi": 65,
          "name": "F4",
          "ticks": 148000,
          "time": 115.625,
          "velocity": 1
        },
        {
          "duration": 0.20000000000000284,
          "durationTicks": 256,
          "midi": 70,
          "name": "A#4",
          "ticks": 148194,
          "time": 115.7765625,
          "velocity": 1
        },
        {
          "duration": 0.14374999999998295,
          "durationTicks": 184,
          "midi": 70,
          "name": "A#4",
          "ticks": 148786,
          "time": 116.2390625,
          "velocity": 1
        },
        {
          "duration": 0.16875000000000284,
          "durationTicks": 216,
          "midi": 69,
          "name": "A4",
          "ticks": 148984,
          "time": 116.39375,
          "velocity": 1
        },
        {
          "duration": 0.13750000000000284,
          "durationTicks": 176,
          "midi": 69,
          "name": "A4",
          "ticks": 149352,
          "time": 116.68124999999999,
          "velocity": 1
        },
        {
          "duration": 0.10781249999999432,
          "durationTicks": 138,
          "midi": 70,
          "name": "A#4",
          "ticks": 149566,
          "time": 116.8484375,
          "velocity": 1
        },
        {
          "duration": 0.19218750000000284,
          "durationTicks": 246,
          "midi": 72,
          "name": "C5",
          "ticks": 149766,
          "time": 117.00468749999999,
          "velocity": 1
        },
        {
          "duration": 0.17656250000000284,
          "durationTicks": 226,
          "midi": 70,
          "name": "A#4",
          "ticks": 150108,
          "time": 117.271875,
          "velocity": 1
        },
        {
          "duration": 0.22499999999999432,
          "durationTicks": 288,
          "midi": 70,
          "name": "A#4",
          "ticks": 150480,
          "time": 117.5625,
          "velocity": 1
        },
        {
          "duration": 0.08437500000000853,
          "durationTicks": 108,
          "midi": 65,
          "name": "F4",
          "ticks": 151722,
          "time": 118.53281249999999,
          "velocity": 1
        },
        {
          "duration": 0.17656250000001705,
          "durationTicks": 226,
          "midi": 69,
          "name": "A4",
          "ticks": 151904,
          "time": 118.67499999999998,
          "velocity": 1
        },
        {
          "duration": 0.15000000000000568,
          "durationTicks": 192,
          "midi": 69,
          "name": "A4",
          "ticks": 152292,
          "time": 118.97812499999999,
          "velocity": 1
        },
        {
          "duration": 0.09062500000001705,
          "durationTicks": 116,
          "midi": 69,
          "name": "A4",
          "ticks": 152630,
          "time": 119.24218749999999,
          "velocity": 1
        },
        {
          "duration": 0.24375000000000568,
          "durationTicks": 312,
          "midi": 69,
          "name": "A4",
          "ticks": 152846,
          "time": 119.41093749999999,
          "velocity": 1
        },
        {
          "duration": 0.08124999999999716,
          "durationTicks": 104,
          "midi": 65,
          "name": "F4",
          "ticks": 153216,
          "time": 119.69999999999999,
          "velocity": 1
        },
        {
          "duration": 0.16093750000000284,
          "durationTicks": 206,
          "midi": 65,
          "name": "F4",
          "ticks": 153426,
          "time": 119.86406249999999,
          "velocity": 1
        },
        {
          "duration": 0.13906250000000853,
          "durationTicks": 178,
          "midi": 65,
          "name": "F4",
          "ticks": 153794,
          "time": 120.15156249999998,
          "velocity": 1
        },
        {
          "duration": 0.07812499999998579,
          "durationTicks": 100,
          "midi": 65,
          "name": "F4",
          "ticks": 154150,
          "time": 120.4296875,
          "velocity": 1
        },
        {
          "duration": 0.17343750000000568,
          "durationTicks": 222,
          "midi": 65,
          "name": "F4",
          "ticks": 154334,
          "time": 120.57343749999998,
          "velocity": 1
        },
        {
          "duration": 0.11562499999999432,
          "durationTicks": 148,
          "midi": 65,
          "name": "F4",
          "ticks": 154750,
          "time": 120.8984375,
          "velocity": 1
        },
        {
          "duration": 0.1718750000000142,
          "durationTicks": 220,
          "midi": 69,
          "name": "A4",
          "ticks": 154964,
          "time": 121.06562499999998,
          "velocity": 1
        },
        {
          "duration": 0.15468749999999432,
          "durationTicks": 198,
          "midi": 69,
          "name": "A4",
          "ticks": 155350,
          "time": 121.3671875,
          "velocity": 1
        },
        {
          "duration": 0.09062500000000284,
          "durationTicks": 116,
          "midi": 69,
          "name": "A4",
          "ticks": 155698,
          "time": 121.6390625,
          "velocity": 1
        },
        {
          "duration": 0.21718750000000853,
          "durationTicks": 278,
          "midi": 69,
          "name": "A4",
          "ticks": 155906,
          "time": 121.80156249999999,
          "velocity": 1
        },
        {
          "duration": 0.08124999999999716,
          "durationTicks": 104,
          "midi": 65,
          "name": "F4",
          "ticks": 156274,
          "time": 122.0890625,
          "velocity": 1
        },
        {
          "duration": 0.14531250000000284,
          "durationTicks": 186,
          "midi": 65,
          "name": "F4",
          "ticks": 156482,
          "time": 122.25156249999999,
          "velocity": 1
        },
        {
          "duration": 0.13749999999998863,
          "durationTicks": 176,
          "midi": 65,
          "name": "F4",
          "ticks": 156858,
          "time": 122.5453125,
          "velocity": 1
        },
        {
          "duration": 0.08124999999999716,
          "durationTicks": 104,
          "midi": 65,
          "name": "F4",
          "ticks": 157186,
          "time": 122.8015625,
          "velocity": 1
        },
        {
          "duration": 0.17499999999999716,
          "durationTicks": 224,
          "midi": 65,
          "name": "F4",
          "ticks": 157384,
          "time": 122.95625,
          "velocity": 1
        },
        {
          "duration": 0.10781249999999432,
          "durationTicks": 138,
          "midi": 65,
          "name": "F4",
          "ticks": 157800,
          "time": 123.28125,
          "velocity": 1
        },
        {
          "duration": 0.16875000000000284,
          "durationTicks": 216,
          "midi": 67,
          "name": "G4",
          "ticks": 157996,
          "time": 123.434375,
          "velocity": 1
        },
        {
          "duration": 0.1484375,
          "durationTicks": 190,
          "midi": 67,
          "name": "G4",
          "ticks": 158372,
          "time": 123.72812499999999,
          "velocity": 1
        },
        {
          "duration": 0.1187500000000199,
          "durationTicks": 152,
          "midi": 67,
          "name": "G4",
          "ticks": 158750,
          "time": 124.02343749999999,
          "velocity": 1
        },
        {
          "duration": 0.22812500000000568,
          "durationTicks": 292,
          "midi": 70,
          "name": "A#4",
          "ticks": 158946,
          "time": 124.17656249999999,
          "velocity": 1
        },
        {
          "duration": 0.13749999999998863,
          "durationTicks": 176,
          "midi": 67,
          "name": "G4",
          "ticks": 159352,
          "time": 124.49375,
          "velocity": 1
        },
        {
          "duration": 0.15312500000001705,
          "durationTicks": 196,
          "midi": 65,
          "name": "F4",
          "ticks": 159584,
          "time": 124.67499999999998,
          "velocity": 1
        },
        {
          "duration": 0.1624999999999801,
          "durationTicks": 208,
          "midi": 65,
          "name": "F4",
          "ticks": 159952,
          "time": 124.9625,
          "velocity": 1
        },
        {
          "duration": 0.12656250000000568,
          "durationTicks": 162,
          "midi": 65,
          "name": "F4",
          "ticks": 160316,
          "time": 125.24687499999999,
          "velocity": 1
        },
        {
          "duration": 0.18437500000000284,
          "durationTicks": 236,
          "midi": 70,
          "name": "A#4",
          "ticks": 160504,
          "time": 125.39375,
          "velocity": 1
        },
        {
          "duration": 0.14375000000001137,
          "durationTicks": 184,
          "midi": 70,
          "name": "A#4",
          "ticks": 161090,
          "time": 125.85156249999999,
          "velocity": 1
        },
        {
          "duration": 0.25312499999999716,
          "durationTicks": 324,
          "midi": 69,
          "name": "A4",
          "ticks": 161292,
          "time": 126.00937499999999,
          "velocity": 1
        },
        {
          "duration": 0.23593749999999147,
          "durationTicks": 302,
          "midi": 70,
          "name": "A#4",
          "ticks": 161658,
          "time": 126.2953125,
          "velocity": 1
        },
        {
          "duration": 0.26093749999998295,
          "durationTicks": 334,
          "midi": 72,
          "name": "C5",
          "ticks": 162040,
          "time": 126.59375,
          "velocity": 1
        },
        {
          "duration": 0.21249999999999147,
          "durationTicks": 272,
          "midi": 70,
          "name": "A#4",
          "ticks": 162402,
          "time": 126.87656249999999,
          "velocity": 1
        },
        {
          "duration": 0.5921875000000085,
          "durationTicks": 758,
          "midi": 70,
          "name": "A#4",
          "ticks": 162788,
          "time": 127.178125,
          "velocity": 1
        },
        {
          "duration": 0.021875000000008527,
          "durationTicks": 28,
          "midi": 72,
          "name": "C5",
          "ticks": 163640,
          "time": 127.84374999999999,
          "velocity": 1
        },
        {
          "duration": 0.21718750000000853,
          "durationTicks": 278,
          "midi": 74,
          "name": "D5",
          "ticks": 163670,
          "time": 127.86718749999999,
          "velocity": 1
        },
        {
          "duration": 0.19999999999998863,
          "durationTicks": 256,
          "midi": 72,
          "name": "C5",
          "ticks": 163948,
          "time": 128.084375,
          "velocity": 1
        },
        {
          "duration": 0.21718750000002274,
          "durationTicks": 278,
          "midi": 70,
          "name": "A#4",
          "ticks": 164204,
          "time": 128.28437499999998,
          "velocity": 1
        },
        {
          "duration": 0.5703124999999716,
          "durationTicks": 730,
          "midi": 67,
          "name": "G4",
          "ticks": 164482,
          "time": 128.5015625,
          "velocity": 1
        },
        {
          "duration": 0.17500000000001137,
          "durationTicks": 224,
          "midi": 74,
          "name": "D5",
          "ticks": 166484,
          "time": 130.06562499999998,
          "velocity": 1
        },
        {
          "duration": 0.203125,
          "durationTicks": 260,
          "midi": 72,
          "name": "C5",
          "ticks": 166854,
          "time": 130.35468749999998,
          "velocity": 1
        },
        {
          "duration": 0.11406250000001705,
          "durationTicks": 146,
          "midi": 70,
          "name": "A#4",
          "ticks": 167206,
          "time": 130.6296875,
          "velocity": 1
        },
        {
          "duration": 0.6374999999999886,
          "durationTicks": 816,
          "midi": 72,
          "name": "C5",
          "ticks": 167400,
          "time": 130.78125,
          "velocity": 1
        },
        {
          "duration": 0.18281249999998295,
          "durationTicks": 234,
          "midi": 74,
          "name": "D5",
          "ticks": 169552,
          "time": 132.4625,
          "velocity": 1
        },
        {
          "duration": 0.18437500000001705,
          "durationTicks": 236,
          "midi": 72,
          "name": "C5",
          "ticks": 169916,
          "time": 132.746875,
          "velocity": 1
        },
        {
          "duration": 0.11406249999998863,
          "durationTicks": 146,
          "midi": 70,
          "name": "A#4",
          "ticks": 170240,
          "time": 133,
          "velocity": 1
        },
        {
          "duration": 0.25468749999998863,
          "durationTicks": 326,
          "midi": 67,
          "name": "G4",
          "ticks": 170458,
          "time": 133.1703125,
          "velocity": 1
        },
        {
          "duration": 0.09531249999997726,
          "durationTicks": 122,
          "midi": 63,
          "name": "D#4",
          "ticks": 170850,
          "time": 133.4765625,
          "velocity": 1
        },
        {
          "duration": 0.21875,
          "durationTicks": 280,
          "midi": 74,
          "name": "D5",
          "ticks": 171048,
          "time": 133.63125,
          "velocity": 1
        },
        {
          "duration": 0.1796875,
          "durationTicks": 230,
          "midi": 72,
          "name": "C5",
          "ticks": 171428,
          "time": 133.928125,
          "velocity": 1
        },
        {
          "duration": 0.12812499999998295,
          "durationTicks": 164,
          "midi": 70,
          "name": "A#4",
          "ticks": 171754,
          "time": 134.1828125,
          "velocity": 1
        },
        {
          "duration": 0.25468749999998863,
          "durationTicks": 326,
          "midi": 67,
          "name": "G4",
          "ticks": 171978,
          "time": 134.3578125,
          "velocity": 1
        },
        {
          "duration": 0.13906249999999432,
          "durationTicks": 178,
          "midi": 65,
          "name": "F4",
          "ticks": 172368,
          "time": 134.6625,
          "velocity": 1
        },
        {
          "duration": 0.1875,
          "durationTicks": 240,
          "midi": 74,
          "name": "D5",
          "ticks": 172586,
          "time": 134.8328125,
          "velocity": 1
        },
        {
          "duration": 0.19999999999998863,
          "durationTicks": 256,
          "midi": 72,
          "name": "C5",
          "ticks": 172960,
          "time": 135.125,
          "velocity": 1
        },
        {
          "duration": 0.109375,
          "durationTicks": 140,
          "midi": 70,
          "name": "A#4",
          "ticks": 173308,
          "time": 135.396875,
          "velocity": 1
        },
        {
          "duration": 0.6140624999999886,
          "durationTicks": 786,
          "midi": 74,
          "name": "D5",
          "ticks": 173512,
          "time": 135.55625,
          "velocity": 1
        },
        {
          "duration": 0.18125000000000568,
          "durationTicks": 232,
          "midi": 74,
          "name": "D5",
          "ticks": 175706,
          "time": 137.2703125,
          "velocity": 1
        },
        {
          "duration": 0.18906250000000568,
          "durationTicks": 242,
          "midi": 72,
          "name": "C5",
          "ticks": 176064,
          "time": 137.54999999999998,
          "velocity": 1
        },
        {
          "duration": 0.11406250000001705,
          "durationTicks": 146,
          "midi": 70,
          "name": "A#4",
          "ticks": 176414,
          "time": 137.82343749999998,
          "velocity": 1
        },
        {
          "duration": 0.23593750000000568,
          "durationTicks": 302,
          "midi": 67,
          "name": "G4",
          "ticks": 176590,
          "time": 137.9609375,
          "velocity": 1
        },
        {
          "duration": 0.18593749999999432,
          "durationTicks": 238,
          "midi": 70,
          "name": "A#4",
          "ticks": 176988,
          "time": 138.271875,
          "velocity": 1
        },
        {
          "duration": 0.3046875,
          "durationTicks": 390,
          "midi": 70,
          "name": "A#4",
          "ticks": 177364,
          "time": 138.565625,
          "velocity": 1
        },
        {
          "duration": 0.11874999999997726,
          "durationTicks": 152,
          "midi": 67,
          "name": "G4",
          "ticks": 177754,
          "time": 138.8703125,
          "velocity": 1
        },
        {
          "duration": 0.2562499999999943,
          "durationTicks": 328,
          "midi": 72,
          "name": "C5",
          "ticks": 177976,
          "time": 139.04375,
          "velocity": 1
        },
        {
          "duration": 0.2109375,
          "durationTicks": 270,
          "midi": 72,
          "name": "C5",
          "ticks": 178730,
          "time": 139.6328125,
          "velocity": 1
        },
        {
          "duration": 0.16874999999998863,
          "durationTicks": 216,
          "midi": 70,
          "name": "A#4",
          "ticks": 179104,
          "time": 139.925,
          "velocity": 1
        },
        {
          "duration": 0.09843749999998863,
          "durationTicks": 126,
          "midi": 72,
          "name": "C5",
          "ticks": 179442,
          "time": 140.1890625,
          "velocity": 1
        },
        {
          "duration": 0.18125000000000568,
          "durationTicks": 232,
          "midi": 74,
          "name": "D5",
          "ticks": 179640,
          "time": 140.34375,
          "velocity": 1
        },
        {
          "duration": 0.1328125,
          "durationTicks": 170,
          "midi": 74,
          "name": "D5",
          "ticks": 180040,
          "time": 140.65625,
          "velocity": 1
        },
        {
          "duration": 0.17656249999998863,
          "durationTicks": 226,
          "midi": 72,
          "name": "C5",
          "ticks": 180248,
          "time": 140.81875,
          "velocity": 1
        },
        {
          "duration": 0.15312500000001705,
          "durationTicks": 196,
          "midi": 72,
          "name": "C5",
          "ticks": 180632,
          "time": 141.11874999999998,
          "velocity": 1
        },
        {
          "duration": 0.2734375,
          "durationTicks": 350,
          "midi": 70,
          "name": "A#4",
          "ticks": 180818,
          "time": 141.2640625,
          "velocity": 1
        },
        {
          "duration": 0.18437499999998863,
          "durationTicks": 236,
          "midi": 74,
          "name": "D5",
          "ticks": 181806,
          "time": 142.0359375,
          "velocity": 1
        },
        {
          "duration": 0.18281250000001137,
          "durationTicks": 234,
          "midi": 72,
          "name": "C5",
          "ticks": 182170,
          "time": 142.3203125,
          "velocity": 1
        },
        {
          "duration": 0.11250000000001137,
          "durationTicks": 144,
          "midi": 70,
          "name": "A#4",
          "ticks": 182506,
          "time": 142.5828125,
          "velocity": 1
        },
        {
          "duration": 0.25468750000001705,
          "durationTicks": 326,
          "midi": 67,
          "name": "G4",
          "ticks": 182726,
          "time": 142.7546875,
          "velocity": 1
        },
        {
          "duration": 0.10781249999999432,
          "durationTicks": 138,
          "midi": 63,
          "name": "D#4",
          "ticks": 183120,
          "time": 143.0625,
          "velocity": 1
        },
        {
          "duration": 0.20312500000002842,
          "durationTicks": 260,
          "midi": 74,
          "name": "D5",
          "ticks": 183332,
          "time": 143.22812499999998,
          "velocity": 1
        },
        {
          "duration": 0.1796875,
          "durationTicks": 230,
          "midi": 72,
          "name": "C5",
          "ticks": 183718,
          "time": 143.5296875,
          "velocity": 1
        },
        {
          "duration": 0.12812499999998295,
          "durationTicks": 164,
          "midi": 70,
          "name": "A#4",
          "ticks": 184038,
          "time": 143.7796875,
          "velocity": 1
        },
        {
          "duration": 0.23281250000002274,
          "durationTicks": 298,
          "midi": 67,
          "name": "G4",
          "ticks": 184274,
          "time": 143.96406249999998,
          "velocity": 1
        },
        {
          "duration": 0.15781250000000568,
          "durationTicks": 202,
          "midi": 65,
          "name": "F4",
          "ticks": 184636,
          "time": 144.246875,
          "velocity": 1
        },
        {
          "duration": 0.19687499999997726,
          "durationTicks": 252,
          "midi": 74,
          "name": "D5",
          "ticks": 184864,
          "time": 144.425,
          "velocity": 1
        },
        {
          "duration": 0.18281250000001137,
          "durationTicks": 234,
          "midi": 72,
          "name": "C5",
          "ticks": 185244,
          "time": 144.72187499999998,
          "velocity": 1
        },
        {
          "duration": 0.11562500000002274,
          "durationTicks": 148,
          "midi": 70,
          "name": "A#4",
          "ticks": 185556,
          "time": 144.965625,
          "velocity": 1
        },
        {
          "duration": 0.6812500000000341,
          "durationTicks": 872,
          "midi": 70,
          "name": "A#4",
          "ticks": 185792,
          "time": 145.14999999999998,
          "velocity": 1
        },
        {
          "duration": 0.47968750000001137,
          "durationTicks": 614,
          "midi": 76,
          "name": "E5",
          "ticks": 196914,
          "time": 153.83906249999998,
          "velocity": 1
        },
        {
          "duration": 0.20468750000000568,
          "durationTicks": 262,
          "midi": 74,
          "name": "D5",
          "ticks": 197600,
          "time": 154.375,
          "velocity": 1
        },
        {
          "duration": 0.21718749999999432,
          "durationTicks": 278,
          "midi": 72,
          "name": "C5",
          "ticks": 197862,
          "time": 154.5796875,
          "velocity": 1
        },
        {
          "duration": 0.5921874999999943,
          "durationTicks": 758,
          "midi": 69,
          "name": "A4",
          "ticks": 198140,
          "time": 154.796875,
          "velocity": 1
        },
        {
          "duration": 0.19843750000001137,
          "durationTicks": 254,
          "midi": 76,
          "name": "E5",
          "ticks": 200242,
          "time": 156.43906249999998,
          "velocity": 1
        },
        {
          "duration": 0.21406250000001137,
          "durationTicks": 274,
          "midi": 74,
          "name": "D5",
          "ticks": 200604,
          "time": 156.72187499999998,
          "velocity": 1
        },
        {
          "duration": 0.07968749999997726,
          "durationTicks": 102,
          "midi": 72,
          "name": "C5",
          "ticks": 200982,
          "time": 157.0171875,
          "velocity": 1
        },
        {
          "duration": 0.6156249999999943,
          "durationTicks": 788,
          "midi": 74,
          "name": "D5",
          "ticks": 201180,
          "time": 157.171875,
          "velocity": 1
        },
        {
          "duration": 0.19843749999998295,
          "durationTicks": 254,
          "midi": 76,
          "name": "E5",
          "ticks": 203318,
          "time": 158.8421875,
          "velocity": 1
        },
        {
          "duration": 0.19843749999998295,
          "durationTicks": 254,
          "midi": 74,
          "name": "D5",
          "ticks": 203690,
          "time": 159.1328125,
          "velocity": 1
        },
        {
          "duration": 0.12968749999998863,
          "durationTicks": 166,
          "midi": 72,
          "name": "C5",
          "ticks": 204030,
          "time": 159.3984375,
          "velocity": 1
        },
        {
          "duration": 0.23281250000002274,
          "durationTicks": 298,
          "midi": 69,
          "name": "A4",
          "ticks": 204238,
          "time": 159.5609375,
          "velocity": 1
        },
        {
          "duration": 0.10937500000002842,
          "durationTicks": 140,
          "midi": 65,
          "name": "F4",
          "ticks": 204640,
          "time": 159.87499999999997,
          "velocity": 1
        },
        {
          "duration": 0.22187500000001137,
          "durationTicks": 284,
          "midi": 76,
          "name": "E5",
          "ticks": 204852,
          "time": 160.040625,
          "velocity": 1
        },
        {
          "duration": 0.18593749999999432,
          "durationTicks": 238,
          "midi": 74,
          "name": "D5",
          "ticks": 205232,
          "time": 160.3375,
          "velocity": 1
        },
        {
          "duration": 0.1374999999999602,
          "durationTicks": 176,
          "midi": 72,
          "name": "C5",
          "ticks": 205586,
          "time": 160.61406250000002,
          "velocity": 1
        },
        {
          "duration": 0.23281249999999432,
          "durationTicks": 298,
          "midi": 69,
          "name": "A4",
          "ticks": 205794,
          "time": 160.77656249999998,
          "velocity": 1
        },
        {
          "duration": 0.15781249999997726,
          "durationTicks": 202,
          "midi": 67,
          "name": "G4",
          "ticks": 206192,
          "time": 161.0875,
          "velocity": 1
        },
        {
          "duration": 0.18906249999997726,
          "durationTicks": 242,
          "midi": 76,
          "name": "E5",
          "ticks": 206426,
          "time": 161.27031250000002,
          "velocity": 1
        },
        {
          "duration": 0.19375000000002274,
          "durationTicks": 248,
          "midi": 74,
          "name": "D5",
          "ticks": 206800,
          "time": 161.56249999999997,
          "velocity": 1
        },
        {
          "duration": 0.11875000000000568,
          "durationTicks": 152,
          "midi": 72,
          "name": "C5",
          "ticks": 207136,
          "time": 161.825,
          "velocity": 1
        },
        {
          "duration": 0.5921875000000227,
          "durationTicks": 758,
          "midi": 76,
          "name": "E5",
          "ticks": 207354,
          "time": 161.99531249999998,
          "velocity": 1
        },
        {
          "duration": 0.20624999999998295,
          "durationTicks": 264,
          "midi": 76,
          "name": "E5",
          "ticks": 209490,
          "time": 163.6640625,
          "velocity": 1
        },
        {
          "duration": 0.1953125,
          "durationTicks": 250,
          "midi": 74,
          "name": "D5",
          "ticks": 209856,
          "time": 163.95,
          "velocity": 1
        },
        {
          "duration": 0.1171875,
          "durationTicks": 150,
          "midi": 72,
          "name": "C5",
          "ticks": 210194,
          "time": 164.2140625,
          "velocity": 1
        },
        {
          "duration": 0.2656249999999716,
          "durationTicks": 340,
          "midi": 69,
          "name": "A4",
          "ticks": 210390,
          "time": 164.3671875,
          "velocity": 1
        },
        {
          "duration": 0.19374999999999432,
          "durationTicks": 248,
          "midi": 72,
          "name": "C5",
          "ticks": 210778,
          "time": 164.6703125,
          "velocity": 1
        },
        {
          "duration": 0.265625,
          "durationTicks": 340,
          "midi": 72,
          "name": "C5",
          "ticks": 211164,
          "time": 164.97187499999998,
          "velocity": 1
        },
        {
          "duration": 0.13750000000001705,
          "durationTicks": 176,
          "midi": 69,
          "name": "A4",
          "ticks": 211546,
          "time": 165.2703125,
          "velocity": 1
        },
        {
          "duration": 0.20156249999999432,
          "durationTicks": 258,
          "midi": 74,
          "name": "D5",
          "ticks": 211776,
          "time": 165.45,
          "velocity": 1
        },
        {
          "duration": 0.17812499999999432,
          "durationTicks": 228,
          "midi": 74,
          "name": "D5",
          "ticks": 212614,
          "time": 166.10468749999998,
          "velocity": 1
        },
        {
          "duration": 0.15156250000001137,
          "durationTicks": 194,
          "midi": 72,
          "name": "C5",
          "ticks": 212982,
          "time": 166.3921875,
          "velocity": 1
        },
        {
          "duration": 0.09843749999998863,
          "durationTicks": 126,
          "midi": 74,
          "name": "D5",
          "ticks": 213300,
          "time": 166.640625,
          "velocity": 1
        },
        {
          "duration": 0.30000000000001137,
          "durationTicks": 384,
          "midi": 76,
          "name": "E5",
          "ticks": 213504,
          "time": 166.79999999999998,
          "velocity": 1
        },
        {
          "duration": 0.15000000000000568,
          "durationTicks": 192,
          "midi": 76,
          "name": "E5",
          "ticks": 213888,
          "time": 167.1,
          "velocity": 1
        },
        {
          "duration": 0.29999999999998295,
          "durationTicks": 384,
          "midi": 74,
          "name": "D5",
          "ticks": 214080,
          "time": 167.25,
          "velocity": 1
        },
        {
          "duration": 0.15000000000000568,
          "durationTicks": 192,
          "midi": 76,
          "name": "E5",
          "ticks": 214464,
          "time": 167.54999999999998,
          "velocity": 1
        },
        {
          "duration": 0.30000000000001137,
          "durationTicks": 384,
          "midi": 74,
          "name": "D5",
          "ticks": 214656,
          "time": 167.7,
          "velocity": 1
        },
        {
          "duration": 0.29999999999998295,
          "durationTicks": 384,
          "midi": 72,
          "name": "C5",
          "ticks": 215040,
          "time": 168,
          "velocity": 1
        },
        {
          "duration": 0.18593749999999432,
          "durationTicks": 238,
          "midi": 76,
          "name": "E5",
          "ticks": 215646,
          "time": 168.4734375,
          "velocity": 1
        },
        {
          "duration": 0.18281249999998295,
          "durationTicks": 234,
          "midi": 74,
          "name": "D5",
          "ticks": 216014,
          "time": 168.7609375,
          "velocity": 1
        },
        {
          "duration": 0.12031250000001137,
          "durationTicks": 154,
          "midi": 72,
          "name": "C5",
          "ticks": 216334,
          "time": 169.01093749999998,
          "velocity": 1
        },
        {
          "duration": 0.25468750000001705,
          "durationTicks": 326,
          "midi": 69,
          "name": "A4",
          "ticks": 216532,
          "time": 169.16562499999998,
          "velocity": 1
        },
        {
          "duration": 0.10781249999999432,
          "durationTicks": 138,
          "midi": 65,
          "name": "F4",
          "ticks": 216926,
          "time": 169.47343750000002,
          "velocity": 1
        },
        {
          "duration": 0.24999999999997158,
          "durationTicks": 320,
          "midi": 76,
          "name": "E5",
          "ticks": 217136,
          "time": 169.63750000000002,
          "velocity": 1
        },
        {
          "duration": 0.17968749999997158,
          "durationTicks": 230,
          "midi": 74,
          "name": "D5",
          "ticks": 217532,
          "time": 169.946875,
          "velocity": 1
        },
        {
          "duration": 0.16718749999998295,
          "durationTicks": 214,
          "midi": 72,
          "name": "C5",
          "ticks": 217844,
          "time": 170.190625,
          "velocity": 1
        },
        {
          "duration": 0.23125000000001705,
          "durationTicks": 296,
          "midi": 69,
          "name": "A4",
          "ticks": 218088,
          "time": 170.38125,
          "velocity": 1
        },
        {
          "duration": 0.16562499999997726,
          "durationTicks": 212,
          "midi": 67,
          "name": "G4",
          "ticks": 218468,
          "time": 170.678125,
          "velocity": 1
        },
        {
          "duration": 0.20156249999999432,
          "durationTicks": 258,
          "midi": 76,
          "name": "E5",
          "ticks": 218706,
          "time": 170.8640625,
          "velocity": 1
        },
        {
          "duration": 0.19843750000001137,
          "durationTicks": 254,
          "midi": 74,
          "name": "D5",
          "ticks": 219064,
          "time": 171.14374999999998,
          "velocity": 1
        },
        {
          "duration": 0.10156250000002842,
          "durationTicks": 130,
          "midi": 72,
          "name": "C5",
          "ticks": 219406,
          "time": 171.4109375,
          "velocity": 1
        },
        {
          "duration": 0.6374999999999886,
          "durationTicks": 816,
          "midi": 72,
          "name": "C5",
          "ticks": 219634,
          "time": 171.58906249999998,
          "velocity": 1
        },
        {
          "duration": 0.20000000000004547,
          "durationTicks": 256,
          "midi": 76,
          "name": "E5",
          "ticks": 221800,
          "time": 173.28124999999997,
          "velocity": 1
        },
        {
          "duration": 0.19062499999998295,
          "durationTicks": 244,
          "midi": 74,
          "name": "D5",
          "ticks": 222146,
          "time": 173.55156250000002,
          "velocity": 1
        },
        {
          "duration": 0.13124999999999432,
          "durationTicks": 168,
          "midi": 72,
          "name": "C5",
          "ticks": 222480,
          "time": 173.8125,
          "velocity": 1
        },
        {
          "duration": 0.25468749999998863,
          "durationTicks": 326,
          "midi": 69,
          "name": "A4",
          "ticks": 222698,
          "time": 173.9828125,
          "velocity": 1
        },
        {
          "duration": 0.16718750000001137,
          "durationTicks": 214,
          "midi": 65,
          "name": "F4",
          "ticks": 223074,
          "time": 174.27656249999998,
          "velocity": 1
        },
        {
          "duration": 0.21875,
          "durationTicks": 280,
          "midi": 76,
          "name": "E5",
          "ticks": 223322,
          "time": 174.4703125,
          "velocity": 1
        },
        {
          "duration": 0.19999999999998863,
          "durationTicks": 256,
          "midi": 74,
          "name": "D5",
          "ticks": 223688,
          "time": 174.75625,
          "velocity": 1
        },
        {
          "duration": 0.13593749999998295,
          "durationTicks": 174,
          "midi": 72,
          "name": "C5",
          "ticks": 224040,
          "time": 175.03125,
          "velocity": 1
        },
        {
          "duration": 0.23125000000001705,
          "durationTicks": 296,
          "midi": 69,
          "name": "A4",
          "ticks": 224256,
          "time": 175.2,
          "velocity": 1
        },
        {
          "duration": 0.14687500000002274,
          "durationTicks": 188,
          "midi": 67,
          "name": "G4",
          "ticks": 224632,
          "time": 175.49374999999998,
          "velocity": 1
        },
        {
          "duration": 0.1953125,
          "durationTicks": 250,
          "midi": 76,
          "name": "E5",
          "ticks": 224858,
          "time": 175.6703125,
          "velocity": 1
        },
        {
          "duration": 0.17343750000000568,
          "durationTicks": 222,
          "midi": 74,
          "name": "D5",
          "ticks": 225210,
          "time": 175.9453125,
          "velocity": 1
        },
        {
          "duration": 0.12343749999999432,
          "durationTicks": 158,
          "midi": 72,
          "name": "C5",
          "ticks": 225530,
          "time": 176.1953125,
          "velocity": 1
        },
        {
          "duration": 0.659374999999983,
          "durationTicks": 844,
          "midi": 72,
          "name": "C5",
          "ticks": 225776,
          "time": 176.38750000000002,
          "velocity": 1
        },
        {
          "duration": 0.18593750000002274,
          "durationTicks": 238,
          "midi": 76,
          "name": "E5",
          "ticks": 227944,
          "time": 178.08124999999998,
          "velocity": 1
        },
        {
          "duration": 0.17656249999998863,
          "durationTicks": 226,
          "midi": 74,
          "name": "D5",
          "ticks": 228296,
          "time": 178.35625000000002,
          "velocity": 1
        },
        {
          "duration": 0.12187500000001705,
          "durationTicks": 156,
          "midi": 72,
          "name": "C5",
          "ticks": 228638,
          "time": 178.6234375,
          "velocity": 1
        },
        {
          "duration": 0.1875,
          "durationTicks": 240,
          "midi": 69,
          "name": "A4",
          "ticks": 228856,
          "time": 178.79375,
          "velocity": 1
        },
        {
          "duration": 0.13593749999998295,
          "durationTicks": 174,
          "midi": 65,
          "name": "F4",
          "ticks": 229256,
          "time": 179.10625000000002,
          "velocity": 1
        },
        {
          "duration": 0.20000000000004547,
          "durationTicks": 256,
          "midi": 76,
          "name": "E5",
          "ticks": 229480,
          "time": 179.28124999999997,
          "velocity": 1
        },
        {
          "duration": 0.17656250000001705,
          "durationTicks": 226,
          "midi": 74,
          "name": "D5",
          "ticks": 229846,
          "time": 179.5671875,
          "velocity": 1
        },
        {
          "duration": 0.13593749999998295,
          "durationTicks": 174,
          "midi": 72,
          "name": "C5",
          "ticks": 230160,
          "time": 179.8125,
          "velocity": 1
        },
        {
          "duration": 0.23281250000002274,
          "durationTicks": 298,
          "midi": 69,
          "name": "A4",
          "ticks": 230386,
          "time": 179.9890625,
          "velocity": 1
        },
        {
          "duration": 0.14375000000001137,
          "durationTicks": 184,
          "midi": 67,
          "name": "G4",
          "ticks": 230784,
          "time": 180.29999999999998,
          "velocity": 1
        },
        {
          "duration": 0.20156250000002274,
          "durationTicks": 258,
          "midi": 76,
          "name": "E5",
          "ticks": 231010,
          "time": 180.47656249999997,
          "velocity": 1
        },
        {
          "duration": 0.18281249999998295,
          "durationTicks": 234,
          "midi": 74,
          "name": "D5",
          "ticks": 231360,
          "time": 180.75,
          "velocity": 1
        },
        {
          "duration": 0.12656249999997726,
          "durationTicks": 162,
          "midi": 72,
          "name": "C5",
          "ticks": 231672,
          "time": 180.99375,
          "velocity": 1
        },
        {
          "duration": 0.23281250000002274,
          "durationTicks": 298,
          "midi": 69,
          "name": "A4",
          "ticks": 231886,
          "time": 181.1609375,
          "velocity": 1
        },
        {
          "duration": 0.17343749999997726,
          "durationTicks": 222,
          "midi": 69,
          "name": "A4",
          "ticks": 232256,
          "time": 181.45000000000002,
          "velocity": 1
        },
        {
          "duration": 0.18437499999998863,
          "durationTicks": 236,
          "midi": 76,
          "name": "E5",
          "ticks": 232498,
          "time": 181.6390625,
          "velocity": 1
        },
        {
          "duration": 0.1859374999999659,
          "durationTicks": 238,
          "midi": 74,
          "name": "D5",
          "ticks": 232842,
          "time": 181.9078125,
          "velocity": 1
        },
        {
          "duration": 0.09062500000001705,
          "durationTicks": 116,
          "midi": 72,
          "name": "C5",
          "ticks": 233178,
          "time": 182.1703125,
          "velocity": 1
        },
        {
          "duration": 0.25468750000001705,
          "durationTicks": 326,
          "midi": 74,
          "name": "D5",
          "ticks": 233406,
          "time": 182.3484375,
          "velocity": 1
        },
        {
          "duration": 0.10937500000002842,
          "durationTicks": 140,
          "midi": 72,
          "name": "C5",
          "ticks": 233796,
          "time": 182.653125,
          "velocity": 1
        },
        {
          "duration": 0.19999999999998863,
          "durationTicks": 256,
          "midi": 76,
          "name": "E5",
          "ticks": 234024,
          "time": 182.83124999999998,
          "velocity": 1
        },
        {
          "duration": 0.18124999999997726,
          "durationTicks": 232,
          "midi": 74,
          "name": "D5",
          "ticks": 234386,
          "time": 183.11406250000002,
          "velocity": 1
        },
        {
          "duration": 0.09999999999999432,
          "durationTicks": 128,
          "midi": 72,
          "name": "C5",
          "ticks": 234706,
          "time": 183.3640625,
          "velocity": 1
        },
        {
          "duration": 0.2781249999999602,
          "durationTicks": 356,
          "midi": 74,
          "name": "D5",
          "ticks": 234944,
          "time": 183.55,
          "velocity": 1
        },
        {
          "duration": 0.12656250000000568,
          "durationTicks": 162,
          "midi": 72,
          "name": "C5",
          "ticks": 235322,
          "time": 183.8453125,
          "velocity": 1
        },
        {
          "duration": 0.18437499999998863,
          "durationTicks": 236,
          "midi": 76,
          "name": "E5",
          "ticks": 235572,
          "time": 184.040625,
          "velocity": 1
        },
        {
          "duration": 0.17656250000001705,
          "durationTicks": 226,
          "midi": 74,
          "name": "D5",
          "ticks": 235924,
          "time": 184.31562499999998,
          "velocity": 1
        },
        {
          "duration": 0.1109375000000341,
          "durationTicks": 142,
          "midi": 72,
          "name": "C5",
          "ticks": 236272,
          "time": 184.58749999999998,
          "velocity": 1
        },
        {
          "duration": 0.25468750000001705,
          "durationTicks": 326,
          "midi": 74,
          "name": "D5",
          "ticks": 236512,
          "time": 184.77499999999998,
          "velocity": 1
        },
        {
          "duration": 0.11250000000001137,
          "durationTicks": 144,
          "midi": 72,
          "name": "C5",
          "ticks": 236886,
          "time": 185.0671875,
          "velocity": 1
        },
        {
          "duration": 0.20000000000001705,
          "durationTicks": 256,
          "midi": 76,
          "name": "E5",
          "ticks": 237106,
          "time": 185.2390625,
          "velocity": 1
        },
        {
          "duration": 0.18125000000000568,
          "durationTicks": 232,
          "midi": 74,
          "name": "D5",
          "ticks": 237470,
          "time": 185.5234375,
          "velocity": 1
        },
        {
          "duration": 0.11250000000001137,
          "durationTicks": 144,
          "midi": 72,
          "name": "C5",
          "ticks": 237798,
          "time": 185.7796875,
          "velocity": 1
        },
        {
          "duration": 0.659374999999983,
          "durationTicks": 844,
          "midi": 72,
          "name": "C5",
          "ticks": 238040,
          "time": 185.96875,
          "velocity": 1
        },
        {
          "duration": 0.28437500000001137,
          "durationTicks": 364,
          "midi": 84,
          "name": "C6",
          "ticks": 243814,
          "time": 190.47968749999998,
          "velocity": 1
        }
      ],
      "endOfTrackTicks": 245760
    },
    {
      "channel": 1,
      "controlChanges": {},
      "pitchBends": [],
      "instrument": {
        "family": "bass",
        "number": 36,
        "name": "slap bass 1"
      },
      "name": "",
      "notes": [
        {
          "duration": 0.13124999999999432,
          "durationTicks": 168,
          "midi": 36,
          "name": "C2",
          "ticks": 89402,
          "time": 69.8453125,
          "velocity": 1
        },
        {
          "duration": 0.15625,
          "durationTicks": 200,
          "midi": 36,
          "name": "C2",
          "ticks": 89670,
          "time": 70.0546875,
          "velocity": 1
        },
        {
          "duration": 0.2031250000000142,
          "durationTicks": 260,
          "midi": 36,
          "name": "C2",
          "ticks": 90016,
          "time": 70.32499999999999,
          "velocity": 1
        },
        {
          "duration": 0.10312500000000568,
          "durationTicks": 132,
          "midi": 34,
          "name": "A#1",
          "ticks": 90376,
          "time": 70.60624999999999,
          "velocity": 1
        },
        {
          "duration": 0.17500000000001137,
          "durationTicks": 224,
          "midi": 38,
          "name": "D2",
          "ticks": 90592,
          "time": 70.77499999999999,
          "velocity": 1
        },
        {
          "duration": 0.19218750000000284,
          "durationTicks": 246,
          "midi": 36,
          "name": "C2",
          "ticks": 90974,
          "time": 71.0734375,
          "velocity": 1
        },
        {
          "duration": 0.19218749999998863,
          "durationTicks": 246,
          "midi": 34,
          "name": "A#1",
          "ticks": 91356,
          "time": 71.371875,
          "velocity": 1
        }
      ]
    },
    {
      "channel": 2,
      "controlChanges": {
        "7": [
          {
            "number": 7,
            "ticks": 1536,
            "time": 1.2,
            "value": 0.6299212598425197
          },
          {
            "number": 7,
            "ticks": 1536,
            "time": 1.2,
            "value": 0.6299212598425197
          }
        ]
      },
      "pitchBends": [],
      "instrument": {
        "family": "guitar",
        "number": 28,
        "name": "electric guitar (muted)"
      },
      "name": "MUTED GTR",
      "notes": [
        {
          "duration": 0.11250000000000071,
          "durationTicks": 144,
          "midi": 77,
          "name": "F5",
          "ticks": 14162,
          "time": 11.0640625,
          "velocity": 0.7086614173228346
        },
        {
          "duration": 0.11250000000000071,
          "durationTicks": 144,
          "midi": 74,
          "name": "D5",
          "ticks": 14162,
          "time": 11.0640625,
          "velocity": 0.7086614173228346
        },
        {
          "duration": 0.11250000000000071,
          "durationTicks": 144,
          "midi": 70,
          "name": "A#4",
          "ticks": 14166,
          "time": 11.0671875,
          "velocity": 0.7086614173228346
        },
        {
          "duration": 0.11249999999999893,
          "durationTicks": 144,
          "midi": 70,
          "name": "A#4",
          "ticks": 14352,
          "time": 11.2125,
          "velocity": 0.7086614173228346
        },
        {
          "duration": 0.11250000000000071,
          "durationTicks": 144,
          "midi": 74,
          "name": "D5",
          "ticks": 14358,
          "time": 11.2171875,
          "velocity": 0.7086614173228346
        },
        {
          "duration": 0.11250000000000071,
          "durationTicks": 144,
          "midi": 77,
          "name": "F5",
          "ticks": 14358,
          "time": 11.2171875,
          "velocity": 0.7086614173228346
        },
        {
          "duration": 0.11249999999999893,
          "durationTicks": 144,
          "midi": 74,
          "name": "D5",
          "ticks": 14922,
          "time": 11.6578125,
          "velocity": 0.7086614173228346
        },
        {
          "duration": 0.11250000000000071,
          "durationTicks": 144,
          "midi": 70,
          "name": "A#4",
          "ticks": 14928,
          "time": 11.6625,
          "velocity": 0.7086614173228346
        },
        {
          "duration": 0.11250000000000071,
          "durationTicks": 144,
          "midi": 77,
          "name": "F5",
          "ticks": 14934,
          "time": 11.667187499999999,
          "velocity": 0.7086614173228346
        },
        {
          "duration": 0.11249999999999893,
          "durationTicks": 144,
          "midi": 69,
          "name": "A4",
          "ticks": 15706,
          "time": 12.2703125,
          "velocity": 0.7086614173228346
        },
        {
          "duration": 0.11249999999999893,
          "durationTicks": 144,
          "midi": 77,
          "name": "F5",
          "ticks": 15706,
          "time": 12.2703125,
          "velocity": 0.7086614173228346
        },
        {
          "duration": 0.11249999999999893,
          "durationTicks": 144,
          "midi": 72,
          "name": "C5",
          "ticks": 15706,
          "time": 12.2703125,
          "velocity": 0.7086614173228346
        },
        {
          "duration": 0.11250000000000071,
          "durationTicks": 144,
          "midi": 70,
          "name": "A#4",
          "ticks": 16446,
          "time": 12.8484375,
          "velocity": 0.7086614173228346
        },
        {
          "duration": 0.11250000000000071,
          "durationTicks": 144,
          "midi": 74,
          "name": "D5",
          "ticks": 16450,
          "time": 12.851562499999998,
          "velocity": 0.7086614173228346
        },
        {
          "duration": 0.11250000000000071,
          "durationTicks": 144,
          "midi": 77,
          "name": "F5",
          "ticks": 16450,
          "time": 12.851562499999998,
          "velocity": 0.7086614173228346
        },
        {
          "duration": 0.11250000000000071,
          "durationTicks": 144,
          "midi": 74,
          "name": "D5",
          "ticks": 17224,
          "time": 13.456249999999999,
          "velocity": 0.7086614173228346
        },
        {
          "duration": 0.11250000000000071,
          "durationTicks": 144,
          "midi": 70,
          "name": "A#4",
          "ticks": 17224,
          "time": 13.456249999999999,
          "velocity": 0.7086614173228346
        },
        {
          "duration": 0.11250000000000071,
          "durationTicks": 144,
          "midi": 77,
          "name": "F5",
          "ticks": 17224,
          "time": 13.456249999999999,
          "velocity": 0.7086614173228346
        },
        {
          "duration": 0.11250000000000071,
          "durationTicks": 144,
          "midi": 70,
          "name": "A#4",
          "ticks": 17432,
          "time": 13.61875,
          "velocity": 0.7086614173228346
        },
        {
          "duration": 0.11250000000000071,
          "durationTicks": 144,
          "midi": 74,
          "name": "D5",
          "ticks": 17434,
          "time": 13.620312499999999,
          "velocity": 0.7086614173228346
        },
        {
          "duration": 0.11250000000000071,
          "durationTicks": 144,
          "midi": 77,
          "name": "F5",
          "ticks": 17440,
          "time": 13.624999999999998,
          "velocity": 0.7086614173228346
        },
        {
          "duration": 0.11250000000000071,
          "durationTicks": 144,
          "midi": 74,
          "name": "D5",
          "ticks": 18004,
          "time": 14.065624999999999,
          "velocity": 0.7086614173228346
        },
        {
          "duration": 0.11250000000000071,
          "durationTicks": 144,
          "midi": 70,
          "name": "A#4",
          "ticks": 18004,
          "time": 14.065624999999999,
          "velocity": 0.7086614173228346
        },
        {
          "duration": 0.11249999999999893,
          "durationTicks": 144,
          "midi": 77,
          "name": "F5",
          "ticks": 18012,
          "time": 14.071875,
          "velocity": 0.7086614173228346
        },
        {
          "duration": 0.11250000000000071,
          "durationTicks": 144,
          "midi": 77,
          "name": "F5",
          "ticks": 18744,
          "time": 14.643749999999999,
          "velocity": 0.7086614173228346
        },
        {
          "duration": 0.11250000000000071,
          "durationTicks": 144,
          "midi": 69,
          "name": "A4",
          "ticks": 18746,
          "time": 14.6453125,
          "velocity": 0.7086614173228346
        },
        {
          "duration": 0.11250000000000071,
          "durationTicks": 144,
          "midi": 72,
          "name": "C5",
          "ticks": 18748,
          "time": 14.646874999999998,
          "velocity": 0.7086614173228346
        },
        {
          "duration": 0.11250000000000071,
          "durationTicks": 144,
          "midi": 70,
          "name": "A#4",
          "ticks": 19536,
          "time": 15.2625,
          "velocity": 0.7086614173228346
        },
        {
          "duration": 0.11250000000000071,
          "durationTicks": 144,
          "midi": 77,
          "name": "F5",
          "ticks": 19536,
          "time": 15.2625,
          "velocity": 0.7086614173228346
        },
        {
          "duration": 0.11250000000000071,
          "durationTicks": 144,
          "midi": 74,
          "name": "D5",
          "ticks": 19540,
          "time": 15.265624999999998,
          "velocity": 0.7086614173228346
        },
        {
          "duration": 0.11249999999999893,
          "durationTicks": 144,
          "midi": 70,
          "name": "A#4",
          "ticks": 20344,
          "time": 15.893749999999999,
          "velocity": 0.7086614173228346
        },
        {
          "duration": 0.11250000000000071,
          "durationTicks": 144,
          "midi": 77,
          "name": "F5",
          "ticks": 20346,
          "time": 15.8953125,
          "velocity": 0.7086614173228346
        },
        {
          "duration": 0.11250000000000071,
          "durationTicks": 144,
          "midi": 74,
          "name": "D5",
          "ticks": 20346,
          "time": 15.8953125,
          "velocity": 0.7086614173228346
        },
        {
          "duration": 0.11250000000000071,
          "durationTicks": 144,
          "midi": 70,
          "name": "A#4",
          "ticks": 20546,
          "time": 16.0515625,
          "velocity": 0.7086614173228346
        },
        {
          "duration": 0.11250000000000071,
          "durationTicks": 144,
          "midi": 74,
          "name": "D5",
          "ticks": 20546,
          "time": 16.0515625,
          "velocity": 0.7086614173228346
        },
        {
          "duration": 0.11250000000000071,
          "durationTicks": 144,
          "midi": 77,
          "name": "F5",
          "ticks": 20552,
          "time": 16.05625,
          "velocity": 0.7086614173228346
        },
        {
          "duration": 0.11250000000000071,
          "durationTicks": 144,
          "midi": 74,
          "name": "D5",
          "ticks": 21090,
          "time": 16.4765625,
          "velocity": 0.7086614173228346
        },
        {
          "duration": 0.11249999999999716,
          "durationTicks": 144,
          "midi": 70,
          "name": "A#4",
          "ticks": 21100,
          "time": 16.484375,
          "velocity": 0.7086614173228346
        },
        {
          "duration": 0.11250000000000071,
          "durationTicks": 144,
          "midi": 77,
          "name": "F5",
          "ticks": 21106,
          "time": 16.4890625,
          "velocity": 0.7086614173228346
        },
        {
          "duration": 0.11249999999999716,
          "durationTicks": 144,
          "midi": 72,
          "name": "C5",
          "ticks": 21850,
          "time": 17.0703125,
          "velocity": 0.7086614173228346
        },
        {
          "duration": 0.11249999999999716,
          "durationTicks": 144,
          "midi": 69,
          "name": "A4",
          "ticks": 21850,
          "time": 17.0703125,
          "velocity": 0.7086614173228346
        },
        {
          "duration": 0.11249999999999716,
          "durationTicks": 144,
          "midi": 77,
          "name": "F5",
          "ticks": 21850,
          "time": 17.0703125,
          "velocity": 0.7086614173228346
        },
        {
          "duration": 0.11250000000000071,
          "durationTicks": 144,
          "midi": 77,
          "name": "F5",
          "ticks": 22602,
          "time": 17.6578125,
          "velocity": 0.7086614173228346
        },
        {
          "duration": 0.11250000000000071,
          "durationTicks": 144,
          "midi": 70,
          "name": "A#4",
          "ticks": 22602,
          "time": 17.6578125,
          "velocity": 0.7086614173228346
        },
        {
          "duration": 0.11250000000000071,
          "durationTicks": 144,
          "midi": 74,
          "name": "D5",
          "ticks": 22610,
          "time": 17.6640625,
          "velocity": 0.7086614173228346
        },
        {
          "duration": 0.11250000000000071,
          "durationTicks": 144,
          "midi": 74,
          "name": "D5",
          "ticks": 23386,
          "time": 18.2703125,
          "velocity": 0.7086614173228346
        },
        {
          "duration": 0.11250000000000071,
          "durationTicks": 144,
          "midi": 70,
          "name": "A#4",
          "ticks": 23390,
          "time": 18.2734375,
          "velocity": 0.7086614173228346
        },
        {
          "duration": 0.11250000000000071,
          "durationTicks": 144,
          "midi": 77,
          "name": "F5",
          "ticks": 23392,
          "time": 18.275,
          "velocity": 0.7086614173228346
        },
        {
          "duration": 0.11250000000000071,
          "durationTicks": 144,
          "midi": 70,
          "name": "A#4",
          "ticks": 23584,
          "time": 18.424999999999997,
          "velocity": 0.7086614173228346
        },
        {
          "duration": 0.11250000000000071,
          "durationTicks": 144,
          "midi": 74,
          "name": "D5",
          "ticks": 23586,
          "time": 18.4265625,
          "velocity": 0.7086614173228346
        },
        {
          "duration": 0.11250000000000071,
          "durationTicks": 144,
          "midi": 77,
          "name": "F5",
          "ticks": 23594,
          "time": 18.4328125,
          "velocity": 0.7086614173228346
        },
        {
          "duration": 0.11250000000000071,
          "durationTicks": 144,
          "midi": 74,
          "name": "D5",
          "ticks": 24138,
          "time": 18.857812499999998,
          "velocity": 0.7086614173228346
        },
        {
          "duration": 0.11250000000000071,
          "durationTicks": 144,
          "midi": 70,
          "name": "A#4",
          "ticks": 24140,
          "time": 18.859375,
          "velocity": 0.7086614173228346
        },
        {
          "duration": 0.11250000000000071,
          "durationTicks": 144,
          "midi": 77,
          "name": "F5",
          "ticks": 24146,
          "time": 18.8640625,
          "velocity": 0.7086614173228346
        },
        {
          "duration": 0.11250000000000071,
          "durationTicks": 144,
          "midi": 69,
          "name": "A4",
          "ticks": 24890,
          "time": 19.445312499999996,
          "velocity": 0.7086614173228346
        },
        {
          "duration": 0.11249999999999716,
          "durationTicks": 144,
          "midi": 72,
          "name": "C5",
          "ticks": 24894,
          "time": 19.4484375,
          "velocity": 0.7086614173228346
        },
        {
          "duration": 0.11249999999999716,
          "durationTicks": 144,
          "midi": 77,
          "name": "F5",
          "ticks": 24896,
          "time": 19.45,
          "velocity": 0.7086614173228346
        },
        {
          "duration": 0.11250000000000071,
          "durationTicks": 144,
          "midi": 70,
          "name": "A#4",
          "ticks": 25664,
          "time": 20.049999999999997,
          "velocity": 0.7086614173228346
        },
        {
          "duration": 0.11250000000000071,
          "durationTicks": 144,
          "midi": 77,
          "name": "F5",
          "ticks": 25666,
          "time": 20.0515625,
          "velocity": 0.7086614173228346
        },
        {
          "duration": 0.11250000000000071,
          "durationTicks": 144,
          "midi": 74,
          "name": "D5",
          "ticks": 25670,
          "time": 20.054687499999996,
          "velocity": 0.7086614173228346
        },
        {
          "duration": 0.11250000000000071,
          "durationTicks": 144,
          "midi": 70,
          "name": "A#4",
          "ticks": 26446,
          "time": 20.6609375,
          "velocity": 0.7086614173228346
        },
        {
          "duration": 0.11250000000000071,
          "durationTicks": 144,
          "midi": 67,
          "name": "G4",
          "ticks": 26448,
          "time": 20.662499999999998,
          "velocity": 0.7086614173228346
        },
        {
          "duration": 0.11250000000000071,
          "durationTicks": 144,
          "midi": 75,
          "name": "D#5",
          "ticks": 26450,
          "time": 20.664062499999996,
          "velocity": 0.7086614173228346
        },
        {
          "duration": 0.11250000000000071,
          "durationTicks": 144,
          "midi": 67,
          "name": "G4",
          "ticks": 26640,
          "time": 20.8125,
          "velocity": 0.7086614173228346
        },
        {
          "duration": 0.11250000000000071,
          "durationTicks": 144,
          "midi": 70,
          "name": "A#4",
          "ticks": 26642,
          "time": 20.8140625,
          "velocity": 0.7086614173228346
        },
        {
          "duration": 0.11250000000000071,
          "durationTicks": 144,
          "midi": 75,
          "name": "D#5",
          "ticks": 26648,
          "time": 20.818749999999998,
          "velocity": 0.7086614173228346
        },
        {
          "duration": 0.11250000000000071,
          "durationTicks": 144,
          "midi": 67,
          "name": "G4",
          "ticks": 27218,
          "time": 21.264062499999998,
          "velocity": 0.7086614173228346
        },
        {
          "duration": 0.11250000000000071,
          "durationTicks": 144,
          "midi": 75,
          "name": "D#5",
          "ticks": 27218,
          "time": 21.264062499999998,
          "velocity": 0.7086614173228346
        },
        {
          "duration": 0.11250000000000071,
          "durationTicks": 144,
          "midi": 70,
          "name": "A#4",
          "ticks": 27222,
          "time": 21.2671875,
          "velocity": 0.7086614173228346
        },
        {
          "duration": 0.11250000000000071,
          "durationTicks": 144,
          "midi": 65,
          "name": "F4",
          "ticks": 27988,
          "time": 21.865625,
          "velocity": 0.7086614173228346
        },
        {
          "duration": 0.11250000000000071,
          "durationTicks": 144,
          "midi": 70,
          "name": "A#4",
          "ticks": 27992,
          "time": 21.86875,
          "velocity": 0.7086614173228346
        },
        {
          "duration": 0.11250000000000071,
          "durationTicks": 144,
          "midi": 74,
          "name": "D5",
          "ticks": 27992,
          "time": 21.86875,
          "velocity": 0.7086614173228346
        },
        {
          "duration": 0.11250000000000071,
          "durationTicks": 144,
          "midi": 74,
          "name": "D5",
          "ticks": 28182,
          "time": 22.0171875,
          "velocity": 0.7086614173228346
        },
        {
          "duration": 0.11250000000000071,
          "durationTicks": 144,
          "midi": 65,
          "name": "F4",
          "ticks": 28182,
          "time": 22.0171875,
          "velocity": 0.7086614173228346
        },
        {
          "duration": 0.11250000000000071,
          "durationTicks": 144,
          "midi": 70,
          "name": "A#4",
          "ticks": 28188,
          "time": 22.021874999999998,
          "velocity": 0.7086614173228346
        },
        {
          "duration": 0.11250000000000071,
          "durationTicks": 144,
          "midi": 70,
          "name": "A#4",
          "ticks": 28742,
          "time": 22.4546875,
          "velocity": 0.7086614173228346
        },
        {
          "duration": 0.11250000000000071,
          "durationTicks": 144,
          "midi": 65,
          "name": "F4",
          "ticks": 28746,
          "time": 22.4578125,
          "velocity": 0.7086614173228346
        },
        {
          "duration": 0.11250000000000071,
          "durationTicks": 144,
          "midi": 74,
          "name": "D5",
          "ticks": 28746,
          "time": 22.4578125,
          "velocity": 0.7086614173228346
        },
        {
          "duration": 0.11250000000000071,
          "durationTicks": 144,
          "midi": 65,
          "name": "F4",
          "ticks": 29520,
          "time": 23.0625,
          "velocity": 0.7086614173228346
        },
        {
          "duration": 0.11250000000000071,
          "durationTicks": 144,
          "midi": 69,
          "name": "A4",
          "ticks": 29522,
          "time": 23.0640625,
          "velocity": 0.7086614173228346
        },
        {
          "duration": 0.11250000000000071,
          "durationTicks": 144,
          "midi": 72,
          "name": "C5",
          "ticks": 29528,
          "time": 23.068749999999998,
          "velocity": 0.7086614173228346
        },
        {
          "duration": 0.11250000000000071,
          "durationTicks": 144,
          "midi": 65,
          "name": "F4",
          "ticks": 29718,
          "time": 23.217187499999998,
          "velocity": 0.7086614173228346
        },
        {
          "duration": 0.11250000000000071,
          "durationTicks": 144,
          "midi": 72,
          "name": "C5",
          "ticks": 29718,
          "time": 23.217187499999998,
          "velocity": 0.7086614173228346
        },
        {
          "duration": 0.11250000000000071,
          "durationTicks": 144,
          "midi": 69,
          "name": "A4",
          "ticks": 29720,
          "time": 23.218749999999996,
          "velocity": 0.7086614173228346
        },
        {
          "duration": 0.11250000000000071,
          "durationTicks": 144,
          "midi": 69,
          "name": "A4",
          "ticks": 30276,
          "time": 23.653125,
          "velocity": 0.7086614173228346
        },
        {
          "duration": 0.11250000000000071,
          "durationTicks": 144,
          "midi": 72,
          "name": "C5",
          "ticks": 30282,
          "time": 23.6578125,
          "velocity": 0.7086614173228346
        },
        {
          "duration": 0.11250000000000071,
          "durationTicks": 144,
          "midi": 65,
          "name": "F4",
          "ticks": 30286,
          "time": 23.6609375,
          "velocity": 0.7086614173228346
        },
        {
          "duration": 0.11250000000000071,
          "durationTicks": 144,
          "midi": 70,
          "name": "A#4",
          "ticks": 31040,
          "time": 24.249999999999996,
          "velocity": 0.7086614173228346
        },
        {
          "duration": 0.11250000000000071,
          "durationTicks": 144,
          "midi": 65,
          "name": "F4",
          "ticks": 31040,
          "time": 24.249999999999996,
          "velocity": 0.7086614173228346
        },
        {
          "duration": 0.11250000000000071,
          "durationTicks": 144,
          "midi": 74,
          "name": "D5",
          "ticks": 31048,
          "time": 24.25625,
          "velocity": 0.7086614173228346
        },
        {
          "duration": 0.11250000000000071,
          "durationTicks": 144,
          "midi": 74,
          "name": "D5",
          "ticks": 31240,
          "time": 24.40625,
          "velocity": 0.7086614173228346
        },
        {
          "duration": 0.11250000000000071,
          "durationTicks": 144,
          "midi": 65,
          "name": "F4",
          "ticks": 31240,
          "time": 24.40625,
          "velocity": 0.7086614173228346
        },
        {
          "duration": 0.11250000000000071,
          "durationTicks": 144,
          "midi": 70,
          "name": "A#4",
          "ticks": 31240,
          "time": 24.40625,
          "velocity": 0.7086614173228346
        },
        {
          "duration": 0.11250000000000071,
          "durationTicks": 144,
          "midi": 65,
          "name": "F4",
          "ticks": 31790,
          "time": 24.835937499999996,
          "velocity": 0.7086614173228346
        },
        {
          "duration": 0.11250000000000071,
          "durationTicks": 144,
          "midi": 70,
          "name": "A#4",
          "ticks": 31790,
          "time": 24.835937499999996,
          "velocity": 0.7086614173228346
        },
        {
          "duration": 0.11250000000000071,
          "durationTicks": 144,
          "midi": 74,
          "name": "D5",
          "ticks": 31798,
          "time": 24.8421875,
          "velocity": 0.7086614173228346
        },
        {
          "duration": 0.11250000000000071,
          "durationTicks": 144,
          "midi": 67,
          "name": "G4",
          "ticks": 32580,
          "time": 25.453125,
          "velocity": 0.7086614173228346
        },
        {
          "duration": 0.11250000000000071,
          "durationTicks": 144,
          "midi": 70,
          "name": "A#4",
          "ticks": 32582,
          "time": 25.4546875,
          "velocity": 0.7086614173228346
        },
        {
          "duration": 0.11250000000000071,
          "durationTicks": 144,
          "midi": 75,
          "name": "D#5",
          "ticks": 32582,
          "time": 25.4546875,
          "velocity": 0.7086614173228346
        },
        {
          "duration": 0.11250000000000071,
          "durationTicks": 144,
          "midi": 67,
          "name": "G4",
          "ticks": 32780,
          "time": 25.609374999999996,
          "velocity": 0.7086614173228346
        },
        {
          "duration": 0.11249999999999716,
          "durationTicks": 144,
          "midi": 70,
          "name": "A#4",
          "ticks": 32786,
          "time": 25.6140625,
          "velocity": 0.7086614173228346
        },
        {
          "duration": 0.11250000000000071,
          "durationTicks": 144,
          "midi": 75,
          "name": "D#5",
          "ticks": 32792,
          "time": 25.61875,
          "velocity": 0.7086614173228346
        },
        {
          "duration": 0.11250000000000071,
          "durationTicks": 144,
          "midi": 75,
          "name": "D#5",
          "ticks": 33362,
          "time": 26.0640625,
          "velocity": 0.7086614173228346
        },
        {
          "duration": 0.11250000000000071,
          "durationTicks": 144,
          "midi": 67,
          "name": "G4",
          "ticks": 33362,
          "time": 26.0640625,
          "velocity": 0.7086614173228346
        },
        {
          "duration": 0.11250000000000071,
          "durationTicks": 144,
          "midi": 70,
          "name": "A#4",
          "ticks": 33362,
          "time": 26.0640625,
          "velocity": 0.7086614173228346
        },
        {
          "duration": 0.11250000000000071,
          "durationTicks": 144,
          "midi": 70,
          "name": "A#4",
          "ticks": 34096,
          "time": 26.6375,
          "velocity": 0.7086614173228346
        },
        {
          "duration": 0.11250000000000071,
          "durationTicks": 144,
          "midi": 65,
          "name": "F4",
          "ticks": 34098,
          "time": 26.639062499999998,
          "velocity": 0.7086614173228346
        },
        {
          "duration": 0.11249999999999716,
          "durationTicks": 144,
          "midi": 74,
          "name": "D5",
          "ticks": 34102,
          "time": 26.642187500000002,
          "velocity": 0.7086614173228346
        },
        {
          "duration": 0.11250000000000071,
          "durationTicks": 144,
          "midi": 65,
          "name": "F4",
          "ticks": 34296,
          "time": 26.79375,
          "velocity": 0.7086614173228346
        },
        {
          "duration": 0.11250000000000071,
          "durationTicks": 144,
          "midi": 74,
          "name": "D5",
          "ticks": 34296,
          "time": 26.79375,
          "velocity": 0.7086614173228346
        },
        {
          "duration": 0.11250000000000071,
          "durationTicks": 144,
          "midi": 70,
          "name": "A#4",
          "ticks": 34302,
          "time": 26.7984375,
          "velocity": 0.7086614173228346
        },
        {
          "duration": 0.11250000000000071,
          "durationTicks": 144,
          "midi": 65,
          "name": "F4",
          "ticks": 34872,
          "time": 27.24375,
          "velocity": 0.7086614173228346
        },
        {
          "duration": 0.11250000000000071,
          "durationTicks": 144,
          "midi": 70,
          "name": "A#4",
          "ticks": 34872,
          "time": 27.24375,
          "velocity": 0.7086614173228346
        },
        {
          "duration": 0.11250000000000071,
          "durationTicks": 144,
          "midi": 74,
          "name": "D5",
          "ticks": 34872,
          "time": 27.24375,
          "velocity": 0.7086614173228346
        },
        {
          "duration": 0.11250000000000071,
          "durationTicks": 144,
          "midi": 69,
          "name": "A4",
          "ticks": 35652,
          "time": 27.853125,
          "velocity": 0.7086614173228346
        },
        {
          "duration": 0.11250000000000071,
          "durationTicks": 144,
          "midi": 72,
          "name": "C5",
          "ticks": 35652,
          "time": 27.853125,
          "velocity": 0.7086614173228346
        },
        {
          "duration": 0.11250000000000071,
          "durationTicks": 144,
          "midi": 65,
          "name": "F4",
          "ticks": 35656,
          "time": 27.85625,
          "velocity": 0.7086614173228346
        },
        {
          "duration": 0.11250000000000071,
          "durationTicks": 144,
          "midi": 65,
          "name": "F4",
          "ticks": 35860,
          "time": 28.015625,
          "velocity": 0.7086614173228346
        },
        {
          "duration": 0.11250000000000071,
          "durationTicks": 144,
          "midi": 72,
          "name": "C5",
          "ticks": 35860,
          "time": 28.015625,
          "velocity": 0.7086614173228346
        },
        {
          "duration": 0.11250000000000071,
          "durationTicks": 144,
          "midi": 69,
          "name": "A4",
          "ticks": 35866,
          "time": 28.0203125,
          "velocity": 0.7086614173228346
        },
        {
          "duration": 0.11250000000000071,
          "durationTicks": 144,
          "midi": 72,
          "name": "C5",
          "ticks": 36456,
          "time": 28.48125,
          "velocity": 0.7086614173228346
        },
        {
          "duration": 0.11250000000000071,
          "durationTicks": 144,
          "midi": 69,
          "name": "A4",
          "ticks": 36456,
          "time": 28.48125,
          "velocity": 0.7086614173228346
        },
        {
          "duration": 0.11250000000000071,
          "durationTicks": 144,
          "midi": 65,
          "name": "F4",
          "ticks": 36458,
          "time": 28.482812499999998,
          "velocity": 0.7086614173228346
        },
        {
          "duration": 0.11250000000000071,
          "durationTicks": 144,
          "midi": 70,
          "name": "A#4",
          "ticks": 37166,
          "time": 29.035937499999996,
          "velocity": 0.7086614173228346
        },
        {
          "duration": 0.11250000000000071,
          "durationTicks": 144,
          "midi": 65,
          "name": "F4",
          "ticks": 37166,
          "time": 29.035937499999996,
          "velocity": 0.7086614173228346
        },
        {
          "duration": 0.11250000000000071,
          "durationTicks": 144,
          "midi": 74,
          "name": "D5",
          "ticks": 37166,
          "time": 29.035937499999996,
          "velocity": 0.7086614173228346
        },
        {
          "duration": 0.11250000000000071,
          "durationTicks": 144,
          "midi": 67,
          "name": "G4",
          "ticks": 40298,
          "time": 31.482812499999998,
          "velocity": 0.7086614173228346
        },
        {
          "duration": 0.11250000000000071,
          "durationTicks": 144,
          "midi": 75,
          "name": "D#5",
          "ticks": 40300,
          "time": 31.484375,
          "velocity": 0.7086614173228346
        },
        {
          "duration": 0.11250000000000071,
          "durationTicks": 144,
          "midi": 70,
          "name": "A#4",
          "ticks": 40302,
          "time": 31.4859375,
          "velocity": 0.7086614173228346
        },
        {
          "duration": 0.11250000000000071,
          "durationTicks": 144,
          "midi": 67,
          "name": "G4",
          "ticks": 40510,
          "time": 31.6484375,
          "velocity": 0.7086614173228346
        },
        {
          "duration": 0.11250000000000071,
          "durationTicks": 144,
          "midi": 70,
          "name": "A#4",
          "ticks": 40512,
          "time": 31.65,
          "velocity": 0.7086614173228346
        },
        {
          "duration": 0.11250000000000071,
          "durationTicks": 144,
          "midi": 75,
          "name": "D#5",
          "ticks": 40512,
          "time": 31.65,
          "velocity": 0.7086614173228346
        },
        {
          "duration": 0.11250000000000426,
          "durationTicks": 144,
          "midi": 75,
          "name": "D#5",
          "ticks": 41092,
          "time": 32.103125,
          "velocity": 0.7086614173228346
        },
        {
          "duration": 0.11250000000000426,
          "durationTicks": 144,
          "midi": 67,
          "name": "G4",
          "ticks": 41092,
          "time": 32.103125,
          "velocity": 0.7086614173228346
        },
        {
          "duration": 0.11249999999999716,
          "durationTicks": 144,
          "midi": 70,
          "name": "A#4",
          "ticks": 41098,
          "time": 32.1078125,
          "velocity": 0.7086614173228346
        },
        {
          "duration": 0.11249999999999716,
          "durationTicks": 144,
          "midi": 70,
          "name": "A#4",
          "ticks": 41836,
          "time": 32.684375,
          "velocity": 0.7086614173228346
        },
        {
          "duration": 0.11249999999999716,
          "durationTicks": 144,
          "midi": 65,
          "name": "F4",
          "ticks": 41836,
          "time": 32.684375,
          "velocity": 0.7086614173228346
        },
        {
          "duration": 0.11250000000000426,
          "durationTicks": 144,
          "midi": 74,
          "name": "D5",
          "ticks": 41842,
          "time": 32.6890625,
          "velocity": 0.7086614173228346
        },
        {
          "duration": 0.11250000000000426,
          "durationTicks": 144,
          "midi": 65,
          "name": "F4",
          "ticks": 42038,
          "time": 32.842187499999994,
          "velocity": 0.7086614173228346
        },
        {
          "duration": 0.11249999999999716,
          "durationTicks": 144,
          "midi": 74,
          "name": "D5",
          "ticks": 42040,
          "time": 32.84375,
          "velocity": 0.7086614173228346
        },
        {
          "duration": 0.11249999999999716,
          "durationTicks": 144,
          "midi": 70,
          "name": "A#4",
          "ticks": 42042,
          "time": 32.8453125,
          "velocity": 0.7086614173228346
        },
        {
          "duration": 0.11250000000000426,
          "durationTicks": 144,
          "midi": 70,
          "name": "A#4",
          "ticks": 42596,
          "time": 33.278124999999996,
          "velocity": 0.7086614173228346
        },
        {
          "duration": 0.11249999999999716,
          "durationTicks": 144,
          "midi": 65,
          "name": "F4",
          "ticks": 42600,
          "time": 33.28125,
          "velocity": 0.7086614173228346
        },
        {
          "duration": 0.11249999999999716,
          "durationTicks": 144,
          "midi": 74,
          "name": "D5",
          "ticks": 42600,
          "time": 33.28125,
          "velocity": 0.7086614173228346
        },
        {
          "duration": 0.11250000000000426,
          "durationTicks": 144,
          "midi": 69,
          "name": "A4",
          "ticks": 43346,
          "time": 33.864062499999996,
          "velocity": 0.7086614173228346
        },
        {
          "duration": 0.11250000000000426,
          "durationTicks": 144,
          "midi": 72,
          "name": "C5",
          "ticks": 43346,
          "time": 33.864062499999996,
          "velocity": 0.7086614173228346
        },
        {
          "duration": 0.11249999999999716,
          "durationTicks": 144,
          "midi": 65,
          "name": "F4",
          "ticks": 43350,
          "time": 33.8671875,
          "velocity": 0.7086614173228346
        },
        {
          "duration": 0.11250000000000426,
          "durationTicks": 144,
          "midi": 72,
          "name": "C5",
          "ticks": 43538,
          "time": 34.014062499999994,
          "velocity": 0.7086614173228346
        },
        {
          "duration": 0.11250000000000426,
          "durationTicks": 144,
          "midi": 65,
          "name": "F4",
          "ticks": 43538,
          "time": 34.014062499999994,
          "velocity": 0.7086614173228346
        },
        {
          "duration": 0.11249999999999716,
          "durationTicks": 144,
          "midi": 69,
          "name": "A4",
          "ticks": 43544,
          "time": 34.01875,
          "velocity": 0.7086614173228346
        },
        {
          "duration": 0.11249999999999716,
          "durationTicks": 144,
          "midi": 69,
          "name": "A4",
          "ticks": 44116,
          "time": 34.465625,
          "velocity": 0.7086614173228346
        },
        {
          "duration": 0.11249999999999716,
          "durationTicks": 144,
          "midi": 65,
          "name": "F4",
          "ticks": 44116,
          "time": 34.465625,
          "velocity": 0.7086614173228346
        },
        {
          "duration": 0.11249999999999716,
          "durationTicks": 144,
          "midi": 72,
          "name": "C5",
          "ticks": 44116,
          "time": 34.465625,
          "velocity": 0.7086614173228346
        },
        {
          "duration": 0.11249999999999716,
          "durationTicks": 144,
          "midi": 65,
          "name": "F4",
          "ticks": 44882,
          "time": 35.0640625,
          "velocity": 0.7086614173228346
        },
        {
          "duration": 0.11249999999999716,
          "durationTicks": 144,
          "midi": 70,
          "name": "A#4",
          "ticks": 44882,
          "time": 35.0640625,
          "velocity": 0.7086614173228346
        },
        {
          "duration": 0.11249999999999716,
          "durationTicks": 144,
          "midi": 74,
          "name": "D5",
          "ticks": 44882,
          "time": 35.0640625,
          "velocity": 0.7086614173228346
        },
        {
          "duration": 0.11249999999999716,
          "durationTicks": 144,
          "midi": 65,
          "name": "F4",
          "ticks": 45670,
          "time": 35.6796875,
          "velocity": 0.7086614173228346
        },
        {
          "duration": 0.11249999999999716,
          "durationTicks": 144,
          "midi": 70,
          "name": "A#4",
          "ticks": 45672,
          "time": 35.68125,
          "velocity": 0.7086614173228346
        },
        {
          "duration": 0.11249999999999716,
          "durationTicks": 144,
          "midi": 74,
          "name": "D5",
          "ticks": 45672,
          "time": 35.68125,
          "velocity": 0.7086614173228346
        },
        {
          "duration": 0.11250000000000426,
          "durationTicks": 144,
          "midi": 67,
          "name": "G4",
          "ticks": 46434,
          "time": 36.2765625,
          "velocity": 0.7086614173228346
        },
        {
          "duration": 0.11250000000000426,
          "durationTicks": 144,
          "midi": 75,
          "name": "D#5",
          "ticks": 46434,
          "time": 36.2765625,
          "velocity": 0.7086614173228346
        },
        {
          "duration": 0.11250000000000426,
          "durationTicks": 144,
          "midi": 70,
          "name": "A#4",
          "ticks": 46434,
          "time": 36.2765625,
          "velocity": 0.7086614173228346
        },
        {
          "duration": 0.11250000000000426,
          "durationTicks": 144,
          "midi": 67,
          "name": "G4",
          "ticks": 46644,
          "time": 36.440625,
          "velocity": 0.7086614173228346
        },
        {
          "duration": 0.11249999999999716,
          "durationTicks": 144,
          "midi": 70,
          "name": "A#4",
          "ticks": 46648,
          "time": 36.44375,
          "velocity": 0.7086614173228346
        },
        {
          "duration": 0.11249999999999716,
          "durationTicks": 144,
          "midi": 75,
          "name": "D#5",
          "ticks": 46648,
          "time": 36.44375,
          "velocity": 0.7086614173228346
        },
        {
          "duration": 0.11250000000000426,
          "durationTicks": 144,
          "midi": 67,
          "name": "G4",
          "ticks": 47216,
          "time": 36.887499999999996,
          "velocity": 0.7086614173228346
        },
        {
          "duration": 0.11249999999999716,
          "durationTicks": 144,
          "midi": 75,
          "name": "D#5",
          "ticks": 47218,
          "time": 36.8890625,
          "velocity": 0.7086614173228346
        },
        {
          "duration": 0.11249999999999716,
          "durationTicks": 144,
          "midi": 70,
          "name": "A#4",
          "ticks": 47218,
          "time": 36.8890625,
          "velocity": 0.7086614173228346
        },
        {
          "duration": 0.11249999999999716,
          "durationTicks": 144,
          "midi": 69,
          "name": "A4",
          "ticks": 47960,
          "time": 37.46875,
          "velocity": 0.7086614173228346
        },
        {
          "duration": 0.11249999999999716,
          "durationTicks": 144,
          "midi": 72,
          "name": "C5",
          "ticks": 47960,
          "time": 37.46875,
          "velocity": 0.7086614173228346
        },
        {
          "duration": 0.11250000000000426,
          "durationTicks": 144,
          "midi": 77,
          "name": "F5",
          "ticks": 47964,
          "time": 37.471875,
          "velocity": 0.7086614173228346
        },
        {
          "duration": 0.11249999999999716,
          "durationTicks": 144,
          "midi": 69,
          "name": "A4",
          "ticks": 48150,
          "time": 37.6171875,
          "velocity": 0.7086614173228346
        },
        {
          "duration": 0.11250000000000426,
          "durationTicks": 144,
          "midi": 77,
          "name": "F5",
          "ticks": 48156,
          "time": 37.621874999999996,
          "velocity": 0.7086614173228346
        },
        {
          "duration": 0.11249999999999716,
          "durationTicks": 144,
          "midi": 72,
          "name": "C5",
          "ticks": 48160,
          "time": 37.625,
          "velocity": 0.7086614173228346
        },
        {
          "duration": 0.11249999999999716,
          "durationTicks": 144,
          "midi": 69,
          "name": "A4",
          "ticks": 48688,
          "time": 38.0375,
          "velocity": 0.7086614173228346
        },
        {
          "duration": 0.11249999999999716,
          "durationTicks": 144,
          "midi": 77,
          "name": "F5",
          "ticks": 48690,
          "time": 38.0390625,
          "velocity": 0.7086614173228346
        },
        {
          "duration": 0.11249999999999716,
          "durationTicks": 144,
          "midi": 72,
          "name": "C5",
          "ticks": 48690,
          "time": 38.0390625,
          "velocity": 0.7086614173228346
        },
        {
          "duration": 0.11249999999999716,
          "durationTicks": 144,
          "midi": 65,
          "name": "F4",
          "ticks": 49466,
          "time": 38.6453125,
          "velocity": 0.7086614173228346
        },
        {
          "duration": 0.11249999999999716,
          "durationTicks": 144,
          "midi": 70,
          "name": "A#4",
          "ticks": 49466,
          "time": 38.6453125,
          "velocity": 0.7086614173228346
        },
        {
          "duration": 0.11249999999999716,
          "durationTicks": 144,
          "midi": 74,
          "name": "D5",
          "ticks": 49466,
          "time": 38.6453125,
          "velocity": 0.7086614173228346
        },
        {
          "duration": 0.11249999999999716,
          "durationTicks": 144,
          "midi": 65,
          "name": "F4",
          "ticks": 49668,
          "time": 38.803125,
          "velocity": 0.7086614173228346
        },
        {
          "duration": 0.11249999999999716,
          "durationTicks": 144,
          "midi": 74,
          "name": "D5",
          "ticks": 49668,
          "time": 38.803125,
          "velocity": 0.7086614173228346
        },
        {
          "duration": 0.11250000000000426,
          "durationTicks": 144,
          "midi": 70,
          "name": "A#4",
          "ticks": 49674,
          "time": 38.8078125,
          "velocity": 0.7086614173228346
        },
        {
          "duration": 0.11250000000000426,
          "durationTicks": 144,
          "midi": 65,
          "name": "F4",
          "ticks": 50256,
          "time": 39.262499999999996,
          "velocity": 0.7086614173228346
        },
        {
          "duration": 0.11250000000000426,
          "durationTicks": 144,
          "midi": 70,
          "name": "A#4",
          "ticks": 50256,
          "time": 39.262499999999996,
          "velocity": 0.7086614173228346
        },
        {
          "duration": 0.11250000000000426,
          "durationTicks": 144,
          "midi": 74,
          "name": "D5",
          "ticks": 50260,
          "time": 39.26562499999999,
          "velocity": 0.7086614173228346
        },
        {
          "duration": 0.11249999999999716,
          "durationTicks": 144,
          "midi": 68,
          "name": "G#4",
          "ticks": 51038,
          "time": 39.8734375,
          "velocity": 0.7086614173228346
        },
        {
          "duration": 0.11250000000000426,
          "durationTicks": 144,
          "midi": 65,
          "name": "F4",
          "ticks": 51040,
          "time": 39.87499999999999,
          "velocity": 0.7086614173228346
        },
        {
          "duration": 0.11249999999999716,
          "durationTicks": 144,
          "midi": 74,
          "name": "D5",
          "ticks": 51042,
          "time": 39.8765625,
          "velocity": 0.7086614173228346
        },
        {
          "duration": 0.11249999999999716,
          "durationTicks": 144,
          "midi": 74,
          "name": "D5",
          "ticks": 51218,
          "time": 40.0140625,
          "velocity": 0.7086614173228346
        },
        {
          "duration": 0.11249999999999716,
          "durationTicks": 144,
          "midi": 65,
          "name": "F4",
          "ticks": 51224,
          "time": 40.018750000000004,
          "velocity": 0.7086614173228346
        },
        {
          "duration": 0.11249999999999716,
          "durationTicks": 144,
          "midi": 68,
          "name": "G#4",
          "ticks": 51224,
          "time": 40.018750000000004,
          "velocity": 0.7086614173228346
        },
        {
          "duration": 0.11249999999999716,
          "durationTicks": 144,
          "midi": 65,
          "name": "F4",
          "ticks": 51810,
          "time": 40.4765625,
          "velocity": 0.7086614173228346
        },
        {
          "duration": 0.11249999999999716,
          "durationTicks": 144,
          "midi": 68,
          "name": "G#4",
          "ticks": 51810,
          "time": 40.4765625,
          "velocity": 0.7086614173228346
        },
        {
          "duration": 0.11249999999999716,
          "durationTicks": 144,
          "midi": 74,
          "name": "D5",
          "ticks": 51814,
          "time": 40.4796875,
          "velocity": 0.7086614173228346
        },
        {
          "duration": 0.11249999999999716,
          "durationTicks": 144,
          "midi": 67,
          "name": "G4",
          "ticks": 52568,
          "time": 41.06875,
          "velocity": 0.7086614173228346
        },
        {
          "duration": 0.11249999999999716,
          "durationTicks": 144,
          "midi": 70,
          "name": "A#4",
          "ticks": 52568,
          "time": 41.06875,
          "velocity": 0.7086614173228346
        },
        {
          "duration": 0.11249999999999716,
          "durationTicks": 144,
          "midi": 75,
          "name": "D#5",
          "ticks": 52568,
          "time": 41.06875,
          "velocity": 0.7086614173228346
        },
        {
          "duration": 0.11249999999999716,
          "durationTicks": 144,
          "midi": 67,
          "name": "G4",
          "ticks": 52774,
          "time": 41.2296875,
          "velocity": 0.7086614173228346
        },
        {
          "duration": 0.11249999999999716,
          "durationTicks": 144,
          "midi": 70,
          "name": "A#4",
          "ticks": 52778,
          "time": 41.2328125,
          "velocity": 0.7086614173228346
        },
        {
          "duration": 0.11249999999999716,
          "durationTicks": 144,
          "midi": 75,
          "name": "D#5",
          "ticks": 52778,
          "time": 41.2328125,
          "velocity": 0.7086614173228346
        },
        {
          "duration": 0.11249999999999716,
          "durationTicks": 144,
          "midi": 67,
          "name": "G4",
          "ticks": 53362,
          "time": 41.6890625,
          "velocity": 0.7086614173228346
        },
        {
          "duration": 0.11249999999999716,
          "durationTicks": 144,
          "midi": 70,
          "name": "A#4",
          "ticks": 53362,
          "time": 41.6890625,
          "velocity": 0.7086614173228346
        },
        {
          "duration": 0.11249999999999716,
          "durationTicks": 144,
          "midi": 75,
          "name": "D#5",
          "ticks": 53362,
          "time": 41.6890625,
          "velocity": 0.7086614173228346
        },
        {
          "duration": 0.11249999999999716,
          "durationTicks": 144,
          "midi": 69,
          "name": "A4",
          "ticks": 54106,
          "time": 42.270312499999996,
          "velocity": 0.7086614173228346
        },
        {
          "duration": 0.11249999999999716,
          "durationTicks": 144,
          "midi": 72,
          "name": "C5",
          "ticks": 54108,
          "time": 42.271875,
          "velocity": 0.7086614173228346
        },
        {
          "duration": 0.11249999999999716,
          "durationTicks": 144,
          "midi": 77,
          "name": "F5",
          "ticks": 54112,
          "time": 42.275,
          "velocity": 0.7086614173228346
        },
        {
          "duration": 0.11250000000000426,
          "durationTicks": 144,
          "midi": 69,
          "name": "A4",
          "ticks": 54294,
          "time": 42.4171875,
          "velocity": 0.7086614173228346
        },
        {
          "duration": 0.11250000000000426,
          "durationTicks": 144,
          "midi": 77,
          "name": "F5",
          "ticks": 54294,
          "time": 42.4171875,
          "velocity": 0.7086614173228346
        },
        {
          "duration": 0.11249999999999716,
          "durationTicks": 144,
          "midi": 72,
          "name": "C5",
          "ticks": 54304,
          "time": 42.425,
          "velocity": 0.7086614173228346
        },
        {
          "duration": 0.11249999999999716,
          "durationTicks": 144,
          "midi": 69,
          "name": "A4",
          "ticks": 54874,
          "time": 42.8703125,
          "velocity": 0.7086614173228346
        },
        {
          "duration": 0.11249999999999716,
          "durationTicks": 144,
          "midi": 72,
          "name": "C5",
          "ticks": 54874,
          "time": 42.8703125,
          "velocity": 0.7086614173228346
        },
        {
          "duration": 0.11249999999999716,
          "durationTicks": 144,
          "midi": 77,
          "name": "F5",
          "ticks": 54874,
          "time": 42.8703125,
          "velocity": 0.7086614173228346
        },
        {
          "duration": 0.11249999999999716,
          "durationTicks": 144,
          "midi": 70,
          "name": "A#4",
          "ticks": 55624,
          "time": 43.45625,
          "velocity": 0.7086614173228346
        },
        {
          "duration": 0.11249999999999716,
          "durationTicks": 144,
          "midi": 79,
          "name": "G5",
          "ticks": 55624,
          "time": 43.45625,
          "velocity": 0.7086614173228346
        },
        {
          "duration": 0.11250000000000426,
          "durationTicks": 144,
          "midi": 74,
          "name": "D5",
          "ticks": 55630,
          "time": 43.46093749999999,
          "velocity": 0.7086614173228346
        },
        {
          "duration": 0.11249999999999716,
          "durationTicks": 144,
          "midi": 70,
          "name": "A#4",
          "ticks": 55816,
          "time": 43.606249999999996,
          "velocity": 0.7086614173228346
        },
        {
          "duration": 0.11250000000000426,
          "durationTicks": 144,
          "midi": 79,
          "name": "G5",
          "ticks": 55820,
          "time": 43.609375,
          "velocity": 0.7086614173228346
        },
        {
          "duration": 0.11250000000000426,
          "durationTicks": 144,
          "midi": 74,
          "name": "D5",
          "ticks": 55832,
          "time": 43.61875,
          "velocity": 0.7086614173228346
        },
        {
          "duration": 0.11249999999999716,
          "durationTicks": 144,
          "midi": 70,
          "name": "A#4",
          "ticks": 56370,
          "time": 44.0390625,
          "velocity": 0.7086614173228346
        },
        {
          "duration": 0.11250000000000426,
          "durationTicks": 144,
          "midi": 74,
          "name": "D5",
          "ticks": 56372,
          "time": 44.040625,
          "velocity": 0.7086614173228346
        },
        {
          "duration": 0.11250000000000426,
          "durationTicks": 144,
          "midi": 79,
          "name": "G5",
          "ticks": 56372,
          "time": 44.040625,
          "velocity": 0.7086614173228346
        },
        {
          "duration": 0.11249999999999716,
          "durationTicks": 144,
          "midi": 76,
          "name": "E5",
          "ticks": 57168,
          "time": 44.6625,
          "velocity": 0.7086614173228346
        },
        {
          "duration": 0.11249999999999716,
          "durationTicks": 144,
          "midi": 67,
          "name": "G4",
          "ticks": 57168,
          "time": 44.6625,
          "velocity": 0.7086614173228346
        },
        {
          "duration": 0.11249999999999716,
          "durationTicks": 144,
          "midi": 72,
          "name": "C5",
          "ticks": 57168,
          "time": 44.6625,
          "velocity": 0.7086614173228346
        },
        {
          "duration": 0.11250000000000426,
          "durationTicks": 144,
          "midi": 76,
          "name": "E5",
          "ticks": 57362,
          "time": 44.8140625,
          "velocity": 0.7086614173228346
        },
        {
          "duration": 0.11249999999999716,
          "durationTicks": 144,
          "midi": 72,
          "name": "C5",
          "ticks": 57364,
          "time": 44.815625,
          "velocity": 0.7086614173228346
        },
        {
          "duration": 0.11250000000000426,
          "durationTicks": 144,
          "midi": 67,
          "name": "G4",
          "ticks": 57366,
          "time": 44.817187499999996,
          "velocity": 0.7086614173228346
        },
        {
          "duration": 0.11249999999999716,
          "durationTicks": 144,
          "midi": 72,
          "name": "C5",
          "ticks": 57938,
          "time": 45.2640625,
          "velocity": 0.7086614173228346
        },
        {
          "duration": 0.11249999999999716,
          "durationTicks": 144,
          "midi": 76,
          "name": "E5",
          "ticks": 57938,
          "time": 45.2640625,
          "velocity": 0.7086614173228346
        },
        {
          "duration": 0.11249999999999716,
          "durationTicks": 144,
          "midi": 67,
          "name": "G4",
          "ticks": 57942,
          "time": 45.2671875,
          "velocity": 0.7086614173228346
        },
        {
          "duration": 0.11249999999999716,
          "durationTicks": 144,
          "midi": 75,
          "name": "D#5",
          "ticks": 58706,
          "time": 45.8640625,
          "velocity": 0.7086614173228346
        },
        {
          "duration": 0.11249999999999716,
          "durationTicks": 144,
          "midi": 67,
          "name": "G4",
          "ticks": 58710,
          "time": 45.8671875,
          "velocity": 0.7086614173228346
        },
        {
          "duration": 0.11249999999999716,
          "durationTicks": 144,
          "midi": 70,
          "name": "A#4",
          "ticks": 58710,
          "time": 45.8671875,
          "velocity": 0.7086614173228346
        },
        {
          "duration": 0.11249999999999716,
          "durationTicks": 144,
          "midi": 75,
          "name": "D#5",
          "ticks": 58882,
          "time": 46.0015625,
          "velocity": 0.7086614173228346
        },
        {
          "duration": 0.11249999999999716,
          "durationTicks": 144,
          "midi": 67,
          "name": "G4",
          "ticks": 58886,
          "time": 46.0046875,
          "velocity": 0.7086614173228346
        },
        {
          "duration": 0.11250000000000426,
          "durationTicks": 144,
          "midi": 70,
          "name": "A#4",
          "ticks": 58888,
          "time": 46.006249999999994,
          "velocity": 0.7086614173228346
        },
        {
          "duration": 0.11249999999999716,
          "durationTicks": 144,
          "midi": 67,
          "name": "G4",
          "ticks": 59472,
          "time": 46.4625,
          "velocity": 0.7086614173228346
        },
        {
          "duration": 0.11249999999999716,
          "durationTicks": 144,
          "midi": 75,
          "name": "D#5",
          "ticks": 59472,
          "time": 46.4625,
          "velocity": 0.7086614173228346
        },
        {
          "duration": 0.11249999999999716,
          "durationTicks": 144,
          "midi": 70,
          "name": "A#4",
          "ticks": 59474,
          "time": 46.464062500000004,
          "velocity": 0.7086614173228346
        },
        {
          "duration": 0.11250000000000426,
          "durationTicks": 144,
          "midi": 72,
          "name": "C5",
          "ticks": 60216,
          "time": 47.043749999999996,
          "velocity": 0.7086614173228346
        },
        {
          "duration": 0.11250000000000426,
          "durationTicks": 144,
          "midi": 69,
          "name": "A4",
          "ticks": 60216,
          "time": 47.043749999999996,
          "velocity": 0.7086614173228346
        },
        {
          "duration": 0.11250000000000426,
          "durationTicks": 144,
          "midi": 77,
          "name": "F5",
          "ticks": 60220,
          "time": 47.04687499999999,
          "velocity": 0.7086614173228346
        },
        {
          "duration": 0.11249999999999716,
          "durationTicks": 144,
          "midi": 69,
          "name": "A4",
          "ticks": 60408,
          "time": 47.19375,
          "velocity": 0.7086614173228346
        },
        {
          "duration": 0.11249999999999716,
          "durationTicks": 144,
          "midi": 77,
          "name": "F5",
          "ticks": 60408,
          "time": 47.19375,
          "velocity": 0.7086614173228346
        },
        {
          "duration": 0.11249999999999716,
          "durationTicks": 144,
          "midi": 72,
          "name": "C5",
          "ticks": 60412,
          "time": 47.196875,
          "velocity": 0.7086614173228346
        },
        {
          "duration": 0.11249999999999716,
          "durationTicks": 144,
          "midi": 69,
          "name": "A4",
          "ticks": 61032,
          "time": 47.68125,
          "velocity": 0.7086614173228346
        },
        {
          "duration": 0.11249999999999716,
          "durationTicks": 144,
          "midi": 72,
          "name": "C5",
          "ticks": 61034,
          "time": 47.682812500000004,
          "velocity": 0.7086614173228346
        },
        {
          "duration": 0.11249999999999716,
          "durationTicks": 144,
          "midi": 77,
          "name": "F5",
          "ticks": 61034,
          "time": 47.682812500000004,
          "velocity": 0.7086614173228346
        }
      ],
      "endOfTrackTicks": 245760
    },
    {
      "channel": 2,
      "controlChanges": {},
      "pitchBends": [],
      "instrument": {
        "family": "organ",
        "number": 20,
        "name": "reed organ"
      },
      "name": "",
      "notes": [
        {
          "duration": 1.2000000000000028,
          "durationTicks": 1536,
          "midi": 77,
          "name": "F5",
          "ticks": 67584,
          "time": 52.8,
          "velocity": 0.7874015748031497
        },
        {
          "duration": 1.2000000000000028,
          "durationTicks": 1536,
          "midi": 74,
          "name": "D5",
          "ticks": 67584,
          "time": 52.8,
          "velocity": 0.7874015748031497
        },
        {
          "duration": 1.2000000000000028,
          "durationTicks": 1536,
          "midi": 70,
          "name": "A#4",
          "ticks": 67584,
          "time": 52.8,
          "velocity": 0.7874015748031497
        },
        {
          "duration": 0.6000000000000014,
          "durationTicks": 768,
          "midi": 77,
          "name": "F5",
          "ticks": 69120,
          "time": 54,
          "velocity": 0.7874015748031497
        },
        {
          "duration": 0.6000000000000014,
          "durationTicks": 768,
          "midi": 72,
          "name": "C5",
          "ticks": 69120,
          "time": 54,
          "velocity": 0.7874015748031497
        },
        {
          "duration": 0.6000000000000014,
          "durationTicks": 768,
          "midi": 69,
          "name": "A4",
          "ticks": 69120,
          "time": 54,
          "velocity": 0.7874015748031497
        },
        {
          "duration": 0.5999999999999943,
          "durationTicks": 768,
          "midi": 70,
          "name": "A#4",
          "ticks": 69888,
          "time": 54.6,
          "velocity": 0.7874015748031497
        },
        {
          "duration": 0.5999999999999943,
          "durationTicks": 768,
          "midi": 74,
          "name": "D5",
          "ticks": 69888,
          "time": 54.6,
          "velocity": 0.7874015748031497
        },
        {
          "duration": 0.5999999999999943,
          "durationTicks": 768,
          "midi": 77,
          "name": "F5",
          "ticks": 69888,
          "time": 54.6,
          "velocity": 0.7874015748031497
        },
        {
          "duration": 1.2000000000000028,
          "durationTicks": 1536,
          "midi": 74,
          "name": "D5",
          "ticks": 70656,
          "time": 55.199999999999996,
          "velocity": 0.7874015748031497
        },
        {
          "duration": 1.2000000000000028,
          "durationTicks": 1536,
          "midi": 65,
          "name": "F4",
          "ticks": 70656,
          "time": 55.199999999999996,
          "velocity": 0.7874015748031497
        },
        {
          "duration": 1.2000000000000028,
          "durationTicks": 1536,
          "midi": 70,
          "name": "A#4",
          "ticks": 70656,
          "time": 55.199999999999996,
          "velocity": 0.7874015748031497
        },
        {
          "duration": 0.6000000000000014,
          "durationTicks": 768,
          "midi": 69,
          "name": "A4",
          "ticks": 72192,
          "time": 56.4,
          "velocity": 0.7874015748031497
        },
        {
          "duration": 0.6000000000000014,
          "durationTicks": 768,
          "midi": 72,
          "name": "C5",
          "ticks": 72192,
          "time": 56.4,
          "velocity": 0.7874015748031497
        },
        {
          "duration": 0.6000000000000014,
          "durationTicks": 768,
          "midi": 65,
          "name": "F4",
          "ticks": 72192,
          "time": 56.4,
          "velocity": 0.7874015748031497
        },
        {
          "duration": 0.5999999999999943,
          "durationTicks": 768,
          "midi": 65,
          "name": "F4",
          "ticks": 72960,
          "time": 57,
          "velocity": 0.7874015748031497
        },
        {
          "duration": 0.5999999999999943,
          "durationTicks": 768,
          "midi": 74,
          "name": "D5",
          "ticks": 72960,
          "time": 57,
          "velocity": 0.7874015748031497
        },
        {
          "duration": 0.5999999999999943,
          "durationTicks": 768,
          "midi": 70,
          "name": "A#4",
          "ticks": 72960,
          "time": 57,
          "velocity": 0.7874015748031497
        },
        {
          "duration": 1.2000000000000028,
          "durationTicks": 1536,
          "midi": 74,
          "name": "D5",
          "ticks": 73728,
          "time": 57.599999999999994,
          "velocity": 0.7874015748031497
        },
        {
          "duration": 1.2000000000000028,
          "durationTicks": 1536,
          "midi": 77,
          "name": "F5",
          "ticks": 73728,
          "time": 57.599999999999994,
          "velocity": 0.7874015748031497
        },
        {
          "duration": 1.2000000000000028,
          "durationTicks": 1536,
          "midi": 70,
          "name": "A#4",
          "ticks": 73728,
          "time": 57.599999999999994,
          "velocity": 0.7874015748031497
        },
        {
          "duration": 0.6000000000000014,
          "durationTicks": 768,
          "midi": 77,
          "name": "F5",
          "ticks": 75264,
          "time": 58.8,
          "velocity": 0.7874015748031497
        },
        {
          "duration": 0.6000000000000014,
          "durationTicks": 768,
          "midi": 72,
          "name": "C5",
          "ticks": 75264,
          "time": 58.8,
          "velocity": 0.7874015748031497
        },
        {
          "duration": 0.6000000000000014,
          "durationTicks": 768,
          "midi": 69,
          "name": "A4",
          "ticks": 75264,
          "time": 58.8,
          "velocity": 0.7874015748031497
        },
        {
          "duration": 0.6000000000000014,
          "durationTicks": 768,
          "midi": 77,
          "name": "F5",
          "ticks": 76032,
          "time": 59.4,
          "velocity": 0.7874015748031497
        },
        {
          "duration": 0.6000000000000014,
          "durationTicks": 768,
          "midi": 70,
          "name": "A#4",
          "ticks": 76032,
          "time": 59.4,
          "velocity": 0.7874015748031497
        },
        {
          "duration": 0.6000000000000014,
          "durationTicks": 768,
          "midi": 74,
          "name": "D5",
          "ticks": 76032,
          "time": 59.4,
          "velocity": 0.7874015748031497
        },
        {
          "duration": 1.1999999999999957,
          "durationTicks": 1536,
          "midi": 70,
          "name": "A#4",
          "ticks": 76800,
          "time": 60,
          "velocity": 0.7874015748031497
        },
        {
          "duration": 1.1999999999999957,
          "durationTicks": 1536,
          "midi": 65,
          "name": "F4",
          "ticks": 76800,
          "time": 60,
          "velocity": 0.7874015748031497
        },
        {
          "duration": 1.1999999999999957,
          "durationTicks": 1536,
          "midi": 74,
          "name": "D5",
          "ticks": 76800,
          "time": 60,
          "velocity": 0.7874015748031497
        },
        {
          "duration": 0.6000000000000014,
          "durationTicks": 768,
          "midi": 69,
          "name": "A4",
          "ticks": 78336,
          "time": 61.199999999999996,
          "velocity": 0.7874015748031497
        },
        {
          "duration": 0.6000000000000014,
          "durationTicks": 768,
          "midi": 72,
          "name": "C5",
          "ticks": 78336,
          "time": 61.199999999999996,
          "velocity": 0.7874015748031497
        },
        {
          "duration": 0.6000000000000014,
          "durationTicks": 768,
          "midi": 65,
          "name": "F4",
          "ticks": 78336,
          "time": 61.199999999999996,
          "velocity": 0.7874015748031497
        },
        {
          "duration": 0.6000000000000014,
          "durationTicks": 768,
          "midi": 65,
          "name": "F4",
          "ticks": 79104,
          "time": 61.8,
          "velocity": 0.7874015748031497
        },
        {
          "duration": 0.6000000000000014,
          "durationTicks": 768,
          "midi": 74,
          "name": "D5",
          "ticks": 79104,
          "time": 61.8,
          "velocity": 0.7874015748031497
        },
        {
          "duration": 0.6000000000000014,
          "durationTicks": 768,
          "midi": 70,
          "name": "A#4",
          "ticks": 79104,
          "time": 61.8,
          "velocity": 0.7874015748031497
        },
        {
          "duration": 1.1999999999999957,
          "durationTicks": 1536,
          "midi": 70,
          "name": "A#4",
          "ticks": 79872,
          "time": 62.4,
          "velocity": 0.7874015748031497
        },
        {
          "duration": 1.1999999999999957,
          "durationTicks": 1536,
          "midi": 67,
          "name": "G4",
          "ticks": 79872,
          "time": 62.4,
          "velocity": 0.7874015748031497
        },
        {
          "duration": 1.1999999999999957,
          "durationTicks": 1536,
          "midi": 75,
          "name": "D#5",
          "ticks": 79872,
          "time": 62.4,
          "velocity": 0.7874015748031497
        },
        {
          "duration": 1.2000000000000028,
          "durationTicks": 1536,
          "midi": 74,
          "name": "D5",
          "ticks": 81408,
          "time": 63.599999999999994,
          "velocity": 0.7874015748031497
        },
        {
          "duration": 1.2000000000000028,
          "durationTicks": 1536,
          "midi": 65,
          "name": "F4",
          "ticks": 81408,
          "time": 63.599999999999994,
          "velocity": 0.7874015748031497
        },
        {
          "duration": 1.2000000000000028,
          "durationTicks": 1536,
          "midi": 70,
          "name": "A#4",
          "ticks": 81408,
          "time": 63.599999999999994,
          "velocity": 0.7874015748031497
        },
        {
          "duration": 1.2000000000000028,
          "durationTicks": 1536,
          "midi": 65,
          "name": "F4",
          "ticks": 82944,
          "time": 64.8,
          "velocity": 0.7874015748031497
        },
        {
          "duration": 1.2000000000000028,
          "durationTicks": 1536,
          "midi": 72,
          "name": "C5",
          "ticks": 82944,
          "time": 64.8,
          "velocity": 0.7874015748031497
        },
        {
          "duration": 1.2000000000000028,
          "durationTicks": 1536,
          "midi": 69,
          "name": "A4",
          "ticks": 82944,
          "time": 64.8,
          "velocity": 0.7874015748031497
        },
        {
          "duration": 1.2000000000000028,
          "durationTicks": 1536,
          "midi": 70,
          "name": "A#4",
          "ticks": 84480,
          "time": 66,
          "velocity": 0.7874015748031497
        },
        {
          "duration": 1.2000000000000028,
          "durationTicks": 1536,
          "midi": 74,
          "name": "D5",
          "ticks": 84480,
          "time": 66,
          "velocity": 0.7874015748031497
        },
        {
          "duration": 1.2000000000000028,
          "durationTicks": 1536,
          "midi": 65,
          "name": "F4",
          "ticks": 84480,
          "time": 66,
          "velocity": 0.7874015748031497
        },
        {
          "duration": 1.1999999999999886,
          "durationTicks": 1536,
          "midi": 70,
          "name": "A#4",
          "ticks": 86016,
          "time": 67.2,
          "velocity": 0.7874015748031497
        },
        {
          "duration": 1.1999999999999886,
          "durationTicks": 1536,
          "midi": 63,
          "name": "D#4",
          "ticks": 86016,
          "time": 67.2,
          "velocity": 0.7874015748031497
        },
        {
          "duration": 1.1999999999999886,
          "durationTicks": 1536,
          "midi": 67,
          "name": "G4",
          "ticks": 86016,
          "time": 67.2,
          "velocity": 0.7874015748031497
        },
        {
          "duration": 1.2000000000000028,
          "durationTicks": 1536,
          "midi": 62,
          "name": "D4",
          "ticks": 87552,
          "time": 68.39999999999999,
          "velocity": 0.7874015748031497
        },
        {
          "duration": 1.2000000000000028,
          "durationTicks": 1536,
          "midi": 65,
          "name": "F4",
          "ticks": 87552,
          "time": 68.39999999999999,
          "velocity": 0.7874015748031497
        },
        {
          "duration": 1.2000000000000028,
          "durationTicks": 1536,
          "midi": 70,
          "name": "A#4",
          "ticks": 87552,
          "time": 68.39999999999999,
          "velocity": 0.7874015748031497
        },
        {
          "duration": 1.2000000000000028,
          "durationTicks": 1536,
          "midi": 69,
          "name": "A4",
          "ticks": 89088,
          "time": 69.6,
          "velocity": 0.7874015748031497
        },
        {
          "duration": 1.2000000000000028,
          "durationTicks": 1536,
          "midi": 60,
          "name": "C4",
          "ticks": 89088,
          "time": 69.6,
          "velocity": 0.7874015748031497
        },
        {
          "duration": 1.2000000000000028,
          "durationTicks": 1536,
          "midi": 65,
          "name": "F4",
          "ticks": 89088,
          "time": 69.6,
          "velocity": 0.7874015748031497
        },
        {
          "duration": 1.2000000000000028,
          "durationTicks": 1536,
          "midi": 70,
          "name": "A#4",
          "ticks": 90624,
          "time": 70.8,
          "velocity": 0.7874015748031497
        },
        {
          "duration": 1.2000000000000028,
          "durationTicks": 1536,
          "midi": 62,
          "name": "D4",
          "ticks": 90624,
          "time": 70.8,
          "velocity": 0.7874015748031497
        },
        {
          "duration": 1.2000000000000028,
          "durationTicks": 1536,
          "midi": 65,
          "name": "F4",
          "ticks": 90624,
          "time": 70.8,
          "velocity": 0.7874015748031497
        },
        {
          "duration": 1.1999999999999886,
          "durationTicks": 1536,
          "midi": 77,
          "name": "F5",
          "ticks": 139776,
          "time": 109.2,
          "velocity": 0.7874015748031497
        },
        {
          "duration": 1.1999999999999886,
          "durationTicks": 1536,
          "midi": 69,
          "name": "A4",
          "ticks": 139776,
          "time": 109.2,
          "velocity": 0.7874015748031497
        },
        {
          "duration": 1.1999999999999886,
          "durationTicks": 1536,
          "midi": 72,
          "name": "C5",
          "ticks": 139776,
          "time": 109.2,
          "velocity": 0.7874015748031497
        },
        {
          "duration": 1.2000000000000028,
          "durationTicks": 1536,
          "midi": 77,
          "name": "F5",
          "ticks": 141312,
          "time": 110.39999999999999,
          "velocity": 0.7874015748031497
        },
        {
          "duration": 1.2000000000000028,
          "durationTicks": 1536,
          "midi": 74,
          "name": "D5",
          "ticks": 141312,
          "time": 110.39999999999999,
          "velocity": 0.7874015748031497
        },
        {
          "duration": 1.2000000000000028,
          "durationTicks": 1536,
          "midi": 70,
          "name": "A#4",
          "ticks": 141312,
          "time": 110.39999999999999,
          "velocity": 0.7874015748031497
        },
        {
          "duration": 1.2000000000000028,
          "durationTicks": 1536,
          "midi": 77,
          "name": "F5",
          "ticks": 142848,
          "time": 111.6,
          "velocity": 0.7874015748031497
        },
        {
          "duration": 1.2000000000000028,
          "durationTicks": 1536,
          "midi": 69,
          "name": "A4",
          "ticks": 142848,
          "time": 111.6,
          "velocity": 0.7874015748031497
        },
        {
          "duration": 1.2000000000000028,
          "durationTicks": 1536,
          "midi": 72,
          "name": "C5",
          "ticks": 142848,
          "time": 111.6,
          "velocity": 0.7874015748031497
        },
        {
          "duration": 1.2000000000000028,
          "durationTicks": 1536,
          "midi": 70,
          "name": "A#4",
          "ticks": 144384,
          "time": 112.8,
          "velocity": 0.7874015748031497
        },
        {
          "duration": 1.2000000000000028,
          "durationTicks": 1536,
          "midi": 74,
          "name": "D5",
          "ticks": 144384,
          "time": 112.8,
          "velocity": 0.7874015748031497
        },
        {
          "duration": 1.2000000000000028,
          "durationTicks": 1536,
          "midi": 77,
          "name": "F5",
          "ticks": 144384,
          "time": 112.8,
          "velocity": 0.7874015748031497
        },
        {
          "duration": 1.1999999999999886,
          "durationTicks": 1536,
          "midi": 70,
          "name": "A#4",
          "ticks": 145920,
          "time": 114,
          "velocity": 0.7874015748031497
        },
        {
          "duration": 1.1999999999999886,
          "durationTicks": 1536,
          "midi": 79,
          "name": "G5",
          "ticks": 145920,
          "time": 114,
          "velocity": 0.7874015748031497
        },
        {
          "duration": 1.1999999999999886,
          "durationTicks": 1536,
          "midi": 75,
          "name": "D#5",
          "ticks": 145920,
          "time": 114,
          "velocity": 0.7874015748031497
        },
        {
          "duration": 1.2000000000000028,
          "durationTicks": 1536,
          "midi": 74,
          "name": "D5",
          "ticks": 147456,
          "time": 115.19999999999999,
          "velocity": 0.7874015748031497
        },
        {
          "duration": 1.2000000000000028,
          "durationTicks": 1536,
          "midi": 77,
          "name": "F5",
          "ticks": 147456,
          "time": 115.19999999999999,
          "velocity": 0.7874015748031497
        },
        {
          "duration": 1.2000000000000028,
          "durationTicks": 1536,
          "midi": 70,
          "name": "A#4",
          "ticks": 147456,
          "time": 115.19999999999999,
          "velocity": 0.7874015748031497
        },
        {
          "duration": 1.2000000000000028,
          "durationTicks": 1536,
          "midi": 72,
          "name": "C5",
          "ticks": 148992,
          "time": 116.39999999999999,
          "velocity": 0.7874015748031497
        },
        {
          "duration": 1.2000000000000028,
          "durationTicks": 1536,
          "midi": 65,
          "name": "F4",
          "ticks": 148992,
          "time": 116.39999999999999,
          "velocity": 0.7874015748031497
        },
        {
          "duration": 1.2000000000000028,
          "durationTicks": 1536,
          "midi": 69,
          "name": "A4",
          "ticks": 148992,
          "time": 116.39999999999999,
          "velocity": 0.7874015748031497
        },
        {
          "duration": 1.2000000000000028,
          "durationTicks": 1536,
          "midi": 65,
          "name": "F4",
          "ticks": 150528,
          "time": 117.6,
          "velocity": 0.7874015748031497
        },
        {
          "duration": 1.2000000000000028,
          "durationTicks": 1536,
          "midi": 74,
          "name": "D5",
          "ticks": 150528,
          "time": 117.6,
          "velocity": 0.7874015748031497
        },
        {
          "duration": 1.2000000000000028,
          "durationTicks": 1536,
          "midi": 70,
          "name": "A#4",
          "ticks": 150528,
          "time": 117.6,
          "velocity": 0.7874015748031497
        },
        {
          "duration": 1.2000000000000028,
          "durationTicks": 1536,
          "midi": 69,
          "name": "A4",
          "ticks": 152064,
          "time": 118.8,
          "velocity": 0.7874015748031497
        },
        {
          "duration": 1.2000000000000028,
          "durationTicks": 1536,
          "midi": 77,
          "name": "F5",
          "ticks": 152064,
          "time": 118.8,
          "velocity": 0.7874015748031497
        },
        {
          "duration": 1.2000000000000028,
          "durationTicks": 1536,
          "midi": 72,
          "name": "C5",
          "ticks": 152064,
          "time": 118.8,
          "velocity": 0.7874015748031497
        },
        {
          "duration": 1.1999999999999886,
          "durationTicks": 1536,
          "midi": 74,
          "name": "D5",
          "ticks": 153600,
          "time": 120,
          "velocity": 0.7874015748031497
        },
        {
          "duration": 1.1999999999999886,
          "durationTicks": 1536,
          "midi": 70,
          "name": "A#4",
          "ticks": 153600,
          "time": 120,
          "velocity": 0.7874015748031497
        },
        {
          "duration": 1.1999999999999886,
          "durationTicks": 1536,
          "midi": 77,
          "name": "F5",
          "ticks": 153600,
          "time": 120,
          "velocity": 0.7874015748031497
        },
        {
          "duration": 1.2000000000000028,
          "durationTicks": 1536,
          "midi": 77,
          "name": "F5",
          "ticks": 155136,
          "time": 121.19999999999999,
          "velocity": 0.7874015748031497
        },
        {
          "duration": 1.2000000000000028,
          "durationTicks": 1536,
          "midi": 69,
          "name": "A4",
          "ticks": 155136,
          "time": 121.19999999999999,
          "velocity": 0.7874015748031497
        },
        {
          "duration": 1.2000000000000028,
          "durationTicks": 1536,
          "midi": 72,
          "name": "C5",
          "ticks": 155136,
          "time": 121.19999999999999,
          "velocity": 0.7874015748031497
        },
        {
          "duration": 1.2000000000000028,
          "durationTicks": 1536,
          "midi": 74,
          "name": "D5",
          "ticks": 156672,
          "time": 122.39999999999999,
          "velocity": 0.7874015748031497
        },
        {
          "duration": 1.2000000000000028,
          "durationTicks": 1536,
          "midi": 70,
          "name": "A#4",
          "ticks": 156672,
          "time": 122.39999999999999,
          "velocity": 0.7874015748031497
        },
        {
          "duration": 1.2000000000000028,
          "durationTicks": 1536,
          "midi": 77,
          "name": "F5",
          "ticks": 156672,
          "time": 122.39999999999999,
          "velocity": 0.7874015748031497
        },
        {
          "duration": 1.2000000000000028,
          "durationTicks": 1536,
          "midi": 75,
          "name": "D#5",
          "ticks": 158208,
          "time": 123.6,
          "velocity": 0.7874015748031497
        },
        {
          "duration": 1.2000000000000028,
          "durationTicks": 1536,
          "midi": 67,
          "name": "G4",
          "ticks": 158208,
          "time": 123.6,
          "velocity": 0.7874015748031497
        },
        {
          "duration": 1.2000000000000028,
          "durationTicks": 1536,
          "midi": 70,
          "name": "A#4",
          "ticks": 158208,
          "time": 123.6,
          "velocity": 0.7874015748031497
        },
        {
          "duration": 1.2000000000000028,
          "durationTicks": 1536,
          "midi": 70,
          "name": "A#4",
          "ticks": 159744,
          "time": 124.8,
          "velocity": 0.7874015748031497
        },
        {
          "duration": 1.2000000000000028,
          "durationTicks": 1536,
          "midi": 74,
          "name": "D5",
          "ticks": 159744,
          "time": 124.8,
          "velocity": 0.7874015748031497
        },
        {
          "duration": 1.2000000000000028,
          "durationTicks": 1536,
          "midi": 65,
          "name": "F4",
          "ticks": 159744,
          "time": 124.8,
          "velocity": 0.7874015748031497
        },
        {
          "duration": 1.1999999999999886,
          "durationTicks": 1536,
          "midi": 69,
          "name": "A4",
          "ticks": 161280,
          "time": 126,
          "velocity": 0.7874015748031497
        },
        {
          "duration": 1.1999999999999886,
          "durationTicks": 1536,
          "midi": 72,
          "name": "C5",
          "ticks": 161280,
          "time": 126,
          "velocity": 0.7874015748031497
        },
        {
          "duration": 1.1999999999999886,
          "durationTicks": 1536,
          "midi": 65,
          "name": "F4",
          "ticks": 161280,
          "time": 126,
          "velocity": 0.7874015748031497
        },
        {
          "duration": 1.200000000000017,
          "durationTicks": 1536,
          "midi": 70,
          "name": "A#4",
          "ticks": 162816,
          "time": 127.19999999999999,
          "velocity": 0.7874015748031497
        },
        {
          "duration": 1.200000000000017,
          "durationTicks": 1536,
          "midi": 62,
          "name": "D4",
          "ticks": 162816,
          "time": 127.19999999999999,
          "velocity": 0.7874015748031497
        },
        {
          "duration": 1.200000000000017,
          "durationTicks": 1536,
          "midi": 65,
          "name": "F4",
          "ticks": 162816,
          "time": 127.19999999999999,
          "velocity": 0.7874015748031497
        }
      ]
    },
    {
      "channel": 3,
      "controlChanges": {
        "7": [
          {
            "number": 7,
            "ticks": 1536,
            "time": 1.2,
            "value": 0.6299212598425197
          },
          {
            "number": 7,
            "ticks": 1536,
            "time": 1.2,
            "value": 0.6299212598425197
          },
          {
            "number": 7,
            "ticks": 1536,
            "time": 1.2,
            "value": 0.6299212598425197
          }
        ]
      },
      "pitchBends": [],
      "instrument": {
        "family": "percussive",
        "number": 114,
        "name": "steel drums"
      },
      "name": "STEEL GTR",
      "notes": [
        {
          "duration": 0.1499999999999999,
          "durationTicks": 192,
          "midi": 62,
          "name": "D4",
          "ticks": 1536,
          "time": 1.2,
          "velocity": 0.7874015748031497
        },
        {
          "duration": 0.15000000000000013,
          "durationTicks": 192,
          "midi": 65,
          "name": "F4",
          "ticks": 1728,
          "time": 1.3499999999999999,
          "velocity": 0.7874015748031497
        },
        {
          "duration": 0.1499999999999999,
          "durationTicks": 192,
          "midi": 70,
          "name": "A#4",
          "ticks": 1920,
          "time": 1.5,
          "velocity": 0.7874015748031497
        },
        {
          "duration": 0.30000000000000004,
          "durationTicks": 384,
          "midi": 74,
          "name": "D5",
          "ticks": 2112,
          "time": 1.65,
          "velocity": 0.7874015748031497
        },
        {
          "duration": 0.30000000000000004,
          "durationTicks": 384,
          "midi": 74,
          "name": "D5",
          "ticks": 2496,
          "time": 1.95,
          "velocity": 0.7874015748031497
        },
        {
          "duration": 0.1499999999999999,
          "durationTicks": 192,
          "midi": 70,
          "name": "A#4",
          "ticks": 2880,
          "time": 2.25,
          "velocity": 0.7874015748031497
        },
        {
          "duration": 0.2999999999999998,
          "durationTicks": 384,
          "midi": 72,
          "name": "C5",
          "ticks": 3072,
          "time": 2.4,
          "velocity": 0.7874015748031497
        },
        {
          "duration": 0.30000000000000027,
          "durationTicks": 384,
          "midi": 75,
          "name": "D#5",
          "ticks": 3456,
          "time": 2.6999999999999997,
          "velocity": 0.7874015748031497
        },
        {
          "duration": 0.2999999999999998,
          "durationTicks": 384,
          "midi": 74,
          "name": "D5",
          "ticks": 3840,
          "time": 3,
          "velocity": 0.7874015748031497
        },
        {
          "duration": 0.2999999999999998,
          "durationTicks": 384,
          "midi": 70,
          "name": "A#4",
          "ticks": 4224,
          "time": 3.3,
          "velocity": 0.7874015748031497
        },
        {
          "duration": 0.15000000000000036,
          "durationTicks": 192,
          "midi": 58,
          "name": "A#3",
          "ticks": 4608,
          "time": 3.5999999999999996,
          "velocity": 0.7874015748031497
        },
        {
          "duration": 0.1499999999999999,
          "durationTicks": 192,
          "midi": 62,
          "name": "D4",
          "ticks": 4800,
          "time": 3.75,
          "velocity": 0.7874015748031497
        },
        {
          "duration": 0.1499999999999999,
          "durationTicks": 192,
          "midi": 65,
          "name": "F4",
          "ticks": 4992,
          "time": 3.9,
          "velocity": 0.7874015748031497
        },
        {
          "duration": 0.2999999999999998,
          "durationTicks": 384,
          "midi": 70,
          "name": "A#4",
          "ticks": 5184,
          "time": 4.05,
          "velocity": 0.7874015748031497
        },
        {
          "duration": 0.2999999999999998,
          "durationTicks": 384,
          "midi": 70,
          "name": "A#4",
          "ticks": 5568,
          "time": 4.35,
          "velocity": 0.7874015748031497
        },
        {
          "duration": 0.15000000000000036,
          "durationTicks": 192,
          "midi": 60,
          "name": "C4",
          "ticks": 5952,
          "time": 4.6499999999999995,
          "velocity": 0.7874015748031497
        },
        {
          "duration": 0.2999999999999998,
          "durationTicks": 384,
          "midi": 69,
          "name": "A4",
          "ticks": 6144,
          "time": 4.8,
          "velocity": 0.7874015748031497
        },
        {
          "duration": 0.2999999999999998,
          "durationTicks": 384,
          "midi": 72,
          "name": "C5",
          "ticks": 6528,
          "time": 5.1,
          "velocity": 0.7874015748031497
        },
        {
          "duration": 0.3000000000000007,
          "durationTicks": 384,
          "midi": 70,
          "name": "A#4",
          "ticks": 6912,
          "time": 5.3999999999999995,
          "velocity": 0.7874015748031497
        },
        {
          "duration": 0.14999999999999947,
          "durationTicks": 192,
          "midi": 62,
          "name": "D4",
          "ticks": 7680,
          "time": 6,
          "velocity": 0.7874015748031497
        },
        {
          "duration": 0.15000000000000036,
          "durationTicks": 192,
          "midi": 65,
          "name": "F4",
          "ticks": 7872,
          "time": 6.1499999999999995,
          "velocity": 0.7874015748031497
        },
        {
          "duration": 0.15000000000000036,
          "durationTicks": 192,
          "midi": 70,
          "name": "A#4",
          "ticks": 8064,
          "time": 6.3,
          "velocity": 0.7874015748031497
        },
        {
          "duration": 0.2999999999999998,
          "durationTicks": 384,
          "midi": 74,
          "name": "D5",
          "ticks": 8256,
          "time": 6.45,
          "velocity": 0.7874015748031497
        },
        {
          "duration": 0.2999999999999998,
          "durationTicks": 384,
          "midi": 74,
          "name": "D5",
          "ticks": 8640,
          "time": 6.75,
          "velocity": 0.7874015748031497
        },
        {
          "duration": 0.14999999999999947,
          "durationTicks": 192,
          "midi": 70,
          "name": "A#4",
          "ticks": 9024,
          "time": 7.05,
          "velocity": 0.7874015748031497
        },
        {
          "duration": 0.3000000000000007,
          "durationTicks": 384,
          "midi": 72,
          "name": "C5",
          "ticks": 9216,
          "time": 7.199999999999999,
          "velocity": 0.7874015748031497
        },
        {
          "duration": 0.2999999999999998,
          "durationTicks": 384,
          "midi": 75,
          "name": "D#5",
          "ticks": 9600,
          "time": 7.5,
          "velocity": 0.7874015748031497
        },
        {
          "duration": 0.2999999999999998,
          "durationTicks": 384,
          "midi": 74,
          "name": "D5",
          "ticks": 9984,
          "time": 7.8,
          "velocity": 0.7874015748031497
        },
        {
          "duration": 0.3000000000000007,
          "durationTicks": 384,
          "midi": 70,
          "name": "A#4",
          "ticks": 10368,
          "time": 8.1,
          "velocity": 0.7874015748031497
        },
        {
          "duration": 0.14999999999999858,
          "durationTicks": 192,
          "midi": 58,
          "name": "A#3",
          "ticks": 10752,
          "time": 8.4,
          "velocity": 0.7874015748031497
        },
        {
          "duration": 0.15000000000000036,
          "durationTicks": 192,
          "midi": 62,
          "name": "D4",
          "ticks": 10944,
          "time": 8.549999999999999,
          "velocity": 0.7874015748031497
        },
        {
          "duration": 0.15000000000000036,
          "durationTicks": 192,
          "midi": 65,
          "name": "F4",
          "ticks": 11136,
          "time": 8.7,
          "velocity": 0.7874015748031497
        },
        {
          "duration": 0.3000000000000007,
          "durationTicks": 384,
          "midi": 70,
          "name": "A#4",
          "ticks": 11328,
          "time": 8.85,
          "velocity": 0.7874015748031497
        },
        {
          "duration": 0.29999999999999893,
          "durationTicks": 384,
          "midi": 70,
          "name": "A#4",
          "ticks": 11712,
          "time": 9.15,
          "velocity": 0.7874015748031497
        },
        {
          "duration": 0.15000000000000036,
          "durationTicks": 192,
          "midi": 60,
          "name": "C4",
          "ticks": 12096,
          "time": 9.45,
          "velocity": 0.7874015748031497
        },
        {
          "duration": 0.3000000000000007,
          "durationTicks": 384,
          "midi": 69,
          "name": "A4",
          "ticks": 12288,
          "time": 9.6,
          "velocity": 0.7874015748031497
        },
        {
          "duration": 0.29999999999999893,
          "durationTicks": 384,
          "midi": 72,
          "name": "C5",
          "ticks": 12672,
          "time": 9.9,
          "velocity": 0.7874015748031497
        },
        {
          "duration": 0.07500000000000107,
          "durationTicks": 96,
          "midi": 70,
          "name": "A#4",
          "ticks": 13056,
          "time": 10.2,
          "velocity": 0.7874015748031497
        },
        {
          "duration": 0.07499999999999929,
          "durationTicks": 96,
          "midi": 62,
          "name": "D4",
          "ticks": 13152,
          "time": 10.275,
          "velocity": 0.7874015748031497
        },
        {
          "duration": 0.07499999999999929,
          "durationTicks": 96,
          "midi": 70,
          "name": "A#4",
          "ticks": 13248,
          "time": 10.35,
          "velocity": 0.7874015748031497
        },
        {
          "duration": 0.07500000000000107,
          "durationTicks": 96,
          "midi": 62,
          "name": "D4",
          "ticks": 13344,
          "time": 10.424999999999999,
          "velocity": 0.7874015748031497
        },
        {
          "duration": 0.07499999999999929,
          "durationTicks": 96,
          "midi": 70,
          "name": "A#4",
          "ticks": 13440,
          "time": 10.5,
          "velocity": 0.7874015748031497
        },
        {
          "duration": 0.07500000000000107,
          "durationTicks": 96,
          "midi": 62,
          "name": "D4",
          "ticks": 13536,
          "time": 10.575,
          "velocity": 0.7874015748031497
        },
        {
          "duration": 0.14999999999999858,
          "durationTicks": 192,
          "midi": 70,
          "name": "A#4",
          "ticks": 13632,
          "time": 10.65,
          "velocity": 0.7874015748031497
        },
        {
          "duration": 0.14999999999999858,
          "durationTicks": 192,
          "midi": 62,
          "name": "D4",
          "ticks": 61440,
          "time": 48,
          "velocity": 0.7874015748031497
        },
        {
          "duration": 0.14999999999999858,
          "durationTicks": 192,
          "midi": 65,
          "name": "F4",
          "ticks": 61632,
          "time": 48.15,
          "velocity": 0.7874015748031497
        },
        {
          "duration": 0.14999999999999858,
          "durationTicks": 192,
          "midi": 70,
          "name": "A#4",
          "ticks": 61824,
          "time": 48.3,
          "velocity": 0.7874015748031497
        },
        {
          "duration": 0.30000000000000426,
          "durationTicks": 384,
          "midi": 74,
          "name": "D5",
          "ticks": 62016,
          "time": 48.449999999999996,
          "velocity": 0.7874015748031497
        },
        {
          "duration": 0.29999999999999716,
          "durationTicks": 384,
          "midi": 74,
          "name": "D5",
          "ticks": 62400,
          "time": 48.75,
          "velocity": 0.7874015748031497
        },
        {
          "duration": 0.14999999999999858,
          "durationTicks": 192,
          "midi": 70,
          "name": "A#4",
          "ticks": 62784,
          "time": 49.05,
          "velocity": 0.7874015748031497
        },
        {
          "duration": 0.30000000000000426,
          "durationTicks": 384,
          "midi": 72,
          "name": "C5",
          "ticks": 62976,
          "time": 49.199999999999996,
          "velocity": 0.7874015748031497
        },
        {
          "duration": 0.29999999999999716,
          "durationTicks": 384,
          "midi": 75,
          "name": "D#5",
          "ticks": 63360,
          "time": 49.5,
          "velocity": 0.7874015748031497
        },
        {
          "duration": 0.30000000000000426,
          "durationTicks": 384,
          "midi": 74,
          "name": "D5",
          "ticks": 63744,
          "time": 49.8,
          "velocity": 0.7874015748031497
        },
        {
          "duration": 0.29999999999999716,
          "durationTicks": 384,
          "midi": 70,
          "name": "A#4",
          "ticks": 64128,
          "time": 50.1,
          "velocity": 0.7874015748031497
        },
        {
          "duration": 0.14999999999999858,
          "durationTicks": 192,
          "midi": 58,
          "name": "A#3",
          "ticks": 64512,
          "time": 50.4,
          "velocity": 0.7874015748031497
        },
        {
          "duration": 0.14999999999999858,
          "durationTicks": 192,
          "midi": 62,
          "name": "D4",
          "ticks": 64704,
          "time": 50.55,
          "velocity": 0.7874015748031497
        },
        {
          "duration": 0.15000000000000568,
          "durationTicks": 192,
          "midi": 65,
          "name": "F4",
          "ticks": 64896,
          "time": 50.699999999999996,
          "velocity": 0.7874015748031497
        },
        {
          "duration": 0.29999999999999716,
          "durationTicks": 384,
          "midi": 70,
          "name": "A#4",
          "ticks": 65088,
          "time": 50.85,
          "velocity": 0.7874015748031497
        },
        {
          "duration": 0.29999999999999716,
          "durationTicks": 384,
          "midi": 70,
          "name": "A#4",
          "ticks": 65472,
          "time": 51.15,
          "velocity": 0.7874015748031497
        },
        {
          "duration": 0.15000000000000568,
          "durationTicks": 192,
          "midi": 60,
          "name": "C4",
          "ticks": 65856,
          "time": 51.449999999999996,
          "velocity": 0.7874015748031497
        },
        {
          "duration": 0.29999999999999716,
          "durationTicks": 384,
          "midi": 69,
          "name": "A4",
          "ticks": 66048,
          "time": 51.6,
          "velocity": 0.7874015748031497
        },
        {
          "duration": 0.29999999999999716,
          "durationTicks": 384,
          "midi": 72,
          "name": "C5",
          "ticks": 66432,
          "time": 51.9,
          "velocity": 0.7874015748031497
        },
        {
          "duration": 0.07500000000000284,
          "durationTicks": 96,
          "midi": 70,
          "name": "A#4",
          "ticks": 66816,
          "time": 52.199999999999996,
          "velocity": 0.7874015748031497
        },
        {
          "duration": 0.07500000000000284,
          "durationTicks": 96,
          "midi": 62,
          "name": "D4",
          "ticks": 66912,
          "time": 52.275,
          "velocity": 0.7874015748031497
        },
        {
          "duration": 0.07499999999999574,
          "durationTicks": 96,
          "midi": 70,
          "name": "A#4",
          "ticks": 67008,
          "time": 52.35,
          "velocity": 0.7874015748031497
        },
        {
          "duration": 0.07500000000000284,
          "durationTicks": 96,
          "midi": 62,
          "name": "D4",
          "ticks": 67104,
          "time": 52.425,
          "velocity": 0.7874015748031497
        },
        {
          "duration": 0.07499999999999574,
          "durationTicks": 96,
          "midi": 70,
          "name": "A#4",
          "ticks": 67200,
          "time": 52.5,
          "velocity": 0.7874015748031497
        },
        {
          "duration": 0.07500000000000284,
          "durationTicks": 96,
          "midi": 62,
          "name": "D4",
          "ticks": 67296,
          "time": 52.574999999999996,
          "velocity": 0.7874015748031497
        },
        {
          "duration": 0.14999999999999858,
          "durationTicks": 192,
          "midi": 70,
          "name": "A#4",
          "ticks": 67392,
          "time": 52.65,
          "velocity": 0.7874015748031497
        },
        {
          "duration": 0.15000000000000568,
          "durationTicks": 192,
          "midi": 62,
          "name": "D4",
          "ticks": 185856,
          "time": 145.2,
          "velocity": 0.7874015748031497
        },
        {
          "duration": 0.15000000000000568,
          "durationTicks": 192,
          "midi": 65,
          "name": "F4",
          "ticks": 186048,
          "time": 145.35,
          "velocity": 0.7874015748031497
        },
        {
          "duration": 0.15000000000000568,
          "durationTicks": 192,
          "midi": 70,
          "name": "A#4",
          "ticks": 186240,
          "time": 145.5,
          "velocity": 0.7874015748031497
        },
        {
          "duration": 0.29999999999998295,
          "durationTicks": 384,
          "midi": 74,
          "name": "D5",
          "ticks": 186432,
          "time": 145.65,
          "velocity": 0.7874015748031497
        },
        {
          "duration": 0.30000000000001137,
          "durationTicks": 384,
          "midi": 74,
          "name": "D5",
          "ticks": 186816,
          "time": 145.95,
          "velocity": 0.7874015748031497
        },
        {
          "duration": 0.15000000000000568,
          "durationTicks": 192,
          "midi": 70,
          "name": "A#4",
          "ticks": 187200,
          "time": 146.25,
          "velocity": 0.7874015748031497
        },
        {
          "duration": 0.29999999999998295,
          "durationTicks": 384,
          "midi": 72,
          "name": "C5",
          "ticks": 187392,
          "time": 146.4,
          "velocity": 0.7874015748031497
        },
        {
          "duration": 0.30000000000001137,
          "durationTicks": 384,
          "midi": 75,
          "name": "D#5",
          "ticks": 187776,
          "time": 146.7,
          "velocity": 0.7874015748031497
        },
        {
          "duration": 0.29999999999998295,
          "durationTicks": 384,
          "midi": 74,
          "name": "D5",
          "ticks": 188160,
          "time": 147,
          "velocity": 0.7874015748031497
        },
        {
          "duration": 0.30000000000001137,
          "durationTicks": 384,
          "midi": 70,
          "name": "A#4",
          "ticks": 188544,
          "time": 147.29999999999998,
          "velocity": 0.7874015748031497
        },
        {
          "duration": 0.15000000000000568,
          "durationTicks": 192,
          "midi": 58,
          "name": "A#3",
          "ticks": 188928,
          "time": 147.6,
          "velocity": 0.7874015748031497
        },
        {
          "duration": 0.15000000000000568,
          "durationTicks": 192,
          "midi": 62,
          "name": "D4",
          "ticks": 189120,
          "time": 147.75,
          "velocity": 0.7874015748031497
        },
        {
          "duration": 0.14999999999997726,
          "durationTicks": 192,
          "midi": 65,
          "name": "F4",
          "ticks": 189312,
          "time": 147.9,
          "velocity": 0.7874015748031497
        },
        {
          "duration": 0.30000000000001137,
          "durationTicks": 384,
          "midi": 70,
          "name": "A#4",
          "ticks": 189504,
          "time": 148.04999999999998,
          "velocity": 0.7874015748031497
        },
        {
          "duration": 0.30000000000001137,
          "durationTicks": 384,
          "midi": 70,
          "name": "A#4",
          "ticks": 189888,
          "time": 148.35,
          "velocity": 0.7874015748031497
        },
        {
          "duration": 0.14999999999997726,
          "durationTicks": 192,
          "midi": 60,
          "name": "C4",
          "ticks": 190272,
          "time": 148.65,
          "velocity": 0.7874015748031497
        },
        {
          "duration": 0.30000000000001137,
          "durationTicks": 384,
          "midi": 69,
          "name": "A4",
          "ticks": 190464,
          "time": 148.79999999999998,
          "velocity": 0.7874015748031497
        },
        {
          "duration": 0.30000000000001137,
          "durationTicks": 384,
          "midi": 72,
          "name": "C5",
          "ticks": 190848,
          "time": 149.1,
          "velocity": 0.7874015748031497
        },
        {
          "duration": 0.29999999999998295,
          "durationTicks": 384,
          "midi": 70,
          "name": "A#4",
          "ticks": 191232,
          "time": 149.4,
          "velocity": 0.7874015748031497
        },
        {
          "duration": 0.15000000000000568,
          "durationTicks": 192,
          "midi": 64,
          "name": "E4",
          "ticks": 192000,
          "time": 150,
          "velocity": 0.7874015748031497
        },
        {
          "duration": 0.14999999999997726,
          "durationTicks": 192,
          "midi": 67,
          "name": "G4",
          "ticks": 192192,
          "time": 150.15,
          "velocity": 0.7874015748031497
        },
        {
          "duration": 0.15000000000000568,
          "durationTicks": 192,
          "midi": 72,
          "name": "C5",
          "ticks": 192384,
          "time": 150.29999999999998,
          "velocity": 0.7874015748031497
        },
        {
          "duration": 0.30000000000001137,
          "durationTicks": 384,
          "midi": 76,
          "name": "E5",
          "ticks": 192576,
          "time": 150.45,
          "velocity": 0.7874015748031497
        },
        {
          "duration": 0.29999999999998295,
          "durationTicks": 384,
          "midi": 76,
          "name": "E5",
          "ticks": 192960,
          "time": 150.75,
          "velocity": 0.7874015748031497
        },
        {
          "duration": 0.15000000000000568,
          "durationTicks": 192,
          "midi": 67,
          "name": "G4",
          "ticks": 193344,
          "time": 151.04999999999998,
          "velocity": 0.7874015748031497
        },
        {
          "duration": 0.30000000000001137,
          "durationTicks": 384,
          "midi": 74,
          "name": "D5",
          "ticks": 193536,
          "time": 151.2,
          "velocity": 0.7874015748031497
        },
        {
          "duration": 0.29999999999998295,
          "durationTicks": 384,
          "midi": 77,
          "name": "F5",
          "ticks": 193920,
          "time": 151.5,
          "velocity": 0.7874015748031497
        },
        {
          "duration": 0.30000000000001137,
          "durationTicks": 384,
          "midi": 76,
          "name": "E5",
          "ticks": 194304,
          "time": 151.79999999999998,
          "velocity": 0.7874015748031497
        },
        {
          "duration": 0.30000000000001137,
          "durationTicks": 384,
          "midi": 72,
          "name": "C5",
          "ticks": 194688,
          "time": 152.1,
          "velocity": 0.7874015748031497
        },
        {
          "duration": 0.15000000000000568,
          "durationTicks": 192,
          "midi": 64,
          "name": "E4",
          "ticks": 219648,
          "time": 171.6,
          "velocity": 0.7874015748031497
        },
        {
          "duration": 0.15000000000000568,
          "durationTicks": 192,
          "midi": 67,
          "name": "G4",
          "ticks": 219840,
          "time": 171.75,
          "velocity": 0.7874015748031497
        },
        {
          "duration": 0.14999999999997726,
          "durationTicks": 192,
          "midi": 72,
          "name": "C5",
          "ticks": 220032,
          "time": 171.9,
          "velocity": 0.7874015748031497
        },
        {
          "duration": 0.30000000000001137,
          "durationTicks": 384,
          "midi": 76,
          "name": "E5",
          "ticks": 220224,
          "time": 172.04999999999998,
          "velocity": 0.7874015748031497
        },
        {
          "duration": 0.30000000000001137,
          "durationTicks": 384,
          "midi": 76,
          "name": "E5",
          "ticks": 220608,
          "time": 172.35,
          "velocity": 0.7874015748031497
        },
        {
          "duration": 0.14999999999997726,
          "durationTicks": 192,
          "midi": 67,
          "name": "G4",
          "ticks": 220992,
          "time": 172.65,
          "velocity": 0.7874015748031497
        },
        {
          "duration": 0.30000000000001137,
          "durationTicks": 384,
          "midi": 74,
          "name": "D5",
          "ticks": 221184,
          "time": 172.79999999999998,
          "velocity": 0.7874015748031497
        },
        {
          "duration": 0.30000000000001137,
          "durationTicks": 384,
          "midi": 77,
          "name": "F5",
          "ticks": 221568,
          "time": 173.1,
          "velocity": 0.7874015748031497
        },
        {
          "duration": 0.29999999999998295,
          "durationTicks": 384,
          "midi": 76,
          "name": "E5",
          "ticks": 221952,
          "time": 173.4,
          "velocity": 0.7874015748031497
        },
        {
          "duration": 0.30000000000001137,
          "durationTicks": 384,
          "midi": 72,
          "name": "C5",
          "ticks": 222336,
          "time": 173.7,
          "velocity": 0.7874015748031497
        },
        {
          "duration": 0.14999999999997726,
          "durationTicks": 192,
          "midi": 64,
          "name": "E4",
          "ticks": 225792,
          "time": 176.4,
          "velocity": 0.7874015748031497
        },
        {
          "duration": 0.15000000000000568,
          "durationTicks": 192,
          "midi": 67,
          "name": "G4",
          "ticks": 225984,
          "time": 176.54999999999998,
          "velocity": 0.7874015748031497
        },
        {
          "duration": 0.15000000000000568,
          "durationTicks": 192,
          "midi": 72,
          "name": "C5",
          "ticks": 226176,
          "time": 176.7,
          "velocity": 0.7874015748031497
        },
        {
          "duration": 0.30000000000001137,
          "durationTicks": 384,
          "midi": 76,
          "name": "E5",
          "ticks": 226368,
          "time": 176.85,
          "velocity": 0.7874015748031497
        },
        {
          "duration": 0.29999999999998295,
          "durationTicks": 384,
          "midi": 76,
          "name": "E5",
          "ticks": 226752,
          "time": 177.15,
          "velocity": 0.7874015748031497
        },
        {
          "duration": 0.15000000000000568,
          "durationTicks": 192,
          "midi": 67,
          "name": "G4",
          "ticks": 227136,
          "time": 177.45,
          "velocity": 0.7874015748031497
        },
        {
          "duration": 0.30000000000001137,
          "durationTicks": 384,
          "midi": 74,
          "name": "D5",
          "ticks": 227328,
          "time": 177.6,
          "velocity": 0.7874015748031497
        },
        {
          "duration": 0.29999999999998295,
          "durationTicks": 384,
          "midi": 77,
          "name": "F5",
          "ticks": 227712,
          "time": 177.9,
          "velocity": 0.7874015748031497
        },
        {
          "duration": 0.30000000000001137,
          "durationTicks": 384,
          "midi": 76,
          "name": "E5",
          "ticks": 228096,
          "time": 178.2,
          "velocity": 0.7874015748031497
        },
        {
          "duration": 0.29999999999998295,
          "durationTicks": 384,
          "midi": 72,
          "name": "C5",
          "ticks": 228480,
          "time": 178.5,
          "velocity": 0.7874015748031497
        },
        {
          "duration": 0.15000000000000568,
          "durationTicks": 192,
          "midi": 64,
          "name": "E4",
          "ticks": 238080,
          "time": 186,
          "velocity": 0.7874015748031497
        },
        {
          "duration": 0.14999999999997726,
          "durationTicks": 192,
          "midi": 67,
          "name": "G4",
          "ticks": 238272,
          "time": 186.15,
          "velocity": 0.7874015748031497
        },
        {
          "duration": 0.15000000000000568,
          "durationTicks": 192,
          "midi": 72,
          "name": "C5",
          "ticks": 238464,
          "time": 186.29999999999998,
          "velocity": 0.7874015748031497
        },
        {
          "duration": 0.30000000000001137,
          "durationTicks": 384,
          "midi": 76,
          "name": "E5",
          "ticks": 238656,
          "time": 186.45,
          "velocity": 0.7874015748031497
        },
        {
          "duration": 0.29999999999998295,
          "durationTicks": 384,
          "midi": 76,
          "name": "E5",
          "ticks": 239040,
          "time": 186.75,
          "velocity": 0.7874015748031497
        },
        {
          "duration": 0.15000000000000568,
          "durationTicks": 192,
          "midi": 67,
          "name": "G4",
          "ticks": 239424,
          "time": 187.04999999999998,
          "velocity": 0.7874015748031497
        },
        {
          "duration": 0.30000000000001137,
          "durationTicks": 384,
          "midi": 74,
          "name": "D5",
          "ticks": 239616,
          "time": 187.2,
          "velocity": 0.7874015748031497
        },
        {
          "duration": 0.29999999999998295,
          "durationTicks": 384,
          "midi": 77,
          "name": "F5",
          "ticks": 240000,
          "time": 187.5,
          "velocity": 0.7874015748031497
        },
        {
          "duration": 0.30000000000001137,
          "durationTicks": 384,
          "midi": 76,
          "name": "E5",
          "ticks": 240384,
          "time": 187.79999999999998,
          "velocity": 0.7874015748031497
        },
        {
          "duration": 0.30000000000001137,
          "durationTicks": 384,
          "midi": 72,
          "name": "C5",
          "ticks": 240768,
          "time": 188.1,
          "velocity": 0.7874015748031497
        },
        {
          "duration": 0.14999999999997726,
          "durationTicks": 192,
          "midi": 60,
          "name": "C4",
          "ticks": 241152,
          "time": 188.4,
          "velocity": 0.7874015748031497
        },
        {
          "duration": 0.15000000000000568,
          "durationTicks": 192,
          "midi": 64,
          "name": "E4",
          "ticks": 241344,
          "time": 188.54999999999998,
          "velocity": 0.7874015748031497
        },
        {
          "duration": 0.15000000000000568,
          "durationTicks": 192,
          "midi": 67,
          "name": "G4",
          "ticks": 241536,
          "time": 188.7,
          "velocity": 0.7874015748031497
        },
        {
          "duration": 0.30000000000001137,
          "durationTicks": 384,
          "midi": 72,
          "name": "C5",
          "ticks": 241728,
          "time": 188.85,
          "velocity": 0.7874015748031497
        },
        {
          "duration": 0.29999999999998295,
          "durationTicks": 384,
          "midi": 72,
          "name": "C5",
          "ticks": 242112,
          "time": 189.15,
          "velocity": 0.7874015748031497
        },
        {
          "duration": 0.15000000000000568,
          "durationTicks": 192,
          "midi": 67,
          "name": "G4",
          "ticks": 242496,
          "time": 189.45,
          "velocity": 0.7874015748031497
        },
        {
          "duration": 0.30000000000001137,
          "durationTicks": 384,
          "midi": 71,
          "name": "B4",
          "ticks": 242688,
          "time": 189.6,
          "velocity": 0.7874015748031497
        },
        {
          "duration": 0.29999999999998295,
          "durationTicks": 384,
          "midi": 74,
          "name": "D5",
          "ticks": 243072,
          "time": 189.9,
          "velocity": 0.7874015748031497
        },
        {
          "duration": 0.15000000000000568,
          "durationTicks": 192,
          "midi": 72,
          "name": "C5",
          "ticks": 243456,
          "time": 190.2,
          "velocity": 0.7874015748031497
        },
        {
          "duration": 0.15000000000000568,
          "durationTicks": 192,
          "midi": 84,
          "name": "C6",
          "ticks": 243840,
          "time": 190.5,
          "velocity": 1
        }
      ],
      "endOfTrackTicks": 245760
    },
    {
      "channel": 3,
      "controlChanges": {},
      "pitchBends": [],
      "instrument": {
        "family": "reed",
        "number": 66,
        "name": "tenor sax"
      },
      "name": "",
      "notes": [
        {
          "duration": 0.15000000000000568,
          "durationTicks": 192,
          "midi": 65,
          "name": "F4",
          "ticks": 148992,
          "time": 116.39999999999999,
          "velocity": 0.7874015748031497
        },
        {
          "duration": 0.14999999999999147,
          "durationTicks": 192,
          "midi": 67,
          "name": "G4",
          "ticks": 149184,
          "time": 116.55,
          "velocity": 0.7874015748031497
        },
        {
          "duration": 0.30000000000001137,
          "durationTicks": 384,
          "midi": 65,
          "name": "F4",
          "ticks": 149376,
          "time": 116.69999999999999,
          "velocity": 0.7874015748031497
        },
        {
          "duration": 0.14999999999999147,
          "durationTicks": 192,
          "midi": 70,
          "name": "A#4",
          "ticks": 150144,
          "time": 117.3,
          "velocity": 0.7874015748031497
        },
        {
          "duration": 0.14999999999999147,
          "durationTicks": 192,
          "midi": 70,
          "name": "A#4",
          "ticks": 150720,
          "time": 117.75,
          "velocity": 0.7874015748031497
        },
        {
          "duration": 0.15000000000000568,
          "durationTicks": 192,
          "midi": 70,
          "name": "A#4",
          "ticks": 150912,
          "time": 117.89999999999999,
          "velocity": 0.7874015748031497
        },
        {
          "duration": 0.14999999999999147,
          "durationTicks": 192,
          "midi": 70,
          "name": "A#4",
          "ticks": 151104,
          "time": 118.05,
          "velocity": 0.7874015748031497
        },
        {
          "duration": 0.15000000000000568,
          "durationTicks": 192,
          "midi": 70,
          "name": "A#4",
          "ticks": 151296,
          "time": 118.19999999999999,
          "velocity": 0.7874015748031497
        },
        {
          "duration": 0.6000000000000085,
          "durationTicks": 768,
          "midi": 46,
          "name": "A#2",
          "ticks": 151296,
          "time": 118.19999999999999,
          "velocity": 1
        },
        {
          "duration": 0.9000000000000057,
          "durationTicks": 1152,
          "midi": 58,
          "name": "A#3",
          "ticks": 157056,
          "time": 122.69999999999999,
          "velocity": 1
        }
      ]
    },
    {
      "channel": 4,
      "controlChanges": {
        "7": [
          {
            "number": 7,
            "ticks": 1536,
            "time": 1.2,
            "value": 0.7086614173228346
          },
          {
            "number": 7,
            "ticks": 1536,
            "time": 1.2,
            "value": 0.7086614173228346
          }
        ]
      },
      "pitchBends": [],
      "instrument": {
        "family": "chromatic percussion",
        "number": 12,
        "name": "marimba"
      },
      "name": "MARIMBA",
      "notes": [
        {
          "duration": 0.1499999999999999,
          "durationTicks": 192,
          "midi": 62,
          "name": "D4",
          "ticks": 1536,
          "time": 1.2,
          "velocity": 0.7874015748031497
        },
        {
          "duration": 0.15000000000000013,
          "durationTicks": 192,
          "midi": 65,
          "name": "F4",
          "ticks": 1728,
          "time": 1.3499999999999999,
          "velocity": 0.7874015748031497
        },
        {
          "duration": 0.1499999999999999,
          "durationTicks": 192,
          "midi": 70,
          "name": "A#4",
          "ticks": 1920,
          "time": 1.5,
          "velocity": 0.7874015748031497
        },
        {
          "duration": 0.30000000000000004,
          "durationTicks": 384,
          "midi": 70,
          "name": "A#4",
          "ticks": 2112,
          "time": 1.65,
          "velocity": 0.7874015748031497
        },
        {
          "duration": 0.30000000000000004,
          "durationTicks": 384,
          "midi": 70,
          "name": "A#4",
          "ticks": 2496,
          "time": 1.95,
          "velocity": 0.7874015748031497
        },
        {
          "duration": 0.1499999999999999,
          "durationTicks": 192,
          "midi": 62,
          "name": "D4",
          "ticks": 2880,
          "time": 2.25,
          "velocity": 0.7874015748031497
        },
        {
          "duration": 0.2999999999999998,
          "durationTicks": 384,
          "midi": 63,
          "name": "D#4",
          "ticks": 3072,
          "time": 2.4,
          "velocity": 0.7874015748031497
        },
        {
          "duration": 0.30000000000000027,
          "durationTicks": 384,
          "midi": 67,
          "name": "G4",
          "ticks": 3456,
          "time": 2.6999999999999997,
          "velocity": 0.7874015748031497
        },
        {
          "duration": 0.2999999999999998,
          "durationTicks": 384,
          "midi": 65,
          "name": "F4",
          "ticks": 3840,
          "time": 3,
          "velocity": 0.7874015748031497
        },
        {
          "duration": 0.2999999999999998,
          "durationTicks": 384,
          "midi": 62,
          "name": "D4",
          "ticks": 4224,
          "time": 3.3,
          "velocity": 0.7874015748031497
        },
        {
          "duration": 0.15000000000000036,
          "durationTicks": 192,
          "midi": 58,
          "name": "A#3",
          "ticks": 4608,
          "time": 3.5999999999999996,
          "velocity": 0.7874015748031497
        },
        {
          "duration": 0.1499999999999999,
          "durationTicks": 192,
          "midi": 62,
          "name": "D4",
          "ticks": 4800,
          "time": 3.75,
          "velocity": 0.7874015748031497
        },
        {
          "duration": 0.1499999999999999,
          "durationTicks": 192,
          "midi": 65,
          "name": "F4",
          "ticks": 4992,
          "time": 3.9,
          "velocity": 0.7874015748031497
        },
        {
          "duration": 0.2999999999999998,
          "durationTicks": 384,
          "midi": 62,
          "name": "D4",
          "ticks": 5184,
          "time": 4.05,
          "velocity": 0.7874015748031497
        },
        {
          "duration": 0.2999999999999998,
          "durationTicks": 384,
          "midi": 62,
          "name": "D4",
          "ticks": 5568,
          "time": 4.35,
          "velocity": 0.7874015748031497
        },
        {
          "duration": 0.15000000000000036,
          "durationTicks": 192,
          "midi": 60,
          "name": "C4",
          "ticks": 5952,
          "time": 4.6499999999999995,
          "velocity": 0.7874015748031497
        },
        {
          "duration": 0.2999999999999998,
          "durationTicks": 384,
          "midi": 65,
          "name": "F4",
          "ticks": 6144,
          "time": 4.8,
          "velocity": 0.7874015748031497
        },
        {
          "duration": 0.2999999999999998,
          "durationTicks": 384,
          "midi": 63,
          "name": "D#4",
          "ticks": 6528,
          "time": 5.1,
          "velocity": 0.7874015748031497
        },
        {
          "duration": 0.3000000000000007,
          "durationTicks": 384,
          "midi": 62,
          "name": "D4",
          "ticks": 6912,
          "time": 5.3999999999999995,
          "velocity": 0.7874015748031497
        },
        {
          "duration": 0.14999999999999947,
          "durationTicks": 192,
          "midi": 62,
          "name": "D4",
          "ticks": 7680,
          "time": 6,
          "velocity": 0.7874015748031497
        },
        {
          "duration": 0.15000000000000036,
          "durationTicks": 192,
          "midi": 65,
          "name": "F4",
          "ticks": 7872,
          "time": 6.1499999999999995,
          "velocity": 0.7874015748031497
        },
        {
          "duration": 0.15000000000000036,
          "durationTicks": 192,
          "midi": 70,
          "name": "A#4",
          "ticks": 8064,
          "time": 6.3,
          "velocity": 0.7874015748031497
        },
        {
          "duration": 0.2999999999999998,
          "durationTicks": 384,
          "midi": 70,
          "name": "A#4",
          "ticks": 8256,
          "time": 6.45,
          "velocity": 0.7874015748031497
        },
        {
          "duration": 0.2999999999999998,
          "durationTicks": 384,
          "midi": 70,
          "name": "A#4",
          "ticks": 8640,
          "time": 6.75,
          "velocity": 0.7874015748031497
        },
        {
          "duration": 0.14999999999999947,
          "durationTicks": 192,
          "midi": 62,
          "name": "D4",
          "ticks": 9024,
          "time": 7.05,
          "velocity": 0.7874015748031497
        },
        {
          "duration": 0.3000000000000007,
          "durationTicks": 384,
          "midi": 63,
          "name": "D#4",
          "ticks": 9216,
          "time": 7.199999999999999,
          "velocity": 0.7874015748031497
        },
        {
          "duration": 0.2999999999999998,
          "durationTicks": 384,
          "midi": 67,
          "name": "G4",
          "ticks": 9600,
          "time": 7.5,
          "velocity": 0.7874015748031497
        },
        {
          "duration": 0.2999999999999998,
          "durationTicks": 384,
          "midi": 65,
          "name": "F4",
          "ticks": 9984,
          "time": 7.8,
          "velocity": 0.7874015748031497
        },
        {
          "duration": 0.3000000000000007,
          "durationTicks": 384,
          "midi": 62,
          "name": "D4",
          "ticks": 10368,
          "time": 8.1,
          "velocity": 0.7874015748031497
        },
        {
          "duration": 0.14999999999999858,
          "durationTicks": 192,
          "midi": 58,
          "name": "A#3",
          "ticks": 10752,
          "time": 8.4,
          "velocity": 0.7874015748031497
        },
        {
          "duration": 0.15000000000000036,
          "durationTicks": 192,
          "midi": 62,
          "name": "D4",
          "ticks": 10944,
          "time": 8.549999999999999,
          "velocity": 0.7874015748031497
        },
        {
          "duration": 0.15000000000000036,
          "durationTicks": 192,
          "midi": 65,
          "name": "F4",
          "ticks": 11136,
          "time": 8.7,
          "velocity": 0.7874015748031497
        },
        {
          "duration": 0.3000000000000007,
          "durationTicks": 384,
          "midi": 62,
          "name": "D4",
          "ticks": 11328,
          "time": 8.85,
          "velocity": 0.7874015748031497
        },
        {
          "duration": 0.29999999999999893,
          "durationTicks": 384,
          "midi": 62,
          "name": "D4",
          "ticks": 11712,
          "time": 9.15,
          "velocity": 0.7874015748031497
        },
        {
          "duration": 0.15000000000000036,
          "durationTicks": 192,
          "midi": 60,
          "name": "C4",
          "ticks": 12096,
          "time": 9.45,
          "velocity": 0.7874015748031497
        },
        {
          "duration": 0.3000000000000007,
          "durationTicks": 384,
          "midi": 65,
          "name": "F4",
          "ticks": 12288,
          "time": 9.6,
          "velocity": 0.7874015748031497
        },
        {
          "duration": 0.29999999999999893,
          "durationTicks": 384,
          "midi": 63,
          "name": "D#4",
          "ticks": 12672,
          "time": 9.9,
          "velocity": 0.7874015748031497
        },
        {
          "duration": 0.07500000000000107,
          "durationTicks": 96,
          "midi": 70,
          "name": "A#4",
          "ticks": 13056,
          "time": 10.2,
          "velocity": 0.7874015748031497
        },
        {
          "duration": 0.07499999999999929,
          "durationTicks": 96,
          "midi": 62,
          "name": "D4",
          "ticks": 13152,
          "time": 10.275,
          "velocity": 0.7874015748031497
        },
        {
          "duration": 0.07499999999999929,
          "durationTicks": 96,
          "midi": 70,
          "name": "A#4",
          "ticks": 13248,
          "time": 10.35,
          "velocity": 0.7874015748031497
        },
        {
          "duration": 0.07500000000000107,
          "durationTicks": 96,
          "midi": 62,
          "name": "D4",
          "ticks": 13344,
          "time": 10.424999999999999,
          "velocity": 0.7874015748031497
        },
        {
          "duration": 0.07499999999999929,
          "durationTicks": 96,
          "midi": 70,
          "name": "A#4",
          "ticks": 13440,
          "time": 10.5,
          "velocity": 0.7874015748031497
        },
        {
          "duration": 0.07500000000000107,
          "durationTicks": 96,
          "midi": 62,
          "name": "D4",
          "ticks": 13536,
          "time": 10.575,
          "velocity": 0.7874015748031497
        },
        {
          "duration": 0.14999999999999858,
          "durationTicks": 192,
          "midi": 70,
          "name": "A#4",
          "ticks": 13632,
          "time": 10.65,
          "velocity": 0.7874015748031497
        },
        {
          "duration": 0.15000000000000036,
          "durationTicks": 192,
          "midi": 62,
          "name": "D4",
          "ticks": 13824,
          "time": 10.799999999999999,
          "velocity": 0.7874015748031497
        },
        {
          "duration": 0.15000000000000036,
          "durationTicks": 192,
          "midi": 58,
          "name": "A#3",
          "ticks": 13824,
          "time": 10.799999999999999,
          "velocity": 0.7874015748031497
        },
        {
          "duration": 0.15000000000000036,
          "durationTicks": 192,
          "midi": 65,
          "name": "F4",
          "ticks": 14400,
          "time": 11.25,
          "velocity": 0.7874015748031497
        },
        {
          "duration": 0.15000000000000036,
          "durationTicks": 192,
          "midi": 62,
          "name": "D4",
          "ticks": 14400,
          "time": 11.25,
          "velocity": 0.7874015748031497
        },
        {
          "duration": 0.15000000000000036,
          "durationTicks": 192,
          "midi": 60,
          "name": "C4",
          "ticks": 14784,
          "time": 11.549999999999999,
          "velocity": 0.7874015748031497
        },
        {
          "duration": 0.15000000000000036,
          "durationTicks": 192,
          "midi": 57,
          "name": "A3",
          "ticks": 14784,
          "time": 11.549999999999999,
          "velocity": 0.7874015748031497
        },
        {
          "duration": 0.15000000000000036,
          "durationTicks": 192,
          "midi": 60,
          "name": "C4",
          "ticks": 15360,
          "time": 12,
          "velocity": 0.7874015748031497
        },
        {
          "duration": 0.15000000000000036,
          "durationTicks": 192,
          "midi": 57,
          "name": "A3",
          "ticks": 15360,
          "time": 12,
          "velocity": 0.7874015748031497
        },
        {
          "duration": 0.15000000000000036,
          "durationTicks": 192,
          "midi": 60,
          "name": "C4",
          "ticks": 15744,
          "time": 12.299999999999999,
          "velocity": 0.7874015748031497
        },
        {
          "duration": 0.15000000000000036,
          "durationTicks": 192,
          "midi": 57,
          "name": "A3",
          "ticks": 15744,
          "time": 12.299999999999999,
          "velocity": 0.7874015748031497
        },
        {
          "duration": 0.15000000000000036,
          "durationTicks": 192,
          "midi": 62,
          "name": "D4",
          "ticks": 16128,
          "time": 12.6,
          "velocity": 0.7874015748031497
        },
        {
          "duration": 0.15000000000000036,
          "durationTicks": 192,
          "midi": 58,
          "name": "A#3",
          "ticks": 16128,
          "time": 12.6,
          "velocity": 0.7874015748031497
        },
        {
          "duration": 0.14999999999999858,
          "durationTicks": 192,
          "midi": 62,
          "name": "D4",
          "ticks": 16512,
          "time": 12.9,
          "velocity": 0.7874015748031497
        },
        {
          "duration": 0.14999999999999858,
          "durationTicks": 192,
          "midi": 58,
          "name": "A#3",
          "ticks": 16512,
          "time": 12.9,
          "velocity": 0.7874015748031497
        },
        {
          "duration": 0.15000000000000036,
          "durationTicks": 192,
          "midi": 62,
          "name": "D4",
          "ticks": 16896,
          "time": 13.2,
          "velocity": 0.7874015748031497
        },
        {
          "duration": 0.15000000000000036,
          "durationTicks": 192,
          "midi": 58,
          "name": "A#3",
          "ticks": 16896,
          "time": 13.2,
          "velocity": 0.7874015748031497
        },
        {
          "duration": 0.15000000000000036,
          "durationTicks": 192,
          "midi": 65,
          "name": "F4",
          "ticks": 17088,
          "time": 13.35,
          "velocity": 0.7874015748031497
        },
        {
          "duration": 0.15000000000000036,
          "durationTicks": 192,
          "midi": 62,
          "name": "D4",
          "ticks": 17088,
          "time": 13.35,
          "velocity": 0.7874015748031497
        },
        {
          "duration": 0.15000000000000036,
          "durationTicks": 192,
          "midi": 70,
          "name": "A#4",
          "ticks": 17280,
          "time": 13.5,
          "velocity": 0.7874015748031497
        },
        {
          "duration": 0.15000000000000036,
          "durationTicks": 192,
          "midi": 65,
          "name": "F4",
          "ticks": 17280,
          "time": 13.5,
          "velocity": 0.7874015748031497
        },
        {
          "duration": 0.14999999999999858,
          "durationTicks": 192,
          "midi": 74,
          "name": "D5",
          "ticks": 17472,
          "time": 13.65,
          "velocity": 0.7874015748031497
        },
        {
          "duration": 0.14999999999999858,
          "durationTicks": 192,
          "midi": 70,
          "name": "A#4",
          "ticks": 17472,
          "time": 13.65,
          "velocity": 0.7874015748031497
        },
        {
          "duration": 0.15000000000000036,
          "durationTicks": 192,
          "midi": 74,
          "name": "D5",
          "ticks": 17856,
          "time": 13.95,
          "velocity": 0.7874015748031497
        },
        {
          "duration": 0.15000000000000036,
          "durationTicks": 192,
          "midi": 70,
          "name": "A#4",
          "ticks": 17856,
          "time": 13.95,
          "velocity": 0.7874015748031497
        },
        {
          "duration": 0.14999999999999858,
          "durationTicks": 192,
          "midi": 74,
          "name": "D5",
          "ticks": 18240,
          "time": 14.25,
          "velocity": 0.7874015748031497
        },
        {
          "duration": 0.14999999999999858,
          "durationTicks": 192,
          "midi": 70,
          "name": "A#4",
          "ticks": 18240,
          "time": 14.25,
          "velocity": 0.7874015748031497
        },
        {
          "duration": 0.15000000000000036,
          "durationTicks": 192,
          "midi": 72,
          "name": "C5",
          "ticks": 18432,
          "time": 14.399999999999999,
          "velocity": 0.7874015748031497
        },
        {
          "duration": 0.15000000000000036,
          "durationTicks": 192,
          "midi": 69,
          "name": "A4",
          "ticks": 18432,
          "time": 14.399999999999999,
          "velocity": 0.7874015748031497
        },
        {
          "duration": 0.15000000000000036,
          "durationTicks": 192,
          "midi": 65,
          "name": "F4",
          "ticks": 18816,
          "time": 14.7,
          "velocity": 0.7874015748031497
        },
        {
          "duration": 0.15000000000000036,
          "durationTicks": 192,
          "midi": 60,
          "name": "C4",
          "ticks": 18816,
          "time": 14.7,
          "velocity": 0.7874015748031497
        },
        {
          "duration": 0.14999999999999858,
          "durationTicks": 192,
          "midi": 62,
          "name": "D4",
          "ticks": 19200,
          "time": 15,
          "velocity": 0.7874015748031497
        },
        {
          "duration": 0.14999999999999858,
          "durationTicks": 192,
          "midi": 58,
          "name": "A#3",
          "ticks": 19200,
          "time": 15,
          "velocity": 0.7874015748031497
        },
        {
          "duration": 0.15000000000000036,
          "durationTicks": 192,
          "midi": 62,
          "name": "D4",
          "ticks": 19968,
          "time": 15.6,
          "velocity": 0.7874015748031497
        },
        {
          "duration": 0.15000000000000036,
          "durationTicks": 192,
          "midi": 58,
          "name": "A#3",
          "ticks": 19968,
          "time": 15.6,
          "velocity": 0.7874015748031497
        },
        {
          "duration": 0.14999999999999858,
          "durationTicks": 192,
          "midi": 65,
          "name": "F4",
          "ticks": 20544,
          "time": 16.05,
          "velocity": 0.7874015748031497
        },
        {
          "duration": 0.14999999999999858,
          "durationTicks": 192,
          "midi": 62,
          "name": "D4",
          "ticks": 20544,
          "time": 16.05,
          "velocity": 0.7874015748031497
        },
        {
          "duration": 0.15000000000000213,
          "durationTicks": 192,
          "midi": 60,
          "name": "C4",
          "ticks": 20928,
          "time": 16.349999999999998,
          "velocity": 0.7874015748031497
        },
        {
          "duration": 0.15000000000000213,
          "durationTicks": 192,
          "midi": 57,
          "name": "A3",
          "ticks": 20928,
          "time": 16.349999999999998,
          "velocity": 0.7874015748031497
        },
        {
          "duration": 0.14999999999999858,
          "durationTicks": 192,
          "midi": 60,
          "name": "C4",
          "ticks": 21504,
          "time": 16.8,
          "velocity": 0.7874015748031497
        },
        {
          "duration": 0.14999999999999858,
          "durationTicks": 192,
          "midi": 57,
          "name": "A3",
          "ticks": 21504,
          "time": 16.8,
          "velocity": 0.7874015748031497
        },
        {
          "duration": 0.15000000000000213,
          "durationTicks": 192,
          "midi": 60,
          "name": "C4",
          "ticks": 21888,
          "time": 17.099999999999998,
          "velocity": 0.7874015748031497
        },
        {
          "duration": 0.15000000000000213,
          "durationTicks": 192,
          "midi": 57,
          "name": "A3",
          "ticks": 21888,
          "time": 17.099999999999998,
          "velocity": 0.7874015748031497
        },
        {
          "duration": 0.15000000000000213,
          "durationTicks": 192,
          "midi": 62,
          "name": "D4",
          "ticks": 22272,
          "time": 17.4,
          "velocity": 0.7874015748031497
        },
        {
          "duration": 0.15000000000000213,
          "durationTicks": 192,
          "midi": 58,
          "name": "A#3",
          "ticks": 22272,
          "time": 17.4,
          "velocity": 0.7874015748031497
        },
        {
          "duration": 0.14999999999999858,
          "durationTicks": 192,
          "midi": 62,
          "name": "D4",
          "ticks": 22656,
          "time": 17.7,
          "velocity": 0.7874015748031497
        },
        {
          "duration": 0.14999999999999858,
          "durationTicks": 192,
          "midi": 58,
          "name": "A#3",
          "ticks": 22656,
          "time": 17.7,
          "velocity": 0.7874015748031497
        },
        {
          "duration": 0.14999999999999858,
          "durationTicks": 192,
          "midi": 62,
          "name": "D4",
          "ticks": 23040,
          "time": 18,
          "velocity": 0.7874015748031497
        },
        {
          "duration": 0.14999999999999858,
          "durationTicks": 192,
          "midi": 58,
          "name": "A#3",
          "ticks": 23040,
          "time": 18,
          "velocity": 0.7874015748031497
        },
        {
          "duration": 0.15000000000000213,
          "durationTicks": 192,
          "midi": 65,
          "name": "F4",
          "ticks": 23232,
          "time": 18.15,
          "velocity": 0.7874015748031497
        },
        {
          "duration": 0.15000000000000213,
          "durationTicks": 192,
          "midi": 62,
          "name": "D4",
          "ticks": 23232,
          "time": 18.15,
          "velocity": 0.7874015748031497
        },
        {
          "duration": 0.14999999999999858,
          "durationTicks": 192,
          "midi": 70,
          "name": "A#4",
          "ticks": 23424,
          "time": 18.3,
          "velocity": 0.7874015748031497
        },
        {
          "duration": 0.14999999999999858,
          "durationTicks": 192,
          "midi": 65,
          "name": "F4",
          "ticks": 23424,
          "time": 18.3,
          "velocity": 0.7874015748031497
        },
        {
          "duration": 0.14999999999999858,
          "durationTicks": 192,
          "midi": 74,
          "name": "D5",
          "ticks": 23616,
          "time": 18.45,
          "velocity": 0.7874015748031497
        },
        {
          "duration": 0.14999999999999858,
          "durationTicks": 192,
          "midi": 70,
          "name": "A#4",
          "ticks": 23616,
          "time": 18.45,
          "velocity": 0.7874015748031497
        },
        {
          "duration": 0.14999999999999858,
          "durationTicks": 192,
          "midi": 74,
          "name": "D5",
          "ticks": 24000,
          "time": 18.75,
          "velocity": 0.7874015748031497
        },
        {
          "duration": 0.14999999999999858,
          "durationTicks": 192,
          "midi": 70,
          "name": "A#4",
          "ticks": 24000,
          "time": 18.75,
          "velocity": 0.7874015748031497
        },
        {
          "duration": 0.14999999999999858,
          "durationTicks": 192,
          "midi": 74,
          "name": "D5",
          "ticks": 24384,
          "time": 19.05,
          "velocity": 0.7874015748031497
        },
        {
          "duration": 0.14999999999999858,
          "durationTicks": 192,
          "midi": 70,
          "name": "A#4",
          "ticks": 24384,
          "time": 19.05,
          "velocity": 0.7874015748031497
        },
        {
          "duration": 0.14999999999999858,
          "durationTicks": 192,
          "midi": 72,
          "name": "C5",
          "ticks": 24576,
          "time": 19.2,
          "velocity": 0.7874015748031497
        },
        {
          "duration": 0.14999999999999858,
          "durationTicks": 192,
          "midi": 69,
          "name": "A4",
          "ticks": 24576,
          "time": 19.2,
          "velocity": 0.7874015748031497
        },
        {
          "duration": 0.14999999999999858,
          "durationTicks": 192,
          "midi": 72,
          "name": "C5",
          "ticks": 24960,
          "time": 19.5,
          "velocity": 0.7874015748031497
        },
        {
          "duration": 0.14999999999999858,
          "durationTicks": 192,
          "midi": 69,
          "name": "A4",
          "ticks": 24960,
          "time": 19.5,
          "velocity": 0.7874015748031497
        },
        {
          "duration": 0.14999999999999858,
          "durationTicks": 192,
          "midi": 70,
          "name": "A#4",
          "ticks": 25344,
          "time": 19.8,
          "velocity": 0.7874015748031497
        },
        {
          "duration": 0.14999999999999858,
          "durationTicks": 192,
          "midi": 62,
          "name": "D4",
          "ticks": 25344,
          "time": 19.8,
          "velocity": 0.7874015748031497
        },
        {
          "duration": 0.15000000000000213,
          "durationTicks": 192,
          "midi": 67,
          "name": "G4",
          "ticks": 26112,
          "time": 20.4,
          "velocity": 0.7874015748031497
        },
        {
          "duration": 0.14999999999999858,
          "durationTicks": 192,
          "midi": 70,
          "name": "A#4",
          "ticks": 26304,
          "time": 20.55,
          "velocity": 0.7874015748031497
        },
        {
          "duration": 0.14999999999999858,
          "durationTicks": 192,
          "midi": 75,
          "name": "D#5",
          "ticks": 26496,
          "time": 20.7,
          "velocity": 0.7874015748031497
        },
        {
          "duration": 0.15000000000000213,
          "durationTicks": 192,
          "midi": 75,
          "name": "D#5",
          "ticks": 26688,
          "time": 20.849999999999998,
          "velocity": 0.7874015748031497
        },
        {
          "duration": 0.15000000000000213,
          "durationTicks": 192,
          "midi": 79,
          "name": "G5",
          "ticks": 26688,
          "time": 20.849999999999998,
          "velocity": 0.7874015748031497
        },
        {
          "duration": 0.15000000000000213,
          "durationTicks": 192,
          "midi": 75,
          "name": "D#5",
          "ticks": 27072,
          "time": 21.15,
          "velocity": 0.7874015748031497
        },
        {
          "duration": 0.15000000000000213,
          "durationTicks": 192,
          "midi": 79,
          "name": "G5",
          "ticks": 27072,
          "time": 21.15,
          "velocity": 0.7874015748031497
        },
        {
          "duration": 0.15000000000000213,
          "durationTicks": 192,
          "midi": 77,
          "name": "F5",
          "ticks": 27648,
          "time": 21.599999999999998,
          "velocity": 0.7874015748031497
        },
        {
          "duration": 0.15000000000000213,
          "durationTicks": 192,
          "midi": 74,
          "name": "D5",
          "ticks": 27648,
          "time": 21.599999999999998,
          "velocity": 0.7874015748031497
        },
        {
          "duration": 0.15000000000000213,
          "durationTicks": 192,
          "midi": 74,
          "name": "D5",
          "ticks": 28032,
          "time": 21.9,
          "velocity": 0.7874015748031497
        },
        {
          "duration": 0.15000000000000213,
          "durationTicks": 192,
          "midi": 70,
          "name": "A#4",
          "ticks": 28032,
          "time": 21.9,
          "velocity": 0.7874015748031497
        },
        {
          "duration": 0.14999999999999858,
          "durationTicks": 192,
          "midi": 70,
          "name": "A#4",
          "ticks": 28416,
          "time": 22.2,
          "velocity": 0.7874015748031497
        },
        {
          "duration": 0.14999999999999858,
          "durationTicks": 192,
          "midi": 65,
          "name": "F4",
          "ticks": 28416,
          "time": 22.2,
          "velocity": 0.7874015748031497
        },
        {
          "duration": 0.14999999999999858,
          "durationTicks": 192,
          "midi": 74,
          "name": "D5",
          "ticks": 28800,
          "time": 22.5,
          "velocity": 0.7874015748031497
        },
        {
          "duration": 0.14999999999999858,
          "durationTicks": 192,
          "midi": 70,
          "name": "A#4",
          "ticks": 28800,
          "time": 22.5,
          "velocity": 0.7874015748031497
        },
        {
          "duration": 0.14999999999999858,
          "durationTicks": 192,
          "midi": 60,
          "name": "C4",
          "ticks": 29184,
          "time": 22.8,
          "velocity": 0.7874015748031497
        },
        {
          "duration": 0.14999999999999858,
          "durationTicks": 192,
          "midi": 65,
          "name": "F4",
          "ticks": 29184,
          "time": 22.8,
          "velocity": 0.7874015748031497
        },
        {
          "duration": 0.14999999999999858,
          "durationTicks": 192,
          "midi": 65,
          "name": "F4",
          "ticks": 29376,
          "time": 22.95,
          "velocity": 0.7874015748031497
        },
        {
          "duration": 0.14999999999999858,
          "durationTicks": 192,
          "midi": 69,
          "name": "A4",
          "ticks": 29376,
          "time": 22.95,
          "velocity": 0.7874015748031497
        },
        {
          "duration": 0.15000000000000213,
          "durationTicks": 192,
          "midi": 69,
          "name": "A4",
          "ticks": 29568,
          "time": 23.099999999999998,
          "velocity": 0.7874015748031497
        },
        {
          "duration": 0.15000000000000213,
          "durationTicks": 192,
          "midi": 72,
          "name": "C5",
          "ticks": 29568,
          "time": 23.099999999999998,
          "velocity": 0.7874015748031497
        },
        {
          "duration": 0.14999999999999858,
          "durationTicks": 192,
          "midi": 72,
          "name": "C5",
          "ticks": 29760,
          "time": 23.25,
          "velocity": 0.7874015748031497
        },
        {
          "duration": 0.14999999999999858,
          "durationTicks": 192,
          "midi": 77,
          "name": "F5",
          "ticks": 29760,
          "time": 23.25,
          "velocity": 0.7874015748031497
        },
        {
          "duration": 0.14999999999999858,
          "durationTicks": 192,
          "midi": 75,
          "name": "D#5",
          "ticks": 30144,
          "time": 23.55,
          "velocity": 0.7874015748031497
        },
        {
          "duration": 0.14999999999999858,
          "durationTicks": 192,
          "midi": 72,
          "name": "C5",
          "ticks": 30144,
          "time": 23.55,
          "velocity": 0.7874015748031497
        },
        {
          "duration": 0.14999999999999858,
          "durationTicks": 192,
          "midi": 74,
          "name": "D5",
          "ticks": 31104,
          "time": 24.3,
          "velocity": 0.7874015748031497
        },
        {
          "duration": 0.14999999999999858,
          "durationTicks": 192,
          "midi": 70,
          "name": "A#4",
          "ticks": 31104,
          "time": 24.3,
          "velocity": 0.7874015748031497
        },
        {
          "duration": 0.15000000000000213,
          "durationTicks": 192,
          "midi": 70,
          "name": "A#4",
          "ticks": 31872,
          "time": 24.9,
          "velocity": 0.7874015748031497
        },
        {
          "duration": 0.15000000000000213,
          "durationTicks": 192,
          "midi": 65,
          "name": "F4",
          "ticks": 31872,
          "time": 24.9,
          "velocity": 0.7874015748031497
        },
        {
          "duration": 0.14999999999999858,
          "durationTicks": 192,
          "midi": 79,
          "name": "G5",
          "ticks": 32256,
          "time": 25.2,
          "velocity": 0.7874015748031497
        },
        {
          "duration": 0.15000000000000213,
          "durationTicks": 192,
          "midi": 77,
          "name": "F5",
          "ticks": 32448,
          "time": 25.349999999999998,
          "velocity": 0.7874015748031497
        },
        {
          "duration": 0.14999999999999858,
          "durationTicks": 192,
          "midi": 75,
          "name": "D#5",
          "ticks": 32640,
          "time": 25.5,
          "velocity": 0.7874015748031497
        },
        {
          "duration": 0.15000000000000213,
          "durationTicks": 192,
          "midi": 74,
          "name": "D5",
          "ticks": 32832,
          "time": 25.65,
          "velocity": 0.7874015748031497
        },
        {
          "duration": 0.14999999999999858,
          "durationTicks": 192,
          "midi": 72,
          "name": "C5",
          "ticks": 33024,
          "time": 25.8,
          "velocity": 0.7874015748031497
        },
        {
          "duration": 0.14999999999999858,
          "durationTicks": 192,
          "midi": 70,
          "name": "A#4",
          "ticks": 33216,
          "time": 25.95,
          "velocity": 0.7874015748031497
        },
        {
          "duration": 0.15000000000000213,
          "durationTicks": 192,
          "midi": 69,
          "name": "A4",
          "ticks": 33408,
          "time": 26.099999999999998,
          "velocity": 0.7874015748031497
        },
        {
          "duration": 0.14999999999999858,
          "durationTicks": 192,
          "midi": 67,
          "name": "G4",
          "ticks": 33600,
          "time": 26.25,
          "velocity": 0.7874015748031497
        },
        {
          "duration": 0.15000000000000213,
          "durationTicks": 192,
          "midi": 65,
          "name": "F4",
          "ticks": 33792,
          "time": 26.4,
          "velocity": 0.7874015748031497
        },
        {
          "duration": 0.14999999999999858,
          "durationTicks": 192,
          "midi": 65,
          "name": "F4",
          "ticks": 33984,
          "time": 26.55,
          "velocity": 0.7874015748031497
        },
        {
          "duration": 0.14999999999999858,
          "durationTicks": 192,
          "midi": 70,
          "name": "A#4",
          "ticks": 34176,
          "time": 26.7,
          "velocity": 0.7874015748031497
        },
        {
          "duration": 0.15000000000000213,
          "durationTicks": 192,
          "midi": 70,
          "name": "A#4",
          "ticks": 34368,
          "time": 26.849999999999998,
          "velocity": 0.7874015748031497
        },
        {
          "duration": 0.14999999999999858,
          "durationTicks": 192,
          "midi": 74,
          "name": "D5",
          "ticks": 34560,
          "time": 27,
          "velocity": 0.7874015748031497
        },
        {
          "duration": 0.14999999999999858,
          "durationTicks": 192,
          "midi": 77,
          "name": "F5",
          "ticks": 34944,
          "time": 27.3,
          "velocity": 0.7874015748031497
        },
        {
          "duration": 0.14999999999999858,
          "durationTicks": 192,
          "midi": 63,
          "name": "D#4",
          "ticks": 39936,
          "time": 31.2,
          "velocity": 0.7874015748031497
        },
        {
          "duration": 0.14999999999999858,
          "durationTicks": 192,
          "midi": 55,
          "name": "G3",
          "ticks": 39936,
          "time": 31.2,
          "velocity": 0.7874015748031497
        },
        {
          "duration": 0.15000000000000213,
          "durationTicks": 192,
          "midi": 67,
          "name": "G4",
          "ticks": 40128,
          "time": 31.349999999999998,
          "velocity": 0.7874015748031497
        },
        {
          "duration": 0.15000000000000213,
          "durationTicks": 192,
          "midi": 58,
          "name": "A#3",
          "ticks": 40128,
          "time": 31.349999999999998,
          "velocity": 0.7874015748031497
        },
        {
          "duration": 0.14999999999999858,
          "durationTicks": 192,
          "midi": 67,
          "name": "G4",
          "ticks": 40320,
          "time": 31.5,
          "velocity": 0.7874015748031497
        },
        {
          "duration": 0.14999999999999858,
          "durationTicks": 192,
          "midi": 63,
          "name": "D#4",
          "ticks": 40320,
          "time": 31.5,
          "velocity": 0.7874015748031497
        },
        {
          "duration": 0.07499999999999929,
          "durationTicks": 96,
          "midi": 67,
          "name": "G4",
          "ticks": 40512,
          "time": 31.65,
          "velocity": 0.7874015748031497
        },
        {
          "duration": 0.07499999999999929,
          "durationTicks": 96,
          "midi": 70,
          "name": "A#4",
          "ticks": 40608,
          "time": 31.724999999999998,
          "velocity": 0.7874015748031497
        },
        {
          "duration": 0.07500000000000284,
          "durationTicks": 96,
          "midi": 67,
          "name": "G4",
          "ticks": 40704,
          "time": 31.799999999999997,
          "velocity": 0.7874015748031497
        },
        {
          "duration": 0.07499999999999929,
          "durationTicks": 96,
          "midi": 70,
          "name": "A#4",
          "ticks": 40800,
          "time": 31.875,
          "velocity": 0.7874015748031497
        },
        {
          "duration": 0.07499999999999929,
          "durationTicks": 96,
          "midi": 67,
          "name": "G4",
          "ticks": 40896,
          "time": 31.95,
          "velocity": 0.7874015748031497
        },
        {
          "duration": 0.07500000000000284,
          "durationTicks": 96,
          "midi": 70,
          "name": "A#4",
          "ticks": 40992,
          "time": 32.025,
          "velocity": 0.7874015748031497
        },
        {
          "duration": 0.14999999999999858,
          "durationTicks": 192,
          "midi": 67,
          "name": "G4",
          "ticks": 41088,
          "time": 32.1,
          "velocity": 0.7874015748031497
        },
        {
          "duration": 0.14999999999999858,
          "durationTicks": 192,
          "midi": 63,
          "name": "D#4",
          "ticks": 41088,
          "time": 32.1,
          "velocity": 0.7874015748031497
        },
        {
          "duration": 0.14999999999999858,
          "durationTicks": 192,
          "midi": 62,
          "name": "D4",
          "ticks": 41472,
          "time": 32.4,
          "velocity": 0.7874015748031497
        },
        {
          "duration": 0.14999999999999858,
          "durationTicks": 192,
          "midi": 70,
          "name": "A#4",
          "ticks": 41472,
          "time": 32.4,
          "velocity": 0.7874015748031497
        },
        {
          "duration": 0.14999999999999858,
          "durationTicks": 192,
          "midi": 65,
          "name": "F4",
          "ticks": 41664,
          "time": 32.55,
          "velocity": 0.7874015748031497
        },
        {
          "duration": 0.14999999999999858,
          "durationTicks": 192,
          "midi": 74,
          "name": "D5",
          "ticks": 41664,
          "time": 32.55,
          "velocity": 0.7874015748031497
        },
        {
          "duration": 0.15000000000000568,
          "durationTicks": 192,
          "midi": 65,
          "name": "F4",
          "ticks": 41856,
          "time": 32.699999999999996,
          "velocity": 0.7874015748031497
        },
        {
          "duration": 0.15000000000000568,
          "durationTicks": 192,
          "midi": 74,
          "name": "D5",
          "ticks": 41856,
          "time": 32.699999999999996,
          "velocity": 0.7874015748031497
        },
        {
          "duration": 0.14999999999999858,
          "durationTicks": 192,
          "midi": 65,
          "name": "F4",
          "ticks": 42048,
          "time": 32.85,
          "velocity": 0.7874015748031497
        },
        {
          "duration": 0.14999999999999858,
          "durationTicks": 192,
          "midi": 74,
          "name": "D5",
          "ticks": 42048,
          "time": 32.85,
          "velocity": 0.7874015748031497
        },
        {
          "duration": 0.14999999999999858,
          "durationTicks": 192,
          "midi": 62,
          "name": "D4",
          "ticks": 42240,
          "time": 33,
          "velocity": 0.7874015748031497
        },
        {
          "duration": 0.14999999999999858,
          "durationTicks": 192,
          "midi": 70,
          "name": "A#4",
          "ticks": 42240,
          "time": 33,
          "velocity": 0.7874015748031497
        },
        {
          "duration": 0.14999999999999858,
          "durationTicks": 192,
          "midi": 58,
          "name": "A#3",
          "ticks": 42624,
          "time": 33.3,
          "velocity": 0.7874015748031497
        },
        {
          "duration": 0.14999999999999858,
          "durationTicks": 192,
          "midi": 65,
          "name": "F4",
          "ticks": 42624,
          "time": 33.3,
          "velocity": 0.7874015748031497
        },
        {
          "duration": 0.14999999999999858,
          "durationTicks": 192,
          "midi": 65,
          "name": "F4",
          "ticks": 43008,
          "time": 33.6,
          "velocity": 0.7874015748031497
        },
        {
          "duration": 0.14999999999999858,
          "durationTicks": 192,
          "midi": 57,
          "name": "A3",
          "ticks": 43008,
          "time": 33.6,
          "velocity": 0.7874015748031497
        },
        {
          "duration": 0.14999999999999858,
          "durationTicks": 192,
          "midi": 69,
          "name": "A4",
          "ticks": 43200,
          "time": 33.75,
          "velocity": 0.7874015748031497
        },
        {
          "duration": 0.14999999999999858,
          "durationTicks": 192,
          "midi": 60,
          "name": "C4",
          "ticks": 43200,
          "time": 33.75,
          "velocity": 0.7874015748031497
        },
        {
          "duration": 0.14999999999999858,
          "durationTicks": 192,
          "midi": 72,
          "name": "C5",
          "ticks": 43392,
          "time": 33.9,
          "velocity": 0.7874015748031497
        },
        {
          "duration": 0.14999999999999858,
          "durationTicks": 192,
          "midi": 65,
          "name": "F4",
          "ticks": 43392,
          "time": 33.9,
          "velocity": 0.7874015748031497
        },
        {
          "duration": 0.07500000000000284,
          "durationTicks": 96,
          "midi": 69,
          "name": "A4",
          "ticks": 43584,
          "time": 34.05,
          "velocity": 0.7874015748031497
        },
        {
          "duration": 0.07499999999999574,
          "durationTicks": 96,
          "midi": 72,
          "name": "C5",
          "ticks": 43680,
          "time": 34.125,
          "velocity": 0.7874015748031497
        },
        {
          "duration": 0.07500000000000284,
          "durationTicks": 96,
          "midi": 69,
          "name": "A4",
          "ticks": 43776,
          "time": 34.199999999999996,
          "velocity": 0.7874015748031497
        },
        {
          "duration": 0.07500000000000284,
          "durationTicks": 96,
          "midi": 72,
          "name": "C5",
          "ticks": 43872,
          "time": 34.275,
          "velocity": 0.7874015748031497
        },
        {
          "duration": 0.07499999999999574,
          "durationTicks": 96,
          "midi": 69,
          "name": "A4",
          "ticks": 43968,
          "time": 34.35,
          "velocity": 0.7874015748031497
        },
        {
          "duration": 0.07500000000000284,
          "durationTicks": 96,
          "midi": 72,
          "name": "C5",
          "ticks": 44064,
          "time": 34.425,
          "velocity": 0.7874015748031497
        },
        {
          "duration": 0.14999999999999858,
          "durationTicks": 192,
          "midi": 65,
          "name": "F4",
          "ticks": 44160,
          "time": 34.5,
          "velocity": 0.7874015748031497
        },
        {
          "duration": 0.14999999999999858,
          "durationTicks": 192,
          "midi": 69,
          "name": "A4",
          "ticks": 44160,
          "time": 34.5,
          "velocity": 0.7874015748031497
        },
        {
          "duration": 0.14999999999999858,
          "durationTicks": 192,
          "midi": 62,
          "name": "D4",
          "ticks": 44544,
          "time": 34.8,
          "velocity": 0.7874015748031497
        },
        {
          "duration": 0.14999999999999858,
          "durationTicks": 192,
          "midi": 70,
          "name": "A#4",
          "ticks": 44544,
          "time": 34.8,
          "velocity": 0.7874015748031497
        },
        {
          "duration": 0.15000000000000568,
          "durationTicks": 192,
          "midi": 62,
          "name": "D4",
          "ticks": 44736,
          "time": 34.949999999999996,
          "velocity": 0.7874015748031497
        },
        {
          "duration": 0.15000000000000568,
          "durationTicks": 192,
          "midi": 70,
          "name": "A#4",
          "ticks": 44736,
          "time": 34.949999999999996,
          "velocity": 0.7874015748031497
        },
        {
          "duration": 0.14999999999999858,
          "durationTicks": 192,
          "midi": 62,
          "name": "D4",
          "ticks": 44928,
          "time": 35.1,
          "velocity": 0.7874015748031497
        },
        {
          "duration": 0.14999999999999858,
          "durationTicks": 192,
          "midi": 70,
          "name": "A#4",
          "ticks": 44928,
          "time": 35.1,
          "velocity": 0.7874015748031497
        },
        {
          "duration": 0.14999999999999858,
          "durationTicks": 192,
          "midi": 62,
          "name": "D4",
          "ticks": 45120,
          "time": 35.25,
          "velocity": 0.7874015748031497
        },
        {
          "duration": 0.14999999999999858,
          "durationTicks": 192,
          "midi": 70,
          "name": "A#4",
          "ticks": 45120,
          "time": 35.25,
          "velocity": 0.7874015748031497
        },
        {
          "duration": 0.14999999999999858,
          "durationTicks": 192,
          "midi": 62,
          "name": "D4",
          "ticks": 45312,
          "time": 35.4,
          "velocity": 0.7874015748031497
        },
        {
          "duration": 0.14999999999999858,
          "durationTicks": 192,
          "midi": 70,
          "name": "A#4",
          "ticks": 45312,
          "time": 35.4,
          "velocity": 0.7874015748031497
        },
        {
          "duration": 0.15000000000000568,
          "durationTicks": 192,
          "midi": 62,
          "name": "D4",
          "ticks": 45696,
          "time": 35.699999999999996,
          "velocity": 0.7874015748031497
        },
        {
          "duration": 0.15000000000000568,
          "durationTicks": 192,
          "midi": 70,
          "name": "A#4",
          "ticks": 45696,
          "time": 35.699999999999996,
          "velocity": 0.7874015748031497
        },
        {
          "duration": 0.14999999999999858,
          "durationTicks": 192,
          "midi": 63,
          "name": "D#4",
          "ticks": 46080,
          "time": 36,
          "velocity": 0.7874015748031497
        },
        {
          "duration": 0.14999999999999858,
          "durationTicks": 192,
          "midi": 55,
          "name": "G3",
          "ticks": 46080,
          "time": 36,
          "velocity": 0.7874015748031497
        },
        {
          "duration": 0.14999999999999858,
          "durationTicks": 192,
          "midi": 67,
          "name": "G4",
          "ticks": 46272,
          "time": 36.15,
          "velocity": 0.7874015748031497
        },
        {
          "duration": 0.14999999999999858,
          "durationTicks": 192,
          "midi": 58,
          "name": "A#3",
          "ticks": 46272,
          "time": 36.15,
          "velocity": 0.7874015748031497
        },
        {
          "duration": 0.14999999999999858,
          "durationTicks": 192,
          "midi": 63,
          "name": "D#4",
          "ticks": 46464,
          "time": 36.3,
          "velocity": 0.7874015748031497
        },
        {
          "duration": 0.14999999999999858,
          "durationTicks": 192,
          "midi": 67,
          "name": "G4",
          "ticks": 46464,
          "time": 36.3,
          "velocity": 0.7874015748031497
        },
        {
          "duration": 0.07500000000000284,
          "durationTicks": 96,
          "midi": 67,
          "name": "G4",
          "ticks": 46656,
          "time": 36.449999999999996,
          "velocity": 0.7874015748031497
        },
        {
          "duration": 0.07500000000000284,
          "durationTicks": 96,
          "midi": 70,
          "name": "A#4",
          "ticks": 46752,
          "time": 36.525,
          "velocity": 0.7874015748031497
        },
        {
          "duration": 0.07499999999999574,
          "durationTicks": 96,
          "midi": 67,
          "name": "G4",
          "ticks": 46848,
          "time": 36.6,
          "velocity": 0.7874015748031497
        },
        {
          "duration": 0.07500000000000284,
          "durationTicks": 96,
          "midi": 70,
          "name": "A#4",
          "ticks": 46944,
          "time": 36.675,
          "velocity": 0.7874015748031497
        },
        {
          "duration": 0.07499999999999574,
          "durationTicks": 96,
          "midi": 67,
          "name": "G4",
          "ticks": 47040,
          "time": 36.75,
          "velocity": 0.7874015748031497
        },
        {
          "duration": 0.07500000000000284,
          "durationTicks": 96,
          "midi": 70,
          "name": "A#4",
          "ticks": 47136,
          "time": 36.824999999999996,
          "velocity": 0.7874015748031497
        },
        {
          "duration": 0.14999999999999858,
          "durationTicks": 192,
          "midi": 67,
          "name": "G4",
          "ticks": 47232,
          "time": 36.9,
          "velocity": 0.7874015748031497
        },
        {
          "duration": 0.14999999999999858,
          "durationTicks": 192,
          "midi": 63,
          "name": "D#4",
          "ticks": 47232,
          "time": 36.9,
          "velocity": 0.7874015748031497
        },
        {
          "duration": 0.15000000000000568,
          "durationTicks": 192,
          "midi": 65,
          "name": "F4",
          "ticks": 47616,
          "time": 37.199999999999996,
          "velocity": 0.7874015748031497
        },
        {
          "duration": 0.15000000000000568,
          "durationTicks": 192,
          "midi": 57,
          "name": "A3",
          "ticks": 47616,
          "time": 37.199999999999996,
          "velocity": 0.7874015748031497
        },
        {
          "duration": 0.14999999999999858,
          "durationTicks": 192,
          "midi": 69,
          "name": "A4",
          "ticks": 47808,
          "time": 37.35,
          "velocity": 0.7874015748031497
        },
        {
          "duration": 0.14999999999999858,
          "durationTicks": 192,
          "midi": 60,
          "name": "C4",
          "ticks": 47808,
          "time": 37.35,
          "velocity": 0.7874015748031497
        },
        {
          "duration": 0.14999999999999858,
          "durationTicks": 192,
          "midi": 69,
          "name": "A4",
          "ticks": 48000,
          "time": 37.5,
          "velocity": 0.7874015748031497
        },
        {
          "duration": 0.14999999999999858,
          "durationTicks": 192,
          "midi": 65,
          "name": "F4",
          "ticks": 48000,
          "time": 37.5,
          "velocity": 0.7874015748031497
        },
        {
          "duration": 0.07500000000000284,
          "durationTicks": 96,
          "midi": 69,
          "name": "A4",
          "ticks": 48192,
          "time": 37.65,
          "velocity": 0.7874015748031497
        },
        {
          "duration": 0.07499999999999574,
          "durationTicks": 96,
          "midi": 72,
          "name": "C5",
          "ticks": 48288,
          "time": 37.725,
          "velocity": 0.7874015748031497
        },
        {
          "duration": 0.07500000000000284,
          "durationTicks": 96,
          "midi": 69,
          "name": "A4",
          "ticks": 48384,
          "time": 37.8,
          "velocity": 0.7874015748031497
        },
        {
          "duration": 0.07499999999999574,
          "durationTicks": 96,
          "midi": 72,
          "name": "C5",
          "ticks": 48480,
          "time": 37.875,
          "velocity": 0.7874015748031497
        },
        {
          "duration": 0.07500000000000284,
          "durationTicks": 96,
          "midi": 69,
          "name": "A4",
          "ticks": 48576,
          "time": 37.949999999999996,
          "velocity": 0.7874015748031497
        },
        {
          "duration": 0.07500000000000284,
          "durationTicks": 96,
          "midi": 72,
          "name": "C5",
          "ticks": 48672,
          "time": 38.025,
          "velocity": 0.7874015748031497
        },
        {
          "duration": 0.14999999999999858,
          "durationTicks": 192,
          "midi": 65,
          "name": "F4",
          "ticks": 48768,
          "time": 38.1,
          "velocity": 0.7874015748031497
        },
        {
          "duration": 0.14999999999999858,
          "durationTicks": 192,
          "midi": 69,
          "name": "A4",
          "ticks": 48768,
          "time": 38.1,
          "velocity": 0.7874015748031497
        },
        {
          "duration": 0.14999999999999858,
          "durationTicks": 192,
          "midi": 58,
          "name": "A#3",
          "ticks": 49152,
          "time": 38.4,
          "velocity": 0.7874015748031497
        },
        {
          "duration": 0.14999999999999858,
          "durationTicks": 192,
          "midi": 62,
          "name": "D4",
          "ticks": 49152,
          "time": 38.4,
          "velocity": 0.7874015748031497
        },
        {
          "duration": 0.14999999999999858,
          "durationTicks": 192,
          "midi": 62,
          "name": "D4",
          "ticks": 49344,
          "time": 38.55,
          "velocity": 0.7874015748031497
        },
        {
          "duration": 0.14999999999999858,
          "durationTicks": 192,
          "midi": 65,
          "name": "F4",
          "ticks": 49344,
          "time": 38.55,
          "velocity": 0.7874015748031497
        },
        {
          "duration": 0.15000000000000568,
          "durationTicks": 192,
          "midi": 65,
          "name": "F4",
          "ticks": 49536,
          "time": 38.699999999999996,
          "velocity": 0.7874015748031497
        },
        {
          "duration": 0.15000000000000568,
          "durationTicks": 192,
          "midi": 70,
          "name": "A#4",
          "ticks": 49536,
          "time": 38.699999999999996,
          "velocity": 0.7874015748031497
        },
        {
          "duration": 0.07499999999999574,
          "durationTicks": 96,
          "midi": 70,
          "name": "A#4",
          "ticks": 49728,
          "time": 38.85,
          "velocity": 0.7874015748031497
        },
        {
          "duration": 0.07500000000000284,
          "durationTicks": 96,
          "midi": 74,
          "name": "D5",
          "ticks": 49824,
          "time": 38.925,
          "velocity": 0.7874015748031497
        },
        {
          "duration": 0.07499999999999574,
          "durationTicks": 96,
          "midi": 70,
          "name": "A#4",
          "ticks": 49920,
          "time": 39,
          "velocity": 0.7874015748031497
        },
        {
          "duration": 0.07500000000000284,
          "durationTicks": 96,
          "midi": 74,
          "name": "D5",
          "ticks": 50016,
          "time": 39.074999999999996,
          "velocity": 0.7874015748031497
        },
        {
          "duration": 0.07500000000000284,
          "durationTicks": 96,
          "midi": 70,
          "name": "A#4",
          "ticks": 50112,
          "time": 39.15,
          "velocity": 0.7874015748031497
        },
        {
          "duration": 0.07499999999999574,
          "durationTicks": 96,
          "midi": 74,
          "name": "D5",
          "ticks": 50208,
          "time": 39.225,
          "velocity": 0.7874015748031497
        },
        {
          "duration": 0.14999999999999858,
          "durationTicks": 192,
          "midi": 70,
          "name": "A#4",
          "ticks": 50688,
          "time": 39.6,
          "velocity": 0.7874015748031497
        },
        {
          "duration": 0.14999999999999858,
          "durationTicks": 192,
          "midi": 62,
          "name": "D4",
          "ticks": 50688,
          "time": 39.6,
          "velocity": 0.7874015748031497
        },
        {
          "duration": 0.14999999999999858,
          "durationTicks": 192,
          "midi": 62,
          "name": "D4",
          "ticks": 50880,
          "time": 39.75,
          "velocity": 0.7874015748031497
        },
        {
          "duration": 0.14999999999999858,
          "durationTicks": 192,
          "midi": 70,
          "name": "A#4",
          "ticks": 50880,
          "time": 39.75,
          "velocity": 0.7874015748031497
        },
        {
          "duration": 0.14999999999999858,
          "durationTicks": 192,
          "midi": 74,
          "name": "D5",
          "ticks": 51072,
          "time": 39.9,
          "velocity": 0.7874015748031497
        },
        {
          "duration": 0.14999999999999858,
          "durationTicks": 192,
          "midi": 65,
          "name": "F4",
          "ticks": 51072,
          "time": 39.9,
          "velocity": 0.7874015748031497
        },
        {
          "duration": 0.14999999999999858,
          "durationTicks": 192,
          "midi": 74,
          "name": "D5",
          "ticks": 51264,
          "time": 40.05,
          "velocity": 0.7874015748031497
        },
        {
          "duration": 0.14999999999999858,
          "durationTicks": 192,
          "midi": 65,
          "name": "F4",
          "ticks": 51264,
          "time": 40.05,
          "velocity": 0.7874015748031497
        },
        {
          "duration": 0.15000000000000568,
          "durationTicks": 192,
          "midi": 74,
          "name": "D5",
          "ticks": 51456,
          "time": 40.199999999999996,
          "velocity": 0.7874015748031497
        },
        {
          "duration": 0.15000000000000568,
          "durationTicks": 192,
          "midi": 68,
          "name": "G#4",
          "ticks": 51456,
          "time": 40.199999999999996,
          "velocity": 0.7874015748031497
        },
        {
          "duration": 0.14999999999999858,
          "durationTicks": 192,
          "midi": 74,
          "name": "D5",
          "ticks": 51840,
          "time": 40.5,
          "velocity": 0.7874015748031497
        },
        {
          "duration": 0.14999999999999858,
          "durationTicks": 192,
          "midi": 68,
          "name": "G#4",
          "ticks": 51840,
          "time": 40.5,
          "velocity": 0.7874015748031497
        },
        {
          "duration": 0.14999999999999858,
          "durationTicks": 192,
          "midi": 75,
          "name": "D#5",
          "ticks": 52224,
          "time": 40.8,
          "velocity": 0.7874015748031497
        },
        {
          "duration": 0.14999999999999858,
          "durationTicks": 192,
          "midi": 67,
          "name": "G4",
          "ticks": 52224,
          "time": 40.8,
          "velocity": 0.7874015748031497
        },
        {
          "duration": 0.15000000000000568,
          "durationTicks": 192,
          "midi": 67,
          "name": "G4",
          "ticks": 52416,
          "time": 40.949999999999996,
          "velocity": 0.7874015748031497
        },
        {
          "duration": 0.15000000000000568,
          "durationTicks": 192,
          "midi": 75,
          "name": "D#5",
          "ticks": 52416,
          "time": 40.949999999999996,
          "velocity": 0.7874015748031497
        },
        {
          "duration": 0.14999999999999858,
          "durationTicks": 192,
          "midi": 67,
          "name": "G4",
          "ticks": 52608,
          "time": 41.1,
          "velocity": 0.7874015748031497
        },
        {
          "duration": 0.14999999999999858,
          "durationTicks": 192,
          "midi": 58,
          "name": "A#3",
          "ticks": 52608,
          "time": 41.1,
          "velocity": 0.7874015748031497
        },
        {
          "duration": 0.14999999999999858,
          "durationTicks": 192,
          "midi": 67,
          "name": "G4",
          "ticks": 52800,
          "time": 41.25,
          "velocity": 0.7874015748031497
        },
        {
          "duration": 0.14999999999999858,
          "durationTicks": 192,
          "midi": 58,
          "name": "A#3",
          "ticks": 52800,
          "time": 41.25,
          "velocity": 0.7874015748031497
        },
        {
          "duration": 0.14999999999999858,
          "durationTicks": 192,
          "midi": 63,
          "name": "D#4",
          "ticks": 52992,
          "time": 41.4,
          "velocity": 0.7874015748031497
        },
        {
          "duration": 0.14999999999999858,
          "durationTicks": 192,
          "midi": 67,
          "name": "G4",
          "ticks": 52992,
          "time": 41.4,
          "velocity": 0.7874015748031497
        },
        {
          "duration": 0.15000000000000568,
          "durationTicks": 192,
          "midi": 70,
          "name": "A#4",
          "ticks": 53376,
          "time": 41.699999999999996,
          "velocity": 0.7874015748031497
        },
        {
          "duration": 0.15000000000000568,
          "durationTicks": 192,
          "midi": 67,
          "name": "G4",
          "ticks": 53376,
          "time": 41.699999999999996,
          "velocity": 0.7874015748031497
        },
        {
          "duration": 0.14999999999999858,
          "durationTicks": 192,
          "midi": 77,
          "name": "F5",
          "ticks": 53760,
          "time": 42,
          "velocity": 0.7874015748031497
        },
        {
          "duration": 0.14999999999999858,
          "durationTicks": 192,
          "midi": 69,
          "name": "A4",
          "ticks": 53760,
          "time": 42,
          "velocity": 0.7874015748031497
        },
        {
          "duration": 0.14999999999999858,
          "durationTicks": 192,
          "midi": 69,
          "name": "A4",
          "ticks": 53952,
          "time": 42.15,
          "velocity": 0.7874015748031497
        },
        {
          "duration": 0.14999999999999858,
          "durationTicks": 192,
          "midi": 77,
          "name": "F5",
          "ticks": 53952,
          "time": 42.15,
          "velocity": 0.7874015748031497
        },
        {
          "duration": 0.14999999999999858,
          "durationTicks": 192,
          "midi": 69,
          "name": "A4",
          "ticks": 54144,
          "time": 42.3,
          "velocity": 0.7874015748031497
        },
        {
          "duration": 0.14999999999999858,
          "durationTicks": 192,
          "midi": 60,
          "name": "C4",
          "ticks": 54144,
          "time": 42.3,
          "velocity": 0.7874015748031497
        },
        {
          "duration": 0.15000000000000568,
          "durationTicks": 192,
          "midi": 69,
          "name": "A4",
          "ticks": 54336,
          "time": 42.449999999999996,
          "velocity": 0.7874015748031497
        },
        {
          "duration": 0.15000000000000568,
          "durationTicks": 192,
          "midi": 60,
          "name": "C4",
          "ticks": 54336,
          "time": 42.449999999999996,
          "velocity": 0.7874015748031497
        },
        {
          "duration": 0.14999999999999858,
          "durationTicks": 192,
          "midi": 65,
          "name": "F4",
          "ticks": 54528,
          "time": 42.6,
          "velocity": 0.7874015748031497
        },
        {
          "duration": 0.14999999999999858,
          "durationTicks": 192,
          "midi": 69,
          "name": "A4",
          "ticks": 54528,
          "time": 42.6,
          "velocity": 0.7874015748031497
        },
        {
          "duration": 0.14999999999999858,
          "durationTicks": 192,
          "midi": 72,
          "name": "C5",
          "ticks": 54912,
          "time": 42.9,
          "velocity": 0.7874015748031497
        },
        {
          "duration": 0.14999999999999858,
          "durationTicks": 192,
          "midi": 69,
          "name": "A4",
          "ticks": 54912,
          "time": 42.9,
          "velocity": 0.7874015748031497
        },
        {
          "duration": 0.15000000000000568,
          "durationTicks": 192,
          "midi": 79,
          "name": "G5",
          "ticks": 55296,
          "time": 43.199999999999996,
          "velocity": 0.7874015748031497
        },
        {
          "duration": 0.15000000000000568,
          "durationTicks": 192,
          "midi": 70,
          "name": "A#4",
          "ticks": 55296,
          "time": 43.199999999999996,
          "velocity": 0.7874015748031497
        },
        {
          "duration": 0.14999999999999858,
          "durationTicks": 192,
          "midi": 70,
          "name": "A#4",
          "ticks": 55488,
          "time": 43.35,
          "velocity": 0.7874015748031497
        },
        {
          "duration": 0.14999999999999858,
          "durationTicks": 192,
          "midi": 79,
          "name": "G5",
          "ticks": 55488,
          "time": 43.35,
          "velocity": 0.7874015748031497
        },
        {
          "duration": 0.14999999999999858,
          "durationTicks": 192,
          "midi": 70,
          "name": "A#4",
          "ticks": 55680,
          "time": 43.5,
          "velocity": 0.7874015748031497
        },
        {
          "duration": 0.14999999999999858,
          "durationTicks": 192,
          "midi": 62,
          "name": "D4",
          "ticks": 55680,
          "time": 43.5,
          "velocity": 0.7874015748031497
        },
        {
          "duration": 0.14999999999999858,
          "durationTicks": 192,
          "midi": 70,
          "name": "A#4",
          "ticks": 55872,
          "time": 43.65,
          "velocity": 0.7874015748031497
        },
        {
          "duration": 0.14999999999999858,
          "durationTicks": 192,
          "midi": 62,
          "name": "D4",
          "ticks": 55872,
          "time": 43.65,
          "velocity": 0.7874015748031497
        },
        {
          "duration": 0.14999999999999858,
          "durationTicks": 192,
          "midi": 67,
          "name": "G4",
          "ticks": 56064,
          "time": 43.8,
          "velocity": 0.7874015748031497
        },
        {
          "duration": 0.14999999999999858,
          "durationTicks": 192,
          "midi": 70,
          "name": "A#4",
          "ticks": 56064,
          "time": 43.8,
          "velocity": 0.7874015748031497
        },
        {
          "duration": 0.14999999999999858,
          "durationTicks": 192,
          "midi": 74,
          "name": "D5",
          "ticks": 56448,
          "time": 44.1,
          "velocity": 0.7874015748031497
        },
        {
          "duration": 0.14999999999999858,
          "durationTicks": 192,
          "midi": 70,
          "name": "A#4",
          "ticks": 56448,
          "time": 44.1,
          "velocity": 0.7874015748031497
        },
        {
          "duration": 0.14999999999999858,
          "durationTicks": 192,
          "midi": 72,
          "name": "C5",
          "ticks": 56832,
          "time": 44.4,
          "velocity": 0.7874015748031497
        },
        {
          "duration": 0.14999999999999858,
          "durationTicks": 192,
          "midi": 76,
          "name": "E5",
          "ticks": 56832,
          "time": 44.4,
          "velocity": 0.7874015748031497
        },
        {
          "duration": 0.14999999999999858,
          "durationTicks": 192,
          "midi": 72,
          "name": "C5",
          "ticks": 57024,
          "time": 44.55,
          "velocity": 0.7874015748031497
        },
        {
          "duration": 0.14999999999999858,
          "durationTicks": 192,
          "midi": 76,
          "name": "E5",
          "ticks": 57024,
          "time": 44.55,
          "velocity": 0.7874015748031497
        },
        {
          "duration": 0.15000000000000568,
          "durationTicks": 192,
          "midi": 64,
          "name": "E4",
          "ticks": 57216,
          "time": 44.699999999999996,
          "velocity": 0.7874015748031497
        },
        {
          "duration": 0.15000000000000568,
          "durationTicks": 192,
          "midi": 72,
          "name": "C5",
          "ticks": 57216,
          "time": 44.699999999999996,
          "velocity": 0.7874015748031497
        },
        {
          "duration": 0.14999999999999858,
          "durationTicks": 192,
          "midi": 64,
          "name": "E4",
          "ticks": 57408,
          "time": 44.85,
          "velocity": 0.7874015748031497
        },
        {
          "duration": 0.14999999999999858,
          "durationTicks": 192,
          "midi": 72,
          "name": "C5",
          "ticks": 57408,
          "time": 44.85,
          "velocity": 0.7874015748031497
        },
        {
          "duration": 0.14999999999999858,
          "durationTicks": 192,
          "midi": 64,
          "name": "E4",
          "ticks": 57600,
          "time": 45,
          "velocity": 0.7874015748031497
        },
        {
          "duration": 0.14999999999999858,
          "durationTicks": 192,
          "midi": 67,
          "name": "G4",
          "ticks": 57600,
          "time": 45,
          "velocity": 0.7874015748031497
        },
        {
          "duration": 0.14999999999999858,
          "durationTicks": 192,
          "midi": 64,
          "name": "E4",
          "ticks": 57984,
          "time": 45.3,
          "velocity": 0.7874015748031497
        },
        {
          "duration": 0.14999999999999858,
          "durationTicks": 192,
          "midi": 67,
          "name": "G4",
          "ticks": 57984,
          "time": 45.3,
          "velocity": 0.7874015748031497
        },
        {
          "duration": 0.14999999999999858,
          "durationTicks": 192,
          "midi": 63,
          "name": "D#4",
          "ticks": 58368,
          "time": 45.6,
          "velocity": 0.7874015748031497
        },
        {
          "duration": 0.14999999999999858,
          "durationTicks": 192,
          "midi": 67,
          "name": "G4",
          "ticks": 58368,
          "time": 45.6,
          "velocity": 0.7874015748031497
        },
        {
          "duration": 0.14999999999999858,
          "durationTicks": 192,
          "midi": 63,
          "name": "D#4",
          "ticks": 58560,
          "time": 45.75,
          "velocity": 0.7874015748031497
        },
        {
          "duration": 0.14999999999999858,
          "durationTicks": 192,
          "midi": 67,
          "name": "G4",
          "ticks": 58560,
          "time": 45.75,
          "velocity": 0.7874015748031497
        },
        {
          "duration": 0.14999999999999858,
          "durationTicks": 192,
          "midi": 63,
          "name": "D#4",
          "ticks": 58752,
          "time": 45.9,
          "velocity": 0.7874015748031497
        },
        {
          "duration": 0.14999999999999858,
          "durationTicks": 192,
          "midi": 67,
          "name": "G4",
          "ticks": 58752,
          "time": 45.9,
          "velocity": 0.7874015748031497
        },
        {
          "duration": 0.14999999999999858,
          "durationTicks": 192,
          "midi": 67,
          "name": "G4",
          "ticks": 58944,
          "time": 46.05,
          "velocity": 0.7874015748031497
        },
        {
          "duration": 0.14999999999999858,
          "durationTicks": 192,
          "midi": 70,
          "name": "A#4",
          "ticks": 58944,
          "time": 46.05,
          "velocity": 0.7874015748031497
        },
        {
          "duration": 0.15000000000000568,
          "durationTicks": 192,
          "midi": 67,
          "name": "G4",
          "ticks": 59136,
          "time": 46.199999999999996,
          "velocity": 0.7874015748031497
        },
        {
          "duration": 0.15000000000000568,
          "durationTicks": 192,
          "midi": 70,
          "name": "A#4",
          "ticks": 59136,
          "time": 46.199999999999996,
          "velocity": 0.7874015748031497
        },
        {
          "duration": 0.14999999999999858,
          "durationTicks": 192,
          "midi": 67,
          "name": "G4",
          "ticks": 59328,
          "time": 46.35,
          "velocity": 0.7874015748031497
        },
        {
          "duration": 0.14999999999999858,
          "durationTicks": 192,
          "midi": 70,
          "name": "A#4",
          "ticks": 59328,
          "time": 46.35,
          "velocity": 0.7874015748031497
        },
        {
          "duration": 0.14999999999999858,
          "durationTicks": 192,
          "midi": 70,
          "name": "A#4",
          "ticks": 59520,
          "time": 46.5,
          "velocity": 0.7874015748031497
        },
        {
          "duration": 0.14999999999999858,
          "durationTicks": 192,
          "midi": 75,
          "name": "D#5",
          "ticks": 59520,
          "time": 46.5,
          "velocity": 0.7874015748031497
        },
        {
          "duration": 0.14999999999999858,
          "durationTicks": 192,
          "midi": 70,
          "name": "A#4",
          "ticks": 59712,
          "time": 46.65,
          "velocity": 0.7874015748031497
        },
        {
          "duration": 0.14999999999999858,
          "durationTicks": 192,
          "midi": 75,
          "name": "D#5",
          "ticks": 59712,
          "time": 46.65,
          "velocity": 0.7874015748031497
        },
        {
          "duration": 0.14999999999999858,
          "durationTicks": 192,
          "midi": 65,
          "name": "F4",
          "ticks": 59904,
          "time": 46.8,
          "velocity": 0.7874015748031497
        },
        {
          "duration": 0.14999999999999858,
          "durationTicks": 192,
          "midi": 69,
          "name": "A4",
          "ticks": 59904,
          "time": 46.8,
          "velocity": 0.7874015748031497
        },
        {
          "duration": 0.15000000000000568,
          "durationTicks": 192,
          "midi": 65,
          "name": "F4",
          "ticks": 60096,
          "time": 46.949999999999996,
          "velocity": 0.7874015748031497
        },
        {
          "duration": 0.15000000000000568,
          "durationTicks": 192,
          "midi": 69,
          "name": "A4",
          "ticks": 60096,
          "time": 46.949999999999996,
          "velocity": 0.7874015748031497
        },
        {
          "duration": 0.14999999999999858,
          "durationTicks": 192,
          "midi": 65,
          "name": "F4",
          "ticks": 60288,
          "time": 47.1,
          "velocity": 0.7874015748031497
        },
        {
          "duration": 0.14999999999999858,
          "durationTicks": 192,
          "midi": 69,
          "name": "A4",
          "ticks": 60288,
          "time": 47.1,
          "velocity": 0.7874015748031497
        },
        {
          "duration": 0.14999999999999858,
          "durationTicks": 192,
          "midi": 69,
          "name": "A4",
          "ticks": 60480,
          "time": 47.25,
          "velocity": 0.7874015748031497
        },
        {
          "duration": 0.14999999999999858,
          "durationTicks": 192,
          "midi": 72,
          "name": "C5",
          "ticks": 60480,
          "time": 47.25,
          "velocity": 0.7874015748031497
        },
        {
          "duration": 0.14999999999999858,
          "durationTicks": 192,
          "midi": 69,
          "name": "A4",
          "ticks": 60672,
          "time": 47.4,
          "velocity": 0.7874015748031497
        },
        {
          "duration": 0.14999999999999858,
          "durationTicks": 192,
          "midi": 72,
          "name": "C5",
          "ticks": 60672,
          "time": 47.4,
          "velocity": 0.7874015748031497
        },
        {
          "duration": 0.14999999999999858,
          "durationTicks": 192,
          "midi": 69,
          "name": "A4",
          "ticks": 60864,
          "time": 47.55,
          "velocity": 0.7874015748031497
        },
        {
          "duration": 0.14999999999999858,
          "durationTicks": 192,
          "midi": 72,
          "name": "C5",
          "ticks": 60864,
          "time": 47.55,
          "velocity": 0.7874015748031497
        },
        {
          "duration": 0.15000000000000568,
          "durationTicks": 192,
          "midi": 72,
          "name": "C5",
          "ticks": 61056,
          "time": 47.699999999999996,
          "velocity": 0.7874015748031497
        },
        {
          "duration": 0.15000000000000568,
          "durationTicks": 192,
          "midi": 77,
          "name": "F5",
          "ticks": 61056,
          "time": 47.699999999999996,
          "velocity": 0.7874015748031497
        },
        {
          "duration": 0.14999999999999858,
          "durationTicks": 192,
          "midi": 72,
          "name": "C5",
          "ticks": 61248,
          "time": 47.85,
          "velocity": 0.7874015748031497
        },
        {
          "duration": 0.14999999999999858,
          "durationTicks": 192,
          "midi": 77,
          "name": "F5",
          "ticks": 61248,
          "time": 47.85,
          "velocity": 0.7874015748031497
        },
        {
          "duration": 0.14999999999999858,
          "durationTicks": 192,
          "midi": 62,
          "name": "D4",
          "ticks": 61440,
          "time": 48,
          "velocity": 0.7874015748031497
        },
        {
          "duration": 0.14999999999999858,
          "durationTicks": 192,
          "midi": 65,
          "name": "F4",
          "ticks": 61632,
          "time": 48.15,
          "velocity": 0.7874015748031497
        },
        {
          "duration": 0.14999999999999858,
          "durationTicks": 192,
          "midi": 70,
          "name": "A#4",
          "ticks": 61824,
          "time": 48.3,
          "velocity": 0.7874015748031497
        },
        {
          "duration": 0.30000000000000426,
          "durationTicks": 384,
          "midi": 70,
          "name": "A#4",
          "ticks": 62016,
          "time": 48.449999999999996,
          "velocity": 0.7874015748031497
        },
        {
          "duration": 0.29999999999999716,
          "durationTicks": 384,
          "midi": 70,
          "name": "A#4",
          "ticks": 62400,
          "time": 48.75,
          "velocity": 0.7874015748031497
        },
        {
          "duration": 0.14999999999999858,
          "durationTicks": 192,
          "midi": 62,
          "name": "D4",
          "ticks": 62784,
          "time": 49.05,
          "velocity": 0.7874015748031497
        },
        {
          "duration": 0.30000000000000426,
          "durationTicks": 384,
          "midi": 63,
          "name": "D#4",
          "ticks": 62976,
          "time": 49.199999999999996,
          "velocity": 0.7874015748031497
        },
        {
          "duration": 0.29999999999999716,
          "durationTicks": 384,
          "midi": 67,
          "name": "G4",
          "ticks": 63360,
          "time": 49.5,
          "velocity": 0.7874015748031497
        },
        {
          "duration": 0.30000000000000426,
          "durationTicks": 384,
          "midi": 65,
          "name": "F4",
          "ticks": 63744,
          "time": 49.8,
          "velocity": 0.7874015748031497
        },
        {
          "duration": 0.29999999999999716,
          "durationTicks": 384,
          "midi": 62,
          "name": "D4",
          "ticks": 64128,
          "time": 50.1,
          "velocity": 0.7874015748031497
        },
        {
          "duration": 0.14999999999999858,
          "durationTicks": 192,
          "midi": 58,
          "name": "A#3",
          "ticks": 64512,
          "time": 50.4,
          "velocity": 0.7874015748031497
        },
        {
          "duration": 0.14999999999999858,
          "durationTicks": 192,
          "midi": 62,
          "name": "D4",
          "ticks": 64704,
          "time": 50.55,
          "velocity": 0.7874015748031497
        },
        {
          "duration": 0.15000000000000568,
          "durationTicks": 192,
          "midi": 65,
          "name": "F4",
          "ticks": 64896,
          "time": 50.699999999999996,
          "velocity": 0.7874015748031497
        },
        {
          "duration": 0.29999999999999716,
          "durationTicks": 384,
          "midi": 62,
          "name": "D4",
          "ticks": 65088,
          "time": 50.85,
          "velocity": 0.7874015748031497
        },
        {
          "duration": 0.29999999999999716,
          "durationTicks": 384,
          "midi": 62,
          "name": "D4",
          "ticks": 65472,
          "time": 51.15,
          "velocity": 0.7874015748031497
        },
        {
          "duration": 0.15000000000000568,
          "durationTicks": 192,
          "midi": 60,
          "name": "C4",
          "ticks": 65856,
          "time": 51.449999999999996,
          "velocity": 0.7874015748031497
        },
        {
          "duration": 0.29999999999999716,
          "durationTicks": 384,
          "midi": 65,
          "name": "F4",
          "ticks": 66048,
          "time": 51.6,
          "velocity": 0.7874015748031497
        },
        {
          "duration": 0.29999999999999716,
          "durationTicks": 384,
          "midi": 63,
          "name": "D#4",
          "ticks": 66432,
          "time": 51.9,
          "velocity": 0.7874015748031497
        },
        {
          "duration": 0.07500000000000284,
          "durationTicks": 96,
          "midi": 70,
          "name": "A#4",
          "ticks": 66816,
          "time": 52.199999999999996,
          "velocity": 0.7874015748031497
        },
        {
          "duration": 0.07500000000000284,
          "durationTicks": 96,
          "midi": 62,
          "name": "D4",
          "ticks": 66912,
          "time": 52.275,
          "velocity": 0.7874015748031497
        },
        {
          "duration": 0.07499999999999574,
          "durationTicks": 96,
          "midi": 70,
          "name": "A#4",
          "ticks": 67008,
          "time": 52.35,
          "velocity": 0.7874015748031497
        },
        {
          "duration": 0.07500000000000284,
          "durationTicks": 96,
          "midi": 62,
          "name": "D4",
          "ticks": 67104,
          "time": 52.425,
          "velocity": 0.7874015748031497
        },
        {
          "duration": 0.07499999999999574,
          "durationTicks": 96,
          "midi": 70,
          "name": "A#4",
          "ticks": 67200,
          "time": 52.5,
          "velocity": 0.7874015748031497
        },
        {
          "duration": 0.07500000000000284,
          "durationTicks": 96,
          "midi": 62,
          "name": "D4",
          "ticks": 67296,
          "time": 52.574999999999996,
          "velocity": 0.7874015748031497
        },
        {
          "duration": 0.14999999999999858,
          "durationTicks": 192,
          "midi": 70,
          "name": "A#4",
          "ticks": 67392,
          "time": 52.65,
          "velocity": 0.7874015748031497
        },
        {
          "duration": 0.14999999999999858,
          "durationTicks": 192,
          "midi": 62,
          "name": "D4",
          "ticks": 67584,
          "time": 52.8,
          "velocity": 0.7874015748031497
        },
        {
          "duration": 0.14999999999999858,
          "durationTicks": 192,
          "midi": 58,
          "name": "A#3",
          "ticks": 67584,
          "time": 52.8,
          "velocity": 0.7874015748031497
        },
        {
          "duration": 0.14999999999999858,
          "durationTicks": 192,
          "midi": 65,
          "name": "F4",
          "ticks": 68160,
          "time": 53.25,
          "velocity": 0.7874015748031497
        },
        {
          "duration": 0.14999999999999858,
          "durationTicks": 192,
          "midi": 62,
          "name": "D4",
          "ticks": 68160,
          "time": 53.25,
          "velocity": 0.7874015748031497
        },
        {
          "duration": 0.14999999999999858,
          "durationTicks": 192,
          "midi": 60,
          "name": "C4",
          "ticks": 68544,
          "time": 53.55,
          "velocity": 0.7874015748031497
        },
        {
          "duration": 0.14999999999999858,
          "durationTicks": 192,
          "midi": 57,
          "name": "A3",
          "ticks": 68544,
          "time": 53.55,
          "velocity": 0.7874015748031497
        },
        {
          "duration": 0.14999999999999858,
          "durationTicks": 192,
          "midi": 60,
          "name": "C4",
          "ticks": 69120,
          "time": 54,
          "velocity": 0.7874015748031497
        },
        {
          "duration": 0.14999999999999858,
          "durationTicks": 192,
          "midi": 57,
          "name": "A3",
          "ticks": 69120,
          "time": 54,
          "velocity": 0.7874015748031497
        },
        {
          "duration": 0.14999999999999858,
          "durationTicks": 192,
          "midi": 60,
          "name": "C4",
          "ticks": 69504,
          "time": 54.3,
          "velocity": 0.7874015748031497
        },
        {
          "duration": 0.14999999999999858,
          "durationTicks": 192,
          "midi": 57,
          "name": "A3",
          "ticks": 69504,
          "time": 54.3,
          "velocity": 0.7874015748031497
        },
        {
          "duration": 0.14999999999999858,
          "durationTicks": 192,
          "midi": 62,
          "name": "D4",
          "ticks": 69888,
          "time": 54.6,
          "velocity": 0.7874015748031497
        },
        {
          "duration": 0.14999999999999858,
          "durationTicks": 192,
          "midi": 58,
          "name": "A#3",
          "ticks": 69888,
          "time": 54.6,
          "velocity": 0.7874015748031497
        },
        {
          "duration": 0.14999999999999858,
          "durationTicks": 192,
          "midi": 62,
          "name": "D4",
          "ticks": 70272,
          "time": 54.9,
          "velocity": 0.7874015748031497
        },
        {
          "duration": 0.14999999999999858,
          "durationTicks": 192,
          "midi": 58,
          "name": "A#3",
          "ticks": 70272,
          "time": 54.9,
          "velocity": 0.7874015748031497
        },
        {
          "duration": 0.15000000000000568,
          "durationTicks": 192,
          "midi": 62,
          "name": "D4",
          "ticks": 70656,
          "time": 55.199999999999996,
          "velocity": 0.7874015748031497
        },
        {
          "duration": 0.15000000000000568,
          "durationTicks": 192,
          "midi": 58,
          "name": "A#3",
          "ticks": 70656,
          "time": 55.199999999999996,
          "velocity": 0.7874015748031497
        },
        {
          "duration": 0.14999999999999858,
          "durationTicks": 192,
          "midi": 65,
          "name": "F4",
          "ticks": 70848,
          "time": 55.35,
          "velocity": 0.7874015748031497
        },
        {
          "duration": 0.14999999999999858,
          "durationTicks": 192,
          "midi": 62,
          "name": "D4",
          "ticks": 70848,
          "time": 55.35,
          "velocity": 0.7874015748031497
        },
        {
          "duration": 0.14999999999999858,
          "durationTicks": 192,
          "midi": 70,
          "name": "A#4",
          "ticks": 71040,
          "time": 55.5,
          "velocity": 0.7874015748031497
        },
        {
          "duration": 0.14999999999999858,
          "durationTicks": 192,
          "midi": 65,
          "name": "F4",
          "ticks": 71040,
          "time": 55.5,
          "velocity": 0.7874015748031497
        },
        {
          "duration": 0.14999999999999858,
          "durationTicks": 192,
          "midi": 74,
          "name": "D5",
          "ticks": 71232,
          "time": 55.65,
          "velocity": 0.7874015748031497
        },
        {
          "duration": 0.14999999999999858,
          "durationTicks": 192,
          "midi": 70,
          "name": "A#4",
          "ticks": 71232,
          "time": 55.65,
          "velocity": 0.7874015748031497
        },
        {
          "duration": 0.15000000000000568,
          "durationTicks": 192,
          "midi": 74,
          "name": "D5",
          "ticks": 71616,
          "time": 55.949999999999996,
          "velocity": 0.7874015748031497
        },
        {
          "duration": 0.15000000000000568,
          "durationTicks": 192,
          "midi": 70,
          "name": "A#4",
          "ticks": 71616,
          "time": 55.949999999999996,
          "velocity": 0.7874015748031497
        },
        {
          "duration": 0.14999999999999858,
          "durationTicks": 192,
          "midi": 74,
          "name": "D5",
          "ticks": 72000,
          "time": 56.25,
          "velocity": 0.7874015748031497
        },
        {
          "duration": 0.14999999999999858,
          "durationTicks": 192,
          "midi": 70,
          "name": "A#4",
          "ticks": 72000,
          "time": 56.25,
          "velocity": 0.7874015748031497
        },
        {
          "duration": 0.14999999999999858,
          "durationTicks": 192,
          "midi": 72,
          "name": "C5",
          "ticks": 72192,
          "time": 56.4,
          "velocity": 0.7874015748031497
        },
        {
          "duration": 0.14999999999999858,
          "durationTicks": 192,
          "midi": 69,
          "name": "A4",
          "ticks": 72192,
          "time": 56.4,
          "velocity": 0.7874015748031497
        },
        {
          "duration": 0.15000000000000568,
          "durationTicks": 192,
          "midi": 65,
          "name": "F4",
          "ticks": 72576,
          "time": 56.699999999999996,
          "velocity": 0.7874015748031497
        },
        {
          "duration": 0.15000000000000568,
          "durationTicks": 192,
          "midi": 60,
          "name": "C4",
          "ticks": 72576,
          "time": 56.699999999999996,
          "velocity": 0.7874015748031497
        },
        {
          "duration": 0.14999999999999858,
          "durationTicks": 192,
          "midi": 62,
          "name": "D4",
          "ticks": 72960,
          "time": 57,
          "velocity": 0.7874015748031497
        },
        {
          "duration": 0.14999999999999858,
          "durationTicks": 192,
          "midi": 58,
          "name": "A#3",
          "ticks": 72960,
          "time": 57,
          "velocity": 0.7874015748031497
        },
        {
          "duration": 0.15000000000000568,
          "durationTicks": 192,
          "midi": 62,
          "name": "D4",
          "ticks": 73728,
          "time": 57.599999999999994,
          "velocity": 0.7874015748031497
        },
        {
          "duration": 0.15000000000000568,
          "durationTicks": 192,
          "midi": 58,
          "name": "A#3",
          "ticks": 73728,
          "time": 57.599999999999994,
          "velocity": 0.7874015748031497
        },
        {
          "duration": 0.14999999999999858,
          "durationTicks": 192,
          "midi": 65,
          "name": "F4",
          "ticks": 74304,
          "time": 58.05,
          "velocity": 0.7874015748031497
        },
        {
          "duration": 0.14999999999999858,
          "durationTicks": 192,
          "midi": 62,
          "name": "D4",
          "ticks": 74304,
          "time": 58.05,
          "velocity": 0.7874015748031497
        },
        {
          "duration": 0.15000000000000568,
          "durationTicks": 192,
          "midi": 60,
          "name": "C4",
          "ticks": 74688,
          "time": 58.349999999999994,
          "velocity": 0.7874015748031497
        },
        {
          "duration": 0.15000000000000568,
          "durationTicks": 192,
          "midi": 57,
          "name": "A3",
          "ticks": 74688,
          "time": 58.349999999999994,
          "velocity": 0.7874015748031497
        },
        {
          "duration": 0.14999999999999858,
          "durationTicks": 192,
          "midi": 60,
          "name": "C4",
          "ticks": 75264,
          "time": 58.8,
          "velocity": 0.7874015748031497
        },
        {
          "duration": 0.14999999999999858,
          "durationTicks": 192,
          "midi": 57,
          "name": "A3",
          "ticks": 75264,
          "time": 58.8,
          "velocity": 0.7874015748031497
        },
        {
          "duration": 0.15000000000000568,
          "durationTicks": 192,
          "midi": 60,
          "name": "C4",
          "ticks": 75648,
          "time": 59.099999999999994,
          "velocity": 0.7874015748031497
        },
        {
          "duration": 0.15000000000000568,
          "durationTicks": 192,
          "midi": 57,
          "name": "A3",
          "ticks": 75648,
          "time": 59.099999999999994,
          "velocity": 0.7874015748031497
        },
        {
          "duration": 0.14999999999999858,
          "durationTicks": 192,
          "midi": 62,
          "name": "D4",
          "ticks": 76032,
          "time": 59.4,
          "velocity": 0.7874015748031497
        },
        {
          "duration": 0.14999999999999858,
          "durationTicks": 192,
          "midi": 58,
          "name": "A#3",
          "ticks": 76032,
          "time": 59.4,
          "velocity": 0.7874015748031497
        },
        {
          "duration": 0.14999999999999858,
          "durationTicks": 192,
          "midi": 62,
          "name": "D4",
          "ticks": 76416,
          "time": 59.699999999999996,
          "velocity": 0.7874015748031497
        },
        {
          "duration": 0.14999999999999858,
          "durationTicks": 192,
          "midi": 58,
          "name": "A#3",
          "ticks": 76416,
          "time": 59.699999999999996,
          "velocity": 0.7874015748031497
        },
        {
          "duration": 0.14999999999999858,
          "durationTicks": 192,
          "midi": 62,
          "name": "D4",
          "ticks": 76800,
          "time": 60,
          "velocity": 0.7874015748031497
        },
        {
          "duration": 0.14999999999999858,
          "durationTicks": 192,
          "midi": 58,
          "name": "A#3",
          "ticks": 76800,
          "time": 60,
          "velocity": 0.7874015748031497
        },
        {
          "duration": 0.14999999999999858,
          "durationTicks": 192,
          "midi": 65,
          "name": "F4",
          "ticks": 76992,
          "time": 60.15,
          "velocity": 0.7874015748031497
        },
        {
          "duration": 0.14999999999999858,
          "durationTicks": 192,
          "midi": 62,
          "name": "D4",
          "ticks": 76992,
          "time": 60.15,
          "velocity": 0.7874015748031497
        },
        {
          "duration": 0.14999999999999858,
          "durationTicks": 192,
          "midi": 70,
          "name": "A#4",
          "ticks": 77184,
          "time": 60.3,
          "velocity": 0.7874015748031497
        },
        {
          "duration": 0.14999999999999858,
          "durationTicks": 192,
          "midi": 65,
          "name": "F4",
          "ticks": 77184,
          "time": 60.3,
          "velocity": 0.7874015748031497
        },
        {
          "duration": 0.14999999999999858,
          "durationTicks": 192,
          "midi": 74,
          "name": "D5",
          "ticks": 77376,
          "time": 60.449999999999996,
          "velocity": 0.7874015748031497
        },
        {
          "duration": 0.14999999999999858,
          "durationTicks": 192,
          "midi": 70,
          "name": "A#4",
          "ticks": 77376,
          "time": 60.449999999999996,
          "velocity": 0.7874015748031497
        },
        {
          "duration": 0.14999999999999858,
          "durationTicks": 192,
          "midi": 74,
          "name": "D5",
          "ticks": 77760,
          "time": 60.75,
          "velocity": 0.7874015748031497
        },
        {
          "duration": 0.14999999999999858,
          "durationTicks": 192,
          "midi": 70,
          "name": "A#4",
          "ticks": 77760,
          "time": 60.75,
          "velocity": 0.7874015748031497
        },
        {
          "duration": 0.14999999999999858,
          "durationTicks": 192,
          "midi": 74,
          "name": "D5",
          "ticks": 78144,
          "time": 61.05,
          "velocity": 0.7874015748031497
        },
        {
          "duration": 0.14999999999999858,
          "durationTicks": 192,
          "midi": 70,
          "name": "A#4",
          "ticks": 78144,
          "time": 61.05,
          "velocity": 0.7874015748031497
        },
        {
          "duration": 0.14999999999999858,
          "durationTicks": 192,
          "midi": 72,
          "name": "C5",
          "ticks": 78336,
          "time": 61.199999999999996,
          "velocity": 0.7874015748031497
        },
        {
          "duration": 0.14999999999999858,
          "durationTicks": 192,
          "midi": 69,
          "name": "A4",
          "ticks": 78336,
          "time": 61.199999999999996,
          "velocity": 0.7874015748031497
        },
        {
          "duration": 0.14999999999999858,
          "durationTicks": 192,
          "midi": 72,
          "name": "C5",
          "ticks": 78720,
          "time": 61.5,
          "velocity": 0.7874015748031497
        },
        {
          "duration": 0.14999999999999858,
          "durationTicks": 192,
          "midi": 69,
          "name": "A4",
          "ticks": 78720,
          "time": 61.5,
          "velocity": 0.7874015748031497
        },
        {
          "duration": 0.14999999999999858,
          "durationTicks": 192,
          "midi": 70,
          "name": "A#4",
          "ticks": 79104,
          "time": 61.8,
          "velocity": 0.7874015748031497
        },
        {
          "duration": 0.14999999999999858,
          "durationTicks": 192,
          "midi": 62,
          "name": "D4",
          "ticks": 79104,
          "time": 61.8,
          "velocity": 0.7874015748031497
        },
        {
          "duration": 0.14999999999999858,
          "durationTicks": 192,
          "midi": 63,
          "name": "D#4",
          "ticks": 79872,
          "time": 62.4,
          "velocity": 0.7874015748031497
        },
        {
          "duration": 0.14999999999999858,
          "durationTicks": 192,
          "midi": 67,
          "name": "G4",
          "ticks": 79872,
          "time": 62.4,
          "velocity": 0.7874015748031497
        },
        {
          "duration": 0.14999999999999858,
          "durationTicks": 192,
          "midi": 67,
          "name": "G4",
          "ticks": 80064,
          "time": 62.55,
          "velocity": 0.7874015748031497
        },
        {
          "duration": 0.14999999999999858,
          "durationTicks": 192,
          "midi": 70,
          "name": "A#4",
          "ticks": 80064,
          "time": 62.55,
          "velocity": 0.7874015748031497
        },
        {
          "duration": 0.14999999999999858,
          "durationTicks": 192,
          "midi": 70,
          "name": "A#4",
          "ticks": 80256,
          "time": 62.699999999999996,
          "velocity": 0.7874015748031497
        },
        {
          "duration": 0.14999999999999858,
          "durationTicks": 192,
          "midi": 75,
          "name": "D#5",
          "ticks": 80256,
          "time": 62.699999999999996,
          "velocity": 0.7874015748031497
        },
        {
          "duration": 0.15000000000000568,
          "durationTicks": 192,
          "midi": 75,
          "name": "D#5",
          "ticks": 80448,
          "time": 62.849999999999994,
          "velocity": 0.7874015748031497
        },
        {
          "duration": 0.15000000000000568,
          "durationTicks": 192,
          "midi": 79,
          "name": "G5",
          "ticks": 80448,
          "time": 62.849999999999994,
          "velocity": 0.7874015748031497
        },
        {
          "duration": 0.14999999999999858,
          "durationTicks": 192,
          "midi": 75,
          "name": "D#5",
          "ticks": 80832,
          "time": 63.15,
          "velocity": 0.7874015748031497
        },
        {
          "duration": 0.14999999999999858,
          "durationTicks": 192,
          "midi": 79,
          "name": "G5",
          "ticks": 80832,
          "time": 63.15,
          "velocity": 0.7874015748031497
        },
        {
          "duration": 0.14999999999999858,
          "durationTicks": 192,
          "midi": 70,
          "name": "A#4",
          "ticks": 81216,
          "time": 63.449999999999996,
          "velocity": 0.7874015748031497
        },
        {
          "duration": 0.14999999999999858,
          "durationTicks": 192,
          "midi": 67,
          "name": "G4",
          "ticks": 81216,
          "time": 63.449999999999996,
          "velocity": 0.7874015748031497
        },
        {
          "duration": 0.15000000000000568,
          "durationTicks": 192,
          "midi": 74,
          "name": "D5",
          "ticks": 81408,
          "time": 63.599999999999994,
          "velocity": 0.7874015748031497
        },
        {
          "duration": 0.15000000000000568,
          "durationTicks": 192,
          "midi": 70,
          "name": "A#4",
          "ticks": 81408,
          "time": 63.599999999999994,
          "velocity": 0.7874015748031497
        },
        {
          "duration": 0.14999999999999858,
          "durationTicks": 192,
          "midi": 74,
          "name": "D5",
          "ticks": 81792,
          "time": 63.9,
          "velocity": 0.7874015748031497
        },
        {
          "duration": 0.14999999999999858,
          "durationTicks": 192,
          "midi": 70,
          "name": "A#4",
          "ticks": 81792,
          "time": 63.9,
          "velocity": 0.7874015748031497
        },
        {
          "duration": 0.14999999999999147,
          "durationTicks": 192,
          "midi": 77,
          "name": "F5",
          "ticks": 82176,
          "time": 64.2,
          "velocity": 0.7874015748031497
        },
        {
          "duration": 0.14999999999999147,
          "durationTicks": 192,
          "midi": 74,
          "name": "D5",
          "ticks": 82176,
          "time": 64.2,
          "velocity": 0.7874015748031497
        },
        {
          "duration": 0.14999999999999147,
          "durationTicks": 192,
          "midi": 74,
          "name": "D5",
          "ticks": 82560,
          "time": 64.5,
          "velocity": 0.7874015748031497
        },
        {
          "duration": 0.14999999999999147,
          "durationTicks": 192,
          "midi": 70,
          "name": "A#4",
          "ticks": 82560,
          "time": 64.5,
          "velocity": 0.7874015748031497
        },
        {
          "duration": 0.15000000000000568,
          "durationTicks": 192,
          "midi": 65,
          "name": "F4",
          "ticks": 82944,
          "time": 64.8,
          "velocity": 0.7874015748031497
        },
        {
          "duration": 0.15000000000000568,
          "durationTicks": 192,
          "midi": 69,
          "name": "A4",
          "ticks": 82944,
          "time": 64.8,
          "velocity": 0.7874015748031497
        },
        {
          "duration": 0.14999999999999147,
          "durationTicks": 192,
          "midi": 69,
          "name": "A4",
          "ticks": 83136,
          "time": 64.95,
          "velocity": 0.7874015748031497
        },
        {
          "duration": 0.14999999999999147,
          "durationTicks": 192,
          "midi": 72,
          "name": "C5",
          "ticks": 83136,
          "time": 64.95,
          "velocity": 0.7874015748031497
        },
        {
          "duration": 0.15000000000000568,
          "durationTicks": 192,
          "midi": 72,
          "name": "C5",
          "ticks": 83328,
          "time": 65.1,
          "velocity": 0.7874015748031497
        },
        {
          "duration": 0.15000000000000568,
          "durationTicks": 192,
          "midi": 77,
          "name": "F5",
          "ticks": 83328,
          "time": 65.1,
          "velocity": 0.7874015748031497
        },
        {
          "duration": 0.14999999999999147,
          "durationTicks": 192,
          "midi": 77,
          "name": "F5",
          "ticks": 83520,
          "time": 65.25,
          "velocity": 0.7874015748031497
        },
        {
          "duration": 0.14999999999999147,
          "durationTicks": 192,
          "midi": 81,
          "name": "A5",
          "ticks": 83520,
          "time": 65.25,
          "velocity": 0.7874015748031497
        },
        {
          "duration": 0.15000000000000568,
          "durationTicks": 192,
          "midi": 77,
          "name": "F5",
          "ticks": 83904,
          "time": 65.55,
          "velocity": 0.7874015748031497
        },
        {
          "duration": 0.15000000000000568,
          "durationTicks": 192,
          "midi": 81,
          "name": "A5",
          "ticks": 83904,
          "time": 65.55,
          "velocity": 0.7874015748031497
        },
        {
          "duration": 0.15000000000000568,
          "durationTicks": 192,
          "midi": 79,
          "name": "G5",
          "ticks": 84288,
          "time": 65.85,
          "velocity": 0.7874015748031497
        },
        {
          "duration": 0.15000000000000568,
          "durationTicks": 192,
          "midi": 75,
          "name": "D#5",
          "ticks": 84288,
          "time": 65.85,
          "velocity": 0.7874015748031497
        },
        {
          "duration": 0.14999999999999147,
          "durationTicks": 192,
          "midi": 77,
          "name": "F5",
          "ticks": 84480,
          "time": 66,
          "velocity": 0.7874015748031497
        },
        {
          "duration": 0.14999999999999147,
          "durationTicks": 192,
          "midi": 74,
          "name": "D5",
          "ticks": 84480,
          "time": 66,
          "velocity": 0.7874015748031497
        },
        {
          "duration": 0.15000000000000568,
          "durationTicks": 192,
          "midi": 75,
          "name": "D#5",
          "ticks": 84864,
          "time": 66.3,
          "velocity": 0.7874015748031497
        },
        {
          "duration": 0.15000000000000568,
          "durationTicks": 192,
          "midi": 72,
          "name": "C5",
          "ticks": 84864,
          "time": 66.3,
          "velocity": 0.7874015748031497
        },
        {
          "duration": 0.15000000000000568,
          "durationTicks": 192,
          "midi": 74,
          "name": "D5",
          "ticks": 85248,
          "time": 66.6,
          "velocity": 0.7874015748031497
        },
        {
          "duration": 0.15000000000000568,
          "durationTicks": 192,
          "midi": 70,
          "name": "A#4",
          "ticks": 85248,
          "time": 66.6,
          "velocity": 0.7874015748031497
        },
        {
          "duration": 0.14999999999999147,
          "durationTicks": 192,
          "midi": 63,
          "name": "D#4",
          "ticks": 86016,
          "time": 67.2,
          "velocity": 0.7874015748031497
        },
        {
          "duration": 0.14999999999999147,
          "durationTicks": 192,
          "midi": 67,
          "name": "G4",
          "ticks": 86016,
          "time": 67.2,
          "velocity": 0.7874015748031497
        },
        {
          "duration": 0.15000000000000568,
          "durationTicks": 192,
          "midi": 67,
          "name": "G4",
          "ticks": 86208,
          "time": 67.35,
          "velocity": 0.7874015748031497
        },
        {
          "duration": 0.15000000000000568,
          "durationTicks": 192,
          "midi": 70,
          "name": "A#4",
          "ticks": 86208,
          "time": 67.35,
          "velocity": 0.7874015748031497
        },
        {
          "duration": 0.14999999999999147,
          "durationTicks": 192,
          "midi": 70,
          "name": "A#4",
          "ticks": 86400,
          "time": 67.5,
          "velocity": 0.7874015748031497
        },
        {
          "duration": 0.14999999999999147,
          "durationTicks": 192,
          "midi": 75,
          "name": "D#5",
          "ticks": 86400,
          "time": 67.5,
          "velocity": 0.7874015748031497
        },
        {
          "duration": 0.15000000000000568,
          "durationTicks": 192,
          "midi": 75,
          "name": "D#5",
          "ticks": 86592,
          "time": 67.64999999999999,
          "velocity": 0.7874015748031497
        },
        {
          "duration": 0.15000000000000568,
          "durationTicks": 192,
          "midi": 79,
          "name": "G5",
          "ticks": 86592,
          "time": 67.64999999999999,
          "velocity": 0.7874015748031497
        },
        {
          "duration": 0.14999999999999147,
          "durationTicks": 192,
          "midi": 75,
          "name": "D#5",
          "ticks": 86976,
          "time": 67.95,
          "velocity": 0.7874015748031497
        },
        {
          "duration": 0.14999999999999147,
          "durationTicks": 192,
          "midi": 79,
          "name": "G5",
          "ticks": 86976,
          "time": 67.95,
          "velocity": 0.7874015748031497
        },
        {
          "duration": 0.14999999999999147,
          "durationTicks": 192,
          "midi": 70,
          "name": "A#4",
          "ticks": 87360,
          "time": 68.25,
          "velocity": 0.7874015748031497
        },
        {
          "duration": 0.14999999999999147,
          "durationTicks": 192,
          "midi": 67,
          "name": "G4",
          "ticks": 87360,
          "time": 68.25,
          "velocity": 0.7874015748031497
        },
        {
          "duration": 0.15000000000000568,
          "durationTicks": 192,
          "midi": 74,
          "name": "D5",
          "ticks": 87552,
          "time": 68.39999999999999,
          "velocity": 0.7874015748031497
        },
        {
          "duration": 0.15000000000000568,
          "durationTicks": 192,
          "midi": 70,
          "name": "A#4",
          "ticks": 87552,
          "time": 68.39999999999999,
          "velocity": 0.7874015748031497
        },
        {
          "duration": 0.14999999999999147,
          "durationTicks": 192,
          "midi": 74,
          "name": "D5",
          "ticks": 87936,
          "time": 68.7,
          "velocity": 0.7874015748031497
        },
        {
          "duration": 0.14999999999999147,
          "durationTicks": 192,
          "midi": 70,
          "name": "A#4",
          "ticks": 87936,
          "time": 68.7,
          "velocity": 0.7874015748031497
        },
        {
          "duration": 0.14999999999999147,
          "durationTicks": 192,
          "midi": 77,
          "name": "F5",
          "ticks": 88320,
          "time": 69,
          "velocity": 0.7874015748031497
        },
        {
          "duration": 0.14999999999999147,
          "durationTicks": 192,
          "midi": 74,
          "name": "D5",
          "ticks": 88320,
          "time": 69,
          "velocity": 0.7874015748031497
        },
        {
          "duration": 0.15000000000000568,
          "durationTicks": 192,
          "midi": 74,
          "name": "D5",
          "ticks": 88704,
          "time": 69.3,
          "velocity": 0.7874015748031497
        },
        {
          "duration": 0.15000000000000568,
          "durationTicks": 192,
          "midi": 70,
          "name": "A#4",
          "ticks": 88704,
          "time": 69.3,
          "velocity": 0.7874015748031497
        },
        {
          "duration": 0.15000000000000568,
          "durationTicks": 192,
          "midi": 65,
          "name": "F4",
          "ticks": 137088,
          "time": 107.1,
          "velocity": 0.7874015748031497
        },
        {
          "duration": 0.15000000000000568,
          "durationTicks": 192,
          "midi": 74,
          "name": "D5",
          "ticks": 137088,
          "time": 107.1,
          "velocity": 0.7874015748031497
        },
        {
          "duration": 0.29999999999999716,
          "durationTicks": 384,
          "midi": 65,
          "name": "F4",
          "ticks": 137280,
          "time": 107.25,
          "velocity": 0.7874015748031497
        },
        {
          "duration": 0.29999999999999716,
          "durationTicks": 384,
          "midi": 74,
          "name": "D5",
          "ticks": 137280,
          "time": 107.25,
          "velocity": 0.7874015748031497
        },
        {
          "duration": 0.29999999999999716,
          "durationTicks": 384,
          "midi": 65,
          "name": "F4",
          "ticks": 137664,
          "time": 107.55,
          "velocity": 0.7874015748031497
        },
        {
          "duration": 0.29999999999999716,
          "durationTicks": 384,
          "midi": 74,
          "name": "D5",
          "ticks": 137664,
          "time": 107.55,
          "velocity": 0.7874015748031497
        },
        {
          "duration": 0.15000000000000568,
          "durationTicks": 192,
          "midi": 65,
          "name": "F4",
          "ticks": 138048,
          "time": 107.85,
          "velocity": 0.7874015748031497
        },
        {
          "duration": 0.15000000000000568,
          "durationTicks": 192,
          "midi": 74,
          "name": "D5",
          "ticks": 138048,
          "time": 107.85,
          "velocity": 0.7874015748031497
        },
        {
          "duration": 0.29999999999999716,
          "durationTicks": 384,
          "midi": 63,
          "name": "D#4",
          "ticks": 138240,
          "time": 108,
          "velocity": 0.7874015748031497
        },
        {
          "duration": 0.29999999999999716,
          "durationTicks": 384,
          "midi": 72,
          "name": "C5",
          "ticks": 138240,
          "time": 108,
          "velocity": 0.7874015748031497
        },
        {
          "duration": 0.29999999999999716,
          "durationTicks": 384,
          "midi": 67,
          "name": "G4",
          "ticks": 138624,
          "time": 108.3,
          "velocity": 0.7874015748031497
        },
        {
          "duration": 0.29999999999999716,
          "durationTicks": 384,
          "midi": 75,
          "name": "D#5",
          "ticks": 138624,
          "time": 108.3,
          "velocity": 0.7874015748031497
        },
        {
          "duration": 0.29999999999999716,
          "durationTicks": 384,
          "midi": 65,
          "name": "F4",
          "ticks": 139008,
          "time": 108.6,
          "velocity": 0.7874015748031497
        },
        {
          "duration": 0.29999999999999716,
          "durationTicks": 384,
          "midi": 74,
          "name": "D5",
          "ticks": 139008,
          "time": 108.6,
          "velocity": 0.7874015748031497
        },
        {
          "duration": 0.14999999999999147,
          "durationTicks": 192,
          "midi": 60,
          "name": "C4",
          "ticks": 140160,
          "time": 109.5,
          "velocity": 0.7874015748031497
        },
        {
          "duration": 0.14999999999999147,
          "durationTicks": 192,
          "midi": 57,
          "name": "A3",
          "ticks": 140160,
          "time": 109.5,
          "velocity": 0.7874015748031497
        },
        {
          "duration": 0.15000000000000568,
          "durationTicks": 192,
          "midi": 60,
          "name": "C4",
          "ticks": 140544,
          "time": 109.8,
          "velocity": 0.7874015748031497
        },
        {
          "duration": 0.15000000000000568,
          "durationTicks": 192,
          "midi": 63,
          "name": "D#4",
          "ticks": 140544,
          "time": 109.8,
          "velocity": 0.7874015748031497
        },
        {
          "duration": 0.15000000000000568,
          "durationTicks": 192,
          "midi": 60,
          "name": "C4",
          "ticks": 140928,
          "time": 110.1,
          "velocity": 0.7874015748031497
        },
        {
          "duration": 0.15000000000000568,
          "durationTicks": 192,
          "midi": 57,
          "name": "A3",
          "ticks": 140928,
          "time": 110.1,
          "velocity": 0.7874015748031497
        },
        {
          "duration": 0.14999999999999147,
          "durationTicks": 192,
          "midi": 60,
          "name": "C4",
          "ticks": 143040,
          "time": 111.75,
          "velocity": 0.7874015748031497
        },
        {
          "duration": 0.14999999999999147,
          "durationTicks": 192,
          "midi": 57,
          "name": "A3",
          "ticks": 143040,
          "time": 111.75,
          "velocity": 0.7874015748031497
        },
        {
          "duration": 0.14999999999999147,
          "durationTicks": 192,
          "midi": 63,
          "name": "D#4",
          "ticks": 143616,
          "time": 112.2,
          "velocity": 0.7874015748031497
        },
        {
          "duration": 0.14999999999999147,
          "durationTicks": 192,
          "midi": 60,
          "name": "C4",
          "ticks": 143616,
          "time": 112.2,
          "velocity": 0.7874015748031497
        },
        {
          "duration": 0.15000000000000568,
          "durationTicks": 192,
          "midi": 62,
          "name": "D4",
          "ticks": 144192,
          "time": 112.64999999999999,
          "velocity": 0.7874015748031497
        },
        {
          "duration": 0.15000000000000568,
          "durationTicks": 192,
          "midi": 58,
          "name": "A#3",
          "ticks": 144192,
          "time": 112.64999999999999,
          "velocity": 0.7874015748031497
        },
        {
          "duration": 0.14999999999999147,
          "durationTicks": 192,
          "midi": 60,
          "name": "C4",
          "ticks": 145920,
          "time": 114,
          "velocity": 0.7874015748031497
        },
        {
          "duration": 0.14999999999999147,
          "durationTicks": 192,
          "midi": 63,
          "name": "D#4",
          "ticks": 145920,
          "time": 114,
          "velocity": 0.7874015748031497
        },
        {
          "duration": 0.15000000000000568,
          "durationTicks": 192,
          "midi": 60,
          "name": "C4",
          "ticks": 146688,
          "time": 114.6,
          "velocity": 0.7874015748031497
        },
        {
          "duration": 0.15000000000000568,
          "durationTicks": 192,
          "midi": 63,
          "name": "D#4",
          "ticks": 146688,
          "time": 114.6,
          "velocity": 0.7874015748031497
        },
        {
          "duration": 0.14999999999999147,
          "durationTicks": 192,
          "midi": 62,
          "name": "D4",
          "ticks": 147264,
          "time": 115.05,
          "velocity": 0.7874015748031497
        },
        {
          "duration": 0.14999999999999147,
          "durationTicks": 192,
          "midi": 58,
          "name": "A#3",
          "ticks": 147264,
          "time": 115.05,
          "velocity": 0.7874015748031497
        },
        {
          "duration": 0.15000000000000568,
          "durationTicks": 192,
          "midi": 60,
          "name": "C4",
          "ticks": 148992,
          "time": 116.39999999999999,
          "velocity": 0.7874015748031497
        },
        {
          "duration": 0.15000000000000568,
          "durationTicks": 192,
          "midi": 63,
          "name": "D#4",
          "ticks": 148992,
          "time": 116.39999999999999,
          "velocity": 0.7874015748031497
        },
        {
          "duration": 0.14999999999999147,
          "durationTicks": 192,
          "midi": 60,
          "name": "C4",
          "ticks": 149760,
          "time": 117,
          "velocity": 0.7874015748031497
        },
        {
          "duration": 0.14999999999999147,
          "durationTicks": 192,
          "midi": 63,
          "name": "D#4",
          "ticks": 149760,
          "time": 117,
          "velocity": 0.7874015748031497
        },
        {
          "duration": 0.15000000000000568,
          "durationTicks": 192,
          "midi": 62,
          "name": "D4",
          "ticks": 150336,
          "time": 117.44999999999999,
          "velocity": 0.7874015748031497
        },
        {
          "duration": 0.15000000000000568,
          "durationTicks": 192,
          "midi": 58,
          "name": "A#3",
          "ticks": 150336,
          "time": 117.44999999999999,
          "velocity": 0.7874015748031497
        },
        {
          "duration": 0.14999999999999147,
          "durationTicks": 192,
          "midi": 57,
          "name": "A3",
          "ticks": 152064,
          "time": 118.8,
          "velocity": 0.7874015748031497
        },
        {
          "duration": 0.14999999999999147,
          "durationTicks": 192,
          "midi": 60,
          "name": "C4",
          "ticks": 152064,
          "time": 118.8,
          "velocity": 0.7874015748031497
        },
        {
          "duration": 0.14999999999999147,
          "durationTicks": 192,
          "midi": 77,
          "name": "F5",
          "ticks": 152064,
          "time": 118.8,
          "velocity": 1
        },
        {
          "duration": 0.15000000000000568,
          "durationTicks": 192,
          "midi": 77,
          "name": "F5",
          "ticks": 152256,
          "time": 118.94999999999999,
          "velocity": 1
        },
        {
          "duration": 0.15000000000000568,
          "durationTicks": 192,
          "midi": 76,
          "name": "E5",
          "ticks": 152448,
          "time": 119.1,
          "velocity": 1
        },
        {
          "duration": 0.14999999999999147,
          "durationTicks": 192,
          "midi": 60,
          "name": "C4",
          "ticks": 152640,
          "time": 119.25,
          "velocity": 0.7874015748031497
        },
        {
          "duration": 0.14999999999999147,
          "durationTicks": 192,
          "midi": 63,
          "name": "D#4",
          "ticks": 152640,
          "time": 119.25,
          "velocity": 0.7874015748031497
        },
        {
          "duration": 0.14999999999999147,
          "durationTicks": 192,
          "midi": 77,
          "name": "F5",
          "ticks": 152640,
          "time": 119.25,
          "velocity": 1
        },
        {
          "duration": 0.15000000000000568,
          "durationTicks": 192,
          "midi": 81,
          "name": "A5",
          "ticks": 152832,
          "time": 119.39999999999999,
          "velocity": 1
        },
        {
          "duration": 0.14999999999999147,
          "durationTicks": 192,
          "midi": 84,
          "name": "C6",
          "ticks": 153024,
          "time": 119.55,
          "velocity": 1
        },
        {
          "duration": 0.15000000000000568,
          "durationTicks": 192,
          "midi": 86,
          "name": "D6",
          "ticks": 153216,
          "time": 119.69999999999999,
          "velocity": 1
        },
        {
          "duration": 0.15000000000000568,
          "durationTicks": 192,
          "midi": 62,
          "name": "D4",
          "ticks": 153408,
          "time": 119.85,
          "velocity": 0.7874015748031497
        },
        {
          "duration": 0.15000000000000568,
          "durationTicks": 192,
          "midi": 58,
          "name": "A#3",
          "ticks": 153408,
          "time": 119.85,
          "velocity": 0.7874015748031497
        },
        {
          "duration": 0.15000000000000568,
          "durationTicks": 192,
          "midi": 82,
          "name": "A#5",
          "ticks": 153408,
          "time": 119.85,
          "velocity": 1
        },
        {
          "duration": 0.15000000000000568,
          "durationTicks": 192,
          "midi": 62,
          "name": "D4",
          "ticks": 154368,
          "time": 120.6,
          "velocity": 0.7874015748031497
        },
        {
          "duration": 0.15000000000000568,
          "durationTicks": 192,
          "midi": 58,
          "name": "A#3",
          "ticks": 154368,
          "time": 120.6,
          "velocity": 0.7874015748031497
        },
        {
          "duration": 0.15000000000000568,
          "durationTicks": 192,
          "midi": 60,
          "name": "C4",
          "ticks": 154752,
          "time": 120.89999999999999,
          "velocity": 0.7874015748031497
        },
        {
          "duration": 0.15000000000000568,
          "durationTicks": 192,
          "midi": 57,
          "name": "A3",
          "ticks": 154752,
          "time": 120.89999999999999,
          "velocity": 0.7874015748031497
        },
        {
          "duration": 0.15000000000000568,
          "durationTicks": 192,
          "midi": 57,
          "name": "A3",
          "ticks": 155136,
          "time": 121.19999999999999,
          "velocity": 0.7874015748031497
        },
        {
          "duration": 0.15000000000000568,
          "durationTicks": 192,
          "midi": 60,
          "name": "C4",
          "ticks": 155136,
          "time": 121.19999999999999,
          "velocity": 0.7874015748031497
        },
        {
          "duration": 0.15000000000000568,
          "durationTicks": 192,
          "midi": 60,
          "name": "C4",
          "ticks": 155712,
          "time": 121.64999999999999,
          "velocity": 0.7874015748031497
        },
        {
          "duration": 0.15000000000000568,
          "durationTicks": 192,
          "midi": 63,
          "name": "D#4",
          "ticks": 155712,
          "time": 121.64999999999999,
          "velocity": 0.7874015748031497
        },
        {
          "duration": 0.14999999999999147,
          "durationTicks": 192,
          "midi": 62,
          "name": "D4",
          "ticks": 156480,
          "time": 122.25,
          "velocity": 0.7874015748031497
        },
        {
          "duration": 0.14999999999999147,
          "durationTicks": 192,
          "midi": 58,
          "name": "A#3",
          "ticks": 156480,
          "time": 122.25,
          "velocity": 0.7874015748031497
        },
        {
          "duration": 0.15000000000000568,
          "durationTicks": 192,
          "midi": 63,
          "name": "D#4",
          "ticks": 158208,
          "time": 123.6,
          "velocity": 0.7874015748031497
        },
        {
          "duration": 0.15000000000000568,
          "durationTicks": 192,
          "midi": 67,
          "name": "G4",
          "ticks": 158208,
          "time": 123.6,
          "velocity": 0.7874015748031497
        },
        {
          "duration": 0.14999999999999147,
          "durationTicks": 192,
          "midi": 63,
          "name": "D#4",
          "ticks": 158784,
          "time": 124.05,
          "velocity": 0.7874015748031497
        },
        {
          "duration": 0.14999999999999147,
          "durationTicks": 192,
          "midi": 67,
          "name": "G4",
          "ticks": 158784,
          "time": 124.05,
          "velocity": 0.7874015748031497
        },
        {
          "duration": 0.15000000000000568,
          "durationTicks": 192,
          "midi": 65,
          "name": "F4",
          "ticks": 159552,
          "time": 124.64999999999999,
          "velocity": 0.7874015748031497
        },
        {
          "duration": 0.15000000000000568,
          "durationTicks": 192,
          "midi": 62,
          "name": "D4",
          "ticks": 159552,
          "time": 124.64999999999999,
          "velocity": 0.7874015748031497
        },
        {
          "duration": 0.14999999999999147,
          "durationTicks": 192,
          "midi": 60,
          "name": "C4",
          "ticks": 161280,
          "time": 126,
          "velocity": 0.7874015748031497
        },
        {
          "duration": 0.14999999999999147,
          "durationTicks": 192,
          "midi": 63,
          "name": "D#4",
          "ticks": 161280,
          "time": 126,
          "velocity": 0.7874015748031497
        },
        {
          "duration": 0.15000000000000568,
          "durationTicks": 192,
          "midi": 63,
          "name": "D#4",
          "ticks": 161856,
          "time": 126.44999999999999,
          "velocity": 0.7874015748031497
        },
        {
          "duration": 0.15000000000000568,
          "durationTicks": 192,
          "midi": 67,
          "name": "G4",
          "ticks": 161856,
          "time": 126.44999999999999,
          "velocity": 0.7874015748031497
        },
        {
          "duration": 0.14999999999999147,
          "durationTicks": 192,
          "midi": 65,
          "name": "F4",
          "ticks": 162624,
          "time": 127.05,
          "velocity": 0.7874015748031497
        },
        {
          "duration": 0.14999999999999147,
          "durationTicks": 192,
          "midi": 62,
          "name": "D4",
          "ticks": 162624,
          "time": 127.05,
          "velocity": 0.7874015748031497
        },
        {
          "duration": 0.15000000000000568,
          "durationTicks": 192,
          "midi": 62,
          "name": "D4",
          "ticks": 185856,
          "time": 145.2,
          "velocity": 0.7874015748031497
        },
        {
          "duration": 0.15000000000000568,
          "durationTicks": 192,
          "midi": 65,
          "name": "F4",
          "ticks": 186048,
          "time": 145.35,
          "velocity": 0.7874015748031497
        },
        {
          "duration": 0.15000000000000568,
          "durationTicks": 192,
          "midi": 70,
          "name": "A#4",
          "ticks": 186240,
          "time": 145.5,
          "velocity": 0.7874015748031497
        },
        {
          "duration": 0.29999999999998295,
          "durationTicks": 384,
          "midi": 70,
          "name": "A#4",
          "ticks": 186432,
          "time": 145.65,
          "velocity": 0.7874015748031497
        },
        {
          "duration": 0.30000000000001137,
          "durationTicks": 384,
          "midi": 70,
          "name": "A#4",
          "ticks": 186816,
          "time": 145.95,
          "velocity": 0.7874015748031497
        },
        {
          "duration": 0.15000000000000568,
          "durationTicks": 192,
          "midi": 62,
          "name": "D4",
          "ticks": 187200,
          "time": 146.25,
          "velocity": 0.7874015748031497
        },
        {
          "duration": 0.29999999999998295,
          "durationTicks": 384,
          "midi": 63,
          "name": "D#4",
          "ticks": 187392,
          "time": 146.4,
          "velocity": 0.7874015748031497
        },
        {
          "duration": 0.30000000000001137,
          "durationTicks": 384,
          "midi": 67,
          "name": "G4",
          "ticks": 187776,
          "time": 146.7,
          "velocity": 0.7874015748031497
        },
        {
          "duration": 0.29999999999998295,
          "durationTicks": 384,
          "midi": 65,
          "name": "F4",
          "ticks": 188160,
          "time": 147,
          "velocity": 0.7874015748031497
        },
        {
          "duration": 0.30000000000001137,
          "durationTicks": 384,
          "midi": 62,
          "name": "D4",
          "ticks": 188544,
          "time": 147.29999999999998,
          "velocity": 0.7874015748031497
        },
        {
          "duration": 0.15000000000000568,
          "durationTicks": 192,
          "midi": 58,
          "name": "A#3",
          "ticks": 188928,
          "time": 147.6,
          "velocity": 0.7874015748031497
        },
        {
          "duration": 0.15000000000000568,
          "durationTicks": 192,
          "midi": 62,
          "name": "D4",
          "ticks": 189120,
          "time": 147.75,
          "velocity": 0.7874015748031497
        },
        {
          "duration": 0.14999999999997726,
          "durationTicks": 192,
          "midi": 65,
          "name": "F4",
          "ticks": 189312,
          "time": 147.9,
          "velocity": 0.7874015748031497
        },
        {
          "duration": 0.30000000000001137,
          "durationTicks": 384,
          "midi": 62,
          "name": "D4",
          "ticks": 189504,
          "time": 148.04999999999998,
          "velocity": 0.7874015748031497
        },
        {
          "duration": 0.30000000000001137,
          "durationTicks": 384,
          "midi": 62,
          "name": "D4",
          "ticks": 189888,
          "time": 148.35,
          "velocity": 0.7874015748031497
        },
        {
          "duration": 0.14999999999997726,
          "durationTicks": 192,
          "midi": 60,
          "name": "C4",
          "ticks": 190272,
          "time": 148.65,
          "velocity": 0.7874015748031497
        },
        {
          "duration": 0.30000000000001137,
          "durationTicks": 384,
          "midi": 65,
          "name": "F4",
          "ticks": 190464,
          "time": 148.79999999999998,
          "velocity": 0.7874015748031497
        },
        {
          "duration": 0.30000000000001137,
          "durationTicks": 384,
          "midi": 63,
          "name": "D#4",
          "ticks": 190848,
          "time": 149.1,
          "velocity": 0.7874015748031497
        },
        {
          "duration": 0.29999999999998295,
          "durationTicks": 384,
          "midi": 62,
          "name": "D4",
          "ticks": 191232,
          "time": 149.4,
          "velocity": 0.7874015748031497
        },
        {
          "duration": 0.15000000000000568,
          "durationTicks": 192,
          "midi": 64,
          "name": "E4",
          "ticks": 192000,
          "time": 150,
          "velocity": 0.7874015748031497
        },
        {
          "duration": 0.14999999999997726,
          "durationTicks": 192,
          "midi": 67,
          "name": "G4",
          "ticks": 192192,
          "time": 150.15,
          "velocity": 0.7874015748031497
        },
        {
          "duration": 0.15000000000000568,
          "durationTicks": 192,
          "midi": 72,
          "name": "C5",
          "ticks": 192384,
          "time": 150.29999999999998,
          "velocity": 0.7874015748031497
        },
        {
          "duration": 0.30000000000001137,
          "durationTicks": 384,
          "midi": 67,
          "name": "G4",
          "ticks": 192576,
          "time": 150.45,
          "velocity": 0.7874015748031497
        },
        {
          "duration": 0.29999999999998295,
          "durationTicks": 384,
          "midi": 67,
          "name": "G4",
          "ticks": 192960,
          "time": 150.75,
          "velocity": 0.7874015748031497
        },
        {
          "duration": 0.15000000000000568,
          "durationTicks": 192,
          "midi": 67,
          "name": "G4",
          "ticks": 193344,
          "time": 151.04999999999998,
          "velocity": 0.7874015748031497
        },
        {
          "duration": 0.30000000000001137,
          "durationTicks": 384,
          "midi": 65,
          "name": "F4",
          "ticks": 193536,
          "time": 151.2,
          "velocity": 0.7874015748031497
        },
        {
          "duration": 0.29999999999998295,
          "durationTicks": 384,
          "midi": 69,
          "name": "A4",
          "ticks": 193920,
          "time": 151.5,
          "velocity": 0.7874015748031497
        },
        {
          "duration": 0.30000000000001137,
          "durationTicks": 384,
          "midi": 67,
          "name": "G4",
          "ticks": 194304,
          "time": 151.79999999999998,
          "velocity": 0.7874015748031497
        },
        {
          "duration": 0.30000000000001137,
          "durationTicks": 384,
          "midi": 64,
          "name": "E4",
          "ticks": 194688,
          "time": 152.1,
          "velocity": 0.7874015748031497
        },
        {
          "duration": 0.15000000000000568,
          "durationTicks": 192,
          "midi": 64,
          "name": "E4",
          "ticks": 219648,
          "time": 171.6,
          "velocity": 0.7874015748031497
        },
        {
          "duration": 0.15000000000000568,
          "durationTicks": 192,
          "midi": 67,
          "name": "G4",
          "ticks": 219840,
          "time": 171.75,
          "velocity": 0.7874015748031497
        },
        {
          "duration": 0.14999999999997726,
          "durationTicks": 192,
          "midi": 72,
          "name": "C5",
          "ticks": 220032,
          "time": 171.9,
          "velocity": 0.7874015748031497
        },
        {
          "duration": 0.30000000000001137,
          "durationTicks": 384,
          "midi": 67,
          "name": "G4",
          "ticks": 220224,
          "time": 172.04999999999998,
          "velocity": 0.7874015748031497
        },
        {
          "duration": 0.30000000000001137,
          "durationTicks": 384,
          "midi": 67,
          "name": "G4",
          "ticks": 220608,
          "time": 172.35,
          "velocity": 0.7874015748031497
        },
        {
          "duration": 0.14999999999997726,
          "durationTicks": 192,
          "midi": 64,
          "name": "E4",
          "ticks": 220992,
          "time": 172.65,
          "velocity": 0.7874015748031497
        },
        {
          "duration": 0.30000000000001137,
          "durationTicks": 384,
          "midi": 65,
          "name": "F4",
          "ticks": 221184,
          "time": 172.79999999999998,
          "velocity": 0.7874015748031497
        },
        {
          "duration": 0.30000000000001137,
          "durationTicks": 384,
          "midi": 69,
          "name": "A4",
          "ticks": 221568,
          "time": 173.1,
          "velocity": 0.7874015748031497
        },
        {
          "duration": 0.29999999999998295,
          "durationTicks": 384,
          "midi": 67,
          "name": "G4",
          "ticks": 221952,
          "time": 173.4,
          "velocity": 0.7874015748031497
        },
        {
          "duration": 0.30000000000001137,
          "durationTicks": 384,
          "midi": 64,
          "name": "E4",
          "ticks": 222336,
          "time": 173.7,
          "velocity": 0.7874015748031497
        },
        {
          "duration": 0.07499999999998863,
          "durationTicks": 96,
          "midi": 69,
          "name": "A4",
          "ticks": 222720,
          "time": 174,
          "velocity": 0.7874015748031497
        },
        {
          "duration": 0.07500000000001705,
          "durationTicks": 96,
          "midi": 60,
          "name": "C4",
          "ticks": 222816,
          "time": 174.075,
          "velocity": 0.7874015748031497
        },
        {
          "duration": 0.07499999999998863,
          "durationTicks": 96,
          "midi": 69,
          "name": "A4",
          "ticks": 222912,
          "time": 174.15,
          "velocity": 0.7874015748031497
        },
        {
          "duration": 0.07499999999998863,
          "durationTicks": 96,
          "midi": 60,
          "name": "C4",
          "ticks": 223008,
          "time": 174.225,
          "velocity": 0.7874015748031497
        },
        {
          "duration": 0.07500000000001705,
          "durationTicks": 96,
          "midi": 69,
          "name": "A4",
          "ticks": 223104,
          "time": 174.29999999999998,
          "velocity": 0.7874015748031497
        },
        {
          "duration": 0.07499999999998863,
          "durationTicks": 96,
          "midi": 60,
          "name": "C4",
          "ticks": 223200,
          "time": 174.375,
          "velocity": 0.7874015748031497
        },
        {
          "duration": 0.07500000000001705,
          "durationTicks": 96,
          "midi": 69,
          "name": "A4",
          "ticks": 223296,
          "time": 174.45,
          "velocity": 0.7874015748031497
        },
        {
          "duration": 0.07499999999998863,
          "durationTicks": 96,
          "midi": 60,
          "name": "C4",
          "ticks": 223392,
          "time": 174.525,
          "velocity": 0.7874015748031497
        },
        {
          "duration": 0.07499999999998863,
          "durationTicks": 96,
          "midi": 69,
          "name": "A4",
          "ticks": 223488,
          "time": 174.6,
          "velocity": 0.7874015748031497
        },
        {
          "duration": 0.07500000000001705,
          "durationTicks": 96,
          "midi": 60,
          "name": "C4",
          "ticks": 223584,
          "time": 174.67499999999998,
          "velocity": 0.7874015748031497
        },
        {
          "duration": 0.07499999999998863,
          "durationTicks": 96,
          "midi": 69,
          "name": "A4",
          "ticks": 223680,
          "time": 174.75,
          "velocity": 0.7874015748031497
        },
        {
          "duration": 0.07500000000001705,
          "durationTicks": 96,
          "midi": 60,
          "name": "C4",
          "ticks": 223776,
          "time": 174.825,
          "velocity": 0.7874015748031497
        },
        {
          "duration": 0.07499999999998863,
          "durationTicks": 96,
          "midi": 69,
          "name": "A4",
          "ticks": 223872,
          "time": 174.9,
          "velocity": 0.7874015748031497
        },
        {
          "duration": 0.07499999999998863,
          "durationTicks": 96,
          "midi": 60,
          "name": "C4",
          "ticks": 223968,
          "time": 174.975,
          "velocity": 0.7874015748031497
        },
        {
          "duration": 0.07500000000001705,
          "durationTicks": 96,
          "midi": 69,
          "name": "A4",
          "ticks": 224064,
          "time": 175.04999999999998,
          "velocity": 0.7874015748031497
        },
        {
          "duration": 0.07499999999998863,
          "durationTicks": 96,
          "midi": 60,
          "name": "C4",
          "ticks": 224160,
          "time": 175.125,
          "velocity": 0.7874015748031497
        },
        {
          "duration": 0.07500000000001705,
          "durationTicks": 96,
          "midi": 71,
          "name": "B4",
          "ticks": 224256,
          "time": 175.2,
          "velocity": 0.7874015748031497
        },
        {
          "duration": 0.07499999999998863,
          "durationTicks": 96,
          "midi": 62,
          "name": "D4",
          "ticks": 224352,
          "time": 175.275,
          "velocity": 0.7874015748031497
        },
        {
          "duration": 0.07499999999998863,
          "durationTicks": 96,
          "midi": 71,
          "name": "B4",
          "ticks": 224448,
          "time": 175.35,
          "velocity": 0.7874015748031497
        },
        {
          "duration": 0.07500000000001705,
          "durationTicks": 96,
          "midi": 62,
          "name": "D4",
          "ticks": 224544,
          "time": 175.42499999999998,
          "velocity": 0.7874015748031497
        },
        {
          "duration": 0.07499999999998863,
          "durationTicks": 96,
          "midi": 71,
          "name": "B4",
          "ticks": 224640,
          "time": 175.5,
          "velocity": 0.7874015748031497
        },
        {
          "duration": 0.07500000000001705,
          "durationTicks": 96,
          "midi": 62,
          "name": "D4",
          "ticks": 224736,
          "time": 175.575,
          "velocity": 0.7874015748031497
        },
        {
          "duration": 0.07499999999998863,
          "durationTicks": 96,
          "midi": 71,
          "name": "B4",
          "ticks": 224832,
          "time": 175.65,
          "velocity": 0.7874015748031497
        },
        {
          "duration": 0.07499999999998863,
          "durationTicks": 96,
          "midi": 62,
          "name": "D4",
          "ticks": 224928,
          "time": 175.725,
          "velocity": 0.7874015748031497
        },
        {
          "duration": 0.07500000000001705,
          "durationTicks": 96,
          "midi": 71,
          "name": "B4",
          "ticks": 225024,
          "time": 175.79999999999998,
          "velocity": 0.7874015748031497
        },
        {
          "duration": 0.07499999999998863,
          "durationTicks": 96,
          "midi": 62,
          "name": "D4",
          "ticks": 225120,
          "time": 175.875,
          "velocity": 0.7874015748031497
        },
        {
          "duration": 0.07500000000001705,
          "durationTicks": 96,
          "midi": 71,
          "name": "B4",
          "ticks": 225216,
          "time": 175.95,
          "velocity": 0.7874015748031497
        },
        {
          "duration": 0.07499999999998863,
          "durationTicks": 96,
          "midi": 62,
          "name": "D4",
          "ticks": 225312,
          "time": 176.025,
          "velocity": 0.7874015748031497
        },
        {
          "duration": 0.07499999999998863,
          "durationTicks": 96,
          "midi": 71,
          "name": "B4",
          "ticks": 225408,
          "time": 176.1,
          "velocity": 0.7874015748031497
        },
        {
          "duration": 0.07500000000001705,
          "durationTicks": 96,
          "midi": 62,
          "name": "D4",
          "ticks": 225504,
          "time": 176.17499999999998,
          "velocity": 0.7874015748031497
        },
        {
          "duration": 0.07499999999998863,
          "durationTicks": 96,
          "midi": 71,
          "name": "B4",
          "ticks": 225600,
          "time": 176.25,
          "velocity": 0.7874015748031497
        },
        {
          "duration": 0.07500000000001705,
          "durationTicks": 96,
          "midi": 62,
          "name": "D4",
          "ticks": 225696,
          "time": 176.325,
          "velocity": 0.7874015748031497
        },
        {
          "duration": 0.14999999999997726,
          "durationTicks": 192,
          "midi": 64,
          "name": "E4",
          "ticks": 225792,
          "time": 176.4,
          "velocity": 0.7874015748031497
        },
        {
          "duration": 0.15000000000000568,
          "durationTicks": 192,
          "midi": 67,
          "name": "G4",
          "ticks": 225984,
          "time": 176.54999999999998,
          "velocity": 0.7874015748031497
        },
        {
          "duration": 0.15000000000000568,
          "durationTicks": 192,
          "midi": 72,
          "name": "C5",
          "ticks": 226176,
          "time": 176.7,
          "velocity": 0.7874015748031497
        },
        {
          "duration": 0.30000000000001137,
          "durationTicks": 384,
          "midi": 67,
          "name": "G4",
          "ticks": 226368,
          "time": 176.85,
          "velocity": 0.7874015748031497
        },
        {
          "duration": 0.29999999999998295,
          "durationTicks": 384,
          "midi": 67,
          "name": "G4",
          "ticks": 226752,
          "time": 177.15,
          "velocity": 0.7874015748031497
        },
        {
          "duration": 0.15000000000000568,
          "durationTicks": 192,
          "midi": 64,
          "name": "E4",
          "ticks": 227136,
          "time": 177.45,
          "velocity": 0.7874015748031497
        },
        {
          "duration": 0.30000000000001137,
          "durationTicks": 384,
          "midi": 65,
          "name": "F4",
          "ticks": 227328,
          "time": 177.6,
          "velocity": 0.7874015748031497
        },
        {
          "duration": 0.29999999999998295,
          "durationTicks": 384,
          "midi": 69,
          "name": "A4",
          "ticks": 227712,
          "time": 177.9,
          "velocity": 0.7874015748031497
        },
        {
          "duration": 0.30000000000001137,
          "durationTicks": 384,
          "midi": 67,
          "name": "G4",
          "ticks": 228096,
          "time": 178.2,
          "velocity": 0.7874015748031497
        },
        {
          "duration": 0.29999999999998295,
          "durationTicks": 384,
          "midi": 64,
          "name": "E4",
          "ticks": 228480,
          "time": 178.5,
          "velocity": 0.7874015748031497
        },
        {
          "duration": 0.15000000000000568,
          "durationTicks": 192,
          "midi": 64,
          "name": "E4",
          "ticks": 238080,
          "time": 186,
          "velocity": 1
        },
        {
          "duration": 0.14999999999997726,
          "durationTicks": 192,
          "midi": 67,
          "name": "G4",
          "ticks": 238272,
          "time": 186.15,
          "velocity": 1
        },
        {
          "duration": 0.15000000000000568,
          "durationTicks": 192,
          "midi": 72,
          "name": "C5",
          "ticks": 238464,
          "time": 186.29999999999998,
          "velocity": 1
        },
        {
          "duration": 0.30000000000001137,
          "durationTicks": 384,
          "midi": 67,
          "name": "G4",
          "ticks": 238656,
          "time": 186.45,
          "velocity": 1
        },
        {
          "duration": 0.29999999999998295,
          "durationTicks": 384,
          "midi": 67,
          "name": "G4",
          "ticks": 239040,
          "time": 186.75,
          "velocity": 1
        },
        {
          "duration": 0.15000000000000568,
          "durationTicks": 192,
          "midi": 64,
          "name": "E4",
          "ticks": 239424,
          "time": 187.04999999999998,
          "velocity": 1
        },
        {
          "duration": 0.30000000000001137,
          "durationTicks": 384,
          "midi": 65,
          "name": "F4",
          "ticks": 239616,
          "time": 187.2,
          "velocity": 1
        },
        {
          "duration": 0.29999999999998295,
          "durationTicks": 384,
          "midi": 69,
          "name": "A4",
          "ticks": 240000,
          "time": 187.5,
          "velocity": 1
        },
        {
          "duration": 0.30000000000001137,
          "durationTicks": 384,
          "midi": 67,
          "name": "G4",
          "ticks": 240384,
          "time": 187.79999999999998,
          "velocity": 1
        },
        {
          "duration": 0.30000000000001137,
          "durationTicks": 384,
          "midi": 64,
          "name": "E4",
          "ticks": 240768,
          "time": 188.1,
          "velocity": 1
        },
        {
          "duration": 0.14999999999997726,
          "durationTicks": 192,
          "midi": 60,
          "name": "C4",
          "ticks": 241152,
          "time": 188.4,
          "velocity": 1
        },
        {
          "duration": 0.15000000000000568,
          "durationTicks": 192,
          "midi": 64,
          "name": "E4",
          "ticks": 241344,
          "time": 188.54999999999998,
          "velocity": 1
        },
        {
          "duration": 0.15000000000000568,
          "durationTicks": 192,
          "midi": 67,
          "name": "G4",
          "ticks": 241536,
          "time": 188.7,
          "velocity": 1
        },
        {
          "duration": 0.30000000000001137,
          "durationTicks": 384,
          "midi": 64,
          "name": "E4",
          "ticks": 241728,
          "time": 188.85,
          "velocity": 1
        },
        {
          "duration": 0.29999999999998295,
          "durationTicks": 384,
          "midi": 64,
          "name": "E4",
          "ticks": 242112,
          "time": 189.15,
          "velocity": 1
        },
        {
          "duration": 0.15000000000000568,
          "durationTicks": 192,
          "midi": 67,
          "name": "G4",
          "ticks": 242496,
          "time": 189.45,
          "velocity": 1
        },
        {
          "duration": 0.30000000000001137,
          "durationTicks": 384,
          "midi": 62,
          "name": "D4",
          "ticks": 242688,
          "time": 189.6,
          "velocity": 1
        },
        {
          "duration": 0.29999999999998295,
          "durationTicks": 384,
          "midi": 65,
          "name": "F4",
          "ticks": 243072,
          "time": 189.9,
          "velocity": 1
        },
        {
          "duration": 0.15000000000000568,
          "durationTicks": 192,
          "midi": 64,
          "name": "E4",
          "ticks": 243456,
          "time": 190.2,
          "velocity": 1
        },
        {
          "duration": 0.15000000000000568,
          "durationTicks": 192,
          "midi": 72,
          "name": "C5",
          "ticks": 243840,
          "time": 190.5,
          "velocity": 1
        }
      ],
      "endOfTrackTicks": 245760
    },
    {
      "channel": 4,
      "controlChanges": {},
      "pitchBends": [],
      "instrument": {
        "family": "chromatic percussion",
        "number": 11,
        "name": "vibraphone"
      },
      "name": "",
      "notes": [
        {
          "duration": 0.07499999999998863,
          "durationTicks": 96,
          "midi": 75,
          "name": "D#5",
          "ticks": 93696,
          "time": 73.2,
          "velocity": 0.7874015748031497
        },
        {
          "duration": 0.07500000000000284,
          "durationTicks": 96,
          "midi": 67,
          "name": "G4",
          "ticks": 93792,
          "time": 73.27499999999999,
          "velocity": 0.7874015748031497
        },
        {
          "duration": 0.07500000000000284,
          "durationTicks": 96,
          "midi": 75,
          "name": "D#5",
          "ticks": 93888,
          "time": 73.35,
          "velocity": 0.7874015748031497
        },
        {
          "duration": 0.07500000000000284,
          "durationTicks": 96,
          "midi": 67,
          "name": "G4",
          "ticks": 93984,
          "time": 73.425,
          "velocity": 0.7874015748031497
        },
        {
          "duration": 0.07500000000000284,
          "durationTicks": 96,
          "midi": 75,
          "name": "D#5",
          "ticks": 94080,
          "time": 73.5,
          "velocity": 0.7874015748031497
        },
        {
          "duration": 0.07499999999998863,
          "durationTicks": 96,
          "midi": 67,
          "name": "G4",
          "ticks": 94176,
          "time": 73.575,
          "velocity": 0.7874015748031497
        },
        {
          "duration": 0.07500000000000284,
          "durationTicks": 96,
          "midi": 75,
          "name": "D#5",
          "ticks": 94272,
          "time": 73.64999999999999,
          "velocity": 0.7874015748031497
        },
        {
          "duration": 0.07500000000000284,
          "durationTicks": 96,
          "midi": 67,
          "name": "G4",
          "ticks": 94368,
          "time": 73.725,
          "velocity": 0.7874015748031497
        },
        {
          "duration": 0.07500000000000284,
          "durationTicks": 96,
          "midi": 75,
          "name": "D#5",
          "ticks": 94464,
          "time": 73.8,
          "velocity": 0.7874015748031497
        },
        {
          "duration": 0.07500000000000284,
          "durationTicks": 96,
          "midi": 67,
          "name": "G4",
          "ticks": 94560,
          "time": 73.875,
          "velocity": 0.7874015748031497
        },
        {
          "duration": 0.07499999999998863,
          "durationTicks": 96,
          "midi": 75,
          "name": "D#5",
          "ticks": 94656,
          "time": 73.95,
          "velocity": 0.7874015748031497
        },
        {
          "duration": 0.07500000000000284,
          "durationTicks": 96,
          "midi": 67,
          "name": "G4",
          "ticks": 94752,
          "time": 74.02499999999999,
          "velocity": 0.7874015748031497
        },
        {
          "duration": 0.07500000000000284,
          "durationTicks": 96,
          "midi": 75,
          "name": "D#5",
          "ticks": 94848,
          "time": 74.1,
          "velocity": 0.7874015748031497
        },
        {
          "duration": 0.07500000000000284,
          "durationTicks": 96,
          "midi": 67,
          "name": "G4",
          "ticks": 94944,
          "time": 74.175,
          "velocity": 0.7874015748031497
        },
        {
          "duration": 0.07500000000000284,
          "durationTicks": 96,
          "midi": 75,
          "name": "D#5",
          "ticks": 95040,
          "time": 74.25,
          "velocity": 0.7874015748031497
        },
        {
          "duration": 0.07499999999998863,
          "durationTicks": 96,
          "midi": 67,
          "name": "G4",
          "ticks": 95136,
          "time": 74.325,
          "velocity": 0.7874015748031497
        },
        {
          "duration": 0.07500000000000284,
          "durationTicks": 96,
          "midi": 74,
          "name": "D5",
          "ticks": 95232,
          "time": 74.39999999999999,
          "velocity": 0.7874015748031497
        },
        {
          "duration": 0.07500000000000284,
          "durationTicks": 96,
          "midi": 65,
          "name": "F4",
          "ticks": 95328,
          "time": 74.475,
          "velocity": 0.7874015748031497
        },
        {
          "duration": 0.07500000000000284,
          "durationTicks": 96,
          "midi": 74,
          "name": "D5",
          "ticks": 95424,
          "time": 74.55,
          "velocity": 0.7874015748031497
        },
        {
          "duration": 0.07500000000000284,
          "durationTicks": 96,
          "midi": 65,
          "name": "F4",
          "ticks": 95520,
          "time": 74.625,
          "velocity": 0.7874015748031497
        },
        {
          "duration": 0.07499999999998863,
          "durationTicks": 96,
          "midi": 74,
          "name": "D5",
          "ticks": 95616,
          "time": 74.7,
          "velocity": 0.7874015748031497
        },
        {
          "duration": 0.07500000000000284,
          "durationTicks": 96,
          "midi": 65,
          "name": "F4",
          "ticks": 95712,
          "time": 74.77499999999999,
          "velocity": 0.7874015748031497
        },
        {
          "duration": 0.07500000000000284,
          "durationTicks": 96,
          "midi": 74,
          "name": "D5",
          "ticks": 95808,
          "time": 74.85,
          "velocity": 0.7874015748031497
        },
        {
          "duration": 0.07500000000000284,
          "durationTicks": 96,
          "midi": 65,
          "name": "F4",
          "ticks": 95904,
          "time": 74.925,
          "velocity": 0.7874015748031497
        },
        {
          "duration": 0.07500000000000284,
          "durationTicks": 96,
          "midi": 74,
          "name": "D5",
          "ticks": 96000,
          "time": 75,
          "velocity": 0.7874015748031497
        },
        {
          "duration": 0.07499999999998863,
          "durationTicks": 96,
          "midi": 65,
          "name": "F4",
          "ticks": 96096,
          "time": 75.075,
          "velocity": 0.7874015748031497
        },
        {
          "duration": 0.07500000000000284,
          "durationTicks": 96,
          "midi": 74,
          "name": "D5",
          "ticks": 96192,
          "time": 75.14999999999999,
          "velocity": 0.7874015748031497
        },
        {
          "duration": 0.07500000000000284,
          "durationTicks": 96,
          "midi": 65,
          "name": "F4",
          "ticks": 96288,
          "time": 75.225,
          "velocity": 0.7874015748031497
        },
        {
          "duration": 0.07500000000000284,
          "durationTicks": 96,
          "midi": 74,
          "name": "D5",
          "ticks": 96384,
          "time": 75.3,
          "velocity": 0.7874015748031497
        },
        {
          "duration": 0.07500000000000284,
          "durationTicks": 96,
          "midi": 65,
          "name": "F4",
          "ticks": 96480,
          "time": 75.375,
          "velocity": 0.7874015748031497
        },
        {
          "duration": 0.07499999999998863,
          "durationTicks": 96,
          "midi": 74,
          "name": "D5",
          "ticks": 96576,
          "time": 75.45,
          "velocity": 0.7874015748031497
        },
        {
          "duration": 0.07500000000000284,
          "durationTicks": 96,
          "midi": 65,
          "name": "F4",
          "ticks": 96672,
          "time": 75.52499999999999,
          "velocity": 0.7874015748031497
        },
        {
          "duration": 0.07500000000000284,
          "durationTicks": 96,
          "midi": 72,
          "name": "C5",
          "ticks": 96768,
          "time": 75.6,
          "velocity": 0.7874015748031497
        },
        {
          "duration": 0.07500000000000284,
          "durationTicks": 96,
          "midi": 63,
          "name": "D#4",
          "ticks": 96864,
          "time": 75.675,
          "velocity": 0.7874015748031497
        },
        {
          "duration": 0.07500000000000284,
          "durationTicks": 96,
          "midi": 72,
          "name": "C5",
          "ticks": 96960,
          "time": 75.75,
          "velocity": 0.7874015748031497
        },
        {
          "duration": 0.07499999999998863,
          "durationTicks": 96,
          "midi": 63,
          "name": "D#4",
          "ticks": 97056,
          "time": 75.825,
          "velocity": 0.7874015748031497
        },
        {
          "duration": 0.07500000000000284,
          "durationTicks": 96,
          "midi": 72,
          "name": "C5",
          "ticks": 97152,
          "time": 75.89999999999999,
          "velocity": 0.7874015748031497
        },
        {
          "duration": 0.07500000000000284,
          "durationTicks": 96,
          "midi": 63,
          "name": "D#4",
          "ticks": 97248,
          "time": 75.975,
          "velocity": 0.7874015748031497
        },
        {
          "duration": 0.07500000000000284,
          "durationTicks": 96,
          "midi": 72,
          "name": "C5",
          "ticks": 97344,
          "time": 76.05,
          "velocity": 0.7874015748031497
        },
        {
          "duration": 0.07500000000000284,
          "durationTicks": 96,
          "midi": 63,
          "name": "D#4",
          "ticks": 97440,
          "time": 76.125,
          "velocity": 0.7874015748031497
        },
        {
          "duration": 0.07499999999998863,
          "durationTicks": 96,
          "midi": 72,
          "name": "C5",
          "ticks": 97536,
          "time": 76.2,
          "velocity": 0.7874015748031497
        },
        {
          "duration": 0.07500000000000284,
          "durationTicks": 96,
          "midi": 63,
          "name": "D#4",
          "ticks": 97632,
          "time": 76.27499999999999,
          "velocity": 0.7874015748031497
        },
        {
          "duration": 0.07500000000000284,
          "durationTicks": 96,
          "midi": 72,
          "name": "C5",
          "ticks": 97728,
          "time": 76.35,
          "velocity": 0.7874015748031497
        },
        {
          "duration": 0.07500000000000284,
          "durationTicks": 96,
          "midi": 63,
          "name": "D#4",
          "ticks": 97824,
          "time": 76.425,
          "velocity": 0.7874015748031497
        },
        {
          "duration": 0.07500000000000284,
          "durationTicks": 96,
          "midi": 72,
          "name": "C5",
          "ticks": 97920,
          "time": 76.5,
          "velocity": 0.7874015748031497
        },
        {
          "duration": 0.07499999999998863,
          "durationTicks": 96,
          "midi": 63,
          "name": "D#4",
          "ticks": 98016,
          "time": 76.575,
          "velocity": 0.7874015748031497
        },
        {
          "duration": 0.07500000000000284,
          "durationTicks": 96,
          "midi": 72,
          "name": "C5",
          "ticks": 98112,
          "time": 76.64999999999999,
          "velocity": 0.7874015748031497
        },
        {
          "duration": 0.07500000000000284,
          "durationTicks": 96,
          "midi": 63,
          "name": "D#4",
          "ticks": 98208,
          "time": 76.725,
          "velocity": 0.7874015748031497
        },
        {
          "duration": 0.07500000000000284,
          "durationTicks": 96,
          "midi": 70,
          "name": "A#4",
          "ticks": 98304,
          "time": 76.8,
          "velocity": 0.7874015748031497
        },
        {
          "duration": 0.07500000000000284,
          "durationTicks": 96,
          "midi": 62,
          "name": "D4",
          "ticks": 98400,
          "time": 76.875,
          "velocity": 0.7874015748031497
        },
        {
          "duration": 0.07499999999998863,
          "durationTicks": 96,
          "midi": 70,
          "name": "A#4",
          "ticks": 98496,
          "time": 76.95,
          "velocity": 0.7874015748031497
        },
        {
          "duration": 0.07500000000000284,
          "durationTicks": 96,
          "midi": 62,
          "name": "D4",
          "ticks": 98592,
          "time": 77.02499999999999,
          "velocity": 0.7874015748031497
        },
        {
          "duration": 0.07500000000000284,
          "durationTicks": 96,
          "midi": 70,
          "name": "A#4",
          "ticks": 98688,
          "time": 77.1,
          "velocity": 0.7874015748031497
        },
        {
          "duration": 0.07500000000000284,
          "durationTicks": 96,
          "midi": 62,
          "name": "D4",
          "ticks": 98784,
          "time": 77.175,
          "velocity": 0.7874015748031497
        },
        {
          "duration": 0.07500000000000284,
          "durationTicks": 96,
          "midi": 70,
          "name": "A#4",
          "ticks": 98880,
          "time": 77.25,
          "velocity": 0.7874015748031497
        },
        {
          "duration": 0.07499999999998863,
          "durationTicks": 96,
          "midi": 62,
          "name": "D4",
          "ticks": 98976,
          "time": 77.325,
          "velocity": 0.7874015748031497
        },
        {
          "duration": 0.07500000000000284,
          "durationTicks": 96,
          "midi": 70,
          "name": "A#4",
          "ticks": 99072,
          "time": 77.39999999999999,
          "velocity": 0.7874015748031497
        },
        {
          "duration": 0.07500000000000284,
          "durationTicks": 96,
          "midi": 62,
          "name": "D4",
          "ticks": 99168,
          "time": 77.475,
          "velocity": 0.7874015748031497
        },
        {
          "duration": 0.07500000000000284,
          "durationTicks": 96,
          "midi": 70,
          "name": "A#4",
          "ticks": 99264,
          "time": 77.55,
          "velocity": 0.7874015748031497
        },
        {
          "duration": 0.07500000000000284,
          "durationTicks": 96,
          "midi": 62,
          "name": "D4",
          "ticks": 99360,
          "time": 77.625,
          "velocity": 0.7874015748031497
        },
        {
          "duration": 0.07499999999998863,
          "durationTicks": 96,
          "midi": 70,
          "name": "A#4",
          "ticks": 99456,
          "time": 77.7,
          "velocity": 0.7874015748031497
        },
        {
          "duration": 0.07500000000000284,
          "durationTicks": 96,
          "midi": 62,
          "name": "D4",
          "ticks": 99552,
          "time": 77.77499999999999,
          "velocity": 0.7874015748031497
        },
        {
          "duration": 0.07500000000000284,
          "durationTicks": 96,
          "midi": 70,
          "name": "A#4",
          "ticks": 99648,
          "time": 77.85,
          "velocity": 0.7874015748031497
        },
        {
          "duration": 0.07500000000000284,
          "durationTicks": 96,
          "midi": 62,
          "name": "D4",
          "ticks": 99744,
          "time": 77.925,
          "velocity": 0.7874015748031497
        },
        {
          "duration": 0.07500000000000284,
          "durationTicks": 96,
          "midi": 63,
          "name": "D#4",
          "ticks": 99840,
          "time": 78,
          "velocity": 0.7874015748031497
        },
        {
          "duration": 0.07499999999998863,
          "durationTicks": 96,
          "midi": 67,
          "name": "G4",
          "ticks": 99936,
          "time": 78.075,
          "velocity": 0.7874015748031497
        },
        {
          "duration": 0.07500000000000284,
          "durationTicks": 96,
          "midi": 63,
          "name": "D#4",
          "ticks": 100032,
          "time": 78.14999999999999,
          "velocity": 0.7874015748031497
        },
        {
          "duration": 0.07500000000000284,
          "durationTicks": 96,
          "midi": 67,
          "name": "G4",
          "ticks": 100128,
          "time": 78.225,
          "velocity": 0.7874015748031497
        },
        {
          "duration": 0.07500000000000284,
          "durationTicks": 96,
          "midi": 63,
          "name": "D#4",
          "ticks": 100224,
          "time": 78.3,
          "velocity": 0.7874015748031497
        },
        {
          "duration": 0.07500000000000284,
          "durationTicks": 96,
          "midi": 67,
          "name": "G4",
          "ticks": 100320,
          "time": 78.375,
          "velocity": 0.7874015748031497
        },
        {
          "duration": 0.07499999999998863,
          "durationTicks": 96,
          "midi": 63,
          "name": "D#4",
          "ticks": 100416,
          "time": 78.45,
          "velocity": 0.7874015748031497
        },
        {
          "duration": 0.07500000000000284,
          "durationTicks": 96,
          "midi": 67,
          "name": "G4",
          "ticks": 100512,
          "time": 78.52499999999999,
          "velocity": 0.7874015748031497
        },
        {
          "duration": 0.07500000000000284,
          "durationTicks": 96,
          "midi": 63,
          "name": "D#4",
          "ticks": 100608,
          "time": 78.6,
          "velocity": 0.7874015748031497
        },
        {
          "duration": 0.07500000000000284,
          "durationTicks": 96,
          "midi": 67,
          "name": "G4",
          "ticks": 100704,
          "time": 78.675,
          "velocity": 0.7874015748031497
        },
        {
          "duration": 0.07500000000000284,
          "durationTicks": 96,
          "midi": 63,
          "name": "D#4",
          "ticks": 100800,
          "time": 78.75,
          "velocity": 0.7874015748031497
        },
        {
          "duration": 0.07499999999998863,
          "durationTicks": 96,
          "midi": 67,
          "name": "G4",
          "ticks": 100896,
          "time": 78.825,
          "velocity": 0.7874015748031497
        },
        {
          "duration": 0.07500000000000284,
          "durationTicks": 96,
          "midi": 63,
          "name": "D#4",
          "ticks": 100992,
          "time": 78.89999999999999,
          "velocity": 0.7874015748031497
        },
        {
          "duration": 0.07500000000000284,
          "durationTicks": 96,
          "midi": 67,
          "name": "G4",
          "ticks": 101088,
          "time": 78.975,
          "velocity": 0.7874015748031497
        },
        {
          "duration": 0.07500000000000284,
          "durationTicks": 96,
          "midi": 63,
          "name": "D#4",
          "ticks": 101184,
          "time": 79.05,
          "velocity": 0.7874015748031497
        },
        {
          "duration": 0.07500000000000284,
          "durationTicks": 96,
          "midi": 67,
          "name": "G4",
          "ticks": 101280,
          "time": 79.125,
          "velocity": 0.7874015748031497
        },
        {
          "duration": 0.07499999999998863,
          "durationTicks": 96,
          "midi": 65,
          "name": "F4",
          "ticks": 101376,
          "time": 79.2,
          "velocity": 0.7874015748031497
        },
        {
          "duration": 0.07500000000000284,
          "durationTicks": 96,
          "midi": 69,
          "name": "A4",
          "ticks": 101472,
          "time": 79.27499999999999,
          "velocity": 0.7874015748031497
        },
        {
          "duration": 0.07500000000000284,
          "durationTicks": 96,
          "midi": 65,
          "name": "F4",
          "ticks": 101568,
          "time": 79.35,
          "velocity": 0.7874015748031497
        },
        {
          "duration": 0.07500000000000284,
          "durationTicks": 96,
          "midi": 69,
          "name": "A4",
          "ticks": 101664,
          "time": 79.425,
          "velocity": 0.7874015748031497
        },
        {
          "duration": 0.07500000000000284,
          "durationTicks": 96,
          "midi": 65,
          "name": "F4",
          "ticks": 101760,
          "time": 79.5,
          "velocity": 0.7874015748031497
        },
        {
          "duration": 0.07499999999998863,
          "durationTicks": 96,
          "midi": 69,
          "name": "A4",
          "ticks": 101856,
          "time": 79.575,
          "velocity": 0.7874015748031497
        },
        {
          "duration": 0.07500000000000284,
          "durationTicks": 96,
          "midi": 65,
          "name": "F4",
          "ticks": 101952,
          "time": 79.64999999999999,
          "velocity": 0.7874015748031497
        },
        {
          "duration": 0.07500000000000284,
          "durationTicks": 96,
          "midi": 69,
          "name": "A4",
          "ticks": 102048,
          "time": 79.725,
          "velocity": 0.7874015748031497
        },
        {
          "duration": 0.07500000000000284,
          "durationTicks": 96,
          "midi": 65,
          "name": "F4",
          "ticks": 102144,
          "time": 79.8,
          "velocity": 0.7874015748031497
        },
        {
          "duration": 0.07500000000000284,
          "durationTicks": 96,
          "midi": 69,
          "name": "A4",
          "ticks": 102240,
          "time": 79.875,
          "velocity": 0.7874015748031497
        },
        {
          "duration": 0.07499999999998863,
          "durationTicks": 96,
          "midi": 65,
          "name": "F4",
          "ticks": 102336,
          "time": 79.95,
          "velocity": 0.7874015748031497
        },
        {
          "duration": 0.07500000000000284,
          "durationTicks": 96,
          "midi": 69,
          "name": "A4",
          "ticks": 102432,
          "time": 80.02499999999999,
          "velocity": 0.7874015748031497
        },
        {
          "duration": 0.07500000000000284,
          "durationTicks": 96,
          "midi": 65,
          "name": "F4",
          "ticks": 102528,
          "time": 80.1,
          "velocity": 0.7874015748031497
        },
        {
          "duration": 0.07500000000000284,
          "durationTicks": 96,
          "midi": 69,
          "name": "A4",
          "ticks": 102624,
          "time": 80.175,
          "velocity": 0.7874015748031497
        },
        {
          "duration": 0.07500000000000284,
          "durationTicks": 96,
          "midi": 65,
          "name": "F4",
          "ticks": 102720,
          "time": 80.25,
          "velocity": 0.7874015748031497
        },
        {
          "duration": 0.07499999999998863,
          "durationTicks": 96,
          "midi": 69,
          "name": "A4",
          "ticks": 102816,
          "time": 80.325,
          "velocity": 0.7874015748031497
        },
        {
          "duration": 0.07500000000000284,
          "durationTicks": 96,
          "midi": 70,
          "name": "A#4",
          "ticks": 102912,
          "time": 80.39999999999999,
          "velocity": 0.7874015748031497
        },
        {
          "duration": 0.07500000000000284,
          "durationTicks": 96,
          "midi": 62,
          "name": "D4",
          "ticks": 103008,
          "time": 80.475,
          "velocity": 0.7874015748031497
        },
        {
          "duration": 0.07500000000000284,
          "durationTicks": 96,
          "midi": 70,
          "name": "A#4",
          "ticks": 103104,
          "time": 80.55,
          "velocity": 0.7874015748031497
        },
        {
          "duration": 0.07500000000000284,
          "durationTicks": 96,
          "midi": 62,
          "name": "D4",
          "ticks": 103200,
          "time": 80.625,
          "velocity": 0.7874015748031497
        },
        {
          "duration": 0.07499999999998863,
          "durationTicks": 96,
          "midi": 70,
          "name": "A#4",
          "ticks": 103296,
          "time": 80.7,
          "velocity": 0.7874015748031497
        },
        {
          "duration": 0.07500000000000284,
          "durationTicks": 96,
          "midi": 62,
          "name": "D4",
          "ticks": 103392,
          "time": 80.77499999999999,
          "velocity": 0.7874015748031497
        },
        {
          "duration": 0.07500000000000284,
          "durationTicks": 96,
          "midi": 70,
          "name": "A#4",
          "ticks": 103488,
          "time": 80.85,
          "velocity": 0.7874015748031497
        },
        {
          "duration": 0.07500000000000284,
          "durationTicks": 96,
          "midi": 62,
          "name": "D4",
          "ticks": 103584,
          "time": 80.925,
          "velocity": 0.7874015748031497
        },
        {
          "duration": 0.07500000000000284,
          "durationTicks": 96,
          "midi": 70,
          "name": "A#4",
          "ticks": 103680,
          "time": 81,
          "velocity": 0.7874015748031497
        },
        {
          "duration": 0.07499999999998863,
          "durationTicks": 96,
          "midi": 62,
          "name": "D4",
          "ticks": 103776,
          "time": 81.075,
          "velocity": 0.7874015748031497
        },
        {
          "duration": 0.07500000000000284,
          "durationTicks": 96,
          "midi": 70,
          "name": "A#4",
          "ticks": 103872,
          "time": 81.14999999999999,
          "velocity": 0.7874015748031497
        },
        {
          "duration": 0.07500000000000284,
          "durationTicks": 96,
          "midi": 62,
          "name": "D4",
          "ticks": 103968,
          "time": 81.225,
          "velocity": 0.7874015748031497
        },
        {
          "duration": 0.07500000000000284,
          "durationTicks": 96,
          "midi": 70,
          "name": "A#4",
          "ticks": 104064,
          "time": 81.3,
          "velocity": 0.7874015748031497
        },
        {
          "duration": 0.07500000000000284,
          "durationTicks": 96,
          "midi": 62,
          "name": "D4",
          "ticks": 104160,
          "time": 81.375,
          "velocity": 0.7874015748031497
        },
        {
          "duration": 0.07499999999998863,
          "durationTicks": 96,
          "midi": 70,
          "name": "A#4",
          "ticks": 104256,
          "time": 81.45,
          "velocity": 0.7874015748031497
        },
        {
          "duration": 0.07500000000000284,
          "durationTicks": 96,
          "midi": 62,
          "name": "D4",
          "ticks": 104352,
          "time": 81.52499999999999,
          "velocity": 0.7874015748031497
        },
        {
          "duration": 0.07500000000000284,
          "durationTicks": 96,
          "midi": 68,
          "name": "G#4",
          "ticks": 104448,
          "time": 81.6,
          "velocity": 0.7874015748031497
        },
        {
          "duration": 0.07500000000000284,
          "durationTicks": 96,
          "midi": 62,
          "name": "D4",
          "ticks": 104544,
          "time": 81.675,
          "velocity": 0.7874015748031497
        },
        {
          "duration": 0.07500000000000284,
          "durationTicks": 96,
          "midi": 68,
          "name": "G#4",
          "ticks": 104640,
          "time": 81.75,
          "velocity": 0.7874015748031497
        },
        {
          "duration": 0.07499999999998863,
          "durationTicks": 96,
          "midi": 62,
          "name": "D4",
          "ticks": 104736,
          "time": 81.825,
          "velocity": 0.7874015748031497
        },
        {
          "duration": 0.07500000000000284,
          "durationTicks": 96,
          "midi": 68,
          "name": "G#4",
          "ticks": 104832,
          "time": 81.89999999999999,
          "velocity": 0.7874015748031497
        },
        {
          "duration": 0.07500000000000284,
          "durationTicks": 96,
          "midi": 62,
          "name": "D4",
          "ticks": 104928,
          "time": 81.975,
          "velocity": 0.7874015748031497
        },
        {
          "duration": 0.07500000000000284,
          "durationTicks": 96,
          "midi": 68,
          "name": "G#4",
          "ticks": 105024,
          "time": 82.05,
          "velocity": 0.7874015748031497
        },
        {
          "duration": 0.07500000000000284,
          "durationTicks": 96,
          "midi": 62,
          "name": "D4",
          "ticks": 105120,
          "time": 82.125,
          "velocity": 0.7874015748031497
        },
        {
          "duration": 0.07499999999998863,
          "durationTicks": 96,
          "midi": 68,
          "name": "G#4",
          "ticks": 105216,
          "time": 82.2,
          "velocity": 0.7874015748031497
        },
        {
          "duration": 0.07500000000000284,
          "durationTicks": 96,
          "midi": 62,
          "name": "D4",
          "ticks": 105312,
          "time": 82.27499999999999,
          "velocity": 0.7874015748031497
        },
        {
          "duration": 0.07500000000000284,
          "durationTicks": 96,
          "midi": 68,
          "name": "G#4",
          "ticks": 105408,
          "time": 82.35,
          "velocity": 0.7874015748031497
        },
        {
          "duration": 0.07500000000000284,
          "durationTicks": 96,
          "midi": 62,
          "name": "D4",
          "ticks": 105504,
          "time": 82.425,
          "velocity": 0.7874015748031497
        },
        {
          "duration": 0.07500000000000284,
          "durationTicks": 96,
          "midi": 68,
          "name": "G#4",
          "ticks": 105600,
          "time": 82.5,
          "velocity": 0.7874015748031497
        },
        {
          "duration": 0.07499999999998863,
          "durationTicks": 96,
          "midi": 62,
          "name": "D4",
          "ticks": 105696,
          "time": 82.575,
          "velocity": 0.7874015748031497
        },
        {
          "duration": 0.07500000000000284,
          "durationTicks": 96,
          "midi": 68,
          "name": "G#4",
          "ticks": 105792,
          "time": 82.64999999999999,
          "velocity": 0.7874015748031497
        },
        {
          "duration": 0.07500000000000284,
          "durationTicks": 96,
          "midi": 62,
          "name": "D4",
          "ticks": 105888,
          "time": 82.725,
          "velocity": 0.7874015748031497
        },
        {
          "duration": 0.07500000000000284,
          "durationTicks": 96,
          "midi": 67,
          "name": "G4",
          "ticks": 105984,
          "time": 82.8,
          "velocity": 0.7874015748031497
        },
        {
          "duration": 0.07500000000000284,
          "durationTicks": 96,
          "midi": 63,
          "name": "D#4",
          "ticks": 106080,
          "time": 82.875,
          "velocity": 0.7874015748031497
        },
        {
          "duration": 0.07499999999998863,
          "durationTicks": 96,
          "midi": 67,
          "name": "G4",
          "ticks": 106176,
          "time": 82.95,
          "velocity": 0.7874015748031497
        },
        {
          "duration": 0.07500000000000284,
          "durationTicks": 96,
          "midi": 63,
          "name": "D#4",
          "ticks": 106272,
          "time": 83.02499999999999,
          "velocity": 0.7874015748031497
        },
        {
          "duration": 0.07500000000000284,
          "durationTicks": 96,
          "midi": 67,
          "name": "G4",
          "ticks": 106368,
          "time": 83.1,
          "velocity": 0.7874015748031497
        },
        {
          "duration": 0.07500000000000284,
          "durationTicks": 96,
          "midi": 63,
          "name": "D#4",
          "ticks": 106464,
          "time": 83.175,
          "velocity": 0.7874015748031497
        },
        {
          "duration": 0.07500000000000284,
          "durationTicks": 96,
          "midi": 67,
          "name": "G4",
          "ticks": 106560,
          "time": 83.25,
          "velocity": 0.7874015748031497
        },
        {
          "duration": 0.07499999999998863,
          "durationTicks": 96,
          "midi": 63,
          "name": "D#4",
          "ticks": 106656,
          "time": 83.325,
          "velocity": 0.7874015748031497
        },
        {
          "duration": 0.07500000000000284,
          "durationTicks": 96,
          "midi": 67,
          "name": "G4",
          "ticks": 106752,
          "time": 83.39999999999999,
          "velocity": 0.7874015748031497
        },
        {
          "duration": 0.07500000000000284,
          "durationTicks": 96,
          "midi": 63,
          "name": "D#4",
          "ticks": 106848,
          "time": 83.475,
          "velocity": 0.7874015748031497
        },
        {
          "duration": 0.07500000000000284,
          "durationTicks": 96,
          "midi": 67,
          "name": "G4",
          "ticks": 106944,
          "time": 83.55,
          "velocity": 0.7874015748031497
        },
        {
          "duration": 0.07500000000000284,
          "durationTicks": 96,
          "midi": 63,
          "name": "D#4",
          "ticks": 107040,
          "time": 83.625,
          "velocity": 0.7874015748031497
        },
        {
          "duration": 0.07499999999998863,
          "durationTicks": 96,
          "midi": 67,
          "name": "G4",
          "ticks": 107136,
          "time": 83.7,
          "velocity": 0.7874015748031497
        },
        {
          "duration": 0.07500000000000284,
          "durationTicks": 96,
          "midi": 63,
          "name": "D#4",
          "ticks": 107232,
          "time": 83.77499999999999,
          "velocity": 0.7874015748031497
        },
        {
          "duration": 0.07500000000000284,
          "durationTicks": 96,
          "midi": 67,
          "name": "G4",
          "ticks": 107328,
          "time": 83.85,
          "velocity": 0.7874015748031497
        },
        {
          "duration": 0.07500000000000284,
          "durationTicks": 96,
          "midi": 63,
          "name": "D#4",
          "ticks": 107424,
          "time": 83.925,
          "velocity": 0.7874015748031497
        },
        {
          "duration": 0.07500000000000284,
          "durationTicks": 96,
          "midi": 69,
          "name": "A4",
          "ticks": 107520,
          "time": 84,
          "velocity": 0.7874015748031497
        },
        {
          "duration": 0.07499999999998863,
          "durationTicks": 96,
          "midi": 65,
          "name": "F4",
          "ticks": 107616,
          "time": 84.075,
          "velocity": 0.7874015748031497
        },
        {
          "duration": 0.07500000000000284,
          "durationTicks": 96,
          "midi": 69,
          "name": "A4",
          "ticks": 107712,
          "time": 84.14999999999999,
          "velocity": 0.7874015748031497
        },
        {
          "duration": 0.07500000000000284,
          "durationTicks": 96,
          "midi": 65,
          "name": "F4",
          "ticks": 107808,
          "time": 84.225,
          "velocity": 0.7874015748031497
        },
        {
          "duration": 0.07500000000000284,
          "durationTicks": 96,
          "midi": 69,
          "name": "A4",
          "ticks": 107904,
          "time": 84.3,
          "velocity": 0.7874015748031497
        },
        {
          "duration": 0.07500000000000284,
          "durationTicks": 96,
          "midi": 65,
          "name": "F4",
          "ticks": 108000,
          "time": 84.375,
          "velocity": 0.7874015748031497
        },
        {
          "duration": 0.07499999999998863,
          "durationTicks": 96,
          "midi": 69,
          "name": "A4",
          "ticks": 108096,
          "time": 84.45,
          "velocity": 0.7874015748031497
        },
        {
          "duration": 0.07500000000000284,
          "durationTicks": 96,
          "midi": 65,
          "name": "F4",
          "ticks": 108192,
          "time": 84.52499999999999,
          "velocity": 0.7874015748031497
        },
        {
          "duration": 0.07500000000000284,
          "durationTicks": 96,
          "midi": 69,
          "name": "A4",
          "ticks": 108288,
          "time": 84.6,
          "velocity": 0.7874015748031497
        },
        {
          "duration": 0.07500000000000284,
          "durationTicks": 96,
          "midi": 65,
          "name": "F4",
          "ticks": 108384,
          "time": 84.675,
          "velocity": 0.7874015748031497
        },
        {
          "duration": 0.07500000000000284,
          "durationTicks": 96,
          "midi": 69,
          "name": "A4",
          "ticks": 108480,
          "time": 84.75,
          "velocity": 0.7874015748031497
        },
        {
          "duration": 0.07499999999998863,
          "durationTicks": 96,
          "midi": 65,
          "name": "F4",
          "ticks": 108576,
          "time": 84.825,
          "velocity": 0.7874015748031497
        },
        {
          "duration": 0.07500000000000284,
          "durationTicks": 96,
          "midi": 69,
          "name": "A4",
          "ticks": 108672,
          "time": 84.89999999999999,
          "velocity": 0.7874015748031497
        },
        {
          "duration": 0.07500000000000284,
          "durationTicks": 96,
          "midi": 65,
          "name": "F4",
          "ticks": 108768,
          "time": 84.975,
          "velocity": 0.7874015748031497
        },
        {
          "duration": 0.07500000000000284,
          "durationTicks": 96,
          "midi": 69,
          "name": "A4",
          "ticks": 108864,
          "time": 85.05,
          "velocity": 0.7874015748031497
        },
        {
          "duration": 0.07500000000000284,
          "durationTicks": 96,
          "midi": 65,
          "name": "F4",
          "ticks": 108960,
          "time": 85.125,
          "velocity": 0.7874015748031497
        },
        {
          "duration": 0.07499999999998863,
          "durationTicks": 96,
          "midi": 70,
          "name": "A#4",
          "ticks": 109056,
          "time": 85.2,
          "velocity": 0.7874015748031497
        },
        {
          "duration": 0.07500000000000284,
          "durationTicks": 96,
          "midi": 67,
          "name": "G4",
          "ticks": 109152,
          "time": 85.27499999999999,
          "velocity": 0.7874015748031497
        },
        {
          "duration": 0.07500000000000284,
          "durationTicks": 96,
          "midi": 70,
          "name": "A#4",
          "ticks": 109248,
          "time": 85.35,
          "velocity": 0.7874015748031497
        },
        {
          "duration": 0.07500000000000284,
          "durationTicks": 96,
          "midi": 67,
          "name": "G4",
          "ticks": 109344,
          "time": 85.425,
          "velocity": 0.7874015748031497
        },
        {
          "duration": 0.07500000000000284,
          "durationTicks": 96,
          "midi": 70,
          "name": "A#4",
          "ticks": 109440,
          "time": 85.5,
          "velocity": 0.7874015748031497
        },
        {
          "duration": 0.07499999999998863,
          "durationTicks": 96,
          "midi": 67,
          "name": "G4",
          "ticks": 109536,
          "time": 85.575,
          "velocity": 0.7874015748031497
        },
        {
          "duration": 0.07500000000000284,
          "durationTicks": 96,
          "midi": 70,
          "name": "A#4",
          "ticks": 109632,
          "time": 85.64999999999999,
          "velocity": 0.7874015748031497
        },
        {
          "duration": 0.07500000000000284,
          "durationTicks": 96,
          "midi": 67,
          "name": "G4",
          "ticks": 109728,
          "time": 85.725,
          "velocity": 0.7874015748031497
        },
        {
          "duration": 0.07500000000000284,
          "durationTicks": 96,
          "midi": 70,
          "name": "A#4",
          "ticks": 109824,
          "time": 85.8,
          "velocity": 0.7874015748031497
        },
        {
          "duration": 0.07500000000000284,
          "durationTicks": 96,
          "midi": 67,
          "name": "G4",
          "ticks": 109920,
          "time": 85.875,
          "velocity": 0.7874015748031497
        },
        {
          "duration": 0.07499999999998863,
          "durationTicks": 96,
          "midi": 70,
          "name": "A#4",
          "ticks": 110016,
          "time": 85.95,
          "velocity": 0.7874015748031497
        },
        {
          "duration": 0.07500000000000284,
          "durationTicks": 96,
          "midi": 67,
          "name": "G4",
          "ticks": 110112,
          "time": 86.02499999999999,
          "velocity": 0.7874015748031497
        },
        {
          "duration": 0.07500000000000284,
          "durationTicks": 96,
          "midi": 70,
          "name": "A#4",
          "ticks": 110208,
          "time": 86.1,
          "velocity": 0.7874015748031497
        },
        {
          "duration": 0.07500000000000284,
          "durationTicks": 96,
          "midi": 67,
          "name": "G4",
          "ticks": 110304,
          "time": 86.175,
          "velocity": 0.7874015748031497
        },
        {
          "duration": 0.07500000000000284,
          "durationTicks": 96,
          "midi": 70,
          "name": "A#4",
          "ticks": 110400,
          "time": 86.25,
          "velocity": 0.7874015748031497
        },
        {
          "duration": 0.07499999999998863,
          "durationTicks": 96,
          "midi": 67,
          "name": "G4",
          "ticks": 110496,
          "time": 86.325,
          "velocity": 0.7874015748031497
        },
        {
          "duration": 0.07500000000000284,
          "durationTicks": 96,
          "midi": 72,
          "name": "C5",
          "ticks": 110592,
          "time": 86.39999999999999,
          "velocity": 0.7874015748031497
        },
        {
          "duration": 0.07500000000000284,
          "durationTicks": 96,
          "midi": 64,
          "name": "E4",
          "ticks": 110688,
          "time": 86.475,
          "velocity": 0.7874015748031497
        },
        {
          "duration": 0.07500000000000284,
          "durationTicks": 96,
          "midi": 72,
          "name": "C5",
          "ticks": 110784,
          "time": 86.55,
          "velocity": 0.7874015748031497
        },
        {
          "duration": 0.07500000000000284,
          "durationTicks": 96,
          "midi": 64,
          "name": "E4",
          "ticks": 110880,
          "time": 86.625,
          "velocity": 0.7874015748031497
        },
        {
          "duration": 0.07499999999998863,
          "durationTicks": 96,
          "midi": 72,
          "name": "C5",
          "ticks": 110976,
          "time": 86.7,
          "velocity": 0.7874015748031497
        },
        {
          "duration": 0.07500000000000284,
          "durationTicks": 96,
          "midi": 64,
          "name": "E4",
          "ticks": 111072,
          "time": 86.77499999999999,
          "velocity": 0.7874015748031497
        },
        {
          "duration": 0.07500000000000284,
          "durationTicks": 96,
          "midi": 72,
          "name": "C5",
          "ticks": 111168,
          "time": 86.85,
          "velocity": 0.7874015748031497
        },
        {
          "duration": 0.07500000000000284,
          "durationTicks": 96,
          "midi": 64,
          "name": "E4",
          "ticks": 111264,
          "time": 86.925,
          "velocity": 0.7874015748031497
        },
        {
          "duration": 0.07500000000000284,
          "durationTicks": 96,
          "midi": 70,
          "name": "A#4",
          "ticks": 111360,
          "time": 87,
          "velocity": 0.7874015748031497
        },
        {
          "duration": 0.07499999999998863,
          "durationTicks": 96,
          "midi": 64,
          "name": "E4",
          "ticks": 111456,
          "time": 87.075,
          "velocity": 0.7874015748031497
        },
        {
          "duration": 0.07500000000000284,
          "durationTicks": 96,
          "midi": 70,
          "name": "A#4",
          "ticks": 111552,
          "time": 87.14999999999999,
          "velocity": 0.7874015748031497
        },
        {
          "duration": 0.07500000000000284,
          "durationTicks": 96,
          "midi": 64,
          "name": "E4",
          "ticks": 111648,
          "time": 87.225,
          "velocity": 0.7874015748031497
        },
        {
          "duration": 0.07500000000000284,
          "durationTicks": 96,
          "midi": 70,
          "name": "A#4",
          "ticks": 111744,
          "time": 87.3,
          "velocity": 0.7874015748031497
        },
        {
          "duration": 0.07500000000000284,
          "durationTicks": 96,
          "midi": 64,
          "name": "E4",
          "ticks": 111840,
          "time": 87.375,
          "velocity": 0.7874015748031497
        },
        {
          "duration": 0.07499999999998863,
          "durationTicks": 96,
          "midi": 70,
          "name": "A#4",
          "ticks": 111936,
          "time": 87.45,
          "velocity": 0.7874015748031497
        },
        {
          "duration": 0.07500000000000284,
          "durationTicks": 96,
          "midi": 64,
          "name": "E4",
          "ticks": 112032,
          "time": 87.52499999999999,
          "velocity": 0.7874015748031497
        },
        {
          "duration": 0.07500000000000284,
          "durationTicks": 96,
          "midi": 70,
          "name": "A#4",
          "ticks": 112128,
          "time": 87.6,
          "velocity": 0.7874015748031497
        },
        {
          "duration": 0.07500000000000284,
          "durationTicks": 96,
          "midi": 63,
          "name": "D#4",
          "ticks": 112224,
          "time": 87.675,
          "velocity": 0.7874015748031497
        },
        {
          "duration": 0.07500000000000284,
          "durationTicks": 96,
          "midi": 70,
          "name": "A#4",
          "ticks": 112320,
          "time": 87.75,
          "velocity": 0.7874015748031497
        },
        {
          "duration": 0.07499999999998863,
          "durationTicks": 96,
          "midi": 63,
          "name": "D#4",
          "ticks": 112416,
          "time": 87.825,
          "velocity": 0.7874015748031497
        },
        {
          "duration": 0.07500000000000284,
          "durationTicks": 96,
          "midi": 70,
          "name": "A#4",
          "ticks": 112512,
          "time": 87.89999999999999,
          "velocity": 0.7874015748031497
        },
        {
          "duration": 0.07500000000000284,
          "durationTicks": 96,
          "midi": 63,
          "name": "D#4",
          "ticks": 112608,
          "time": 87.975,
          "velocity": 0.7874015748031497
        },
        {
          "duration": 0.07500000000000284,
          "durationTicks": 96,
          "midi": 70,
          "name": "A#4",
          "ticks": 112704,
          "time": 88.05,
          "velocity": 0.7874015748031497
        },
        {
          "duration": 0.07500000000000284,
          "durationTicks": 96,
          "midi": 63,
          "name": "D#4",
          "ticks": 112800,
          "time": 88.125,
          "velocity": 0.7874015748031497
        },
        {
          "duration": 0.07499999999998863,
          "durationTicks": 96,
          "midi": 67,
          "name": "G4",
          "ticks": 112896,
          "time": 88.2,
          "velocity": 0.7874015748031497
        },
        {
          "duration": 0.07500000000000284,
          "durationTicks": 96,
          "midi": 63,
          "name": "D#4",
          "ticks": 112992,
          "time": 88.27499999999999,
          "velocity": 0.7874015748031497
        },
        {
          "duration": 0.07500000000000284,
          "durationTicks": 96,
          "midi": 67,
          "name": "G4",
          "ticks": 113088,
          "time": 88.35,
          "velocity": 0.7874015748031497
        },
        {
          "duration": 0.07500000000000284,
          "durationTicks": 96,
          "midi": 63,
          "name": "D#4",
          "ticks": 113184,
          "time": 88.425,
          "velocity": 0.7874015748031497
        },
        {
          "duration": 0.07500000000000284,
          "durationTicks": 96,
          "midi": 67,
          "name": "G4",
          "ticks": 113280,
          "time": 88.5,
          "velocity": 0.7874015748031497
        },
        {
          "duration": 0.07499999999998863,
          "durationTicks": 96,
          "midi": 63,
          "name": "D#4",
          "ticks": 113376,
          "time": 88.575,
          "velocity": 0.7874015748031497
        },
        {
          "duration": 0.07500000000000284,
          "durationTicks": 96,
          "midi": 67,
          "name": "G4",
          "ticks": 113472,
          "time": 88.64999999999999,
          "velocity": 0.7874015748031497
        },
        {
          "duration": 0.07500000000000284,
          "durationTicks": 96,
          "midi": 63,
          "name": "D#4",
          "ticks": 113568,
          "time": 88.725,
          "velocity": 0.7874015748031497
        },
        {
          "duration": 0.07500000000000284,
          "durationTicks": 96,
          "midi": 69,
          "name": "A4",
          "ticks": 113664,
          "time": 88.8,
          "velocity": 0.7874015748031497
        },
        {
          "duration": 0.07500000000000284,
          "durationTicks": 96,
          "midi": 65,
          "name": "F4",
          "ticks": 113760,
          "time": 88.875,
          "velocity": 0.7874015748031497
        },
        {
          "duration": 0.07499999999998863,
          "durationTicks": 96,
          "midi": 69,
          "name": "A4",
          "ticks": 113856,
          "time": 88.95,
          "velocity": 0.7874015748031497
        },
        {
          "duration": 0.07500000000000284,
          "durationTicks": 96,
          "midi": 65,
          "name": "F4",
          "ticks": 113952,
          "time": 89.02499999999999,
          "velocity": 0.7874015748031497
        },
        {
          "duration": 0.07500000000000284,
          "durationTicks": 96,
          "midi": 69,
          "name": "A4",
          "ticks": 114048,
          "time": 89.1,
          "velocity": 0.7874015748031497
        },
        {
          "duration": 0.07500000000000284,
          "durationTicks": 96,
          "midi": 65,
          "name": "F4",
          "ticks": 114144,
          "time": 89.175,
          "velocity": 0.7874015748031497
        },
        {
          "duration": 0.07500000000000284,
          "durationTicks": 96,
          "midi": 69,
          "name": "A4",
          "ticks": 114240,
          "time": 89.25,
          "velocity": 0.7874015748031497
        },
        {
          "duration": 0.07499999999998863,
          "durationTicks": 96,
          "midi": 65,
          "name": "F4",
          "ticks": 114336,
          "time": 89.325,
          "velocity": 0.7874015748031497
        },
        {
          "duration": 0.07500000000000284,
          "durationTicks": 96,
          "midi": 72,
          "name": "C5",
          "ticks": 114432,
          "time": 89.39999999999999,
          "velocity": 0.7874015748031497
        },
        {
          "duration": 0.07500000000000284,
          "durationTicks": 96,
          "midi": 69,
          "name": "A4",
          "ticks": 114528,
          "time": 89.475,
          "velocity": 0.7874015748031497
        },
        {
          "duration": 0.07500000000000284,
          "durationTicks": 96,
          "midi": 72,
          "name": "C5",
          "ticks": 114624,
          "time": 89.55,
          "velocity": 0.7874015748031497
        },
        {
          "duration": 0.07500000000000284,
          "durationTicks": 96,
          "midi": 69,
          "name": "A4",
          "ticks": 114720,
          "time": 89.625,
          "velocity": 0.7874015748031497
        },
        {
          "duration": 0.07499999999998863,
          "durationTicks": 96,
          "midi": 72,
          "name": "C5",
          "ticks": 114816,
          "time": 89.7,
          "velocity": 0.7874015748031497
        },
        {
          "duration": 0.07500000000000284,
          "durationTicks": 96,
          "midi": 69,
          "name": "A4",
          "ticks": 114912,
          "time": 89.77499999999999,
          "velocity": 0.7874015748031497
        },
        {
          "duration": 0.07500000000000284,
          "durationTicks": 96,
          "midi": 72,
          "name": "C5",
          "ticks": 115008,
          "time": 89.85,
          "velocity": 0.7874015748031497
        },
        {
          "duration": 0.07500000000000284,
          "durationTicks": 96,
          "midi": 69,
          "name": "A4",
          "ticks": 115104,
          "time": 89.925,
          "velocity": 0.7874015748031497
        },
        {
          "duration": 0.07500000000000284,
          "durationTicks": 96,
          "midi": 75,
          "name": "D#5",
          "ticks": 115200,
          "time": 90,
          "velocity": 0.7874015748031497
        },
        {
          "duration": 0.07499999999998863,
          "durationTicks": 96,
          "midi": 67,
          "name": "G4",
          "ticks": 115296,
          "time": 90.075,
          "velocity": 0.7874015748031497
        },
        {
          "duration": 0.07500000000000284,
          "durationTicks": 96,
          "midi": 75,
          "name": "D#5",
          "ticks": 115392,
          "time": 90.14999999999999,
          "velocity": 0.7874015748031497
        },
        {
          "duration": 0.07500000000000284,
          "durationTicks": 96,
          "midi": 67,
          "name": "G4",
          "ticks": 115488,
          "time": 90.225,
          "velocity": 0.7874015748031497
        },
        {
          "duration": 0.07500000000000284,
          "durationTicks": 96,
          "midi": 75,
          "name": "D#5",
          "ticks": 115584,
          "time": 90.3,
          "velocity": 0.7874015748031497
        },
        {
          "duration": 0.07500000000000284,
          "durationTicks": 96,
          "midi": 67,
          "name": "G4",
          "ticks": 115680,
          "time": 90.375,
          "velocity": 0.7874015748031497
        },
        {
          "duration": 0.07499999999998863,
          "durationTicks": 96,
          "midi": 75,
          "name": "D#5",
          "ticks": 115776,
          "time": 90.45,
          "velocity": 0.7874015748031497
        },
        {
          "duration": 0.07500000000000284,
          "durationTicks": 96,
          "midi": 67,
          "name": "G4",
          "ticks": 115872,
          "time": 90.52499999999999,
          "velocity": 0.7874015748031497
        },
        {
          "duration": 0.07500000000000284,
          "durationTicks": 96,
          "midi": 75,
          "name": "D#5",
          "ticks": 115968,
          "time": 90.6,
          "velocity": 0.7874015748031497
        },
        {
          "duration": 0.07500000000000284,
          "durationTicks": 96,
          "midi": 67,
          "name": "G4",
          "ticks": 116064,
          "time": 90.675,
          "velocity": 0.7874015748031497
        },
        {
          "duration": 0.07500000000000284,
          "durationTicks": 96,
          "midi": 75,
          "name": "D#5",
          "ticks": 116160,
          "time": 90.75,
          "velocity": 0.7874015748031497
        },
        {
          "duration": 0.07499999999998863,
          "durationTicks": 96,
          "midi": 67,
          "name": "G4",
          "ticks": 116256,
          "time": 90.825,
          "velocity": 0.7874015748031497
        },
        {
          "duration": 0.07500000000000284,
          "durationTicks": 96,
          "midi": 75,
          "name": "D#5",
          "ticks": 116352,
          "time": 90.89999999999999,
          "velocity": 0.7874015748031497
        },
        {
          "duration": 0.07500000000000284,
          "durationTicks": 96,
          "midi": 67,
          "name": "G4",
          "ticks": 116448,
          "time": 90.975,
          "velocity": 0.7874015748031497
        },
        {
          "duration": 0.07500000000000284,
          "durationTicks": 96,
          "midi": 75,
          "name": "D#5",
          "ticks": 116544,
          "time": 91.05,
          "velocity": 0.7874015748031497
        },
        {
          "duration": 0.07500000000000284,
          "durationTicks": 96,
          "midi": 67,
          "name": "G4",
          "ticks": 116640,
          "time": 91.125,
          "velocity": 0.7874015748031497
        },
        {
          "duration": 0.07499999999998863,
          "durationTicks": 96,
          "midi": 74,
          "name": "D5",
          "ticks": 116736,
          "time": 91.2,
          "velocity": 0.7874015748031497
        },
        {
          "duration": 0.07500000000000284,
          "durationTicks": 96,
          "midi": 65,
          "name": "F4",
          "ticks": 116832,
          "time": 91.27499999999999,
          "velocity": 0.7874015748031497
        },
        {
          "duration": 0.07500000000000284,
          "durationTicks": 96,
          "midi": 74,
          "name": "D5",
          "ticks": 116928,
          "time": 91.35,
          "velocity": 0.7874015748031497
        },
        {
          "duration": 0.07500000000000284,
          "durationTicks": 96,
          "midi": 65,
          "name": "F4",
          "ticks": 117024,
          "time": 91.425,
          "velocity": 0.7874015748031497
        },
        {
          "duration": 0.07500000000000284,
          "durationTicks": 96,
          "midi": 74,
          "name": "D5",
          "ticks": 117120,
          "time": 91.5,
          "velocity": 0.7874015748031497
        },
        {
          "duration": 0.07499999999998863,
          "durationTicks": 96,
          "midi": 65,
          "name": "F4",
          "ticks": 117216,
          "time": 91.575,
          "velocity": 0.7874015748031497
        },
        {
          "duration": 0.07500000000000284,
          "durationTicks": 96,
          "midi": 74,
          "name": "D5",
          "ticks": 117312,
          "time": 91.64999999999999,
          "velocity": 0.7874015748031497
        },
        {
          "duration": 0.07500000000000284,
          "durationTicks": 96,
          "midi": 65,
          "name": "F4",
          "ticks": 117408,
          "time": 91.725,
          "velocity": 0.7874015748031497
        },
        {
          "duration": 0.07500000000000284,
          "durationTicks": 96,
          "midi": 74,
          "name": "D5",
          "ticks": 117504,
          "time": 91.8,
          "velocity": 0.7874015748031497
        },
        {
          "duration": 0.07500000000000284,
          "durationTicks": 96,
          "midi": 65,
          "name": "F4",
          "ticks": 117600,
          "time": 91.875,
          "velocity": 0.7874015748031497
        },
        {
          "duration": 0.07499999999998863,
          "durationTicks": 96,
          "midi": 74,
          "name": "D5",
          "ticks": 117696,
          "time": 91.95,
          "velocity": 0.7874015748031497
        },
        {
          "duration": 0.07500000000000284,
          "durationTicks": 96,
          "midi": 65,
          "name": "F4",
          "ticks": 117792,
          "time": 92.02499999999999,
          "velocity": 0.7874015748031497
        },
        {
          "duration": 0.07500000000000284,
          "durationTicks": 96,
          "midi": 74,
          "name": "D5",
          "ticks": 117888,
          "time": 92.1,
          "velocity": 0.7874015748031497
        },
        {
          "duration": 0.07500000000000284,
          "durationTicks": 96,
          "midi": 65,
          "name": "F4",
          "ticks": 117984,
          "time": 92.175,
          "velocity": 0.7874015748031497
        },
        {
          "duration": 0.07500000000000284,
          "durationTicks": 96,
          "midi": 74,
          "name": "D5",
          "ticks": 118080,
          "time": 92.25,
          "velocity": 0.7874015748031497
        },
        {
          "duration": 0.07499999999998863,
          "durationTicks": 96,
          "midi": 65,
          "name": "F4",
          "ticks": 118176,
          "time": 92.325,
          "velocity": 0.7874015748031497
        },
        {
          "duration": 0.07500000000000284,
          "durationTicks": 96,
          "midi": 77,
          "name": "F5",
          "ticks": 118272,
          "time": 92.39999999999999,
          "velocity": 0.7874015748031497
        },
        {
          "duration": 0.07500000000000284,
          "durationTicks": 96,
          "midi": 69,
          "name": "A4",
          "ticks": 118368,
          "time": 92.475,
          "velocity": 0.7874015748031497
        },
        {
          "duration": 0.07500000000000284,
          "durationTicks": 96,
          "midi": 77,
          "name": "F5",
          "ticks": 118464,
          "time": 92.55,
          "velocity": 0.7874015748031497
        },
        {
          "duration": 0.07500000000000284,
          "durationTicks": 96,
          "midi": 69,
          "name": "A4",
          "ticks": 118560,
          "time": 92.625,
          "velocity": 0.7874015748031497
        },
        {
          "duration": 0.07499999999998863,
          "durationTicks": 96,
          "midi": 77,
          "name": "F5",
          "ticks": 118656,
          "time": 92.7,
          "velocity": 0.7874015748031497
        },
        {
          "duration": 0.07500000000000284,
          "durationTicks": 96,
          "midi": 69,
          "name": "A4",
          "ticks": 118752,
          "time": 92.77499999999999,
          "velocity": 0.7874015748031497
        },
        {
          "duration": 0.07500000000000284,
          "durationTicks": 96,
          "midi": 77,
          "name": "F5",
          "ticks": 118848,
          "time": 92.85,
          "velocity": 0.7874015748031497
        },
        {
          "duration": 0.07500000000000284,
          "durationTicks": 96,
          "midi": 69,
          "name": "A4",
          "ticks": 118944,
          "time": 92.925,
          "velocity": 0.7874015748031497
        },
        {
          "duration": 0.07500000000000284,
          "durationTicks": 96,
          "midi": 77,
          "name": "F5",
          "ticks": 119040,
          "time": 93,
          "velocity": 0.7874015748031497
        },
        {
          "duration": 0.07499999999998863,
          "durationTicks": 96,
          "midi": 69,
          "name": "A4",
          "ticks": 119136,
          "time": 93.075,
          "velocity": 0.7874015748031497
        },
        {
          "duration": 0.07500000000000284,
          "durationTicks": 96,
          "midi": 77,
          "name": "F5",
          "ticks": 119232,
          "time": 93.14999999999999,
          "velocity": 0.7874015748031497
        },
        {
          "duration": 0.07500000000000284,
          "durationTicks": 96,
          "midi": 69,
          "name": "A4",
          "ticks": 119328,
          "time": 93.225,
          "velocity": 0.7874015748031497
        },
        {
          "duration": 0.07500000000000284,
          "durationTicks": 96,
          "midi": 77,
          "name": "F5",
          "ticks": 119424,
          "time": 93.3,
          "velocity": 0.7874015748031497
        },
        {
          "duration": 0.07500000000000284,
          "durationTicks": 96,
          "midi": 69,
          "name": "A4",
          "ticks": 119520,
          "time": 93.375,
          "velocity": 0.7874015748031497
        },
        {
          "duration": 0.07499999999998863,
          "durationTicks": 96,
          "midi": 77,
          "name": "F5",
          "ticks": 119616,
          "time": 93.45,
          "velocity": 0.7874015748031497
        },
        {
          "duration": 0.07500000000000284,
          "durationTicks": 96,
          "midi": 69,
          "name": "A4",
          "ticks": 119712,
          "time": 93.52499999999999,
          "velocity": 0.7874015748031497
        },
        {
          "duration": 0.07500000000000284,
          "durationTicks": 96,
          "midi": 74,
          "name": "D5",
          "ticks": 119808,
          "time": 93.6,
          "velocity": 0.7874015748031497
        },
        {
          "duration": 0.07500000000000284,
          "durationTicks": 96,
          "midi": 65,
          "name": "F4",
          "ticks": 119904,
          "time": 93.675,
          "velocity": 0.7874015748031497
        },
        {
          "duration": 0.07500000000000284,
          "durationTicks": 96,
          "midi": 74,
          "name": "D5",
          "ticks": 120000,
          "time": 93.75,
          "velocity": 0.7874015748031497
        },
        {
          "duration": 0.07499999999998863,
          "durationTicks": 96,
          "midi": 65,
          "name": "F4",
          "ticks": 120096,
          "time": 93.825,
          "velocity": 0.7874015748031497
        },
        {
          "duration": 0.07500000000000284,
          "durationTicks": 96,
          "midi": 74,
          "name": "D5",
          "ticks": 120192,
          "time": 93.89999999999999,
          "velocity": 0.7874015748031497
        },
        {
          "duration": 0.07500000000000284,
          "durationTicks": 96,
          "midi": 65,
          "name": "F4",
          "ticks": 120288,
          "time": 93.975,
          "velocity": 0.7874015748031497
        },
        {
          "duration": 0.07500000000000284,
          "durationTicks": 96,
          "midi": 74,
          "name": "D5",
          "ticks": 120384,
          "time": 94.05,
          "velocity": 0.7874015748031497
        },
        {
          "duration": 0.07500000000000284,
          "durationTicks": 96,
          "midi": 65,
          "name": "F4",
          "ticks": 120480,
          "time": 94.125,
          "velocity": 0.7874015748031497
        },
        {
          "duration": 0.07499999999998863,
          "durationTicks": 96,
          "midi": 74,
          "name": "D5",
          "ticks": 120576,
          "time": 94.2,
          "velocity": 0.7874015748031497
        },
        {
          "duration": 0.07500000000000284,
          "durationTicks": 96,
          "midi": 65,
          "name": "F4",
          "ticks": 120672,
          "time": 94.27499999999999,
          "velocity": 0.7874015748031497
        },
        {
          "duration": 0.07500000000000284,
          "durationTicks": 96,
          "midi": 74,
          "name": "D5",
          "ticks": 120768,
          "time": 94.35,
          "velocity": 0.7874015748031497
        },
        {
          "duration": 0.07500000000000284,
          "durationTicks": 96,
          "midi": 65,
          "name": "F4",
          "ticks": 120864,
          "time": 94.425,
          "velocity": 0.7874015748031497
        },
        {
          "duration": 0.07500000000000284,
          "durationTicks": 96,
          "midi": 74,
          "name": "D5",
          "ticks": 120960,
          "time": 94.5,
          "velocity": 0.7874015748031497
        },
        {
          "duration": 0.07499999999998863,
          "durationTicks": 96,
          "midi": 65,
          "name": "F4",
          "ticks": 121056,
          "time": 94.575,
          "velocity": 0.7874015748031497
        },
        {
          "duration": 0.07500000000000284,
          "durationTicks": 96,
          "midi": 74,
          "name": "D5",
          "ticks": 121152,
          "time": 94.64999999999999,
          "velocity": 0.7874015748031497
        },
        {
          "duration": 0.07500000000000284,
          "durationTicks": 96,
          "midi": 65,
          "name": "F4",
          "ticks": 121248,
          "time": 94.725,
          "velocity": 0.7874015748031497
        },
        {
          "duration": 0.07500000000000284,
          "durationTicks": 96,
          "midi": 75,
          "name": "D#5",
          "ticks": 121344,
          "time": 94.8,
          "velocity": 0.7874015748031497
        },
        {
          "duration": 0.07500000000000284,
          "durationTicks": 96,
          "midi": 67,
          "name": "G4",
          "ticks": 121440,
          "time": 94.875,
          "velocity": 0.7874015748031497
        },
        {
          "duration": 0.07499999999998863,
          "durationTicks": 96,
          "midi": 75,
          "name": "D#5",
          "ticks": 121536,
          "time": 94.95,
          "velocity": 0.7874015748031497
        },
        {
          "duration": 0.07500000000000284,
          "durationTicks": 96,
          "midi": 67,
          "name": "G4",
          "ticks": 121632,
          "time": 95.02499999999999,
          "velocity": 0.7874015748031497
        },
        {
          "duration": 0.07500000000000284,
          "durationTicks": 96,
          "midi": 75,
          "name": "D#5",
          "ticks": 121728,
          "time": 95.1,
          "velocity": 0.7874015748031497
        },
        {
          "duration": 0.07500000000000284,
          "durationTicks": 96,
          "midi": 67,
          "name": "G4",
          "ticks": 121824,
          "time": 95.175,
          "velocity": 0.7874015748031497
        },
        {
          "duration": 0.07500000000000284,
          "durationTicks": 96,
          "midi": 75,
          "name": "D#5",
          "ticks": 121920,
          "time": 95.25,
          "velocity": 0.7874015748031497
        },
        {
          "duration": 0.07499999999998863,
          "durationTicks": 96,
          "midi": 67,
          "name": "G4",
          "ticks": 122016,
          "time": 95.325,
          "velocity": 0.7874015748031497
        },
        {
          "duration": 0.07500000000000284,
          "durationTicks": 96,
          "midi": 75,
          "name": "D#5",
          "ticks": 122112,
          "time": 95.39999999999999,
          "velocity": 0.7874015748031497
        },
        {
          "duration": 0.07500000000000284,
          "durationTicks": 96,
          "midi": 67,
          "name": "G4",
          "ticks": 122208,
          "time": 95.475,
          "velocity": 0.7874015748031497
        },
        {
          "duration": 0.07500000000000284,
          "durationTicks": 96,
          "midi": 75,
          "name": "D#5",
          "ticks": 122304,
          "time": 95.55,
          "velocity": 0.7874015748031497
        },
        {
          "duration": 0.07500000000000284,
          "durationTicks": 96,
          "midi": 67,
          "name": "G4",
          "ticks": 122400,
          "time": 95.625,
          "velocity": 0.7874015748031497
        },
        {
          "duration": 0.07499999999998863,
          "durationTicks": 96,
          "midi": 75,
          "name": "D#5",
          "ticks": 122496,
          "time": 95.7,
          "velocity": 0.7874015748031497
        },
        {
          "duration": 0.07500000000000284,
          "durationTicks": 96,
          "midi": 67,
          "name": "G4",
          "ticks": 122592,
          "time": 95.77499999999999,
          "velocity": 0.7874015748031497
        },
        {
          "duration": 0.07500000000000284,
          "durationTicks": 96,
          "midi": 75,
          "name": "D#5",
          "ticks": 122688,
          "time": 95.85,
          "velocity": 0.7874015748031497
        },
        {
          "duration": 0.07500000000000284,
          "durationTicks": 96,
          "midi": 67,
          "name": "G4",
          "ticks": 122784,
          "time": 95.925,
          "velocity": 0.7874015748031497
        },
        {
          "duration": 0.07500000000000284,
          "durationTicks": 96,
          "midi": 77,
          "name": "F5",
          "ticks": 122880,
          "time": 96,
          "velocity": 0.7874015748031497
        },
        {
          "duration": 0.07499999999998863,
          "durationTicks": 96,
          "midi": 69,
          "name": "A4",
          "ticks": 122976,
          "time": 96.075,
          "velocity": 0.7874015748031497
        },
        {
          "duration": 0.07500000000000284,
          "durationTicks": 96,
          "midi": 77,
          "name": "F5",
          "ticks": 123072,
          "time": 96.14999999999999,
          "velocity": 0.7874015748031497
        },
        {
          "duration": 0.07500000000000284,
          "durationTicks": 96,
          "midi": 69,
          "name": "A4",
          "ticks": 123168,
          "time": 96.225,
          "velocity": 0.7874015748031497
        },
        {
          "duration": 0.07500000000000284,
          "durationTicks": 96,
          "midi": 77,
          "name": "F5",
          "ticks": 123264,
          "time": 96.3,
          "velocity": 0.7874015748031497
        },
        {
          "duration": 0.07500000000000284,
          "durationTicks": 96,
          "midi": 69,
          "name": "A4",
          "ticks": 123360,
          "time": 96.375,
          "velocity": 0.7874015748031497
        },
        {
          "duration": 0.07499999999998863,
          "durationTicks": 96,
          "midi": 77,
          "name": "F5",
          "ticks": 123456,
          "time": 96.45,
          "velocity": 0.7874015748031497
        },
        {
          "duration": 0.07500000000000284,
          "durationTicks": 96,
          "midi": 69,
          "name": "A4",
          "ticks": 123552,
          "time": 96.52499999999999,
          "velocity": 0.7874015748031497
        },
        {
          "duration": 0.07500000000000284,
          "durationTicks": 96,
          "midi": 77,
          "name": "F5",
          "ticks": 123648,
          "time": 96.6,
          "velocity": 0.7874015748031497
        },
        {
          "duration": 0.07500000000000284,
          "durationTicks": 96,
          "midi": 69,
          "name": "A4",
          "ticks": 123744,
          "time": 96.675,
          "velocity": 0.7874015748031497
        },
        {
          "duration": 0.07500000000000284,
          "durationTicks": 96,
          "midi": 77,
          "name": "F5",
          "ticks": 123840,
          "time": 96.75,
          "velocity": 0.7874015748031497
        },
        {
          "duration": 0.07499999999998863,
          "durationTicks": 96,
          "midi": 69,
          "name": "A4",
          "ticks": 123936,
          "time": 96.825,
          "velocity": 0.7874015748031497
        },
        {
          "duration": 0.07500000000000284,
          "durationTicks": 96,
          "midi": 77,
          "name": "F5",
          "ticks": 124032,
          "time": 96.89999999999999,
          "velocity": 0.7874015748031497
        },
        {
          "duration": 0.07500000000000284,
          "durationTicks": 96,
          "midi": 69,
          "name": "A4",
          "ticks": 124128,
          "time": 96.975,
          "velocity": 0.7874015748031497
        },
        {
          "duration": 0.07500000000000284,
          "durationTicks": 96,
          "midi": 77,
          "name": "F5",
          "ticks": 124224,
          "time": 97.05,
          "velocity": 0.7874015748031497
        },
        {
          "duration": 0.07500000000000284,
          "durationTicks": 96,
          "midi": 69,
          "name": "A4",
          "ticks": 124320,
          "time": 97.125,
          "velocity": 0.7874015748031497
        },
        {
          "duration": 0.07499999999998863,
          "durationTicks": 96,
          "midi": 74,
          "name": "D5",
          "ticks": 124416,
          "time": 97.2,
          "velocity": 0.7874015748031497
        },
        {
          "duration": 0.07500000000000284,
          "durationTicks": 96,
          "midi": 65,
          "name": "F4",
          "ticks": 124512,
          "time": 97.27499999999999,
          "velocity": 0.7874015748031497
        },
        {
          "duration": 0.07500000000000284,
          "durationTicks": 96,
          "midi": 74,
          "name": "D5",
          "ticks": 124608,
          "time": 97.35,
          "velocity": 0.7874015748031497
        },
        {
          "duration": 0.07500000000000284,
          "durationTicks": 96,
          "midi": 65,
          "name": "F4",
          "ticks": 124704,
          "time": 97.425,
          "velocity": 0.7874015748031497
        },
        {
          "duration": 0.07500000000000284,
          "durationTicks": 96,
          "midi": 74,
          "name": "D5",
          "ticks": 124800,
          "time": 97.5,
          "velocity": 0.7874015748031497
        },
        {
          "duration": 0.07499999999998863,
          "durationTicks": 96,
          "midi": 65,
          "name": "F4",
          "ticks": 124896,
          "time": 97.575,
          "velocity": 0.7874015748031497
        },
        {
          "duration": 0.07500000000000284,
          "durationTicks": 96,
          "midi": 74,
          "name": "D5",
          "ticks": 124992,
          "time": 97.64999999999999,
          "velocity": 0.7874015748031497
        },
        {
          "duration": 0.07500000000000284,
          "durationTicks": 96,
          "midi": 65,
          "name": "F4",
          "ticks": 125088,
          "time": 97.725,
          "velocity": 0.7874015748031497
        },
        {
          "duration": 0.07500000000000284,
          "durationTicks": 96,
          "midi": 74,
          "name": "D5",
          "ticks": 125184,
          "time": 97.8,
          "velocity": 0.7874015748031497
        },
        {
          "duration": 0.07500000000000284,
          "durationTicks": 96,
          "midi": 65,
          "name": "F4",
          "ticks": 125280,
          "time": 97.875,
          "velocity": 0.7874015748031497
        },
        {
          "duration": 0.07499999999998863,
          "durationTicks": 96,
          "midi": 74,
          "name": "D5",
          "ticks": 125376,
          "time": 97.95,
          "velocity": 0.7874015748031497
        },
        {
          "duration": 0.07500000000000284,
          "durationTicks": 96,
          "midi": 65,
          "name": "F4",
          "ticks": 125472,
          "time": 98.02499999999999,
          "velocity": 0.7874015748031497
        },
        {
          "duration": 0.07500000000000284,
          "durationTicks": 96,
          "midi": 74,
          "name": "D5",
          "ticks": 125568,
          "time": 98.1,
          "velocity": 0.7874015748031497
        },
        {
          "duration": 0.07500000000000284,
          "durationTicks": 96,
          "midi": 65,
          "name": "F4",
          "ticks": 125664,
          "time": 98.175,
          "velocity": 0.7874015748031497
        },
        {
          "duration": 0.07500000000000284,
          "durationTicks": 96,
          "midi": 74,
          "name": "D5",
          "ticks": 125760,
          "time": 98.25,
          "velocity": 0.7874015748031497
        },
        {
          "duration": 0.07499999999998863,
          "durationTicks": 96,
          "midi": 65,
          "name": "F4",
          "ticks": 125856,
          "time": 98.325,
          "velocity": 0.7874015748031497
        },
        {
          "duration": 0.07500000000000284,
          "durationTicks": 96,
          "midi": 68,
          "name": "G#4",
          "ticks": 125952,
          "time": 98.39999999999999,
          "velocity": 0.7874015748031497
        },
        {
          "duration": 0.07500000000000284,
          "durationTicks": 96,
          "midi": 74,
          "name": "D5",
          "ticks": 126048,
          "time": 98.475,
          "velocity": 0.7874015748031497
        },
        {
          "duration": 0.07500000000000284,
          "durationTicks": 96,
          "midi": 68,
          "name": "G#4",
          "ticks": 126144,
          "time": 98.55,
          "velocity": 0.7874015748031497
        },
        {
          "duration": 0.07500000000000284,
          "durationTicks": 96,
          "midi": 74,
          "name": "D5",
          "ticks": 126240,
          "time": 98.625,
          "velocity": 0.7874015748031497
        },
        {
          "duration": 0.07499999999998863,
          "durationTicks": 96,
          "midi": 68,
          "name": "G#4",
          "ticks": 126336,
          "time": 98.7,
          "velocity": 0.7874015748031497
        },
        {
          "duration": 0.07500000000000284,
          "durationTicks": 96,
          "midi": 74,
          "name": "D5",
          "ticks": 126432,
          "time": 98.77499999999999,
          "velocity": 0.7874015748031497
        },
        {
          "duration": 0.07500000000000284,
          "durationTicks": 96,
          "midi": 68,
          "name": "G#4",
          "ticks": 126528,
          "time": 98.85,
          "velocity": 0.7874015748031497
        },
        {
          "duration": 0.07500000000000284,
          "durationTicks": 96,
          "midi": 74,
          "name": "D5",
          "ticks": 126624,
          "time": 98.925,
          "velocity": 0.7874015748031497
        },
        {
          "duration": 0.07500000000000284,
          "durationTicks": 96,
          "midi": 68,
          "name": "G#4",
          "ticks": 126720,
          "time": 99,
          "velocity": 0.7874015748031497
        },
        {
          "duration": 0.07499999999998863,
          "durationTicks": 96,
          "midi": 74,
          "name": "D5",
          "ticks": 126816,
          "time": 99.075,
          "velocity": 0.7874015748031497
        },
        {
          "duration": 0.07500000000000284,
          "durationTicks": 96,
          "midi": 68,
          "name": "G#4",
          "ticks": 126912,
          "time": 99.14999999999999,
          "velocity": 0.7874015748031497
        },
        {
          "duration": 0.07500000000000284,
          "durationTicks": 96,
          "midi": 74,
          "name": "D5",
          "ticks": 127008,
          "time": 99.225,
          "velocity": 0.7874015748031497
        },
        {
          "duration": 0.07500000000000284,
          "durationTicks": 96,
          "midi": 68,
          "name": "G#4",
          "ticks": 127104,
          "time": 99.3,
          "velocity": 0.7874015748031497
        },
        {
          "duration": 0.07500000000000284,
          "durationTicks": 96,
          "midi": 74,
          "name": "D5",
          "ticks": 127200,
          "time": 99.375,
          "velocity": 0.7874015748031497
        },
        {
          "duration": 0.07499999999998863,
          "durationTicks": 96,
          "midi": 68,
          "name": "G#4",
          "ticks": 127296,
          "time": 99.45,
          "velocity": 0.7874015748031497
        },
        {
          "duration": 0.07500000000000284,
          "durationTicks": 96,
          "midi": 74,
          "name": "D5",
          "ticks": 127392,
          "time": 99.52499999999999,
          "velocity": 0.7874015748031497
        },
        {
          "duration": 0.07500000000000284,
          "durationTicks": 96,
          "midi": 75,
          "name": "D#5",
          "ticks": 127488,
          "time": 99.6,
          "velocity": 0.7874015748031497
        },
        {
          "duration": 0.07500000000000284,
          "durationTicks": 96,
          "midi": 67,
          "name": "G4",
          "ticks": 127584,
          "time": 99.675,
          "velocity": 0.7874015748031497
        },
        {
          "duration": 0.07500000000000284,
          "durationTicks": 96,
          "midi": 75,
          "name": "D#5",
          "ticks": 127680,
          "time": 99.75,
          "velocity": 0.7874015748031497
        },
        {
          "duration": 0.07499999999998863,
          "durationTicks": 96,
          "midi": 67,
          "name": "G4",
          "ticks": 127776,
          "time": 99.825,
          "velocity": 0.7874015748031497
        },
        {
          "duration": 0.07500000000000284,
          "durationTicks": 96,
          "midi": 75,
          "name": "D#5",
          "ticks": 127872,
          "time": 99.89999999999999,
          "velocity": 0.7874015748031497
        },
        {
          "duration": 0.07500000000000284,
          "durationTicks": 96,
          "midi": 67,
          "name": "G4",
          "ticks": 127968,
          "time": 99.975,
          "velocity": 0.7874015748031497
        },
        {
          "duration": 0.07500000000000284,
          "durationTicks": 96,
          "midi": 75,
          "name": "D#5",
          "ticks": 128064,
          "time": 100.05,
          "velocity": 0.7874015748031497
        },
        {
          "duration": 0.07500000000000284,
          "durationTicks": 96,
          "midi": 67,
          "name": "G4",
          "ticks": 128160,
          "time": 100.125,
          "velocity": 0.7874015748031497
        },
        {
          "duration": 0.07499999999998863,
          "durationTicks": 96,
          "midi": 75,
          "name": "D#5",
          "ticks": 128256,
          "time": 100.2,
          "velocity": 0.7874015748031497
        },
        {
          "duration": 0.07500000000000284,
          "durationTicks": 96,
          "midi": 67,
          "name": "G4",
          "ticks": 128352,
          "time": 100.27499999999999,
          "velocity": 0.7874015748031497
        },
        {
          "duration": 0.07500000000000284,
          "durationTicks": 96,
          "midi": 75,
          "name": "D#5",
          "ticks": 128448,
          "time": 100.35,
          "velocity": 0.7874015748031497
        },
        {
          "duration": 0.07500000000000284,
          "durationTicks": 96,
          "midi": 67,
          "name": "G4",
          "ticks": 128544,
          "time": 100.425,
          "velocity": 0.7874015748031497
        },
        {
          "duration": 0.07500000000000284,
          "durationTicks": 96,
          "midi": 75,
          "name": "D#5",
          "ticks": 128640,
          "time": 100.5,
          "velocity": 0.7874015748031497
        },
        {
          "duration": 0.07499999999998863,
          "durationTicks": 96,
          "midi": 67,
          "name": "G4",
          "ticks": 128736,
          "time": 100.575,
          "velocity": 0.7874015748031497
        },
        {
          "duration": 0.07500000000000284,
          "durationTicks": 96,
          "midi": 75,
          "name": "D#5",
          "ticks": 128832,
          "time": 100.64999999999999,
          "velocity": 0.7874015748031497
        },
        {
          "duration": 0.07500000000000284,
          "durationTicks": 96,
          "midi": 67,
          "name": "G4",
          "ticks": 128928,
          "time": 100.725,
          "velocity": 0.7874015748031497
        },
        {
          "duration": 0.07500000000000284,
          "durationTicks": 96,
          "midi": 77,
          "name": "F5",
          "ticks": 129024,
          "time": 100.8,
          "velocity": 0.7874015748031497
        },
        {
          "duration": 0.07500000000000284,
          "durationTicks": 96,
          "midi": 69,
          "name": "A4",
          "ticks": 129120,
          "time": 100.875,
          "velocity": 0.7874015748031497
        },
        {
          "duration": 0.07499999999998863,
          "durationTicks": 96,
          "midi": 77,
          "name": "F5",
          "ticks": 129216,
          "time": 100.95,
          "velocity": 0.7874015748031497
        },
        {
          "duration": 0.07500000000000284,
          "durationTicks": 96,
          "midi": 69,
          "name": "A4",
          "ticks": 129312,
          "time": 101.02499999999999,
          "velocity": 0.7874015748031497
        },
        {
          "duration": 0.07500000000000284,
          "durationTicks": 96,
          "midi": 77,
          "name": "F5",
          "ticks": 129408,
          "time": 101.1,
          "velocity": 0.7874015748031497
        },
        {
          "duration": 0.07500000000000284,
          "durationTicks": 96,
          "midi": 69,
          "name": "A4",
          "ticks": 129504,
          "time": 101.175,
          "velocity": 0.7874015748031497
        },
        {
          "duration": 0.07500000000000284,
          "durationTicks": 96,
          "midi": 77,
          "name": "F5",
          "ticks": 129600,
          "time": 101.25,
          "velocity": 0.7874015748031497
        },
        {
          "duration": 0.07499999999998863,
          "durationTicks": 96,
          "midi": 69,
          "name": "A4",
          "ticks": 129696,
          "time": 101.325,
          "velocity": 0.7874015748031497
        },
        {
          "duration": 0.07500000000000284,
          "durationTicks": 96,
          "midi": 77,
          "name": "F5",
          "ticks": 129792,
          "time": 101.39999999999999,
          "velocity": 0.7874015748031497
        },
        {
          "duration": 0.07500000000000284,
          "durationTicks": 96,
          "midi": 69,
          "name": "A4",
          "ticks": 129888,
          "time": 101.475,
          "velocity": 0.7874015748031497
        },
        {
          "duration": 0.07500000000000284,
          "durationTicks": 96,
          "midi": 77,
          "name": "F5",
          "ticks": 129984,
          "time": 101.55,
          "velocity": 0.7874015748031497
        },
        {
          "duration": 0.07500000000000284,
          "durationTicks": 96,
          "midi": 69,
          "name": "A4",
          "ticks": 130080,
          "time": 101.625,
          "velocity": 0.7874015748031497
        },
        {
          "duration": 0.07499999999998863,
          "durationTicks": 96,
          "midi": 77,
          "name": "F5",
          "ticks": 130176,
          "time": 101.7,
          "velocity": 0.7874015748031497
        },
        {
          "duration": 0.07500000000000284,
          "durationTicks": 96,
          "midi": 69,
          "name": "A4",
          "ticks": 130272,
          "time": 101.77499999999999,
          "velocity": 0.7874015748031497
        },
        {
          "duration": 0.07500000000000284,
          "durationTicks": 96,
          "midi": 77,
          "name": "F5",
          "ticks": 130368,
          "time": 101.85,
          "velocity": 0.7874015748031497
        },
        {
          "duration": 0.07500000000000284,
          "durationTicks": 96,
          "midi": 69,
          "name": "A4",
          "ticks": 130464,
          "time": 101.925,
          "velocity": 0.7874015748031497
        },
        {
          "duration": 0.07500000000000284,
          "durationTicks": 96,
          "midi": 79,
          "name": "G5",
          "ticks": 130560,
          "time": 102,
          "velocity": 0.7874015748031497
        },
        {
          "duration": 0.07499999999998863,
          "durationTicks": 96,
          "midi": 70,
          "name": "A#4",
          "ticks": 130656,
          "time": 102.075,
          "velocity": 0.7874015748031497
        },
        {
          "duration": 0.07500000000000284,
          "durationTicks": 96,
          "midi": 79,
          "name": "G5",
          "ticks": 130752,
          "time": 102.14999999999999,
          "velocity": 0.7874015748031497
        },
        {
          "duration": 0.07500000000000284,
          "durationTicks": 96,
          "midi": 70,
          "name": "A#4",
          "ticks": 130848,
          "time": 102.225,
          "velocity": 0.7874015748031497
        },
        {
          "duration": 0.07500000000000284,
          "durationTicks": 96,
          "midi": 79,
          "name": "G5",
          "ticks": 130944,
          "time": 102.3,
          "velocity": 0.7874015748031497
        },
        {
          "duration": 0.07500000000000284,
          "durationTicks": 96,
          "midi": 70,
          "name": "A#4",
          "ticks": 131040,
          "time": 102.375,
          "velocity": 0.7874015748031497
        },
        {
          "duration": 0.07499999999998863,
          "durationTicks": 96,
          "midi": 79,
          "name": "G5",
          "ticks": 131136,
          "time": 102.45,
          "velocity": 0.7874015748031497
        },
        {
          "duration": 0.07500000000000284,
          "durationTicks": 96,
          "midi": 70,
          "name": "A#4",
          "ticks": 131232,
          "time": 102.52499999999999,
          "velocity": 0.7874015748031497
        },
        {
          "duration": 0.07500000000000284,
          "durationTicks": 96,
          "midi": 79,
          "name": "G5",
          "ticks": 131328,
          "time": 102.6,
          "velocity": 0.7874015748031497
        },
        {
          "duration": 0.07500000000000284,
          "durationTicks": 96,
          "midi": 70,
          "name": "A#4",
          "ticks": 131424,
          "time": 102.675,
          "velocity": 0.7874015748031497
        },
        {
          "duration": 0.07500000000000284,
          "durationTicks": 96,
          "midi": 79,
          "name": "G5",
          "ticks": 131520,
          "time": 102.75,
          "velocity": 0.7874015748031497
        },
        {
          "duration": 0.07499999999998863,
          "durationTicks": 96,
          "midi": 70,
          "name": "A#4",
          "ticks": 131616,
          "time": 102.825,
          "velocity": 0.7874015748031497
        },
        {
          "duration": 0.07500000000000284,
          "durationTicks": 96,
          "midi": 79,
          "name": "G5",
          "ticks": 131712,
          "time": 102.89999999999999,
          "velocity": 0.7874015748031497
        },
        {
          "duration": 0.07500000000000284,
          "durationTicks": 96,
          "midi": 70,
          "name": "A#4",
          "ticks": 131808,
          "time": 102.975,
          "velocity": 0.7874015748031497
        },
        {
          "duration": 0.07500000000000284,
          "durationTicks": 96,
          "midi": 79,
          "name": "G5",
          "ticks": 131904,
          "time": 103.05,
          "velocity": 0.7874015748031497
        },
        {
          "duration": 0.07500000000000284,
          "durationTicks": 96,
          "midi": 70,
          "name": "A#4",
          "ticks": 132000,
          "time": 103.125,
          "velocity": 0.7874015748031497
        },
        {
          "duration": 0.07499999999998863,
          "durationTicks": 96,
          "midi": 76,
          "name": "E5",
          "ticks": 132096,
          "time": 103.2,
          "velocity": 0.7874015748031497
        },
        {
          "duration": 0.07500000000000284,
          "durationTicks": 96,
          "midi": 67,
          "name": "G4",
          "ticks": 132192,
          "time": 103.27499999999999,
          "velocity": 0.7874015748031497
        },
        {
          "duration": 0.07500000000000284,
          "durationTicks": 96,
          "midi": 76,
          "name": "E5",
          "ticks": 132288,
          "time": 103.35,
          "velocity": 0.7874015748031497
        },
        {
          "duration": 0.07500000000000284,
          "durationTicks": 96,
          "midi": 67,
          "name": "G4",
          "ticks": 132384,
          "time": 103.425,
          "velocity": 0.7874015748031497
        },
        {
          "duration": 0.07500000000000284,
          "durationTicks": 96,
          "midi": 76,
          "name": "E5",
          "ticks": 132480,
          "time": 103.5,
          "velocity": 0.7874015748031497
        },
        {
          "duration": 0.07499999999998863,
          "durationTicks": 96,
          "midi": 67,
          "name": "G4",
          "ticks": 132576,
          "time": 103.575,
          "velocity": 0.7874015748031497
        },
        {
          "duration": 0.07500000000000284,
          "durationTicks": 96,
          "midi": 76,
          "name": "E5",
          "ticks": 132672,
          "time": 103.64999999999999,
          "velocity": 0.7874015748031497
        },
        {
          "duration": 0.07500000000000284,
          "durationTicks": 96,
          "midi": 67,
          "name": "G4",
          "ticks": 132768,
          "time": 103.725,
          "velocity": 0.7874015748031497
        },
        {
          "duration": 0.07500000000000284,
          "durationTicks": 96,
          "midi": 76,
          "name": "E5",
          "ticks": 132864,
          "time": 103.8,
          "velocity": 0.7874015748031497
        },
        {
          "duration": 0.07500000000000284,
          "durationTicks": 96,
          "midi": 67,
          "name": "G4",
          "ticks": 132960,
          "time": 103.875,
          "velocity": 0.7874015748031497
        },
        {
          "duration": 0.07499999999998863,
          "durationTicks": 96,
          "midi": 76,
          "name": "E5",
          "ticks": 133056,
          "time": 103.95,
          "velocity": 0.7874015748031497
        },
        {
          "duration": 0.07500000000000284,
          "durationTicks": 96,
          "midi": 67,
          "name": "G4",
          "ticks": 133152,
          "time": 104.02499999999999,
          "velocity": 0.7874015748031497
        },
        {
          "duration": 0.07500000000000284,
          "durationTicks": 96,
          "midi": 76,
          "name": "E5",
          "ticks": 133248,
          "time": 104.1,
          "velocity": 0.7874015748031497
        },
        {
          "duration": 0.07500000000000284,
          "durationTicks": 96,
          "midi": 67,
          "name": "G4",
          "ticks": 133344,
          "time": 104.175,
          "velocity": 0.7874015748031497
        },
        {
          "duration": 0.07500000000000284,
          "durationTicks": 96,
          "midi": 76,
          "name": "E5",
          "ticks": 133440,
          "time": 104.25,
          "velocity": 0.7874015748031497
        },
        {
          "duration": 0.07499999999998863,
          "durationTicks": 96,
          "midi": 67,
          "name": "G4",
          "ticks": 133536,
          "time": 104.325,
          "velocity": 0.7874015748031497
        },
        {
          "duration": 0.07500000000000284,
          "durationTicks": 96,
          "midi": 75,
          "name": "D#5",
          "ticks": 133632,
          "time": 104.39999999999999,
          "velocity": 0.7874015748031497
        },
        {
          "duration": 0.07500000000000284,
          "durationTicks": 96,
          "midi": 67,
          "name": "G4",
          "ticks": 133728,
          "time": 104.475,
          "velocity": 0.7874015748031497
        },
        {
          "duration": 0.07500000000000284,
          "durationTicks": 96,
          "midi": 75,
          "name": "D#5",
          "ticks": 133824,
          "time": 104.55,
          "velocity": 0.7874015748031497
        },
        {
          "duration": 0.07500000000000284,
          "durationTicks": 96,
          "midi": 67,
          "name": "G4",
          "ticks": 133920,
          "time": 104.625,
          "velocity": 0.7874015748031497
        },
        {
          "duration": 0.07499999999998863,
          "durationTicks": 96,
          "midi": 75,
          "name": "D#5",
          "ticks": 134016,
          "time": 104.7,
          "velocity": 0.7874015748031497
        },
        {
          "duration": 0.07500000000000284,
          "durationTicks": 96,
          "midi": 67,
          "name": "G4",
          "ticks": 134112,
          "time": 104.77499999999999,
          "velocity": 0.7874015748031497
        },
        {
          "duration": 0.07500000000000284,
          "durationTicks": 96,
          "midi": 75,
          "name": "D#5",
          "ticks": 134208,
          "time": 104.85,
          "velocity": 0.7874015748031497
        },
        {
          "duration": 0.07500000000000284,
          "durationTicks": 96,
          "midi": 67,
          "name": "G4",
          "ticks": 134304,
          "time": 104.925,
          "velocity": 0.7874015748031497
        },
        {
          "duration": 0.07500000000000284,
          "durationTicks": 96,
          "midi": 75,
          "name": "D#5",
          "ticks": 134400,
          "time": 105,
          "velocity": 0.7874015748031497
        },
        {
          "duration": 0.07499999999998863,
          "durationTicks": 96,
          "midi": 67,
          "name": "G4",
          "ticks": 134496,
          "time": 105.075,
          "velocity": 0.7874015748031497
        },
        {
          "duration": 0.07500000000000284,
          "durationTicks": 96,
          "midi": 75,
          "name": "D#5",
          "ticks": 134592,
          "time": 105.14999999999999,
          "velocity": 0.7874015748031497
        },
        {
          "duration": 0.07500000000000284,
          "durationTicks": 96,
          "midi": 67,
          "name": "G4",
          "ticks": 134688,
          "time": 105.225,
          "velocity": 0.7874015748031497
        },
        {
          "duration": 0.07500000000000284,
          "durationTicks": 96,
          "midi": 75,
          "name": "D#5",
          "ticks": 134784,
          "time": 105.3,
          "velocity": 0.7874015748031497
        },
        {
          "duration": 0.07500000000000284,
          "durationTicks": 96,
          "midi": 67,
          "name": "G4",
          "ticks": 134880,
          "time": 105.375,
          "velocity": 0.7874015748031497
        },
        {
          "duration": 0.07499999999998863,
          "durationTicks": 96,
          "midi": 75,
          "name": "D#5",
          "ticks": 134976,
          "time": 105.45,
          "velocity": 0.7874015748031497
        },
        {
          "duration": 0.07500000000000284,
          "durationTicks": 96,
          "midi": 67,
          "name": "G4",
          "ticks": 135072,
          "time": 105.52499999999999,
          "velocity": 0.7874015748031497
        },
        {
          "duration": 0.07500000000000284,
          "durationTicks": 96,
          "midi": 77,
          "name": "F5",
          "ticks": 135168,
          "time": 105.6,
          "velocity": 0.7874015748031497
        },
        {
          "duration": 0.07500000000000284,
          "durationTicks": 96,
          "midi": 69,
          "name": "A4",
          "ticks": 135264,
          "time": 105.675,
          "velocity": 0.7874015748031497
        },
        {
          "duration": 0.07500000000000284,
          "durationTicks": 96,
          "midi": 77,
          "name": "F5",
          "ticks": 135360,
          "time": 105.75,
          "velocity": 0.7874015748031497
        },
        {
          "duration": 0.07499999999998863,
          "durationTicks": 96,
          "midi": 69,
          "name": "A4",
          "ticks": 135456,
          "time": 105.825,
          "velocity": 0.7874015748031497
        },
        {
          "duration": 0.07500000000000284,
          "durationTicks": 96,
          "midi": 77,
          "name": "F5",
          "ticks": 135552,
          "time": 105.89999999999999,
          "velocity": 0.7874015748031497
        },
        {
          "duration": 0.07500000000000284,
          "durationTicks": 96,
          "midi": 69,
          "name": "A4",
          "ticks": 135648,
          "time": 105.975,
          "velocity": 0.7874015748031497
        },
        {
          "duration": 0.07500000000000284,
          "durationTicks": 96,
          "midi": 77,
          "name": "F5",
          "ticks": 135744,
          "time": 106.05,
          "velocity": 0.7874015748031497
        },
        {
          "duration": 0.07500000000000284,
          "durationTicks": 96,
          "midi": 69,
          "name": "A4",
          "ticks": 135840,
          "time": 106.125,
          "velocity": 0.7874015748031497
        },
        {
          "duration": 0.07499999999998863,
          "durationTicks": 96,
          "midi": 77,
          "name": "F5",
          "ticks": 135936,
          "time": 106.2,
          "velocity": 0.7874015748031497
        },
        {
          "duration": 0.07500000000000284,
          "durationTicks": 96,
          "midi": 69,
          "name": "A4",
          "ticks": 136032,
          "time": 106.27499999999999,
          "velocity": 0.7874015748031497
        },
        {
          "duration": 0.07500000000000284,
          "durationTicks": 96,
          "midi": 77,
          "name": "F5",
          "ticks": 136128,
          "time": 106.35,
          "velocity": 0.7874015748031497
        },
        {
          "duration": 0.07500000000000284,
          "durationTicks": 96,
          "midi": 69,
          "name": "A4",
          "ticks": 136224,
          "time": 106.425,
          "velocity": 0.7874015748031497
        },
        {
          "duration": 0.07500000000000284,
          "durationTicks": 96,
          "midi": 77,
          "name": "F5",
          "ticks": 136320,
          "time": 106.5,
          "velocity": 0.7874015748031497
        },
        {
          "duration": 0.07499999999998863,
          "durationTicks": 96,
          "midi": 69,
          "name": "A4",
          "ticks": 136416,
          "time": 106.575,
          "velocity": 0.7874015748031497
        },
        {
          "duration": 0.07500000000000284,
          "durationTicks": 96,
          "midi": 77,
          "name": "F5",
          "ticks": 136512,
          "time": 106.64999999999999,
          "velocity": 0.7874015748031497
        },
        {
          "duration": 0.07500000000000284,
          "durationTicks": 96,
          "midi": 69,
          "name": "A4",
          "ticks": 136608,
          "time": 106.725,
          "velocity": 0.7874015748031497
        },
        {
          "duration": 0.07499999999998863,
          "durationTicks": 96,
          "midi": 63,
          "name": "D#4",
          "ticks": 164352,
          "time": 128.4,
          "velocity": 0.7874015748031497
        },
        {
          "duration": 0.07499999999998863,
          "durationTicks": 96,
          "midi": 67,
          "name": "G4",
          "ticks": 164448,
          "time": 128.475,
          "velocity": 0.7874015748031497
        },
        {
          "duration": 0.07500000000001705,
          "durationTicks": 96,
          "midi": 63,
          "name": "D#4",
          "ticks": 164544,
          "time": 128.54999999999998,
          "velocity": 0.7874015748031497
        },
        {
          "duration": 0.07499999999998863,
          "durationTicks": 96,
          "midi": 67,
          "name": "G4",
          "ticks": 164640,
          "time": 128.625,
          "velocity": 0.7874015748031497
        },
        {
          "duration": 0.07500000000001705,
          "durationTicks": 96,
          "midi": 63,
          "name": "D#4",
          "ticks": 164736,
          "time": 128.7,
          "velocity": 0.7874015748031497
        },
        {
          "duration": 0.07499999999998863,
          "durationTicks": 96,
          "midi": 67,
          "name": "G4",
          "ticks": 164832,
          "time": 128.775,
          "velocity": 0.7874015748031497
        },
        {
          "duration": 0.07499999999998863,
          "durationTicks": 96,
          "midi": 63,
          "name": "D#4",
          "ticks": 164928,
          "time": 128.85,
          "velocity": 0.7874015748031497
        },
        {
          "duration": 0.07500000000001705,
          "durationTicks": 96,
          "midi": 67,
          "name": "G4",
          "ticks": 165024,
          "time": 128.92499999999998,
          "velocity": 0.7874015748031497
        },
        {
          "duration": 0.07499999999998863,
          "durationTicks": 96,
          "midi": 63,
          "name": "D#4",
          "ticks": 165120,
          "time": 129,
          "velocity": 0.7874015748031497
        },
        {
          "duration": 0.07500000000001705,
          "durationTicks": 96,
          "midi": 67,
          "name": "G4",
          "ticks": 165216,
          "time": 129.075,
          "velocity": 0.7874015748031497
        },
        {
          "duration": 0.07499999999998863,
          "durationTicks": 96,
          "midi": 63,
          "name": "D#4",
          "ticks": 165312,
          "time": 129.15,
          "velocity": 0.7874015748031497
        },
        {
          "duration": 0.07499999999998863,
          "durationTicks": 96,
          "midi": 67,
          "name": "G4",
          "ticks": 165408,
          "time": 129.225,
          "velocity": 0.7874015748031497
        },
        {
          "duration": 0.07500000000001705,
          "durationTicks": 96,
          "midi": 63,
          "name": "D#4",
          "ticks": 165504,
          "time": 129.29999999999998,
          "velocity": 0.7874015748031497
        },
        {
          "duration": 0.07499999999998863,
          "durationTicks": 96,
          "midi": 67,
          "name": "G4",
          "ticks": 165600,
          "time": 129.375,
          "velocity": 0.7874015748031497
        },
        {
          "duration": 0.07500000000001705,
          "durationTicks": 96,
          "midi": 63,
          "name": "D#4",
          "ticks": 165696,
          "time": 129.45,
          "velocity": 0.7874015748031497
        },
        {
          "duration": 0.07499999999998863,
          "durationTicks": 96,
          "midi": 67,
          "name": "G4",
          "ticks": 165792,
          "time": 129.525,
          "velocity": 0.7874015748031497
        },
        {
          "duration": 0.07499999999998863,
          "durationTicks": 96,
          "midi": 62,
          "name": "D4",
          "ticks": 165888,
          "time": 129.6,
          "velocity": 0.7874015748031497
        },
        {
          "duration": 0.07500000000001705,
          "durationTicks": 96,
          "midi": 65,
          "name": "F4",
          "ticks": 165984,
          "time": 129.67499999999998,
          "velocity": 0.7874015748031497
        },
        {
          "duration": 0.07499999999998863,
          "durationTicks": 96,
          "midi": 62,
          "name": "D4",
          "ticks": 166080,
          "time": 129.75,
          "velocity": 0.7874015748031497
        },
        {
          "duration": 0.07500000000001705,
          "durationTicks": 96,
          "midi": 65,
          "name": "F4",
          "ticks": 166176,
          "time": 129.825,
          "velocity": 0.7874015748031497
        },
        {
          "duration": 0.07499999999998863,
          "durationTicks": 96,
          "midi": 62,
          "name": "D4",
          "ticks": 166272,
          "time": 129.9,
          "velocity": 0.7874015748031497
        },
        {
          "duration": 0.07499999999998863,
          "durationTicks": 96,
          "midi": 65,
          "name": "F4",
          "ticks": 166368,
          "time": 129.975,
          "velocity": 0.7874015748031497
        },
        {
          "duration": 0.07500000000001705,
          "durationTicks": 96,
          "midi": 62,
          "name": "D4",
          "ticks": 166464,
          "time": 130.04999999999998,
          "velocity": 0.7874015748031497
        },
        {
          "duration": 0.07499999999998863,
          "durationTicks": 96,
          "midi": 65,
          "name": "F4",
          "ticks": 166560,
          "time": 130.125,
          "velocity": 0.7874015748031497
        },
        {
          "duration": 0.07500000000001705,
          "durationTicks": 96,
          "midi": 62,
          "name": "D4",
          "ticks": 166656,
          "time": 130.2,
          "velocity": 0.7874015748031497
        },
        {
          "duration": 0.07499999999998863,
          "durationTicks": 96,
          "midi": 65,
          "name": "F4",
          "ticks": 166752,
          "time": 130.275,
          "velocity": 0.7874015748031497
        },
        {
          "duration": 0.07499999999998863,
          "durationTicks": 96,
          "midi": 62,
          "name": "D4",
          "ticks": 166848,
          "time": 130.35,
          "velocity": 0.7874015748031497
        },
        {
          "duration": 0.07500000000001705,
          "durationTicks": 96,
          "midi": 65,
          "name": "F4",
          "ticks": 166944,
          "time": 130.42499999999998,
          "velocity": 0.7874015748031497
        },
        {
          "duration": 0.07499999999998863,
          "durationTicks": 96,
          "midi": 62,
          "name": "D4",
          "ticks": 167040,
          "time": 130.5,
          "velocity": 0.7874015748031497
        },
        {
          "duration": 0.07500000000001705,
          "durationTicks": 96,
          "midi": 65,
          "name": "F4",
          "ticks": 167136,
          "time": 130.575,
          "velocity": 0.7874015748031497
        },
        {
          "duration": 0.07499999999998863,
          "durationTicks": 96,
          "midi": 62,
          "name": "D4",
          "ticks": 167232,
          "time": 130.65,
          "velocity": 0.7874015748031497
        },
        {
          "duration": 0.07499999999998863,
          "durationTicks": 96,
          "midi": 65,
          "name": "F4",
          "ticks": 167328,
          "time": 130.725,
          "velocity": 0.7874015748031497
        },
        {
          "duration": 0.07500000000001705,
          "durationTicks": 96,
          "midi": 63,
          "name": "D#4",
          "ticks": 167424,
          "time": 130.79999999999998,
          "velocity": 0.7874015748031497
        },
        {
          "duration": 0.07499999999998863,
          "durationTicks": 96,
          "midi": 60,
          "name": "C4",
          "ticks": 167520,
          "time": 130.875,
          "velocity": 0.7874015748031497
        },
        {
          "duration": 0.07500000000001705,
          "durationTicks": 96,
          "midi": 63,
          "name": "D#4",
          "ticks": 167616,
          "time": 130.95,
          "velocity": 0.7874015748031497
        },
        {
          "duration": 0.07499999999998863,
          "durationTicks": 96,
          "midi": 60,
          "name": "C4",
          "ticks": 167712,
          "time": 131.025,
          "velocity": 0.7874015748031497
        },
        {
          "duration": 0.07499999999998863,
          "durationTicks": 96,
          "midi": 63,
          "name": "D#4",
          "ticks": 167808,
          "time": 131.1,
          "velocity": 0.7874015748031497
        },
        {
          "duration": 0.07500000000001705,
          "durationTicks": 96,
          "midi": 60,
          "name": "C4",
          "ticks": 167904,
          "time": 131.17499999999998,
          "velocity": 0.7874015748031497
        },
        {
          "duration": 0.07499999999998863,
          "durationTicks": 96,
          "midi": 63,
          "name": "D#4",
          "ticks": 168000,
          "time": 131.25,
          "velocity": 0.7874015748031497
        },
        {
          "duration": 0.07500000000001705,
          "durationTicks": 96,
          "midi": 60,
          "name": "C4",
          "ticks": 168096,
          "time": 131.325,
          "velocity": 0.7874015748031497
        },
        {
          "duration": 0.07499999999998863,
          "durationTicks": 96,
          "midi": 63,
          "name": "D#4",
          "ticks": 168192,
          "time": 131.4,
          "velocity": 0.7874015748031497
        },
        {
          "duration": 0.07499999999998863,
          "durationTicks": 96,
          "midi": 60,
          "name": "C4",
          "ticks": 168288,
          "time": 131.475,
          "velocity": 0.7874015748031497
        },
        {
          "duration": 0.07500000000001705,
          "durationTicks": 96,
          "midi": 63,
          "name": "D#4",
          "ticks": 168384,
          "time": 131.54999999999998,
          "velocity": 0.7874015748031497
        },
        {
          "duration": 0.07499999999998863,
          "durationTicks": 96,
          "midi": 60,
          "name": "C4",
          "ticks": 168480,
          "time": 131.625,
          "velocity": 0.7874015748031497
        },
        {
          "duration": 0.07500000000001705,
          "durationTicks": 96,
          "midi": 63,
          "name": "D#4",
          "ticks": 168576,
          "time": 131.7,
          "velocity": 0.7874015748031497
        },
        {
          "duration": 0.07499999999998863,
          "durationTicks": 96,
          "midi": 60,
          "name": "C4",
          "ticks": 168672,
          "time": 131.775,
          "velocity": 0.7874015748031497
        },
        {
          "duration": 0.07499999999998863,
          "durationTicks": 96,
          "midi": 63,
          "name": "D#4",
          "ticks": 168768,
          "time": 131.85,
          "velocity": 0.7874015748031497
        },
        {
          "duration": 0.07500000000001705,
          "durationTicks": 96,
          "midi": 60,
          "name": "C4",
          "ticks": 168864,
          "time": 131.92499999999998,
          "velocity": 0.7874015748031497
        },
        {
          "duration": 0.07499999999998863,
          "durationTicks": 96,
          "midi": 62,
          "name": "D4",
          "ticks": 168960,
          "time": 132,
          "velocity": 0.7874015748031497
        },
        {
          "duration": 0.07500000000001705,
          "durationTicks": 96,
          "midi": 65,
          "name": "F4",
          "ticks": 169056,
          "time": 132.075,
          "velocity": 0.7874015748031497
        },
        {
          "duration": 0.07499999999998863,
          "durationTicks": 96,
          "midi": 62,
          "name": "D4",
          "ticks": 169152,
          "time": 132.15,
          "velocity": 0.7874015748031497
        },
        {
          "duration": 0.07499999999998863,
          "durationTicks": 96,
          "midi": 65,
          "name": "F4",
          "ticks": 169248,
          "time": 132.225,
          "velocity": 0.7874015748031497
        },
        {
          "duration": 0.07500000000001705,
          "durationTicks": 96,
          "midi": 62,
          "name": "D4",
          "ticks": 169344,
          "time": 132.29999999999998,
          "velocity": 0.7874015748031497
        },
        {
          "duration": 0.07499999999998863,
          "durationTicks": 96,
          "midi": 65,
          "name": "F4",
          "ticks": 169440,
          "time": 132.375,
          "velocity": 0.7874015748031497
        },
        {
          "duration": 0.07500000000001705,
          "durationTicks": 96,
          "midi": 62,
          "name": "D4",
          "ticks": 169536,
          "time": 132.45,
          "velocity": 0.7874015748031497
        },
        {
          "duration": 0.07499999999998863,
          "durationTicks": 96,
          "midi": 65,
          "name": "F4",
          "ticks": 169632,
          "time": 132.525,
          "velocity": 0.7874015748031497
        },
        {
          "duration": 0.07499999999998863,
          "durationTicks": 96,
          "midi": 62,
          "name": "D4",
          "ticks": 169728,
          "time": 132.6,
          "velocity": 0.7874015748031497
        },
        {
          "duration": 0.07500000000001705,
          "durationTicks": 96,
          "midi": 65,
          "name": "F4",
          "ticks": 169824,
          "time": 132.67499999999998,
          "velocity": 0.7874015748031497
        },
        {
          "duration": 0.07499999999998863,
          "durationTicks": 96,
          "midi": 62,
          "name": "D4",
          "ticks": 169920,
          "time": 132.75,
          "velocity": 0.7874015748031497
        },
        {
          "duration": 0.07500000000001705,
          "durationTicks": 96,
          "midi": 65,
          "name": "F4",
          "ticks": 170016,
          "time": 132.825,
          "velocity": 0.7874015748031497
        },
        {
          "duration": 0.07499999999998863,
          "durationTicks": 96,
          "midi": 62,
          "name": "D4",
          "ticks": 170112,
          "time": 132.9,
          "velocity": 0.7874015748031497
        },
        {
          "duration": 0.07499999999998863,
          "durationTicks": 96,
          "midi": 65,
          "name": "F4",
          "ticks": 170208,
          "time": 132.975,
          "velocity": 0.7874015748031497
        },
        {
          "duration": 0.07500000000001705,
          "durationTicks": 96,
          "midi": 62,
          "name": "D4",
          "ticks": 170304,
          "time": 133.04999999999998,
          "velocity": 0.7874015748031497
        },
        {
          "duration": 0.07499999999998863,
          "durationTicks": 96,
          "midi": 65,
          "name": "F4",
          "ticks": 170400,
          "time": 133.125,
          "velocity": 0.7874015748031497
        },
        {
          "duration": 0.07500000000001705,
          "durationTicks": 96,
          "midi": 63,
          "name": "D#4",
          "ticks": 170496,
          "time": 133.2,
          "velocity": 0.7874015748031497
        },
        {
          "duration": 0.07499999999998863,
          "durationTicks": 96,
          "midi": 67,
          "name": "G4",
          "ticks": 170592,
          "time": 133.275,
          "velocity": 0.7874015748031497
        },
        {
          "duration": 0.07499999999998863,
          "durationTicks": 96,
          "midi": 63,
          "name": "D#4",
          "ticks": 170688,
          "time": 133.35,
          "velocity": 0.7874015748031497
        },
        {
          "duration": 0.07500000000001705,
          "durationTicks": 96,
          "midi": 67,
          "name": "G4",
          "ticks": 170784,
          "time": 133.42499999999998,
          "velocity": 0.7874015748031497
        },
        {
          "duration": 0.07499999999998863,
          "durationTicks": 96,
          "midi": 63,
          "name": "D#4",
          "ticks": 170880,
          "time": 133.5,
          "velocity": 0.7874015748031497
        },
        {
          "duration": 0.07500000000001705,
          "durationTicks": 96,
          "midi": 67,
          "name": "G4",
          "ticks": 170976,
          "time": 133.575,
          "velocity": 0.7874015748031497
        },
        {
          "duration": 0.07499999999998863,
          "durationTicks": 96,
          "midi": 63,
          "name": "D#4",
          "ticks": 171072,
          "time": 133.65,
          "velocity": 0.7874015748031497
        },
        {
          "duration": 0.07499999999998863,
          "durationTicks": 96,
          "midi": 67,
          "name": "G4",
          "ticks": 171168,
          "time": 133.725,
          "velocity": 0.7874015748031497
        },
        {
          "duration": 0.07500000000001705,
          "durationTicks": 96,
          "midi": 63,
          "name": "D#4",
          "ticks": 171264,
          "time": 133.79999999999998,
          "velocity": 0.7874015748031497
        },
        {
          "duration": 0.07499999999998863,
          "durationTicks": 96,
          "midi": 67,
          "name": "G4",
          "ticks": 171360,
          "time": 133.875,
          "velocity": 0.7874015748031497
        },
        {
          "duration": 0.07500000000001705,
          "durationTicks": 96,
          "midi": 63,
          "name": "D#4",
          "ticks": 171456,
          "time": 133.95,
          "velocity": 0.7874015748031497
        },
        {
          "duration": 0.07499999999998863,
          "durationTicks": 96,
          "midi": 67,
          "name": "G4",
          "ticks": 171552,
          "time": 134.025,
          "velocity": 0.7874015748031497
        },
        {
          "duration": 0.07499999999998863,
          "durationTicks": 96,
          "midi": 63,
          "name": "D#4",
          "ticks": 171648,
          "time": 134.1,
          "velocity": 0.7874015748031497
        },
        {
          "duration": 0.07500000000001705,
          "durationTicks": 96,
          "midi": 67,
          "name": "G4",
          "ticks": 171744,
          "time": 134.17499999999998,
          "velocity": 0.7874015748031497
        },
        {
          "duration": 0.07499999999998863,
          "durationTicks": 96,
          "midi": 63,
          "name": "D#4",
          "ticks": 171840,
          "time": 134.25,
          "velocity": 0.7874015748031497
        },
        {
          "duration": 0.07500000000001705,
          "durationTicks": 96,
          "midi": 67,
          "name": "G4",
          "ticks": 171936,
          "time": 134.325,
          "velocity": 0.7874015748031497
        },
        {
          "duration": 0.07499999999998863,
          "durationTicks": 96,
          "midi": 65,
          "name": "F4",
          "ticks": 172032,
          "time": 134.4,
          "velocity": 0.7874015748031497
        },
        {
          "duration": 0.07499999999998863,
          "durationTicks": 96,
          "midi": 69,
          "name": "A4",
          "ticks": 172128,
          "time": 134.475,
          "velocity": 0.7874015748031497
        },
        {
          "duration": 0.07500000000001705,
          "durationTicks": 96,
          "midi": 65,
          "name": "F4",
          "ticks": 172224,
          "time": 134.54999999999998,
          "velocity": 0.7874015748031497
        },
        {
          "duration": 0.07499999999998863,
          "durationTicks": 96,
          "midi": 69,
          "name": "A4",
          "ticks": 172320,
          "time": 134.625,
          "velocity": 0.7874015748031497
        },
        {
          "duration": 0.07500000000001705,
          "durationTicks": 96,
          "midi": 65,
          "name": "F4",
          "ticks": 172416,
          "time": 134.7,
          "velocity": 0.7874015748031497
        },
        {
          "duration": 0.07499999999998863,
          "durationTicks": 96,
          "midi": 69,
          "name": "A4",
          "ticks": 172512,
          "time": 134.775,
          "velocity": 0.7874015748031497
        },
        {
          "duration": 0.07499999999998863,
          "durationTicks": 96,
          "midi": 65,
          "name": "F4",
          "ticks": 172608,
          "time": 134.85,
          "velocity": 0.7874015748031497
        },
        {
          "duration": 0.07500000000001705,
          "durationTicks": 96,
          "midi": 69,
          "name": "A4",
          "ticks": 172704,
          "time": 134.92499999999998,
          "velocity": 0.7874015748031497
        },
        {
          "duration": 0.07499999999998863,
          "durationTicks": 96,
          "midi": 65,
          "name": "F4",
          "ticks": 172800,
          "time": 135,
          "velocity": 0.7874015748031497
        },
        {
          "duration": 0.07500000000001705,
          "durationTicks": 96,
          "midi": 69,
          "name": "A4",
          "ticks": 172896,
          "time": 135.075,
          "velocity": 0.7874015748031497
        },
        {
          "duration": 0.07499999999998863,
          "durationTicks": 96,
          "midi": 65,
          "name": "F4",
          "ticks": 172992,
          "time": 135.15,
          "velocity": 0.7874015748031497
        },
        {
          "duration": 0.07499999999998863,
          "durationTicks": 96,
          "midi": 69,
          "name": "A4",
          "ticks": 173088,
          "time": 135.225,
          "velocity": 0.7874015748031497
        },
        {
          "duration": 0.07500000000001705,
          "durationTicks": 96,
          "midi": 65,
          "name": "F4",
          "ticks": 173184,
          "time": 135.29999999999998,
          "velocity": 0.7874015748031497
        },
        {
          "duration": 0.07499999999998863,
          "durationTicks": 96,
          "midi": 69,
          "name": "A4",
          "ticks": 173280,
          "time": 135.375,
          "velocity": 0.7874015748031497
        },
        {
          "duration": 0.07500000000001705,
          "durationTicks": 96,
          "midi": 65,
          "name": "F4",
          "ticks": 173376,
          "time": 135.45,
          "velocity": 0.7874015748031497
        },
        {
          "duration": 0.07499999999998863,
          "durationTicks": 96,
          "midi": 69,
          "name": "A4",
          "ticks": 173472,
          "time": 135.525,
          "velocity": 0.7874015748031497
        },
        {
          "duration": 0.07499999999998863,
          "durationTicks": 96,
          "midi": 62,
          "name": "D4",
          "ticks": 173568,
          "time": 135.6,
          "velocity": 0.7874015748031497
        },
        {
          "duration": 0.07500000000001705,
          "durationTicks": 96,
          "midi": 70,
          "name": "A#4",
          "ticks": 173664,
          "time": 135.67499999999998,
          "velocity": 0.7874015748031497
        },
        {
          "duration": 0.07499999999998863,
          "durationTicks": 96,
          "midi": 62,
          "name": "D4",
          "ticks": 173760,
          "time": 135.75,
          "velocity": 0.7874015748031497
        },
        {
          "duration": 0.07500000000001705,
          "durationTicks": 96,
          "midi": 70,
          "name": "A#4",
          "ticks": 173856,
          "time": 135.825,
          "velocity": 0.7874015748031497
        },
        {
          "duration": 0.07499999999998863,
          "durationTicks": 96,
          "midi": 62,
          "name": "D4",
          "ticks": 173952,
          "time": 135.9,
          "velocity": 0.7874015748031497
        },
        {
          "duration": 0.07499999999998863,
          "durationTicks": 96,
          "midi": 70,
          "name": "A#4",
          "ticks": 174048,
          "time": 135.975,
          "velocity": 0.7874015748031497
        },
        {
          "duration": 0.07500000000001705,
          "durationTicks": 96,
          "midi": 62,
          "name": "D4",
          "ticks": 174144,
          "time": 136.04999999999998,
          "velocity": 0.7874015748031497
        },
        {
          "duration": 0.07499999999998863,
          "durationTicks": 96,
          "midi": 70,
          "name": "A#4",
          "ticks": 174240,
          "time": 136.125,
          "velocity": 0.7874015748031497
        },
        {
          "duration": 0.07500000000001705,
          "durationTicks": 96,
          "midi": 62,
          "name": "D4",
          "ticks": 174336,
          "time": 136.2,
          "velocity": 0.7874015748031497
        },
        {
          "duration": 0.07499999999998863,
          "durationTicks": 96,
          "midi": 70,
          "name": "A#4",
          "ticks": 174432,
          "time": 136.275,
          "velocity": 0.7874015748031497
        },
        {
          "duration": 0.07499999999998863,
          "durationTicks": 96,
          "midi": 62,
          "name": "D4",
          "ticks": 174528,
          "time": 136.35,
          "velocity": 0.7874015748031497
        },
        {
          "duration": 0.07500000000001705,
          "durationTicks": 96,
          "midi": 70,
          "name": "A#4",
          "ticks": 174624,
          "time": 136.42499999999998,
          "velocity": 0.7874015748031497
        },
        {
          "duration": 0.07499999999998863,
          "durationTicks": 96,
          "midi": 62,
          "name": "D4",
          "ticks": 174720,
          "time": 136.5,
          "velocity": 0.7874015748031497
        },
        {
          "duration": 0.07500000000001705,
          "durationTicks": 96,
          "midi": 70,
          "name": "A#4",
          "ticks": 174816,
          "time": 136.575,
          "velocity": 0.7874015748031497
        },
        {
          "duration": 0.07499999999998863,
          "durationTicks": 96,
          "midi": 62,
          "name": "D4",
          "ticks": 174912,
          "time": 136.65,
          "velocity": 0.7874015748031497
        },
        {
          "duration": 0.07499999999998863,
          "durationTicks": 96,
          "midi": 70,
          "name": "A#4",
          "ticks": 175008,
          "time": 136.725,
          "velocity": 0.7874015748031497
        },
        {
          "duration": 0.07500000000001705,
          "durationTicks": 96,
          "midi": 62,
          "name": "D4",
          "ticks": 175104,
          "time": 136.79999999999998,
          "velocity": 0.7874015748031497
        },
        {
          "duration": 0.07499999999998863,
          "durationTicks": 96,
          "midi": 68,
          "name": "G#4",
          "ticks": 175200,
          "time": 136.875,
          "velocity": 0.7874015748031497
        },
        {
          "duration": 0.07500000000001705,
          "durationTicks": 96,
          "midi": 62,
          "name": "D4",
          "ticks": 175296,
          "time": 136.95,
          "velocity": 0.7874015748031497
        },
        {
          "duration": 0.07499999999998863,
          "durationTicks": 96,
          "midi": 68,
          "name": "G#4",
          "ticks": 175392,
          "time": 137.025,
          "velocity": 0.7874015748031497
        },
        {
          "duration": 0.07499999999998863,
          "durationTicks": 96,
          "midi": 62,
          "name": "D4",
          "ticks": 175488,
          "time": 137.1,
          "velocity": 0.7874015748031497
        },
        {
          "duration": 0.07500000000001705,
          "durationTicks": 96,
          "midi": 68,
          "name": "G#4",
          "ticks": 175584,
          "time": 137.17499999999998,
          "velocity": 0.7874015748031497
        },
        {
          "duration": 0.07499999999998863,
          "durationTicks": 96,
          "midi": 62,
          "name": "D4",
          "ticks": 175680,
          "time": 137.25,
          "velocity": 0.7874015748031497
        },
        {
          "duration": 0.07500000000001705,
          "durationTicks": 96,
          "midi": 68,
          "name": "G#4",
          "ticks": 175776,
          "time": 137.325,
          "velocity": 0.7874015748031497
        },
        {
          "duration": 0.07499999999998863,
          "durationTicks": 96,
          "midi": 62,
          "name": "D4",
          "ticks": 175872,
          "time": 137.4,
          "velocity": 0.7874015748031497
        },
        {
          "duration": 0.07499999999998863,
          "durationTicks": 96,
          "midi": 68,
          "name": "G#4",
          "ticks": 175968,
          "time": 137.475,
          "velocity": 0.7874015748031497
        },
        {
          "duration": 0.07500000000001705,
          "durationTicks": 96,
          "midi": 62,
          "name": "D4",
          "ticks": 176064,
          "time": 137.54999999999998,
          "velocity": 0.7874015748031497
        },
        {
          "duration": 0.07499999999998863,
          "durationTicks": 96,
          "midi": 68,
          "name": "G#4",
          "ticks": 176160,
          "time": 137.625,
          "velocity": 0.7874015748031497
        },
        {
          "duration": 0.07500000000001705,
          "durationTicks": 96,
          "midi": 62,
          "name": "D4",
          "ticks": 176256,
          "time": 137.7,
          "velocity": 0.7874015748031497
        },
        {
          "duration": 0.07499999999998863,
          "durationTicks": 96,
          "midi": 68,
          "name": "G#4",
          "ticks": 176352,
          "time": 137.775,
          "velocity": 0.7874015748031497
        },
        {
          "duration": 0.07499999999998863,
          "durationTicks": 96,
          "midi": 62,
          "name": "D4",
          "ticks": 176448,
          "time": 137.85,
          "velocity": 0.7874015748031497
        },
        {
          "duration": 0.07500000000001705,
          "durationTicks": 96,
          "midi": 68,
          "name": "G#4",
          "ticks": 176544,
          "time": 137.92499999999998,
          "velocity": 0.7874015748031497
        },
        {
          "duration": 0.07499999999998863,
          "durationTicks": 96,
          "midi": 67,
          "name": "G4",
          "ticks": 176640,
          "time": 138,
          "velocity": 0.7874015748031497
        },
        {
          "duration": 0.07500000000001705,
          "durationTicks": 96,
          "midi": 63,
          "name": "D#4",
          "ticks": 176736,
          "time": 138.075,
          "velocity": 0.7874015748031497
        },
        {
          "duration": 0.07499999999998863,
          "durationTicks": 96,
          "midi": 67,
          "name": "G4",
          "ticks": 176832,
          "time": 138.15,
          "velocity": 0.7874015748031497
        },
        {
          "duration": 0.07499999999998863,
          "durationTicks": 96,
          "midi": 63,
          "name": "D#4",
          "ticks": 176928,
          "time": 138.225,
          "velocity": 0.7874015748031497
        },
        {
          "duration": 0.07500000000001705,
          "durationTicks": 96,
          "midi": 67,
          "name": "G4",
          "ticks": 177024,
          "time": 138.29999999999998,
          "velocity": 0.7874015748031497
        },
        {
          "duration": 0.07499999999998863,
          "durationTicks": 96,
          "midi": 63,
          "name": "D#4",
          "ticks": 177120,
          "time": 138.375,
          "velocity": 0.7874015748031497
        },
        {
          "duration": 0.07500000000001705,
          "durationTicks": 96,
          "midi": 67,
          "name": "G4",
          "ticks": 177216,
          "time": 138.45,
          "velocity": 0.7874015748031497
        },
        {
          "duration": 0.07499999999998863,
          "durationTicks": 96,
          "midi": 63,
          "name": "D#4",
          "ticks": 177312,
          "time": 138.525,
          "velocity": 0.7874015748031497
        },
        {
          "duration": 0.07499999999998863,
          "durationTicks": 96,
          "midi": 67,
          "name": "G4",
          "ticks": 177408,
          "time": 138.6,
          "velocity": 0.7874015748031497
        },
        {
          "duration": 0.07500000000001705,
          "durationTicks": 96,
          "midi": 63,
          "name": "D#4",
          "ticks": 177504,
          "time": 138.67499999999998,
          "velocity": 0.7874015748031497
        },
        {
          "duration": 0.07499999999998863,
          "durationTicks": 96,
          "midi": 67,
          "name": "G4",
          "ticks": 177600,
          "time": 138.75,
          "velocity": 0.7874015748031497
        },
        {
          "duration": 0.07500000000001705,
          "durationTicks": 96,
          "midi": 63,
          "name": "D#4",
          "ticks": 177696,
          "time": 138.825,
          "velocity": 0.7874015748031497
        },
        {
          "duration": 0.07499999999998863,
          "durationTicks": 96,
          "midi": 67,
          "name": "G4",
          "ticks": 177792,
          "time": 138.9,
          "velocity": 0.7874015748031497
        },
        {
          "duration": 0.07499999999998863,
          "durationTicks": 96,
          "midi": 63,
          "name": "D#4",
          "ticks": 177888,
          "time": 138.975,
          "velocity": 0.7874015748031497
        },
        {
          "duration": 0.07500000000001705,
          "durationTicks": 96,
          "midi": 67,
          "name": "G4",
          "ticks": 177984,
          "time": 139.04999999999998,
          "velocity": 0.7874015748031497
        },
        {
          "duration": 0.07499999999998863,
          "durationTicks": 96,
          "midi": 63,
          "name": "D#4",
          "ticks": 178080,
          "time": 139.125,
          "velocity": 0.7874015748031497
        },
        {
          "duration": 0.07500000000001705,
          "durationTicks": 96,
          "midi": 69,
          "name": "A4",
          "ticks": 178176,
          "time": 139.2,
          "velocity": 0.7874015748031497
        },
        {
          "duration": 0.07499999999998863,
          "durationTicks": 96,
          "midi": 65,
          "name": "F4",
          "ticks": 178272,
          "time": 139.275,
          "velocity": 0.7874015748031497
        },
        {
          "duration": 0.07499999999998863,
          "durationTicks": 96,
          "midi": 69,
          "name": "A4",
          "ticks": 178368,
          "time": 139.35,
          "velocity": 0.7874015748031497
        },
        {
          "duration": 0.07500000000001705,
          "durationTicks": 96,
          "midi": 65,
          "name": "F4",
          "ticks": 178464,
          "time": 139.42499999999998,
          "velocity": 0.7874015748031497
        },
        {
          "duration": 0.07499999999998863,
          "durationTicks": 96,
          "midi": 69,
          "name": "A4",
          "ticks": 178560,
          "time": 139.5,
          "velocity": 0.7874015748031497
        },
        {
          "duration": 0.07500000000001705,
          "durationTicks": 96,
          "midi": 65,
          "name": "F4",
          "ticks": 178656,
          "time": 139.575,
          "velocity": 0.7874015748031497
        },
        {
          "duration": 0.07499999999998863,
          "durationTicks": 96,
          "midi": 69,
          "name": "A4",
          "ticks": 178752,
          "time": 139.65,
          "velocity": 0.7874015748031497
        },
        {
          "duration": 0.07499999999998863,
          "durationTicks": 96,
          "midi": 65,
          "name": "F4",
          "ticks": 178848,
          "time": 139.725,
          "velocity": 0.7874015748031497
        },
        {
          "duration": 0.07500000000001705,
          "durationTicks": 96,
          "midi": 69,
          "name": "A4",
          "ticks": 178944,
          "time": 139.79999999999998,
          "velocity": 0.7874015748031497
        },
        {
          "duration": 0.07499999999998863,
          "durationTicks": 96,
          "midi": 65,
          "name": "F4",
          "ticks": 179040,
          "time": 139.875,
          "velocity": 0.7874015748031497
        },
        {
          "duration": 0.07500000000001705,
          "durationTicks": 96,
          "midi": 69,
          "name": "A4",
          "ticks": 179136,
          "time": 139.95,
          "velocity": 0.7874015748031497
        },
        {
          "duration": 0.07499999999998863,
          "durationTicks": 96,
          "midi": 65,
          "name": "F4",
          "ticks": 179232,
          "time": 140.025,
          "velocity": 0.7874015748031497
        },
        {
          "duration": 0.07499999999998863,
          "durationTicks": 96,
          "midi": 69,
          "name": "A4",
          "ticks": 179328,
          "time": 140.1,
          "velocity": 0.7874015748031497
        },
        {
          "duration": 0.07500000000001705,
          "durationTicks": 96,
          "midi": 65,
          "name": "F4",
          "ticks": 179424,
          "time": 140.17499999999998,
          "velocity": 0.7874015748031497
        },
        {
          "duration": 0.07499999999998863,
          "durationTicks": 96,
          "midi": 69,
          "name": "A4",
          "ticks": 179520,
          "time": 140.25,
          "velocity": 0.7874015748031497
        },
        {
          "duration": 0.07500000000001705,
          "durationTicks": 96,
          "midi": 65,
          "name": "F4",
          "ticks": 179616,
          "time": 140.325,
          "velocity": 0.7874015748031497
        },
        {
          "duration": 0.07499999999998863,
          "durationTicks": 96,
          "midi": 70,
          "name": "A#4",
          "ticks": 179712,
          "time": 140.4,
          "velocity": 0.7874015748031497
        },
        {
          "duration": 0.07499999999998863,
          "durationTicks": 96,
          "midi": 67,
          "name": "G4",
          "ticks": 179808,
          "time": 140.475,
          "velocity": 0.7874015748031497
        },
        {
          "duration": 0.07500000000001705,
          "durationTicks": 96,
          "midi": 70,
          "name": "A#4",
          "ticks": 179904,
          "time": 140.54999999999998,
          "velocity": 0.7874015748031497
        },
        {
          "duration": 0.07499999999998863,
          "durationTicks": 96,
          "midi": 67,
          "name": "G4",
          "ticks": 180000,
          "time": 140.625,
          "velocity": 0.7874015748031497
        },
        {
          "duration": 0.07500000000001705,
          "durationTicks": 96,
          "midi": 70,
          "name": "A#4",
          "ticks": 180096,
          "time": 140.7,
          "velocity": 0.7874015748031497
        },
        {
          "duration": 0.07499999999998863,
          "durationTicks": 96,
          "midi": 67,
          "name": "G4",
          "ticks": 180192,
          "time": 140.775,
          "velocity": 0.7874015748031497
        },
        {
          "duration": 0.07499999999998863,
          "durationTicks": 96,
          "midi": 70,
          "name": "A#4",
          "ticks": 180288,
          "time": 140.85,
          "velocity": 0.7874015748031497
        },
        {
          "duration": 0.07500000000001705,
          "durationTicks": 96,
          "midi": 67,
          "name": "G4",
          "ticks": 180384,
          "time": 140.92499999999998,
          "velocity": 0.7874015748031497
        },
        {
          "duration": 0.07499999999998863,
          "durationTicks": 96,
          "midi": 74,
          "name": "D5",
          "ticks": 180480,
          "time": 141,
          "velocity": 0.7874015748031497
        },
        {
          "duration": 0.07500000000001705,
          "durationTicks": 96,
          "midi": 70,
          "name": "A#4",
          "ticks": 180576,
          "time": 141.075,
          "velocity": 0.7874015748031497
        },
        {
          "duration": 0.07499999999998863,
          "durationTicks": 96,
          "midi": 74,
          "name": "D5",
          "ticks": 180672,
          "time": 141.15,
          "velocity": 0.7874015748031497
        },
        {
          "duration": 0.07499999999998863,
          "durationTicks": 96,
          "midi": 70,
          "name": "A#4",
          "ticks": 180768,
          "time": 141.225,
          "velocity": 0.7874015748031497
        },
        {
          "duration": 0.07500000000001705,
          "durationTicks": 96,
          "midi": 74,
          "name": "D5",
          "ticks": 180864,
          "time": 141.29999999999998,
          "velocity": 0.7874015748031497
        },
        {
          "duration": 0.07499999999998863,
          "durationTicks": 96,
          "midi": 70,
          "name": "A#4",
          "ticks": 180960,
          "time": 141.375,
          "velocity": 0.7874015748031497
        },
        {
          "duration": 0.07500000000001705,
          "durationTicks": 96,
          "midi": 74,
          "name": "D5",
          "ticks": 181056,
          "time": 141.45,
          "velocity": 0.7874015748031497
        },
        {
          "duration": 0.07499999999998863,
          "durationTicks": 96,
          "midi": 70,
          "name": "A#4",
          "ticks": 181152,
          "time": 141.525,
          "velocity": 0.7874015748031497
        },
        {
          "duration": 0.07499999999998863,
          "durationTicks": 96,
          "midi": 76,
          "name": "E5",
          "ticks": 181248,
          "time": 141.6,
          "velocity": 0.7874015748031497
        },
        {
          "duration": 0.07500000000001705,
          "durationTicks": 96,
          "midi": 67,
          "name": "G4",
          "ticks": 181344,
          "time": 141.67499999999998,
          "velocity": 0.7874015748031497
        },
        {
          "duration": 0.07499999999998863,
          "durationTicks": 96,
          "midi": 76,
          "name": "E5",
          "ticks": 181440,
          "time": 141.75,
          "velocity": 0.7874015748031497
        },
        {
          "duration": 0.07500000000001705,
          "durationTicks": 96,
          "midi": 67,
          "name": "G4",
          "ticks": 181536,
          "time": 141.825,
          "velocity": 0.7874015748031497
        },
        {
          "duration": 0.07499999999998863,
          "durationTicks": 96,
          "midi": 76,
          "name": "E5",
          "ticks": 181632,
          "time": 141.9,
          "velocity": 0.7874015748031497
        },
        {
          "duration": 0.07499999999998863,
          "durationTicks": 96,
          "midi": 67,
          "name": "G4",
          "ticks": 181728,
          "time": 141.975,
          "velocity": 0.7874015748031497
        },
        {
          "duration": 0.07500000000001705,
          "durationTicks": 96,
          "midi": 76,
          "name": "E5",
          "ticks": 181824,
          "time": 142.04999999999998,
          "velocity": 0.7874015748031497
        },
        {
          "duration": 0.07499999999998863,
          "durationTicks": 96,
          "midi": 67,
          "name": "G4",
          "ticks": 181920,
          "time": 142.125,
          "velocity": 0.7874015748031497
        },
        {
          "duration": 0.07500000000001705,
          "durationTicks": 96,
          "midi": 76,
          "name": "E5",
          "ticks": 182016,
          "time": 142.2,
          "velocity": 0.7874015748031497
        },
        {
          "duration": 0.07499999999998863,
          "durationTicks": 96,
          "midi": 67,
          "name": "G4",
          "ticks": 182112,
          "time": 142.275,
          "velocity": 0.7874015748031497
        },
        {
          "duration": 0.07499999999998863,
          "durationTicks": 96,
          "midi": 76,
          "name": "E5",
          "ticks": 182208,
          "time": 142.35,
          "velocity": 0.7874015748031497
        },
        {
          "duration": 0.07500000000001705,
          "durationTicks": 96,
          "midi": 67,
          "name": "G4",
          "ticks": 182304,
          "time": 142.42499999999998,
          "velocity": 0.7874015748031497
        },
        {
          "duration": 0.07499999999998863,
          "durationTicks": 96,
          "midi": 76,
          "name": "E5",
          "ticks": 182400,
          "time": 142.5,
          "velocity": 0.7874015748031497
        },
        {
          "duration": 0.07500000000001705,
          "durationTicks": 96,
          "midi": 67,
          "name": "G4",
          "ticks": 182496,
          "time": 142.575,
          "velocity": 0.7874015748031497
        },
        {
          "duration": 0.07499999999998863,
          "durationTicks": 96,
          "midi": 76,
          "name": "E5",
          "ticks": 182592,
          "time": 142.65,
          "velocity": 0.7874015748031497
        },
        {
          "duration": 0.07499999999998863,
          "durationTicks": 96,
          "midi": 67,
          "name": "G4",
          "ticks": 182688,
          "time": 142.725,
          "velocity": 0.7874015748031497
        },
        {
          "duration": 0.07500000000001705,
          "durationTicks": 96,
          "midi": 67,
          "name": "G4",
          "ticks": 182784,
          "time": 142.79999999999998,
          "velocity": 0.7874015748031497
        },
        {
          "duration": 0.07499999999998863,
          "durationTicks": 96,
          "midi": 75,
          "name": "D#5",
          "ticks": 182880,
          "time": 142.875,
          "velocity": 0.7874015748031497
        },
        {
          "duration": 0.07500000000001705,
          "durationTicks": 96,
          "midi": 67,
          "name": "G4",
          "ticks": 182976,
          "time": 142.95,
          "velocity": 0.7874015748031497
        },
        {
          "duration": 0.07499999999998863,
          "durationTicks": 96,
          "midi": 75,
          "name": "D#5",
          "ticks": 183072,
          "time": 143.025,
          "velocity": 0.7874015748031497
        },
        {
          "duration": 0.07499999999998863,
          "durationTicks": 96,
          "midi": 67,
          "name": "G4",
          "ticks": 183168,
          "time": 143.1,
          "velocity": 0.7874015748031497
        },
        {
          "duration": 0.07500000000001705,
          "durationTicks": 96,
          "midi": 75,
          "name": "D#5",
          "ticks": 183264,
          "time": 143.17499999999998,
          "velocity": 0.7874015748031497
        },
        {
          "duration": 0.07499999999998863,
          "durationTicks": 96,
          "midi": 67,
          "name": "G4",
          "ticks": 183360,
          "time": 143.25,
          "velocity": 0.7874015748031497
        },
        {
          "duration": 0.07500000000001705,
          "durationTicks": 96,
          "midi": 75,
          "name": "D#5",
          "ticks": 183456,
          "time": 143.325,
          "velocity": 0.7874015748031497
        },
        {
          "duration": 0.07499999999998863,
          "durationTicks": 96,
          "midi": 67,
          "name": "G4",
          "ticks": 183552,
          "time": 143.4,
          "velocity": 0.7874015748031497
        },
        {
          "duration": 0.07499999999998863,
          "durationTicks": 96,
          "midi": 75,
          "name": "D#5",
          "ticks": 183648,
          "time": 143.475,
          "velocity": 0.7874015748031497
        },
        {
          "duration": 0.07500000000001705,
          "durationTicks": 96,
          "midi": 67,
          "name": "G4",
          "ticks": 183744,
          "time": 143.54999999999998,
          "velocity": 0.7874015748031497
        },
        {
          "duration": 0.07499999999998863,
          "durationTicks": 96,
          "midi": 75,
          "name": "D#5",
          "ticks": 183840,
          "time": 143.625,
          "velocity": 0.7874015748031497
        },
        {
          "duration": 0.07500000000001705,
          "durationTicks": 96,
          "midi": 67,
          "name": "G4",
          "ticks": 183936,
          "time": 143.7,
          "velocity": 0.7874015748031497
        },
        {
          "duration": 0.07499999999998863,
          "durationTicks": 96,
          "midi": 75,
          "name": "D#5",
          "ticks": 184032,
          "time": 143.775,
          "velocity": 0.7874015748031497
        },
        {
          "duration": 0.07499999999998863,
          "durationTicks": 96,
          "midi": 67,
          "name": "G4",
          "ticks": 184128,
          "time": 143.85,
          "velocity": 0.7874015748031497
        },
        {
          "duration": 0.07500000000001705,
          "durationTicks": 96,
          "midi": 75,
          "name": "D#5",
          "ticks": 184224,
          "time": 143.92499999999998,
          "velocity": 0.7874015748031497
        },
        {
          "duration": 0.07499999999998863,
          "durationTicks": 96,
          "midi": 69,
          "name": "A4",
          "ticks": 184320,
          "time": 144,
          "velocity": 0.7874015748031497
        },
        {
          "duration": 0.07500000000001705,
          "durationTicks": 96,
          "midi": 77,
          "name": "F5",
          "ticks": 184416,
          "time": 144.075,
          "velocity": 0.7874015748031497
        },
        {
          "duration": 0.07499999999998863,
          "durationTicks": 96,
          "midi": 69,
          "name": "A4",
          "ticks": 184512,
          "time": 144.15,
          "velocity": 0.7874015748031497
        },
        {
          "duration": 0.07499999999998863,
          "durationTicks": 96,
          "midi": 77,
          "name": "F5",
          "ticks": 184608,
          "time": 144.225,
          "velocity": 0.7874015748031497
        },
        {
          "duration": 0.07500000000001705,
          "durationTicks": 96,
          "midi": 69,
          "name": "A4",
          "ticks": 184704,
          "time": 144.29999999999998,
          "velocity": 0.7874015748031497
        },
        {
          "duration": 0.07499999999998863,
          "durationTicks": 96,
          "midi": 77,
          "name": "F5",
          "ticks": 184800,
          "time": 144.375,
          "velocity": 0.7874015748031497
        },
        {
          "duration": 0.07500000000001705,
          "durationTicks": 96,
          "midi": 69,
          "name": "A4",
          "ticks": 184896,
          "time": 144.45,
          "velocity": 0.7874015748031497
        },
        {
          "duration": 0.07499999999998863,
          "durationTicks": 96,
          "midi": 77,
          "name": "F5",
          "ticks": 184992,
          "time": 144.525,
          "velocity": 0.7874015748031497
        },
        {
          "duration": 0.07499999999998863,
          "durationTicks": 96,
          "midi": 69,
          "name": "A4",
          "ticks": 185088,
          "time": 144.6,
          "velocity": 0.7874015748031497
        },
        {
          "duration": 0.07500000000001705,
          "durationTicks": 96,
          "midi": 77,
          "name": "F5",
          "ticks": 185184,
          "time": 144.67499999999998,
          "velocity": 0.7874015748031497
        },
        {
          "duration": 0.07499999999998863,
          "durationTicks": 96,
          "midi": 69,
          "name": "A4",
          "ticks": 185280,
          "time": 144.75,
          "velocity": 0.7874015748031497
        },
        {
          "duration": 0.07500000000001705,
          "durationTicks": 96,
          "midi": 77,
          "name": "F5",
          "ticks": 185376,
          "time": 144.825,
          "velocity": 0.7874015748031497
        },
        {
          "duration": 0.07499999999998863,
          "durationTicks": 96,
          "midi": 69,
          "name": "A4",
          "ticks": 185472,
          "time": 144.9,
          "velocity": 0.7874015748031497
        },
        {
          "duration": 0.07499999999998863,
          "durationTicks": 96,
          "midi": 77,
          "name": "F5",
          "ticks": 185568,
          "time": 144.975,
          "velocity": 0.7874015748031497
        },
        {
          "duration": 0.07500000000001705,
          "durationTicks": 96,
          "midi": 69,
          "name": "A4",
          "ticks": 185664,
          "time": 145.04999999999998,
          "velocity": 0.7874015748031497
        },
        {
          "duration": 0.07499999999998863,
          "durationTicks": 96,
          "midi": 77,
          "name": "F5",
          "ticks": 185760,
          "time": 145.125,
          "velocity": 0.7874015748031497
        },
        {
          "duration": 0.07500000000001705,
          "durationTicks": 96,
          "midi": 69,
          "name": "A4",
          "ticks": 198144,
          "time": 154.79999999999998,
          "velocity": 0.7874015748031497
        },
        {
          "duration": 0.07499999999998863,
          "durationTicks": 96,
          "midi": 65,
          "name": "F4",
          "ticks": 198240,
          "time": 154.875,
          "velocity": 0.7874015748031497
        },
        {
          "duration": 0.07500000000001705,
          "durationTicks": 96,
          "midi": 69,
          "name": "A4",
          "ticks": 198336,
          "time": 154.95,
          "velocity": 0.7874015748031497
        },
        {
          "duration": 0.07499999999998863,
          "durationTicks": 96,
          "midi": 65,
          "name": "F4",
          "ticks": 198432,
          "time": 155.025,
          "velocity": 0.7874015748031497
        },
        {
          "duration": 0.07499999999998863,
          "durationTicks": 96,
          "midi": 69,
          "name": "A4",
          "ticks": 198528,
          "time": 155.1,
          "velocity": 0.7874015748031497
        },
        {
          "duration": 0.07500000000001705,
          "durationTicks": 96,
          "midi": 65,
          "name": "F4",
          "ticks": 198624,
          "time": 155.17499999999998,
          "velocity": 0.7874015748031497
        },
        {
          "duration": 0.07499999999998863,
          "durationTicks": 96,
          "midi": 69,
          "name": "A4",
          "ticks": 198720,
          "time": 155.25,
          "velocity": 0.7874015748031497
        },
        {
          "duration": 0.07500000000001705,
          "durationTicks": 96,
          "midi": 65,
          "name": "F4",
          "ticks": 198816,
          "time": 155.325,
          "velocity": 0.7874015748031497
        },
        {
          "duration": 0.07499999999998863,
          "durationTicks": 96,
          "midi": 69,
          "name": "A4",
          "ticks": 198912,
          "time": 155.4,
          "velocity": 0.7874015748031497
        },
        {
          "duration": 0.07499999999998863,
          "durationTicks": 96,
          "midi": 65,
          "name": "F4",
          "ticks": 199008,
          "time": 155.475,
          "velocity": 0.7874015748031497
        },
        {
          "duration": 0.07500000000001705,
          "durationTicks": 96,
          "midi": 69,
          "name": "A4",
          "ticks": 199104,
          "time": 155.54999999999998,
          "velocity": 0.7874015748031497
        },
        {
          "duration": 0.07499999999998863,
          "durationTicks": 96,
          "midi": 65,
          "name": "F4",
          "ticks": 199200,
          "time": 155.625,
          "velocity": 0.7874015748031497
        },
        {
          "duration": 0.07500000000001705,
          "durationTicks": 96,
          "midi": 69,
          "name": "A4",
          "ticks": 199296,
          "time": 155.7,
          "velocity": 0.7874015748031497
        },
        {
          "duration": 0.07499999999998863,
          "durationTicks": 96,
          "midi": 65,
          "name": "F4",
          "ticks": 199392,
          "time": 155.775,
          "velocity": 0.7874015748031497
        },
        {
          "duration": 0.07499999999998863,
          "durationTicks": 96,
          "midi": 69,
          "name": "A4",
          "ticks": 199488,
          "time": 155.85,
          "velocity": 0.7874015748031497
        },
        {
          "duration": 0.07500000000001705,
          "durationTicks": 96,
          "midi": 65,
          "name": "F4",
          "ticks": 199584,
          "time": 155.92499999999998,
          "velocity": 0.7874015748031497
        },
        {
          "duration": 0.07499999999998863,
          "durationTicks": 96,
          "midi": 67,
          "name": "G4",
          "ticks": 199680,
          "time": 156,
          "velocity": 0.7874015748031497
        },
        {
          "duration": 0.07500000000001705,
          "durationTicks": 96,
          "midi": 64,
          "name": "E4",
          "ticks": 199776,
          "time": 156.075,
          "velocity": 0.7874015748031497
        },
        {
          "duration": 0.07499999999998863,
          "durationTicks": 96,
          "midi": 67,
          "name": "G4",
          "ticks": 199872,
          "time": 156.15,
          "velocity": 0.7874015748031497
        },
        {
          "duration": 0.07499999999998863,
          "durationTicks": 96,
          "midi": 64,
          "name": "E4",
          "ticks": 199968,
          "time": 156.225,
          "velocity": 0.7874015748031497
        },
        {
          "duration": 0.07500000000001705,
          "durationTicks": 96,
          "midi": 67,
          "name": "G4",
          "ticks": 200064,
          "time": 156.29999999999998,
          "velocity": 0.7874015748031497
        },
        {
          "duration": 0.07499999999998863,
          "durationTicks": 96,
          "midi": 64,
          "name": "E4",
          "ticks": 200160,
          "time": 156.375,
          "velocity": 0.7874015748031497
        },
        {
          "duration": 0.07500000000001705,
          "durationTicks": 96,
          "midi": 67,
          "name": "G4",
          "ticks": 200256,
          "time": 156.45,
          "velocity": 0.7874015748031497
        },
        {
          "duration": 0.07499999999998863,
          "durationTicks": 96,
          "midi": 64,
          "name": "E4",
          "ticks": 200352,
          "time": 156.525,
          "velocity": 0.7874015748031497
        },
        {
          "duration": 0.07499999999998863,
          "durationTicks": 96,
          "midi": 67,
          "name": "G4",
          "ticks": 200448,
          "time": 156.6,
          "velocity": 0.7874015748031497
        },
        {
          "duration": 0.07500000000001705,
          "durationTicks": 96,
          "midi": 64,
          "name": "E4",
          "ticks": 200544,
          "time": 156.67499999999998,
          "velocity": 0.7874015748031497
        },
        {
          "duration": 0.07499999999998863,
          "durationTicks": 96,
          "midi": 67,
          "name": "G4",
          "ticks": 200640,
          "time": 156.75,
          "velocity": 0.7874015748031497
        },
        {
          "duration": 0.07500000000001705,
          "durationTicks": 96,
          "midi": 64,
          "name": "E4",
          "ticks": 200736,
          "time": 156.825,
          "velocity": 0.7874015748031497
        },
        {
          "duration": 0.07499999999998863,
          "durationTicks": 96,
          "midi": 67,
          "name": "G4",
          "ticks": 200832,
          "time": 156.9,
          "velocity": 0.7874015748031497
        },
        {
          "duration": 0.07499999999998863,
          "durationTicks": 96,
          "midi": 64,
          "name": "E4",
          "ticks": 200928,
          "time": 156.975,
          "velocity": 0.7874015748031497
        },
        {
          "duration": 0.07500000000001705,
          "durationTicks": 96,
          "midi": 67,
          "name": "G4",
          "ticks": 201024,
          "time": 157.04999999999998,
          "velocity": 0.7874015748031497
        },
        {
          "duration": 0.07499999999998863,
          "durationTicks": 96,
          "midi": 64,
          "name": "E4",
          "ticks": 201120,
          "time": 157.125,
          "velocity": 0.7874015748031497
        },
        {
          "duration": 0.07500000000001705,
          "durationTicks": 96,
          "midi": 71,
          "name": "B4",
          "ticks": 201216,
          "time": 157.2,
          "velocity": 0.7874015748031497
        },
        {
          "duration": 0.07499999999998863,
          "durationTicks": 96,
          "midi": 67,
          "name": "G4",
          "ticks": 201312,
          "time": 157.275,
          "velocity": 0.7874015748031497
        },
        {
          "duration": 0.07499999999998863,
          "durationTicks": 96,
          "midi": 71,
          "name": "B4",
          "ticks": 201408,
          "time": 157.35,
          "velocity": 0.7874015748031497
        },
        {
          "duration": 0.07500000000001705,
          "durationTicks": 96,
          "midi": 67,
          "name": "G4",
          "ticks": 201504,
          "time": 157.42499999999998,
          "velocity": 0.7874015748031497
        },
        {
          "duration": 0.07499999999998863,
          "durationTicks": 96,
          "midi": 71,
          "name": "B4",
          "ticks": 201600,
          "time": 157.5,
          "velocity": 0.7874015748031497
        },
        {
          "duration": 0.07500000000001705,
          "durationTicks": 96,
          "midi": 67,
          "name": "G4",
          "ticks": 201696,
          "time": 157.575,
          "velocity": 0.7874015748031497
        },
        {
          "duration": 0.07499999999998863,
          "durationTicks": 96,
          "midi": 71,
          "name": "B4",
          "ticks": 201792,
          "time": 157.65,
          "velocity": 0.7874015748031497
        },
        {
          "duration": 0.07499999999998863,
          "durationTicks": 96,
          "midi": 67,
          "name": "G4",
          "ticks": 201888,
          "time": 157.725,
          "velocity": 0.7874015748031497
        },
        {
          "duration": 0.07500000000001705,
          "durationTicks": 96,
          "midi": 71,
          "name": "B4",
          "ticks": 201984,
          "time": 157.79999999999998,
          "velocity": 0.7874015748031497
        },
        {
          "duration": 0.07499999999998863,
          "durationTicks": 96,
          "midi": 67,
          "name": "G4",
          "ticks": 202080,
          "time": 157.875,
          "velocity": 0.7874015748031497
        },
        {
          "duration": 0.07500000000001705,
          "durationTicks": 96,
          "midi": 71,
          "name": "B4",
          "ticks": 202176,
          "time": 157.95,
          "velocity": 0.7874015748031497
        },
        {
          "duration": 0.07499999999998863,
          "durationTicks": 96,
          "midi": 67,
          "name": "G4",
          "ticks": 202272,
          "time": 158.025,
          "velocity": 0.7874015748031497
        },
        {
          "duration": 0.07499999999998863,
          "durationTicks": 96,
          "midi": 71,
          "name": "B4",
          "ticks": 202368,
          "time": 158.1,
          "velocity": 0.7874015748031497
        },
        {
          "duration": 0.07500000000001705,
          "durationTicks": 96,
          "midi": 67,
          "name": "G4",
          "ticks": 202464,
          "time": 158.17499999999998,
          "velocity": 0.7874015748031497
        },
        {
          "duration": 0.07499999999998863,
          "durationTicks": 96,
          "midi": 71,
          "name": "B4",
          "ticks": 202560,
          "time": 158.25,
          "velocity": 0.7874015748031497
        },
        {
          "duration": 0.07500000000001705,
          "durationTicks": 96,
          "midi": 67,
          "name": "G4",
          "ticks": 202656,
          "time": 158.325,
          "velocity": 0.7874015748031497
        },
        {
          "duration": 0.07499999999998863,
          "durationTicks": 96,
          "midi": 72,
          "name": "C5",
          "ticks": 202752,
          "time": 158.4,
          "velocity": 0.7874015748031497
        },
        {
          "duration": 0.07499999999998863,
          "durationTicks": 96,
          "midi": 64,
          "name": "E4",
          "ticks": 202848,
          "time": 158.475,
          "velocity": 0.7874015748031497
        },
        {
          "duration": 0.07500000000001705,
          "durationTicks": 96,
          "midi": 72,
          "name": "C5",
          "ticks": 202944,
          "time": 158.54999999999998,
          "velocity": 0.7874015748031497
        },
        {
          "duration": 0.07499999999998863,
          "durationTicks": 96,
          "midi": 64,
          "name": "E4",
          "ticks": 203040,
          "time": 158.625,
          "velocity": 0.7874015748031497
        },
        {
          "duration": 0.07500000000001705,
          "durationTicks": 96,
          "midi": 72,
          "name": "C5",
          "ticks": 203136,
          "time": 158.7,
          "velocity": 0.7874015748031497
        },
        {
          "duration": 0.07499999999998863,
          "durationTicks": 96,
          "midi": 64,
          "name": "E4",
          "ticks": 203232,
          "time": 158.775,
          "velocity": 0.7874015748031497
        },
        {
          "duration": 0.07499999999998863,
          "durationTicks": 96,
          "midi": 72,
          "name": "C5",
          "ticks": 203328,
          "time": 158.85,
          "velocity": 0.7874015748031497
        },
        {
          "duration": 0.07500000000001705,
          "durationTicks": 96,
          "midi": 64,
          "name": "E4",
          "ticks": 203424,
          "time": 158.92499999999998,
          "velocity": 0.7874015748031497
        },
        {
          "duration": 0.07499999999998863,
          "durationTicks": 96,
          "midi": 72,
          "name": "C5",
          "ticks": 203520,
          "time": 159,
          "velocity": 0.7874015748031497
        },
        {
          "duration": 0.07500000000001705,
          "durationTicks": 96,
          "midi": 64,
          "name": "E4",
          "ticks": 203616,
          "time": 159.075,
          "velocity": 0.7874015748031497
        },
        {
          "duration": 0.07499999999998863,
          "durationTicks": 96,
          "midi": 72,
          "name": "C5",
          "ticks": 203712,
          "time": 159.15,
          "velocity": 0.7874015748031497
        },
        {
          "duration": 0.07499999999998863,
          "durationTicks": 96,
          "midi": 64,
          "name": "E4",
          "ticks": 203808,
          "time": 159.225,
          "velocity": 0.7874015748031497
        },
        {
          "duration": 0.07500000000001705,
          "durationTicks": 96,
          "midi": 72,
          "name": "C5",
          "ticks": 203904,
          "time": 159.29999999999998,
          "velocity": 0.7874015748031497
        },
        {
          "duration": 0.07499999999998863,
          "durationTicks": 96,
          "midi": 64,
          "name": "E4",
          "ticks": 204000,
          "time": 159.375,
          "velocity": 0.7874015748031497
        },
        {
          "duration": 0.07500000000001705,
          "durationTicks": 96,
          "midi": 72,
          "name": "C5",
          "ticks": 204096,
          "time": 159.45,
          "velocity": 0.7874015748031497
        },
        {
          "duration": 0.07499999999998863,
          "durationTicks": 96,
          "midi": 64,
          "name": "E4",
          "ticks": 204192,
          "time": 159.525,
          "velocity": 0.7874015748031497
        },
        {
          "duration": 0.07499999999998863,
          "durationTicks": 96,
          "midi": 69,
          "name": "A4",
          "ticks": 204288,
          "time": 159.6,
          "velocity": 0.7874015748031497
        },
        {
          "duration": 0.07500000000001705,
          "durationTicks": 96,
          "midi": 65,
          "name": "F4",
          "ticks": 204384,
          "time": 159.67499999999998,
          "velocity": 0.7874015748031497
        },
        {
          "duration": 0.07499999999998863,
          "durationTicks": 96,
          "midi": 69,
          "name": "A4",
          "ticks": 204480,
          "time": 159.75,
          "velocity": 0.7874015748031497
        },
        {
          "duration": 0.07500000000001705,
          "durationTicks": 96,
          "midi": 65,
          "name": "F4",
          "ticks": 204576,
          "time": 159.825,
          "velocity": 0.7874015748031497
        },
        {
          "duration": 0.07499999999998863,
          "durationTicks": 96,
          "midi": 69,
          "name": "A4",
          "ticks": 204672,
          "time": 159.9,
          "velocity": 0.7874015748031497
        },
        {
          "duration": 0.07499999999998863,
          "durationTicks": 96,
          "midi": 65,
          "name": "F4",
          "ticks": 204768,
          "time": 159.975,
          "velocity": 0.7874015748031497
        },
        {
          "duration": 0.07500000000001705,
          "durationTicks": 96,
          "midi": 69,
          "name": "A4",
          "ticks": 204864,
          "time": 160.04999999999998,
          "velocity": 0.7874015748031497
        },
        {
          "duration": 0.07499999999998863,
          "durationTicks": 96,
          "midi": 65,
          "name": "F4",
          "ticks": 204960,
          "time": 160.125,
          "velocity": 0.7874015748031497
        },
        {
          "duration": 0.07500000000001705,
          "durationTicks": 96,
          "midi": 69,
          "name": "A4",
          "ticks": 205056,
          "time": 160.2,
          "velocity": 0.7874015748031497
        },
        {
          "duration": 0.07499999999998863,
          "durationTicks": 96,
          "midi": 65,
          "name": "F4",
          "ticks": 205152,
          "time": 160.275,
          "velocity": 0.7874015748031497
        },
        {
          "duration": 0.07499999999998863,
          "durationTicks": 96,
          "midi": 69,
          "name": "A4",
          "ticks": 205248,
          "time": 160.35,
          "velocity": 0.7874015748031497
        },
        {
          "duration": 0.07500000000001705,
          "durationTicks": 96,
          "midi": 65,
          "name": "F4",
          "ticks": 205344,
          "time": 160.42499999999998,
          "velocity": 0.7874015748031497
        },
        {
          "duration": 0.07499999999998863,
          "durationTicks": 96,
          "midi": 69,
          "name": "A4",
          "ticks": 205440,
          "time": 160.5,
          "velocity": 0.7874015748031497
        },
        {
          "duration": 0.07500000000001705,
          "durationTicks": 96,
          "midi": 65,
          "name": "F4",
          "ticks": 205536,
          "time": 160.575,
          "velocity": 0.7874015748031497
        },
        {
          "duration": 0.07499999999998863,
          "durationTicks": 96,
          "midi": 69,
          "name": "A4",
          "ticks": 205632,
          "time": 160.65,
          "velocity": 0.7874015748031497
        },
        {
          "duration": 0.07499999999998863,
          "durationTicks": 96,
          "midi": 65,
          "name": "F4",
          "ticks": 205728,
          "time": 160.725,
          "velocity": 0.7874015748031497
        },
        {
          "duration": 0.07500000000001705,
          "durationTicks": 96,
          "midi": 67,
          "name": "G4",
          "ticks": 205824,
          "time": 160.79999999999998,
          "velocity": 0.7874015748031497
        },
        {
          "duration": 0.07499999999998863,
          "durationTicks": 96,
          "midi": 59,
          "name": "B3",
          "ticks": 205920,
          "time": 160.875,
          "velocity": 0.7874015748031497
        },
        {
          "duration": 0.07500000000001705,
          "durationTicks": 96,
          "midi": 67,
          "name": "G4",
          "ticks": 206016,
          "time": 160.95,
          "velocity": 0.7874015748031497
        },
        {
          "duration": 0.07499999999998863,
          "durationTicks": 96,
          "midi": 59,
          "name": "B3",
          "ticks": 206112,
          "time": 161.025,
          "velocity": 0.7874015748031497
        },
        {
          "duration": 0.07499999999998863,
          "durationTicks": 96,
          "midi": 67,
          "name": "G4",
          "ticks": 206208,
          "time": 161.1,
          "velocity": 0.7874015748031497
        },
        {
          "duration": 0.07500000000001705,
          "durationTicks": 96,
          "midi": 59,
          "name": "B3",
          "ticks": 206304,
          "time": 161.17499999999998,
          "velocity": 0.7874015748031497
        },
        {
          "duration": 0.07499999999998863,
          "durationTicks": 96,
          "midi": 67,
          "name": "G4",
          "ticks": 206400,
          "time": 161.25,
          "velocity": 0.7874015748031497
        },
        {
          "duration": 0.07500000000001705,
          "durationTicks": 96,
          "midi": 59,
          "name": "B3",
          "ticks": 206496,
          "time": 161.325,
          "velocity": 0.7874015748031497
        },
        {
          "duration": 0.07499999999998863,
          "durationTicks": 96,
          "midi": 67,
          "name": "G4",
          "ticks": 206592,
          "time": 161.4,
          "velocity": 0.7874015748031497
        },
        {
          "duration": 0.07499999999998863,
          "durationTicks": 96,
          "midi": 59,
          "name": "B3",
          "ticks": 206688,
          "time": 161.475,
          "velocity": 0.7874015748031497
        },
        {
          "duration": 0.07500000000001705,
          "durationTicks": 96,
          "midi": 67,
          "name": "G4",
          "ticks": 206784,
          "time": 161.54999999999998,
          "velocity": 0.7874015748031497
        },
        {
          "duration": 0.07499999999998863,
          "durationTicks": 96,
          "midi": 59,
          "name": "B3",
          "ticks": 206880,
          "time": 161.625,
          "velocity": 0.7874015748031497
        },
        {
          "duration": 0.07500000000001705,
          "durationTicks": 96,
          "midi": 67,
          "name": "G4",
          "ticks": 206976,
          "time": 161.7,
          "velocity": 0.7874015748031497
        },
        {
          "duration": 0.07499999999998863,
          "durationTicks": 96,
          "midi": 59,
          "name": "B3",
          "ticks": 207072,
          "time": 161.775,
          "velocity": 0.7874015748031497
        },
        {
          "duration": 0.07499999999998863,
          "durationTicks": 96,
          "midi": 67,
          "name": "G4",
          "ticks": 207168,
          "time": 161.85,
          "velocity": 0.7874015748031497
        },
        {
          "duration": 0.07500000000001705,
          "durationTicks": 96,
          "midi": 59,
          "name": "B3",
          "ticks": 207264,
          "time": 161.92499999999998,
          "velocity": 0.7874015748031497
        },
        {
          "duration": 0.07499999999998863,
          "durationTicks": 96,
          "midi": 64,
          "name": "E4",
          "ticks": 207360,
          "time": 162,
          "velocity": 0.7874015748031497
        },
        {
          "duration": 0.07500000000001705,
          "durationTicks": 96,
          "midi": 60,
          "name": "C4",
          "ticks": 207456,
          "time": 162.075,
          "velocity": 0.7874015748031497
        },
        {
          "duration": 0.07499999999998863,
          "durationTicks": 96,
          "midi": 64,
          "name": "E4",
          "ticks": 207552,
          "time": 162.15,
          "velocity": 0.7874015748031497
        },
        {
          "duration": 0.07499999999998863,
          "durationTicks": 96,
          "midi": 60,
          "name": "C4",
          "ticks": 207648,
          "time": 162.225,
          "velocity": 0.7874015748031497
        },
        {
          "duration": 0.07500000000001705,
          "durationTicks": 96,
          "midi": 64,
          "name": "E4",
          "ticks": 207744,
          "time": 162.29999999999998,
          "velocity": 0.7874015748031497
        },
        {
          "duration": 0.07499999999998863,
          "durationTicks": 96,
          "midi": 60,
          "name": "C4",
          "ticks": 207840,
          "time": 162.375,
          "velocity": 0.7874015748031497
        },
        {
          "duration": 0.07500000000001705,
          "durationTicks": 96,
          "midi": 64,
          "name": "E4",
          "ticks": 207936,
          "time": 162.45,
          "velocity": 0.7874015748031497
        },
        {
          "duration": 0.07499999999998863,
          "durationTicks": 96,
          "midi": 60,
          "name": "C4",
          "ticks": 208032,
          "time": 162.525,
          "velocity": 0.7874015748031497
        },
        {
          "duration": 0.07499999999998863,
          "durationTicks": 96,
          "midi": 64,
          "name": "E4",
          "ticks": 208128,
          "time": 162.6,
          "velocity": 0.7874015748031497
        },
        {
          "duration": 0.07500000000001705,
          "durationTicks": 96,
          "midi": 60,
          "name": "C4",
          "ticks": 208224,
          "time": 162.67499999999998,
          "velocity": 0.7874015748031497
        },
        {
          "duration": 0.07499999999998863,
          "durationTicks": 96,
          "midi": 64,
          "name": "E4",
          "ticks": 208320,
          "time": 162.75,
          "velocity": 0.7874015748031497
        },
        {
          "duration": 0.07500000000001705,
          "durationTicks": 96,
          "midi": 60,
          "name": "C4",
          "ticks": 208416,
          "time": 162.825,
          "velocity": 0.7874015748031497
        },
        {
          "duration": 0.07499999999998863,
          "durationTicks": 96,
          "midi": 64,
          "name": "E4",
          "ticks": 208512,
          "time": 162.9,
          "velocity": 0.7874015748031497
        },
        {
          "duration": 0.07499999999998863,
          "durationTicks": 96,
          "midi": 60,
          "name": "C4",
          "ticks": 208608,
          "time": 162.975,
          "velocity": 0.7874015748031497
        },
        {
          "duration": 0.07500000000001705,
          "durationTicks": 96,
          "midi": 64,
          "name": "E4",
          "ticks": 208704,
          "time": 163.04999999999998,
          "velocity": 0.7874015748031497
        },
        {
          "duration": 0.07499999999998863,
          "durationTicks": 96,
          "midi": 60,
          "name": "C4",
          "ticks": 208800,
          "time": 163.125,
          "velocity": 0.7874015748031497
        },
        {
          "duration": 0.07500000000001705,
          "durationTicks": 96,
          "midi": 64,
          "name": "E4",
          "ticks": 208896,
          "time": 163.2,
          "velocity": 0.7874015748031497
        },
        {
          "duration": 0.07499999999998863,
          "durationTicks": 96,
          "midi": 58,
          "name": "A#3",
          "ticks": 208992,
          "time": 163.275,
          "velocity": 0.7874015748031497
        },
        {
          "duration": 0.07499999999998863,
          "durationTicks": 96,
          "midi": 64,
          "name": "E4",
          "ticks": 209088,
          "time": 163.35,
          "velocity": 0.7874015748031497
        },
        {
          "duration": 0.07500000000001705,
          "durationTicks": 96,
          "midi": 58,
          "name": "A#3",
          "ticks": 209184,
          "time": 163.42499999999998,
          "velocity": 0.7874015748031497
        },
        {
          "duration": 0.07499999999998863,
          "durationTicks": 96,
          "midi": 64,
          "name": "E4",
          "ticks": 209280,
          "time": 163.5,
          "velocity": 0.7874015748031497
        },
        {
          "duration": 0.07500000000001705,
          "durationTicks": 96,
          "midi": 58,
          "name": "A#3",
          "ticks": 209376,
          "time": 163.575,
          "velocity": 0.7874015748031497
        },
        {
          "duration": 0.07499999999998863,
          "durationTicks": 96,
          "midi": 64,
          "name": "E4",
          "ticks": 209472,
          "time": 163.65,
          "velocity": 0.7874015748031497
        },
        {
          "duration": 0.07499999999998863,
          "durationTicks": 96,
          "midi": 58,
          "name": "A#3",
          "ticks": 209568,
          "time": 163.725,
          "velocity": 0.7874015748031497
        },
        {
          "duration": 0.07500000000001705,
          "durationTicks": 96,
          "midi": 64,
          "name": "E4",
          "ticks": 209664,
          "time": 163.79999999999998,
          "velocity": 0.7874015748031497
        },
        {
          "duration": 0.07499999999998863,
          "durationTicks": 96,
          "midi": 58,
          "name": "A#3",
          "ticks": 209760,
          "time": 163.875,
          "velocity": 0.7874015748031497
        },
        {
          "duration": 0.07500000000001705,
          "durationTicks": 96,
          "midi": 64,
          "name": "E4",
          "ticks": 209856,
          "time": 163.95,
          "velocity": 0.7874015748031497
        },
        {
          "duration": 0.07499999999998863,
          "durationTicks": 96,
          "midi": 58,
          "name": "A#3",
          "ticks": 209952,
          "time": 164.025,
          "velocity": 0.7874015748031497
        },
        {
          "duration": 0.07499999999998863,
          "durationTicks": 96,
          "midi": 64,
          "name": "E4",
          "ticks": 210048,
          "time": 164.1,
          "velocity": 0.7874015748031497
        },
        {
          "duration": 0.07500000000001705,
          "durationTicks": 96,
          "midi": 58,
          "name": "A#3",
          "ticks": 210144,
          "time": 164.17499999999998,
          "velocity": 0.7874015748031497
        },
        {
          "duration": 0.07499999999998863,
          "durationTicks": 96,
          "midi": 64,
          "name": "E4",
          "ticks": 210240,
          "time": 164.25,
          "velocity": 0.7874015748031497
        },
        {
          "duration": 0.07500000000001705,
          "durationTicks": 96,
          "midi": 58,
          "name": "A#3",
          "ticks": 210336,
          "time": 164.325,
          "velocity": 0.7874015748031497
        },
        {
          "duration": 0.07499999999998863,
          "durationTicks": 96,
          "midi": 77,
          "name": "F5",
          "ticks": 210432,
          "time": 164.4,
          "velocity": 0.7874015748031497
        },
        {
          "duration": 0.07499999999998863,
          "durationTicks": 96,
          "midi": 69,
          "name": "A4",
          "ticks": 210528,
          "time": 164.475,
          "velocity": 0.7874015748031497
        },
        {
          "duration": 0.07500000000001705,
          "durationTicks": 96,
          "midi": 77,
          "name": "F5",
          "ticks": 210624,
          "time": 164.54999999999998,
          "velocity": 0.7874015748031497
        },
        {
          "duration": 0.07499999999998863,
          "durationTicks": 96,
          "midi": 69,
          "name": "A4",
          "ticks": 210720,
          "time": 164.625,
          "velocity": 0.7874015748031497
        },
        {
          "duration": 0.07500000000001705,
          "durationTicks": 96,
          "midi": 77,
          "name": "F5",
          "ticks": 210816,
          "time": 164.7,
          "velocity": 0.7874015748031497
        },
        {
          "duration": 0.07499999999998863,
          "durationTicks": 96,
          "midi": 69,
          "name": "A4",
          "ticks": 210912,
          "time": 164.775,
          "velocity": 0.7874015748031497
        },
        {
          "duration": 0.07499999999998863,
          "durationTicks": 96,
          "midi": 77,
          "name": "F5",
          "ticks": 211008,
          "time": 164.85,
          "velocity": 0.7874015748031497
        },
        {
          "duration": 0.07500000000001705,
          "durationTicks": 96,
          "midi": 69,
          "name": "A4",
          "ticks": 211104,
          "time": 164.92499999999998,
          "velocity": 0.7874015748031497
        },
        {
          "duration": 0.07499999999998863,
          "durationTicks": 96,
          "midi": 77,
          "name": "F5",
          "ticks": 211200,
          "time": 165,
          "velocity": 0.7874015748031497
        },
        {
          "duration": 0.07500000000001705,
          "durationTicks": 96,
          "midi": 69,
          "name": "A4",
          "ticks": 211296,
          "time": 165.075,
          "velocity": 0.7874015748031497
        },
        {
          "duration": 0.07499999999998863,
          "durationTicks": 96,
          "midi": 77,
          "name": "F5",
          "ticks": 211392,
          "time": 165.15,
          "velocity": 0.7874015748031497
        },
        {
          "duration": 0.07499999999998863,
          "durationTicks": 96,
          "midi": 69,
          "name": "A4",
          "ticks": 211488,
          "time": 165.225,
          "velocity": 0.7874015748031497
        },
        {
          "duration": 0.07500000000001705,
          "durationTicks": 96,
          "midi": 77,
          "name": "F5",
          "ticks": 211584,
          "time": 165.29999999999998,
          "velocity": 0.7874015748031497
        },
        {
          "duration": 0.07499999999998863,
          "durationTicks": 96,
          "midi": 69,
          "name": "A4",
          "ticks": 211680,
          "time": 165.375,
          "velocity": 0.7874015748031497
        },
        {
          "duration": 0.07500000000001705,
          "durationTicks": 96,
          "midi": 77,
          "name": "F5",
          "ticks": 211776,
          "time": 165.45,
          "velocity": 0.7874015748031497
        },
        {
          "duration": 0.07499999999998863,
          "durationTicks": 96,
          "midi": 69,
          "name": "A4",
          "ticks": 211872,
          "time": 165.525,
          "velocity": 0.7874015748031497
        },
        {
          "duration": 0.07499999999998863,
          "durationTicks": 96,
          "midi": 79,
          "name": "G5",
          "ticks": 211968,
          "time": 165.6,
          "velocity": 0.7874015748031497
        },
        {
          "duration": 0.07500000000001705,
          "durationTicks": 96,
          "midi": 71,
          "name": "B4",
          "ticks": 212064,
          "time": 165.67499999999998,
          "velocity": 0.7874015748031497
        },
        {
          "duration": 0.07499999999998863,
          "durationTicks": 96,
          "midi": 79,
          "name": "G5",
          "ticks": 212160,
          "time": 165.75,
          "velocity": 0.7874015748031497
        },
        {
          "duration": 0.07500000000001705,
          "durationTicks": 96,
          "midi": 71,
          "name": "B4",
          "ticks": 212256,
          "time": 165.825,
          "velocity": 0.7874015748031497
        },
        {
          "duration": 0.07499999999998863,
          "durationTicks": 96,
          "midi": 79,
          "name": "G5",
          "ticks": 212352,
          "time": 165.9,
          "velocity": 0.7874015748031497
        },
        {
          "duration": 0.07499999999998863,
          "durationTicks": 96,
          "midi": 71,
          "name": "B4",
          "ticks": 212448,
          "time": 165.975,
          "velocity": 0.7874015748031497
        },
        {
          "duration": 0.07500000000001705,
          "durationTicks": 96,
          "midi": 79,
          "name": "G5",
          "ticks": 212544,
          "time": 166.04999999999998,
          "velocity": 0.7874015748031497
        },
        {
          "duration": 0.07499999999998863,
          "durationTicks": 96,
          "midi": 71,
          "name": "B4",
          "ticks": 212640,
          "time": 166.125,
          "velocity": 0.7874015748031497
        },
        {
          "duration": 0.07500000000001705,
          "durationTicks": 96,
          "midi": 74,
          "name": "D5",
          "ticks": 212736,
          "time": 166.2,
          "velocity": 0.7874015748031497
        },
        {
          "duration": 0.07499999999998863,
          "durationTicks": 96,
          "midi": 71,
          "name": "B4",
          "ticks": 212832,
          "time": 166.275,
          "velocity": 0.7874015748031497
        },
        {
          "duration": 0.07499999999998863,
          "durationTicks": 96,
          "midi": 74,
          "name": "D5",
          "ticks": 212928,
          "time": 166.35,
          "velocity": 0.7874015748031497
        },
        {
          "duration": 0.07500000000001705,
          "durationTicks": 96,
          "midi": 71,
          "name": "B4",
          "ticks": 213024,
          "time": 166.42499999999998,
          "velocity": 0.7874015748031497
        },
        {
          "duration": 0.07499999999998863,
          "durationTicks": 96,
          "midi": 74,
          "name": "D5",
          "ticks": 213120,
          "time": 166.5,
          "velocity": 0.7874015748031497
        },
        {
          "duration": 0.07500000000001705,
          "durationTicks": 96,
          "midi": 71,
          "name": "B4",
          "ticks": 213216,
          "time": 166.575,
          "velocity": 0.7874015748031497
        },
        {
          "duration": 0.07499999999998863,
          "durationTicks": 96,
          "midi": 74,
          "name": "D5",
          "ticks": 213312,
          "time": 166.65,
          "velocity": 0.7874015748031497
        },
        {
          "duration": 0.07499999999998863,
          "durationTicks": 96,
          "midi": 71,
          "name": "B4",
          "ticks": 213408,
          "time": 166.725,
          "velocity": 0.7874015748031497
        },
        {
          "duration": 0.07500000000001705,
          "durationTicks": 96,
          "midi": 76,
          "name": "E5",
          "ticks": 213504,
          "time": 166.79999999999998,
          "velocity": 0.7874015748031497
        },
        {
          "duration": 0.07499999999998863,
          "durationTicks": 96,
          "midi": 72,
          "name": "C5",
          "ticks": 213600,
          "time": 166.875,
          "velocity": 0.7874015748031497
        },
        {
          "duration": 0.07500000000001705,
          "durationTicks": 96,
          "midi": 76,
          "name": "E5",
          "ticks": 213696,
          "time": 166.95,
          "velocity": 0.7874015748031497
        },
        {
          "duration": 0.07499999999998863,
          "durationTicks": 96,
          "midi": 72,
          "name": "C5",
          "ticks": 213792,
          "time": 167.025,
          "velocity": 0.7874015748031497
        },
        {
          "duration": 0.07499999999998863,
          "durationTicks": 96,
          "midi": 76,
          "name": "E5",
          "ticks": 213888,
          "time": 167.1,
          "velocity": 0.7874015748031497
        },
        {
          "duration": 0.07500000000001705,
          "durationTicks": 96,
          "midi": 72,
          "name": "C5",
          "ticks": 213984,
          "time": 167.17499999999998,
          "velocity": 0.7874015748031497
        },
        {
          "duration": 0.07499999999998863,
          "durationTicks": 96,
          "midi": 76,
          "name": "E5",
          "ticks": 214080,
          "time": 167.25,
          "velocity": 0.7874015748031497
        },
        {
          "duration": 0.07500000000001705,
          "durationTicks": 96,
          "midi": 72,
          "name": "C5",
          "ticks": 214176,
          "time": 167.325,
          "velocity": 0.7874015748031497
        },
        {
          "duration": 0.07499999999998863,
          "durationTicks": 96,
          "midi": 76,
          "name": "E5",
          "ticks": 214272,
          "time": 167.4,
          "velocity": 0.7874015748031497
        },
        {
          "duration": 0.07499999999998863,
          "durationTicks": 96,
          "midi": 72,
          "name": "C5",
          "ticks": 214368,
          "time": 167.475,
          "velocity": 0.7874015748031497
        },
        {
          "duration": 0.07500000000001705,
          "durationTicks": 96,
          "midi": 76,
          "name": "E5",
          "ticks": 214464,
          "time": 167.54999999999998,
          "velocity": 0.7874015748031497
        },
        {
          "duration": 0.07499999999998863,
          "durationTicks": 96,
          "midi": 72,
          "name": "C5",
          "ticks": 214560,
          "time": 167.625,
          "velocity": 0.7874015748031497
        },
        {
          "duration": 0.07500000000001705,
          "durationTicks": 96,
          "midi": 76,
          "name": "E5",
          "ticks": 214656,
          "time": 167.7,
          "velocity": 0.7874015748031497
        },
        {
          "duration": 0.07499999999998863,
          "durationTicks": 96,
          "midi": 72,
          "name": "C5",
          "ticks": 214752,
          "time": 167.775,
          "velocity": 0.7874015748031497
        },
        {
          "duration": 0.07499999999998863,
          "durationTicks": 96,
          "midi": 76,
          "name": "E5",
          "ticks": 214848,
          "time": 167.85,
          "velocity": 0.7874015748031497
        },
        {
          "duration": 0.07500000000001705,
          "durationTicks": 96,
          "midi": 72,
          "name": "C5",
          "ticks": 214944,
          "time": 167.92499999999998,
          "velocity": 0.7874015748031497
        },
        {
          "duration": 0.07499999999998863,
          "durationTicks": 96,
          "midi": 74,
          "name": "D5",
          "ticks": 215040,
          "time": 168,
          "velocity": 0.7874015748031497
        },
        {
          "duration": 0.07500000000001705,
          "durationTicks": 96,
          "midi": 66,
          "name": "F#4",
          "ticks": 215136,
          "time": 168.075,
          "velocity": 0.7874015748031497
        },
        {
          "duration": 0.07499999999998863,
          "durationTicks": 96,
          "midi": 74,
          "name": "D5",
          "ticks": 215232,
          "time": 168.15,
          "velocity": 0.7874015748031497
        },
        {
          "duration": 0.07499999999998863,
          "durationTicks": 96,
          "midi": 66,
          "name": "F#4",
          "ticks": 215328,
          "time": 168.225,
          "velocity": 0.7874015748031497
        },
        {
          "duration": 0.07500000000001705,
          "durationTicks": 96,
          "midi": 74,
          "name": "D5",
          "ticks": 215424,
          "time": 168.29999999999998,
          "velocity": 0.7874015748031497
        },
        {
          "duration": 0.07499999999998863,
          "durationTicks": 96,
          "midi": 66,
          "name": "F#4",
          "ticks": 215520,
          "time": 168.375,
          "velocity": 0.7874015748031497
        },
        {
          "duration": 0.07500000000001705,
          "durationTicks": 96,
          "midi": 74,
          "name": "D5",
          "ticks": 215616,
          "time": 168.45,
          "velocity": 0.7874015748031497
        },
        {
          "duration": 0.07499999999998863,
          "durationTicks": 96,
          "midi": 66,
          "name": "F#4",
          "ticks": 215712,
          "time": 168.525,
          "velocity": 0.7874015748031497
        },
        {
          "duration": 0.07499999999998863,
          "durationTicks": 96,
          "midi": 74,
          "name": "D5",
          "ticks": 215808,
          "time": 168.6,
          "velocity": 0.7874015748031497
        },
        {
          "duration": 0.07500000000001705,
          "durationTicks": 96,
          "midi": 66,
          "name": "F#4",
          "ticks": 215904,
          "time": 168.67499999999998,
          "velocity": 0.7874015748031497
        },
        {
          "duration": 0.07499999999998863,
          "durationTicks": 96,
          "midi": 74,
          "name": "D5",
          "ticks": 216000,
          "time": 168.75,
          "velocity": 0.7874015748031497
        },
        {
          "duration": 0.07500000000001705,
          "durationTicks": 96,
          "midi": 66,
          "name": "F#4",
          "ticks": 216096,
          "time": 168.825,
          "velocity": 0.7874015748031497
        },
        {
          "duration": 0.07499999999998863,
          "durationTicks": 96,
          "midi": 74,
          "name": "D5",
          "ticks": 216192,
          "time": 168.9,
          "velocity": 0.7874015748031497
        },
        {
          "duration": 0.07499999999998863,
          "durationTicks": 96,
          "midi": 66,
          "name": "F#4",
          "ticks": 216288,
          "time": 168.975,
          "velocity": 0.7874015748031497
        },
        {
          "duration": 0.07500000000001705,
          "durationTicks": 96,
          "midi": 74,
          "name": "D5",
          "ticks": 216384,
          "time": 169.04999999999998,
          "velocity": 0.7874015748031497
        },
        {
          "duration": 0.07499999999998863,
          "durationTicks": 96,
          "midi": 66,
          "name": "F#4",
          "ticks": 216480,
          "time": 169.125,
          "velocity": 0.7874015748031497
        },
        {
          "duration": 0.07500000000001705,
          "durationTicks": 96,
          "midi": 69,
          "name": "A4",
          "ticks": 216576,
          "time": 169.2,
          "velocity": 0.7874015748031497
        },
        {
          "duration": 0.07499999999998863,
          "durationTicks": 96,
          "midi": 60,
          "name": "C4",
          "ticks": 216672,
          "time": 169.275,
          "velocity": 0.7874015748031497
        },
        {
          "duration": 0.07499999999998863,
          "durationTicks": 96,
          "midi": 69,
          "name": "A4",
          "ticks": 216768,
          "time": 169.35,
          "velocity": 0.7874015748031497
        },
        {
          "duration": 0.07500000000001705,
          "durationTicks": 96,
          "midi": 60,
          "name": "C4",
          "ticks": 216864,
          "time": 169.42499999999998,
          "velocity": 0.7874015748031497
        },
        {
          "duration": 0.07499999999998863,
          "durationTicks": 96,
          "midi": 69,
          "name": "A4",
          "ticks": 216960,
          "time": 169.5,
          "velocity": 0.7874015748031497
        },
        {
          "duration": 0.07500000000001705,
          "durationTicks": 96,
          "midi": 60,
          "name": "C4",
          "ticks": 217056,
          "time": 169.575,
          "velocity": 0.7874015748031497
        },
        {
          "duration": 0.07499999999998863,
          "durationTicks": 96,
          "midi": 69,
          "name": "A4",
          "ticks": 217152,
          "time": 169.65,
          "velocity": 0.7874015748031497
        },
        {
          "duration": 0.07499999999998863,
          "durationTicks": 96,
          "midi": 60,
          "name": "C4",
          "ticks": 217248,
          "time": 169.725,
          "velocity": 0.7874015748031497
        },
        {
          "duration": 0.07500000000001705,
          "durationTicks": 96,
          "midi": 69,
          "name": "A4",
          "ticks": 217344,
          "time": 169.79999999999998,
          "velocity": 0.7874015748031497
        },
        {
          "duration": 0.07499999999998863,
          "durationTicks": 96,
          "midi": 60,
          "name": "C4",
          "ticks": 217440,
          "time": 169.875,
          "velocity": 0.7874015748031497
        },
        {
          "duration": 0.07500000000001705,
          "durationTicks": 96,
          "midi": 69,
          "name": "A4",
          "ticks": 217536,
          "time": 169.95,
          "velocity": 0.7874015748031497
        },
        {
          "duration": 0.07499999999998863,
          "durationTicks": 96,
          "midi": 60,
          "name": "C4",
          "ticks": 217632,
          "time": 170.025,
          "velocity": 0.7874015748031497
        },
        {
          "duration": 0.07499999999998863,
          "durationTicks": 96,
          "midi": 69,
          "name": "A4",
          "ticks": 217728,
          "time": 170.1,
          "velocity": 0.7874015748031497
        },
        {
          "duration": 0.07500000000001705,
          "durationTicks": 96,
          "midi": 60,
          "name": "C4",
          "ticks": 217824,
          "time": 170.17499999999998,
          "velocity": 0.7874015748031497
        },
        {
          "duration": 0.07499999999998863,
          "durationTicks": 96,
          "midi": 69,
          "name": "A4",
          "ticks": 217920,
          "time": 170.25,
          "velocity": 0.7874015748031497
        },
        {
          "duration": 0.07500000000001705,
          "durationTicks": 96,
          "midi": 60,
          "name": "C4",
          "ticks": 218016,
          "time": 170.325,
          "velocity": 0.7874015748031497
        },
        {
          "duration": 0.07499999999998863,
          "durationTicks": 96,
          "midi": 71,
          "name": "B4",
          "ticks": 218112,
          "time": 170.4,
          "velocity": 0.7874015748031497
        },
        {
          "duration": 0.07499999999998863,
          "durationTicks": 96,
          "midi": 62,
          "name": "D4",
          "ticks": 218208,
          "time": 170.475,
          "velocity": 0.7874015748031497
        },
        {
          "duration": 0.07500000000001705,
          "durationTicks": 96,
          "midi": 71,
          "name": "B4",
          "ticks": 218304,
          "time": 170.54999999999998,
          "velocity": 0.7874015748031497
        },
        {
          "duration": 0.07499999999998863,
          "durationTicks": 96,
          "midi": 62,
          "name": "D4",
          "ticks": 218400,
          "time": 170.625,
          "velocity": 0.7874015748031497
        },
        {
          "duration": 0.07500000000001705,
          "durationTicks": 96,
          "midi": 71,
          "name": "B4",
          "ticks": 218496,
          "time": 170.7,
          "velocity": 0.7874015748031497
        },
        {
          "duration": 0.07499999999998863,
          "durationTicks": 96,
          "midi": 62,
          "name": "D4",
          "ticks": 218592,
          "time": 170.775,
          "velocity": 0.7874015748031497
        },
        {
          "duration": 0.07499999999998863,
          "durationTicks": 96,
          "midi": 71,
          "name": "B4",
          "ticks": 218688,
          "time": 170.85,
          "velocity": 0.7874015748031497
        },
        {
          "duration": 0.07500000000001705,
          "durationTicks": 96,
          "midi": 62,
          "name": "D4",
          "ticks": 218784,
          "time": 170.92499999999998,
          "velocity": 0.7874015748031497
        },
        {
          "duration": 0.07499999999998863,
          "durationTicks": 96,
          "midi": 71,
          "name": "B4",
          "ticks": 218880,
          "time": 171,
          "velocity": 0.7874015748031497
        },
        {
          "duration": 0.07500000000001705,
          "durationTicks": 96,
          "midi": 62,
          "name": "D4",
          "ticks": 218976,
          "time": 171.075,
          "velocity": 0.7874015748031497
        },
        {
          "duration": 0.07499999999998863,
          "durationTicks": 96,
          "midi": 71,
          "name": "B4",
          "ticks": 219072,
          "time": 171.15,
          "velocity": 0.7874015748031497
        },
        {
          "duration": 0.07499999999998863,
          "durationTicks": 96,
          "midi": 62,
          "name": "D4",
          "ticks": 219168,
          "time": 171.225,
          "velocity": 0.7874015748031497
        },
        {
          "duration": 0.07500000000001705,
          "durationTicks": 96,
          "midi": 71,
          "name": "B4",
          "ticks": 219264,
          "time": 171.29999999999998,
          "velocity": 0.7874015748031497
        },
        {
          "duration": 0.07499999999998863,
          "durationTicks": 96,
          "midi": 62,
          "name": "D4",
          "ticks": 219360,
          "time": 171.375,
          "velocity": 0.7874015748031497
        },
        {
          "duration": 0.07500000000001705,
          "durationTicks": 96,
          "midi": 71,
          "name": "B4",
          "ticks": 219456,
          "time": 171.45,
          "velocity": 0.7874015748031497
        },
        {
          "duration": 0.07499999999998863,
          "durationTicks": 96,
          "midi": 62,
          "name": "D4",
          "ticks": 219552,
          "time": 171.525,
          "velocity": 0.7874015748031497
        }
      ]
    },
    {
      "channel": 5,
      "controlChanges": {
        "7": [
          {
            "number": 7,
            "ticks": 1536,
            "time": 1.2,
            "value": 0.6299212598425197
          }
        ]
      },
      "pitchBends": [],
      "instrument": {
        "family": "pipe",
        "number": 72,
        "name": "piccolo"
      },
      "name": "PICCOLO",
      "notes": [
        {
          "duration": 0.07500000000000018,
          "durationTicks": 96,
          "midi": 96,
          "name": "C7",
          "ticks": 6240,
          "time": 4.875,
          "velocity": 0.7874015748031497
        },
        {
          "duration": 0.14999999999999947,
          "durationTicks": 192,
          "midi": 98,
          "name": "D7",
          "ticks": 6336,
          "time": 4.95,
          "velocity": 0.7874015748031497
        },
        {
          "duration": 0.15000000000000036,
          "durationTicks": 192,
          "midi": 96,
          "name": "C7",
          "ticks": 6528,
          "time": 5.1,
          "velocity": 0.7874015748031497
        },
        {
          "duration": 0.14999999999999947,
          "durationTicks": 192,
          "midi": 94,
          "name": "A#6",
          "ticks": 6720,
          "time": 5.25,
          "velocity": 0.7874015748031497
        },
        {
          "duration": 0.15000000000000036,
          "durationTicks": 192,
          "midi": 96,
          "name": "C7",
          "ticks": 6912,
          "time": 5.3999999999999995,
          "velocity": 0.7874015748031497
        },
        {
          "duration": 0.15000000000000036,
          "durationTicks": 192,
          "midi": 94,
          "name": "A#6",
          "ticks": 7104,
          "time": 5.55,
          "velocity": 0.7874015748031497
        },
        {
          "duration": 0.14999999999999947,
          "durationTicks": 192,
          "midi": 89,
          "name": "F6",
          "ticks": 7296,
          "time": 5.7,
          "velocity": 0.7874015748031497
        },
        {
          "duration": 0.07500000000000018,
          "durationTicks": 96,
          "midi": 86,
          "name": "D6",
          "ticks": 7488,
          "time": 5.85,
          "velocity": 0.7874015748031497
        },
        {
          "duration": 0.14999999999999947,
          "durationTicks": 192,
          "midi": 86,
          "name": "D6",
          "ticks": 7680,
          "time": 6,
          "velocity": 0.7874015748031497
        },
        {
          "duration": 0.15000000000000036,
          "durationTicks": 192,
          "midi": 89,
          "name": "F6",
          "ticks": 7872,
          "time": 6.1499999999999995,
          "velocity": 0.7874015748031497
        },
        {
          "duration": 0.15000000000000036,
          "durationTicks": 192,
          "midi": 94,
          "name": "A#6",
          "ticks": 8064,
          "time": 6.3,
          "velocity": 0.7874015748031497
        },
        {
          "duration": 0.14999999999999947,
          "durationTicks": 192,
          "midi": 98,
          "name": "D7",
          "ticks": 8256,
          "time": 6.45,
          "velocity": 0.7874015748031497
        },
        {
          "duration": 0.14999999999999947,
          "durationTicks": 192,
          "midi": 98,
          "name": "D7",
          "ticks": 8640,
          "time": 6.75,
          "velocity": 0.7874015748031497
        },
        {
          "duration": 0.14999999999999947,
          "durationTicks": 192,
          "midi": 94,
          "name": "A#6",
          "ticks": 9024,
          "time": 7.05,
          "velocity": 0.7874015748031497
        },
        {
          "duration": 0.15000000000000036,
          "durationTicks": 192,
          "midi": 96,
          "name": "C7",
          "ticks": 9216,
          "time": 7.199999999999999,
          "velocity": 0.7874015748031497
        },
        {
          "duration": 0.14999999999999947,
          "durationTicks": 192,
          "midi": 99,
          "name": "D#7",
          "ticks": 9600,
          "time": 7.5,
          "velocity": 0.7874015748031497
        },
        {
          "duration": 0.14999999999999947,
          "durationTicks": 192,
          "midi": 98,
          "name": "D7",
          "ticks": 9984,
          "time": 7.8,
          "velocity": 0.7874015748031497
        },
        {
          "duration": 0.15000000000000036,
          "durationTicks": 192,
          "midi": 94,
          "name": "A#6",
          "ticks": 10368,
          "time": 8.1,
          "velocity": 0.7874015748031497
        },
        {
          "duration": 0.14999999999999858,
          "durationTicks": 192,
          "midi": 82,
          "name": "A#5",
          "ticks": 10752,
          "time": 8.4,
          "velocity": 0.7874015748031497
        },
        {
          "duration": 0.15000000000000036,
          "durationTicks": 192,
          "midi": 86,
          "name": "D6",
          "ticks": 10944,
          "time": 8.549999999999999,
          "velocity": 0.7874015748031497
        },
        {
          "duration": 0.15000000000000036,
          "durationTicks": 192,
          "midi": 89,
          "name": "F6",
          "ticks": 11136,
          "time": 8.7,
          "velocity": 0.7874015748031497
        },
        {
          "duration": 0.15000000000000036,
          "durationTicks": 192,
          "midi": 94,
          "name": "A#6",
          "ticks": 11328,
          "time": 8.85,
          "velocity": 0.7874015748031497
        },
        {
          "duration": 0.14999999999999858,
          "durationTicks": 192,
          "midi": 94,
          "name": "A#6",
          "ticks": 11712,
          "time": 9.15,
          "velocity": 0.7874015748031497
        },
        {
          "duration": 0.15000000000000036,
          "durationTicks": 192,
          "midi": 84,
          "name": "C6",
          "ticks": 12096,
          "time": 9.45,
          "velocity": 0.7874015748031497
        },
        {
          "duration": 0.15000000000000036,
          "durationTicks": 192,
          "midi": 93,
          "name": "A6",
          "ticks": 12288,
          "time": 9.6,
          "velocity": 0.7874015748031497
        },
        {
          "duration": 0.14999999999999858,
          "durationTicks": 192,
          "midi": 96,
          "name": "C7",
          "ticks": 12672,
          "time": 9.9,
          "velocity": 0.7874015748031497
        },
        {
          "duration": 0.07500000000000107,
          "durationTicks": 96,
          "midi": 94,
          "name": "A#6",
          "ticks": 13056,
          "time": 10.2,
          "velocity": 0.7874015748031497
        },
        {
          "duration": 0.07499999999999929,
          "durationTicks": 96,
          "midi": 96,
          "name": "C7",
          "ticks": 13152,
          "time": 10.275,
          "velocity": 0.7874015748031497
        },
        {
          "duration": 0.07499999999999929,
          "durationTicks": 96,
          "midi": 94,
          "name": "A#6",
          "ticks": 13248,
          "time": 10.35,
          "velocity": 0.7874015748031497
        },
        {
          "duration": 0.07500000000000107,
          "durationTicks": 96,
          "midi": 96,
          "name": "C7",
          "ticks": 13344,
          "time": 10.424999999999999,
          "velocity": 0.7874015748031497
        },
        {
          "duration": 0.07499999999999929,
          "durationTicks": 96,
          "midi": 94,
          "name": "A#6",
          "ticks": 13440,
          "time": 10.5,
          "velocity": 0.7874015748031497
        },
        {
          "duration": 0.07500000000000107,
          "durationTicks": 96,
          "midi": 96,
          "name": "C7",
          "ticks": 13536,
          "time": 10.575,
          "velocity": 0.7874015748031497
        },
        {
          "duration": 0.14999999999999858,
          "durationTicks": 192,
          "midi": 94,
          "name": "A#6",
          "ticks": 13632,
          "time": 10.65,
          "velocity": 0.7874015748031497
        },
        {
          "duration": 0.14999999999999858,
          "durationTicks": 192,
          "midi": 94,
          "name": "A#6",
          "ticks": 32256,
          "time": 25.2,
          "velocity": 0.7874015748031497
        },
        {
          "duration": 0.14999999999999858,
          "durationTicks": 192,
          "midi": 91,
          "name": "G6",
          "ticks": 32256,
          "time": 25.2,
          "velocity": 0.7874015748031497
        },
        {
          "duration": 0.15000000000000213,
          "durationTicks": 192,
          "midi": 93,
          "name": "A6",
          "ticks": 32448,
          "time": 25.349999999999998,
          "velocity": 0.7874015748031497
        },
        {
          "duration": 0.15000000000000213,
          "durationTicks": 192,
          "midi": 89,
          "name": "F6",
          "ticks": 32448,
          "time": 25.349999999999998,
          "velocity": 0.7874015748031497
        },
        {
          "duration": 0.14999999999999858,
          "durationTicks": 192,
          "midi": 91,
          "name": "G6",
          "ticks": 32640,
          "time": 25.5,
          "velocity": 0.7874015748031497
        },
        {
          "duration": 0.14999999999999858,
          "durationTicks": 192,
          "midi": 87,
          "name": "D#6",
          "ticks": 32640,
          "time": 25.5,
          "velocity": 0.7874015748031497
        },
        {
          "duration": 0.15000000000000213,
          "durationTicks": 192,
          "midi": 89,
          "name": "F6",
          "ticks": 32832,
          "time": 25.65,
          "velocity": 0.7874015748031497
        },
        {
          "duration": 0.15000000000000213,
          "durationTicks": 192,
          "midi": 86,
          "name": "D6",
          "ticks": 32832,
          "time": 25.65,
          "velocity": 0.7874015748031497
        },
        {
          "duration": 0.14999999999999858,
          "durationTicks": 192,
          "midi": 87,
          "name": "D#6",
          "ticks": 33024,
          "time": 25.8,
          "velocity": 0.7874015748031497
        },
        {
          "duration": 0.14999999999999858,
          "durationTicks": 192,
          "midi": 84,
          "name": "C6",
          "ticks": 33024,
          "time": 25.8,
          "velocity": 0.7874015748031497
        },
        {
          "duration": 0.14999999999999858,
          "durationTicks": 192,
          "midi": 86,
          "name": "D6",
          "ticks": 33216,
          "time": 25.95,
          "velocity": 0.7874015748031497
        },
        {
          "duration": 0.14999999999999858,
          "durationTicks": 192,
          "midi": 82,
          "name": "A#5",
          "ticks": 33216,
          "time": 25.95,
          "velocity": 0.7874015748031497
        },
        {
          "duration": 0.15000000000000213,
          "durationTicks": 192,
          "midi": 84,
          "name": "C6",
          "ticks": 33408,
          "time": 26.099999999999998,
          "velocity": 0.7874015748031497
        },
        {
          "duration": 0.15000000000000213,
          "durationTicks": 192,
          "midi": 81,
          "name": "A5",
          "ticks": 33408,
          "time": 26.099999999999998,
          "velocity": 0.7874015748031497
        },
        {
          "duration": 0.14999999999999858,
          "durationTicks": 192,
          "midi": 82,
          "name": "A#5",
          "ticks": 33600,
          "time": 26.25,
          "velocity": 0.7874015748031497
        },
        {
          "duration": 0.14999999999999858,
          "durationTicks": 192,
          "midi": 79,
          "name": "G5",
          "ticks": 33600,
          "time": 26.25,
          "velocity": 0.7874015748031497
        },
        {
          "duration": 0.15000000000000213,
          "durationTicks": 192,
          "midi": 82,
          "name": "A#5",
          "ticks": 33792,
          "time": 26.4,
          "velocity": 0.7874015748031497
        },
        {
          "duration": 0.15000000000000213,
          "durationTicks": 192,
          "midi": 77,
          "name": "F5",
          "ticks": 33792,
          "time": 26.4,
          "velocity": 0.7874015748031497
        },
        {
          "duration": 0.14999999999999858,
          "durationTicks": 192,
          "midi": 82,
          "name": "A#5",
          "ticks": 33984,
          "time": 26.55,
          "velocity": 0.7874015748031497
        },
        {
          "duration": 0.14999999999999858,
          "durationTicks": 192,
          "midi": 77,
          "name": "F5",
          "ticks": 33984,
          "time": 26.55,
          "velocity": 0.7874015748031497
        },
        {
          "duration": 0.14999999999999858,
          "durationTicks": 192,
          "midi": 86,
          "name": "D6",
          "ticks": 34176,
          "time": 26.7,
          "velocity": 0.7874015748031497
        },
        {
          "duration": 0.14999999999999858,
          "durationTicks": 192,
          "midi": 82,
          "name": "A#5",
          "ticks": 34176,
          "time": 26.7,
          "velocity": 0.7874015748031497
        },
        {
          "duration": 0.15000000000000213,
          "durationTicks": 192,
          "midi": 86,
          "name": "D6",
          "ticks": 34368,
          "time": 26.849999999999998,
          "velocity": 0.7874015748031497
        },
        {
          "duration": 0.15000000000000213,
          "durationTicks": 192,
          "midi": 82,
          "name": "A#5",
          "ticks": 34368,
          "time": 26.849999999999998,
          "velocity": 0.7874015748031497
        },
        {
          "duration": 0.14999999999999858,
          "durationTicks": 192,
          "midi": 89,
          "name": "F6",
          "ticks": 34560,
          "time": 27,
          "velocity": 0.7874015748031497
        },
        {
          "duration": 0.14999999999999858,
          "durationTicks": 192,
          "midi": 86,
          "name": "D6",
          "ticks": 34560,
          "time": 27,
          "velocity": 0.7874015748031497
        },
        {
          "duration": 0.15000000000000213,
          "durationTicks": 192,
          "midi": 94,
          "name": "A#6",
          "ticks": 34752,
          "time": 27.15,
          "velocity": 0.7874015748031497
        },
        {
          "duration": 0.14999999999999858,
          "durationTicks": 192,
          "midi": 93,
          "name": "A6",
          "ticks": 34944,
          "time": 27.3,
          "velocity": 0.7874015748031497
        },
        {
          "duration": 0.14999999999999858,
          "durationTicks": 192,
          "midi": 89,
          "name": "F6",
          "ticks": 34944,
          "time": 27.3,
          "velocity": 0.7874015748031497
        },
        {
          "duration": 0.14999999999999858,
          "durationTicks": 192,
          "midi": 94,
          "name": "A#6",
          "ticks": 35136,
          "time": 27.45,
          "velocity": 0.7874015748031497
        },
        {
          "duration": 1.1999999999999993,
          "durationTicks": 1536,
          "midi": 79,
          "name": "G5",
          "ticks": 39936,
          "time": 31.2,
          "velocity": 0.5039370078740157
        },
        {
          "duration": 1.2000000000000028,
          "durationTicks": 1536,
          "midi": 77,
          "name": "F5",
          "ticks": 41472,
          "time": 32.4,
          "velocity": 0.5039370078740157
        },
        {
          "duration": 1.1999999999999957,
          "durationTicks": 1536,
          "midi": 81,
          "name": "A5",
          "ticks": 43008,
          "time": 33.6,
          "velocity": 0.5039370078740157
        },
        {
          "duration": 1.2000000000000028,
          "durationTicks": 1536,
          "midi": 82,
          "name": "A#5",
          "ticks": 44544,
          "time": 34.8,
          "velocity": 0.5039370078740157
        },
        {
          "duration": 1.1999999999999957,
          "durationTicks": 1536,
          "midi": 79,
          "name": "G5",
          "ticks": 46080,
          "time": 36,
          "velocity": 0.5039370078740157
        },
        {
          "duration": 1.2000000000000028,
          "durationTicks": 1536,
          "midi": 77,
          "name": "F5",
          "ticks": 47616,
          "time": 37.199999999999996,
          "velocity": 0.5039370078740157
        },
        {
          "duration": 1.2000000000000028,
          "durationTicks": 1536,
          "midi": 82,
          "name": "A#5",
          "ticks": 49152,
          "time": 38.4,
          "velocity": 0.5039370078740157
        },
        {
          "duration": 1.1999999999999957,
          "durationTicks": 1536,
          "midi": 80,
          "name": "G#5",
          "ticks": 50688,
          "time": 39.6,
          "velocity": 0.5039370078740157
        },
        {
          "duration": 1.2000000000000028,
          "durationTicks": 1536,
          "midi": 79,
          "name": "G5",
          "ticks": 52224,
          "time": 40.8,
          "velocity": 0.5039370078740157
        },
        {
          "duration": 1.1999999999999957,
          "durationTicks": 1536,
          "midi": 81,
          "name": "A5",
          "ticks": 53760,
          "time": 42,
          "velocity": 0.5039370078740157
        },
        {
          "duration": 1.2000000000000028,
          "durationTicks": 1536,
          "midi": 82,
          "name": "A#5",
          "ticks": 55296,
          "time": 43.199999999999996,
          "velocity": 0.5039370078740157
        },
        {
          "duration": 1.2000000000000028,
          "durationTicks": 1536,
          "midi": 79,
          "name": "G5",
          "ticks": 56832,
          "time": 44.4,
          "velocity": 0.5039370078740157
        },
        {
          "duration": 1.1999999999999957,
          "durationTicks": 1536,
          "midi": 79,
          "name": "G5",
          "ticks": 58368,
          "time": 45.6,
          "velocity": 0.5039370078740157
        },
        {
          "duration": 1.2000000000000028,
          "durationTicks": 1536,
          "midi": 81,
          "name": "A5",
          "ticks": 59904,
          "time": 46.8,
          "velocity": 0.5039370078740157
        },
        {
          "duration": 0.07500000000000284,
          "durationTicks": 96,
          "midi": 81,
          "name": "A5",
          "ticks": 81408,
          "time": 63.599999999999994,
          "velocity": 0.7874015748031497
        },
        {
          "duration": 0.5250000000000057,
          "durationTicks": 672,
          "midi": 82,
          "name": "A#5",
          "ticks": 81504,
          "time": 63.675,
          "velocity": 0.7874015748031497
        },
        {
          "duration": 0.29999999999999716,
          "durationTicks": 384,
          "midi": 86,
          "name": "D6",
          "ticks": 82176,
          "time": 64.2,
          "velocity": 0.7874015748031497
        },
        {
          "duration": 0.29999999999999716,
          "durationTicks": 384,
          "midi": 82,
          "name": "A#5",
          "ticks": 82560,
          "time": 64.5,
          "velocity": 0.7874015748031497
        },
        {
          "duration": 0.30000000000001137,
          "durationTicks": 384,
          "midi": 96,
          "name": "C7",
          "ticks": 89472,
          "time": 69.89999999999999,
          "velocity": 0.7874015748031497
        },
        {
          "duration": 0.29999999999999716,
          "durationTicks": 384,
          "midi": 96,
          "name": "C7",
          "ticks": 90048,
          "time": 70.35,
          "velocity": 0.7874015748031497
        },
        {
          "duration": 0.15000000000000568,
          "durationTicks": 192,
          "midi": 94,
          "name": "A#6",
          "ticks": 90432,
          "time": 70.64999999999999,
          "velocity": 0.7874015748031497
        },
        {
          "duration": 0.07500000000000284,
          "durationTicks": 96,
          "midi": 96,
          "name": "C7",
          "ticks": 90624,
          "time": 70.8,
          "velocity": 0.7874015748031497
        },
        {
          "duration": 0.22499999999999432,
          "durationTicks": 288,
          "midi": 98,
          "name": "D7",
          "ticks": 90720,
          "time": 70.875,
          "velocity": 0.7874015748031497
        },
        {
          "duration": 0.29999999999999716,
          "durationTicks": 384,
          "midi": 96,
          "name": "C7",
          "ticks": 91008,
          "time": 71.1,
          "velocity": 0.7874015748031497
        },
        {
          "duration": 0.30000000000001137,
          "durationTicks": 384,
          "midi": 94,
          "name": "A#6",
          "ticks": 91392,
          "time": 71.39999999999999,
          "velocity": 0.7874015748031497
        },
        {
          "duration": 0.29999999999999716,
          "durationTicks": 384,
          "midi": 98,
          "name": "D7",
          "ticks": 91776,
          "time": 71.7,
          "velocity": 0.7874015748031497
        },
        {
          "duration": 0.29999999999999716,
          "durationTicks": 384,
          "midi": 94,
          "name": "A#6",
          "ticks": 92160,
          "time": 72,
          "velocity": 0.7874015748031497
        },
        {
          "duration": 1.1999999999999886,
          "durationTicks": 1536,
          "midi": 79,
          "name": "G5",
          "ticks": 93696,
          "time": 73.2,
          "velocity": 0.5039370078740157
        },
        {
          "duration": 1.2000000000000028,
          "durationTicks": 1536,
          "midi": 77,
          "name": "F5",
          "ticks": 95232,
          "time": 74.39999999999999,
          "velocity": 0.5039370078740157
        },
        {
          "duration": 1.2000000000000028,
          "durationTicks": 1536,
          "midi": 81,
          "name": "A5",
          "ticks": 96768,
          "time": 75.6,
          "velocity": 0.5039370078740157
        },
        {
          "duration": 0.5999999999999943,
          "durationTicks": 768,
          "midi": 82,
          "name": "A#5",
          "ticks": 98304,
          "time": 76.8,
          "velocity": 0.5039370078740157
        },
        {
          "duration": 0.6000000000000085,
          "durationTicks": 768,
          "midi": 80,
          "name": "G#5",
          "ticks": 99072,
          "time": 77.39999999999999,
          "velocity": 0.5039370078740157
        },
        {
          "duration": 1.2000000000000028,
          "durationTicks": 1536,
          "midi": 79,
          "name": "G5",
          "ticks": 99840,
          "time": 78,
          "velocity": 0.5039370078740157
        },
        {
          "duration": 1.1999999999999886,
          "durationTicks": 1536,
          "midi": 81,
          "name": "A5",
          "ticks": 101376,
          "time": 79.2,
          "velocity": 0.5039370078740157
        },
        {
          "duration": 1.2000000000000028,
          "durationTicks": 1536,
          "midi": 82,
          "name": "A#5",
          "ticks": 102912,
          "time": 80.39999999999999,
          "velocity": 0.5039370078740157
        },
        {
          "duration": 0.29999999999999716,
          "durationTicks": 384,
          "midi": 84,
          "name": "C6",
          "ticks": 139776,
          "time": 109.2,
          "velocity": 1
        },
        {
          "duration": 0.14999999999999147,
          "durationTicks": 192,
          "midi": 89,
          "name": "F6",
          "ticks": 140160,
          "time": 109.5,
          "velocity": 1
        },
        {
          "duration": 0.15000000000000568,
          "durationTicks": 192,
          "midi": 84,
          "name": "C6",
          "ticks": 140352,
          "time": 109.64999999999999,
          "velocity": 1
        },
        {
          "duration": 0.07500000000000284,
          "durationTicks": 96,
          "midi": 92,
          "name": "G#6",
          "ticks": 140544,
          "time": 109.8,
          "velocity": 1
        },
        {
          "duration": 0.07500000000000284,
          "durationTicks": 96,
          "midi": 93,
          "name": "A6",
          "ticks": 140640,
          "time": 109.875,
          "velocity": 1
        },
        {
          "duration": 0.14999999999999147,
          "durationTicks": 192,
          "midi": 89,
          "name": "F6",
          "ticks": 140736,
          "time": 109.95,
          "velocity": 1
        },
        {
          "duration": 0.15000000000000568,
          "durationTicks": 192,
          "midi": 84,
          "name": "C6",
          "ticks": 140928,
          "time": 110.1,
          "velocity": 1
        },
        {
          "duration": 0.14999999999999147,
          "durationTicks": 192,
          "midi": 94,
          "name": "A#6",
          "ticks": 141120,
          "time": 110.25,
          "velocity": 1
        },
        {
          "duration": 0.15000000000000568,
          "durationTicks": 192,
          "midi": 77,
          "name": "F5",
          "ticks": 155328,
          "time": 121.35,
          "velocity": 1
        },
        {
          "duration": 0.14999999999999147,
          "durationTicks": 192,
          "midi": 76,
          "name": "E5",
          "ticks": 155520,
          "time": 121.5,
          "velocity": 1
        },
        {
          "duration": 0.15000000000000568,
          "durationTicks": 192,
          "midi": 77,
          "name": "F5",
          "ticks": 155712,
          "time": 121.64999999999999,
          "velocity": 1
        },
        {
          "duration": 0.14999999999999147,
          "durationTicks": 192,
          "midi": 86,
          "name": "D6",
          "ticks": 155904,
          "time": 121.8,
          "velocity": 1
        },
        {
          "duration": 0.15000000000000568,
          "durationTicks": 192,
          "midi": 84,
          "name": "C6",
          "ticks": 156096,
          "time": 121.94999999999999,
          "velocity": 1
        },
        {
          "duration": 0.15000000000000568,
          "durationTicks": 192,
          "midi": 82,
          "name": "A#5",
          "ticks": 156288,
          "time": 122.1,
          "velocity": 1
        },
        {
          "duration": 0.14999999999999147,
          "durationTicks": 192,
          "midi": 77,
          "name": "F5",
          "ticks": 156480,
          "time": 122.25,
          "velocity": 1
        },
        {
          "duration": 0.30000000000001137,
          "durationTicks": 384,
          "midi": 86,
          "name": "D6",
          "ticks": 166464,
          "time": 130.04999999999998,
          "velocity": 1
        },
        {
          "duration": 0.30000000000001137,
          "durationTicks": 384,
          "midi": 84,
          "name": "C6",
          "ticks": 166848,
          "time": 130.35,
          "velocity": 1
        },
        {
          "duration": 0.14999999999997726,
          "durationTicks": 192,
          "midi": 82,
          "name": "A#5",
          "ticks": 167232,
          "time": 130.65,
          "velocity": 1
        },
        {
          "duration": 0.07500000000001705,
          "durationTicks": 96,
          "midi": 84,
          "name": "C6",
          "ticks": 167424,
          "time": 130.79999999999998,
          "velocity": 1
        },
        {
          "duration": 0.07499999999998863,
          "durationTicks": 96,
          "midi": 86,
          "name": "D6",
          "ticks": 167520,
          "time": 130.875,
          "velocity": 1
        },
        {
          "duration": 0.07500000000001705,
          "durationTicks": 96,
          "midi": 84,
          "name": "C6",
          "ticks": 167616,
          "time": 130.95,
          "velocity": 1
        },
        {
          "duration": 0.07499999999998863,
          "durationTicks": 96,
          "midi": 86,
          "name": "D6",
          "ticks": 167712,
          "time": 131.025,
          "velocity": 1
        },
        {
          "duration": 0.07499999999998863,
          "durationTicks": 96,
          "midi": 84,
          "name": "C6",
          "ticks": 167808,
          "time": 131.1,
          "velocity": 1
        },
        {
          "duration": 0.07500000000001705,
          "durationTicks": 96,
          "midi": 86,
          "name": "D6",
          "ticks": 167904,
          "time": 131.17499999999998,
          "velocity": 1
        },
        {
          "duration": 0.07499999999998863,
          "durationTicks": 96,
          "midi": 84,
          "name": "C6",
          "ticks": 168000,
          "time": 131.25,
          "velocity": 1
        },
        {
          "duration": 0.07500000000001705,
          "durationTicks": 96,
          "midi": 86,
          "name": "D6",
          "ticks": 168096,
          "time": 131.325,
          "velocity": 1
        },
        {
          "duration": 0.07499999999998863,
          "durationTicks": 96,
          "midi": 84,
          "name": "C6",
          "ticks": 168192,
          "time": 131.4,
          "velocity": 1
        },
        {
          "duration": 0.07499999999998863,
          "durationTicks": 96,
          "midi": 86,
          "name": "D6",
          "ticks": 168288,
          "time": 131.475,
          "velocity": 1
        },
        {
          "duration": 0.07500000000001705,
          "durationTicks": 96,
          "midi": 84,
          "name": "C6",
          "ticks": 168384,
          "time": 131.54999999999998,
          "velocity": 1
        },
        {
          "duration": 0.07499999999998863,
          "durationTicks": 96,
          "midi": 86,
          "name": "D6",
          "ticks": 168480,
          "time": 131.625,
          "velocity": 1
        },
        {
          "duration": 0.15000000000000568,
          "durationTicks": 192,
          "midi": 84,
          "name": "C6",
          "ticks": 168576,
          "time": 131.7,
          "velocity": 1
        },
        {
          "duration": 0.07499999999998863,
          "durationTicks": 96,
          "midi": 96,
          "name": "C7",
          "ticks": 174720,
          "time": 136.5,
          "velocity": 0.7874015748031497
        },
        {
          "duration": 0.22499999999999432,
          "durationTicks": 288,
          "midi": 98,
          "name": "D7",
          "ticks": 174816,
          "time": 136.575,
          "velocity": 0.7874015748031497
        },
        {
          "duration": 0.6000000000000227,
          "durationTicks": 768,
          "midi": 96,
          "name": "C7",
          "ticks": 175104,
          "time": 136.79999999999998,
          "velocity": 0.7874015748031497
        },
        {
          "duration": 0.15000000000000568,
          "durationTicks": 192,
          "midi": 74,
          "name": "D5",
          "ticks": 185856,
          "time": 145.2,
          "velocity": 0.7874015748031497
        },
        {
          "duration": 0.15000000000000568,
          "durationTicks": 192,
          "midi": 77,
          "name": "F5",
          "ticks": 186048,
          "time": 145.35,
          "velocity": 0.7874015748031497
        },
        {
          "duration": 0.15000000000000568,
          "durationTicks": 192,
          "midi": 82,
          "name": "A#5",
          "ticks": 186240,
          "time": 145.5,
          "velocity": 0.7874015748031497
        },
        {
          "duration": 0.29999999999998295,
          "durationTicks": 384,
          "midi": 86,
          "name": "D6",
          "ticks": 186432,
          "time": 145.65,
          "velocity": 0.7874015748031497
        },
        {
          "duration": 0.30000000000001137,
          "durationTicks": 384,
          "midi": 86,
          "name": "D6",
          "ticks": 186816,
          "time": 145.95,
          "velocity": 0.7874015748031497
        },
        {
          "duration": 0.15000000000000568,
          "durationTicks": 192,
          "midi": 82,
          "name": "A#5",
          "ticks": 187200,
          "time": 146.25,
          "velocity": 0.7874015748031497
        },
        {
          "duration": 0.29999999999998295,
          "durationTicks": 384,
          "midi": 84,
          "name": "C6",
          "ticks": 187392,
          "time": 146.4,
          "velocity": 0.7874015748031497
        },
        {
          "duration": 0.30000000000001137,
          "durationTicks": 384,
          "midi": 87,
          "name": "D#6",
          "ticks": 187776,
          "time": 146.7,
          "velocity": 0.7874015748031497
        },
        {
          "duration": 0.29999999999998295,
          "durationTicks": 384,
          "midi": 86,
          "name": "D6",
          "ticks": 188160,
          "time": 147,
          "velocity": 0.7874015748031497
        },
        {
          "duration": 0.30000000000001137,
          "durationTicks": 384,
          "midi": 82,
          "name": "A#5",
          "ticks": 188544,
          "time": 147.29999999999998,
          "velocity": 0.7874015748031497
        },
        {
          "duration": 0.07499999999998863,
          "durationTicks": 96,
          "midi": 82,
          "name": "A#5",
          "ticks": 188928,
          "time": 147.6,
          "velocity": 0.7874015748031497
        },
        {
          "duration": 0.07500000000001705,
          "durationTicks": 96,
          "midi": 84,
          "name": "C6",
          "ticks": 189024,
          "time": 147.67499999999998,
          "velocity": 0.7874015748031497
        },
        {
          "duration": 0.07499999999998863,
          "durationTicks": 96,
          "midi": 82,
          "name": "A#5",
          "ticks": 189120,
          "time": 147.75,
          "velocity": 0.7874015748031497
        },
        {
          "duration": 0.07500000000001705,
          "durationTicks": 96,
          "midi": 84,
          "name": "C6",
          "ticks": 189216,
          "time": 147.825,
          "velocity": 0.7874015748031497
        },
        {
          "duration": 0.07499999999998863,
          "durationTicks": 96,
          "midi": 82,
          "name": "A#5",
          "ticks": 189312,
          "time": 147.9,
          "velocity": 0.7874015748031497
        },
        {
          "duration": 0.07499999999998863,
          "durationTicks": 96,
          "midi": 84,
          "name": "C6",
          "ticks": 189408,
          "time": 147.975,
          "velocity": 0.7874015748031497
        },
        {
          "duration": 0.07500000000001705,
          "durationTicks": 96,
          "midi": 82,
          "name": "A#5",
          "ticks": 189504,
          "time": 148.04999999999998,
          "velocity": 0.7874015748031497
        },
        {
          "duration": 0.07499999999998863,
          "durationTicks": 96,
          "midi": 84,
          "name": "C6",
          "ticks": 189600,
          "time": 148.125,
          "velocity": 0.7874015748031497
        },
        {
          "duration": 0.07500000000001705,
          "durationTicks": 96,
          "midi": 82,
          "name": "A#5",
          "ticks": 189696,
          "time": 148.2,
          "velocity": 0.7874015748031497
        },
        {
          "duration": 0.07499999999998863,
          "durationTicks": 96,
          "midi": 84,
          "name": "C6",
          "ticks": 189792,
          "time": 148.275,
          "velocity": 0.7874015748031497
        },
        {
          "duration": 0.07499999999998863,
          "durationTicks": 96,
          "midi": 82,
          "name": "A#5",
          "ticks": 189888,
          "time": 148.35,
          "velocity": 0.7874015748031497
        },
        {
          "duration": 0.07500000000001705,
          "durationTicks": 96,
          "midi": 84,
          "name": "C6",
          "ticks": 189984,
          "time": 148.42499999999998,
          "velocity": 0.7874015748031497
        },
        {
          "duration": 0.07499999999998863,
          "durationTicks": 96,
          "midi": 82,
          "name": "A#5",
          "ticks": 190080,
          "time": 148.5,
          "velocity": 0.7874015748031497
        },
        {
          "duration": 0.07500000000001705,
          "durationTicks": 96,
          "midi": 84,
          "name": "C6",
          "ticks": 190176,
          "time": 148.575,
          "velocity": 0.7874015748031497
        },
        {
          "duration": 0.07499999999998863,
          "durationTicks": 96,
          "midi": 82,
          "name": "A#5",
          "ticks": 190272,
          "time": 148.65,
          "velocity": 0.7874015748031497
        },
        {
          "duration": 0.07499999999998863,
          "durationTicks": 96,
          "midi": 84,
          "name": "C6",
          "ticks": 190368,
          "time": 148.725,
          "velocity": 0.7874015748031497
        },
        {
          "duration": 0.07500000000001705,
          "durationTicks": 96,
          "midi": 82,
          "name": "A#5",
          "ticks": 190464,
          "time": 148.79999999999998,
          "velocity": 0.7874015748031497
        },
        {
          "duration": 0.07499999999998863,
          "durationTicks": 96,
          "midi": 84,
          "name": "C6",
          "ticks": 190560,
          "time": 148.875,
          "velocity": 0.7874015748031497
        },
        {
          "duration": 0.07500000000001705,
          "durationTicks": 96,
          "midi": 82,
          "name": "A#5",
          "ticks": 190656,
          "time": 148.95,
          "velocity": 0.7874015748031497
        },
        {
          "duration": 0.07499999999998863,
          "durationTicks": 96,
          "midi": 84,
          "name": "C6",
          "ticks": 190752,
          "time": 149.025,
          "velocity": 0.7874015748031497
        },
        {
          "duration": 0.07499999999998863,
          "durationTicks": 96,
          "midi": 82,
          "name": "A#5",
          "ticks": 190848,
          "time": 149.1,
          "velocity": 0.7874015748031497
        },
        {
          "duration": 0.07500000000001705,
          "durationTicks": 96,
          "midi": 84,
          "name": "C6",
          "ticks": 190944,
          "time": 149.17499999999998,
          "velocity": 0.7874015748031497
        },
        {
          "duration": 0.07499999999998863,
          "durationTicks": 96,
          "midi": 82,
          "name": "A#5",
          "ticks": 191040,
          "time": 149.25,
          "velocity": 0.7874015748031497
        },
        {
          "duration": 0.07500000000001705,
          "durationTicks": 96,
          "midi": 84,
          "name": "C6",
          "ticks": 191136,
          "time": 149.325,
          "velocity": 0.7874015748031497
        },
        {
          "duration": 0.15000000000000568,
          "durationTicks": 192,
          "midi": 76,
          "name": "E5",
          "ticks": 192000,
          "time": 150,
          "velocity": 0.7874015748031497
        },
        {
          "duration": 0.14999999999997726,
          "durationTicks": 192,
          "midi": 79,
          "name": "G5",
          "ticks": 192192,
          "time": 150.15,
          "velocity": 0.7874015748031497
        },
        {
          "duration": 0.15000000000000568,
          "durationTicks": 192,
          "midi": 84,
          "name": "C6",
          "ticks": 192384,
          "time": 150.29999999999998,
          "velocity": 0.7874015748031497
        },
        {
          "duration": 0.30000000000001137,
          "durationTicks": 384,
          "midi": 88,
          "name": "E6",
          "ticks": 192576,
          "time": 150.45,
          "velocity": 0.7874015748031497
        },
        {
          "duration": 0.29999999999998295,
          "durationTicks": 384,
          "midi": 88,
          "name": "E6",
          "ticks": 192960,
          "time": 150.75,
          "velocity": 0.7874015748031497
        },
        {
          "duration": 0.15000000000000568,
          "durationTicks": 192,
          "midi": 79,
          "name": "G5",
          "ticks": 193344,
          "time": 151.04999999999998,
          "velocity": 0.7874015748031497
        },
        {
          "duration": 0.30000000000001137,
          "durationTicks": 384,
          "midi": 86,
          "name": "D6",
          "ticks": 193536,
          "time": 151.2,
          "velocity": 0.7874015748031497
        },
        {
          "duration": 0.29999999999998295,
          "durationTicks": 384,
          "midi": 89,
          "name": "F6",
          "ticks": 193920,
          "time": 151.5,
          "velocity": 0.7874015748031497
        },
        {
          "duration": 0.30000000000001137,
          "durationTicks": 384,
          "midi": 88,
          "name": "E6",
          "ticks": 194304,
          "time": 151.79999999999998,
          "velocity": 0.7874015748031497
        },
        {
          "duration": 0.30000000000001137,
          "durationTicks": 384,
          "midi": 84,
          "name": "C6",
          "ticks": 194688,
          "time": 152.1,
          "velocity": 0.7874015748031497
        },
        {
          "duration": 0.15000000000000568,
          "durationTicks": 192,
          "midi": 76,
          "name": "E5",
          "ticks": 219648,
          "time": 171.6,
          "velocity": 0.7874015748031497
        },
        {
          "duration": 0.15000000000000568,
          "durationTicks": 192,
          "midi": 79,
          "name": "G5",
          "ticks": 219840,
          "time": 171.75,
          "velocity": 0.7874015748031497
        },
        {
          "duration": 0.14999999999997726,
          "durationTicks": 192,
          "midi": 84,
          "name": "C6",
          "ticks": 220032,
          "time": 171.9,
          "velocity": 0.7874015748031497
        },
        {
          "duration": 0.07500000000001705,
          "durationTicks": 96,
          "midi": 86,
          "name": "D6",
          "ticks": 220224,
          "time": 172.04999999999998,
          "velocity": 0.7874015748031497
        },
        {
          "duration": 0.22499999999999432,
          "durationTicks": 288,
          "midi": 88,
          "name": "E6",
          "ticks": 220320,
          "time": 172.125,
          "velocity": 0.7874015748031497
        },
        {
          "duration": 0.07499999999998863,
          "durationTicks": 96,
          "midi": 86,
          "name": "D6",
          "ticks": 220608,
          "time": 172.35,
          "velocity": 0.7874015748031497
        },
        {
          "duration": 0.22500000000002274,
          "durationTicks": 288,
          "midi": 88,
          "name": "E6",
          "ticks": 220704,
          "time": 172.42499999999998,
          "velocity": 0.7874015748031497
        },
        {
          "duration": 0.14999999999997726,
          "durationTicks": 192,
          "midi": 79,
          "name": "G5",
          "ticks": 220992,
          "time": 172.65,
          "velocity": 0.7874015748031497
        },
        {
          "duration": 0.30000000000001137,
          "durationTicks": 384,
          "midi": 86,
          "name": "D6",
          "ticks": 221184,
          "time": 172.79999999999998,
          "velocity": 0.7874015748031497
        },
        {
          "duration": 0.30000000000001137,
          "durationTicks": 384,
          "midi": 89,
          "name": "F6",
          "ticks": 221568,
          "time": 173.1,
          "velocity": 0.7874015748031497
        },
        {
          "duration": 0.29999999999998295,
          "durationTicks": 384,
          "midi": 88,
          "name": "E6",
          "ticks": 221952,
          "time": 173.4,
          "velocity": 0.7874015748031497
        },
        {
          "duration": 0.30000000000001137,
          "durationTicks": 384,
          "midi": 84,
          "name": "C6",
          "ticks": 222336,
          "time": 173.7,
          "velocity": 0.7874015748031497
        },
        {
          "duration": 0.14999999999997726,
          "durationTicks": 192,
          "midi": 76,
          "name": "E5",
          "ticks": 225792,
          "time": 176.4,
          "velocity": 0.7874015748031497
        },
        {
          "duration": 0.15000000000000568,
          "durationTicks": 192,
          "midi": 79,
          "name": "G5",
          "ticks": 225984,
          "time": 176.54999999999998,
          "velocity": 0.7874015748031497
        },
        {
          "duration": 0.15000000000000568,
          "durationTicks": 192,
          "midi": 84,
          "name": "C6",
          "ticks": 226176,
          "time": 176.7,
          "velocity": 0.7874015748031497
        },
        {
          "duration": 0.07499999999998863,
          "durationTicks": 96,
          "midi": 86,
          "name": "D6",
          "ticks": 226368,
          "time": 176.85,
          "velocity": 0.7874015748031497
        },
        {
          "duration": 0.22500000000002274,
          "durationTicks": 288,
          "midi": 88,
          "name": "E6",
          "ticks": 226464,
          "time": 176.92499999999998,
          "velocity": 0.7874015748031497
        },
        {
          "duration": 0.07499999999998863,
          "durationTicks": 96,
          "midi": 86,
          "name": "D6",
          "ticks": 226752,
          "time": 177.15,
          "velocity": 0.7874015748031497
        },
        {
          "duration": 0.22499999999999432,
          "durationTicks": 288,
          "midi": 88,
          "name": "E6",
          "ticks": 226848,
          "time": 177.225,
          "velocity": 0.7874015748031497
        },
        {
          "duration": 0.15000000000000568,
          "durationTicks": 192,
          "midi": 79,
          "name": "G5",
          "ticks": 227136,
          "time": 177.45,
          "velocity": 0.7874015748031497
        },
        {
          "duration": 0.30000000000001137,
          "durationTicks": 384,
          "midi": 86,
          "name": "D6",
          "ticks": 227328,
          "time": 177.6,
          "velocity": 0.7874015748031497
        },
        {
          "duration": 0.29999999999998295,
          "durationTicks": 384,
          "midi": 89,
          "name": "F6",
          "ticks": 227712,
          "time": 177.9,
          "velocity": 0.7874015748031497
        },
        {
          "duration": 0.30000000000001137,
          "durationTicks": 384,
          "midi": 88,
          "name": "E6",
          "ticks": 228096,
          "time": 178.2,
          "velocity": 0.7874015748031497
        },
        {
          "duration": 0.29999999999998295,
          "durationTicks": 384,
          "midi": 84,
          "name": "C6",
          "ticks": 228480,
          "time": 178.5,
          "velocity": 0.7874015748031497
        },
        {
          "duration": 0.15000000000000568,
          "durationTicks": 192,
          "midi": 76,
          "name": "E5",
          "ticks": 238080,
          "time": 186,
          "velocity": 0.7874015748031497
        },
        {
          "duration": 0.14999999999997726,
          "durationTicks": 192,
          "midi": 79,
          "name": "G5",
          "ticks": 238272,
          "time": 186.15,
          "velocity": 0.7874015748031497
        },
        {
          "duration": 0.15000000000000568,
          "durationTicks": 192,
          "midi": 84,
          "name": "C6",
          "ticks": 238464,
          "time": 186.29999999999998,
          "velocity": 0.7874015748031497
        },
        {
          "duration": 0.07500000000001705,
          "durationTicks": 96,
          "midi": 86,
          "name": "D6",
          "ticks": 238656,
          "time": 186.45,
          "velocity": 0.7874015748031497
        },
        {
          "duration": 0.22499999999999432,
          "durationTicks": 288,
          "midi": 88,
          "name": "E6",
          "ticks": 238752,
          "time": 186.525,
          "velocity": 0.7874015748031497
        },
        {
          "duration": 0.07499999999998863,
          "durationTicks": 96,
          "midi": 86,
          "name": "D6",
          "ticks": 239040,
          "time": 186.75,
          "velocity": 0.7874015748031497
        },
        {
          "duration": 0.22499999999999432,
          "durationTicks": 288,
          "midi": 88,
          "name": "E6",
          "ticks": 239136,
          "time": 186.825,
          "velocity": 0.7874015748031497
        },
        {
          "duration": 0.15000000000000568,
          "durationTicks": 192,
          "midi": 79,
          "name": "G5",
          "ticks": 239424,
          "time": 187.04999999999998,
          "velocity": 0.7874015748031497
        },
        {
          "duration": 0.30000000000001137,
          "durationTicks": 384,
          "midi": 86,
          "name": "D6",
          "ticks": 239616,
          "time": 187.2,
          "velocity": 0.7874015748031497
        },
        {
          "duration": 0.29999999999998295,
          "durationTicks": 384,
          "midi": 89,
          "name": "F6",
          "ticks": 240000,
          "time": 187.5,
          "velocity": 0.7874015748031497
        },
        {
          "duration": 0.30000000000001137,
          "durationTicks": 384,
          "midi": 88,
          "name": "E6",
          "ticks": 240384,
          "time": 187.79999999999998,
          "velocity": 0.7874015748031497
        },
        {
          "duration": 0.30000000000001137,
          "durationTicks": 384,
          "midi": 84,
          "name": "C6",
          "ticks": 240768,
          "time": 188.1,
          "velocity": 0.7874015748031497
        },
        {
          "duration": 0.14999999999997726,
          "durationTicks": 192,
          "midi": 72,
          "name": "C5",
          "ticks": 241152,
          "time": 188.4,
          "velocity": 0.7874015748031497
        },
        {
          "duration": 0.15000000000000568,
          "durationTicks": 192,
          "midi": 76,
          "name": "E5",
          "ticks": 241344,
          "time": 188.54999999999998,
          "velocity": 0.7874015748031497
        },
        {
          "duration": 0.15000000000000568,
          "durationTicks": 192,
          "midi": 79,
          "name": "G5",
          "ticks": 241536,
          "time": 188.7,
          "velocity": 0.7874015748031497
        },
        {
          "duration": 0.30000000000001137,
          "durationTicks": 384,
          "midi": 84,
          "name": "C6",
          "ticks": 241728,
          "time": 188.85,
          "velocity": 0.7874015748031497
        },
        {
          "duration": 0.29999999999998295,
          "durationTicks": 384,
          "midi": 84,
          "name": "C6",
          "ticks": 242112,
          "time": 189.15,
          "velocity": 0.7874015748031497
        },
        {
          "duration": 0.15000000000000568,
          "durationTicks": 192,
          "midi": 79,
          "name": "G5",
          "ticks": 242496,
          "time": 189.45,
          "velocity": 0.7874015748031497
        },
        {
          "duration": 0.30000000000001137,
          "durationTicks": 384,
          "midi": 83,
          "name": "B5",
          "ticks": 242688,
          "time": 189.6,
          "velocity": 0.7874015748031497
        },
        {
          "duration": 0.29999999999998295,
          "durationTicks": 384,
          "midi": 86,
          "name": "D6",
          "ticks": 243072,
          "time": 189.9,
          "velocity": 0.7874015748031497
        },
        {
          "duration": 0.15000000000000568,
          "durationTicks": 192,
          "midi": 84,
          "name": "C6",
          "ticks": 243456,
          "time": 190.2,
          "velocity": 0.7874015748031497
        },
        {
          "duration": 0.15000000000000568,
          "durationTicks": 192,
          "midi": 96,
          "name": "C7",
          "ticks": 243840,
          "time": 190.5,
          "velocity": 1
        }
      ],
      "endOfTrackTicks": 245760
    },
    {
      "channel": 6,
      "controlChanges": {
        "7": [
          {
            "number": 7,
            "ticks": 1536,
            "time": 1.2,
            "value": 0.6299212598425197
          },
          {
            "number": 7,
            "ticks": 1536,
            "time": 1.2,
            "value": 0.6299212598425197
          },
          {
            "number": 7,
            "ticks": 1536,
            "time": 1.2,
            "value": 0.6299212598425197
          },
          {
            "number": 7,
            "ticks": 35328,
            "time": 27.599999999999998,
            "value": 1
          },
          {
            "number": 7,
            "ticks": 37632,
            "time": 29.4,
            "value": 0.6299212598425197
          },
          {
            "number": 7,
            "ticks": 142848,
            "time": 111.6,
            "value": 0.6299212598425197
          }
        ],
        "91": [
          {
            "number": 91,
            "ticks": 1536,
            "time": 1.2,
            "value": 1
          }
        ]
      },
      "pitchBends": [],
      "instrument": {
        "family": "ensemble",
        "number": 48,
        "name": "string ensemble 1"
      },
      "name": "STRINGS",
      "notes": [
        {
          "duration": 0.3203125,
          "durationTicks": 410,
          "midi": 86,
          "name": "D6",
          "ticks": 37944,
          "time": 29.643749999999997,
          "velocity": 1
        },
        {
          "duration": 0.3203125,
          "durationTicks": 410,
          "midi": 62,
          "name": "D4",
          "ticks": 37944,
          "time": 29.643749999999997,
          "velocity": 1
        },
        {
          "duration": 0.38593750000000426,
          "durationTicks": 494,
          "midi": 82,
          "name": "A#5",
          "ticks": 38354,
          "time": 29.964062499999997,
          "velocity": 1
        },
        {
          "duration": 0.38593750000000426,
          "durationTicks": 494,
          "midi": 58,
          "name": "A#3",
          "ticks": 38354,
          "time": 29.964062499999997,
          "velocity": 1
        },
        {
          "duration": 0.11249999999999716,
          "durationTicks": 144,
          "midi": 75,
          "name": "D#5",
          "ticks": 158208,
          "time": 123.6,
          "velocity": 1
        },
        {
          "duration": 0.22499999999999432,
          "durationTicks": 288,
          "midi": 70,
          "name": "A#4",
          "ticks": 158400,
          "time": 123.75,
          "velocity": 1
        },
        {
          "duration": 0.11249999999999716,
          "durationTicks": 144,
          "midi": 70,
          "name": "A#4",
          "ticks": 158784,
          "time": 124.05,
          "velocity": 1
        },
        {
          "duration": 0.11250000000001137,
          "durationTicks": 144,
          "midi": 70,
          "name": "A#4",
          "ticks": 158976,
          "time": 124.19999999999999,
          "velocity": 1
        },
        {
          "duration": 0.11249999999999716,
          "durationTicks": 144,
          "midi": 70,
          "name": "A#4",
          "ticks": 159168,
          "time": 124.35,
          "velocity": 1
        },
        {
          "duration": 0.11249999999999716,
          "durationTicks": 144,
          "midi": 70,
          "name": "A#4",
          "ticks": 159360,
          "time": 124.5,
          "velocity": 1
        },
        {
          "duration": 0.22500000000000853,
          "durationTicks": 288,
          "midi": 70,
          "name": "A#4",
          "ticks": 159552,
          "time": 124.64999999999999,
          "velocity": 1
        },
        {
          "duration": 0.11250000000001137,
          "durationTicks": 144,
          "midi": 70,
          "name": "A#4",
          "ticks": 159936,
          "time": 124.94999999999999,
          "velocity": 1
        },
        {
          "duration": 0.11249999999999716,
          "durationTicks": 144,
          "midi": 70,
          "name": "A#4",
          "ticks": 160128,
          "time": 125.1,
          "velocity": 1
        },
        {
          "duration": 0.11249999999999716,
          "durationTicks": 144,
          "midi": 70,
          "name": "A#4",
          "ticks": 160320,
          "time": 125.25,
          "velocity": 1
        },
        {
          "duration": 0.22500000000000853,
          "durationTicks": 288,
          "midi": 70,
          "name": "A#4",
          "ticks": 160512,
          "time": 125.39999999999999,
          "velocity": 1
        },
        {
          "duration": 0.22500000000000853,
          "durationTicks": 288,
          "midi": 70,
          "name": "A#4",
          "ticks": 160896,
          "time": 125.69999999999999,
          "velocity": 1
        },
        {
          "duration": 0.22499999999999432,
          "durationTicks": 288,
          "midi": 65,
          "name": "F4",
          "ticks": 161280,
          "time": 126,
          "velocity": 1
        },
        {
          "duration": 0.11249999999999716,
          "durationTicks": 144,
          "midi": 65,
          "name": "F4",
          "ticks": 161664,
          "time": 126.3,
          "velocity": 1
        },
        {
          "duration": 0.11250000000001137,
          "durationTicks": 144,
          "midi": 65,
          "name": "F4",
          "ticks": 161856,
          "time": 126.44999999999999,
          "velocity": 1
        },
        {
          "duration": 0.22499999999999432,
          "durationTicks": 288,
          "midi": 65,
          "name": "F4",
          "ticks": 162048,
          "time": 126.6,
          "velocity": 1
        },
        {
          "duration": 0.15000000000000568,
          "durationTicks": 192,
          "midi": 65,
          "name": "F4",
          "ticks": 162432,
          "time": 126.89999999999999,
          "velocity": 1
        },
        {
          "duration": 0.375,
          "durationTicks": 480,
          "midi": 70,
          "name": "A#4",
          "ticks": 162624,
          "time": 127.05,
          "velocity": 1
        },
        {
          "duration": 1.1999999999999886,
          "durationTicks": 1536,
          "midi": 75,
          "name": "D#5",
          "ticks": 164352,
          "time": 128.4,
          "velocity": 0.7874015748031497
        },
        {
          "duration": 1.8000000000000114,
          "durationTicks": 2304,
          "midi": 74,
          "name": "D5",
          "ticks": 165888,
          "time": 129.6,
          "velocity": 0.7874015748031497
        },
        {
          "duration": 0.5999999999999943,
          "durationTicks": 768,
          "midi": 72,
          "name": "C5",
          "ticks": 168192,
          "time": 131.4,
          "velocity": 0.7874015748031497
        },
        {
          "duration": 0.5999999999999943,
          "durationTicks": 768,
          "midi": 70,
          "name": "A#4",
          "ticks": 168960,
          "time": 132,
          "velocity": 0.7874015748031497
        },
        {
          "duration": 0.5999999999999943,
          "durationTicks": 768,
          "midi": 68,
          "name": "G#4",
          "ticks": 169728,
          "time": 132.6,
          "velocity": 0.7874015748031497
        },
        {
          "duration": 0.5999999999999943,
          "durationTicks": 768,
          "midi": 67,
          "name": "G4",
          "ticks": 170496,
          "time": 133.2,
          "velocity": 0.7874015748031497
        },
        {
          "duration": 0.6000000000000227,
          "durationTicks": 768,
          "midi": 70,
          "name": "A#4",
          "ticks": 171264,
          "time": 133.79999999999998,
          "velocity": 0.7874015748031497
        },
        {
          "duration": 0.5999999999999943,
          "durationTicks": 768,
          "midi": 69,
          "name": "A4",
          "ticks": 172032,
          "time": 134.4,
          "velocity": 0.7874015748031497
        },
        {
          "duration": 0.5999999999999943,
          "durationTicks": 768,
          "midi": 72,
          "name": "C5",
          "ticks": 172800,
          "time": 135,
          "velocity": 0.7874015748031497
        },
        {
          "duration": 0.5999999999999943,
          "durationTicks": 768,
          "midi": 74,
          "name": "D5",
          "ticks": 173568,
          "time": 135.6,
          "velocity": 0.7874015748031497
        },
        {
          "duration": 0.5999999999999943,
          "durationTicks": 768,
          "midi": 77,
          "name": "F5",
          "ticks": 174336,
          "time": 136.2,
          "velocity": 0.7874015748031497
        },
        {
          "duration": 0.6000000000000227,
          "durationTicks": 768,
          "midi": 82,
          "name": "A#5",
          "ticks": 175104,
          "time": 136.79999999999998,
          "velocity": 0.7874015748031497
        },
        {
          "duration": 0.5999999999999943,
          "durationTicks": 768,
          "midi": 86,
          "name": "D6",
          "ticks": 175872,
          "time": 137.4,
          "velocity": 0.7874015748031497
        },
        {
          "duration": 1.1999999999999886,
          "durationTicks": 1536,
          "midi": 87,
          "name": "D#6",
          "ticks": 176640,
          "time": 138,
          "velocity": 0.7874015748031497
        },
        {
          "duration": 0.5999999999999943,
          "durationTicks": 768,
          "midi": 86,
          "name": "D6",
          "ticks": 178176,
          "time": 139.2,
          "velocity": 0.7874015748031497
        },
        {
          "duration": 0.6000000000000227,
          "durationTicks": 768,
          "midi": 84,
          "name": "C6",
          "ticks": 178944,
          "time": 139.79999999999998,
          "velocity": 0.7874015748031497
        },
        {
          "duration": 1.1999999999999886,
          "durationTicks": 1536,
          "midi": 86,
          "name": "D6",
          "ticks": 179712,
          "time": 140.4,
          "velocity": 0.7874015748031497
        },
        {
          "duration": 0.5999999999999943,
          "durationTicks": 768,
          "midi": 84,
          "name": "C6",
          "ticks": 181248,
          "time": 141.6,
          "velocity": 0.7874015748031497
        },
        {
          "duration": 0.5999999999999943,
          "durationTicks": 768,
          "midi": 82,
          "name": "A#5",
          "ticks": 182016,
          "time": 142.2,
          "velocity": 0.7874015748031497
        },
        {
          "duration": 1.200000000000017,
          "durationTicks": 1536,
          "midi": 79,
          "name": "G5",
          "ticks": 182784,
          "time": 142.79999999999998,
          "velocity": 0.7874015748031497
        },
        {
          "duration": 0.9000000000000057,
          "durationTicks": 1152,
          "midi": 77,
          "name": "F5",
          "ticks": 184320,
          "time": 144,
          "velocity": 0.7874015748031497
        },
        {
          "duration": 0.29999999999998295,
          "durationTicks": 384,
          "midi": 75,
          "name": "D#5",
          "ticks": 185472,
          "time": 144.9,
          "velocity": 0.7874015748031497
        },
        {
          "duration": 1.200000000000017,
          "durationTicks": 1536,
          "midi": 74,
          "name": "D5",
          "ticks": 185856,
          "time": 145.2,
          "velocity": 0.7874015748031497
        },
        {
          "duration": 0.5999999999999943,
          "durationTicks": 768,
          "midi": 72,
          "name": "C5",
          "ticks": 195072,
          "time": 152.4,
          "velocity": 1
        },
        {
          "duration": 0.5999999999999943,
          "durationTicks": 768,
          "midi": 76,
          "name": "E5",
          "ticks": 195840,
          "time": 153,
          "velocity": 1
        },
        {
          "duration": 0.6000000000000227,
          "durationTicks": 768,
          "midi": 79,
          "name": "G5",
          "ticks": 196224,
          "time": 153.29999999999998,
          "velocity": 1
        },
        {
          "duration": 0.0015625000000056843,
          "durationTicks": 2,
          "midi": 84,
          "name": "C6",
          "ticks": 196992,
          "time": 153.9,
          "velocity": 1
        },
        {
          "duration": 0.30000000000001137,
          "durationTicks": 384,
          "midi": 84,
          "name": "C6",
          "ticks": 197376,
          "time": 154.2,
          "velocity": 1
        },
        {
          "duration": 0.29999999999998295,
          "durationTicks": 384,
          "midi": 84,
          "name": "C6",
          "ticks": 197760,
          "time": 154.5,
          "velocity": 1
        },
        {
          "duration": 1.1999999999999886,
          "durationTicks": 1536,
          "midi": 69,
          "name": "A4",
          "ticks": 222720,
          "time": 174,
          "velocity": 1
        },
        {
          "duration": 1.1999999999999886,
          "durationTicks": 1536,
          "midi": 72,
          "name": "C5",
          "ticks": 222720,
          "time": 174,
          "velocity": 1
        },
        {
          "duration": 1.1999999999999886,
          "durationTicks": 1536,
          "midi": 77,
          "name": "F5",
          "ticks": 222720,
          "time": 174,
          "velocity": 1
        },
        {
          "duration": 1.200000000000017,
          "durationTicks": 1536,
          "midi": 71,
          "name": "B4",
          "ticks": 224256,
          "time": 175.2,
          "velocity": 1
        },
        {
          "duration": 1.200000000000017,
          "durationTicks": 1536,
          "midi": 74,
          "name": "D5",
          "ticks": 224256,
          "time": 175.2,
          "velocity": 1
        },
        {
          "duration": 1.200000000000017,
          "durationTicks": 1536,
          "midi": 79,
          "name": "G5",
          "ticks": 224256,
          "time": 175.2,
          "velocity": 1
        },
        {
          "duration": 0.44999999999998863,
          "durationTicks": 576,
          "midi": 67,
          "name": "G4",
          "ticks": 225792,
          "time": 176.4,
          "velocity": 1
        },
        {
          "duration": 0.44999999999998863,
          "durationTicks": 576,
          "midi": 72,
          "name": "C5",
          "ticks": 225792,
          "time": 176.4,
          "velocity": 1
        },
        {
          "duration": 0.44999999999998863,
          "durationTicks": 576,
          "midi": 76,
          "name": "E5",
          "ticks": 225792,
          "time": 176.4,
          "velocity": 1
        },
        {
          "duration": 1.200000000000017,
          "durationTicks": 1536,
          "midi": 72,
          "name": "C5",
          "ticks": 228864,
          "time": 178.79999999999998,
          "velocity": 1
        },
        {
          "duration": 1.200000000000017,
          "durationTicks": 1536,
          "midi": 77,
          "name": "F5",
          "ticks": 228864,
          "time": 178.79999999999998,
          "velocity": 1
        },
        {
          "duration": 1.200000000000017,
          "durationTicks": 1536,
          "midi": 69,
          "name": "A4",
          "ticks": 228864,
          "time": 178.79999999999998,
          "velocity": 1
        },
        {
          "duration": 1.1999999999999886,
          "durationTicks": 1536,
          "midi": 79,
          "name": "G5",
          "ticks": 230400,
          "time": 180,
          "velocity": 1
        },
        {
          "duration": 1.1999999999999886,
          "durationTicks": 1536,
          "midi": 74,
          "name": "D5",
          "ticks": 230400,
          "time": 180,
          "velocity": 1
        },
        {
          "duration": 1.1999999999999886,
          "durationTicks": 1536,
          "midi": 71,
          "name": "B4",
          "ticks": 230400,
          "time": 180,
          "velocity": 1
        },
        {
          "duration": 1.200000000000017,
          "durationTicks": 1536,
          "midi": 76,
          "name": "E5",
          "ticks": 231936,
          "time": 181.2,
          "velocity": 1
        },
        {
          "duration": 1.200000000000017,
          "durationTicks": 1536,
          "midi": 72,
          "name": "C5",
          "ticks": 231936,
          "time": 181.2,
          "velocity": 1
        },
        {
          "duration": 1.200000000000017,
          "durationTicks": 1536,
          "midi": 81,
          "name": "A5",
          "ticks": 231936,
          "time": 181.2,
          "velocity": 1
        },
        {
          "duration": 1.200000000000017,
          "durationTicks": 1536,
          "midi": 69,
          "name": "A4",
          "ticks": 231936,
          "time": 181.2,
          "velocity": 1
        },
        {
          "duration": 1.1999999999999886,
          "durationTicks": 1536,
          "midi": 74,
          "name": "D5",
          "ticks": 233472,
          "time": 182.4,
          "velocity": 1
        },
        {
          "duration": 1.1999999999999886,
          "durationTicks": 1536,
          "midi": 69,
          "name": "A4",
          "ticks": 233472,
          "time": 182.4,
          "velocity": 1
        },
        {
          "duration": 1.1999999999999886,
          "durationTicks": 1536,
          "midi": 78,
          "name": "F#5",
          "ticks": 233472,
          "time": 182.4,
          "velocity": 1
        },
        {
          "duration": 1.1999999999999886,
          "durationTicks": 1536,
          "midi": 77,
          "name": "F5",
          "ticks": 235008,
          "time": 183.6,
          "velocity": 1
        },
        {
          "duration": 1.1999999999999886,
          "durationTicks": 1536,
          "midi": 69,
          "name": "A4",
          "ticks": 235008,
          "time": 183.6,
          "velocity": 1
        },
        {
          "duration": 1.1999999999999886,
          "durationTicks": 1536,
          "midi": 72,
          "name": "C5",
          "ticks": 235008,
          "time": 183.6,
          "velocity": 1
        },
        {
          "duration": 1.200000000000017,
          "durationTicks": 1536,
          "midi": 71,
          "name": "B4",
          "ticks": 236544,
          "time": 184.79999999999998,
          "velocity": 1
        },
        {
          "duration": 1.200000000000017,
          "durationTicks": 1536,
          "midi": 74,
          "name": "D5",
          "ticks": 236544,
          "time": 184.79999999999998,
          "velocity": 1
        },
        {
          "duration": 1.200000000000017,
          "durationTicks": 1536,
          "midi": 79,
          "name": "G5",
          "ticks": 236544,
          "time": 184.79999999999998,
          "velocity": 1
        },
        {
          "duration": 0.15000000000000568,
          "durationTicks": 192,
          "midi": 76,
          "name": "E5",
          "ticks": 238080,
          "time": 186,
          "velocity": 0.7874015748031497
        },
        {
          "duration": 0.14999999999997726,
          "durationTicks": 192,
          "midi": 79,
          "name": "G5",
          "ticks": 238272,
          "time": 186.15,
          "velocity": 0.7874015748031497
        },
        {
          "duration": 0.15000000000000568,
          "durationTicks": 192,
          "midi": 84,
          "name": "C6",
          "ticks": 238464,
          "time": 186.29999999999998,
          "velocity": 0.7874015748031497
        },
        {
          "duration": 0.30000000000001137,
          "durationTicks": 384,
          "midi": 88,
          "name": "E6",
          "ticks": 238656,
          "time": 186.45,
          "velocity": 0.7874015748031497
        },
        {
          "duration": 0.29999999999998295,
          "durationTicks": 384,
          "midi": 88,
          "name": "E6",
          "ticks": 239040,
          "time": 186.75,
          "velocity": 0.7874015748031497
        },
        {
          "duration": 0.15000000000000568,
          "durationTicks": 192,
          "midi": 79,
          "name": "G5",
          "ticks": 239424,
          "time": 187.04999999999998,
          "velocity": 0.7874015748031497
        },
        {
          "duration": 0.30000000000001137,
          "durationTicks": 384,
          "midi": 86,
          "name": "D6",
          "ticks": 239616,
          "time": 187.2,
          "velocity": 0.7874015748031497
        },
        {
          "duration": 0.29999999999998295,
          "durationTicks": 384,
          "midi": 89,
          "name": "F6",
          "ticks": 240000,
          "time": 187.5,
          "velocity": 0.7874015748031497
        },
        {
          "duration": 0.30000000000001137,
          "durationTicks": 384,
          "midi": 88,
          "name": "E6",
          "ticks": 240384,
          "time": 187.79999999999998,
          "velocity": 0.7874015748031497
        },
        {
          "duration": 0.30000000000001137,
          "durationTicks": 384,
          "midi": 84,
          "name": "C6",
          "ticks": 240768,
          "time": 188.1,
          "velocity": 0.7874015748031497
        },
        {
          "duration": 0.14999999999997726,
          "durationTicks": 192,
          "midi": 72,
          "name": "C5",
          "ticks": 241152,
          "time": 188.4,
          "velocity": 0.7874015748031497
        },
        {
          "duration": 0.15000000000000568,
          "durationTicks": 192,
          "midi": 76,
          "name": "E5",
          "ticks": 241344,
          "time": 188.54999999999998,
          "velocity": 0.7874015748031497
        },
        {
          "duration": 0.15000000000000568,
          "durationTicks": 192,
          "midi": 79,
          "name": "G5",
          "ticks": 241536,
          "time": 188.7,
          "velocity": 0.7874015748031497
        },
        {
          "duration": 0.30000000000001137,
          "durationTicks": 384,
          "midi": 84,
          "name": "C6",
          "ticks": 241728,
          "time": 188.85,
          "velocity": 0.7874015748031497
        },
        {
          "duration": 0.29999999999998295,
          "durationTicks": 384,
          "midi": 84,
          "name": "C6",
          "ticks": 242112,
          "time": 189.15,
          "velocity": 0.7874015748031497
        },
        {
          "duration": 0.15000000000000568,
          "durationTicks": 192,
          "midi": 79,
          "name": "G5",
          "ticks": 242496,
          "time": 189.45,
          "velocity": 0.7874015748031497
        },
        {
          "duration": 0.30000000000001137,
          "durationTicks": 384,
          "midi": 83,
          "name": "B5",
          "ticks": 242688,
          "time": 189.6,
          "velocity": 0.7874015748031497
        },
        {
          "duration": 0.29999999999998295,
          "durationTicks": 384,
          "midi": 86,
          "name": "D6",
          "ticks": 243072,
          "time": 189.9,
          "velocity": 0.7874015748031497
        },
        {
          "duration": 0.15000000000000568,
          "durationTicks": 192,
          "midi": 84,
          "name": "C6",
          "ticks": 243456,
          "time": 190.2,
          "velocity": 0.7874015748031497
        },
        {
          "duration": 0.15000000000000568,
          "durationTicks": 192,
          "midi": 96,
          "name": "C7",
          "ticks": 243840,
          "time": 190.5,
          "velocity": 1
        }
      ],
      "endOfTrackTicks": 245760
    },
    {
      "channel": 6,
      "controlChanges": {
        "7": [
          {
            "number": 7,
            "ticks": 141312,
            "time": 110.39999999999999,
            "value": 1
          }
        ]
      },
      "pitchBends": [],
      "instrument": {
        "family": "strings",
        "number": 46,
        "name": "orchestral harp"
      },
      "name": "",
      "notes": [
        {
          "duration": 0.15000000000000213,
          "durationTicks": 192,
          "midi": 89,
          "name": "F6",
          "ticks": 35328,
          "time": 27.599999999999998,
          "velocity": 1
        },
        {
          "duration": 0.14999999999999858,
          "durationTicks": 192,
          "midi": 87,
          "name": "D#6",
          "ticks": 35376,
          "time": 27.6375,
          "velocity": 1
        },
        {
          "duration": 0.14999999999999858,
          "durationTicks": 192,
          "midi": 86,
          "name": "D6",
          "ticks": 35424,
          "time": 27.675,
          "velocity": 1
        },
        {
          "duration": 0.15000000000000213,
          "durationTicks": 192,
          "midi": 84,
          "name": "C6",
          "ticks": 35472,
          "time": 27.7125,
          "velocity": 1
        },
        {
          "duration": 0.14999999999999858,
          "durationTicks": 192,
          "midi": 82,
          "name": "A#5",
          "ticks": 35520,
          "time": 27.75,
          "velocity": 1
        },
        {
          "duration": 0.15000000000000213,
          "durationTicks": 192,
          "midi": 81,
          "name": "A5",
          "ticks": 35568,
          "time": 27.787499999999998,
          "velocity": 1
        },
        {
          "duration": 0.14999999999999858,
          "durationTicks": 192,
          "midi": 79,
          "name": "G5",
          "ticks": 35616,
          "time": 27.825,
          "velocity": 1
        },
        {
          "duration": 0.14999999999999858,
          "durationTicks": 192,
          "midi": 77,
          "name": "F5",
          "ticks": 35664,
          "time": 27.8625,
          "velocity": 1
        },
        {
          "duration": 0.15000000000000213,
          "durationTicks": 192,
          "midi": 75,
          "name": "D#5",
          "ticks": 35712,
          "time": 27.9,
          "velocity": 1
        },
        {
          "duration": 0.14999999999999858,
          "durationTicks": 192,
          "midi": 74,
          "name": "D5",
          "ticks": 35760,
          "time": 27.9375,
          "velocity": 1
        },
        {
          "duration": 0.15000000000000213,
          "durationTicks": 192,
          "midi": 72,
          "name": "C5",
          "ticks": 35808,
          "time": 27.974999999999998,
          "velocity": 1
        },
        {
          "duration": 0.14999999999999858,
          "durationTicks": 192,
          "midi": 70,
          "name": "A#4",
          "ticks": 35856,
          "time": 28.0125,
          "velocity": 1
        },
        {
          "duration": 0.14999999999999858,
          "durationTicks": 192,
          "midi": 69,
          "name": "A4",
          "ticks": 35904,
          "time": 28.05,
          "velocity": 1
        },
        {
          "duration": 0.15000000000000213,
          "durationTicks": 192,
          "midi": 67,
          "name": "G4",
          "ticks": 35952,
          "time": 28.0875,
          "velocity": 1
        },
        {
          "duration": 0.14999999999999858,
          "durationTicks": 192,
          "midi": 65,
          "name": "F4",
          "ticks": 36000,
          "time": 28.125,
          "velocity": 1
        },
        {
          "duration": 0.15000000000000213,
          "durationTicks": 192,
          "midi": 63,
          "name": "D#4",
          "ticks": 36048,
          "time": 28.162499999999998,
          "velocity": 1
        },
        {
          "duration": 0.14999999999999858,
          "durationTicks": 192,
          "midi": 62,
          "name": "D4",
          "ticks": 36096,
          "time": 28.2,
          "velocity": 1
        },
        {
          "duration": 0.07499999999999929,
          "durationTicks": 96,
          "midi": 60,
          "name": "C4",
          "ticks": 36144,
          "time": 28.2375,
          "velocity": 1
        },
        {
          "duration": 0.15000000000000213,
          "durationTicks": 192,
          "midi": 58,
          "name": "A#3",
          "ticks": 36192,
          "time": 28.275,
          "velocity": 1
        },
        {
          "duration": 0.14999999999999858,
          "durationTicks": 192,
          "midi": 60,
          "name": "C4",
          "ticks": 36240,
          "time": 28.3125,
          "velocity": 1
        },
        {
          "duration": 0.15000000000000213,
          "durationTicks": 192,
          "midi": 62,
          "name": "D4",
          "ticks": 36288,
          "time": 28.349999999999998,
          "velocity": 1
        },
        {
          "duration": 0.14999999999999858,
          "durationTicks": 192,
          "midi": 63,
          "name": "D#4",
          "ticks": 36336,
          "time": 28.3875,
          "velocity": 1
        },
        {
          "duration": 0.14999999999999858,
          "durationTicks": 192,
          "midi": 65,
          "name": "F4",
          "ticks": 36384,
          "time": 28.425,
          "velocity": 1
        },
        {
          "duration": 0.15000000000000213,
          "durationTicks": 192,
          "midi": 67,
          "name": "G4",
          "ticks": 36432,
          "time": 28.4625,
          "velocity": 1
        },
        {
          "duration": 0.14999999999999858,
          "durationTicks": 192,
          "midi": 69,
          "name": "A4",
          "ticks": 36480,
          "time": 28.5,
          "velocity": 1
        },
        {
          "duration": 0.15000000000000213,
          "durationTicks": 192,
          "midi": 70,
          "name": "A#4",
          "ticks": 36528,
          "time": 28.537499999999998,
          "velocity": 1
        },
        {
          "duration": 0.14999999999999858,
          "durationTicks": 192,
          "midi": 72,
          "name": "C5",
          "ticks": 36576,
          "time": 28.575,
          "velocity": 1
        },
        {
          "duration": 0.14999999999999858,
          "durationTicks": 192,
          "midi": 74,
          "name": "D5",
          "ticks": 36624,
          "time": 28.6125,
          "velocity": 1
        },
        {
          "duration": 0.14999999999999858,
          "durationTicks": 192,
          "midi": 75,
          "name": "D#5",
          "ticks": 36672,
          "time": 28.65,
          "velocity": 1
        },
        {
          "duration": 0.14999999999999858,
          "durationTicks": 192,
          "midi": 77,
          "name": "F5",
          "ticks": 36720,
          "time": 28.6875,
          "velocity": 1
        },
        {
          "duration": 0.15000000000000213,
          "durationTicks": 192,
          "midi": 79,
          "name": "G5",
          "ticks": 36768,
          "time": 28.724999999999998,
          "velocity": 1
        },
        {
          "duration": 0.14999999999999858,
          "durationTicks": 192,
          "midi": 81,
          "name": "A5",
          "ticks": 36816,
          "time": 28.7625,
          "velocity": 1
        },
        {
          "duration": 0.15000000000000213,
          "durationTicks": 192,
          "midi": 82,
          "name": "A#5",
          "ticks": 36864,
          "time": 28.799999999999997,
          "velocity": 1
        },
        {
          "duration": 0.15000000000000568,
          "durationTicks": 192,
          "midi": 74,
          "name": "D5",
          "ticks": 141504,
          "time": 110.55,
          "velocity": 1
        },
        {
          "duration": 0.14999999999999147,
          "durationTicks": 192,
          "midi": 70,
          "name": "A#4",
          "ticks": 141696,
          "time": 110.7,
          "velocity": 1
        },
        {
          "duration": 0.15000000000000568,
          "durationTicks": 192,
          "midi": 65,
          "name": "F4",
          "ticks": 141888,
          "time": 110.85,
          "velocity": 1
        },
        {
          "duration": 0.14999999999999147,
          "durationTicks": 192,
          "midi": 70,
          "name": "A#4",
          "ticks": 142080,
          "time": 111,
          "velocity": 1
        },
        {
          "duration": 0.15000000000000568,
          "durationTicks": 192,
          "midi": 65,
          "name": "F4",
          "ticks": 142272,
          "time": 111.14999999999999,
          "velocity": 1
        },
        {
          "duration": 0.15000000000000568,
          "durationTicks": 192,
          "midi": 62,
          "name": "D4",
          "ticks": 142464,
          "time": 111.3,
          "velocity": 1
        },
        {
          "duration": 0.14999999999999147,
          "durationTicks": 192,
          "midi": 58,
          "name": "A#3",
          "ticks": 142656,
          "time": 111.45,
          "velocity": 1
        }
      ]
    },
    {
      "channel": 7,
      "controlChanges": {
        "7": [
          {
            "number": 7,
            "ticks": 1536,
            "time": 1.2,
            "value": 0.6299212598425197
          }
        ]
      },
      "pitchBends": [],
      "instrument": {
        "family": "brass",
        "number": 60,
        "name": "french horn"
      },
      "name": "FR.HORN",
      "notes": [
        {
          "duration": 0.3000000000000007,
          "durationTicks": 384,
          "midi": 86,
          "name": "D6",
          "ticks": 38016,
          "time": 29.7,
          "velocity": 0.7874015748031497
        },
        {
          "duration": 0.29999999999999716,
          "durationTicks": 384,
          "midi": 82,
          "name": "A#5",
          "ticks": 38400,
          "time": 30,
          "velocity": 0.7874015748031497
        },
        {
          "duration": 0.14999999999999858,
          "durationTicks": 192,
          "midi": 79,
          "name": "G5",
          "ticks": 51072,
          "time": 39.9,
          "velocity": 0.7874015748031497
        },
        {
          "duration": 0.14999999999999858,
          "durationTicks": 192,
          "midi": 79,
          "name": "G5",
          "ticks": 51264,
          "time": 40.05,
          "velocity": 0.7874015748031497
        },
        {
          "duration": 0.30000000000000426,
          "durationTicks": 384,
          "midi": 77,
          "name": "F5",
          "ticks": 51456,
          "time": 40.199999999999996,
          "velocity": 0.7874015748031497
        },
        {
          "duration": 0.29999999999999716,
          "durationTicks": 384,
          "midi": 74,
          "name": "D5",
          "ticks": 51840,
          "time": 40.5,
          "velocity": 0.7874015748031497
        },
        {
          "duration": 0.14999999999999858,
          "durationTicks": 192,
          "midi": 77,
          "name": "F5",
          "ticks": 54144,
          "time": 42.3,
          "velocity": 0.7874015748031497
        },
        {
          "duration": 0.15000000000000568,
          "durationTicks": 192,
          "midi": 77,
          "name": "F5",
          "ticks": 54336,
          "time": 42.449999999999996,
          "velocity": 0.7874015748031497
        },
        {
          "duration": 0.29999999999999716,
          "durationTicks": 384,
          "midi": 81,
          "name": "A5",
          "ticks": 54528,
          "time": 42.6,
          "velocity": 0.7874015748031497
        },
        {
          "duration": 0.29999999999999716,
          "durationTicks": 384,
          "midi": 84,
          "name": "C6",
          "ticks": 54912,
          "time": 42.9,
          "velocity": 0.7874015748031497
        },
        {
          "duration": 0.15000000000000568,
          "durationTicks": 192,
          "midi": 84,
          "name": "C6",
          "ticks": 57216,
          "time": 44.699999999999996,
          "velocity": 0.7874015748031497
        },
        {
          "duration": 0.14999999999999858,
          "durationTicks": 192,
          "midi": 84,
          "name": "C6",
          "ticks": 57408,
          "time": 44.85,
          "velocity": 0.7874015748031497
        },
        {
          "duration": 0.29999999999999716,
          "durationTicks": 384,
          "midi": 88,
          "name": "E6",
          "ticks": 57600,
          "time": 45,
          "velocity": 0.7874015748031497
        },
        {
          "duration": 0.30000000000000426,
          "durationTicks": 384,
          "midi": 91,
          "name": "G6",
          "ticks": 57984,
          "time": 45.3,
          "velocity": 0.7874015748031497
        },
        {
          "duration": 0.45000000000000284,
          "durationTicks": 576,
          "midi": 67,
          "name": "G4",
          "ticks": 94272,
          "time": 73.64999999999999,
          "velocity": 0.7874015748031497
        },
        {
          "duration": 0.45000000000000284,
          "durationTicks": 576,
          "midi": 75,
          "name": "D#5",
          "ticks": 94272,
          "time": 73.64999999999999,
          "velocity": 0.7874015748031497
        },
        {
          "duration": 0.07500000000000284,
          "durationTicks": 96,
          "midi": 61,
          "name": "C#4",
          "ticks": 96000,
          "time": 75,
          "velocity": 0.7874015748031497
        },
        {
          "duration": 0.22499999999999432,
          "durationTicks": 288,
          "midi": 62,
          "name": "D4",
          "ticks": 96096,
          "time": 75.075,
          "velocity": 0.7874015748031497
        },
        {
          "duration": 0.29999999999999716,
          "durationTicks": 384,
          "midi": 65,
          "name": "F4",
          "ticks": 96384,
          "time": 75.3,
          "velocity": 0.7874015748031497
        },
        {
          "duration": 0.15000000000000568,
          "durationTicks": 192,
          "midi": 72,
          "name": "C5",
          "ticks": 97344,
          "time": 76.05,
          "velocity": 0.7874015748031497
        },
        {
          "duration": 0.15000000000000568,
          "durationTicks": 192,
          "midi": 77,
          "name": "F5",
          "ticks": 97344,
          "time": 76.05,
          "velocity": 0.7874015748031497
        },
        {
          "duration": 0.14999999999999147,
          "durationTicks": 192,
          "midi": 72,
          "name": "C5",
          "ticks": 97536,
          "time": 76.2,
          "velocity": 0.7874015748031497
        },
        {
          "duration": 0.14999999999999147,
          "durationTicks": 192,
          "midi": 77,
          "name": "F5",
          "ticks": 97536,
          "time": 76.2,
          "velocity": 0.7874015748031497
        },
        {
          "duration": 0.14999999999999147,
          "durationTicks": 192,
          "midi": 70,
          "name": "A#4",
          "ticks": 98496,
          "time": 76.95,
          "velocity": 0.7874015748031497
        },
        {
          "duration": 0.15000000000000568,
          "durationTicks": 192,
          "midi": 70,
          "name": "A#4",
          "ticks": 98688,
          "time": 77.1,
          "velocity": 0.7874015748031497
        },
        {
          "duration": 0.14999999999999147,
          "durationTicks": 192,
          "midi": 70,
          "name": "A#4",
          "ticks": 98880,
          "time": 77.25,
          "velocity": 0.7874015748031497
        },
        {
          "duration": 0.15000000000000568,
          "durationTicks": 192,
          "midi": 70,
          "name": "A#4",
          "ticks": 99072,
          "time": 77.39999999999999,
          "velocity": 0.7874015748031497
        },
        {
          "duration": 0.15000000000000568,
          "durationTicks": 192,
          "midi": 75,
          "name": "D#5",
          "ticks": 100224,
          "time": 78.3,
          "velocity": 0.7874015748031497
        },
        {
          "duration": 0.15000000000000568,
          "durationTicks": 192,
          "midi": 67,
          "name": "G4",
          "ticks": 100224,
          "time": 78.3,
          "velocity": 0.7874015748031497
        },
        {
          "duration": 0.44999999999998863,
          "durationTicks": 576,
          "midi": 75,
          "name": "D#5",
          "ticks": 100416,
          "time": 78.45,
          "velocity": 0.7874015748031497
        },
        {
          "duration": 0.44999999999998863,
          "durationTicks": 576,
          "midi": 67,
          "name": "G4",
          "ticks": 100416,
          "time": 78.45,
          "velocity": 0.7874015748031497
        },
        {
          "duration": 0.30000000000001137,
          "durationTicks": 384,
          "midi": 75,
          "name": "D#5",
          "ticks": 100992,
          "time": 78.89999999999999,
          "velocity": 0.7874015748031497
        },
        {
          "duration": 0.30000000000001137,
          "durationTicks": 384,
          "midi": 67,
          "name": "G4",
          "ticks": 100992,
          "time": 78.89999999999999,
          "velocity": 0.7874015748031497
        },
        {
          "duration": 0.15000000000000568,
          "durationTicks": 192,
          "midi": 75,
          "name": "D#5",
          "ticks": 101568,
          "time": 79.35,
          "velocity": 0.7874015748031497
        },
        {
          "duration": 0.15000000000000568,
          "durationTicks": 192,
          "midi": 69,
          "name": "A4",
          "ticks": 101568,
          "time": 79.35,
          "velocity": 0.7874015748031497
        },
        {
          "duration": 0.14999999999999147,
          "durationTicks": 192,
          "midi": 75,
          "name": "D#5",
          "ticks": 101760,
          "time": 79.5,
          "velocity": 0.7874015748031497
        },
        {
          "duration": 0.14999999999999147,
          "durationTicks": 192,
          "midi": 69,
          "name": "A4",
          "ticks": 101760,
          "time": 79.5,
          "velocity": 0.7874015748031497
        },
        {
          "duration": 0.15000000000000568,
          "durationTicks": 192,
          "midi": 75,
          "name": "D#5",
          "ticks": 101952,
          "time": 79.64999999999999,
          "velocity": 0.7874015748031497
        },
        {
          "duration": 0.15000000000000568,
          "durationTicks": 192,
          "midi": 69,
          "name": "A4",
          "ticks": 101952,
          "time": 79.64999999999999,
          "velocity": 0.7874015748031497
        },
        {
          "duration": 0.15000000000000568,
          "durationTicks": 192,
          "midi": 75,
          "name": "D#5",
          "ticks": 102144,
          "time": 79.8,
          "velocity": 0.7874015748031497
        },
        {
          "duration": 0.15000000000000568,
          "durationTicks": 192,
          "midi": 69,
          "name": "A4",
          "ticks": 102144,
          "time": 79.8,
          "velocity": 0.7874015748031497
        },
        {
          "duration": 0.14999999999999147,
          "durationTicks": 192,
          "midi": 70,
          "name": "A#4",
          "ticks": 103296,
          "time": 80.7,
          "velocity": 0.7874015748031497
        },
        {
          "duration": 0.14999999999999147,
          "durationTicks": 192,
          "midi": 82,
          "name": "A#5",
          "ticks": 103296,
          "time": 80.7,
          "velocity": 0.7874015748031497
        },
        {
          "duration": 0.15000000000000568,
          "durationTicks": 192,
          "midi": 70,
          "name": "A#4",
          "ticks": 103488,
          "time": 80.85,
          "velocity": 0.7874015748031497
        },
        {
          "duration": 0.15000000000000568,
          "durationTicks": 192,
          "midi": 82,
          "name": "A#5",
          "ticks": 103488,
          "time": 80.85,
          "velocity": 0.7874015748031497
        },
        {
          "duration": 0.14999999999999147,
          "durationTicks": 192,
          "midi": 70,
          "name": "A#4",
          "ticks": 103680,
          "time": 81,
          "velocity": 0.7874015748031497
        },
        {
          "duration": 0.14999999999999147,
          "durationTicks": 192,
          "midi": 82,
          "name": "A#5",
          "ticks": 103680,
          "time": 81,
          "velocity": 0.7874015748031497
        },
        {
          "duration": 0.29999999999999716,
          "durationTicks": 384,
          "midi": 65,
          "name": "F4",
          "ticks": 105216,
          "time": 82.2,
          "velocity": 0.7874015748031497
        },
        {
          "duration": 0.29999999999999716,
          "durationTicks": 384,
          "midi": 62,
          "name": "D4",
          "ticks": 105600,
          "time": 82.5,
          "velocity": 0.7874015748031497
        },
        {
          "duration": 0.15000000000000568,
          "durationTicks": 192,
          "midi": 67,
          "name": "G4",
          "ticks": 106368,
          "time": 83.1,
          "velocity": 0.7874015748031497
        },
        {
          "duration": 0.15000000000000568,
          "durationTicks": 192,
          "midi": 70,
          "name": "A#4",
          "ticks": 106368,
          "time": 83.1,
          "velocity": 0.7874015748031497
        },
        {
          "duration": 0.14999999999999147,
          "durationTicks": 192,
          "midi": 70,
          "name": "A#4",
          "ticks": 106560,
          "time": 83.25,
          "velocity": 0.7874015748031497
        },
        {
          "duration": 0.14999999999999147,
          "durationTicks": 192,
          "midi": 75,
          "name": "D#5",
          "ticks": 106560,
          "time": 83.25,
          "velocity": 0.7874015748031497
        },
        {
          "duration": 0.29999999999999716,
          "durationTicks": 384,
          "midi": 65,
          "name": "F4",
          "ticks": 107904,
          "time": 84.3,
          "velocity": 0.7874015748031497
        },
        {
          "duration": 0.29999999999999716,
          "durationTicks": 384,
          "midi": 69,
          "name": "A4",
          "ticks": 108288,
          "time": 84.6,
          "velocity": 0.7874015748031497
        },
        {
          "duration": 0.30000000000001137,
          "durationTicks": 384,
          "midi": 72,
          "name": "C5",
          "ticks": 108672,
          "time": 84.89999999999999,
          "velocity": 0.7874015748031497
        },
        {
          "duration": 0.45000000000000284,
          "durationTicks": 576,
          "midi": 70,
          "name": "A#4",
          "ticks": 109632,
          "time": 85.64999999999999,
          "velocity": 0.7874015748031497
        },
        {
          "duration": 0.45000000000000284,
          "durationTicks": 576,
          "midi": 74,
          "name": "D5",
          "ticks": 109632,
          "time": 85.64999999999999,
          "velocity": 0.7874015748031497
        },
        {
          "duration": 0.45000000000000284,
          "durationTicks": 576,
          "midi": 79,
          "name": "G5",
          "ticks": 109632,
          "time": 85.64999999999999,
          "velocity": 0.7874015748031497
        },
        {
          "duration": 0.15000000000000568,
          "durationTicks": 192,
          "midi": 72,
          "name": "C5",
          "ticks": 110784,
          "time": 86.55,
          "velocity": 0.7874015748031497
        },
        {
          "duration": 0.15000000000000568,
          "durationTicks": 192,
          "midi": 76,
          "name": "E5",
          "ticks": 110784,
          "time": 86.55,
          "velocity": 0.7874015748031497
        },
        {
          "duration": 0.15000000000000568,
          "durationTicks": 192,
          "midi": 79,
          "name": "G5",
          "ticks": 110784,
          "time": 86.55,
          "velocity": 0.7874015748031497
        },
        {
          "duration": 0.14999999999999147,
          "durationTicks": 192,
          "midi": 72,
          "name": "C5",
          "ticks": 110976,
          "time": 86.7,
          "velocity": 0.7874015748031497
        },
        {
          "duration": 0.14999999999999147,
          "durationTicks": 192,
          "midi": 76,
          "name": "E5",
          "ticks": 110976,
          "time": 86.7,
          "velocity": 0.7874015748031497
        },
        {
          "duration": 0.14999999999999147,
          "durationTicks": 192,
          "midi": 79,
          "name": "G5",
          "ticks": 110976,
          "time": 86.7,
          "velocity": 0.7874015748031497
        },
        {
          "duration": 0.15000000000000568,
          "durationTicks": 192,
          "midi": 72,
          "name": "C5",
          "ticks": 111168,
          "time": 86.85,
          "velocity": 0.7874015748031497
        },
        {
          "duration": 0.15000000000000568,
          "durationTicks": 192,
          "midi": 76,
          "name": "E5",
          "ticks": 111168,
          "time": 86.85,
          "velocity": 0.7874015748031497
        },
        {
          "duration": 0.15000000000000568,
          "durationTicks": 192,
          "midi": 79,
          "name": "G5",
          "ticks": 111168,
          "time": 86.85,
          "velocity": 0.7874015748031497
        },
        {
          "duration": 0.15000000000000568,
          "durationTicks": 192,
          "midi": 72,
          "name": "C5",
          "ticks": 111744,
          "time": 87.3,
          "velocity": 0.7874015748031497
        },
        {
          "duration": 0.15000000000000568,
          "durationTicks": 192,
          "midi": 76,
          "name": "E5",
          "ticks": 111744,
          "time": 87.3,
          "velocity": 0.7874015748031497
        },
        {
          "duration": 0.15000000000000568,
          "durationTicks": 192,
          "midi": 79,
          "name": "G5",
          "ticks": 111744,
          "time": 87.3,
          "velocity": 0.7874015748031497
        },
        {
          "duration": 0.45000000000000284,
          "durationTicks": 576,
          "midi": 75,
          "name": "D#5",
          "ticks": 112704,
          "time": 88.05,
          "velocity": 0.7874015748031497
        },
        {
          "duration": 0.45000000000000284,
          "durationTicks": 576,
          "midi": 67,
          "name": "G4",
          "ticks": 112704,
          "time": 88.05,
          "velocity": 0.7874015748031497
        },
        {
          "duration": 0.45000000000000284,
          "durationTicks": 576,
          "midi": 69,
          "name": "A4",
          "ticks": 114240,
          "time": 89.25,
          "velocity": 0.7874015748031497
        },
        {
          "duration": 0.45000000000000284,
          "durationTicks": 576,
          "midi": 77,
          "name": "F5",
          "ticks": 114240,
          "time": 89.25,
          "velocity": 0.7874015748031497
        },
        {
          "duration": 0.15000000000000568,
          "durationTicks": 192,
          "midi": 75,
          "name": "D#5",
          "ticks": 115584,
          "time": 90.3,
          "velocity": 0.7874015748031497
        },
        {
          "duration": 0.15000000000000568,
          "durationTicks": 192,
          "midi": 67,
          "name": "G4",
          "ticks": 115584,
          "time": 90.3,
          "velocity": 0.7874015748031497
        },
        {
          "duration": 0.44999999999998863,
          "durationTicks": 576,
          "midi": 75,
          "name": "D#5",
          "ticks": 115776,
          "time": 90.45,
          "velocity": 0.7874015748031497
        },
        {
          "duration": 0.44999999999998863,
          "durationTicks": 576,
          "midi": 67,
          "name": "G4",
          "ticks": 115776,
          "time": 90.45,
          "velocity": 0.7874015748031497
        },
        {
          "duration": 0.14999999999999147,
          "durationTicks": 192,
          "midi": 74,
          "name": "D5",
          "ticks": 117120,
          "time": 91.5,
          "velocity": 0.7874015748031497
        },
        {
          "duration": 0.14999999999999147,
          "durationTicks": 192,
          "midi": 65,
          "name": "F4",
          "ticks": 117120,
          "time": 91.5,
          "velocity": 0.7874015748031497
        },
        {
          "duration": 0.45000000000000284,
          "durationTicks": 576,
          "midi": 74,
          "name": "D5",
          "ticks": 117312,
          "time": 91.64999999999999,
          "velocity": 0.7874015748031497
        },
        {
          "duration": 0.45000000000000284,
          "durationTicks": 576,
          "midi": 65,
          "name": "F4",
          "ticks": 117312,
          "time": 91.64999999999999,
          "velocity": 0.7874015748031497
        },
        {
          "duration": 0.14999999999999147,
          "durationTicks": 192,
          "midi": 77,
          "name": "F5",
          "ticks": 118656,
          "time": 92.7,
          "velocity": 0.7874015748031497
        },
        {
          "duration": 0.14999999999999147,
          "durationTicks": 192,
          "midi": 69,
          "name": "A4",
          "ticks": 118656,
          "time": 92.7,
          "velocity": 0.7874015748031497
        },
        {
          "duration": 0.45000000000000284,
          "durationTicks": 576,
          "midi": 77,
          "name": "F5",
          "ticks": 118848,
          "time": 92.85,
          "velocity": 0.7874015748031497
        },
        {
          "duration": 0.45000000000000284,
          "durationTicks": 576,
          "midi": 69,
          "name": "A4",
          "ticks": 118848,
          "time": 92.85,
          "velocity": 0.7874015748031497
        },
        {
          "duration": 0.14999999999999147,
          "durationTicks": 192,
          "midi": 70,
          "name": "A#4",
          "ticks": 120000,
          "time": 93.75,
          "velocity": 0.7874015748031497
        },
        {
          "duration": 0.14999999999999147,
          "durationTicks": 192,
          "midi": 82,
          "name": "A#5",
          "ticks": 120000,
          "time": 93.75,
          "velocity": 0.7874015748031497
        },
        {
          "duration": 0.15000000000000568,
          "durationTicks": 192,
          "midi": 70,
          "name": "A#4",
          "ticks": 120192,
          "time": 93.89999999999999,
          "velocity": 0.7874015748031497
        },
        {
          "duration": 0.15000000000000568,
          "durationTicks": 192,
          "midi": 82,
          "name": "A#5",
          "ticks": 120192,
          "time": 93.89999999999999,
          "velocity": 0.7874015748031497
        },
        {
          "duration": 0.15000000000000568,
          "durationTicks": 192,
          "midi": 70,
          "name": "A#4",
          "ticks": 120384,
          "time": 94.05,
          "velocity": 0.7874015748031497
        },
        {
          "duration": 0.15000000000000568,
          "durationTicks": 192,
          "midi": 82,
          "name": "A#5",
          "ticks": 120384,
          "time": 94.05,
          "velocity": 0.7874015748031497
        },
        {
          "duration": 0.14999999999999147,
          "durationTicks": 192,
          "midi": 70,
          "name": "A#4",
          "ticks": 120576,
          "time": 94.2,
          "velocity": 0.7874015748031497
        },
        {
          "duration": 0.14999999999999147,
          "durationTicks": 192,
          "midi": 82,
          "name": "A#5",
          "ticks": 120576,
          "time": 94.2,
          "velocity": 0.7874015748031497
        },
        {
          "duration": 0.14999999999999147,
          "durationTicks": 192,
          "midi": 70,
          "name": "A#4",
          "ticks": 132096,
          "time": 103.2,
          "velocity": 0.7874015748031497
        },
        {
          "duration": 0.14999999999999147,
          "durationTicks": 192,
          "midi": 82,
          "name": "A#5",
          "ticks": 132096,
          "time": 103.2,
          "velocity": 0.7874015748031497
        },
        {
          "duration": 0.15000000000000568,
          "durationTicks": 192,
          "midi": 67,
          "name": "G4",
          "ticks": 132288,
          "time": 103.35,
          "velocity": 0.7874015748031497
        },
        {
          "duration": 0.15000000000000568,
          "durationTicks": 192,
          "midi": 79,
          "name": "G5",
          "ticks": 132288,
          "time": 103.35,
          "velocity": 0.7874015748031497
        },
        {
          "duration": 0.14999999999999147,
          "durationTicks": 192,
          "midi": 67,
          "name": "G4",
          "ticks": 132480,
          "time": 103.5,
          "velocity": 0.7874015748031497
        },
        {
          "duration": 0.14999999999999147,
          "durationTicks": 192,
          "midi": 79,
          "name": "G5",
          "ticks": 132480,
          "time": 103.5,
          "velocity": 0.7874015748031497
        },
        {
          "duration": 0.15000000000000568,
          "durationTicks": 192,
          "midi": 67,
          "name": "G4",
          "ticks": 132672,
          "time": 103.64999999999999,
          "velocity": 0.7874015748031497
        },
        {
          "duration": 0.15000000000000568,
          "durationTicks": 192,
          "midi": 79,
          "name": "G5",
          "ticks": 132672,
          "time": 103.64999999999999,
          "velocity": 0.7874015748031497
        },
        {
          "duration": 0.29999999999999716,
          "durationTicks": 384,
          "midi": 67,
          "name": "G4",
          "ticks": 132864,
          "time": 103.8,
          "velocity": 0.7874015748031497
        },
        {
          "duration": 0.29999999999999716,
          "durationTicks": 384,
          "midi": 79,
          "name": "G5",
          "ticks": 132864,
          "time": 103.8,
          "velocity": 0.7874015748031497
        },
        {
          "duration": 0.29999999999999716,
          "durationTicks": 384,
          "midi": 70,
          "name": "A#4",
          "ticks": 133248,
          "time": 104.1,
          "velocity": 0.7874015748031497
        },
        {
          "duration": 0.29999999999999716,
          "durationTicks": 384,
          "midi": 82,
          "name": "A#5",
          "ticks": 133248,
          "time": 104.1,
          "velocity": 0.7874015748031497
        },
        {
          "duration": 0.30000000000001137,
          "durationTicks": 384,
          "midi": 63,
          "name": "D#4",
          "ticks": 133632,
          "time": 104.39999999999999,
          "velocity": 0.7874015748031497
        },
        {
          "duration": 0.30000000000001137,
          "durationTicks": 384,
          "midi": 75,
          "name": "D#5",
          "ticks": 133632,
          "time": 104.39999999999999,
          "velocity": 0.7874015748031497
        },
        {
          "duration": 0.14999999999999147,
          "durationTicks": 192,
          "midi": 67,
          "name": "G4",
          "ticks": 134016,
          "time": 104.7,
          "velocity": 0.7874015748031497
        },
        {
          "duration": 0.14999999999999147,
          "durationTicks": 192,
          "midi": 79,
          "name": "G5",
          "ticks": 134016,
          "time": 104.7,
          "velocity": 0.7874015748031497
        },
        {
          "duration": 0.45000000000000284,
          "durationTicks": 576,
          "midi": 70,
          "name": "A#4",
          "ticks": 134208,
          "time": 104.85,
          "velocity": 0.7874015748031497
        },
        {
          "duration": 0.45000000000000284,
          "durationTicks": 576,
          "midi": 82,
          "name": "A#5",
          "ticks": 134208,
          "time": 104.85,
          "velocity": 0.7874015748031497
        },
        {
          "duration": 0.29999999999999716,
          "durationTicks": 384,
          "midi": 67,
          "name": "G4",
          "ticks": 134784,
          "time": 105.3,
          "velocity": 0.7874015748031497
        },
        {
          "duration": 0.29999999999999716,
          "durationTicks": 384,
          "midi": 79,
          "name": "G5",
          "ticks": 134784,
          "time": 105.3,
          "velocity": 0.7874015748031497
        },
        {
          "duration": 0.29999999999999716,
          "durationTicks": 384,
          "midi": 65,
          "name": "F4",
          "ticks": 135168,
          "time": 105.6,
          "velocity": 0.7874015748031497
        },
        {
          "duration": 0.29999999999999716,
          "durationTicks": 384,
          "midi": 77,
          "name": "F5",
          "ticks": 135168,
          "time": 105.6,
          "velocity": 0.7874015748031497
        },
        {
          "duration": 0.15000000000000568,
          "durationTicks": 192,
          "midi": 69,
          "name": "A4",
          "ticks": 135552,
          "time": 105.89999999999999,
          "velocity": 0.7874015748031497
        },
        {
          "duration": 0.15000000000000568,
          "durationTicks": 192,
          "midi": 81,
          "name": "A5",
          "ticks": 135552,
          "time": 105.89999999999999,
          "velocity": 0.7874015748031497
        },
        {
          "duration": 0.45000000000000284,
          "durationTicks": 576,
          "midi": 72,
          "name": "C5",
          "ticks": 135744,
          "time": 106.05,
          "velocity": 0.7874015748031497
        },
        {
          "duration": 0.45000000000000284,
          "durationTicks": 576,
          "midi": 84,
          "name": "C6",
          "ticks": 135744,
          "time": 106.05,
          "velocity": 0.7874015748031497
        },
        {
          "duration": 0.29999999999999716,
          "durationTicks": 384,
          "midi": 77,
          "name": "F5",
          "ticks": 136320,
          "time": 106.5,
          "velocity": 0.7874015748031497
        },
        {
          "duration": 0.29999999999999716,
          "durationTicks": 384,
          "midi": 89,
          "name": "F6",
          "ticks": 136320,
          "time": 106.5,
          "velocity": 0.7874015748031497
        },
        {
          "duration": 0.15000000000000568,
          "durationTicks": 192,
          "midi": 82,
          "name": "A#5",
          "ticks": 146112,
          "time": 114.14999999999999,
          "velocity": 1
        },
        {
          "duration": 0.15000000000000568,
          "durationTicks": 192,
          "midi": 70,
          "name": "A#4",
          "ticks": 146112,
          "time": 114.14999999999999,
          "velocity": 1
        },
        {
          "duration": 0.15000000000000568,
          "durationTicks": 192,
          "midi": 82,
          "name": "A#5",
          "ticks": 146304,
          "time": 114.3,
          "velocity": 1
        },
        {
          "duration": 0.15000000000000568,
          "durationTicks": 192,
          "midi": 70,
          "name": "A#4",
          "ticks": 146304,
          "time": 114.3,
          "velocity": 1
        },
        {
          "duration": 0.14999999999999147,
          "durationTicks": 192,
          "midi": 82,
          "name": "A#5",
          "ticks": 146496,
          "time": 114.45,
          "velocity": 1
        },
        {
          "duration": 0.14999999999999147,
          "durationTicks": 192,
          "midi": 70,
          "name": "A#4",
          "ticks": 146496,
          "time": 114.45,
          "velocity": 1
        },
        {
          "duration": 0.29999999999999716,
          "durationTicks": 384,
          "midi": 82,
          "name": "A#5",
          "ticks": 146688,
          "time": 114.6,
          "velocity": 1
        },
        {
          "duration": 0.29999999999999716,
          "durationTicks": 384,
          "midi": 70,
          "name": "A#4",
          "ticks": 146688,
          "time": 114.6,
          "velocity": 1
        },
        {
          "duration": 0.29999999999999716,
          "durationTicks": 384,
          "midi": 82,
          "name": "A#5",
          "ticks": 147072,
          "time": 114.89999999999999,
          "velocity": 1
        },
        {
          "duration": 0.29999999999999716,
          "durationTicks": 384,
          "midi": 70,
          "name": "A#4",
          "ticks": 147072,
          "time": 114.89999999999999,
          "velocity": 1
        },
        {
          "duration": 0.15000000000000568,
          "durationTicks": 192,
          "midi": 65,
          "name": "F4",
          "ticks": 153792,
          "time": 120.14999999999999,
          "velocity": 1
        },
        {
          "duration": 0.14999999999999147,
          "durationTicks": 192,
          "midi": 64,
          "name": "E4",
          "ticks": 153984,
          "time": 120.3,
          "velocity": 1
        },
        {
          "duration": 0.15000000000000568,
          "durationTicks": 192,
          "midi": 65,
          "name": "F4",
          "ticks": 154176,
          "time": 120.44999999999999,
          "velocity": 1
        },
        {
          "duration": 0.15000000000000568,
          "durationTicks": 192,
          "midi": 69,
          "name": "A4",
          "ticks": 154368,
          "time": 120.6,
          "velocity": 1
        },
        {
          "duration": 0.14999999999999147,
          "durationTicks": 192,
          "midi": 72,
          "name": "C5",
          "ticks": 154560,
          "time": 120.75,
          "velocity": 1
        },
        {
          "duration": 0.15000000000000568,
          "durationTicks": 192,
          "midi": 74,
          "name": "D5",
          "ticks": 154752,
          "time": 120.89999999999999,
          "velocity": 1
        },
        {
          "duration": 0.14999999999999147,
          "durationTicks": 192,
          "midi": 70,
          "name": "A#4",
          "ticks": 154944,
          "time": 121.05,
          "velocity": 1
        },
        {
          "duration": 1.3499999999999943,
          "durationTicks": 1728,
          "midi": 34,
          "name": "A#1",
          "ticks": 162816,
          "time": 127.19999999999999,
          "velocity": 1
        },
        {
          "duration": 0.44999999999998863,
          "durationTicks": 576,
          "midi": 72,
          "name": "C5",
          "ticks": 195072,
          "time": 152.4,
          "velocity": 1
        },
        {
          "duration": 0.44999999999998863,
          "durationTicks": 576,
          "midi": 60,
          "name": "C4",
          "ticks": 195072,
          "time": 152.4,
          "velocity": 1
        },
        {
          "duration": 0.44999999999998863,
          "durationTicks": 576,
          "midi": 76,
          "name": "E5",
          "ticks": 195648,
          "time": 152.85,
          "velocity": 1
        },
        {
          "duration": 0.44999999999998863,
          "durationTicks": 576,
          "midi": 64,
          "name": "E4",
          "ticks": 195648,
          "time": 152.85,
          "velocity": 1
        },
        {
          "duration": 0.45000000000001705,
          "durationTicks": 576,
          "midi": 79,
          "name": "G5",
          "ticks": 196224,
          "time": 153.29999999999998,
          "velocity": 1
        },
        {
          "duration": 0.45000000000001705,
          "durationTicks": 576,
          "midi": 67,
          "name": "G4",
          "ticks": 196224,
          "time": 153.29999999999998,
          "velocity": 1
        },
        {
          "duration": 0.15000000000000568,
          "durationTicks": 192,
          "midi": 84,
          "name": "C6",
          "ticks": 196800,
          "time": 153.75,
          "velocity": 1
        },
        {
          "duration": 0.15000000000000568,
          "durationTicks": 192,
          "midi": 72,
          "name": "C5",
          "ticks": 196800,
          "time": 153.75,
          "velocity": 1
        },
        {
          "duration": 0.29999999999998295,
          "durationTicks": 384,
          "midi": 84,
          "name": "C6",
          "ticks": 196992,
          "time": 153.9,
          "velocity": 1
        },
        {
          "duration": 0.29999999999998295,
          "durationTicks": 384,
          "midi": 72,
          "name": "C5",
          "ticks": 196992,
          "time": 153.9,
          "velocity": 1
        },
        {
          "duration": 0.30000000000001137,
          "durationTicks": 384,
          "midi": 84,
          "name": "C6",
          "ticks": 197376,
          "time": 154.2,
          "velocity": 1
        },
        {
          "duration": 0.30000000000001137,
          "durationTicks": 384,
          "midi": 72,
          "name": "C5",
          "ticks": 197376,
          "time": 154.2,
          "velocity": 1
        },
        {
          "duration": 0.15000000000000568,
          "durationTicks": 192,
          "midi": 76,
          "name": "E5",
          "ticks": 238080,
          "time": 186,
          "velocity": 1
        },
        {
          "duration": 0.14999999999997726,
          "durationTicks": 192,
          "midi": 79,
          "name": "G5",
          "ticks": 238272,
          "time": 186.15,
          "velocity": 1
        },
        {
          "duration": 0.15000000000000568,
          "durationTicks": 192,
          "midi": 84,
          "name": "C6",
          "ticks": 238464,
          "time": 186.29999999999998,
          "velocity": 1
        },
        {
          "duration": 0.30000000000001137,
          "durationTicks": 384,
          "midi": 88,
          "name": "E6",
          "ticks": 238656,
          "time": 186.45,
          "velocity": 1
        },
        {
          "duration": 0.29999999999998295,
          "durationTicks": 384,
          "midi": 88,
          "name": "E6",
          "ticks": 239040,
          "time": 186.75,
          "velocity": 1
        },
        {
          "duration": 0.15000000000000568,
          "durationTicks": 192,
          "midi": 79,
          "name": "G5",
          "ticks": 239424,
          "time": 187.04999999999998,
          "velocity": 1
        },
        {
          "duration": 0.30000000000001137,
          "durationTicks": 384,
          "midi": 86,
          "name": "D6",
          "ticks": 239616,
          "time": 187.2,
          "velocity": 1
        },
        {
          "duration": 0.29999999999998295,
          "durationTicks": 384,
          "midi": 89,
          "name": "F6",
          "ticks": 240000,
          "time": 187.5,
          "velocity": 1
        },
        {
          "duration": 0.30000000000001137,
          "durationTicks": 384,
          "midi": 88,
          "name": "E6",
          "ticks": 240384,
          "time": 187.79999999999998,
          "velocity": 1
        },
        {
          "duration": 0.30000000000001137,
          "durationTicks": 384,
          "midi": 84,
          "name": "C6",
          "ticks": 240768,
          "time": 188.1,
          "velocity": 1
        },
        {
          "duration": 0.14999999999997726,
          "durationTicks": 192,
          "midi": 72,
          "name": "C5",
          "ticks": 241152,
          "time": 188.4,
          "velocity": 1
        },
        {
          "duration": 0.15000000000000568,
          "durationTicks": 192,
          "midi": 76,
          "name": "E5",
          "ticks": 241344,
          "time": 188.54999999999998,
          "velocity": 1
        },
        {
          "duration": 0.15000000000000568,
          "durationTicks": 192,
          "midi": 79,
          "name": "G5",
          "ticks": 241536,
          "time": 188.7,
          "velocity": 1
        },
        {
          "duration": 0.30000000000001137,
          "durationTicks": 384,
          "midi": 84,
          "name": "C6",
          "ticks": 241728,
          "time": 188.85,
          "velocity": 1
        },
        {
          "duration": 0.29999999999998295,
          "durationTicks": 384,
          "midi": 84,
          "name": "C6",
          "ticks": 242112,
          "time": 189.15,
          "velocity": 1
        },
        {
          "duration": 0.15000000000000568,
          "durationTicks": 192,
          "midi": 79,
          "name": "G5",
          "ticks": 242496,
          "time": 189.45,
          "velocity": 1
        },
        {
          "duration": 0.30000000000001137,
          "durationTicks": 384,
          "midi": 83,
          "name": "B5",
          "ticks": 242688,
          "time": 189.6,
          "velocity": 1
        },
        {
          "duration": 0.29999999999998295,
          "durationTicks": 384,
          "midi": 86,
          "name": "D6",
          "ticks": 243072,
          "time": 189.9,
          "velocity": 1
        },
        {
          "duration": 0.15000000000000568,
          "durationTicks": 192,
          "midi": 84,
          "name": "C6",
          "ticks": 243456,
          "time": 190.2,
          "velocity": 1
        },
        {
          "duration": 0.15000000000000568,
          "durationTicks": 192,
          "midi": 96,
          "name": "C7",
          "ticks": 243840,
          "time": 190.5,
          "velocity": 1
        }
      ],
      "endOfTrackTicks": 245760
    },
    {
      "channel": 8,
      "controlChanges": {
        "7": [
          {
            "number": 7,
            "ticks": 1536,
            "time": 1.2,
            "value": 0.7086614173228346
          }
        ]
      },
      "pitchBends": [],
      "instrument": {
        "family": "ensemble",
        "number": 53,
        "name": "voice oohs"
      },
      "name": "VOICE OOHS",
      "notes": [
        {
          "duration": 0.15000000000000568,
          "durationTicks": 192,
          "midi": 67,
          "name": "G4",
          "ticks": 115584,
          "time": 90.3,
          "velocity": 0.9606299212598425
        },
        {
          "duration": 0.15000000000000568,
          "durationTicks": 192,
          "midi": 63,
          "name": "D#4",
          "ticks": 115584,
          "time": 90.3,
          "velocity": 0.9606299212598425
        },
        {
          "duration": 0.29999999999999716,
          "durationTicks": 384,
          "midi": 67,
          "name": "G4",
          "ticks": 115776,
          "time": 90.45,
          "velocity": 0.9606299212598425
        },
        {
          "duration": 0.29999999999999716,
          "durationTicks": 384,
          "midi": 63,
          "name": "D#4",
          "ticks": 115776,
          "time": 90.45,
          "velocity": 0.9606299212598425
        },
        {
          "duration": 0.14999999999999147,
          "durationTicks": 192,
          "midi": 67,
          "name": "G4",
          "ticks": 116160,
          "time": 90.75,
          "velocity": 0.9606299212598425
        },
        {
          "duration": 0.14999999999999147,
          "durationTicks": 192,
          "midi": 63,
          "name": "D#4",
          "ticks": 116160,
          "time": 90.75,
          "velocity": 0.9606299212598425
        },
        {
          "duration": 0.30000000000001137,
          "durationTicks": 384,
          "midi": 65,
          "name": "F4",
          "ticks": 116352,
          "time": 90.89999999999999,
          "velocity": 0.9606299212598425
        },
        {
          "duration": 0.30000000000001137,
          "durationTicks": 384,
          "midi": 62,
          "name": "D4",
          "ticks": 116352,
          "time": 90.89999999999999,
          "velocity": 0.9606299212598425
        },
        {
          "duration": 0.14999999999999147,
          "durationTicks": 192,
          "midi": 63,
          "name": "D#4",
          "ticks": 118656,
          "time": 92.7,
          "velocity": 0.9606299212598425
        },
        {
          "duration": 0.14999999999999147,
          "durationTicks": 192,
          "midi": 60,
          "name": "C4",
          "ticks": 118656,
          "time": 92.7,
          "velocity": 0.9606299212598425
        },
        {
          "duration": 0.29999999999999716,
          "durationTicks": 384,
          "midi": 63,
          "name": "D#4",
          "ticks": 118848,
          "time": 92.85,
          "velocity": 0.9606299212598425
        },
        {
          "duration": 0.29999999999999716,
          "durationTicks": 384,
          "midi": 60,
          "name": "C4",
          "ticks": 118848,
          "time": 92.85,
          "velocity": 0.9606299212598425
        },
        {
          "duration": 0.15000000000000568,
          "durationTicks": 192,
          "midi": 63,
          "name": "D#4",
          "ticks": 119232,
          "time": 93.14999999999999,
          "velocity": 0.9606299212598425
        },
        {
          "duration": 0.15000000000000568,
          "durationTicks": 192,
          "midi": 60,
          "name": "C4",
          "ticks": 119232,
          "time": 93.14999999999999,
          "velocity": 0.9606299212598425
        },
        {
          "duration": 0.29999999999999716,
          "durationTicks": 384,
          "midi": 62,
          "name": "D4",
          "ticks": 119424,
          "time": 93.3,
          "velocity": 0.9606299212598425
        },
        {
          "duration": 0.29999999999999716,
          "durationTicks": 384,
          "midi": 58,
          "name": "A#3",
          "ticks": 119424,
          "time": 93.3,
          "velocity": 0.9606299212598425
        },
        {
          "duration": 1.2000000000000028,
          "durationTicks": 1536,
          "midi": 58,
          "name": "A#3",
          "ticks": 121344,
          "time": 94.8,
          "velocity": 0.9606299212598425
        },
        {
          "duration": 1.2000000000000028,
          "durationTicks": 1536,
          "midi": 55,
          "name": "G3",
          "ticks": 121344,
          "time": 94.8,
          "velocity": 0.9606299212598425
        },
        {
          "duration": 1.2000000000000028,
          "durationTicks": 1536,
          "midi": 60,
          "name": "C4",
          "ticks": 122880,
          "time": 96,
          "velocity": 0.9606299212598425
        },
        {
          "duration": 1.2000000000000028,
          "durationTicks": 1536,
          "midi": 57,
          "name": "A3",
          "ticks": 122880,
          "time": 96,
          "velocity": 0.9606299212598425
        },
        {
          "duration": 0.14999999999999147,
          "durationTicks": 192,
          "midi": 62,
          "name": "D4",
          "ticks": 124800,
          "time": 97.5,
          "velocity": 0.9606299212598425
        },
        {
          "duration": 0.14999999999999147,
          "durationTicks": 192,
          "midi": 58,
          "name": "A#3",
          "ticks": 124800,
          "time": 97.5,
          "velocity": 0.9606299212598425
        },
        {
          "duration": 0.30000000000001137,
          "durationTicks": 384,
          "midi": 62,
          "name": "D4",
          "ticks": 124992,
          "time": 97.64999999999999,
          "velocity": 0.9606299212598425
        },
        {
          "duration": 0.30000000000001137,
          "durationTicks": 384,
          "midi": 58,
          "name": "A#3",
          "ticks": 124992,
          "time": 97.64999999999999,
          "velocity": 0.9606299212598425
        },
        {
          "duration": 0.14999999999999147,
          "durationTicks": 192,
          "midi": 63,
          "name": "D#4",
          "ticks": 125376,
          "time": 97.95,
          "velocity": 0.9606299212598425
        },
        {
          "duration": 0.14999999999999147,
          "durationTicks": 192,
          "midi": 60,
          "name": "C4",
          "ticks": 125376,
          "time": 97.95,
          "velocity": 0.9606299212598425
        },
        {
          "duration": 0.29999999999999716,
          "durationTicks": 384,
          "midi": 65,
          "name": "F4",
          "ticks": 125568,
          "time": 98.1,
          "velocity": 0.9606299212598425
        },
        {
          "duration": 0.29999999999999716,
          "durationTicks": 384,
          "midi": 62,
          "name": "D4",
          "ticks": 125568,
          "time": 98.1,
          "velocity": 0.9606299212598425
        },
        {
          "duration": 0.30000000000001137,
          "durationTicks": 384,
          "midi": 65,
          "name": "F4",
          "ticks": 125952,
          "time": 98.39999999999999,
          "velocity": 0.9606299212598425
        },
        {
          "duration": 0.30000000000001137,
          "durationTicks": 384,
          "midi": 62,
          "name": "D4",
          "ticks": 125952,
          "time": 98.39999999999999,
          "velocity": 0.9606299212598425
        },
        {
          "duration": 0.29999999999999716,
          "durationTicks": 384,
          "midi": 65,
          "name": "F4",
          "ticks": 126336,
          "time": 98.7,
          "velocity": 0.9606299212598425
        },
        {
          "duration": 0.29999999999999716,
          "durationTicks": 384,
          "midi": 62,
          "name": "D4",
          "ticks": 126336,
          "time": 98.7,
          "velocity": 0.9606299212598425
        },
        {
          "duration": 0.29999999999999716,
          "durationTicks": 384,
          "midi": 65,
          "name": "F4",
          "ticks": 126720,
          "time": 99,
          "velocity": 0.9606299212598425
        },
        {
          "duration": 0.29999999999999716,
          "durationTicks": 384,
          "midi": 62,
          "name": "D4",
          "ticks": 126720,
          "time": 99,
          "velocity": 0.9606299212598425
        },
        {
          "duration": 0.15000000000000568,
          "durationTicks": 192,
          "midi": 55,
          "name": "G3",
          "ticks": 127872,
          "time": 99.89999999999999,
          "velocity": 0.9606299212598425
        },
        {
          "duration": 0.15000000000000568,
          "durationTicks": 192,
          "midi": 63,
          "name": "D#4",
          "ticks": 127872,
          "time": 99.89999999999999,
          "velocity": 0.9606299212598425
        },
        {
          "duration": 0.29999999999999716,
          "durationTicks": 384,
          "midi": 55,
          "name": "G3",
          "ticks": 128064,
          "time": 100.05,
          "velocity": 0.9606299212598425
        },
        {
          "duration": 0.29999999999999716,
          "durationTicks": 384,
          "midi": 63,
          "name": "D#4",
          "ticks": 128064,
          "time": 100.05,
          "velocity": 0.9606299212598425
        },
        {
          "duration": 0.15000000000000568,
          "durationTicks": 192,
          "midi": 55,
          "name": "G3",
          "ticks": 128448,
          "time": 100.35,
          "velocity": 0.9606299212598425
        },
        {
          "duration": 0.15000000000000568,
          "durationTicks": 192,
          "midi": 63,
          "name": "D#4",
          "ticks": 128448,
          "time": 100.35,
          "velocity": 0.9606299212598425
        },
        {
          "duration": 0.45000000000000284,
          "durationTicks": 576,
          "midi": 57,
          "name": "A3",
          "ticks": 128640,
          "time": 100.5,
          "velocity": 0.9606299212598425
        },
        {
          "duration": 0.45000000000000284,
          "durationTicks": 576,
          "midi": 63,
          "name": "D#4",
          "ticks": 128640,
          "time": 100.5,
          "velocity": 0.9606299212598425
        },
        {
          "duration": 0.15000000000000568,
          "durationTicks": 192,
          "midi": 58,
          "name": "A#3",
          "ticks": 130944,
          "time": 102.3,
          "velocity": 0.9606299212598425
        },
        {
          "duration": 0.15000000000000568,
          "durationTicks": 192,
          "midi": 62,
          "name": "D4",
          "ticks": 130944,
          "time": 102.3,
          "velocity": 0.9606299212598425
        },
        {
          "duration": 0.29999999999999716,
          "durationTicks": 384,
          "midi": 58,
          "name": "A#3",
          "ticks": 131136,
          "time": 102.45,
          "velocity": 0.9606299212598425
        },
        {
          "duration": 0.29999999999999716,
          "durationTicks": 384,
          "midi": 62,
          "name": "D4",
          "ticks": 131136,
          "time": 102.45,
          "velocity": 0.9606299212598425
        },
        {
          "duration": 0.14999999999999147,
          "durationTicks": 192,
          "midi": 58,
          "name": "A#3",
          "ticks": 131520,
          "time": 102.75,
          "velocity": 0.9606299212598425
        },
        {
          "duration": 0.14999999999999147,
          "durationTicks": 192,
          "midi": 62,
          "name": "D4",
          "ticks": 131520,
          "time": 102.75,
          "velocity": 0.9606299212598425
        },
        {
          "duration": 0.45000000000000284,
          "durationTicks": 576,
          "midi": 60,
          "name": "C4",
          "ticks": 131712,
          "time": 102.89999999999999,
          "velocity": 0.9606299212598425
        },
        {
          "duration": 0.45000000000000284,
          "durationTicks": 576,
          "midi": 64,
          "name": "E4",
          "ticks": 131712,
          "time": 102.89999999999999,
          "velocity": 0.9606299212598425
        },
        {
          "duration": 0.15000000000000568,
          "durationTicks": 192,
          "midi": 55,
          "name": "G3",
          "ticks": 133632,
          "time": 104.39999999999999,
          "velocity": 0.9606299212598425
        },
        {
          "duration": 0.15000000000000568,
          "durationTicks": 192,
          "midi": 63,
          "name": "D#4",
          "ticks": 133632,
          "time": 104.39999999999999,
          "velocity": 0.9606299212598425
        },
        {
          "duration": 0.15000000000000568,
          "durationTicks": 192,
          "midi": 55,
          "name": "G3",
          "ticks": 133824,
          "time": 104.55,
          "velocity": 0.9606299212598425
        },
        {
          "duration": 0.15000000000000568,
          "durationTicks": 192,
          "midi": 63,
          "name": "D#4",
          "ticks": 133824,
          "time": 104.55,
          "velocity": 0.9606299212598425
        },
        {
          "duration": 0.15000000000000568,
          "durationTicks": 192,
          "midi": 55,
          "name": "G3",
          "ticks": 134208,
          "time": 104.85,
          "velocity": 0.9606299212598425
        },
        {
          "duration": 0.15000000000000568,
          "durationTicks": 192,
          "midi": 63,
          "name": "D#4",
          "ticks": 134208,
          "time": 104.85,
          "velocity": 0.9606299212598425
        },
        {
          "duration": 0.15000000000000568,
          "durationTicks": 192,
          "midi": 55,
          "name": "G3",
          "ticks": 134592,
          "time": 105.14999999999999,
          "velocity": 0.9606299212598425
        },
        {
          "duration": 0.15000000000000568,
          "durationTicks": 192,
          "midi": 63,
          "name": "D#4",
          "ticks": 134592,
          "time": 105.14999999999999,
          "velocity": 0.9606299212598425
        },
        {
          "duration": 0.14999999999999147,
          "durationTicks": 192,
          "midi": 55,
          "name": "G3",
          "ticks": 134976,
          "time": 105.45,
          "velocity": 0.9606299212598425
        },
        {
          "duration": 0.14999999999999147,
          "durationTicks": 192,
          "midi": 63,
          "name": "D#4",
          "ticks": 134976,
          "time": 105.45,
          "velocity": 0.9606299212598425
        },
        {
          "duration": 0.15000000000000568,
          "durationTicks": 192,
          "midi": 57,
          "name": "A3",
          "ticks": 135168,
          "time": 105.6,
          "velocity": 0.9606299212598425
        },
        {
          "duration": 0.15000000000000568,
          "durationTicks": 192,
          "midi": 63,
          "name": "D#4",
          "ticks": 135168,
          "time": 105.6,
          "velocity": 0.9606299212598425
        },
        {
          "duration": 0.14999999999999147,
          "durationTicks": 192,
          "midi": 57,
          "name": "A3",
          "ticks": 135360,
          "time": 105.75,
          "velocity": 0.9606299212598425
        },
        {
          "duration": 0.14999999999999147,
          "durationTicks": 192,
          "midi": 63,
          "name": "D#4",
          "ticks": 135360,
          "time": 105.75,
          "velocity": 0.9606299212598425
        },
        {
          "duration": 0.15000000000000568,
          "durationTicks": 192,
          "midi": 57,
          "name": "A3",
          "ticks": 135744,
          "time": 106.05,
          "velocity": 0.9606299212598425
        },
        {
          "duration": 0.15000000000000568,
          "durationTicks": 192,
          "midi": 63,
          "name": "D#4",
          "ticks": 135744,
          "time": 106.05,
          "velocity": 0.9606299212598425
        },
        {
          "duration": 0.15000000000000568,
          "durationTicks": 192,
          "midi": 57,
          "name": "A3",
          "ticks": 136128,
          "time": 106.35,
          "velocity": 0.9606299212598425
        },
        {
          "duration": 0.15000000000000568,
          "durationTicks": 192,
          "midi": 63,
          "name": "D#4",
          "ticks": 136128,
          "time": 106.35,
          "velocity": 0.9606299212598425
        },
        {
          "duration": 0.15000000000000568,
          "durationTicks": 192,
          "midi": 57,
          "name": "A3",
          "ticks": 136512,
          "time": 106.64999999999999,
          "velocity": 0.9606299212598425
        },
        {
          "duration": 0.15000000000000568,
          "durationTicks": 192,
          "midi": 63,
          "name": "D#4",
          "ticks": 136512,
          "time": 106.64999999999999,
          "velocity": 0.9606299212598425
        },
        {
          "duration": 0.29999999999999716,
          "durationTicks": 384,
          "midi": 58,
          "name": "A#3",
          "ticks": 136704,
          "time": 106.8,
          "velocity": 0.9606299212598425
        },
        {
          "duration": 0.29999999999999716,
          "durationTicks": 384,
          "midi": 62,
          "name": "D4",
          "ticks": 136704,
          "time": 106.8,
          "velocity": 0.9606299212598425
        },
        {
          "duration": 0.15000000000000568,
          "durationTicks": 192,
          "midi": 57,
          "name": "A3",
          "ticks": 198528,
          "time": 155.1,
          "velocity": 0.9606299212598425
        },
        {
          "duration": 0.15000000000000568,
          "durationTicks": 192,
          "midi": 60,
          "name": "C4",
          "ticks": 198528,
          "time": 155.1,
          "velocity": 0.9606299212598425
        },
        {
          "duration": 0.15000000000000568,
          "durationTicks": 192,
          "midi": 65,
          "name": "F4",
          "ticks": 198528,
          "time": 155.1,
          "velocity": 0.9606299212598425
        },
        {
          "duration": 0.29999999999998295,
          "durationTicks": 384,
          "midi": 57,
          "name": "A3",
          "ticks": 198720,
          "time": 155.25,
          "velocity": 0.9606299212598425
        },
        {
          "duration": 0.29999999999998295,
          "durationTicks": 384,
          "midi": 60,
          "name": "C4",
          "ticks": 198720,
          "time": 155.25,
          "velocity": 0.9606299212598425
        },
        {
          "duration": 0.29999999999998295,
          "durationTicks": 384,
          "midi": 65,
          "name": "F4",
          "ticks": 198720,
          "time": 155.25,
          "velocity": 0.9606299212598425
        },
        {
          "duration": 0.15000000000000568,
          "durationTicks": 192,
          "midi": 57,
          "name": "A3",
          "ticks": 199104,
          "time": 155.54999999999998,
          "velocity": 0.9606299212598425
        },
        {
          "duration": 0.15000000000000568,
          "durationTicks": 192,
          "midi": 60,
          "name": "C4",
          "ticks": 199104,
          "time": 155.54999999999998,
          "velocity": 0.9606299212598425
        },
        {
          "duration": 0.15000000000000568,
          "durationTicks": 192,
          "midi": 65,
          "name": "F4",
          "ticks": 199104,
          "time": 155.54999999999998,
          "velocity": 0.9606299212598425
        },
        {
          "duration": 0.30000000000001137,
          "durationTicks": 384,
          "midi": 55,
          "name": "G3",
          "ticks": 199296,
          "time": 155.7,
          "velocity": 0.9606299212598425
        },
        {
          "duration": 0.30000000000001137,
          "durationTicks": 384,
          "midi": 60,
          "name": "C4",
          "ticks": 199296,
          "time": 155.7,
          "velocity": 0.9606299212598425
        },
        {
          "duration": 0.30000000000001137,
          "durationTicks": 384,
          "midi": 64,
          "name": "E4",
          "ticks": 199296,
          "time": 155.7,
          "velocity": 0.9606299212598425
        },
        {
          "duration": 0.15000000000000568,
          "durationTicks": 192,
          "midi": 55,
          "name": "G3",
          "ticks": 201600,
          "time": 157.5,
          "velocity": 0.9606299212598425
        },
        {
          "duration": 0.15000000000000568,
          "durationTicks": 192,
          "midi": 59,
          "name": "B3",
          "ticks": 201600,
          "time": 157.5,
          "velocity": 0.9606299212598425
        },
        {
          "duration": 0.15000000000000568,
          "durationTicks": 192,
          "midi": 62,
          "name": "D4",
          "ticks": 201600,
          "time": 157.5,
          "velocity": 0.9606299212598425
        },
        {
          "duration": 0.29999999999998295,
          "durationTicks": 384,
          "midi": 55,
          "name": "G3",
          "ticks": 201792,
          "time": 157.65,
          "velocity": 0.9606299212598425
        },
        {
          "duration": 0.29999999999998295,
          "durationTicks": 384,
          "midi": 59,
          "name": "B3",
          "ticks": 201792,
          "time": 157.65,
          "velocity": 0.9606299212598425
        },
        {
          "duration": 0.29999999999998295,
          "durationTicks": 384,
          "midi": 62,
          "name": "D4",
          "ticks": 201792,
          "time": 157.65,
          "velocity": 0.9606299212598425
        },
        {
          "duration": 0.15000000000000568,
          "durationTicks": 192,
          "midi": 55,
          "name": "G3",
          "ticks": 202176,
          "time": 157.95,
          "velocity": 0.9606299212598425
        },
        {
          "duration": 0.15000000000000568,
          "durationTicks": 192,
          "midi": 59,
          "name": "B3",
          "ticks": 202176,
          "time": 157.95,
          "velocity": 0.9606299212598425
        },
        {
          "duration": 0.15000000000000568,
          "durationTicks": 192,
          "midi": 62,
          "name": "D4",
          "ticks": 202176,
          "time": 157.95,
          "velocity": 0.9606299212598425
        },
        {
          "duration": 0.30000000000001137,
          "durationTicks": 384,
          "midi": 55,
          "name": "G3",
          "ticks": 202368,
          "time": 158.1,
          "velocity": 0.9606299212598425
        },
        {
          "duration": 0.30000000000001137,
          "durationTicks": 384,
          "midi": 60,
          "name": "C4",
          "ticks": 202368,
          "time": 158.1,
          "velocity": 0.9606299212598425
        },
        {
          "duration": 0.30000000000001137,
          "durationTicks": 384,
          "midi": 64,
          "name": "E4",
          "ticks": 202368,
          "time": 158.1,
          "velocity": 0.9606299212598425
        },
        {
          "duration": 1.1999999999999886,
          "durationTicks": 1536,
          "midi": 60,
          "name": "C4",
          "ticks": 204288,
          "time": 159.6,
          "velocity": 0.9606299212598425
        },
        {
          "duration": 1.1999999999999886,
          "durationTicks": 1536,
          "midi": 57,
          "name": "A3",
          "ticks": 204288,
          "time": 159.6,
          "velocity": 0.9606299212598425
        },
        {
          "duration": 1.200000000000017,
          "durationTicks": 1536,
          "midi": 62,
          "name": "D4",
          "ticks": 205824,
          "time": 160.79999999999998,
          "velocity": 0.9606299212598425
        },
        {
          "duration": 1.200000000000017,
          "durationTicks": 1536,
          "midi": 59,
          "name": "B3",
          "ticks": 205824,
          "time": 160.79999999999998,
          "velocity": 0.9606299212598425
        },
        {
          "duration": 0.29999999999998295,
          "durationTicks": 384,
          "midi": 60,
          "name": "C4",
          "ticks": 207360,
          "time": 162,
          "velocity": 0.9606299212598425
        },
        {
          "duration": 0.29999999999998295,
          "durationTicks": 384,
          "midi": 55,
          "name": "G3",
          "ticks": 207360,
          "time": 162,
          "velocity": 0.9606299212598425
        },
        {
          "duration": 0.15000000000000568,
          "durationTicks": 192,
          "midi": 60,
          "name": "C4",
          "ticks": 207744,
          "time": 162.29999999999998,
          "velocity": 0.9606299212598425
        },
        {
          "duration": 0.15000000000000568,
          "durationTicks": 192,
          "midi": 55,
          "name": "G3",
          "ticks": 207744,
          "time": 162.29999999999998,
          "velocity": 0.9606299212598425
        },
        {
          "duration": 0.30000000000001137,
          "durationTicks": 384,
          "midi": 62,
          "name": "D4",
          "ticks": 207936,
          "time": 162.45,
          "velocity": 0.9606299212598425
        },
        {
          "duration": 0.30000000000001137,
          "durationTicks": 384,
          "midi": 59,
          "name": "B3",
          "ticks": 207936,
          "time": 162.45,
          "velocity": 0.9606299212598425
        },
        {
          "duration": 0.15000000000000568,
          "durationTicks": 192,
          "midi": 62,
          "name": "D4",
          "ticks": 208320,
          "time": 162.75,
          "velocity": 0.9606299212598425
        },
        {
          "duration": 0.15000000000000568,
          "durationTicks": 192,
          "midi": 59,
          "name": "B3",
          "ticks": 208320,
          "time": 162.75,
          "velocity": 0.9606299212598425
        },
        {
          "duration": 0.29999999999998295,
          "durationTicks": 384,
          "midi": 64,
          "name": "E4",
          "ticks": 208512,
          "time": 162.9,
          "velocity": 0.9606299212598425
        },
        {
          "duration": 0.29999999999998295,
          "durationTicks": 384,
          "midi": 60,
          "name": "C4",
          "ticks": 208512,
          "time": 162.9,
          "velocity": 0.9606299212598425
        },
        {
          "duration": 0.15000000000000568,
          "durationTicks": 192,
          "midi": 53,
          "name": "F3",
          "ticks": 210816,
          "time": 164.7,
          "velocity": 0.9606299212598425
        },
        {
          "duration": 0.15000000000000568,
          "durationTicks": 192,
          "midi": 57,
          "name": "A3",
          "ticks": 210816,
          "time": 164.7,
          "velocity": 0.9606299212598425
        },
        {
          "duration": 0.15000000000000568,
          "durationTicks": 192,
          "midi": 60,
          "name": "C4",
          "ticks": 210816,
          "time": 164.7,
          "velocity": 0.9606299212598425
        },
        {
          "duration": 0.30000000000001137,
          "durationTicks": 384,
          "midi": 53,
          "name": "F3",
          "ticks": 211008,
          "time": 164.85,
          "velocity": 0.9606299212598425
        },
        {
          "duration": 0.30000000000001137,
          "durationTicks": 384,
          "midi": 57,
          "name": "A3",
          "ticks": 211008,
          "time": 164.85,
          "velocity": 0.9606299212598425
        },
        {
          "duration": 0.30000000000001137,
          "durationTicks": 384,
          "midi": 60,
          "name": "C4",
          "ticks": 211008,
          "time": 164.85,
          "velocity": 0.9606299212598425
        },
        {
          "duration": 0.14999999999997726,
          "durationTicks": 192,
          "midi": 53,
          "name": "F3",
          "ticks": 211392,
          "time": 165.15,
          "velocity": 0.9606299212598425
        },
        {
          "duration": 0.14999999999997726,
          "durationTicks": 192,
          "midi": 57,
          "name": "A3",
          "ticks": 211392,
          "time": 165.15,
          "velocity": 0.9606299212598425
        },
        {
          "duration": 0.14999999999997726,
          "durationTicks": 192,
          "midi": 60,
          "name": "C4",
          "ticks": 211392,
          "time": 165.15,
          "velocity": 0.9606299212598425
        },
        {
          "duration": 0.30000000000001137,
          "durationTicks": 384,
          "midi": 53,
          "name": "F3",
          "ticks": 211584,
          "time": 165.29999999999998,
          "velocity": 0.9606299212598425
        },
        {
          "duration": 0.30000000000001137,
          "durationTicks": 384,
          "midi": 59,
          "name": "B3",
          "ticks": 211584,
          "time": 165.29999999999998,
          "velocity": 0.9606299212598425
        },
        {
          "duration": 0.30000000000001137,
          "durationTicks": 384,
          "midi": 62,
          "name": "D4",
          "ticks": 211584,
          "time": 165.29999999999998,
          "velocity": 0.9606299212598425
        },
        {
          "duration": 0.30000000000001137,
          "durationTicks": 384,
          "midi": 57,
          "name": "A3",
          "ticks": 213504,
          "time": 166.79999999999998,
          "velocity": 0.9606299212598425
        },
        {
          "duration": 0.30000000000001137,
          "durationTicks": 384,
          "midi": 60,
          "name": "C4",
          "ticks": 213504,
          "time": 166.79999999999998,
          "velocity": 0.9606299212598425
        },
        {
          "duration": 0.30000000000001137,
          "durationTicks": 384,
          "midi": 64,
          "name": "E4",
          "ticks": 213504,
          "time": 166.79999999999998,
          "velocity": 0.9606299212598425
        },
        {
          "duration": 0.15000000000000568,
          "durationTicks": 192,
          "midi": 57,
          "name": "A3",
          "ticks": 213888,
          "time": 167.1,
          "velocity": 0.9606299212598425
        },
        {
          "duration": 0.15000000000000568,
          "durationTicks": 192,
          "midi": 60,
          "name": "C4",
          "ticks": 213888,
          "time": 167.1,
          "velocity": 0.9606299212598425
        },
        {
          "duration": 0.15000000000000568,
          "durationTicks": 192,
          "midi": 64,
          "name": "E4",
          "ticks": 213888,
          "time": 167.1,
          "velocity": 0.9606299212598425
        },
        {
          "duration": 0.29999999999998295,
          "durationTicks": 384,
          "midi": 55,
          "name": "G3",
          "ticks": 214080,
          "time": 167.25,
          "velocity": 0.9606299212598425
        },
        {
          "duration": 0.29999999999998295,
          "durationTicks": 384,
          "midi": 59,
          "name": "B3",
          "ticks": 214080,
          "time": 167.25,
          "velocity": 0.9606299212598425
        },
        {
          "duration": 0.29999999999998295,
          "durationTicks": 384,
          "midi": 62,
          "name": "D4",
          "ticks": 214080,
          "time": 167.25,
          "velocity": 0.9606299212598425
        },
        {
          "duration": 0.15000000000000568,
          "durationTicks": 192,
          "midi": 57,
          "name": "A3",
          "ticks": 214464,
          "time": 167.54999999999998,
          "velocity": 0.9606299212598425
        },
        {
          "duration": 0.15000000000000568,
          "durationTicks": 192,
          "midi": 60,
          "name": "C4",
          "ticks": 214464,
          "time": 167.54999999999998,
          "velocity": 0.9606299212598425
        },
        {
          "duration": 0.15000000000000568,
          "durationTicks": 192,
          "midi": 64,
          "name": "E4",
          "ticks": 214464,
          "time": 167.54999999999998,
          "velocity": 0.9606299212598425
        },
        {
          "duration": 0.30000000000001137,
          "durationTicks": 384,
          "midi": 55,
          "name": "G3",
          "ticks": 214656,
          "time": 167.7,
          "velocity": 0.9606299212598425
        },
        {
          "duration": 0.30000000000001137,
          "durationTicks": 384,
          "midi": 59,
          "name": "B3",
          "ticks": 214656,
          "time": 167.7,
          "velocity": 0.9606299212598425
        },
        {
          "duration": 0.30000000000001137,
          "durationTicks": 384,
          "midi": 62,
          "name": "D4",
          "ticks": 214656,
          "time": 167.7,
          "velocity": 0.9606299212598425
        },
        {
          "duration": 0.29999999999998295,
          "durationTicks": 384,
          "midi": 54,
          "name": "F#3",
          "ticks": 215040,
          "time": 168,
          "velocity": 0.9606299212598425
        },
        {
          "duration": 0.29999999999998295,
          "durationTicks": 384,
          "midi": 57,
          "name": "A3",
          "ticks": 215040,
          "time": 168,
          "velocity": 0.9606299212598425
        },
        {
          "duration": 0.29999999999998295,
          "durationTicks": 384,
          "midi": 60,
          "name": "C4",
          "ticks": 215040,
          "time": 168,
          "velocity": 0.9606299212598425
        },
        {
          "duration": 0.30000000000001137,
          "durationTicks": 384,
          "midi": 67,
          "name": "G4",
          "ticks": 218688,
          "time": 170.85,
          "velocity": 1
        },
        {
          "duration": 0.30000000000001137,
          "durationTicks": 384,
          "midi": 71,
          "name": "B4",
          "ticks": 218688,
          "time": 170.85,
          "velocity": 1
        },
        {
          "duration": 0.30000000000001137,
          "durationTicks": 384,
          "midi": 76,
          "name": "E5",
          "ticks": 218688,
          "time": 170.85,
          "velocity": 1
        },
        {
          "duration": 0.29999999999998295,
          "durationTicks": 384,
          "midi": 65,
          "name": "F4",
          "ticks": 219072,
          "time": 171.15,
          "velocity": 1
        },
        {
          "duration": 0.29999999999998295,
          "durationTicks": 384,
          "midi": 69,
          "name": "A4",
          "ticks": 219072,
          "time": 171.15,
          "velocity": 1
        },
        {
          "duration": 0.29999999999998295,
          "durationTicks": 384,
          "midi": 74,
          "name": "D5",
          "ticks": 219072,
          "time": 171.15,
          "velocity": 1
        },
        {
          "duration": 0.15000000000000568,
          "durationTicks": 192,
          "midi": 64,
          "name": "E4",
          "ticks": 219456,
          "time": 171.45,
          "velocity": 1
        },
        {
          "duration": 0.15000000000000568,
          "durationTicks": 192,
          "midi": 67,
          "name": "G4",
          "ticks": 219456,
          "time": 171.45,
          "velocity": 1
        },
        {
          "duration": 0.15000000000000568,
          "durationTicks": 192,
          "midi": 72,
          "name": "C5",
          "ticks": 219456,
          "time": 171.45,
          "velocity": 1
        },
        {
          "duration": 0.30000000000001137,
          "durationTicks": 384,
          "midi": 64,
          "name": "E4",
          "ticks": 219648,
          "time": 171.6,
          "velocity": 1
        },
        {
          "duration": 0.30000000000001137,
          "durationTicks": 384,
          "midi": 67,
          "name": "G4",
          "ticks": 219648,
          "time": 171.6,
          "velocity": 1
        },
        {
          "duration": 0.30000000000001137,
          "durationTicks": 384,
          "midi": 72,
          "name": "C5",
          "ticks": 219648,
          "time": 171.6,
          "velocity": 1
        }
      ],
      "endOfTrackTicks": 245760
    },
    {
      "channel": 12,
      "controlChanges": {
        "7": [
          {
            "number": 7,
            "ticks": 1536,
            "time": 1.2,
            "value": 0.8661417322834646
          },
          {
            "number": 7,
            "ticks": 1536,
            "time": 1.2,
            "value": 0.8661417322834646
          }
        ]
      },
      "pitchBends": [],
      "instrument": {
        "family": "pipe",
        "number": 72,
        "name": "piccolo"
      },
      "name": "SLAPBASS 1",
      "notes": [
        {
          "duration": 0.07500000000000018,
          "durationTicks": 96,
          "midi": 96,
          "name": "C7",
          "ticks": 6240,
          "time": 4.875,
          "velocity": 0.7874015748031497
        },
        {
          "duration": 0.14999999999999947,
          "durationTicks": 192,
          "midi": 98,
          "name": "D7",
          "ticks": 6336,
          "time": 4.95,
          "velocity": 0.7874015748031497
        },
        {
          "duration": 0.15000000000000036,
          "durationTicks": 192,
          "midi": 96,
          "name": "C7",
          "ticks": 6528,
          "time": 5.1,
          "velocity": 0.7874015748031497
        },
        {
          "duration": 0.14999999999999947,
          "durationTicks": 192,
          "midi": 94,
          "name": "A#6",
          "ticks": 6720,
          "time": 5.25,
          "velocity": 0.7874015748031497
        },
        {
          "duration": 0.15000000000000036,
          "durationTicks": 192,
          "midi": 96,
          "name": "C7",
          "ticks": 6912,
          "time": 5.3999999999999995,
          "velocity": 0.7874015748031497
        },
        {
          "duration": 0.15000000000000036,
          "durationTicks": 192,
          "midi": 94,
          "name": "A#6",
          "ticks": 7104,
          "time": 5.55,
          "velocity": 0.7874015748031497
        },
        {
          "duration": 0.14999999999999947,
          "durationTicks": 192,
          "midi": 89,
          "name": "F6",
          "ticks": 7296,
          "time": 5.7,
          "velocity": 0.7874015748031497
        },
        {
          "duration": 0.07500000000000018,
          "durationTicks": 96,
          "midi": 86,
          "name": "D6",
          "ticks": 7488,
          "time": 5.85,
          "velocity": 0.7874015748031497
        },
        {
          "duration": 0.14999999999999947,
          "durationTicks": 192,
          "midi": 86,
          "name": "D6",
          "ticks": 7680,
          "time": 6,
          "velocity": 0.7874015748031497
        },
        {
          "duration": 0.15000000000000036,
          "durationTicks": 192,
          "midi": 89,
          "name": "F6",
          "ticks": 7872,
          "time": 6.1499999999999995,
          "velocity": 0.7874015748031497
        },
        {
          "duration": 0.15000000000000036,
          "durationTicks": 192,
          "midi": 94,
          "name": "A#6",
          "ticks": 8064,
          "time": 6.3,
          "velocity": 0.7874015748031497
        },
        {
          "duration": 0.14999999999999947,
          "durationTicks": 192,
          "midi": 98,
          "name": "D7",
          "ticks": 8256,
          "time": 6.45,
          "velocity": 0.7874015748031497
        },
        {
          "duration": 0.14999999999999947,
          "durationTicks": 192,
          "midi": 98,
          "name": "D7",
          "ticks": 8640,
          "time": 6.75,
          "velocity": 0.7874015748031497
        },
        {
          "duration": 0.14999999999999947,
          "durationTicks": 192,
          "midi": 94,
          "name": "A#6",
          "ticks": 9024,
          "time": 7.05,
          "velocity": 0.7874015748031497
        },
        {
          "duration": 0.15000000000000036,
          "durationTicks": 192,
          "midi": 96,
          "name": "C7",
          "ticks": 9216,
          "time": 7.199999999999999,
          "velocity": 0.7874015748031497
        },
        {
          "duration": 0.14999999999999947,
          "durationTicks": 192,
          "midi": 99,
          "name": "D#7",
          "ticks": 9600,
          "time": 7.5,
          "velocity": 0.7874015748031497
        },
        {
          "duration": 0.14999999999999947,
          "durationTicks": 192,
          "midi": 98,
          "name": "D7",
          "ticks": 9984,
          "time": 7.8,
          "velocity": 0.7874015748031497
        },
        {
          "duration": 0.15000000000000036,
          "durationTicks": 192,
          "midi": 94,
          "name": "A#6",
          "ticks": 10368,
          "time": 8.1,
          "velocity": 0.7874015748031497
        },
        {
          "duration": 0.14999999999999858,
          "durationTicks": 192,
          "midi": 82,
          "name": "A#5",
          "ticks": 10752,
          "time": 8.4,
          "velocity": 0.7874015748031497
        },
        {
          "duration": 0.15000000000000036,
          "durationTicks": 192,
          "midi": 86,
          "name": "D6",
          "ticks": 10944,
          "time": 8.549999999999999,
          "velocity": 0.7874015748031497
        },
        {
          "duration": 0.15000000000000036,
          "durationTicks": 192,
          "midi": 89,
          "name": "F6",
          "ticks": 11136,
          "time": 8.7,
          "velocity": 0.7874015748031497
        },
        {
          "duration": 0.15000000000000036,
          "durationTicks": 192,
          "midi": 94,
          "name": "A#6",
          "ticks": 11328,
          "time": 8.85,
          "velocity": 0.7874015748031497
        },
        {
          "duration": 0.14999999999999858,
          "durationTicks": 192,
          "midi": 94,
          "name": "A#6",
          "ticks": 11712,
          "time": 9.15,
          "velocity": 0.7874015748031497
        },
        {
          "duration": 0.15000000000000036,
          "durationTicks": 192,
          "midi": 84,
          "name": "C6",
          "ticks": 12096,
          "time": 9.45,
          "velocity": 0.7874015748031497
        },
        {
          "duration": 0.15000000000000036,
          "durationTicks": 192,
          "midi": 93,
          "name": "A6",
          "ticks": 12288,
          "time": 9.6,
          "velocity": 0.7874015748031497
        },
        {
          "duration": 0.14999999999999858,
          "durationTicks": 192,
          "midi": 96,
          "name": "C7",
          "ticks": 12672,
          "time": 9.9,
          "velocity": 0.7874015748031497
        },
        {
          "duration": 0.07500000000000107,
          "durationTicks": 96,
          "midi": 94,
          "name": "A#6",
          "ticks": 13056,
          "time": 10.2,
          "velocity": 0.7874015748031497
        },
        {
          "duration": 0.07499999999999929,
          "durationTicks": 96,
          "midi": 96,
          "name": "C7",
          "ticks": 13152,
          "time": 10.275,
          "velocity": 0.7874015748031497
        },
        {
          "duration": 0.07499999999999929,
          "durationTicks": 96,
          "midi": 94,
          "name": "A#6",
          "ticks": 13248,
          "time": 10.35,
          "velocity": 0.7874015748031497
        },
        {
          "duration": 0.07500000000000107,
          "durationTicks": 96,
          "midi": 96,
          "name": "C7",
          "ticks": 13344,
          "time": 10.424999999999999,
          "velocity": 0.7874015748031497
        },
        {
          "duration": 0.07499999999999929,
          "durationTicks": 96,
          "midi": 94,
          "name": "A#6",
          "ticks": 13440,
          "time": 10.5,
          "velocity": 0.7874015748031497
        },
        {
          "duration": 0.07500000000000107,
          "durationTicks": 96,
          "midi": 96,
          "name": "C7",
          "ticks": 13536,
          "time": 10.575,
          "velocity": 0.7874015748031497
        },
        {
          "duration": 0.14999999999999858,
          "durationTicks": 192,
          "midi": 94,
          "name": "A#6",
          "ticks": 13632,
          "time": 10.65,
          "velocity": 0.7874015748031497
        },
        {
          "duration": 0.1484375,
          "durationTicks": 190,
          "midi": 74,
          "name": "D5",
          "ticks": 185856,
          "time": 145.2,
          "velocity": 0.7874015748031497
        },
        {
          "duration": 0.15000000000000568,
          "durationTicks": 192,
          "midi": 77,
          "name": "F5",
          "ticks": 186048,
          "time": 145.35,
          "velocity": 0.7874015748031497
        },
        {
          "duration": 0.15000000000000568,
          "durationTicks": 192,
          "midi": 82,
          "name": "A#5",
          "ticks": 186240,
          "time": 145.5,
          "velocity": 0.7874015748031497
        },
        {
          "duration": 0.29999999999998295,
          "durationTicks": 384,
          "midi": 86,
          "name": "D6",
          "ticks": 186432,
          "time": 145.65,
          "velocity": 0.7874015748031497
        },
        {
          "duration": 0.30000000000001137,
          "durationTicks": 384,
          "midi": 86,
          "name": "D6",
          "ticks": 186816,
          "time": 145.95,
          "velocity": 0.7874015748031497
        },
        {
          "duration": 0.15000000000000568,
          "durationTicks": 192,
          "midi": 82,
          "name": "A#5",
          "ticks": 187200,
          "time": 146.25,
          "velocity": 0.7874015748031497
        },
        {
          "duration": 0.29999999999998295,
          "durationTicks": 384,
          "midi": 84,
          "name": "C6",
          "ticks": 187392,
          "time": 146.4,
          "velocity": 0.7874015748031497
        },
        {
          "duration": 0.30000000000001137,
          "durationTicks": 384,
          "midi": 87,
          "name": "D#6",
          "ticks": 187776,
          "time": 146.7,
          "velocity": 0.7874015748031497
        },
        {
          "duration": 0.29999999999998295,
          "durationTicks": 384,
          "midi": 86,
          "name": "D6",
          "ticks": 188160,
          "time": 147,
          "velocity": 0.7874015748031497
        },
        {
          "duration": 0.30000000000001137,
          "durationTicks": 384,
          "midi": 82,
          "name": "A#5",
          "ticks": 188544,
          "time": 147.29999999999998,
          "velocity": 0.7874015748031497
        },
        {
          "duration": 0.07499999999998863,
          "durationTicks": 96,
          "midi": 82,
          "name": "A#5",
          "ticks": 188928,
          "time": 147.6,
          "velocity": 0.7874015748031497
        },
        {
          "duration": 0.07500000000001705,
          "durationTicks": 96,
          "midi": 84,
          "name": "C6",
          "ticks": 189024,
          "time": 147.67499999999998,
          "velocity": 0.7874015748031497
        },
        {
          "duration": 0.07499999999998863,
          "durationTicks": 96,
          "midi": 82,
          "name": "A#5",
          "ticks": 189120,
          "time": 147.75,
          "velocity": 0.7874015748031497
        },
        {
          "duration": 0.07500000000001705,
          "durationTicks": 96,
          "midi": 84,
          "name": "C6",
          "ticks": 189216,
          "time": 147.825,
          "velocity": 0.7874015748031497
        },
        {
          "duration": 0.07499999999998863,
          "durationTicks": 96,
          "midi": 82,
          "name": "A#5",
          "ticks": 189312,
          "time": 147.9,
          "velocity": 0.7874015748031497
        },
        {
          "duration": 0.07499999999998863,
          "durationTicks": 96,
          "midi": 84,
          "name": "C6",
          "ticks": 189408,
          "time": 147.975,
          "velocity": 0.7874015748031497
        },
        {
          "duration": 0.07500000000001705,
          "durationTicks": 96,
          "midi": 82,
          "name": "A#5",
          "ticks": 189504,
          "time": 148.04999999999998,
          "velocity": 0.7874015748031497
        },
        {
          "duration": 0.07499999999998863,
          "durationTicks": 96,
          "midi": 84,
          "name": "C6",
          "ticks": 189600,
          "time": 148.125,
          "velocity": 0.7874015748031497
        },
        {
          "duration": 0.07500000000001705,
          "durationTicks": 96,
          "midi": 82,
          "name": "A#5",
          "ticks": 189696,
          "time": 148.2,
          "velocity": 0.7874015748031497
        },
        {
          "duration": 0.07499999999998863,
          "durationTicks": 96,
          "midi": 84,
          "name": "C6",
          "ticks": 189792,
          "time": 148.275,
          "velocity": 0.7874015748031497
        },
        {
          "duration": 0.07499999999998863,
          "durationTicks": 96,
          "midi": 82,
          "name": "A#5",
          "ticks": 189888,
          "time": 148.35,
          "velocity": 0.7874015748031497
        },
        {
          "duration": 0.07500000000001705,
          "durationTicks": 96,
          "midi": 84,
          "name": "C6",
          "ticks": 189984,
          "time": 148.42499999999998,
          "velocity": 0.7874015748031497
        },
        {
          "duration": 0.07499999999998863,
          "durationTicks": 96,
          "midi": 82,
          "name": "A#5",
          "ticks": 190080,
          "time": 148.5,
          "velocity": 0.7874015748031497
        },
        {
          "duration": 0.07500000000001705,
          "durationTicks": 96,
          "midi": 84,
          "name": "C6",
          "ticks": 190176,
          "time": 148.575,
          "velocity": 0.7874015748031497
        },
        {
          "duration": 0.07499999999998863,
          "durationTicks": 96,
          "midi": 82,
          "name": "A#5",
          "ticks": 190272,
          "time": 148.65,
          "velocity": 0.7874015748031497
        },
        {
          "duration": 0.07499999999998863,
          "durationTicks": 96,
          "midi": 84,
          "name": "C6",
          "ticks": 190368,
          "time": 148.725,
          "velocity": 0.7874015748031497
        },
        {
          "duration": 0.07500000000001705,
          "durationTicks": 96,
          "midi": 82,
          "name": "A#5",
          "ticks": 190464,
          "time": 148.79999999999998,
          "velocity": 0.7874015748031497
        },
        {
          "duration": 0.07499999999998863,
          "durationTicks": 96,
          "midi": 84,
          "name": "C6",
          "ticks": 190560,
          "time": 148.875,
          "velocity": 0.7874015748031497
        },
        {
          "duration": 0.07500000000001705,
          "durationTicks": 96,
          "midi": 82,
          "name": "A#5",
          "ticks": 190656,
          "time": 148.95,
          "velocity": 0.7874015748031497
        },
        {
          "duration": 0.07499999999998863,
          "durationTicks": 96,
          "midi": 84,
          "name": "C6",
          "ticks": 190752,
          "time": 149.025,
          "velocity": 0.7874015748031497
        },
        {
          "duration": 0.07499999999998863,
          "durationTicks": 96,
          "midi": 82,
          "name": "A#5",
          "ticks": 190848,
          "time": 149.1,
          "velocity": 0.7874015748031497
        },
        {
          "duration": 0.07500000000001705,
          "durationTicks": 96,
          "midi": 84,
          "name": "C6",
          "ticks": 190944,
          "time": 149.17499999999998,
          "velocity": 0.7874015748031497
        },
        {
          "duration": 0.07499999999998863,
          "durationTicks": 96,
          "midi": 82,
          "name": "A#5",
          "ticks": 191040,
          "time": 149.25,
          "velocity": 0.7874015748031497
        },
        {
          "duration": 0.07500000000001705,
          "durationTicks": 96,
          "midi": 84,
          "name": "C6",
          "ticks": 191136,
          "time": 149.325,
          "velocity": 0.7874015748031497
        },
        {
          "duration": 0.15000000000000568,
          "durationTicks": 192,
          "midi": 76,
          "name": "E5",
          "ticks": 192000,
          "time": 150,
          "velocity": 0.7874015748031497
        },
        {
          "duration": 0.14999999999997726,
          "durationTicks": 192,
          "midi": 79,
          "name": "G5",
          "ticks": 192192,
          "time": 150.15,
          "velocity": 0.7874015748031497
        },
        {
          "duration": 0.15000000000000568,
          "durationTicks": 192,
          "midi": 84,
          "name": "C6",
          "ticks": 192384,
          "time": 150.29999999999998,
          "velocity": 0.7874015748031497
        },
        {
          "duration": 0.30000000000001137,
          "durationTicks": 384,
          "midi": 88,
          "name": "E6",
          "ticks": 192576,
          "time": 150.45,
          "velocity": 0.7874015748031497
        },
        {
          "duration": 0.29999999999998295,
          "durationTicks": 384,
          "midi": 88,
          "name": "E6",
          "ticks": 192960,
          "time": 150.75,
          "velocity": 0.7874015748031497
        },
        {
          "duration": 0.15000000000000568,
          "durationTicks": 192,
          "midi": 79,
          "name": "G5",
          "ticks": 193344,
          "time": 151.04999999999998,
          "velocity": 0.7874015748031497
        },
        {
          "duration": 0.30000000000001137,
          "durationTicks": 384,
          "midi": 86,
          "name": "D6",
          "ticks": 193536,
          "time": 151.2,
          "velocity": 0.7874015748031497
        },
        {
          "duration": 0.29999999999998295,
          "durationTicks": 384,
          "midi": 89,
          "name": "F6",
          "ticks": 193920,
          "time": 151.5,
          "velocity": 0.7874015748031497
        },
        {
          "duration": 0.30000000000001137,
          "durationTicks": 384,
          "midi": 88,
          "name": "E6",
          "ticks": 194304,
          "time": 151.79999999999998,
          "velocity": 0.7874015748031497
        },
        {
          "duration": 0.30000000000001137,
          "durationTicks": 384,
          "midi": 84,
          "name": "C6",
          "ticks": 194688,
          "time": 152.1,
          "velocity": 0.7874015748031497
        }
      ],
      "endOfTrackTicks": 245760
    },
    {
      "channel": 12,
      "controlChanges": {},
      "pitchBends": [],
      "instrument": {
        "family": "percussive",
        "number": 114,
        "name": "steel drums"
      },
      "name": "",
      "notes": [
        {
          "duration": 0.15625,
          "durationTicks": 200,
          "midi": 65,
          "name": "F4",
          "ticks": 14176,
          "time": 11.075,
          "velocity": 1
        },
        {
          "duration": 0.1687499999999993,
          "durationTicks": 216,
          "midi": 70,
          "name": "A#4",
          "ticks": 14384,
          "time": 11.2375,
          "velocity": 1
        },
        {
          "duration": 0.14687499999999964,
          "durationTicks": 188,
          "midi": 70,
          "name": "A#4",
          "ticks": 14750,
          "time": 11.5234375,
          "velocity": 1
        },
        {
          "duration": 0.10312500000000036,
          "durationTicks": 132,
          "midi": 70,
          "name": "A#4",
          "ticks": 15110,
          "time": 11.8046875,
          "velocity": 1
        },
        {
          "duration": 0.2062500000000007,
          "durationTicks": 264,
          "midi": 69,
          "name": "A4",
          "ticks": 15292,
          "time": 11.946874999999999,
          "velocity": 1
        },
        {
          "duration": 0.2234374999999993,
          "durationTicks": 286,
          "midi": 72,
          "name": "C5",
          "ticks": 15674,
          "time": 12.2453125,
          "velocity": 1
        },
        {
          "duration": 0.24062499999999964,
          "durationTicks": 308,
          "midi": 70,
          "name": "A#4",
          "ticks": 16066,
          "time": 12.5515625,
          "velocity": 1
        },
        {
          "duration": 0.17031249999999964,
          "durationTicks": 218,
          "midi": 65,
          "name": "F4",
          "ticks": 16456,
          "time": 12.85625,
          "velocity": 1
        },
        {
          "duration": 0.1296874999999993,
          "durationTicks": 166,
          "midi": 62,
          "name": "D4",
          "ticks": 17228,
          "time": 13.459375,
          "velocity": 1
        },
        {
          "duration": 0.15624999999999822,
          "durationTicks": 200,
          "midi": 65,
          "name": "F4",
          "ticks": 17456,
          "time": 13.637500000000001,
          "velocity": 1
        },
        {
          "duration": 0.15781249999999858,
          "durationTicks": 202,
          "midi": 65,
          "name": "F4",
          "ticks": 17822,
          "time": 13.9234375,
          "velocity": 1
        },
        {
          "duration": 0.1609374999999975,
          "durationTicks": 206,
          "midi": 65,
          "name": "F4",
          "ticks": 18176,
          "time": 14.200000000000001,
          "velocity": 1
        },
        {
          "duration": 0.2453125000000007,
          "durationTicks": 314,
          "midi": 60,
          "name": "C4",
          "ticks": 18382,
          "time": 14.360937499999999,
          "velocity": 1
        },
        {
          "duration": 0.203125,
          "durationTicks": 260,
          "midi": 65,
          "name": "F4",
          "ticks": 18768,
          "time": 14.6625,
          "velocity": 1
        },
        {
          "duration": 0.34531250000000213,
          "durationTicks": 442,
          "midi": 62,
          "name": "D4",
          "ticks": 19132,
          "time": 14.946874999999999,
          "velocity": 1
        },
        {
          "duration": 0.13750000000000107,
          "durationTicks": 176,
          "midi": 65,
          "name": "F4",
          "ticks": 20320,
          "time": 15.874999999999998,
          "velocity": 1
        },
        {
          "duration": 0.1593750000000007,
          "durationTicks": 204,
          "midi": 70,
          "name": "A#4",
          "ticks": 20532,
          "time": 16.040625,
          "velocity": 1
        },
        {
          "duration": 0.078125,
          "durationTicks": 100,
          "midi": 70,
          "name": "A#4",
          "ticks": 20894,
          "time": 16.3234375,
          "velocity": 1
        },
        {
          "duration": 0.1921874999999993,
          "durationTicks": 246,
          "midi": 70,
          "name": "A#4",
          "ticks": 21090,
          "time": 16.4765625,
          "velocity": 1
        },
        {
          "duration": 0.1828125000000007,
          "durationTicks": 234,
          "midi": 69,
          "name": "A4",
          "ticks": 21470,
          "time": 16.7734375,
          "velocity": 1
        },
        {
          "duration": 0.19687499999999858,
          "durationTicks": 252,
          "midi": 72,
          "name": "C5",
          "ticks": 21856,
          "time": 17.075,
          "velocity": 1
        },
        {
          "duration": 0.24687500000000284,
          "durationTicks": 316,
          "midi": 70,
          "name": "A#4",
          "ticks": 22222,
          "time": 17.3609375,
          "velocity": 1
        },
        {
          "duration": 0.1906250000000007,
          "durationTicks": 244,
          "midi": 65,
          "name": "F4",
          "ticks": 22626,
          "time": 17.6765625,
          "velocity": 1
        },
        {
          "duration": 0.13750000000000284,
          "durationTicks": 176,
          "midi": 62,
          "name": "D4",
          "ticks": 23338,
          "time": 18.232812499999998,
          "velocity": 1
        },
        {
          "duration": 0.1609374999999993,
          "durationTicks": 206,
          "midi": 65,
          "name": "F4",
          "ticks": 23576,
          "time": 18.41875,
          "velocity": 1
        },
        {
          "duration": 0.14687500000000142,
          "durationTicks": 188,
          "midi": 65,
          "name": "F4",
          "ticks": 23958,
          "time": 18.717187499999998,
          "velocity": 1
        },
        {
          "duration": 0.1515625000000007,
          "durationTicks": 194,
          "midi": 65,
          "name": "F4",
          "ticks": 24326,
          "time": 19.0046875,
          "velocity": 1
        },
        {
          "duration": 0.21093750000000355,
          "durationTicks": 270,
          "midi": 60,
          "name": "C4",
          "ticks": 24538,
          "time": 19.170312499999998,
          "velocity": 1
        },
        {
          "duration": 0.21249999999999858,
          "durationTicks": 272,
          "midi": 65,
          "name": "F4",
          "ticks": 24912,
          "time": 19.4625,
          "velocity": 1
        },
        {
          "duration": 0.41249999999999787,
          "durationTicks": 528,
          "midi": 62,
          "name": "D4",
          "ticks": 25260,
          "time": 19.734375,
          "velocity": 1
        },
        {
          "duration": 0.13750000000000284,
          "durationTicks": 176,
          "midi": 67,
          "name": "G4",
          "ticks": 26432,
          "time": 20.65,
          "velocity": 1
        },
        {
          "duration": 0.16718749999999716,
          "durationTicks": 214,
          "midi": 70,
          "name": "A#4",
          "ticks": 26662,
          "time": 20.829687500000002,
          "velocity": 1
        },
        {
          "duration": 0.18124999999999858,
          "durationTicks": 232,
          "midi": 70,
          "name": "A#4",
          "ticks": 27040,
          "time": 21.125,
          "velocity": 1
        },
        {
          "duration": 0.13125000000000142,
          "durationTicks": 168,
          "midi": 67,
          "name": "G4",
          "ticks": 27408,
          "time": 21.412499999999998,
          "velocity": 1
        },
        {
          "duration": 0.2234374999999993,
          "durationTicks": 286,
          "midi": 65,
          "name": "F4",
          "ticks": 27610,
          "time": 21.5703125,
          "velocity": 1
        },
        {
          "duration": 0.19687499999999858,
          "durationTicks": 252,
          "midi": 70,
          "name": "A#4",
          "ticks": 27990,
          "time": 21.8671875,
          "velocity": 1
        },
        {
          "duration": 0.2390624999999993,
          "durationTicks": 306,
          "midi": 65,
          "name": "F4",
          "ticks": 28360,
          "time": 22.15625,
          "velocity": 1
        },
        {
          "duration": 0.18125000000000213,
          "durationTicks": 232,
          "midi": 70,
          "name": "A#4",
          "ticks": 28776,
          "time": 22.48125,
          "velocity": 1
        },
        {
          "duration": 0.11562500000000142,
          "durationTicks": 148,
          "midi": 72,
          "name": "C5",
          "ticks": 29532,
          "time": 23.071875,
          "velocity": 1
        },
        {
          "duration": 0.16093750000000284,
          "durationTicks": 206,
          "midi": 72,
          "name": "C5",
          "ticks": 29762,
          "time": 23.2515625,
          "velocity": 1
        },
        {
          "duration": 0.17656250000000284,
          "durationTicks": 226,
          "midi": 72,
          "name": "C5",
          "ticks": 30126,
          "time": 23.5359375,
          "velocity": 1
        },
        {
          "duration": 0.08281249999999929,
          "durationTicks": 106,
          "midi": 70,
          "name": "A#4",
          "ticks": 30474,
          "time": 23.8078125,
          "velocity": 1
        },
        {
          "duration": 0.03281250000000213,
          "durationTicks": 42,
          "midi": 72,
          "name": "C5",
          "ticks": 30648,
          "time": 23.943749999999998,
          "velocity": 1
        },
        {
          "duration": 0.1906250000000007,
          "durationTicks": 244,
          "midi": 74,
          "name": "D5",
          "ticks": 30690,
          "time": 23.9765625,
          "velocity": 1
        },
        {
          "duration": 0.20468750000000213,
          "durationTicks": 262,
          "midi": 72,
          "name": "C5",
          "ticks": 31058,
          "time": 24.264062499999998,
          "velocity": 1
        },
        {
          "duration": 0.27031250000000284,
          "durationTicks": 346,
          "midi": 70,
          "name": "A#4",
          "ticks": 31446,
          "time": 24.5671875,
          "velocity": 1
        },
        {
          "duration": 0.109375,
          "durationTicks": 140,
          "midi": 67,
          "name": "G4",
          "ticks": 32616,
          "time": 25.48125,
          "velocity": 1
        },
        {
          "duration": 0.17812500000000142,
          "durationTicks": 228,
          "midi": 70,
          "name": "A#4",
          "ticks": 32808,
          "time": 25.631249999999998,
          "velocity": 1
        },
        {
          "duration": 0.1906250000000007,
          "durationTicks": 244,
          "midi": 70,
          "name": "A#4",
          "ticks": 33174,
          "time": 25.9171875,
          "velocity": 1
        },
        {
          "duration": 0.12343749999999787,
          "durationTicks": 158,
          "midi": 67,
          "name": "G4",
          "ticks": 33538,
          "time": 26.2015625,
          "velocity": 1
        },
        {
          "duration": 0.24843750000000142,
          "durationTicks": 318,
          "midi": 65,
          "name": "F4",
          "ticks": 33738,
          "time": 26.357812499999998,
          "velocity": 1
        },
        {
          "duration": 0.20156250000000142,
          "durationTicks": 258,
          "midi": 70,
          "name": "A#4",
          "ticks": 34120,
          "time": 26.65625,
          "velocity": 1
        },
        {
          "duration": 0.2749999999999986,
          "durationTicks": 352,
          "midi": 65,
          "name": "F4",
          "ticks": 34496,
          "time": 26.95,
          "velocity": 1
        },
        {
          "duration": 0.19687499999999858,
          "durationTicks": 252,
          "midi": 70,
          "name": "A#4",
          "ticks": 34914,
          "time": 27.2765625,
          "velocity": 1
        },
        {
          "duration": 0.10624999999999929,
          "durationTicks": 136,
          "midi": 72,
          "name": "C5",
          "ticks": 35672,
          "time": 27.86875,
          "velocity": 1
        },
        {
          "duration": 0.15312500000000284,
          "durationTicks": 196,
          "midi": 72,
          "name": "C5",
          "ticks": 35898,
          "time": 28.045312499999998,
          "velocity": 1
        },
        {
          "duration": 0.1687499999999993,
          "durationTicks": 216,
          "midi": 72,
          "name": "C5",
          "ticks": 36264,
          "time": 28.33125,
          "velocity": 1
        },
        {
          "duration": 0.0859375,
          "durationTicks": 110,
          "midi": 70,
          "name": "A#4",
          "ticks": 36596,
          "time": 28.590625,
          "velocity": 1
        },
        {
          "duration": 0.03281250000000213,
          "durationTicks": 42,
          "midi": 72,
          "name": "C5",
          "ticks": 36794,
          "time": 28.745312499999997,
          "velocity": 1
        },
        {
          "duration": 0.1765624999999993,
          "durationTicks": 226,
          "midi": 74,
          "name": "D5",
          "ticks": 36836,
          "time": 28.778125,
          "velocity": 1
        },
        {
          "duration": 0.18124999999999858,
          "durationTicks": 232,
          "midi": 72,
          "name": "C5",
          "ticks": 37200,
          "time": 29.0625,
          "velocity": 1
        },
        {
          "duration": 0.24687500000000284,
          "durationTicks": 316,
          "midi": 70,
          "name": "A#4",
          "ticks": 37556,
          "time": 29.340624999999996,
          "velocity": 1
        },
        {
          "duration": 0.13281249999999645,
          "durationTicks": 170,
          "midi": 74,
          "name": "D5",
          "ticks": 39208,
          "time": 30.63125,
          "velocity": 1
        },
        {
          "duration": 0.1593750000000007,
          "durationTicks": 204,
          "midi": 72,
          "name": "C5",
          "ticks": 39430,
          "time": 30.8046875,
          "velocity": 1
        },
        {
          "duration": 0.12499999999999645,
          "durationTicks": 160,
          "midi": 70,
          "name": "A#4",
          "ticks": 39760,
          "time": 31.0625,
          "velocity": 1
        },
        {
          "duration": 0.36718749999999645,
          "durationTicks": 470,
          "midi": 67,
          "name": "G4",
          "ticks": 39958,
          "time": 31.2171875,
          "velocity": 1
        },
        {
          "duration": 0.16093749999999574,
          "durationTicks": 206,
          "midi": 74,
          "name": "D5",
          "ticks": 42058,
          "time": 32.8578125,
          "velocity": 1
        },
        {
          "duration": 0.16875000000000284,
          "durationTicks": 216,
          "midi": 72,
          "name": "C5",
          "ticks": 42400,
          "time": 33.125,
          "velocity": 1
        },
        {
          "duration": 0.078125,
          "durationTicks": 100,
          "midi": 70,
          "name": "A#4",
          "ticks": 42744,
          "time": 33.39375,
          "velocity": 1
        },
        {
          "duration": 0.45781249999999574,
          "durationTicks": 586,
          "midi": 72,
          "name": "C5",
          "ticks": 42946,
          "time": 33.5515625,
          "velocity": 1
        },
        {
          "duration": 0.16093750000000284,
          "durationTicks": 206,
          "midi": 74,
          "name": "D5",
          "ticks": 45144,
          "time": 35.26875,
          "velocity": 1
        },
        {
          "duration": 0.1875,
          "durationTicks": 240,
          "midi": 72,
          "name": "C5",
          "ticks": 45484,
          "time": 35.534375,
          "velocity": 1
        },
        {
          "duration": 0.15781250000000568,
          "durationTicks": 202,
          "midi": 70,
          "name": "A#4",
          "ticks": 45816,
          "time": 35.793749999999996,
          "velocity": 1
        },
        {
          "duration": 0.29999999999999716,
          "durationTicks": 384,
          "midi": 67,
          "name": "G4",
          "ticks": 46032,
          "time": 35.9625,
          "velocity": 1
        },
        {
          "duration": 0.109375,
          "durationTicks": 140,
          "midi": 63,
          "name": "D#4",
          "ticks": 46424,
          "time": 36.26875,
          "velocity": 1
        },
        {
          "duration": 0.2031249999999929,
          "durationTicks": 260,
          "midi": 74,
          "name": "D5",
          "ticks": 46638,
          "time": 36.4359375,
          "velocity": 1
        },
        {
          "duration": 0.18124999999999858,
          "durationTicks": 232,
          "midi": 72,
          "name": "C5",
          "ticks": 47000,
          "time": 36.71875,
          "velocity": 1
        },
        {
          "duration": 0.13437499999999147,
          "durationTicks": 172,
          "midi": 70,
          "name": "A#4",
          "ticks": 47356,
          "time": 36.996875,
          "velocity": 1
        },
        {
          "duration": 0.25468749999999574,
          "durationTicks": 326,
          "midi": 67,
          "name": "G4",
          "ticks": 47580,
          "time": 37.171875,
          "velocity": 1
        },
        {
          "duration": 0.15312500000000284,
          "durationTicks": 196,
          "midi": 65,
          "name": "F4",
          "ticks": 47954,
          "time": 37.4640625,
          "velocity": 1
        },
        {
          "duration": 0.16874999999999574,
          "durationTicks": 216,
          "midi": 74,
          "name": "D5",
          "ticks": 48178,
          "time": 37.6390625,
          "velocity": 1
        },
        {
          "duration": 0.18593750000000142,
          "durationTicks": 238,
          "midi": 72,
          "name": "C5",
          "ticks": 48546,
          "time": 37.926562499999996,
          "velocity": 1
        },
        {
          "duration": 0.1015625,
          "durationTicks": 130,
          "midi": 70,
          "name": "A#4",
          "ticks": 48894,
          "time": 38.1984375,
          "velocity": 1
        },
        {
          "duration": 0.5015624999999915,
          "durationTicks": 642,
          "midi": 74,
          "name": "D5",
          "ticks": 49096,
          "time": 38.35625,
          "velocity": 1
        },
        {
          "duration": 0.18124999999999858,
          "durationTicks": 232,
          "midi": 74,
          "name": "D5",
          "ticks": 51278,
          "time": 40.0609375,
          "velocity": 1
        },
        {
          "duration": 0.19218750000000284,
          "durationTicks": 246,
          "midi": 72,
          "name": "C5",
          "ticks": 51640,
          "time": 40.34374999999999,
          "velocity": 1
        },
        {
          "duration": 0.11249999999999716,
          "durationTicks": 144,
          "midi": 70,
          "name": "A#4",
          "ticks": 51994,
          "time": 40.6203125,
          "velocity": 1
        },
        {
          "duration": 0.2421875000000071,
          "durationTicks": 310,
          "midi": 67,
          "name": "G4",
          "ticks": 52186,
          "time": 40.770312499999996,
          "velocity": 1
        },
        {
          "duration": 0.2109375,
          "durationTicks": 270,
          "midi": 70,
          "name": "A#4",
          "ticks": 52576,
          "time": 41.074999999999996,
          "velocity": 1
        },
        {
          "duration": 0.2734375000000071,
          "durationTicks": 350,
          "midi": 70,
          "name": "A#4",
          "ticks": 52978,
          "time": 41.389062499999994,
          "velocity": 1
        },
        {
          "duration": 0.11874999999999858,
          "durationTicks": 152,
          "midi": 67,
          "name": "G4",
          "ticks": 53328,
          "time": 41.6625,
          "velocity": 1
        },
        {
          "duration": 0.2265625000000071,
          "durationTicks": 290,
          "midi": 72,
          "name": "C5",
          "ticks": 53544,
          "time": 41.83125,
          "velocity": 1
        },
        {
          "duration": 0.20624999999999716,
          "durationTicks": 264,
          "midi": 72,
          "name": "C5",
          "ticks": 54308,
          "time": 42.428125,
          "velocity": 1
        },
        {
          "duration": 0.14687499999999432,
          "durationTicks": 188,
          "midi": 70,
          "name": "A#4",
          "ticks": 54710,
          "time": 42.7421875,
          "velocity": 1
        },
        {
          "duration": 0.0781249999999929,
          "durationTicks": 100,
          "midi": 72,
          "name": "C5",
          "ticks": 55046,
          "time": 43.0046875,
          "velocity": 1
        },
        {
          "duration": 0.03437500000000426,
          "durationTicks": 44,
          "midi": 72,
          "name": "C5",
          "ticks": 55258,
          "time": 43.170312499999994,
          "velocity": 1
        },
        {
          "duration": 0.1640625,
          "durationTicks": 210,
          "midi": 74,
          "name": "D5",
          "ticks": 55302,
          "time": 43.2046875,
          "velocity": 1
        },
        {
          "duration": 0.17812500000000142,
          "durationTicks": 228,
          "midi": 74,
          "name": "D5",
          "ticks": 55652,
          "time": 43.478125,
          "velocity": 1
        },
        {
          "duration": 0.14999999999999858,
          "durationTicks": 192,
          "midi": 72,
          "name": "C5",
          "ticks": 55880,
          "time": 43.65625,
          "velocity": 1
        },
        {
          "duration": 0.14687499999999432,
          "durationTicks": 188,
          "midi": 72,
          "name": "C5",
          "ticks": 56222,
          "time": 43.9234375,
          "velocity": 1
        },
        {
          "duration": 0.26875000000000426,
          "durationTicks": 344,
          "midi": 70,
          "name": "A#4",
          "ticks": 56410,
          "time": 44.07031249999999,
          "velocity": 1
        },
        {
          "duration": 0.1875,
          "durationTicks": 240,
          "midi": 74,
          "name": "D5",
          "ticks": 57376,
          "time": 44.824999999999996,
          "velocity": 1
        },
        {
          "duration": 0.18593750000000142,
          "durationTicks": 238,
          "midi": 72,
          "name": "C5",
          "ticks": 57754,
          "time": 45.1203125,
          "velocity": 1
        },
        {
          "duration": 0.11562499999999432,
          "durationTicks": 148,
          "midi": 70,
          "name": "A#4",
          "ticks": 58094,
          "time": 45.385937500000004,
          "velocity": 1
        },
        {
          "duration": 0.25468750000000284,
          "durationTicks": 326,
          "midi": 67,
          "name": "G4",
          "ticks": 58312,
          "time": 45.55625,
          "velocity": 1
        },
        {
          "duration": 0.140625,
          "durationTicks": 180,
          "midi": 65,
          "name": "F4",
          "ticks": 58686,
          "time": 45.848437499999996,
          "velocity": 1
        },
        {
          "duration": 0.1796875,
          "durationTicks": 230,
          "midi": 74,
          "name": "D5",
          "ticks": 58908,
          "time": 46.021875,
          "velocity": 1
        },
        {
          "duration": 0.19999999999999574,
          "durationTicks": 256,
          "midi": 72,
          "name": "C5",
          "ticks": 59280,
          "time": 46.3125,
          "velocity": 1
        },
        {
          "duration": 0.11093749999999147,
          "durationTicks": 142,
          "midi": 70,
          "name": "A#4",
          "ticks": 59624,
          "time": 46.581250000000004,
          "velocity": 1
        },
        {
          "duration": 0.25468750000000284,
          "durationTicks": 326,
          "midi": 67,
          "name": "G4",
          "ticks": 59848,
          "time": 46.756249999999994,
          "velocity": 1
        },
        {
          "duration": 0.15000000000000568,
          "durationTicks": 192,
          "midi": 65,
          "name": "F4",
          "ticks": 60242,
          "time": 47.0640625,
          "velocity": 1
        },
        {
          "duration": 0.1796874999999929,
          "durationTicks": 230,
          "midi": 74,
          "name": "D5",
          "ticks": 60470,
          "time": 47.2421875,
          "velocity": 1
        },
        {
          "duration": 0.19999999999999574,
          "durationTicks": 256,
          "midi": 72,
          "name": "C5",
          "ticks": 60824,
          "time": 47.518750000000004,
          "velocity": 1
        },
        {
          "duration": 0.10000000000000142,
          "durationTicks": 128,
          "midi": 70,
          "name": "A#4",
          "ticks": 61174,
          "time": 47.7921875,
          "velocity": 1
        },
        {
          "duration": 0.5249999999999986,
          "durationTicks": 672,
          "midi": 70,
          "name": "A#4",
          "ticks": 61404,
          "time": 47.971875,
          "velocity": 1
        },
        {
          "duration": 0.09531249999999858,
          "durationTicks": 122,
          "midi": 62,
          "name": "D4",
          "ticks": 67952,
          "time": 53.0875,
          "velocity": 1
        },
        {
          "duration": 0.09531249999999858,
          "durationTicks": 122,
          "midi": 70,
          "name": "A#4",
          "ticks": 67952,
          "time": 53.0875,
          "velocity": 1
        },
        {
          "duration": 0.17500000000000426,
          "durationTicks": 224,
          "midi": 62,
          "name": "D4",
          "ticks": 68160,
          "time": 53.25,
          "velocity": 1
        },
        {
          "duration": 0.17500000000000426,
          "durationTicks": 224,
          "midi": 70,
          "name": "A#4",
          "ticks": 68160,
          "time": 53.25,
          "velocity": 1
        },
        {
          "duration": 0.16249999999999432,
          "durationTicks": 208,
          "midi": 62,
          "name": "D4",
          "ticks": 68538,
          "time": 53.5453125,
          "velocity": 1
        },
        {
          "duration": 0.16249999999999432,
          "durationTicks": 208,
          "midi": 70,
          "name": "A#4",
          "ticks": 68538,
          "time": 53.5453125,
          "velocity": 1
        },
        {
          "duration": 0.12968750000000995,
          "durationTicks": 166,
          "midi": 62,
          "name": "D4",
          "ticks": 68878,
          "time": 53.810937499999994,
          "velocity": 1
        },
        {
          "duration": 0.12968750000000995,
          "durationTicks": 166,
          "midi": 70,
          "name": "A#4",
          "ticks": 68878,
          "time": 53.810937499999994,
          "velocity": 1
        },
        {
          "duration": 0.21249999999999858,
          "durationTicks": 272,
          "midi": 60,
          "name": "C4",
          "ticks": 69082,
          "time": 53.9703125,
          "velocity": 1
        },
        {
          "duration": 0.21249999999999858,
          "durationTicks": 272,
          "midi": 69,
          "name": "A4",
          "ticks": 69082,
          "time": 53.9703125,
          "velocity": 1
        },
        {
          "duration": 0.1796875,
          "durationTicks": 230,
          "midi": 63,
          "name": "D#4",
          "ticks": 69472,
          "time": 54.275,
          "velocity": 1
        },
        {
          "duration": 0.1796875,
          "durationTicks": 230,
          "midi": 72,
          "name": "C5",
          "ticks": 69472,
          "time": 54.275,
          "velocity": 1
        },
        {
          "duration": 0.24687500000000284,
          "durationTicks": 316,
          "midi": 62,
          "name": "D4",
          "ticks": 69842,
          "time": 54.5640625,
          "velocity": 1
        },
        {
          "duration": 0.24687500000000284,
          "durationTicks": 316,
          "midi": 70,
          "name": "A#4",
          "ticks": 69842,
          "time": 54.5640625,
          "velocity": 1
        },
        {
          "duration": 0.22499999999999432,
          "durationTicks": 288,
          "midi": 65,
          "name": "F4",
          "ticks": 70244,
          "time": 54.878125000000004,
          "velocity": 1
        },
        {
          "duration": 0.22499999999999432,
          "durationTicks": 288,
          "midi": 58,
          "name": "A#3",
          "ticks": 70244,
          "time": 54.878125000000004,
          "velocity": 1
        },
        {
          "duration": 0.08906250000000426,
          "durationTicks": 114,
          "midi": 65,
          "name": "F4",
          "ticks": 71016,
          "time": 55.481249999999996,
          "velocity": 1
        },
        {
          "duration": 0.13437499999999858,
          "durationTicks": 172,
          "midi": 65,
          "name": "F4",
          "ticks": 71232,
          "time": 55.65,
          "velocity": 1
        },
        {
          "duration": 0.14531250000000284,
          "durationTicks": 186,
          "midi": 65,
          "name": "F4",
          "ticks": 71600,
          "time": 55.9375,
          "velocity": 1
        },
        {
          "duration": 0.15937499999999716,
          "durationTicks": 204,
          "midi": 65,
          "name": "F4",
          "ticks": 71952,
          "time": 56.2125,
          "velocity": 1
        },
        {
          "duration": 0.20625000000000426,
          "durationTicks": 264,
          "midi": 60,
          "name": "C4",
          "ticks": 72156,
          "time": 56.371874999999996,
          "velocity": 1
        },
        {
          "duration": 0.1796875,
          "durationTicks": 230,
          "midi": 65,
          "name": "F4",
          "ticks": 72528,
          "time": 56.6625,
          "velocity": 1
        },
        {
          "duration": 0.3453124999999986,
          "durationTicks": 442,
          "midi": 62,
          "name": "D4",
          "ticks": 72870,
          "time": 56.9296875,
          "velocity": 1
        },
        {
          "duration": 0.07187499999999147,
          "durationTicks": 92,
          "midi": 62,
          "name": "D4",
          "ticks": 74120,
          "time": 57.90625,
          "velocity": 1
        },
        {
          "duration": 0.07187499999999147,
          "durationTicks": 92,
          "midi": 70,
          "name": "A#4",
          "ticks": 74120,
          "time": 57.90625,
          "velocity": 1
        },
        {
          "duration": 0.17812500000000142,
          "durationTicks": 228,
          "midi": 62,
          "name": "D4",
          "ticks": 74318,
          "time": 58.0609375,
          "velocity": 1
        },
        {
          "duration": 0.17812500000000142,
          "durationTicks": 228,
          "midi": 70,
          "name": "A#4",
          "ticks": 74318,
          "time": 58.0609375,
          "velocity": 1
        },
        {
          "duration": 0.1640625,
          "durationTicks": 210,
          "midi": 62,
          "name": "D4",
          "ticks": 74702,
          "time": 58.3609375,
          "velocity": 1
        },
        {
          "duration": 0.1640625,
          "durationTicks": 210,
          "midi": 70,
          "name": "A#4",
          "ticks": 74702,
          "time": 58.3609375,
          "velocity": 1
        },
        {
          "duration": 0.1249999999999929,
          "durationTicks": 160,
          "midi": 62,
          "name": "D4",
          "ticks": 75056,
          "time": 58.6375,
          "velocity": 1
        },
        {
          "duration": 0.1249999999999929,
          "durationTicks": 160,
          "midi": 70,
          "name": "A#4",
          "ticks": 75056,
          "time": 58.6375,
          "velocity": 1
        },
        {
          "duration": 0.1875,
          "durationTicks": 240,
          "midi": 60,
          "name": "C4",
          "ticks": 75264,
          "time": 58.8,
          "velocity": 1
        },
        {
          "duration": 0.1875,
          "durationTicks": 240,
          "midi": 69,
          "name": "A4",
          "ticks": 75264,
          "time": 58.8,
          "velocity": 1
        },
        {
          "duration": 0.18437499999999574,
          "durationTicks": 236,
          "midi": 63,
          "name": "D#4",
          "ticks": 75638,
          "time": 59.0921875,
          "velocity": 1
        },
        {
          "duration": 0.18437499999999574,
          "durationTicks": 236,
          "midi": 72,
          "name": "C5",
          "ticks": 75638,
          "time": 59.0921875,
          "velocity": 1
        },
        {
          "duration": 0.27031249999999574,
          "durationTicks": 346,
          "midi": 62,
          "name": "D4",
          "ticks": 76020,
          "time": 59.390625,
          "velocity": 1
        },
        {
          "duration": 0.27031249999999574,
          "durationTicks": 346,
          "midi": 70,
          "name": "A#4",
          "ticks": 76020,
          "time": 59.390625,
          "velocity": 1
        },
        {
          "duration": 0.22031249999999858,
          "durationTicks": 282,
          "midi": 58,
          "name": "A#3",
          "ticks": 76422,
          "time": 59.7046875,
          "velocity": 1
        },
        {
          "duration": 0.22031249999999858,
          "durationTicks": 282,
          "midi": 65,
          "name": "F4",
          "ticks": 76422,
          "time": 59.7046875,
          "velocity": 1
        },
        {
          "duration": 0.1015625,
          "durationTicks": 130,
          "midi": 65,
          "name": "F4",
          "ticks": 77174,
          "time": 60.2921875,
          "velocity": 1
        },
        {
          "duration": 0.12656249999999858,
          "durationTicks": 162,
          "midi": 65,
          "name": "F4",
          "ticks": 77416,
          "time": 60.481249999999996,
          "velocity": 1
        },
        {
          "duration": 0.13125000000000142,
          "durationTicks": 168,
          "midi": 65,
          "name": "F4",
          "ticks": 77768,
          "time": 60.75625,
          "velocity": 1
        },
        {
          "duration": 0.11250000000000426,
          "durationTicks": 144,
          "midi": 65,
          "name": "F4",
          "ticks": 78104,
          "time": 61.01875,
          "velocity": 1
        },
        {
          "duration": 0.17031250000000853,
          "durationTicks": 218,
          "midi": 60,
          "name": "C4",
          "ticks": 78288,
          "time": 61.162499999999994,
          "velocity": 1
        },
        {
          "duration": 0.18437500000000284,
          "durationTicks": 236,
          "midi": 60,
          "name": "C4",
          "ticks": 78670,
          "time": 61.46093749999999,
          "velocity": 1
        },
        {
          "duration": 0.3453125000000057,
          "durationTicks": 442,
          "midi": 62,
          "name": "D4",
          "ticks": 79048,
          "time": 61.756249999999994,
          "velocity": 1
        },
        {
          "duration": 0.13749999999998863,
          "durationTicks": 176,
          "midi": 67,
          "name": "G4",
          "ticks": 80216,
          "time": 62.66875,
          "velocity": 1
        },
        {
          "duration": 0.16875000000000284,
          "durationTicks": 216,
          "midi": 70,
          "name": "A#4",
          "ticks": 80432,
          "time": 62.8375,
          "velocity": 1
        },
        {
          "duration": 0.171875,
          "durationTicks": 220,
          "midi": 70,
          "name": "A#4",
          "ticks": 80814,
          "time": 63.1359375,
          "velocity": 1
        },
        {
          "duration": 0.11874999999999858,
          "durationTicks": 152,
          "midi": 67,
          "name": "G4",
          "ticks": 81184,
          "time": 63.425,
          "velocity": 1
        },
        {
          "duration": 0.2109375,
          "durationTicks": 270,
          "midi": 65,
          "name": "F4",
          "ticks": 81370,
          "time": 63.57031249999999,
          "velocity": 1
        },
        {
          "duration": 0.18593750000000142,
          "durationTicks": 238,
          "midi": 70,
          "name": "A#4",
          "ticks": 81732,
          "time": 63.853125,
          "velocity": 1
        },
        {
          "duration": 0.25468750000000284,
          "durationTicks": 326,
          "midi": 65,
          "name": "F4",
          "ticks": 82128,
          "time": 64.1625,
          "velocity": 1
        },
        {
          "duration": 0.20781250000000284,
          "durationTicks": 266,
          "midi": 70,
          "name": "A#4",
          "ticks": 82516,
          "time": 64.46562499999999,
          "velocity": 1
        },
        {
          "duration": 0.10781250000000853,
          "durationTicks": 138,
          "midi": 63,
          "name": "D#4",
          "ticks": 83288,
          "time": 65.06875,
          "velocity": 1
        },
        {
          "duration": 0.10781250000000853,
          "durationTicks": 138,
          "midi": 72,
          "name": "C5",
          "ticks": 83288,
          "time": 65.06875,
          "velocity": 1
        },
        {
          "duration": 0.15156249999998295,
          "durationTicks": 194,
          "midi": 63,
          "name": "D#4",
          "ticks": 83522,
          "time": 65.2515625,
          "velocity": 1
        },
        {
          "duration": 0.15156249999998295,
          "durationTicks": 194,
          "midi": 72,
          "name": "C5",
          "ticks": 83522,
          "time": 65.2515625,
          "velocity": 1
        },
        {
          "duration": 0.15937499999999716,
          "durationTicks": 204,
          "midi": 63,
          "name": "D#4",
          "ticks": 83878,
          "time": 65.5296875,
          "velocity": 1
        },
        {
          "duration": 0.15937499999999716,
          "durationTicks": 204,
          "midi": 72,
          "name": "C5",
          "ticks": 83878,
          "time": 65.5296875,
          "velocity": 1
        },
        {
          "duration": 0.07343749999999716,
          "durationTicks": 94,
          "midi": 62,
          "name": "D4",
          "ticks": 84214,
          "time": 65.7921875,
          "velocity": 1
        },
        {
          "duration": 0.07343749999999716,
          "durationTicks": 94,
          "midi": 70,
          "name": "A#4",
          "ticks": 84214,
          "time": 65.7921875,
          "velocity": 1
        },
        {
          "duration": 0.046875,
          "durationTicks": 60,
          "midi": 63,
          "name": "D#4",
          "ticks": 84400,
          "time": 65.9375,
          "velocity": 1
        },
        {
          "duration": 0.046875,
          "durationTicks": 60,
          "midi": 72,
          "name": "C5",
          "ticks": 84400,
          "time": 65.9375,
          "velocity": 1
        },
        {
          "duration": 0.18437500000000284,
          "durationTicks": 236,
          "midi": 65,
          "name": "F4",
          "ticks": 84460,
          "time": 65.984375,
          "velocity": 1
        },
        {
          "duration": 0.18437500000000284,
          "durationTicks": 236,
          "midi": 74,
          "name": "D5",
          "ticks": 84460,
          "time": 65.984375,
          "velocity": 1
        },
        {
          "duration": 0.18124999999999147,
          "durationTicks": 232,
          "midi": 63,
          "name": "D#4",
          "ticks": 84812,
          "time": 66.259375,
          "velocity": 1
        },
        {
          "duration": 0.18124999999999147,
          "durationTicks": 232,
          "midi": 72,
          "name": "C5",
          "ticks": 84812,
          "time": 66.259375,
          "velocity": 1
        },
        {
          "duration": 0.21406249999999716,
          "durationTicks": 274,
          "midi": 62,
          "name": "D4",
          "ticks": 85208,
          "time": 66.56875,
          "velocity": 1
        },
        {
          "duration": 0.21406249999999716,
          "durationTicks": 274,
          "midi": 70,
          "name": "A#4",
          "ticks": 85208,
          "time": 66.56875,
          "velocity": 1
        },
        {
          "duration": 0.12031249999999716,
          "durationTicks": 154,
          "midi": 67,
          "name": "G4",
          "ticks": 86380,
          "time": 67.484375,
          "velocity": 1
        },
        {
          "duration": 0.1640625,
          "durationTicks": 210,
          "midi": 70,
          "name": "A#4",
          "ticks": 86568,
          "time": 67.63125,
          "velocity": 1
        },
        {
          "duration": 0.19843749999999716,
          "durationTicks": 254,
          "midi": 70,
          "name": "A#4",
          "ticks": 86946,
          "time": 67.9265625,
          "velocity": 1
        },
        {
          "duration": 0.13593749999999716,
          "durationTicks": 174,
          "midi": 67,
          "name": "G4",
          "ticks": 87314,
          "time": 68.2140625,
          "velocity": 1
        },
        {
          "duration": 0.25468750000000284,
          "durationTicks": 326,
          "midi": 65,
          "name": "F4",
          "ticks": 87510,
          "time": 68.3671875,
          "velocity": 1
        },
        {
          "duration": 0.22968749999999716,
          "durationTicks": 294,
          "midi": 70,
          "name": "A#4",
          "ticks": 87906,
          "time": 68.6765625,
          "velocity": 1
        },
        {
          "duration": 0.23281249999999432,
          "durationTicks": 298,
          "midi": 65,
          "name": "F4",
          "ticks": 88290,
          "time": 68.9765625,
          "velocity": 1
        },
        {
          "duration": 0.20624999999999716,
          "durationTicks": 264,
          "midi": 70,
          "name": "A#4",
          "ticks": 88682,
          "time": 69.2828125,
          "velocity": 1
        },
        {
          "duration": 0.22500000000000853,
          "durationTicks": 288,
          "midi": 74,
          "name": "D5",
          "ticks": 91762,
          "time": 71.68906249999999,
          "velocity": 1
        },
        {
          "duration": 0.19843749999999716,
          "durationTicks": 254,
          "midi": 70,
          "name": "A#4",
          "ticks": 92168,
          "time": 72.00625,
          "velocity": 1
        },
        {
          "duration": 0.17656250000000284,
          "durationTicks": 226,
          "midi": 74,
          "name": "D5",
          "ticks": 92904,
          "time": 72.58125,
          "velocity": 1
        },
        {
          "duration": 0.17812499999999432,
          "durationTicks": 228,
          "midi": 72,
          "name": "C5",
          "ticks": 93130,
          "time": 72.7578125,
          "velocity": 1
        },
        {
          "duration": 0.11406250000000284,
          "durationTicks": 146,
          "midi": 70,
          "name": "A#4",
          "ticks": 93474,
          "time": 73.0265625,
          "velocity": 1
        },
        {
          "duration": 0.5250000000000057,
          "durationTicks": 672,
          "midi": 67,
          "name": "G4",
          "ticks": 93698,
          "time": 73.2015625,
          "velocity": 1
        },
        {
          "duration": 0.15781250000000568,
          "durationTicks": 202,
          "midi": 74,
          "name": "D5",
          "ticks": 95802,
          "time": 74.84531249999999,
          "velocity": 1
        },
        {
          "duration": 0.18906250000000568,
          "durationTicks": 242,
          "midi": 72,
          "name": "C5",
          "ticks": 96172,
          "time": 75.13437499999999,
          "velocity": 1
        },
        {
          "duration": 0.07656250000000853,
          "durationTicks": 98,
          "midi": 70,
          "name": "A#4",
          "ticks": 96528,
          "time": 75.4125,
          "velocity": 1
        },
        {
          "duration": 0.5687500000000085,
          "durationTicks": 728,
          "midi": 72,
          "name": "C5",
          "ticks": 96744,
          "time": 75.58125,
          "velocity": 1
        },
        {
          "duration": 0.1875,
          "durationTicks": 240,
          "midi": 74,
          "name": "D5",
          "ticks": 98874,
          "time": 77.2453125,
          "velocity": 1
        },
        {
          "duration": 0.19843750000001137,
          "durationTicks": 254,
          "midi": 72,
          "name": "C5",
          "ticks": 99248,
          "time": 77.5375,
          "velocity": 1
        },
        {
          "duration": 0.14531250000000284,
          "durationTicks": 186,
          "midi": 70,
          "name": "A#4",
          "ticks": 99612,
          "time": 77.82187499999999,
          "velocity": 1
        },
        {
          "duration": 0.23124999999998863,
          "durationTicks": 296,
          "midi": 67,
          "name": "G4",
          "ticks": 99816,
          "time": 77.98125,
          "velocity": 1
        },
        {
          "duration": 0.10312499999999147,
          "durationTicks": 132,
          "midi": 63,
          "name": "D#4",
          "ticks": 100176,
          "time": 78.2625,
          "velocity": 1
        },
        {
          "duration": 0.21250000000000568,
          "durationTicks": 272,
          "midi": 74,
          "name": "D5",
          "ticks": 100394,
          "time": 78.4328125,
          "velocity": 1
        },
        {
          "duration": 0.18125000000000568,
          "durationTicks": 232,
          "midi": 72,
          "name": "C5",
          "ticks": 100776,
          "time": 78.73125,
          "velocity": 1
        },
        {
          "duration": 0.1250000000000142,
          "durationTicks": 160,
          "midi": 70,
          "name": "A#4",
          "ticks": 101112,
          "time": 78.99374999999999,
          "velocity": 1
        },
        {
          "duration": 0.23281250000000853,
          "durationTicks": 298,
          "midi": 67,
          "name": "G4",
          "ticks": 101330,
          "time": 79.16406249999999,
          "velocity": 1
        },
        {
          "duration": 0.15937499999999716,
          "durationTicks": 204,
          "midi": 65,
          "name": "F4",
          "ticks": 101708,
          "time": 79.459375,
          "velocity": 1
        },
        {
          "duration": 0.17343749999999147,
          "durationTicks": 222,
          "midi": 74,
          "name": "D5",
          "ticks": 101954,
          "time": 79.6515625,
          "velocity": 1
        },
        {
          "duration": 0.19843750000001137,
          "durationTicks": 254,
          "midi": 72,
          "name": "C5",
          "ticks": 102314,
          "time": 79.9328125,
          "velocity": 1
        },
        {
          "duration": 0.10624999999998863,
          "durationTicks": 136,
          "midi": 70,
          "name": "A#4",
          "ticks": 102658,
          "time": 80.20156250000001,
          "velocity": 1
        },
        {
          "duration": 0.6156249999999943,
          "durationTicks": 788,
          "midi": 74,
          "name": "D5",
          "ticks": 102864,
          "time": 80.3625,
          "velocity": 1
        },
        {
          "duration": 0.17500000000001137,
          "durationTicks": 224,
          "midi": 74,
          "name": "D5",
          "ticks": 105056,
          "time": 82.07499999999999,
          "velocity": 1
        },
        {
          "duration": 0.20468750000000568,
          "durationTicks": 262,
          "midi": 72,
          "name": "C5",
          "ticks": 105428,
          "time": 82.365625,
          "velocity": 1
        },
        {
          "duration": 0.11562500000000853,
          "durationTicks": 148,
          "midi": 70,
          "name": "A#4",
          "ticks": 105758,
          "time": 82.6234375,
          "velocity": 1
        },
        {
          "duration": 0.20937499999999432,
          "durationTicks": 268,
          "midi": 67,
          "name": "G4",
          "ticks": 105976,
          "time": 82.79375,
          "velocity": 1
        },
        {
          "duration": 0.18281249999999716,
          "durationTicks": 234,
          "midi": 70,
          "name": "A#4",
          "ticks": 106338,
          "time": 83.0765625,
          "velocity": 1
        },
        {
          "duration": 0.2968750000000142,
          "durationTicks": 380,
          "midi": 70,
          "name": "A#4",
          "ticks": 106736,
          "time": 83.38749999999999,
          "velocity": 1
        },
        {
          "duration": 0.1156249999999801,
          "durationTicks": 148,
          "midi": 67,
          "name": "G4",
          "ticks": 107128,
          "time": 83.69375000000001,
          "velocity": 1
        },
        {
          "duration": 0.25468750000000284,
          "durationTicks": 326,
          "midi": 72,
          "name": "C5",
          "ticks": 107324,
          "time": 83.846875,
          "velocity": 1
        },
        {
          "duration": 0.19999999999998863,
          "durationTicks": 256,
          "midi": 72,
          "name": "C5",
          "ticks": 108106,
          "time": 84.4578125,
          "velocity": 1
        },
        {
          "duration": 0.16093750000000284,
          "durationTicks": 206,
          "midi": 70,
          "name": "A#4",
          "ticks": 108498,
          "time": 84.7640625,
          "velocity": 1
        },
        {
          "duration": 0.09062500000001705,
          "durationTicks": 116,
          "midi": 72,
          "name": "C5",
          "ticks": 108836,
          "time": 85.02812499999999,
          "velocity": 1
        },
        {
          "duration": 0.05468750000001421,
          "durationTicks": 70,
          "midi": 72,
          "name": "C5",
          "ticks": 108980,
          "time": 85.14062499999999,
          "velocity": 1
        },
        {
          "duration": 0.17343749999999147,
          "durationTicks": 222,
          "midi": 74,
          "name": "D5",
          "ticks": 109050,
          "time": 85.1953125,
          "velocity": 1
        },
        {
          "duration": 0.12968749999998863,
          "durationTicks": 166,
          "midi": 74,
          "name": "D5",
          "ticks": 109420,
          "time": 85.484375,
          "velocity": 1
        },
        {
          "duration": 0.17499999999998295,
          "durationTicks": 224,
          "midi": 72,
          "name": "C5",
          "ticks": 109648,
          "time": 85.66250000000001,
          "velocity": 1
        },
        {
          "duration": 0.13750000000000284,
          "durationTicks": 176,
          "midi": 72,
          "name": "C5",
          "ticks": 110020,
          "time": 85.953125,
          "velocity": 1
        },
        {
          "duration": 0.24843750000000853,
          "durationTicks": 318,
          "midi": 70,
          "name": "A#4",
          "ticks": 110208,
          "time": 86.1,
          "velocity": 1
        },
        {
          "duration": 0.19843749999999716,
          "durationTicks": 254,
          "midi": 74,
          "name": "D5",
          "ticks": 111138,
          "time": 86.8265625,
          "velocity": 1
        },
        {
          "duration": 0.19375000000002274,
          "durationTicks": 248,
          "midi": 72,
          "name": "C5",
          "ticks": 111530,
          "time": 87.13281249999999,
          "velocity": 1
        },
        {
          "duration": 0.13749999999998863,
          "durationTicks": 176,
          "midi": 70,
          "name": "A#4",
          "ticks": 111906,
          "time": 87.4265625,
          "velocity": 1
        },
        {
          "duration": 0.25468750000000284,
          "durationTicks": 326,
          "midi": 67,
          "name": "G4",
          "ticks": 112114,
          "time": 87.5890625,
          "velocity": 1
        },
        {
          "duration": 0.10312500000000568,
          "durationTicks": 132,
          "midi": 63,
          "name": "D#4",
          "ticks": 112524,
          "time": 87.909375,
          "velocity": 1
        },
        {
          "duration": 0.21562500000000284,
          "durationTicks": 276,
          "midi": 74,
          "name": "D5",
          "ticks": 112730,
          "time": 88.07031249999999,
          "velocity": 1
        },
        {
          "duration": 0.19375000000000853,
          "durationTicks": 248,
          "midi": 72,
          "name": "C5",
          "ticks": 113108,
          "time": 88.365625,
          "velocity": 1
        },
        {
          "duration": 0.12968750000001705,
          "durationTicks": 166,
          "midi": 70,
          "name": "A#4",
          "ticks": 113412,
          "time": 88.60312499999999,
          "velocity": 1
        },
        {
          "duration": 0.23281249999999432,
          "durationTicks": 298,
          "midi": 67,
          "name": "G4",
          "ticks": 113650,
          "time": 88.7890625,
          "velocity": 1
        },
        {
          "duration": 0.14999999999999147,
          "durationTicks": 192,
          "midi": 65,
          "name": "F4",
          "ticks": 114030,
          "time": 89.0859375,
          "velocity": 1
        },
        {
          "duration": 0.19374999999999432,
          "durationTicks": 248,
          "midi": 74,
          "name": "D5",
          "ticks": 114262,
          "time": 89.2671875,
          "velocity": 1
        },
        {
          "duration": 0.19374999999999432,
          "durationTicks": 248,
          "midi": 72,
          "name": "C5",
          "ticks": 114624,
          "time": 89.55,
          "velocity": 1
        },
        {
          "duration": 0.10156249999998579,
          "durationTicks": 130,
          "midi": 70,
          "name": "A#4",
          "ticks": 114970,
          "time": 89.8203125,
          "velocity": 1
        },
        {
          "duration": 0.6374999999999886,
          "durationTicks": 816,
          "midi": 70,
          "name": "A#4",
          "ticks": 115184,
          "time": 89.9875,
          "velocity": 1
        },
        {
          "duration": 0.18124999999999147,
          "durationTicks": 232,
          "midi": 74,
          "name": "D5",
          "ticks": 117316,
          "time": 91.653125,
          "velocity": 1
        },
        {
          "duration": 0.1953125,
          "durationTicks": 250,
          "midi": 72,
          "name": "C5",
          "ticks": 117696,
          "time": 91.95,
          "velocity": 1
        },
        {
          "duration": 0.09843750000000284,
          "durationTicks": 126,
          "midi": 70,
          "name": "A#4",
          "ticks": 118024,
          "time": 92.20625,
          "velocity": 1
        },
        {
          "duration": 0.6375000000000028,
          "durationTicks": 816,
          "midi": 72,
          "name": "C5",
          "ticks": 118248,
          "time": 92.38125,
          "velocity": 1
        },
        {
          "duration": 0.20156250000000853,
          "durationTicks": 258,
          "midi": 74,
          "name": "D5",
          "ticks": 120372,
          "time": 94.04062499999999,
          "velocity": 1
        },
        {
          "duration": 0.20468750000000568,
          "durationTicks": 262,
          "midi": 72,
          "name": "C5",
          "ticks": 120764,
          "time": 94.346875,
          "velocity": 1
        },
        {
          "duration": 0.13437499999999147,
          "durationTicks": 172,
          "midi": 70,
          "name": "A#4",
          "ticks": 121126,
          "time": 94.6296875,
          "velocity": 1
        },
        {
          "duration": 0.25468750000001705,
          "durationTicks": 326,
          "midi": 67,
          "name": "G4",
          "ticks": 121352,
          "time": 94.80624999999999,
          "velocity": 1
        },
        {
          "duration": 0.11249999999999716,
          "durationTicks": 144,
          "midi": 63,
          "name": "D#4",
          "ticks": 121746,
          "time": 95.1140625,
          "velocity": 1
        },
        {
          "duration": 0.20624999999999716,
          "durationTicks": 264,
          "midi": 74,
          "name": "D5",
          "ticks": 121964,
          "time": 95.284375,
          "velocity": 1
        },
        {
          "duration": 0.18281249999999716,
          "durationTicks": 234,
          "midi": 72,
          "name": "C5",
          "ticks": 122328,
          "time": 95.56875,
          "velocity": 1
        },
        {
          "duration": 0.17031249999999432,
          "durationTicks": 218,
          "midi": 70,
          "name": "A#4",
          "ticks": 122656,
          "time": 95.825,
          "velocity": 1
        },
        {
          "duration": 0.23281250000000853,
          "durationTicks": 298,
          "midi": 67,
          "name": "G4",
          "ticks": 122874,
          "time": 95.9953125,
          "velocity": 1
        },
        {
          "duration": 0.16562499999999147,
          "durationTicks": 212,
          "midi": 65,
          "name": "F4",
          "ticks": 123240,
          "time": 96.28125,
          "velocity": 1
        },
        {
          "duration": 0.21250000000000568,
          "durationTicks": 272,
          "midi": 74,
          "name": "D5",
          "ticks": 123488,
          "time": 96.475,
          "velocity": 1
        },
        {
          "duration": 0.19843750000001137,
          "durationTicks": 254,
          "midi": 72,
          "name": "C5",
          "ticks": 123860,
          "time": 96.76562499999999,
          "velocity": 1
        },
        {
          "duration": 0.11562499999999432,
          "durationTicks": 148,
          "midi": 70,
          "name": "A#4",
          "ticks": 124186,
          "time": 97.0203125,
          "velocity": 1
        },
        {
          "duration": 0.6375000000000028,
          "durationTicks": 816,
          "midi": 74,
          "name": "D5",
          "ticks": 124398,
          "time": 97.1859375,
          "velocity": 1
        },
        {
          "duration": 0.20937500000000853,
          "durationTicks": 268,
          "midi": 74,
          "name": "D5",
          "ticks": 126572,
          "time": 98.88437499999999,
          "velocity": 1
        },
        {
          "duration": 0.20468750000000568,
          "durationTicks": 262,
          "midi": 72,
          "name": "C5",
          "ticks": 126944,
          "time": 99.175,
          "velocity": 1
        },
        {
          "duration": 0.11249999999999716,
          "durationTicks": 144,
          "midi": 70,
          "name": "A#4",
          "ticks": 127266,
          "time": 99.4265625,
          "velocity": 1
        },
        {
          "duration": 0.2109375,
          "durationTicks": 270,
          "midi": 67,
          "name": "G4",
          "ticks": 127474,
          "time": 99.5890625,
          "velocity": 1
        },
        {
          "duration": 0.19374999999999432,
          "durationTicks": 248,
          "midi": 70,
          "name": "A#4",
          "ticks": 127860,
          "time": 99.890625,
          "velocity": 1
        },
        {
          "duration": 0.2890625,
          "durationTicks": 370,
          "midi": 70,
          "name": "A#4",
          "ticks": 128252,
          "time": 100.19687499999999,
          "velocity": 1
        },
        {
          "duration": 0.11875000000000568,
          "durationTicks": 152,
          "midi": 67,
          "name": "G4",
          "ticks": 128622,
          "time": 100.48593749999999,
          "velocity": 1
        },
        {
          "duration": 0.24531249999999716,
          "durationTicks": 314,
          "midi": 72,
          "name": "C5",
          "ticks": 128832,
          "time": 100.64999999999999,
          "velocity": 1
        },
        {
          "duration": 0.22499999999999432,
          "durationTicks": 288,
          "midi": 72,
          "name": "C5",
          "ticks": 129594,
          "time": 101.2453125,
          "velocity": 1
        },
        {
          "duration": 0.15781250000000568,
          "durationTicks": 202,
          "midi": 70,
          "name": "A#4",
          "ticks": 129986,
          "time": 101.55156249999999,
          "velocity": 1
        },
        {
          "duration": 0.09375,
          "durationTicks": 120,
          "midi": 72,
          "name": "C5",
          "ticks": 130326,
          "time": 101.8171875,
          "velocity": 1
        },
        {
          "duration": 0.15156250000001137,
          "durationTicks": 194,
          "midi": 74,
          "name": "D5",
          "ticks": 130544,
          "time": 101.9875,
          "velocity": 1
        },
        {
          "duration": 0.13124999999999432,
          "durationTicks": 168,
          "midi": 74,
          "name": "D5",
          "ticks": 130904,
          "time": 102.26875,
          "velocity": 1
        },
        {
          "duration": 0.17499999999999716,
          "durationTicks": 224,
          "midi": 72,
          "name": "C5",
          "ticks": 131130,
          "time": 102.4453125,
          "velocity": 1
        },
        {
          "duration": 0.15312500000000284,
          "durationTicks": 196,
          "midi": 72,
          "name": "C5",
          "ticks": 131516,
          "time": 102.74687499999999,
          "velocity": 1
        },
        {
          "duration": 0.2578125,
          "durationTicks": 330,
          "midi": 70,
          "name": "A#4",
          "ticks": 131712,
          "time": 102.89999999999999,
          "velocity": 1
        },
        {
          "duration": 0.18593750000000853,
          "durationTicks": 238,
          "midi": 74,
          "name": "D5",
          "ticks": 132720,
          "time": 103.6875,
          "velocity": 1
        },
        {
          "duration": 0.18437499999998863,
          "durationTicks": 236,
          "midi": 72,
          "name": "C5",
          "ticks": 133080,
          "time": 103.96875,
          "velocity": 1
        },
        {
          "duration": 0.11562499999999432,
          "durationTicks": 148,
          "midi": 70,
          "name": "A#4",
          "ticks": 133414,
          "time": 104.2296875,
          "velocity": 1
        },
        {
          "duration": 0.23281249999999432,
          "durationTicks": 298,
          "midi": 67,
          "name": "G4",
          "ticks": 133634,
          "time": 104.4015625,
          "velocity": 1
        },
        {
          "duration": 0.07500000000000284,
          "durationTicks": 96,
          "midi": 63,
          "name": "D#4",
          "ticks": 134034,
          "time": 104.7140625,
          "velocity": 1
        },
        {
          "duration": 0.2031250000000142,
          "durationTicks": 260,
          "midi": 74,
          "name": "D5",
          "ticks": 134222,
          "time": 104.86093749999999,
          "velocity": 1
        },
        {
          "duration": 0.20624999999999716,
          "durationTicks": 264,
          "midi": 72,
          "name": "C5",
          "ticks": 134602,
          "time": 105.1578125,
          "velocity": 1
        },
        {
          "duration": 0.11874999999999147,
          "durationTicks": 152,
          "midi": 70,
          "name": "A#4",
          "ticks": 134946,
          "time": 105.4265625,
          "velocity": 1
        },
        {
          "duration": 0.23281250000000853,
          "durationTicks": 298,
          "midi": 67,
          "name": "G4",
          "ticks": 135162,
          "time": 105.59531249999999,
          "velocity": 1
        },
        {
          "duration": 0.13750000000001705,
          "durationTicks": 176,
          "midi": 65,
          "name": "F4",
          "ticks": 135530,
          "time": 105.88281249999999,
          "velocity": 1
        },
        {
          "duration": 0.20624999999999716,
          "durationTicks": 264,
          "midi": 74,
          "name": "D5",
          "ticks": 135750,
          "time": 106.0546875,
          "velocity": 1
        },
        {
          "duration": 0.16562499999999147,
          "durationTicks": 212,
          "midi": 72,
          "name": "C5",
          "ticks": 136120,
          "time": 106.34375,
          "velocity": 1
        },
        {
          "duration": 0.10468750000001137,
          "durationTicks": 134,
          "midi": 70,
          "name": "A#4",
          "ticks": 136448,
          "time": 106.6,
          "velocity": 1
        },
        {
          "duration": 0.6375000000000028,
          "durationTicks": 816,
          "midi": 70,
          "name": "A#4",
          "ticks": 136696,
          "time": 106.79375,
          "velocity": 1
        },
        {
          "duration": 0.13906250000000853,
          "durationTicks": 178,
          "midi": 65,
          "name": "F4",
          "ticks": 139392,
          "time": 108.89999999999999,
          "velocity": 1
        },
        {
          "duration": 0.17656250000000284,
          "durationTicks": 226,
          "midi": 69,
          "name": "A4",
          "ticks": 139608,
          "time": 109.06875,
          "velocity": 1
        },
        {
          "duration": 0.14531250000000284,
          "durationTicks": 186,
          "midi": 69,
          "name": "A4",
          "ticks": 139998,
          "time": 109.3734375,
          "velocity": 1
        },
        {
          "duration": 0.09218750000000853,
          "durationTicks": 118,
          "midi": 69,
          "name": "A4",
          "ticks": 140342,
          "time": 109.64218749999999,
          "velocity": 1
        },
        {
          "duration": 0.2187500000000142,
          "durationTicks": 280,
          "midi": 69,
          "name": "A4",
          "ticks": 140570,
          "time": 109.82031249999999,
          "velocity": 1
        },
        {
          "duration": 0.08906249999999716,
          "durationTicks": 114,
          "midi": 65,
          "name": "F4",
          "ticks": 140936,
          "time": 110.10624999999999,
          "velocity": 1
        },
        {
          "duration": 0.15625,
          "durationTicks": 200,
          "midi": 65,
          "name": "F4",
          "ticks": 141160,
          "time": 110.28125,
          "velocity": 1
        },
        {
          "duration": 0.140625,
          "durationTicks": 180,
          "midi": 65,
          "name": "F4",
          "ticks": 141518,
          "time": 110.5609375,
          "velocity": 1
        },
        {
          "duration": 0.09531249999999147,
          "durationTicks": 122,
          "midi": 65,
          "name": "F4",
          "ticks": 141864,
          "time": 110.83125,
          "velocity": 1
        },
        {
          "duration": 0.16093749999998863,
          "durationTicks": 206,
          "midi": 65,
          "name": "F4",
          "ticks": 142066,
          "time": 110.9890625,
          "velocity": 1
        },
        {
          "duration": 0.12656249999999147,
          "durationTicks": 162,
          "midi": 65,
          "name": "F4",
          "ticks": 142470,
          "time": 111.3046875,
          "velocity": 1
        },
        {
          "duration": 0.17656250000000284,
          "durationTicks": 226,
          "midi": 69,
          "name": "A4",
          "ticks": 142664,
          "time": 111.45625,
          "velocity": 1
        },
        {
          "duration": 0.14374999999999716,
          "durationTicks": 184,
          "midi": 69,
          "name": "A4",
          "ticks": 143050,
          "time": 111.7578125,
          "velocity": 1
        },
        {
          "duration": 0.09218750000000853,
          "durationTicks": 118,
          "midi": 69,
          "name": "A4",
          "ticks": 143396,
          "time": 112.02812499999999,
          "velocity": 1
        },
        {
          "duration": 0.20624999999999716,
          "durationTicks": 264,
          "midi": 69,
          "name": "A4",
          "ticks": 143608,
          "time": 112.19375000000001,
          "velocity": 1
        },
        {
          "duration": 0.08906249999999716,
          "durationTicks": 114,
          "midi": 65,
          "name": "F4",
          "ticks": 143968,
          "time": 112.47500000000001,
          "velocity": 1
        },
        {
          "duration": 0.15156249999999716,
          "durationTicks": 194,
          "midi": 65,
          "name": "F4",
          "ticks": 144198,
          "time": 112.6546875,
          "velocity": 1
        },
        {
          "duration": 0.13437500000000568,
          "durationTicks": 172,
          "midi": 65,
          "name": "F4",
          "ticks": 144560,
          "time": 112.93749999999999,
          "velocity": 1
        },
        {
          "duration": 0.08906249999999716,
          "durationTicks": 114,
          "midi": 65,
          "name": "F4",
          "ticks": 144888,
          "time": 113.19375,
          "velocity": 1
        },
        {
          "duration": 0.16093750000001705,
          "durationTicks": 206,
          "midi": 65,
          "name": "F4",
          "ticks": 145106,
          "time": 113.36406249999999,
          "velocity": 1
        },
        {
          "duration": 0.10156250000001421,
          "durationTicks": 130,
          "midi": 65,
          "name": "F4",
          "ticks": 145512,
          "time": 113.68124999999999,
          "velocity": 1
        },
        {
          "duration": 0.17343750000000568,
          "durationTicks": 222,
          "midi": 67,
          "name": "G4",
          "ticks": 145706,
          "time": 113.83281249999999,
          "velocity": 1
        },
        {
          "duration": 0.1484375000000142,
          "durationTicks": 190,
          "midi": 67,
          "name": "G4",
          "ticks": 146096,
          "time": 114.13749999999999,
          "velocity": 1
        },
        {
          "duration": 0.11093749999997726,
          "durationTicks": 142,
          "midi": 67,
          "name": "G4",
          "ticks": 146458,
          "time": 114.42031250000001,
          "velocity": 1
        },
        {
          "duration": 0.234375,
          "durationTicks": 300,
          "midi": 70,
          "name": "A#4",
          "ticks": 146660,
          "time": 114.57812499999999,
          "velocity": 1
        },
        {
          "duration": 0.14687499999999432,
          "durationTicks": 188,
          "midi": 67,
          "name": "G4",
          "ticks": 147066,
          "time": 114.8953125,
          "velocity": 1
        },
        {
          "duration": 0.16874999999998863,
          "durationTicks": 216,
          "midi": 65,
          "name": "F4",
          "ticks": 147298,
          "time": 115.07656250000001,
          "velocity": 1
        },
        {
          "duration": 0.15468750000000853,
          "durationTicks": 198,
          "midi": 65,
          "name": "F4",
          "ticks": 147658,
          "time": 115.3578125,
          "velocity": 1
        },
        {
          "duration": 0.11874999999999147,
          "durationTicks": 152,
          "midi": 65,
          "name": "F4",
          "ticks": 148000,
          "time": 115.625,
          "velocity": 1
        },
        {
          "duration": 0.20000000000000284,
          "durationTicks": 256,
          "midi": 70,
          "name": "A#4",
          "ticks": 148194,
          "time": 115.7765625,
          "velocity": 1
        },
        {
          "duration": 0.14374999999998295,
          "durationTicks": 184,
          "midi": 70,
          "name": "A#4",
          "ticks": 148786,
          "time": 116.2390625,
          "velocity": 1
        },
        {
          "duration": 0.16875000000000284,
          "durationTicks": 216,
          "midi": 69,
          "name": "A4",
          "ticks": 148984,
          "time": 116.39375,
          "velocity": 1
        },
        {
          "duration": 0.13750000000000284,
          "durationTicks": 176,
          "midi": 69,
          "name": "A4",
          "ticks": 149352,
          "time": 116.68124999999999,
          "velocity": 1
        },
        {
          "duration": 0.10781249999999432,
          "durationTicks": 138,
          "midi": 70,
          "name": "A#4",
          "ticks": 149566,
          "time": 116.8484375,
          "velocity": 1
        },
        {
          "duration": 0.19218750000000284,
          "durationTicks": 246,
          "midi": 72,
          "name": "C5",
          "ticks": 149766,
          "time": 117.00468749999999,
          "velocity": 1
        },
        {
          "duration": 0.17656250000000284,
          "durationTicks": 226,
          "midi": 70,
          "name": "A#4",
          "ticks": 150108,
          "time": 117.271875,
          "velocity": 1
        },
        {
          "duration": 0.22499999999999432,
          "durationTicks": 288,
          "midi": 70,
          "name": "A#4",
          "ticks": 150480,
          "time": 117.5625,
          "velocity": 1
        },
        {
          "duration": 0.08437500000000853,
          "durationTicks": 108,
          "midi": 65,
          "name": "F4",
          "ticks": 151722,
          "time": 118.53281249999999,
          "velocity": 1
        },
        {
          "duration": 0.17656250000001705,
          "durationTicks": 226,
          "midi": 69,
          "name": "A4",
          "ticks": 151904,
          "time": 118.67499999999998,
          "velocity": 1
        },
        {
          "duration": 0.15000000000000568,
          "durationTicks": 192,
          "midi": 69,
          "name": "A4",
          "ticks": 152292,
          "time": 118.97812499999999,
          "velocity": 1
        },
        {
          "duration": 0.09062500000001705,
          "durationTicks": 116,
          "midi": 69,
          "name": "A4",
          "ticks": 152630,
          "time": 119.24218749999999,
          "velocity": 1
        },
        {
          "duration": 0.24375000000000568,
          "durationTicks": 312,
          "midi": 69,
          "name": "A4",
          "ticks": 152846,
          "time": 119.41093749999999,
          "velocity": 1
        },
        {
          "duration": 0.08124999999999716,
          "durationTicks": 104,
          "midi": 65,
          "name": "F4",
          "ticks": 153216,
          "time": 119.69999999999999,
          "velocity": 1
        },
        {
          "duration": 0.16093750000000284,
          "durationTicks": 206,
          "midi": 65,
          "name": "F4",
          "ticks": 153426,
          "time": 119.86406249999999,
          "velocity": 1
        },
        {
          "duration": 0.13906250000000853,
          "durationTicks": 178,
          "midi": 65,
          "name": "F4",
          "ticks": 153794,
          "time": 120.15156249999998,
          "velocity": 1
        },
        {
          "duration": 0.07812499999998579,
          "durationTicks": 100,
          "midi": 65,
          "name": "F4",
          "ticks": 154150,
          "time": 120.4296875,
          "velocity": 1
        },
        {
          "duration": 0.17343750000000568,
          "durationTicks": 222,
          "midi": 65,
          "name": "F4",
          "ticks": 154334,
          "time": 120.57343749999998,
          "velocity": 1
        },
        {
          "duration": 0.11562499999999432,
          "durationTicks": 148,
          "midi": 65,
          "name": "F4",
          "ticks": 154750,
          "time": 120.8984375,
          "velocity": 1
        },
        {
          "duration": 0.1718750000000142,
          "durationTicks": 220,
          "midi": 69,
          "name": "A4",
          "ticks": 154964,
          "time": 121.06562499999998,
          "velocity": 1
        },
        {
          "duration": 0.15468749999999432,
          "durationTicks": 198,
          "midi": 69,
          "name": "A4",
          "ticks": 155350,
          "time": 121.3671875,
          "velocity": 1
        },
        {
          "duration": 0.09062500000000284,
          "durationTicks": 116,
          "midi": 69,
          "name": "A4",
          "ticks": 155698,
          "time": 121.6390625,
          "velocity": 1
        },
        {
          "duration": 0.21718750000000853,
          "durationTicks": 278,
          "midi": 69,
          "name": "A4",
          "ticks": 155906,
          "time": 121.80156249999999,
          "velocity": 1
        },
        {
          "duration": 0.08124999999999716,
          "durationTicks": 104,
          "midi": 65,
          "name": "F4",
          "ticks": 156274,
          "time": 122.0890625,
          "velocity": 1
        },
        {
          "duration": 0.14531250000000284,
          "durationTicks": 186,
          "midi": 65,
          "name": "F4",
          "ticks": 156482,
          "time": 122.25156249999999,
          "velocity": 1
        },
        {
          "duration": 0.13749999999998863,
          "durationTicks": 176,
          "midi": 65,
          "name": "F4",
          "ticks": 156858,
          "time": 122.5453125,
          "velocity": 1
        },
        {
          "duration": 0.08124999999999716,
          "durationTicks": 104,
          "midi": 65,
          "name": "F4",
          "ticks": 157186,
          "time": 122.8015625,
          "velocity": 1
        },
        {
          "duration": 0.17499999999999716,
          "durationTicks": 224,
          "midi": 65,
          "name": "F4",
          "ticks": 157384,
          "time": 122.95625,
          "velocity": 1
        },
        {
          "duration": 0.10781249999999432,
          "durationTicks": 138,
          "midi": 65,
          "name": "F4",
          "ticks": 157800,
          "time": 123.28125,
          "velocity": 1
        },
        {
          "duration": 0.16875000000000284,
          "durationTicks": 216,
          "midi": 67,
          "name": "G4",
          "ticks": 157996,
          "time": 123.434375,
          "velocity": 1
        },
        {
          "duration": 0.1484375,
          "durationTicks": 190,
          "midi": 67,
          "name": "G4",
          "ticks": 158372,
          "time": 123.72812499999999,
          "velocity": 1
        },
        {
          "duration": 0.1187500000000199,
          "durationTicks": 152,
          "midi": 67,
          "name": "G4",
          "ticks": 158750,
          "time": 124.02343749999999,
          "velocity": 1
        },
        {
          "duration": 0.22812500000000568,
          "durationTicks": 292,
          "midi": 70,
          "name": "A#4",
          "ticks": 158946,
          "time": 124.17656249999999,
          "velocity": 1
        },
        {
          "duration": 0.13749999999998863,
          "durationTicks": 176,
          "midi": 67,
          "name": "G4",
          "ticks": 159352,
          "time": 124.49375,
          "velocity": 1
        },
        {
          "duration": 0.15312500000001705,
          "durationTicks": 196,
          "midi": 65,
          "name": "F4",
          "ticks": 159584,
          "time": 124.67499999999998,
          "velocity": 1
        },
        {
          "duration": 0.1624999999999801,
          "durationTicks": 208,
          "midi": 65,
          "name": "F4",
          "ticks": 159952,
          "time": 124.9625,
          "velocity": 1
        },
        {
          "duration": 0.12656250000000568,
          "durationTicks": 162,
          "midi": 65,
          "name": "F4",
          "ticks": 160316,
          "time": 125.24687499999999,
          "velocity": 1
        },
        {
          "duration": 0.18437500000000284,
          "durationTicks": 236,
          "midi": 70,
          "name": "A#4",
          "ticks": 160504,
          "time": 125.39375,
          "velocity": 1
        },
        {
          "duration": 0.14375000000001137,
          "durationTicks": 184,
          "midi": 70,
          "name": "A#4",
          "ticks": 161090,
          "time": 125.85156249999999,
          "velocity": 1
        },
        {
          "duration": 0.25312499999999716,
          "durationTicks": 324,
          "midi": 69,
          "name": "A4",
          "ticks": 161292,
          "time": 126.00937499999999,
          "velocity": 1
        },
        {
          "duration": 0.23593749999999147,
          "durationTicks": 302,
          "midi": 70,
          "name": "A#4",
          "ticks": 161658,
          "time": 126.2953125,
          "velocity": 1
        },
        {
          "duration": 0.26093749999998295,
          "durationTicks": 334,
          "midi": 72,
          "name": "C5",
          "ticks": 162040,
          "time": 126.59375,
          "velocity": 1
        },
        {
          "duration": 0.21249999999999147,
          "durationTicks": 272,
          "midi": 70,
          "name": "A#4",
          "ticks": 162402,
          "time": 126.87656249999999,
          "velocity": 1
        },
        {
          "duration": 0.5921875000000085,
          "durationTicks": 758,
          "midi": 70,
          "name": "A#4",
          "ticks": 162788,
          "time": 127.178125,
          "velocity": 1
        },
        {
          "duration": 0.021875000000008527,
          "durationTicks": 28,
          "midi": 72,
          "name": "C5",
          "ticks": 163640,
          "time": 127.84374999999999,
          "velocity": 1
        },
        {
          "duration": 0.21718750000000853,
          "durationTicks": 278,
          "midi": 74,
          "name": "D5",
          "ticks": 163670,
          "time": 127.86718749999999,
          "velocity": 1
        },
        {
          "duration": 0.19999999999998863,
          "durationTicks": 256,
          "midi": 72,
          "name": "C5",
          "ticks": 163948,
          "time": 128.084375,
          "velocity": 1
        },
        {
          "duration": 0.21718750000002274,
          "durationTicks": 278,
          "midi": 70,
          "name": "A#4",
          "ticks": 164204,
          "time": 128.28437499999998,
          "velocity": 1
        },
        {
          "duration": 0.5703124999999716,
          "durationTicks": 730,
          "midi": 67,
          "name": "G4",
          "ticks": 164482,
          "time": 128.5015625,
          "velocity": 1
        },
        {
          "duration": 0.17500000000001137,
          "durationTicks": 224,
          "midi": 74,
          "name": "D5",
          "ticks": 166484,
          "time": 130.06562499999998,
          "velocity": 1
        },
        {
          "duration": 0.203125,
          "durationTicks": 260,
          "midi": 72,
          "name": "C5",
          "ticks": 166854,
          "time": 130.35468749999998,
          "velocity": 1
        },
        {
          "duration": 0.11406250000001705,
          "durationTicks": 146,
          "midi": 70,
          "name": "A#4",
          "ticks": 167206,
          "time": 130.6296875,
          "velocity": 1
        },
        {
          "duration": 0.6374999999999886,
          "durationTicks": 816,
          "midi": 72,
          "name": "C5",
          "ticks": 167400,
          "time": 130.78125,
          "velocity": 1
        },
        {
          "duration": 0.18281249999998295,
          "durationTicks": 234,
          "midi": 74,
          "name": "D5",
          "ticks": 169552,
          "time": 132.4625,
          "velocity": 1
        },
        {
          "duration": 0.18437500000001705,
          "durationTicks": 236,
          "midi": 72,
          "name": "C5",
          "ticks": 169916,
          "time": 132.746875,
          "velocity": 1
        },
        {
          "duration": 0.11406249999998863,
          "durationTicks": 146,
          "midi": 70,
          "name": "A#4",
          "ticks": 170240,
          "time": 133,
          "velocity": 1
        },
        {
          "duration": 0.25468749999998863,
          "durationTicks": 326,
          "midi": 67,
          "name": "G4",
          "ticks": 170458,
          "time": 133.1703125,
          "velocity": 1
        },
        {
          "duration": 0.09531249999997726,
          "durationTicks": 122,
          "midi": 63,
          "name": "D#4",
          "ticks": 170850,
          "time": 133.4765625,
          "velocity": 1
        },
        {
          "duration": 0.21875,
          "durationTicks": 280,
          "midi": 74,
          "name": "D5",
          "ticks": 171048,
          "time": 133.63125,
          "velocity": 1
        },
        {
          "duration": 0.1796875,
          "durationTicks": 230,
          "midi": 72,
          "name": "C5",
          "ticks": 171428,
          "time": 133.928125,
          "velocity": 1
        },
        {
          "duration": 0.12812499999998295,
          "durationTicks": 164,
          "midi": 70,
          "name": "A#4",
          "ticks": 171754,
          "time": 134.1828125,
          "velocity": 1
        },
        {
          "duration": 0.25468749999998863,
          "durationTicks": 326,
          "midi": 67,
          "name": "G4",
          "ticks": 171978,
          "time": 134.3578125,
          "velocity": 1
        },
        {
          "duration": 0.13906249999999432,
          "durationTicks": 178,
          "midi": 65,
          "name": "F4",
          "ticks": 172368,
          "time": 134.6625,
          "velocity": 1
        },
        {
          "duration": 0.1875,
          "durationTicks": 240,
          "midi": 74,
          "name": "D5",
          "ticks": 172586,
          "time": 134.8328125,
          "velocity": 1
        },
        {
          "duration": 0.19999999999998863,
          "durationTicks": 256,
          "midi": 72,
          "name": "C5",
          "ticks": 172960,
          "time": 135.125,
          "velocity": 1
        },
        {
          "duration": 0.109375,
          "durationTicks": 140,
          "midi": 70,
          "name": "A#4",
          "ticks": 173308,
          "time": 135.396875,
          "velocity": 1
        },
        {
          "duration": 0.6140624999999886,
          "durationTicks": 786,
          "midi": 74,
          "name": "D5",
          "ticks": 173512,
          "time": 135.55625,
          "velocity": 1
        },
        {
          "duration": 0.18125000000000568,
          "durationTicks": 232,
          "midi": 74,
          "name": "D5",
          "ticks": 175706,
          "time": 137.2703125,
          "velocity": 1
        },
        {
          "duration": 0.18906250000000568,
          "durationTicks": 242,
          "midi": 72,
          "name": "C5",
          "ticks": 176064,
          "time": 137.54999999999998,
          "velocity": 1
        },
        {
          "duration": 0.11406250000001705,
          "durationTicks": 146,
          "midi": 70,
          "name": "A#4",
          "ticks": 176414,
          "time": 137.82343749999998,
          "velocity": 1
        },
        {
          "duration": 0.23593750000000568,
          "durationTicks": 302,
          "midi": 67,
          "name": "G4",
          "ticks": 176590,
          "time": 137.9609375,
          "velocity": 1
        },
        {
          "duration": 0.18593749999999432,
          "durationTicks": 238,
          "midi": 70,
          "name": "A#4",
          "ticks": 176988,
          "time": 138.271875,
          "velocity": 1
        },
        {
          "duration": 0.3046875,
          "durationTicks": 390,
          "midi": 70,
          "name": "A#4",
          "ticks": 177364,
          "time": 138.565625,
          "velocity": 1
        },
        {
          "duration": 0.11874999999997726,
          "durationTicks": 152,
          "midi": 67,
          "name": "G4",
          "ticks": 177754,
          "time": 138.8703125,
          "velocity": 1
        },
        {
          "duration": 0.2562499999999943,
          "durationTicks": 328,
          "midi": 72,
          "name": "C5",
          "ticks": 177976,
          "time": 139.04375,
          "velocity": 1
        },
        {
          "duration": 0.2109375,
          "durationTicks": 270,
          "midi": 72,
          "name": "C5",
          "ticks": 178730,
          "time": 139.6328125,
          "velocity": 1
        },
        {
          "duration": 0.16874999999998863,
          "durationTicks": 216,
          "midi": 70,
          "name": "A#4",
          "ticks": 179104,
          "time": 139.925,
          "velocity": 1
        },
        {
          "duration": 0.09843749999998863,
          "durationTicks": 126,
          "midi": 72,
          "name": "C5",
          "ticks": 179442,
          "time": 140.1890625,
          "velocity": 1
        },
        {
          "duration": 0.18125000000000568,
          "durationTicks": 232,
          "midi": 74,
          "name": "D5",
          "ticks": 179640,
          "time": 140.34375,
          "velocity": 1
        },
        {
          "duration": 0.1328125,
          "durationTicks": 170,
          "midi": 74,
          "name": "D5",
          "ticks": 180040,
          "time": 140.65625,
          "velocity": 1
        },
        {
          "duration": 0.17656249999998863,
          "durationTicks": 226,
          "midi": 72,
          "name": "C5",
          "ticks": 180248,
          "time": 140.81875,
          "velocity": 1
        },
        {
          "duration": 0.15312500000001705,
          "durationTicks": 196,
          "midi": 72,
          "name": "C5",
          "ticks": 180632,
          "time": 141.11874999999998,
          "velocity": 1
        },
        {
          "duration": 0.2734375,
          "durationTicks": 350,
          "midi": 70,
          "name": "A#4",
          "ticks": 180818,
          "time": 141.2640625,
          "velocity": 1
        },
        {
          "duration": 0.18437499999998863,
          "durationTicks": 236,
          "midi": 74,
          "name": "D5",
          "ticks": 181806,
          "time": 142.0359375,
          "velocity": 1
        },
        {
          "duration": 0.18281250000001137,
          "durationTicks": 234,
          "midi": 72,
          "name": "C5",
          "ticks": 182170,
          "time": 142.3203125,
          "velocity": 1
        },
        {
          "duration": 0.11250000000001137,
          "durationTicks": 144,
          "midi": 70,
          "name": "A#4",
          "ticks": 182506,
          "time": 142.5828125,
          "velocity": 1
        },
        {
          "duration": 0.25468750000001705,
          "durationTicks": 326,
          "midi": 67,
          "name": "G4",
          "ticks": 182726,
          "time": 142.7546875,
          "velocity": 1
        },
        {
          "duration": 0.10781249999999432,
          "durationTicks": 138,
          "midi": 63,
          "name": "D#4",
          "ticks": 183120,
          "time": 143.0625,
          "velocity": 1
        },
        {
          "duration": 0.20312500000002842,
          "durationTicks": 260,
          "midi": 74,
          "name": "D5",
          "ticks": 183332,
          "time": 143.22812499999998,
          "velocity": 1
        },
        {
          "duration": 0.1796875,
          "durationTicks": 230,
          "midi": 72,
          "name": "C5",
          "ticks": 183718,
          "time": 143.5296875,
          "velocity": 1
        },
        {
          "duration": 0.12812499999998295,
          "durationTicks": 164,
          "midi": 70,
          "name": "A#4",
          "ticks": 184038,
          "time": 143.7796875,
          "velocity": 1
        },
        {
          "duration": 0.23281250000002274,
          "durationTicks": 298,
          "midi": 67,
          "name": "G4",
          "ticks": 184274,
          "time": 143.96406249999998,
          "velocity": 1
        },
        {
          "duration": 0.15781250000000568,
          "durationTicks": 202,
          "midi": 65,
          "name": "F4",
          "ticks": 184636,
          "time": 144.246875,
          "velocity": 1
        },
        {
          "duration": 0.19687499999997726,
          "durationTicks": 252,
          "midi": 74,
          "name": "D5",
          "ticks": 184864,
          "time": 144.425,
          "velocity": 1
        },
        {
          "duration": 0.18281250000001137,
          "durationTicks": 234,
          "midi": 72,
          "name": "C5",
          "ticks": 185244,
          "time": 144.72187499999998,
          "velocity": 1
        },
        {
          "duration": 0.11562500000002274,
          "durationTicks": 148,
          "midi": 70,
          "name": "A#4",
          "ticks": 185556,
          "time": 144.965625,
          "velocity": 1
        },
        {
          "duration": 0.47968750000001137,
          "durationTicks": 614,
          "midi": 76,
          "name": "E5",
          "ticks": 196914,
          "time": 153.83906249999998,
          "velocity": 1
        },
        {
          "duration": 0.20468750000000568,
          "durationTicks": 262,
          "midi": 74,
          "name": "D5",
          "ticks": 197600,
          "time": 154.375,
          "velocity": 1
        },
        {
          "duration": 0.21718749999999432,
          "durationTicks": 278,
          "midi": 72,
          "name": "C5",
          "ticks": 197862,
          "time": 154.5796875,
          "velocity": 1
        },
        {
          "duration": 0.5921874999999943,
          "durationTicks": 758,
          "midi": 69,
          "name": "A4",
          "ticks": 198140,
          "time": 154.796875,
          "velocity": 1
        },
        {
          "duration": 0.19843750000001137,
          "durationTicks": 254,
          "midi": 76,
          "name": "E5",
          "ticks": 200242,
          "time": 156.43906249999998,
          "velocity": 1
        },
        {
          "duration": 0.21406250000001137,
          "durationTicks": 274,
          "midi": 74,
          "name": "D5",
          "ticks": 200604,
          "time": 156.72187499999998,
          "velocity": 1
        },
        {
          "duration": 0.07968749999997726,
          "durationTicks": 102,
          "midi": 72,
          "name": "C5",
          "ticks": 200982,
          "time": 157.0171875,
          "velocity": 1
        },
        {
          "duration": 0.6156249999999943,
          "durationTicks": 788,
          "midi": 74,
          "name": "D5",
          "ticks": 201180,
          "time": 157.171875,
          "velocity": 1
        },
        {
          "duration": 0.19843749999998295,
          "durationTicks": 254,
          "midi": 76,
          "name": "E5",
          "ticks": 203318,
          "time": 158.8421875,
          "velocity": 1
        },
        {
          "duration": 0.19843749999998295,
          "durationTicks": 254,
          "midi": 74,
          "name": "D5",
          "ticks": 203690,
          "time": 159.1328125,
          "velocity": 1
        },
        {
          "duration": 0.12968749999998863,
          "durationTicks": 166,
          "midi": 72,
          "name": "C5",
          "ticks": 204030,
          "time": 159.3984375,
          "velocity": 1
        },
        {
          "duration": 0.23281250000002274,
          "durationTicks": 298,
          "midi": 69,
          "name": "A4",
          "ticks": 204238,
          "time": 159.5609375,
          "velocity": 1
        },
        {
          "duration": 0.10937500000002842,
          "durationTicks": 140,
          "midi": 65,
          "name": "F4",
          "ticks": 204640,
          "time": 159.87499999999997,
          "velocity": 1
        },
        {
          "duration": 0.22187500000001137,
          "durationTicks": 284,
          "midi": 76,
          "name": "E5",
          "ticks": 204852,
          "time": 160.040625,
          "velocity": 1
        },
        {
          "duration": 0.18593749999999432,
          "durationTicks": 238,
          "midi": 74,
          "name": "D5",
          "ticks": 205232,
          "time": 160.3375,
          "velocity": 1
        },
        {
          "duration": 0.1374999999999602,
          "durationTicks": 176,
          "midi": 72,
          "name": "C5",
          "ticks": 205586,
          "time": 160.61406250000002,
          "velocity": 1
        },
        {
          "duration": 0.23281249999999432,
          "durationTicks": 298,
          "midi": 69,
          "name": "A4",
          "ticks": 205794,
          "time": 160.77656249999998,
          "velocity": 1
        },
        {
          "duration": 0.15781249999997726,
          "durationTicks": 202,
          "midi": 67,
          "name": "G4",
          "ticks": 206192,
          "time": 161.0875,
          "velocity": 1
        },
        {
          "duration": 0.18906249999997726,
          "durationTicks": 242,
          "midi": 76,
          "name": "E5",
          "ticks": 206426,
          "time": 161.27031250000002,
          "velocity": 1
        },
        {
          "duration": 0.19375000000002274,
          "durationTicks": 248,
          "midi": 74,
          "name": "D5",
          "ticks": 206800,
          "time": 161.56249999999997,
          "velocity": 1
        },
        {
          "duration": 0.11875000000000568,
          "durationTicks": 152,
          "midi": 72,
          "name": "C5",
          "ticks": 207136,
          "time": 161.825,
          "velocity": 1
        },
        {
          "duration": 0.5921875000000227,
          "durationTicks": 758,
          "midi": 76,
          "name": "E5",
          "ticks": 207354,
          "time": 161.99531249999998,
          "velocity": 1
        },
        {
          "duration": 0.20624999999998295,
          "durationTicks": 264,
          "midi": 76,
          "name": "E5",
          "ticks": 209490,
          "time": 163.6640625,
          "velocity": 1
        },
        {
          "duration": 0.1953125,
          "durationTicks": 250,
          "midi": 74,
          "name": "D5",
          "ticks": 209856,
          "time": 163.95,
          "velocity": 1
        },
        {
          "duration": 0.1171875,
          "durationTicks": 150,
          "midi": 72,
          "name": "C5",
          "ticks": 210194,
          "time": 164.2140625,
          "velocity": 1
        },
        {
          "duration": 0.2656249999999716,
          "durationTicks": 340,
          "midi": 69,
          "name": "A4",
          "ticks": 210390,
          "time": 164.3671875,
          "velocity": 1
        },
        {
          "duration": 0.19374999999999432,
          "durationTicks": 248,
          "midi": 72,
          "name": "C5",
          "ticks": 210778,
          "time": 164.6703125,
          "velocity": 1
        },
        {
          "duration": 0.265625,
          "durationTicks": 340,
          "midi": 72,
          "name": "C5",
          "ticks": 211164,
          "time": 164.97187499999998,
          "velocity": 1
        },
        {
          "duration": 0.13750000000001705,
          "durationTicks": 176,
          "midi": 69,
          "name": "A4",
          "ticks": 211546,
          "time": 165.2703125,
          "velocity": 1
        },
        {
          "duration": 0.20156249999999432,
          "durationTicks": 258,
          "midi": 74,
          "name": "D5",
          "ticks": 211776,
          "time": 165.45,
          "velocity": 1
        },
        {
          "duration": 0.17812499999999432,
          "durationTicks": 228,
          "midi": 74,
          "name": "D5",
          "ticks": 212614,
          "time": 166.10468749999998,
          "velocity": 1
        },
        {
          "duration": 0.15156250000001137,
          "durationTicks": 194,
          "midi": 72,
          "name": "C5",
          "ticks": 212982,
          "time": 166.3921875,
          "velocity": 1
        },
        {
          "duration": 0.09843749999998863,
          "durationTicks": 126,
          "midi": 74,
          "name": "D5",
          "ticks": 213300,
          "time": 166.640625,
          "velocity": 1
        },
        {
          "duration": 0.30000000000001137,
          "durationTicks": 384,
          "midi": 76,
          "name": "E5",
          "ticks": 213504,
          "time": 166.79999999999998,
          "velocity": 1
        },
        {
          "duration": 0.15000000000000568,
          "durationTicks": 192,
          "midi": 76,
          "name": "E5",
          "ticks": 213888,
          "time": 167.1,
          "velocity": 1
        },
        {
          "duration": 0.29999999999998295,
          "durationTicks": 384,
          "midi": 74,
          "name": "D5",
          "ticks": 214080,
          "time": 167.25,
          "velocity": 1
        },
        {
          "duration": 0.15000000000000568,
          "durationTicks": 192,
          "midi": 76,
          "name": "E5",
          "ticks": 214464,
          "time": 167.54999999999998,
          "velocity": 1
        },
        {
          "duration": 0.30000000000001137,
          "durationTicks": 384,
          "midi": 74,
          "name": "D5",
          "ticks": 214656,
          "time": 167.7,
          "velocity": 1
        },
        {
          "duration": 0.29999999999998295,
          "durationTicks": 384,
          "midi": 72,
          "name": "C5",
          "ticks": 215040,
          "time": 168,
          "velocity": 1
        },
        {
          "duration": 0.18593749999999432,
          "durationTicks": 238,
          "midi": 76,
          "name": "E5",
          "ticks": 215646,
          "time": 168.4734375,
          "velocity": 1
        },
        {
          "duration": 0.18281249999998295,
          "durationTicks": 234,
          "midi": 74,
          "name": "D5",
          "ticks": 216014,
          "time": 168.7609375,
          "velocity": 1
        },
        {
          "duration": 0.12031250000001137,
          "durationTicks": 154,
          "midi": 72,
          "name": "C5",
          "ticks": 216334,
          "time": 169.01093749999998,
          "velocity": 1
        },
        {
          "duration": 0.25468750000001705,
          "durationTicks": 326,
          "midi": 69,
          "name": "A4",
          "ticks": 216532,
          "time": 169.16562499999998,
          "velocity": 1
        },
        {
          "duration": 0.10781249999999432,
          "durationTicks": 138,
          "midi": 65,
          "name": "F4",
          "ticks": 216926,
          "time": 169.47343750000002,
          "velocity": 1
        },
        {
          "duration": 0.24999999999997158,
          "durationTicks": 320,
          "midi": 76,
          "name": "E5",
          "ticks": 217136,
          "time": 169.63750000000002,
          "velocity": 1
        },
        {
          "duration": 0.17968749999997158,
          "durationTicks": 230,
          "midi": 74,
          "name": "D5",
          "ticks": 217532,
          "time": 169.946875,
          "velocity": 1
        },
        {
          "duration": 0.16718749999998295,
          "durationTicks": 214,
          "midi": 72,
          "name": "C5",
          "ticks": 217844,
          "time": 170.190625,
          "velocity": 1
        },
        {
          "duration": 0.23125000000001705,
          "durationTicks": 296,
          "midi": 69,
          "name": "A4",
          "ticks": 218088,
          "time": 170.38125,
          "velocity": 1
        },
        {
          "duration": 0.16562499999997726,
          "durationTicks": 212,
          "midi": 67,
          "name": "G4",
          "ticks": 218468,
          "time": 170.678125,
          "velocity": 1
        },
        {
          "duration": 0.20156249999999432,
          "durationTicks": 258,
          "midi": 76,
          "name": "E5",
          "ticks": 218706,
          "time": 170.8640625,
          "velocity": 1
        },
        {
          "duration": 0.19843750000001137,
          "durationTicks": 254,
          "midi": 74,
          "name": "D5",
          "ticks": 219064,
          "time": 171.14374999999998,
          "velocity": 1
        },
        {
          "duration": 0.10156250000002842,
          "durationTicks": 130,
          "midi": 72,
          "name": "C5",
          "ticks": 219406,
          "time": 171.4109375,
          "velocity": 1
        },
        {
          "duration": 0.6374999999999886,
          "durationTicks": 816,
          "midi": 72,
          "name": "C5",
          "ticks": 219634,
          "time": 171.58906249999998,
          "velocity": 1
        },
        {
          "duration": 0.20000000000004547,
          "durationTicks": 256,
          "midi": 76,
          "name": "E5",
          "ticks": 221800,
          "time": 173.28124999999997,
          "velocity": 1
        },
        {
          "duration": 0.19062499999998295,
          "durationTicks": 244,
          "midi": 74,
          "name": "D5",
          "ticks": 222146,
          "time": 173.55156250000002,
          "velocity": 1
        },
        {
          "duration": 0.13124999999999432,
          "durationTicks": 168,
          "midi": 72,
          "name": "C5",
          "ticks": 222480,
          "time": 173.8125,
          "velocity": 1
        },
        {
          "duration": 0.25468749999998863,
          "durationTicks": 326,
          "midi": 69,
          "name": "A4",
          "ticks": 222698,
          "time": 173.9828125,
          "velocity": 1
        },
        {
          "duration": 0.16718750000001137,
          "durationTicks": 214,
          "midi": 65,
          "name": "F4",
          "ticks": 223074,
          "time": 174.27656249999998,
          "velocity": 1
        },
        {
          "duration": 0.21875,
          "durationTicks": 280,
          "midi": 76,
          "name": "E5",
          "ticks": 223322,
          "time": 174.4703125,
          "velocity": 1
        },
        {
          "duration": 0.19999999999998863,
          "durationTicks": 256,
          "midi": 74,
          "name": "D5",
          "ticks": 223688,
          "time": 174.75625,
          "velocity": 1
        },
        {
          "duration": 0.13593749999998295,
          "durationTicks": 174,
          "midi": 72,
          "name": "C5",
          "ticks": 224040,
          "time": 175.03125,
          "velocity": 1
        },
        {
          "duration": 0.23125000000001705,
          "durationTicks": 296,
          "midi": 69,
          "name": "A4",
          "ticks": 224256,
          "time": 175.2,
          "velocity": 1
        },
        {
          "duration": 0.14687500000002274,
          "durationTicks": 188,
          "midi": 67,
          "name": "G4",
          "ticks": 224632,
          "time": 175.49374999999998,
          "velocity": 1
        },
        {
          "duration": 0.1953125,
          "durationTicks": 250,
          "midi": 76,
          "name": "E5",
          "ticks": 224858,
          "time": 175.6703125,
          "velocity": 1
        },
        {
          "duration": 0.17343750000000568,
          "durationTicks": 222,
          "midi": 74,
          "name": "D5",
          "ticks": 225210,
          "time": 175.9453125,
          "velocity": 1
        },
        {
          "duration": 0.12343749999999432,
          "durationTicks": 158,
          "midi": 72,
          "name": "C5",
          "ticks": 225530,
          "time": 176.1953125,
          "velocity": 1
        },
        {
          "duration": 0.659374999999983,
          "durationTicks": 844,
          "midi": 72,
          "name": "C5",
          "ticks": 225776,
          "time": 176.38750000000002,
          "velocity": 1
        },
        {
          "duration": 0.18593750000002274,
          "durationTicks": 238,
          "midi": 76,
          "name": "E5",
          "ticks": 227944,
          "time": 178.08124999999998,
          "velocity": 1
        },
        {
          "duration": 0.17656249999998863,
          "durationTicks": 226,
          "midi": 74,
          "name": "D5",
          "ticks": 228296,
          "time": 178.35625000000002,
          "velocity": 1
        },
        {
          "duration": 0.12187500000001705,
          "durationTicks": 156,
          "midi": 72,
          "name": "C5",
          "ticks": 228638,
          "time": 178.6234375,
          "velocity": 1
        },
        {
          "duration": 0.1875,
          "durationTicks": 240,
          "midi": 69,
          "name": "A4",
          "ticks": 228856,
          "time": 178.79375,
          "velocity": 1
        },
        {
          "duration": 0.13593749999998295,
          "durationTicks": 174,
          "midi": 65,
          "name": "F4",
          "ticks": 229256,
          "time": 179.10625000000002,
          "velocity": 1
        },
        {
          "duration": 0.20000000000004547,
          "durationTicks": 256,
          "midi": 76,
          "name": "E5",
          "ticks": 229480,
          "time": 179.28124999999997,
          "velocity": 1
        },
        {
          "duration": 0.17656250000001705,
          "durationTicks": 226,
          "midi": 74,
          "name": "D5",
          "ticks": 229846,
          "time": 179.5671875,
          "velocity": 1
        },
        {
          "duration": 0.13593749999998295,
          "durationTicks": 174,
          "midi": 72,
          "name": "C5",
          "ticks": 230160,
          "time": 179.8125,
          "velocity": 1
        },
        {
          "duration": 0.23281250000002274,
          "durationTicks": 298,
          "midi": 69,
          "name": "A4",
          "ticks": 230386,
          "time": 179.9890625,
          "velocity": 1
        },
        {
          "duration": 0.14375000000001137,
          "durationTicks": 184,
          "midi": 67,
          "name": "G4",
          "ticks": 230784,
          "time": 180.29999999999998,
          "velocity": 1
        },
        {
          "duration": 0.20156250000002274,
          "durationTicks": 258,
          "midi": 76,
          "name": "E5",
          "ticks": 231010,
          "time": 180.47656249999997,
          "velocity": 1
        },
        {
          "duration": 0.18281249999998295,
          "durationTicks": 234,
          "midi": 74,
          "name": "D5",
          "ticks": 231360,
          "time": 180.75,
          "velocity": 1
        },
        {
          "duration": 0.12656249999997726,
          "durationTicks": 162,
          "midi": 72,
          "name": "C5",
          "ticks": 231672,
          "time": 180.99375,
          "velocity": 1
        },
        {
          "duration": 0.23281250000002274,
          "durationTicks": 298,
          "midi": 69,
          "name": "A4",
          "ticks": 231886,
          "time": 181.1609375,
          "velocity": 1
        },
        {
          "duration": 0.17343749999997726,
          "durationTicks": 222,
          "midi": 69,
          "name": "A4",
          "ticks": 232256,
          "time": 181.45000000000002,
          "velocity": 1
        },
        {
          "duration": 0.18437499999998863,
          "durationTicks": 236,
          "midi": 76,
          "name": "E5",
          "ticks": 232498,
          "time": 181.6390625,
          "velocity": 1
        },
        {
          "duration": 0.1859374999999659,
          "durationTicks": 238,
          "midi": 74,
          "name": "D5",
          "ticks": 232842,
          "time": 181.9078125,
          "velocity": 1
        },
        {
          "duration": 0.09062500000001705,
          "durationTicks": 116,
          "midi": 72,
          "name": "C5",
          "ticks": 233178,
          "time": 182.1703125,
          "velocity": 1
        },
        {
          "duration": 0.25468750000001705,
          "durationTicks": 326,
          "midi": 74,
          "name": "D5",
          "ticks": 233406,
          "time": 182.3484375,
          "velocity": 1
        },
        {
          "duration": 0.10937500000002842,
          "durationTicks": 140,
          "midi": 72,
          "name": "C5",
          "ticks": 233796,
          "time": 182.653125,
          "velocity": 1
        },
        {
          "duration": 0.19999999999998863,
          "durationTicks": 256,
          "midi": 76,
          "name": "E5",
          "ticks": 234024,
          "time": 182.83124999999998,
          "velocity": 1
        },
        {
          "duration": 0.18124999999997726,
          "durationTicks": 232,
          "midi": 74,
          "name": "D5",
          "ticks": 234386,
          "time": 183.11406250000002,
          "velocity": 1
        },
        {
          "duration": 0.09999999999999432,
          "durationTicks": 128,
          "midi": 72,
          "name": "C5",
          "ticks": 234706,
          "time": 183.3640625,
          "velocity": 1
        },
        {
          "duration": 0.2781249999999602,
          "durationTicks": 356,
          "midi": 74,
          "name": "D5",
          "ticks": 234944,
          "time": 183.55,
          "velocity": 1
        },
        {
          "duration": 0.12656250000000568,
          "durationTicks": 162,
          "midi": 72,
          "name": "C5",
          "ticks": 235322,
          "time": 183.8453125,
          "velocity": 1
        },
        {
          "duration": 0.18437499999998863,
          "durationTicks": 236,
          "midi": 76,
          "name": "E5",
          "ticks": 235572,
          "time": 184.040625,
          "velocity": 1
        },
        {
          "duration": 0.17656250000001705,
          "durationTicks": 226,
          "midi": 74,
          "name": "D5",
          "ticks": 235924,
          "time": 184.31562499999998,
          "velocity": 1
        },
        {
          "duration": 0.1109375000000341,
          "durationTicks": 142,
          "midi": 72,
          "name": "C5",
          "ticks": 236272,
          "time": 184.58749999999998,
          "velocity": 1
        },
        {
          "duration": 0.25468750000001705,
          "durationTicks": 326,
          "midi": 74,
          "name": "D5",
          "ticks": 236512,
          "time": 184.77499999999998,
          "velocity": 1
        },
        {
          "duration": 0.11250000000001137,
          "durationTicks": 144,
          "midi": 72,
          "name": "C5",
          "ticks": 236886,
          "time": 185.0671875,
          "velocity": 1
        },
        {
          "duration": 0.20000000000001705,
          "durationTicks": 256,
          "midi": 76,
          "name": "E5",
          "ticks": 237106,
          "time": 185.2390625,
          "velocity": 1
        },
        {
          "duration": 0.18125000000000568,
          "durationTicks": 232,
          "midi": 74,
          "name": "D5",
          "ticks": 237470,
          "time": 185.5234375,
          "velocity": 1
        },
        {
          "duration": 0.11250000000001137,
          "durationTicks": 144,
          "midi": 72,
          "name": "C5",
          "ticks": 237798,
          "time": 185.7796875,
          "velocity": 1
        },
        {
          "duration": 0.659374999999983,
          "durationTicks": 844,
          "midi": 72,
          "name": "C5",
          "ticks": 238040,
          "time": 185.96875,
          "velocity": 1
        },
        {
          "duration": 0.28437500000001137,
          "durationTicks": 364,
          "midi": 84,
          "name": "C6",
          "ticks": 243814,
          "time": 190.47968749999998,
          "velocity": 1
        }
      ]
    },
    {
      "channel": 12,
      "controlChanges": {},
      "pitchBends": [],
      "instrument": {
        "family": "ensemble",
        "number": 48,
        "name": "string ensemble 1"
      },
      "name": "",
      "notes": [
        {
          "duration": 0.3203125,
          "durationTicks": 410,
          "midi": 86,
          "name": "D6",
          "ticks": 37944,
          "time": 29.643749999999997,
          "velocity": 1
        },
        {
          "duration": 0.3203125,
          "durationTicks": 410,
          "midi": 62,
          "name": "D4",
          "ticks": 37944,
          "time": 29.643749999999997,
          "velocity": 1
        },
        {
          "duration": 0.38593750000000426,
          "durationTicks": 494,
          "midi": 82,
          "name": "A#5",
          "ticks": 38354,
          "time": 29.964062499999997,
          "velocity": 1
        },
        {
          "duration": 0.38593750000000426,
          "durationTicks": 494,
          "midi": 58,
          "name": "A#3",
          "ticks": 38354,
          "time": 29.964062499999997,
          "velocity": 1
        }
      ]
    },
    {
      "channel": 12,
      "controlChanges": {},
      "pitchBends": [],
      "instrument": {
        "family": "bass",
        "number": 36,
        "name": "slap bass 1"
      },
      "name": "",
      "notes": [
        {
          "duration": 0.13124999999999432,
          "durationTicks": 168,
          "midi": 36,
          "name": "C2",
          "ticks": 89402,
          "time": 69.8453125,
          "velocity": 1
        },
        {
          "duration": 0.15625,
          "durationTicks": 200,
          "midi": 36,
          "name": "C2",
          "ticks": 89670,
          "time": 70.0546875,
          "velocity": 1
        },
        {
          "duration": 0.2031250000000142,
          "durationTicks": 260,
          "midi": 36,
          "name": "C2",
          "ticks": 90016,
          "time": 70.32499999999999,
          "velocity": 1
        },
        {
          "duration": 0.10312500000000568,
          "durationTicks": 132,
          "midi": 34,
          "name": "A#1",
          "ticks": 90376,
          "time": 70.60624999999999,
          "velocity": 1
        },
        {
          "duration": 0.17500000000001137,
          "durationTicks": 224,
          "midi": 38,
          "name": "D2",
          "ticks": 90592,
          "time": 70.77499999999999,
          "velocity": 1
        },
        {
          "duration": 0.19218750000000284,
          "durationTicks": 246,
          "midi": 36,
          "name": "C2",
          "ticks": 90974,
          "time": 71.0734375,
          "velocity": 1
        },
        {
          "duration": 0.19218749999998863,
          "durationTicks": 246,
          "midi": 34,
          "name": "A#1",
          "ticks": 91356,
          "time": 71.371875,
          "velocity": 1
        }
      ]
    },
    {
      "channel": 13,
      "controlChanges": {
        "7": [
          {
            "number": 7,
            "ticks": 1536,
            "time": 1.2,
            "value": 0.7086614173228346
          },
          {
            "number": 7,
            "ticks": 1536,
            "time": 1.2,
            "value": 0.7086614173228346
          }
        ]
      },
      "pitchBends": [],
      "instrument": {
        "family": "chromatic percussion",
        "number": 12,
        "name": "marimba"
      },
      "name": "MARIMBA",
      "notes": [
        {
          "duration": 0.0015624999999999112,
          "durationTicks": 2,
          "midi": 62,
          "name": "D4",
          "ticks": 1536,
          "time": 1.2,
          "velocity": 0.7874015748031497
        },
        {
          "duration": 0.0015624999999999112,
          "durationTicks": 2,
          "midi": 65,
          "name": "F4",
          "ticks": 1728,
          "time": 1.3499999999999999,
          "velocity": 0.7874015748031497
        },
        {
          "duration": 0.0015624999999999112,
          "durationTicks": 2,
          "midi": 70,
          "name": "A#4",
          "ticks": 1920,
          "time": 1.5,
          "velocity": 0.7874015748031497
        },
        {
          "duration": 0.30000000000000004,
          "durationTicks": 384,
          "midi": 74,
          "name": "D5",
          "ticks": 2112,
          "time": 1.65,
          "velocity": 0.7874015748031497
        },
        {
          "duration": 0.30000000000000004,
          "durationTicks": 384,
          "midi": 70,
          "name": "A#4",
          "ticks": 2112,
          "time": 1.65,
          "velocity": 0.7874015748031497
        },
        {
          "duration": 0.30000000000000004,
          "durationTicks": 384,
          "midi": 74,
          "name": "D5",
          "ticks": 2496,
          "time": 1.95,
          "velocity": 0.7874015748031497
        },
        {
          "duration": 0.30000000000000004,
          "durationTicks": 384,
          "midi": 70,
          "name": "A#4",
          "ticks": 2496,
          "time": 1.95,
          "velocity": 0.7874015748031497
        },
        {
          "duration": 0.1499999999999999,
          "durationTicks": 192,
          "midi": 70,
          "name": "A#4",
          "ticks": 2880,
          "time": 2.25,
          "velocity": 0.7874015748031497
        },
        {
          "duration": 0.1499999999999999,
          "durationTicks": 192,
          "midi": 62,
          "name": "D4",
          "ticks": 2880,
          "time": 2.25,
          "velocity": 0.7874015748031497
        },
        {
          "duration": 0.2999999999999998,
          "durationTicks": 384,
          "midi": 72,
          "name": "C5",
          "ticks": 3072,
          "time": 2.4,
          "velocity": 0.7874015748031497
        },
        {
          "duration": 0.2999999999999998,
          "durationTicks": 384,
          "midi": 63,
          "name": "D#4",
          "ticks": 3072,
          "time": 2.4,
          "velocity": 0.7874015748031497
        },
        {
          "duration": 0.30000000000000027,
          "durationTicks": 384,
          "midi": 75,
          "name": "D#5",
          "ticks": 3456,
          "time": 2.6999999999999997,
          "velocity": 0.7874015748031497
        },
        {
          "duration": 0.30000000000000027,
          "durationTicks": 384,
          "midi": 67,
          "name": "G4",
          "ticks": 3456,
          "time": 2.6999999999999997,
          "velocity": 0.7874015748031497
        },
        {
          "duration": 0.2999999999999998,
          "durationTicks": 384,
          "midi": 74,
          "name": "D5",
          "ticks": 3840,
          "time": 3,
          "velocity": 0.7874015748031497
        },
        {
          "duration": 0.2999999999999998,
          "durationTicks": 384,
          "midi": 65,
          "name": "F4",
          "ticks": 3840,
          "time": 3,
          "velocity": 0.7874015748031497
        },
        {
          "duration": 0.2999999999999998,
          "durationTicks": 384,
          "midi": 70,
          "name": "A#4",
          "ticks": 4224,
          "time": 3.3,
          "velocity": 0.7874015748031497
        },
        {
          "duration": 0.2999999999999998,
          "durationTicks": 384,
          "midi": 62,
          "name": "D4",
          "ticks": 4224,
          "time": 3.3,
          "velocity": 0.7874015748031497
        },
        {
          "duration": 0.0015625000000003553,
          "durationTicks": 2,
          "midi": 58,
          "name": "A#3",
          "ticks": 4608,
          "time": 3.5999999999999996,
          "velocity": 0.7874015748031497
        },
        {
          "duration": 0.0015624999999999112,
          "durationTicks": 2,
          "midi": 62,
          "name": "D4",
          "ticks": 4800,
          "time": 3.75,
          "velocity": 0.7874015748031497
        },
        {
          "duration": 0.0015624999999999112,
          "durationTicks": 2,
          "midi": 65,
          "name": "F4",
          "ticks": 4992,
          "time": 3.9,
          "velocity": 0.7874015748031497
        },
        {
          "duration": 0.2999999999999998,
          "durationTicks": 384,
          "midi": 70,
          "name": "A#4",
          "ticks": 5184,
          "time": 4.05,
          "velocity": 0.7874015748031497
        },
        {
          "duration": 0.2999999999999998,
          "durationTicks": 384,
          "midi": 62,
          "name": "D4",
          "ticks": 5184,
          "time": 4.05,
          "velocity": 0.7874015748031497
        },
        {
          "duration": 0.2999999999999998,
          "durationTicks": 384,
          "midi": 70,
          "name": "A#4",
          "ticks": 5568,
          "time": 4.35,
          "velocity": 0.7874015748031497
        },
        {
          "duration": 0.2999999999999998,
          "durationTicks": 384,
          "midi": 62,
          "name": "D4",
          "ticks": 5568,
          "time": 4.35,
          "velocity": 0.7874015748031497
        },
        {
          "duration": 0.0015625000000003553,
          "durationTicks": 2,
          "midi": 60,
          "name": "C4",
          "ticks": 5952,
          "time": 4.6499999999999995,
          "velocity": 0.7874015748031497
        },
        {
          "duration": 0.2999999999999998,
          "durationTicks": 384,
          "midi": 69,
          "name": "A4",
          "ticks": 6144,
          "time": 4.8,
          "velocity": 0.7874015748031497
        },
        {
          "duration": 0.2999999999999998,
          "durationTicks": 384,
          "midi": 65,
          "name": "F4",
          "ticks": 6144,
          "time": 4.8,
          "velocity": 0.7874015748031497
        },
        {
          "duration": 0.2999999999999998,
          "durationTicks": 384,
          "midi": 72,
          "name": "C5",
          "ticks": 6528,
          "time": 5.1,
          "velocity": 0.7874015748031497
        },
        {
          "duration": 0.2999999999999998,
          "durationTicks": 384,
          "midi": 63,
          "name": "D#4",
          "ticks": 6528,
          "time": 5.1,
          "velocity": 0.7874015748031497
        },
        {
          "duration": 0.3000000000000007,
          "durationTicks": 384,
          "midi": 70,
          "name": "A#4",
          "ticks": 6912,
          "time": 5.3999999999999995,
          "velocity": 0.7874015748031497
        },
        {
          "duration": 0.3000000000000007,
          "durationTicks": 384,
          "midi": 62,
          "name": "D4",
          "ticks": 6912,
          "time": 5.3999999999999995,
          "velocity": 0.7874015748031497
        },
        {
          "duration": 0.001562499999999467,
          "durationTicks": 2,
          "midi": 62,
          "name": "D4",
          "ticks": 7680,
          "time": 6,
          "velocity": 0.7874015748031497
        },
        {
          "duration": 0.0015625000000003553,
          "durationTicks": 2,
          "midi": 65,
          "name": "F4",
          "ticks": 7872,
          "time": 6.1499999999999995,
          "velocity": 0.7874015748031497
        },
        {
          "duration": 0.001562499999999467,
          "durationTicks": 2,
          "midi": 70,
          "name": "A#4",
          "ticks": 8064,
          "time": 6.3,
          "velocity": 0.7874015748031497
        },
        {
          "duration": 0.2999999999999998,
          "durationTicks": 384,
          "midi": 74,
          "name": "D5",
          "ticks": 8256,
          "time": 6.45,
          "velocity": 0.7874015748031497
        },
        {
          "duration": 0.2999999999999998,
          "durationTicks": 384,
          "midi": 70,
          "name": "A#4",
          "ticks": 8256,
          "time": 6.45,
          "velocity": 0.7874015748031497
        },
        {
          "duration": 0.2999999999999998,
          "durationTicks": 384,
          "midi": 74,
          "name": "D5",
          "ticks": 8640,
          "time": 6.75,
          "velocity": 0.7874015748031497
        },
        {
          "duration": 0.2999999999999998,
          "durationTicks": 384,
          "midi": 70,
          "name": "A#4",
          "ticks": 8640,
          "time": 6.75,
          "velocity": 0.7874015748031497
        },
        {
          "duration": 0.14999999999999947,
          "durationTicks": 192,
          "midi": 70,
          "name": "A#4",
          "ticks": 9024,
          "time": 7.05,
          "velocity": 0.7874015748031497
        },
        {
          "duration": 0.14999999999999947,
          "durationTicks": 192,
          "midi": 62,
          "name": "D4",
          "ticks": 9024,
          "time": 7.05,
          "velocity": 0.7874015748031497
        },
        {
          "duration": 0.3000000000000007,
          "durationTicks": 384,
          "midi": 72,
          "name": "C5",
          "ticks": 9216,
          "time": 7.199999999999999,
          "velocity": 0.7874015748031497
        },
        {
          "duration": 0.3000000000000007,
          "durationTicks": 384,
          "midi": 63,
          "name": "D#4",
          "ticks": 9216,
          "time": 7.199999999999999,
          "velocity": 0.7874015748031497
        },
        {
          "duration": 0.2999999999999998,
          "durationTicks": 384,
          "midi": 75,
          "name": "D#5",
          "ticks": 9600,
          "time": 7.5,
          "velocity": 0.7874015748031497
        },
        {
          "duration": 0.2999999999999998,
          "durationTicks": 384,
          "midi": 67,
          "name": "G4",
          "ticks": 9600,
          "time": 7.5,
          "velocity": 0.7874015748031497
        },
        {
          "duration": 0.2999999999999998,
          "durationTicks": 384,
          "midi": 74,
          "name": "D5",
          "ticks": 9984,
          "time": 7.8,
          "velocity": 0.7874015748031497
        },
        {
          "duration": 0.2999999999999998,
          "durationTicks": 384,
          "midi": 65,
          "name": "F4",
          "ticks": 9984,
          "time": 7.8,
          "velocity": 0.7874015748031497
        },
        {
          "duration": 0.3000000000000007,
          "durationTicks": 384,
          "midi": 70,
          "name": "A#4",
          "ticks": 10368,
          "time": 8.1,
          "velocity": 0.7874015748031497
        },
        {
          "duration": 0.3000000000000007,
          "durationTicks": 384,
          "midi": 62,
          "name": "D4",
          "ticks": 10368,
          "time": 8.1,
          "velocity": 0.7874015748031497
        },
        {
          "duration": 0.001562499999998579,
          "durationTicks": 2,
          "midi": 58,
          "name": "A#3",
          "ticks": 10752,
          "time": 8.4,
          "velocity": 0.7874015748031497
        },
        {
          "duration": 0.0015625000000003553,
          "durationTicks": 2,
          "midi": 62,
          "name": "D4",
          "ticks": 10944,
          "time": 8.549999999999999,
          "velocity": 0.7874015748031497
        },
        {
          "duration": 0.0015625000000003553,
          "durationTicks": 2,
          "midi": 65,
          "name": "F4",
          "ticks": 11136,
          "time": 8.7,
          "velocity": 0.7874015748031497
        },
        {
          "duration": 0.3000000000000007,
          "durationTicks": 384,
          "midi": 70,
          "name": "A#4",
          "ticks": 11328,
          "time": 8.85,
          "velocity": 0.7874015748031497
        },
        {
          "duration": 0.3000000000000007,
          "durationTicks": 384,
          "midi": 62,
          "name": "D4",
          "ticks": 11328,
          "time": 8.85,
          "velocity": 0.7874015748031497
        },
        {
          "duration": 0.29999999999999893,
          "durationTicks": 384,
          "midi": 70,
          "name": "A#4",
          "ticks": 11712,
          "time": 9.15,
          "velocity": 0.7874015748031497
        },
        {
          "duration": 0.29999999999999893,
          "durationTicks": 384,
          "midi": 62,
          "name": "D4",
          "ticks": 11712,
          "time": 9.15,
          "velocity": 0.7874015748031497
        },
        {
          "duration": 0.0015625000000003553,
          "durationTicks": 2,
          "midi": 60,
          "name": "C4",
          "ticks": 12096,
          "time": 9.45,
          "velocity": 0.7874015748031497
        },
        {
          "duration": 0.3000000000000007,
          "durationTicks": 384,
          "midi": 69,
          "name": "A4",
          "ticks": 12288,
          "time": 9.6,
          "velocity": 0.7874015748031497
        },
        {
          "duration": 0.3000000000000007,
          "durationTicks": 384,
          "midi": 65,
          "name": "F4",
          "ticks": 12288,
          "time": 9.6,
          "velocity": 0.7874015748031497
        },
        {
          "duration": 0.29999999999999893,
          "durationTicks": 384,
          "midi": 72,
          "name": "C5",
          "ticks": 12672,
          "time": 9.9,
          "velocity": 0.7874015748031497
        },
        {
          "duration": 0.29999999999999893,
          "durationTicks": 384,
          "midi": 63,
          "name": "D#4",
          "ticks": 12672,
          "time": 9.9,
          "velocity": 0.7874015748031497
        },
        {
          "duration": 0.0015625000000003553,
          "durationTicks": 2,
          "midi": 70,
          "name": "A#4",
          "ticks": 13056,
          "time": 10.2,
          "velocity": 0.7874015748031497
        },
        {
          "duration": 0.0015625000000003553,
          "durationTicks": 2,
          "midi": 62,
          "name": "D4",
          "ticks": 13152,
          "time": 10.275,
          "velocity": 0.7874015748031497
        },
        {
          "duration": 0.0015625000000003553,
          "durationTicks": 2,
          "midi": 70,
          "name": "A#4",
          "ticks": 13248,
          "time": 10.35,
          "velocity": 0.7874015748031497
        },
        {
          "duration": 0.0015625000000021316,
          "durationTicks": 2,
          "midi": 62,
          "name": "D4",
          "ticks": 13344,
          "time": 10.424999999999999,
          "velocity": 0.7874015748031497
        },
        {
          "duration": 0.0015625000000003553,
          "durationTicks": 2,
          "midi": 70,
          "name": "A#4",
          "ticks": 13440,
          "time": 10.5,
          "velocity": 0.7874015748031497
        },
        {
          "duration": 0.0015625000000003553,
          "durationTicks": 2,
          "midi": 62,
          "name": "D4",
          "ticks": 13536,
          "time": 10.575,
          "velocity": 0.7874015748031497
        },
        {
          "duration": 0.0015625000000003553,
          "durationTicks": 2,
          "midi": 70,
          "name": "A#4",
          "ticks": 13632,
          "time": 10.65,
          "velocity": 0.7874015748031497
        },
        {
          "duration": 0.15000000000000036,
          "durationTicks": 192,
          "midi": 62,
          "name": "D4",
          "ticks": 13824,
          "time": 10.799999999999999,
          "velocity": 0.7874015748031497
        },
        {
          "duration": 0.15000000000000036,
          "durationTicks": 192,
          "midi": 58,
          "name": "A#3",
          "ticks": 13824,
          "time": 10.799999999999999,
          "velocity": 0.7874015748031497
        },
        {
          "duration": 0.11250000000000071,
          "durationTicks": 144,
          "midi": 77,
          "name": "F5",
          "ticks": 14162,
          "time": 11.0640625,
          "velocity": 0.7086614173228346
        },
        {
          "duration": 0.11250000000000071,
          "durationTicks": 144,
          "midi": 74,
          "name": "D5",
          "ticks": 14162,
          "time": 11.0640625,
          "velocity": 0.7086614173228346
        },
        {
          "duration": 0.11250000000000071,
          "durationTicks": 144,
          "midi": 70,
          "name": "A#4",
          "ticks": 14166,
          "time": 11.0671875,
          "velocity": 0.7086614173228346
        },
        {
          "duration": 0.11249999999999893,
          "durationTicks": 144,
          "midi": 70,
          "name": "A#4",
          "ticks": 14352,
          "time": 11.2125,
          "velocity": 0.7086614173228346
        },
        {
          "duration": 0.11250000000000071,
          "durationTicks": 144,
          "midi": 74,
          "name": "D5",
          "ticks": 14358,
          "time": 11.2171875,
          "velocity": 0.7086614173228346
        },
        {
          "duration": 0.11250000000000071,
          "durationTicks": 144,
          "midi": 77,
          "name": "F5",
          "ticks": 14358,
          "time": 11.2171875,
          "velocity": 0.7086614173228346
        },
        {
          "duration": 0.15000000000000036,
          "durationTicks": 192,
          "midi": 65,
          "name": "F4",
          "ticks": 14400,
          "time": 11.25,
          "velocity": 0.7874015748031497
        },
        {
          "duration": 0.15000000000000036,
          "durationTicks": 192,
          "midi": 62,
          "name": "D4",
          "ticks": 14400,
          "time": 11.25,
          "velocity": 0.7874015748031497
        },
        {
          "duration": 0.15000000000000036,
          "durationTicks": 192,
          "midi": 60,
          "name": "C4",
          "ticks": 14784,
          "time": 11.549999999999999,
          "velocity": 0.7874015748031497
        },
        {
          "duration": 0.15000000000000036,
          "durationTicks": 192,
          "midi": 57,
          "name": "A3",
          "ticks": 14784,
          "time": 11.549999999999999,
          "velocity": 0.7874015748031497
        },
        {
          "duration": 0.11249999999999893,
          "durationTicks": 144,
          "midi": 74,
          "name": "D5",
          "ticks": 14922,
          "time": 11.6578125,
          "velocity": 0.7086614173228346
        },
        {
          "duration": 0.11250000000000071,
          "durationTicks": 144,
          "midi": 70,
          "name": "A#4",
          "ticks": 14928,
          "time": 11.6625,
          "velocity": 0.7086614173228346
        },
        {
          "duration": 0.11250000000000071,
          "durationTicks": 144,
          "midi": 77,
          "name": "F5",
          "ticks": 14934,
          "time": 11.667187499999999,
          "velocity": 0.7086614173228346
        },
        {
          "duration": 0.15000000000000036,
          "durationTicks": 192,
          "midi": 60,
          "name": "C4",
          "ticks": 15360,
          "time": 12,
          "velocity": 0.7874015748031497
        },
        {
          "duration": 0.15000000000000036,
          "durationTicks": 192,
          "midi": 57,
          "name": "A3",
          "ticks": 15360,
          "time": 12,
          "velocity": 0.7874015748031497
        },
        {
          "duration": 0.11249999999999893,
          "durationTicks": 144,
          "midi": 69,
          "name": "A4",
          "ticks": 15706,
          "time": 12.2703125,
          "velocity": 0.7086614173228346
        },
        {
          "duration": 0.11249999999999893,
          "durationTicks": 144,
          "midi": 77,
          "name": "F5",
          "ticks": 15706,
          "time": 12.2703125,
          "velocity": 0.7086614173228346
        },
        {
          "duration": 0.11249999999999893,
          "durationTicks": 144,
          "midi": 72,
          "name": "C5",
          "ticks": 15706,
          "time": 12.2703125,
          "velocity": 0.7086614173228346
        },
        {
          "duration": 0.15000000000000036,
          "durationTicks": 192,
          "midi": 60,
          "name": "C4",
          "ticks": 15744,
          "time": 12.299999999999999,
          "velocity": 0.7874015748031497
        },
        {
          "duration": 0.15000000000000036,
          "durationTicks": 192,
          "midi": 57,
          "name": "A3",
          "ticks": 15744,
          "time": 12.299999999999999,
          "velocity": 0.7874015748031497
        },
        {
          "duration": 0.15000000000000036,
          "durationTicks": 192,
          "midi": 62,
          "name": "D4",
          "ticks": 16128,
          "time": 12.6,
          "velocity": 0.7874015748031497
        },
        {
          "duration": 0.15000000000000036,
          "durationTicks": 192,
          "midi": 58,
          "name": "A#3",
          "ticks": 16128,
          "time": 12.6,
          "velocity": 0.7874015748031497
        },
        {
          "duration": 0.11250000000000071,
          "durationTicks": 144,
          "midi": 70,
          "name": "A#4",
          "ticks": 16446,
          "time": 12.8484375,
          "velocity": 0.7086614173228346
        },
        {
          "duration": 0.11250000000000071,
          "durationTicks": 144,
          "midi": 74,
          "name": "D5",
          "ticks": 16450,
          "time": 12.851562499999998,
          "velocity": 0.7086614173228346
        },
        {
          "duration": 0.11250000000000071,
          "durationTicks": 144,
          "midi": 77,
          "name": "F5",
          "ticks": 16450,
          "time": 12.851562499999998,
          "velocity": 0.7086614173228346
        },
        {
          "duration": 0.14999999999999858,
          "durationTicks": 192,
          "midi": 62,
          "name": "D4",
          "ticks": 16512,
          "time": 12.9,
          "velocity": 0.7874015748031497
        },
        {
          "duration": 0.14999999999999858,
          "durationTicks": 192,
          "midi": 58,
          "name": "A#3",
          "ticks": 16512,
          "time": 12.9,
          "velocity": 0.7874015748031497
        },
        {
          "duration": 0.15000000000000036,
          "durationTicks": 192,
          "midi": 62,
          "name": "D4",
          "ticks": 16896,
          "time": 13.2,
          "velocity": 0.7874015748031497
        },
        {
          "duration": 0.15000000000000036,
          "durationTicks": 192,
          "midi": 58,
          "name": "A#3",
          "ticks": 16896,
          "time": 13.2,
          "velocity": 0.7874015748031497
        },
        {
          "duration": 0.15000000000000036,
          "durationTicks": 192,
          "midi": 65,
          "name": "F4",
          "ticks": 17088,
          "time": 13.35,
          "velocity": 0.7874015748031497
        },
        {
          "duration": 0.15000000000000036,
          "durationTicks": 192,
          "midi": 62,
          "name": "D4",
          "ticks": 17088,
          "time": 13.35,
          "velocity": 0.7874015748031497
        },
        {
          "duration": 0.11250000000000071,
          "durationTicks": 144,
          "midi": 74,
          "name": "D5",
          "ticks": 17224,
          "time": 13.456249999999999,
          "velocity": 0.7086614173228346
        },
        {
          "duration": 0.043750000000001066,
          "durationTicks": 56,
          "midi": 70,
          "name": "A#4",
          "ticks": 17224,
          "time": 13.456249999999999,
          "velocity": 0.7086614173228346
        },
        {
          "duration": 0.11250000000000071,
          "durationTicks": 144,
          "midi": 77,
          "name": "F5",
          "ticks": 17224,
          "time": 13.456249999999999,
          "velocity": 0.7086614173228346
        },
        {
          "duration": 0.11875000000000036,
          "durationTicks": 152,
          "midi": 70,
          "name": "A#4",
          "ticks": 17280,
          "time": 13.5,
          "velocity": 0.7874015748031497
        },
        {
          "duration": 0.15000000000000036,
          "durationTicks": 192,
          "midi": 65,
          "name": "F4",
          "ticks": 17280,
          "time": 13.5,
          "velocity": 0.7874015748031497
        },
        {
          "duration": 0.03125,
          "durationTicks": 40,
          "midi": 70,
          "name": "A#4",
          "ticks": 17432,
          "time": 13.61875,
          "velocity": 0.7086614173228346
        },
        {
          "duration": 0.02968750000000142,
          "durationTicks": 38,
          "midi": 74,
          "name": "D5",
          "ticks": 17434,
          "time": 13.620312499999999,
          "velocity": 0.7086614173228346
        },
        {
          "duration": 0.11250000000000071,
          "durationTicks": 144,
          "midi": 77,
          "name": "F5",
          "ticks": 17440,
          "time": 13.624999999999998,
          "velocity": 0.7086614173228346
        },
        {
          "duration": 0.14999999999999858,
          "durationTicks": 192,
          "midi": 74,
          "name": "D5",
          "ticks": 17472,
          "time": 13.65,
          "velocity": 0.7874015748031497
        },
        {
          "duration": 0.14999999999999858,
          "durationTicks": 192,
          "midi": 70,
          "name": "A#4",
          "ticks": 17472,
          "time": 13.65,
          "velocity": 0.7874015748031497
        },
        {
          "duration": 0.11562499999999964,
          "durationTicks": 148,
          "midi": 74,
          "name": "D5",
          "ticks": 17856,
          "time": 13.95,
          "velocity": 0.7874015748031497
        },
        {
          "duration": 0.11562499999999964,
          "durationTicks": 148,
          "midi": 70,
          "name": "A#4",
          "ticks": 17856,
          "time": 13.95,
          "velocity": 0.7874015748031497
        },
        {
          "duration": 0.11250000000000071,
          "durationTicks": 144,
          "midi": 74,
          "name": "D5",
          "ticks": 18004,
          "time": 14.065624999999999,
          "velocity": 0.7086614173228346
        },
        {
          "duration": 0.11250000000000071,
          "durationTicks": 144,
          "midi": 70,
          "name": "A#4",
          "ticks": 18004,
          "time": 14.065624999999999,
          "velocity": 0.7086614173228346
        },
        {
          "duration": 0.11249999999999893,
          "durationTicks": 144,
          "midi": 77,
          "name": "F5",
          "ticks": 18012,
          "time": 14.071875,
          "velocity": 0.7086614173228346
        },
        {
          "duration": 0.14999999999999858,
          "durationTicks": 192,
          "midi": 74,
          "name": "D5",
          "ticks": 18240,
          "time": 14.25,
          "velocity": 0.7874015748031497
        },
        {
          "duration": 0.14999999999999858,
          "durationTicks": 192,
          "midi": 70,
          "name": "A#4",
          "ticks": 18240,
          "time": 14.25,
          "velocity": 0.7874015748031497
        },
        {
          "duration": 0.15000000000000036,
          "durationTicks": 192,
          "midi": 72,
          "name": "C5",
          "ticks": 18432,
          "time": 14.399999999999999,
          "velocity": 0.7874015748031497
        },
        {
          "duration": 0.15000000000000036,
          "durationTicks": 192,
          "midi": 69,
          "name": "A4",
          "ticks": 18432,
          "time": 14.399999999999999,
          "velocity": 0.7874015748031497
        },
        {
          "duration": 0.11250000000000071,
          "durationTicks": 144,
          "midi": 77,
          "name": "F5",
          "ticks": 18744,
          "time": 14.643749999999999,
          "velocity": 0.7086614173228346
        },
        {
          "duration": 0.11250000000000071,
          "durationTicks": 144,
          "midi": 69,
          "name": "A4",
          "ticks": 18746,
          "time": 14.6453125,
          "velocity": 0.7086614173228346
        },
        {
          "duration": 0.11250000000000071,
          "durationTicks": 144,
          "midi": 72,
          "name": "C5",
          "ticks": 18748,
          "time": 14.646874999999998,
          "velocity": 0.7086614173228346
        },
        {
          "duration": 0.15000000000000036,
          "durationTicks": 192,
          "midi": 65,
          "name": "F4",
          "ticks": 18816,
          "time": 14.7,
          "velocity": 0.7874015748031497
        },
        {
          "duration": 0.15000000000000036,
          "durationTicks": 192,
          "midi": 60,
          "name": "C4",
          "ticks": 18816,
          "time": 14.7,
          "velocity": 0.7874015748031497
        },
        {
          "duration": 0.14999999999999858,
          "durationTicks": 192,
          "midi": 62,
          "name": "D4",
          "ticks": 19200,
          "time": 15,
          "velocity": 0.7874015748031497
        },
        {
          "duration": 0.14999999999999858,
          "durationTicks": 192,
          "midi": 58,
          "name": "A#3",
          "ticks": 19200,
          "time": 15,
          "velocity": 0.7874015748031497
        },
        {
          "duration": 0.11250000000000071,
          "durationTicks": 144,
          "midi": 70,
          "name": "A#4",
          "ticks": 19536,
          "time": 15.2625,
          "velocity": 0.7086614173228346
        },
        {
          "duration": 0.11250000000000071,
          "durationTicks": 144,
          "midi": 77,
          "name": "F5",
          "ticks": 19536,
          "time": 15.2625,
          "velocity": 0.7086614173228346
        },
        {
          "duration": 0.11250000000000071,
          "durationTicks": 144,
          "midi": 74,
          "name": "D5",
          "ticks": 19540,
          "time": 15.265624999999998,
          "velocity": 0.7086614173228346
        },
        {
          "duration": 0.15000000000000036,
          "durationTicks": 192,
          "midi": 62,
          "name": "D4",
          "ticks": 19968,
          "time": 15.6,
          "velocity": 0.7874015748031497
        },
        {
          "duration": 0.15000000000000036,
          "durationTicks": 192,
          "midi": 58,
          "name": "A#3",
          "ticks": 19968,
          "time": 15.6,
          "velocity": 0.7874015748031497
        },
        {
          "duration": 0.11249999999999893,
          "durationTicks": 144,
          "midi": 70,
          "name": "A#4",
          "ticks": 20344,
          "time": 15.893749999999999,
          "velocity": 0.7086614173228346
        },
        {
          "duration": 0.11250000000000071,
          "durationTicks": 144,
          "midi": 77,
          "name": "F5",
          "ticks": 20346,
          "time": 15.8953125,
          "velocity": 0.7086614173228346
        },
        {
          "duration": 0.11250000000000071,
          "durationTicks": 144,
          "midi": 74,
          "name": "D5",
          "ticks": 20346,
          "time": 15.8953125,
          "velocity": 0.7086614173228346
        },
        {
          "duration": 0.14999999999999858,
          "durationTicks": 192,
          "midi": 65,
          "name": "F4",
          "ticks": 20544,
          "time": 16.05,
          "velocity": 0.7874015748031497
        },
        {
          "duration": 0.14999999999999858,
          "durationTicks": 192,
          "midi": 62,
          "name": "D4",
          "ticks": 20544,
          "time": 16.05,
          "velocity": 0.7874015748031497
        },
        {
          "duration": 0.11250000000000071,
          "durationTicks": 144,
          "midi": 70,
          "name": "A#4",
          "ticks": 20546,
          "time": 16.0515625,
          "velocity": 0.7086614173228346
        },
        {
          "duration": 0.11250000000000071,
          "durationTicks": 144,
          "midi": 74,
          "name": "D5",
          "ticks": 20546,
          "time": 16.0515625,
          "velocity": 0.7086614173228346
        },
        {
          "duration": 0.11250000000000071,
          "durationTicks": 144,
          "midi": 77,
          "name": "F5",
          "ticks": 20552,
          "time": 16.05625,
          "velocity": 0.7086614173228346
        },
        {
          "duration": 0.15000000000000213,
          "durationTicks": 192,
          "midi": 60,
          "name": "C4",
          "ticks": 20928,
          "time": 16.349999999999998,
          "velocity": 0.7874015748031497
        },
        {
          "duration": 0.15000000000000213,
          "durationTicks": 192,
          "midi": 57,
          "name": "A3",
          "ticks": 20928,
          "time": 16.349999999999998,
          "velocity": 0.7874015748031497
        },
        {
          "duration": 0.11250000000000071,
          "durationTicks": 144,
          "midi": 74,
          "name": "D5",
          "ticks": 21090,
          "time": 16.4765625,
          "velocity": 0.7086614173228346
        },
        {
          "duration": 0.11249999999999716,
          "durationTicks": 144,
          "midi": 70,
          "name": "A#4",
          "ticks": 21100,
          "time": 16.484375,
          "velocity": 0.7086614173228346
        },
        {
          "duration": 0.11250000000000071,
          "durationTicks": 144,
          "midi": 77,
          "name": "F5",
          "ticks": 21106,
          "time": 16.4890625,
          "velocity": 0.7086614173228346
        },
        {
          "duration": 0.14999999999999858,
          "durationTicks": 192,
          "midi": 60,
          "name": "C4",
          "ticks": 21504,
          "time": 16.8,
          "velocity": 0.7874015748031497
        },
        {
          "duration": 0.14999999999999858,
          "durationTicks": 192,
          "midi": 57,
          "name": "A3",
          "ticks": 21504,
          "time": 16.8,
          "velocity": 0.7874015748031497
        },
        {
          "duration": 0.11249999999999716,
          "durationTicks": 144,
          "midi": 72,
          "name": "C5",
          "ticks": 21850,
          "time": 17.0703125,
          "velocity": 0.7086614173228346
        },
        {
          "duration": 0.11249999999999716,
          "durationTicks": 144,
          "midi": 69,
          "name": "A4",
          "ticks": 21850,
          "time": 17.0703125,
          "velocity": 0.7086614173228346
        },
        {
          "duration": 0.11249999999999716,
          "durationTicks": 144,
          "midi": 77,
          "name": "F5",
          "ticks": 21850,
          "time": 17.0703125,
          "velocity": 0.7086614173228346
        },
        {
          "duration": 0.15000000000000213,
          "durationTicks": 192,
          "midi": 60,
          "name": "C4",
          "ticks": 21888,
          "time": 17.099999999999998,
          "velocity": 0.7874015748031497
        },
        {
          "duration": 0.15000000000000213,
          "durationTicks": 192,
          "midi": 57,
          "name": "A3",
          "ticks": 21888,
          "time": 17.099999999999998,
          "velocity": 0.7874015748031497
        },
        {
          "duration": 0.15000000000000213,
          "durationTicks": 192,
          "midi": 62,
          "name": "D4",
          "ticks": 22272,
          "time": 17.4,
          "velocity": 0.7874015748031497
        },
        {
          "duration": 0.15000000000000213,
          "durationTicks": 192,
          "midi": 58,
          "name": "A#3",
          "ticks": 22272,
          "time": 17.4,
          "velocity": 0.7874015748031497
        },
        {
          "duration": 0.11250000000000071,
          "durationTicks": 144,
          "midi": 77,
          "name": "F5",
          "ticks": 22602,
          "time": 17.6578125,
          "velocity": 0.7086614173228346
        },
        {
          "duration": 0.11250000000000071,
          "durationTicks": 144,
          "midi": 70,
          "name": "A#4",
          "ticks": 22602,
          "time": 17.6578125,
          "velocity": 0.7086614173228346
        },
        {
          "duration": 0.11250000000000071,
          "durationTicks": 144,
          "midi": 74,
          "name": "D5",
          "ticks": 22610,
          "time": 17.6640625,
          "velocity": 0.7086614173228346
        },
        {
          "duration": 0.14999999999999858,
          "durationTicks": 192,
          "midi": 62,
          "name": "D4",
          "ticks": 22656,
          "time": 17.7,
          "velocity": 0.7874015748031497
        },
        {
          "duration": 0.14999999999999858,
          "durationTicks": 192,
          "midi": 58,
          "name": "A#3",
          "ticks": 22656,
          "time": 17.7,
          "velocity": 0.7874015748031497
        },
        {
          "duration": 0.14999999999999858,
          "durationTicks": 192,
          "midi": 62,
          "name": "D4",
          "ticks": 23040,
          "time": 18,
          "velocity": 0.7874015748031497
        },
        {
          "duration": 0.14999999999999858,
          "durationTicks": 192,
          "midi": 58,
          "name": "A#3",
          "ticks": 23040,
          "time": 18,
          "velocity": 0.7874015748031497
        },
        {
          "duration": 0.15000000000000213,
          "durationTicks": 192,
          "midi": 65,
          "name": "F4",
          "ticks": 23232,
          "time": 18.15,
          "velocity": 0.7874015748031497
        },
        {
          "duration": 0.15000000000000213,
          "durationTicks": 192,
          "midi": 62,
          "name": "D4",
          "ticks": 23232,
          "time": 18.15,
          "velocity": 0.7874015748031497
        },
        {
          "duration": 0.11250000000000071,
          "durationTicks": 144,
          "midi": 74,
          "name": "D5",
          "ticks": 23386,
          "time": 18.2703125,
          "velocity": 0.7086614173228346
        },
        {
          "duration": 0.02656250000000071,
          "durationTicks": 34,
          "midi": 70,
          "name": "A#4",
          "ticks": 23390,
          "time": 18.2734375,
          "velocity": 0.7086614173228346
        },
        {
          "duration": 0.11250000000000071,
          "durationTicks": 144,
          "midi": 77,
          "name": "F5",
          "ticks": 23392,
          "time": 18.275,
          "velocity": 0.7086614173228346
        },
        {
          "duration": 0.12499999999999645,
          "durationTicks": 160,
          "midi": 70,
          "name": "A#4",
          "ticks": 23424,
          "time": 18.3,
          "velocity": 0.7874015748031497
        },
        {
          "duration": 0.14999999999999858,
          "durationTicks": 192,
          "midi": 65,
          "name": "F4",
          "ticks": 23424,
          "time": 18.3,
          "velocity": 0.7874015748031497
        },
        {
          "duration": 0.02500000000000213,
          "durationTicks": 32,
          "midi": 70,
          "name": "A#4",
          "ticks": 23584,
          "time": 18.424999999999997,
          "velocity": 0.7086614173228346
        },
        {
          "duration": 0.0234375,
          "durationTicks": 30,
          "midi": 74,
          "name": "D5",
          "ticks": 23586,
          "time": 18.4265625,
          "velocity": 0.7086614173228346
        },
        {
          "duration": 0.11250000000000071,
          "durationTicks": 144,
          "midi": 77,
          "name": "F5",
          "ticks": 23594,
          "time": 18.4328125,
          "velocity": 0.7086614173228346
        },
        {
          "duration": 0.14999999999999858,
          "durationTicks": 192,
          "midi": 74,
          "name": "D5",
          "ticks": 23616,
          "time": 18.45,
          "velocity": 0.7874015748031497
        },
        {
          "duration": 0.14999999999999858,
          "durationTicks": 192,
          "midi": 70,
          "name": "A#4",
          "ticks": 23616,
          "time": 18.45,
          "velocity": 0.7874015748031497
        },
        {
          "duration": 0.10781249999999787,
          "durationTicks": 138,
          "midi": 74,
          "name": "D5",
          "ticks": 24000,
          "time": 18.75,
          "velocity": 0.7874015748031497
        },
        {
          "duration": 0.109375,
          "durationTicks": 140,
          "midi": 70,
          "name": "A#4",
          "ticks": 24000,
          "time": 18.75,
          "velocity": 0.7874015748031497
        },
        {
          "duration": 0.11250000000000071,
          "durationTicks": 144,
          "midi": 74,
          "name": "D5",
          "ticks": 24138,
          "time": 18.857812499999998,
          "velocity": 0.7086614173228346
        },
        {
          "duration": 0.11250000000000071,
          "durationTicks": 144,
          "midi": 70,
          "name": "A#4",
          "ticks": 24140,
          "time": 18.859375,
          "velocity": 0.7086614173228346
        },
        {
          "duration": 0.11250000000000071,
          "durationTicks": 144,
          "midi": 77,
          "name": "F5",
          "ticks": 24146,
          "time": 18.8640625,
          "velocity": 0.7086614173228346
        },
        {
          "duration": 0.14999999999999858,
          "durationTicks": 192,
          "midi": 74,
          "name": "D5",
          "ticks": 24384,
          "time": 19.05,
          "velocity": 0.7874015748031497
        },
        {
          "duration": 0.14999999999999858,
          "durationTicks": 192,
          "midi": 70,
          "name": "A#4",
          "ticks": 24384,
          "time": 19.05,
          "velocity": 0.7874015748031497
        },
        {
          "duration": 0.14999999999999858,
          "durationTicks": 192,
          "midi": 72,
          "name": "C5",
          "ticks": 24576,
          "time": 19.2,
          "velocity": 0.7874015748031497
        },
        {
          "duration": 0.14999999999999858,
          "durationTicks": 192,
          "midi": 69,
          "name": "A4",
          "ticks": 24576,
          "time": 19.2,
          "velocity": 0.7874015748031497
        },
        {
          "duration": 0.05468750000000355,
          "durationTicks": 70,
          "midi": 69,
          "name": "A4",
          "ticks": 24890,
          "time": 19.445312499999996,
          "velocity": 0.7086614173228346
        },
        {
          "duration": 0.05156249999999929,
          "durationTicks": 66,
          "midi": 72,
          "name": "C5",
          "ticks": 24894,
          "time": 19.4484375,
          "velocity": 0.7086614173228346
        },
        {
          "duration": 0.11249999999999716,
          "durationTicks": 144,
          "midi": 77,
          "name": "F5",
          "ticks": 24896,
          "time": 19.45,
          "velocity": 0.7086614173228346
        },
        {
          "duration": 0.14999999999999858,
          "durationTicks": 192,
          "midi": 72,
          "name": "C5",
          "ticks": 24960,
          "time": 19.5,
          "velocity": 0.7874015748031497
        },
        {
          "duration": 0.14999999999999858,
          "durationTicks": 192,
          "midi": 69,
          "name": "A4",
          "ticks": 24960,
          "time": 19.5,
          "velocity": 0.7874015748031497
        },
        {
          "duration": 0.14999999999999858,
          "durationTicks": 192,
          "midi": 70,
          "name": "A#4",
          "ticks": 25344,
          "time": 19.8,
          "velocity": 0.7874015748031497
        },
        {
          "duration": 0.14999999999999858,
          "durationTicks": 192,
          "midi": 62,
          "name": "D4",
          "ticks": 25344,
          "time": 19.8,
          "velocity": 0.7874015748031497
        },
        {
          "duration": 0.11250000000000071,
          "durationTicks": 144,
          "midi": 70,
          "name": "A#4",
          "ticks": 25664,
          "time": 20.049999999999997,
          "velocity": 0.7086614173228346
        },
        {
          "duration": 0.11250000000000071,
          "durationTicks": 144,
          "midi": 77,
          "name": "F5",
          "ticks": 25666,
          "time": 20.0515625,
          "velocity": 0.7086614173228346
        },
        {
          "duration": 0.11250000000000071,
          "durationTicks": 144,
          "midi": 74,
          "name": "D5",
          "ticks": 25670,
          "time": 20.054687499999996,
          "velocity": 0.7086614173228346
        },
        {
          "duration": 0.15000000000000213,
          "durationTicks": 192,
          "midi": 67,
          "name": "G4",
          "ticks": 26112,
          "time": 20.4,
          "velocity": 0.7874015748031497
        },
        {
          "duration": 0.11093749999999858,
          "durationTicks": 142,
          "midi": 70,
          "name": "A#4",
          "ticks": 26304,
          "time": 20.55,
          "velocity": 0.7874015748031497
        },
        {
          "duration": 0.11250000000000071,
          "durationTicks": 144,
          "midi": 70,
          "name": "A#4",
          "ticks": 26446,
          "time": 20.6609375,
          "velocity": 0.7086614173228346
        },
        {
          "duration": 0.11250000000000071,
          "durationTicks": 144,
          "midi": 67,
          "name": "G4",
          "ticks": 26448,
          "time": 20.662499999999998,
          "velocity": 0.7086614173228346
        },
        {
          "duration": 0.03593750000000284,
          "durationTicks": 46,
          "midi": 75,
          "name": "D#5",
          "ticks": 26450,
          "time": 20.664062499999996,
          "velocity": 0.7086614173228346
        },
        {
          "duration": 0.11874999999999858,
          "durationTicks": 152,
          "midi": 75,
          "name": "D#5",
          "ticks": 26496,
          "time": 20.7,
          "velocity": 0.7874015748031497
        },
        {
          "duration": 0.11250000000000071,
          "durationTicks": 144,
          "midi": 67,
          "name": "G4",
          "ticks": 26640,
          "time": 20.8125,
          "velocity": 0.7086614173228346
        },
        {
          "duration": 0.11250000000000071,
          "durationTicks": 144,
          "midi": 70,
          "name": "A#4",
          "ticks": 26642,
          "time": 20.8140625,
          "velocity": 0.7086614173228346
        },
        {
          "duration": 0.03125,
          "durationTicks": 40,
          "midi": 75,
          "name": "D#5",
          "ticks": 26648,
          "time": 20.818749999999998,
          "velocity": 0.7086614173228346
        },
        {
          "duration": 0.15000000000000213,
          "durationTicks": 192,
          "midi": 75,
          "name": "D#5",
          "ticks": 26688,
          "time": 20.849999999999998,
          "velocity": 0.7874015748031497
        },
        {
          "duration": 0.15000000000000213,
          "durationTicks": 192,
          "midi": 79,
          "name": "G5",
          "ticks": 26688,
          "time": 20.849999999999998,
          "velocity": 0.7874015748031497
        },
        {
          "duration": 0.11406249999999929,
          "durationTicks": 146,
          "midi": 75,
          "name": "D#5",
          "ticks": 27072,
          "time": 21.15,
          "velocity": 0.7874015748031497
        },
        {
          "duration": 0.15000000000000213,
          "durationTicks": 192,
          "midi": 79,
          "name": "G5",
          "ticks": 27072,
          "time": 21.15,
          "velocity": 0.7874015748031497
        },
        {
          "duration": 0.11250000000000071,
          "durationTicks": 144,
          "midi": 67,
          "name": "G4",
          "ticks": 27218,
          "time": 21.264062499999998,
          "velocity": 0.7086614173228346
        },
        {
          "duration": 0.11250000000000071,
          "durationTicks": 144,
          "midi": 75,
          "name": "D#5",
          "ticks": 27218,
          "time": 21.264062499999998,
          "velocity": 0.7086614173228346
        },
        {
          "duration": 0.11250000000000071,
          "durationTicks": 144,
          "midi": 70,
          "name": "A#4",
          "ticks": 27222,
          "time": 21.2671875,
          "velocity": 0.7086614173228346
        },
        {
          "duration": 0.15000000000000213,
          "durationTicks": 192,
          "midi": 77,
          "name": "F5",
          "ticks": 27648,
          "time": 21.599999999999998,
          "velocity": 0.7874015748031497
        },
        {
          "duration": 0.15000000000000213,
          "durationTicks": 192,
          "midi": 74,
          "name": "D5",
          "ticks": 27648,
          "time": 21.599999999999998,
          "velocity": 0.7874015748031497
        },
        {
          "duration": 0.11250000000000071,
          "durationTicks": 144,
          "midi": 65,
          "name": "F4",
          "ticks": 27988,
          "time": 21.865625,
          "velocity": 0.7086614173228346
        },
        {
          "duration": 0.03125,
          "durationTicks": 40,
          "midi": 70,
          "name": "A#4",
          "ticks": 27992,
          "time": 21.86875,
          "velocity": 0.7086614173228346
        },
        {
          "duration": 0.03125,
          "durationTicks": 40,
          "midi": 74,
          "name": "D5",
          "ticks": 27992,
          "time": 21.86875,
          "velocity": 0.7086614173228346
        },
        {
          "duration": 0.1171875,
          "durationTicks": 150,
          "midi": 74,
          "name": "D5",
          "ticks": 28032,
          "time": 21.9,
          "velocity": 0.7874015748031497
        },
        {
          "duration": 0.12187499999999929,
          "durationTicks": 156,
          "midi": 70,
          "name": "A#4",
          "ticks": 28032,
          "time": 21.9,
          "velocity": 0.7874015748031497
        },
        {
          "duration": 0.11250000000000071,
          "durationTicks": 144,
          "midi": 74,
          "name": "D5",
          "ticks": 28182,
          "time": 22.0171875,
          "velocity": 0.7086614173228346
        },
        {
          "duration": 0.11250000000000071,
          "durationTicks": 144,
          "midi": 65,
          "name": "F4",
          "ticks": 28182,
          "time": 22.0171875,
          "velocity": 0.7086614173228346
        },
        {
          "duration": 0.11250000000000071,
          "durationTicks": 144,
          "midi": 70,
          "name": "A#4",
          "ticks": 28188,
          "time": 22.021874999999998,
          "velocity": 0.7086614173228346
        },
        {
          "duration": 0.14999999999999858,
          "durationTicks": 192,
          "midi": 70,
          "name": "A#4",
          "ticks": 28416,
          "time": 22.2,
          "velocity": 0.7874015748031497
        },
        {
          "duration": 0.14999999999999858,
          "durationTicks": 192,
          "midi": 65,
          "name": "F4",
          "ticks": 28416,
          "time": 22.2,
          "velocity": 0.7874015748031497
        },
        {
          "duration": 0.04531250000000142,
          "durationTicks": 58,
          "midi": 70,
          "name": "A#4",
          "ticks": 28742,
          "time": 22.4546875,
          "velocity": 0.7086614173228346
        },
        {
          "duration": 0.11250000000000071,
          "durationTicks": 144,
          "midi": 65,
          "name": "F4",
          "ticks": 28746,
          "time": 22.4578125,
          "velocity": 0.7086614173228346
        },
        {
          "duration": 0.04218750000000071,
          "durationTicks": 54,
          "midi": 74,
          "name": "D5",
          "ticks": 28746,
          "time": 22.4578125,
          "velocity": 0.7086614173228346
        },
        {
          "duration": 0.14999999999999858,
          "durationTicks": 192,
          "midi": 74,
          "name": "D5",
          "ticks": 28800,
          "time": 22.5,
          "velocity": 0.7874015748031497
        },
        {
          "duration": 0.14999999999999858,
          "durationTicks": 192,
          "midi": 70,
          "name": "A#4",
          "ticks": 28800,
          "time": 22.5,
          "velocity": 0.7874015748031497
        },
        {
          "duration": 0.14999999999999858,
          "durationTicks": 192,
          "midi": 60,
          "name": "C4",
          "ticks": 29184,
          "time": 22.8,
          "velocity": 0.7874015748031497
        },
        {
          "duration": 0.14999999999999858,
          "durationTicks": 192,
          "midi": 65,
          "name": "F4",
          "ticks": 29184,
          "time": 22.8,
          "velocity": 0.7874015748031497
        },
        {
          "duration": 0.11250000000000071,
          "durationTicks": 144,
          "midi": 65,
          "name": "F4",
          "ticks": 29376,
          "time": 22.95,
          "velocity": 0.7874015748031497
        },
        {
          "duration": 0.11406249999999929,
          "durationTicks": 146,
          "midi": 69,
          "name": "A4",
          "ticks": 29376,
          "time": 22.95,
          "velocity": 0.7874015748031497
        },
        {
          "duration": 0.11250000000000071,
          "durationTicks": 144,
          "midi": 65,
          "name": "F4",
          "ticks": 29520,
          "time": 23.0625,
          "velocity": 0.7086614173228346
        },
        {
          "duration": 0.03593749999999929,
          "durationTicks": 46,
          "midi": 69,
          "name": "A4",
          "ticks": 29522,
          "time": 23.0640625,
          "velocity": 0.7086614173228346
        },
        {
          "duration": 0.03125,
          "durationTicks": 40,
          "midi": 72,
          "name": "C5",
          "ticks": 29528,
          "time": 23.068749999999998,
          "velocity": 0.7086614173228346
        },
        {
          "duration": 0.11874999999999858,
          "durationTicks": 152,
          "midi": 69,
          "name": "A4",
          "ticks": 29568,
          "time": 23.099999999999998,
          "velocity": 0.7874015748031497
        },
        {
          "duration": 0.1171875,
          "durationTicks": 150,
          "midi": 72,
          "name": "C5",
          "ticks": 29568,
          "time": 23.099999999999998,
          "velocity": 0.7874015748031497
        },
        {
          "duration": 0.11250000000000071,
          "durationTicks": 144,
          "midi": 65,
          "name": "F4",
          "ticks": 29718,
          "time": 23.217187499999998,
          "velocity": 0.7086614173228346
        },
        {
          "duration": 0.03281250000000213,
          "durationTicks": 42,
          "midi": 72,
          "name": "C5",
          "ticks": 29718,
          "time": 23.217187499999998,
          "velocity": 0.7086614173228346
        },
        {
          "duration": 0.11250000000000071,
          "durationTicks": 144,
          "midi": 69,
          "name": "A4",
          "ticks": 29720,
          "time": 23.218749999999996,
          "velocity": 0.7086614173228346
        },
        {
          "duration": 0.14999999999999858,
          "durationTicks": 192,
          "midi": 72,
          "name": "C5",
          "ticks": 29760,
          "time": 23.25,
          "velocity": 0.7874015748031497
        },
        {
          "duration": 0.14999999999999858,
          "durationTicks": 192,
          "midi": 77,
          "name": "F5",
          "ticks": 29760,
          "time": 23.25,
          "velocity": 0.7874015748031497
        },
        {
          "duration": 0.14999999999999858,
          "durationTicks": 192,
          "midi": 75,
          "name": "D#5",
          "ticks": 30144,
          "time": 23.55,
          "velocity": 0.7874015748031497
        },
        {
          "duration": 0.10781249999999787,
          "durationTicks": 138,
          "midi": 72,
          "name": "C5",
          "ticks": 30144,
          "time": 23.55,
          "velocity": 0.7874015748031497
        },
        {
          "duration": 0.11250000000000071,
          "durationTicks": 144,
          "midi": 69,
          "name": "A4",
          "ticks": 30276,
          "time": 23.653125,
          "velocity": 0.7086614173228346
        },
        {
          "duration": 0.11250000000000071,
          "durationTicks": 144,
          "midi": 72,
          "name": "C5",
          "ticks": 30282,
          "time": 23.6578125,
          "velocity": 0.7086614173228346
        },
        {
          "duration": 0.11250000000000071,
          "durationTicks": 144,
          "midi": 65,
          "name": "F4",
          "ticks": 30286,
          "time": 23.6609375,
          "velocity": 0.7086614173228346
        },
        {
          "duration": 0.05000000000000426,
          "durationTicks": 64,
          "midi": 70,
          "name": "A#4",
          "ticks": 31040,
          "time": 24.249999999999996,
          "velocity": 0.7086614173228346
        },
        {
          "duration": 0.11250000000000071,
          "durationTicks": 144,
          "midi": 65,
          "name": "F4",
          "ticks": 31040,
          "time": 24.249999999999996,
          "velocity": 0.7086614173228346
        },
        {
          "duration": 0.04374999999999929,
          "durationTicks": 56,
          "midi": 74,
          "name": "D5",
          "ticks": 31048,
          "time": 24.25625,
          "velocity": 0.7086614173228346
        },
        {
          "duration": 0.10624999999999929,
          "durationTicks": 136,
          "midi": 74,
          "name": "D5",
          "ticks": 31104,
          "time": 24.3,
          "velocity": 0.7874015748031497
        },
        {
          "duration": 0.10624999999999929,
          "durationTicks": 136,
          "midi": 70,
          "name": "A#4",
          "ticks": 31104,
          "time": 24.3,
          "velocity": 0.7874015748031497
        },
        {
          "duration": 0.11250000000000071,
          "durationTicks": 144,
          "midi": 74,
          "name": "D5",
          "ticks": 31240,
          "time": 24.40625,
          "velocity": 0.7086614173228346
        },
        {
          "duration": 0.11250000000000071,
          "durationTicks": 144,
          "midi": 65,
          "name": "F4",
          "ticks": 31240,
          "time": 24.40625,
          "velocity": 0.7086614173228346
        },
        {
          "duration": 0.11250000000000071,
          "durationTicks": 144,
          "midi": 70,
          "name": "A#4",
          "ticks": 31240,
          "time": 24.40625,
          "velocity": 0.7086614173228346
        },
        {
          "duration": 0.06406250000000213,
          "durationTicks": 82,
          "midi": 65,
          "name": "F4",
          "ticks": 31790,
          "time": 24.835937499999996,
          "velocity": 0.7086614173228346
        },
        {
          "duration": 0.06406250000000213,
          "durationTicks": 82,
          "midi": 70,
          "name": "A#4",
          "ticks": 31790,
          "time": 24.835937499999996,
          "velocity": 0.7086614173228346
        },
        {
          "duration": 0.11250000000000071,
          "durationTicks": 144,
          "midi": 74,
          "name": "D5",
          "ticks": 31798,
          "time": 24.8421875,
          "velocity": 0.7086614173228346
        },
        {
          "duration": 0.15000000000000213,
          "durationTicks": 192,
          "midi": 70,
          "name": "A#4",
          "ticks": 31872,
          "time": 24.9,
          "velocity": 0.7874015748031497
        },
        {
          "duration": 0.15000000000000213,
          "durationTicks": 192,
          "midi": 65,
          "name": "F4",
          "ticks": 31872,
          "time": 24.9,
          "velocity": 0.7874015748031497
        },
        {
          "duration": 0.14999999999999858,
          "durationTicks": 192,
          "midi": 79,
          "name": "G5",
          "ticks": 32256,
          "time": 25.2,
          "velocity": 0.7874015748031497
        },
        {
          "duration": 0.15000000000000213,
          "durationTicks": 192,
          "midi": 77,
          "name": "F5",
          "ticks": 32448,
          "time": 25.349999999999998,
          "velocity": 0.7874015748031497
        },
        {
          "duration": 0.11250000000000071,
          "durationTicks": 144,
          "midi": 67,
          "name": "G4",
          "ticks": 32580,
          "time": 25.453125,
          "velocity": 0.7086614173228346
        },
        {
          "duration": 0.11250000000000071,
          "durationTicks": 144,
          "midi": 70,
          "name": "A#4",
          "ticks": 32582,
          "time": 25.4546875,
          "velocity": 0.7086614173228346
        },
        {
          "duration": 0.04531250000000142,
          "durationTicks": 58,
          "midi": 75,
          "name": "D#5",
          "ticks": 32582,
          "time": 25.4546875,
          "velocity": 0.7086614173228346
        },
        {
          "duration": 0.11874999999999858,
          "durationTicks": 152,
          "midi": 75,
          "name": "D#5",
          "ticks": 32640,
          "time": 25.5,
          "velocity": 0.7874015748031497
        },
        {
          "duration": 0.11250000000000071,
          "durationTicks": 144,
          "midi": 67,
          "name": "G4",
          "ticks": 32780,
          "time": 25.609374999999996,
          "velocity": 0.7086614173228346
        },
        {
          "duration": 0.11249999999999716,
          "durationTicks": 144,
          "midi": 70,
          "name": "A#4",
          "ticks": 32786,
          "time": 25.6140625,
          "velocity": 0.7086614173228346
        },
        {
          "duration": 0.11250000000000071,
          "durationTicks": 144,
          "midi": 75,
          "name": "D#5",
          "ticks": 32792,
          "time": 25.61875,
          "velocity": 0.7086614173228346
        },
        {
          "duration": 0.15000000000000213,
          "durationTicks": 192,
          "midi": 74,
          "name": "D5",
          "ticks": 32832,
          "time": 25.65,
          "velocity": 0.7874015748031497
        },
        {
          "duration": 0.14999999999999858,
          "durationTicks": 192,
          "midi": 72,
          "name": "C5",
          "ticks": 33024,
          "time": 25.8,
          "velocity": 0.7874015748031497
        },
        {
          "duration": 0.11406249999999929,
          "durationTicks": 146,
          "midi": 70,
          "name": "A#4",
          "ticks": 33216,
          "time": 25.95,
          "velocity": 0.7874015748031497
        },
        {
          "duration": 0.11250000000000071,
          "durationTicks": 144,
          "midi": 75,
          "name": "D#5",
          "ticks": 33362,
          "time": 26.0640625,
          "velocity": 0.7086614173228346
        },
        {
          "duration": 0.11250000000000071,
          "durationTicks": 144,
          "midi": 67,
          "name": "G4",
          "ticks": 33362,
          "time": 26.0640625,
          "velocity": 0.7086614173228346
        },
        {
          "duration": 0.11250000000000071,
          "durationTicks": 144,
          "midi": 70,
          "name": "A#4",
          "ticks": 33362,
          "time": 26.0640625,
          "velocity": 0.7086614173228346
        },
        {
          "duration": 0.15000000000000213,
          "durationTicks": 192,
          "midi": 69,
          "name": "A4",
          "ticks": 33408,
          "time": 26.099999999999998,
          "velocity": 0.7874015748031497
        },
        {
          "duration": 0.14999999999999858,
          "durationTicks": 192,
          "midi": 67,
          "name": "G4",
          "ticks": 33600,
          "time": 26.25,
          "velocity": 0.7874015748031497
        },
        {
          "duration": 0.15000000000000213,
          "durationTicks": 192,
          "midi": 65,
          "name": "F4",
          "ticks": 33792,
          "time": 26.4,
          "velocity": 0.7874015748031497
        },
        {
          "duration": 0.08906249999999716,
          "durationTicks": 114,
          "midi": 65,
          "name": "F4",
          "ticks": 33984,
          "time": 26.55,
          "velocity": 0.7874015748031497
        },
        {
          "duration": 0.0625,
          "durationTicks": 80,
          "midi": 70,
          "name": "A#4",
          "ticks": 34096,
          "time": 26.6375,
          "velocity": 0.7086614173228346
        },
        {
          "duration": 0.11250000000000071,
          "durationTicks": 144,
          "midi": 65,
          "name": "F4",
          "ticks": 34098,
          "time": 26.639062499999998,
          "velocity": 0.7086614173228346
        },
        {
          "duration": 0.11249999999999716,
          "durationTicks": 144,
          "midi": 74,
          "name": "D5",
          "ticks": 34102,
          "time": 26.642187500000002,
          "velocity": 0.7086614173228346
        },
        {
          "duration": 0.09843749999999929,
          "durationTicks": 126,
          "midi": 70,
          "name": "A#4",
          "ticks": 34176,
          "time": 26.7,
          "velocity": 0.7874015748031497
        },
        {
          "duration": 0.11250000000000071,
          "durationTicks": 144,
          "midi": 65,
          "name": "F4",
          "ticks": 34296,
          "time": 26.79375,
          "velocity": 0.7086614173228346
        },
        {
          "duration": 0.11250000000000071,
          "durationTicks": 144,
          "midi": 74,
          "name": "D5",
          "ticks": 34296,
          "time": 26.79375,
          "velocity": 0.7086614173228346
        },
        {
          "duration": 0.05156249999999929,
          "durationTicks": 66,
          "midi": 70,
          "name": "A#4",
          "ticks": 34302,
          "time": 26.7984375,
          "velocity": 0.7086614173228346
        },
        {
          "duration": 0.15000000000000213,
          "durationTicks": 192,
          "midi": 70,
          "name": "A#4",
          "ticks": 34368,
          "time": 26.849999999999998,
          "velocity": 0.7874015748031497
        },
        {
          "duration": 0.14999999999999858,
          "durationTicks": 192,
          "midi": 74,
          "name": "D5",
          "ticks": 34560,
          "time": 27,
          "velocity": 0.7874015748031497
        },
        {
          "duration": 0.11250000000000071,
          "durationTicks": 144,
          "midi": 65,
          "name": "F4",
          "ticks": 34872,
          "time": 27.24375,
          "velocity": 0.7086614173228346
        },
        {
          "duration": 0.11250000000000071,
          "durationTicks": 144,
          "midi": 70,
          "name": "A#4",
          "ticks": 34872,
          "time": 27.24375,
          "velocity": 0.7086614173228346
        },
        {
          "duration": 0.11250000000000071,
          "durationTicks": 144,
          "midi": 74,
          "name": "D5",
          "ticks": 34872,
          "time": 27.24375,
          "velocity": 0.7086614173228346
        },
        {
          "duration": 0.14999999999999858,
          "durationTicks": 192,
          "midi": 77,
          "name": "F5",
          "ticks": 34944,
          "time": 27.3,
          "velocity": 0.7874015748031497
        },
        {
          "duration": 0.15000000000000213,
          "durationTicks": 192,
          "midi": 89,
          "name": "F6",
          "ticks": 35328,
          "time": 27.599999999999998,
          "velocity": 1
        },
        {
          "duration": 0.14999999999999858,
          "durationTicks": 192,
          "midi": 87,
          "name": "D#6",
          "ticks": 35376,
          "time": 27.6375,
          "velocity": 1
        },
        {
          "duration": 0.14999999999999858,
          "durationTicks": 192,
          "midi": 86,
          "name": "D6",
          "ticks": 35424,
          "time": 27.675,
          "velocity": 1
        },
        {
          "duration": 0.15000000000000213,
          "durationTicks": 192,
          "midi": 84,
          "name": "C6",
          "ticks": 35472,
          "time": 27.7125,
          "velocity": 1
        },
        {
          "duration": 0.14999999999999858,
          "durationTicks": 192,
          "midi": 82,
          "name": "A#5",
          "ticks": 35520,
          "time": 27.75,
          "velocity": 1
        },
        {
          "duration": 0.15000000000000213,
          "durationTicks": 192,
          "midi": 81,
          "name": "A5",
          "ticks": 35568,
          "time": 27.787499999999998,
          "velocity": 1
        },
        {
          "duration": 0.14999999999999858,
          "durationTicks": 192,
          "midi": 79,
          "name": "G5",
          "ticks": 35616,
          "time": 27.825,
          "velocity": 1
        },
        {
          "duration": 0.11250000000000071,
          "durationTicks": 144,
          "midi": 69,
          "name": "A4",
          "ticks": 35652,
          "time": 27.853125,
          "velocity": 0.7086614173228346
        },
        {
          "duration": 0.11250000000000071,
          "durationTicks": 144,
          "midi": 72,
          "name": "C5",
          "ticks": 35652,
          "time": 27.853125,
          "velocity": 0.7086614173228346
        },
        {
          "duration": 0.11250000000000071,
          "durationTicks": 144,
          "midi": 65,
          "name": "F4",
          "ticks": 35656,
          "time": 27.85625,
          "velocity": 0.7086614173228346
        },
        {
          "duration": 0.14999999999999858,
          "durationTicks": 192,
          "midi": 77,
          "name": "F5",
          "ticks": 35664,
          "time": 27.8625,
          "velocity": 1
        },
        {
          "duration": 0.15000000000000213,
          "durationTicks": 192,
          "midi": 75,
          "name": "D#5",
          "ticks": 35712,
          "time": 27.9,
          "velocity": 1
        },
        {
          "duration": 0.14999999999999858,
          "durationTicks": 192,
          "midi": 74,
          "name": "D5",
          "ticks": 35760,
          "time": 27.9375,
          "velocity": 1
        },
        {
          "duration": 0.04062500000000213,
          "durationTicks": 52,
          "midi": 72,
          "name": "C5",
          "ticks": 35808,
          "time": 27.974999999999998,
          "velocity": 1
        },
        {
          "duration": 0.14999999999999858,
          "durationTicks": 192,
          "midi": 70,
          "name": "A#4",
          "ticks": 35856,
          "time": 28.0125,
          "velocity": 1
        },
        {
          "duration": 0.109375,
          "durationTicks": 140,
          "midi": 65,
          "name": "F4",
          "ticks": 35860,
          "time": 28.015625,
          "velocity": 0.7086614173228346
        },
        {
          "duration": 0.11250000000000071,
          "durationTicks": 144,
          "midi": 72,
          "name": "C5",
          "ticks": 35860,
          "time": 28.015625,
          "velocity": 0.7086614173228346
        },
        {
          "duration": 0.02968750000000142,
          "durationTicks": 38,
          "midi": 69,
          "name": "A4",
          "ticks": 35866,
          "time": 28.0203125,
          "velocity": 0.7086614173228346
        },
        {
          "duration": 0.14999999999999858,
          "durationTicks": 192,
          "midi": 69,
          "name": "A4",
          "ticks": 35904,
          "time": 28.05,
          "velocity": 1
        },
        {
          "duration": 0.15000000000000213,
          "durationTicks": 192,
          "midi": 67,
          "name": "G4",
          "ticks": 35952,
          "time": 28.0875,
          "velocity": 1
        },
        {
          "duration": 0.14999999999999858,
          "durationTicks": 192,
          "midi": 65,
          "name": "F4",
          "ticks": 36000,
          "time": 28.125,
          "velocity": 1
        },
        {
          "duration": 0.15000000000000213,
          "durationTicks": 192,
          "midi": 63,
          "name": "D#4",
          "ticks": 36048,
          "time": 28.162499999999998,
          "velocity": 1
        },
        {
          "duration": 0.14999999999999858,
          "durationTicks": 192,
          "midi": 62,
          "name": "D4",
          "ticks": 36096,
          "time": 28.2,
          "velocity": 1
        },
        {
          "duration": 0.07499999999999929,
          "durationTicks": 96,
          "midi": 60,
          "name": "C4",
          "ticks": 36144,
          "time": 28.2375,
          "velocity": 1
        },
        {
          "duration": 0.15000000000000213,
          "durationTicks": 192,
          "midi": 58,
          "name": "A#3",
          "ticks": 36192,
          "time": 28.275,
          "velocity": 1
        },
        {
          "duration": 0.14999999999999858,
          "durationTicks": 192,
          "midi": 60,
          "name": "C4",
          "ticks": 36240,
          "time": 28.3125,
          "velocity": 1
        },
        {
          "duration": 0.15000000000000213,
          "durationTicks": 192,
          "midi": 62,
          "name": "D4",
          "ticks": 36288,
          "time": 28.349999999999998,
          "velocity": 1
        },
        {
          "duration": 0.14999999999999858,
          "durationTicks": 192,
          "midi": 63,
          "name": "D#4",
          "ticks": 36336,
          "time": 28.3875,
          "velocity": 1
        },
        {
          "duration": 0.05781249999999716,
          "durationTicks": 74,
          "midi": 65,
          "name": "F4",
          "ticks": 36384,
          "time": 28.425,
          "velocity": 1
        },
        {
          "duration": 0.15000000000000213,
          "durationTicks": 192,
          "midi": 67,
          "name": "G4",
          "ticks": 36432,
          "time": 28.4625,
          "velocity": 1
        },
        {
          "duration": 0.09375,
          "durationTicks": 120,
          "midi": 72,
          "name": "C5",
          "ticks": 36456,
          "time": 28.48125,
          "velocity": 0.7086614173228346
        },
        {
          "duration": 0.01875000000000071,
          "durationTicks": 24,
          "midi": 69,
          "name": "A4",
          "ticks": 36456,
          "time": 28.48125,
          "velocity": 0.7086614173228346
        },
        {
          "duration": 0.11250000000000071,
          "durationTicks": 144,
          "midi": 65,
          "name": "F4",
          "ticks": 36458,
          "time": 28.482812499999998,
          "velocity": 0.7086614173228346
        },
        {
          "duration": 0.14999999999999858,
          "durationTicks": 192,
          "midi": 69,
          "name": "A4",
          "ticks": 36480,
          "time": 28.5,
          "velocity": 1
        },
        {
          "duration": 0.15000000000000213,
          "durationTicks": 192,
          "midi": 70,
          "name": "A#4",
          "ticks": 36528,
          "time": 28.537499999999998,
          "velocity": 1
        },
        {
          "duration": 0.14999999999999858,
          "durationTicks": 192,
          "midi": 72,
          "name": "C5",
          "ticks": 36576,
          "time": 28.575,
          "velocity": 1
        },
        {
          "duration": 0.14999999999999858,
          "durationTicks": 192,
          "midi": 74,
          "name": "D5",
          "ticks": 36624,
          "time": 28.6125,
          "velocity": 1
        },
        {
          "duration": 0.14999999999999858,
          "durationTicks": 192,
          "midi": 75,
          "name": "D#5",
          "ticks": 36672,
          "time": 28.65,
          "velocity": 1
        },
        {
          "duration": 0.14999999999999858,
          "durationTicks": 192,
          "midi": 77,
          "name": "F5",
          "ticks": 36720,
          "time": 28.6875,
          "velocity": 1
        },
        {
          "duration": 0.15000000000000213,
          "durationTicks": 192,
          "midi": 79,
          "name": "G5",
          "ticks": 36768,
          "time": 28.724999999999998,
          "velocity": 1
        },
        {
          "duration": 0.14999999999999858,
          "durationTicks": 192,
          "midi": 81,
          "name": "A5",
          "ticks": 36816,
          "time": 28.7625,
          "velocity": 1
        },
        {
          "duration": 0.15000000000000213,
          "durationTicks": 192,
          "midi": 82,
          "name": "A#5",
          "ticks": 36864,
          "time": 28.799999999999997,
          "velocity": 1
        },
        {
          "duration": 0.11250000000000071,
          "durationTicks": 144,
          "midi": 70,
          "name": "A#4",
          "ticks": 37166,
          "time": 29.035937499999996,
          "velocity": 0.7086614173228346
        },
        {
          "duration": 0.11250000000000071,
          "durationTicks": 144,
          "midi": 65,
          "name": "F4",
          "ticks": 37166,
          "time": 29.035937499999996,
          "velocity": 0.7086614173228346
        },
        {
          "duration": 0.11250000000000071,
          "durationTicks": 144,
          "midi": 74,
          "name": "D5",
          "ticks": 37166,
          "time": 29.035937499999996,
          "velocity": 0.7086614173228346
        },
        {
          "duration": 0.14999999999999858,
          "durationTicks": 192,
          "midi": 63,
          "name": "D#4",
          "ticks": 39936,
          "time": 31.2,
          "velocity": 0.7874015748031497
        },
        {
          "duration": 0.14999999999999858,
          "durationTicks": 192,
          "midi": 55,
          "name": "G3",
          "ticks": 39936,
          "time": 31.2,
          "velocity": 0.7874015748031497
        },
        {
          "duration": 0.1328125,
          "durationTicks": 170,
          "midi": 67,
          "name": "G4",
          "ticks": 40128,
          "time": 31.349999999999998,
          "velocity": 0.7874015748031497
        },
        {
          "duration": 0.15000000000000213,
          "durationTicks": 192,
          "midi": 58,
          "name": "A#3",
          "ticks": 40128,
          "time": 31.349999999999998,
          "velocity": 0.7874015748031497
        },
        {
          "duration": 0.01718750000000213,
          "durationTicks": 22,
          "midi": 67,
          "name": "G4",
          "ticks": 40298,
          "time": 31.482812499999998,
          "velocity": 0.7086614173228346
        },
        {
          "duration": 0.11250000000000071,
          "durationTicks": 144,
          "midi": 75,
          "name": "D#5",
          "ticks": 40300,
          "time": 31.484375,
          "velocity": 0.7086614173228346
        },
        {
          "duration": 0.11250000000000071,
          "durationTicks": 144,
          "midi": 70,
          "name": "A#4",
          "ticks": 40302,
          "time": 31.4859375,
          "velocity": 0.7086614173228346
        },
        {
          "duration": 0.1484375,
          "durationTicks": 190,
          "midi": 67,
          "name": "G4",
          "ticks": 40320,
          "time": 31.5,
          "velocity": 0.7874015748031497
        },
        {
          "duration": 0.14999999999999858,
          "durationTicks": 192,
          "midi": 63,
          "name": "D#4",
          "ticks": 40320,
          "time": 31.5,
          "velocity": 0.7874015748031497
        },
        {
          "duration": 0.001562499999998579,
          "durationTicks": 2,
          "midi": 67,
          "name": "G4",
          "ticks": 40510,
          "time": 31.6484375,
          "velocity": 0.7086614173228346
        },
        {
          "duration": 0.11093750000000213,
          "durationTicks": 142,
          "midi": 67,
          "name": "G4",
          "ticks": 40512,
          "time": 31.65,
          "velocity": 0.7874015748031497
        },
        {
          "duration": 0.07499999999999929,
          "durationTicks": 96,
          "midi": 70,
          "name": "A#4",
          "ticks": 40512,
          "time": 31.65,
          "velocity": 0.7086614173228346
        },
        {
          "duration": 0.11250000000000071,
          "durationTicks": 144,
          "midi": 75,
          "name": "D#5",
          "ticks": 40512,
          "time": 31.65,
          "velocity": 0.7086614173228346
        },
        {
          "duration": 0.07499999999999929,
          "durationTicks": 96,
          "midi": 70,
          "name": "A#4",
          "ticks": 40608,
          "time": 31.724999999999998,
          "velocity": 0.7874015748031497
        },
        {
          "duration": 0.07500000000000284,
          "durationTicks": 96,
          "midi": 67,
          "name": "G4",
          "ticks": 40704,
          "time": 31.799999999999997,
          "velocity": 0.7874015748031497
        },
        {
          "duration": 0.07499999999999929,
          "durationTicks": 96,
          "midi": 70,
          "name": "A#4",
          "ticks": 40800,
          "time": 31.875,
          "velocity": 0.7874015748031497
        },
        {
          "duration": 0.07499999999999929,
          "durationTicks": 96,
          "midi": 67,
          "name": "G4",
          "ticks": 40896,
          "time": 31.95,
          "velocity": 0.7874015748031497
        },
        {
          "duration": 0.07500000000000284,
          "durationTicks": 96,
          "midi": 70,
          "name": "A#4",
          "ticks": 40992,
          "time": 32.025,
          "velocity": 0.7874015748031497
        },
        {
          "duration": 0.003124999999997158,
          "durationTicks": 4,
          "midi": 67,
          "name": "G4",
          "ticks": 41088,
          "time": 32.1,
          "velocity": 0.7874015748031497
        },
        {
          "duration": 0.14999999999999858,
          "durationTicks": 192,
          "midi": 63,
          "name": "D#4",
          "ticks": 41088,
          "time": 32.1,
          "velocity": 0.7874015748031497
        },
        {
          "duration": 0.11250000000000426,
          "durationTicks": 144,
          "midi": 75,
          "name": "D#5",
          "ticks": 41092,
          "time": 32.103125,
          "velocity": 0.7086614173228346
        },
        {
          "duration": 0.14687500000000142,
          "durationTicks": 188,
          "midi": 67,
          "name": "G4",
          "ticks": 41092,
          "time": 32.103125,
          "velocity": 0.7086614173228346
        },
        {
          "duration": 0.11249999999999716,
          "durationTicks": 144,
          "midi": 70,
          "name": "A#4",
          "ticks": 41098,
          "time": 32.1078125,
          "velocity": 0.7086614173228346
        },
        {
          "duration": 0.14999999999999858,
          "durationTicks": 192,
          "midi": 62,
          "name": "D4",
          "ticks": 41472,
          "time": 32.4,
          "velocity": 0.7874015748031497
        },
        {
          "duration": 0.14999999999999858,
          "durationTicks": 192,
          "midi": 70,
          "name": "A#4",
          "ticks": 41472,
          "time": 32.4,
          "velocity": 0.7874015748031497
        },
        {
          "duration": 0.13437500000000568,
          "durationTicks": 172,
          "midi": 65,
          "name": "F4",
          "ticks": 41664,
          "time": 32.55,
          "velocity": 0.7874015748031497
        },
        {
          "duration": 0.13906250000000142,
          "durationTicks": 178,
          "midi": 74,
          "name": "D5",
          "ticks": 41664,
          "time": 32.55,
          "velocity": 0.7874015748031497
        },
        {
          "duration": 0.11249999999999716,
          "durationTicks": 144,
          "midi": 70,
          "name": "A#4",
          "ticks": 41836,
          "time": 32.684375,
          "velocity": 0.7086614173228346
        },
        {
          "duration": 0.015624999999992895,
          "durationTicks": 20,
          "midi": 65,
          "name": "F4",
          "ticks": 41836,
          "time": 32.684375,
          "velocity": 0.7086614173228346
        },
        {
          "duration": 0.010937499999997158,
          "durationTicks": 14,
          "midi": 74,
          "name": "D5",
          "ticks": 41842,
          "time": 32.6890625,
          "velocity": 0.7086614173228346
        },
        {
          "duration": 0.14218749999999858,
          "durationTicks": 182,
          "midi": 65,
          "name": "F4",
          "ticks": 41856,
          "time": 32.699999999999996,
          "velocity": 0.7874015748031497
        },
        {
          "duration": 0.14375000000000426,
          "durationTicks": 184,
          "midi": 74,
          "name": "D5",
          "ticks": 41856,
          "time": 32.699999999999996,
          "velocity": 0.7874015748031497
        },
        {
          "duration": 0.007812500000007105,
          "durationTicks": 10,
          "midi": 65,
          "name": "F4",
          "ticks": 42038,
          "time": 32.842187499999994,
          "velocity": 0.7086614173228346
        },
        {
          "duration": 0.006250000000001421,
          "durationTicks": 8,
          "midi": 74,
          "name": "D5",
          "ticks": 42040,
          "time": 32.84375,
          "velocity": 0.7086614173228346
        },
        {
          "duration": 0.11249999999999716,
          "durationTicks": 144,
          "midi": 70,
          "name": "A#4",
          "ticks": 42042,
          "time": 32.8453125,
          "velocity": 0.7086614173228346
        },
        {
          "duration": 0.14999999999999858,
          "durationTicks": 192,
          "midi": 65,
          "name": "F4",
          "ticks": 42048,
          "time": 32.85,
          "velocity": 0.7874015748031497
        },
        {
          "duration": 0.14999999999999858,
          "durationTicks": 192,
          "midi": 74,
          "name": "D5",
          "ticks": 42048,
          "time": 32.85,
          "velocity": 0.7874015748031497
        },
        {
          "duration": 0.14999999999999858,
          "durationTicks": 192,
          "midi": 62,
          "name": "D4",
          "ticks": 42240,
          "time": 33,
          "velocity": 0.7874015748031497
        },
        {
          "duration": 0.14999999999999858,
          "durationTicks": 192,
          "midi": 70,
          "name": "A#4",
          "ticks": 42240,
          "time": 33,
          "velocity": 0.7874015748031497
        },
        {
          "duration": 0.11250000000000426,
          "durationTicks": 144,
          "midi": 70,
          "name": "A#4",
          "ticks": 42596,
          "time": 33.278124999999996,
          "velocity": 0.7086614173228346
        },
        {
          "duration": 0.018749999999997158,
          "durationTicks": 24,
          "midi": 65,
          "name": "F4",
          "ticks": 42600,
          "time": 33.28125,
          "velocity": 0.7086614173228346
        },
        {
          "duration": 0.11249999999999716,
          "durationTicks": 144,
          "midi": 74,
          "name": "D5",
          "ticks": 42600,
          "time": 33.28125,
          "velocity": 0.7086614173228346
        },
        {
          "duration": 0.14999999999999858,
          "durationTicks": 192,
          "midi": 58,
          "name": "A#3",
          "ticks": 42624,
          "time": 33.3,
          "velocity": 0.7874015748031497
        },
        {
          "duration": 0.14999999999999858,
          "durationTicks": 192,
          "midi": 65,
          "name": "F4",
          "ticks": 42624,
          "time": 33.3,
          "velocity": 0.7874015748031497
        },
        {
          "duration": 0.14999999999999858,
          "durationTicks": 192,
          "midi": 65,
          "name": "F4",
          "ticks": 43008,
          "time": 33.6,
          "velocity": 0.7874015748031497
        },
        {
          "duration": 0.14999999999999858,
          "durationTicks": 192,
          "midi": 57,
          "name": "A3",
          "ticks": 43008,
          "time": 33.6,
          "velocity": 0.7874015748031497
        },
        {
          "duration": 0.11406249999999574,
          "durationTicks": 146,
          "midi": 69,
          "name": "A4",
          "ticks": 43200,
          "time": 33.75,
          "velocity": 0.7874015748031497
        },
        {
          "duration": 0.14999999999999858,
          "durationTicks": 192,
          "midi": 60,
          "name": "C4",
          "ticks": 43200,
          "time": 33.75,
          "velocity": 0.7874015748031497
        },
        {
          "duration": 0.11250000000000426,
          "durationTicks": 144,
          "midi": 69,
          "name": "A4",
          "ticks": 43346,
          "time": 33.864062499999996,
          "velocity": 0.7086614173228346
        },
        {
          "duration": 0.03593750000000284,
          "durationTicks": 46,
          "midi": 72,
          "name": "C5",
          "ticks": 43346,
          "time": 33.864062499999996,
          "velocity": 0.7086614173228346
        },
        {
          "duration": 0.03281249999999858,
          "durationTicks": 42,
          "midi": 65,
          "name": "F4",
          "ticks": 43350,
          "time": 33.8671875,
          "velocity": 0.7086614173228346
        },
        {
          "duration": 0.11406249999999574,
          "durationTicks": 146,
          "midi": 72,
          "name": "C5",
          "ticks": 43392,
          "time": 33.9,
          "velocity": 0.7874015748031497
        },
        {
          "duration": 0.11406249999999574,
          "durationTicks": 146,
          "midi": 65,
          "name": "F4",
          "ticks": 43392,
          "time": 33.9,
          "velocity": 0.7874015748031497
        },
        {
          "duration": 0.11093750000000568,
          "durationTicks": 142,
          "midi": 72,
          "name": "C5",
          "ticks": 43538,
          "time": 34.014062499999994,
          "velocity": 0.7086614173228346
        },
        {
          "duration": 0.11250000000000426,
          "durationTicks": 144,
          "midi": 65,
          "name": "F4",
          "ticks": 43538,
          "time": 34.014062499999994,
          "velocity": 0.7086614173228346
        },
        {
          "duration": 0.03125,
          "durationTicks": 40,
          "midi": 69,
          "name": "A4",
          "ticks": 43544,
          "time": 34.01875,
          "velocity": 0.7086614173228346
        },
        {
          "duration": 0.08124999999999716,
          "durationTicks": 104,
          "midi": 69,
          "name": "A4",
          "ticks": 43584,
          "time": 34.05,
          "velocity": 0.7874015748031497
        },
        {
          "duration": 0.07499999999999574,
          "durationTicks": 96,
          "midi": 72,
          "name": "C5",
          "ticks": 43680,
          "time": 34.125,
          "velocity": 0.7874015748031497
        },
        {
          "duration": 0.07500000000000284,
          "durationTicks": 96,
          "midi": 69,
          "name": "A4",
          "ticks": 43776,
          "time": 34.199999999999996,
          "velocity": 0.7874015748031497
        },
        {
          "duration": 0.07500000000000284,
          "durationTicks": 96,
          "midi": 72,
          "name": "C5",
          "ticks": 43872,
          "time": 34.275,
          "velocity": 0.7874015748031497
        },
        {
          "duration": 0.07499999999999574,
          "durationTicks": 96,
          "midi": 69,
          "name": "A4",
          "ticks": 43968,
          "time": 34.35,
          "velocity": 0.7874015748031497
        },
        {
          "duration": 0.040625000000005684,
          "durationTicks": 52,
          "midi": 72,
          "name": "C5",
          "ticks": 44064,
          "time": 34.425,
          "velocity": 0.7874015748031497
        },
        {
          "duration": 0.03437499999999716,
          "durationTicks": 44,
          "midi": 69,
          "name": "A4",
          "ticks": 44116,
          "time": 34.465625,
          "velocity": 0.7086614173228346
        },
        {
          "duration": 0.03437499999999716,
          "durationTicks": 44,
          "midi": 65,
          "name": "F4",
          "ticks": 44116,
          "time": 34.465625,
          "velocity": 0.7086614173228346
        },
        {
          "duration": 0.11249999999999716,
          "durationTicks": 144,
          "midi": 72,
          "name": "C5",
          "ticks": 44116,
          "time": 34.465625,
          "velocity": 0.7086614173228346
        },
        {
          "duration": 0.14999999999999858,
          "durationTicks": 192,
          "midi": 65,
          "name": "F4",
          "ticks": 44160,
          "time": 34.5,
          "velocity": 0.7874015748031497
        },
        {
          "duration": 0.14999999999999858,
          "durationTicks": 192,
          "midi": 69,
          "name": "A4",
          "ticks": 44160,
          "time": 34.5,
          "velocity": 0.7874015748031497
        },
        {
          "duration": 0.14999999999999858,
          "durationTicks": 192,
          "midi": 62,
          "name": "D4",
          "ticks": 44544,
          "time": 34.8,
          "velocity": 0.7874015748031497
        },
        {
          "duration": 0.14999999999999858,
          "durationTicks": 192,
          "midi": 70,
          "name": "A#4",
          "ticks": 44544,
          "time": 34.8,
          "velocity": 0.7874015748031497
        },
        {
          "duration": 0.15000000000000568,
          "durationTicks": 192,
          "midi": 62,
          "name": "D4",
          "ticks": 44736,
          "time": 34.949999999999996,
          "velocity": 0.7874015748031497
        },
        {
          "duration": 0.11406250000000284,
          "durationTicks": 146,
          "midi": 70,
          "name": "A#4",
          "ticks": 44736,
          "time": 34.949999999999996,
          "velocity": 0.7874015748031497
        },
        {
          "duration": 0.11249999999999716,
          "durationTicks": 144,
          "midi": 65,
          "name": "F4",
          "ticks": 44882,
          "time": 35.0640625,
          "velocity": 0.7086614173228346
        },
        {
          "duration": 0.03593750000000284,
          "durationTicks": 46,
          "midi": 70,
          "name": "A#4",
          "ticks": 44882,
          "time": 35.0640625,
          "velocity": 0.7086614173228346
        },
        {
          "duration": 0.11249999999999716,
          "durationTicks": 144,
          "midi": 74,
          "name": "D5",
          "ticks": 44882,
          "time": 35.0640625,
          "velocity": 0.7086614173228346
        },
        {
          "duration": 0.14999999999999858,
          "durationTicks": 192,
          "midi": 62,
          "name": "D4",
          "ticks": 44928,
          "time": 35.1,
          "velocity": 0.7874015748031497
        },
        {
          "duration": 0.14999999999999858,
          "durationTicks": 192,
          "midi": 70,
          "name": "A#4",
          "ticks": 44928,
          "time": 35.1,
          "velocity": 0.7874015748031497
        },
        {
          "duration": 0.14999999999999858,
          "durationTicks": 192,
          "midi": 62,
          "name": "D4",
          "ticks": 45120,
          "time": 35.25,
          "velocity": 0.7874015748031497
        },
        {
          "duration": 0.14999999999999858,
          "durationTicks": 192,
          "midi": 70,
          "name": "A#4",
          "ticks": 45120,
          "time": 35.25,
          "velocity": 0.7874015748031497
        },
        {
          "duration": 0.14999999999999858,
          "durationTicks": 192,
          "midi": 62,
          "name": "D4",
          "ticks": 45312,
          "time": 35.4,
          "velocity": 0.7874015748031497
        },
        {
          "duration": 0.14999999999999858,
          "durationTicks": 192,
          "midi": 70,
          "name": "A#4",
          "ticks": 45312,
          "time": 35.4,
          "velocity": 0.7874015748031497
        },
        {
          "duration": 0.11249999999999716,
          "durationTicks": 144,
          "midi": 65,
          "name": "F4",
          "ticks": 45670,
          "time": 35.6796875,
          "velocity": 0.7086614173228346
        },
        {
          "duration": 0.018749999999997158,
          "durationTicks": 24,
          "midi": 70,
          "name": "A#4",
          "ticks": 45672,
          "time": 35.68125,
          "velocity": 0.7086614173228346
        },
        {
          "duration": 0.11249999999999716,
          "durationTicks": 144,
          "midi": 74,
          "name": "D5",
          "ticks": 45672,
          "time": 35.68125,
          "velocity": 0.7086614173228346
        },
        {
          "duration": 0.15000000000000568,
          "durationTicks": 192,
          "midi": 62,
          "name": "D4",
          "ticks": 45696,
          "time": 35.699999999999996,
          "velocity": 0.7874015748031497
        },
        {
          "duration": 0.15000000000000568,
          "durationTicks": 192,
          "midi": 70,
          "name": "A#4",
          "ticks": 45696,
          "time": 35.699999999999996,
          "velocity": 0.7874015748031497
        },
        {
          "duration": 0.14999999999999858,
          "durationTicks": 192,
          "midi": 63,
          "name": "D#4",
          "ticks": 46080,
          "time": 36,
          "velocity": 0.7874015748031497
        },
        {
          "duration": 0.14999999999999858,
          "durationTicks": 192,
          "midi": 55,
          "name": "G3",
          "ticks": 46080,
          "time": 36,
          "velocity": 0.7874015748031497
        },
        {
          "duration": 0.12656249999999858,
          "durationTicks": 162,
          "midi": 67,
          "name": "G4",
          "ticks": 46272,
          "time": 36.15,
          "velocity": 0.7874015748031497
        },
        {
          "duration": 0.14999999999999858,
          "durationTicks": 192,
          "midi": 58,
          "name": "A#3",
          "ticks": 46272,
          "time": 36.15,
          "velocity": 0.7874015748031497
        },
        {
          "duration": 0.0234375,
          "durationTicks": 30,
          "midi": 67,
          "name": "G4",
          "ticks": 46434,
          "time": 36.2765625,
          "velocity": 0.7086614173228346
        },
        {
          "duration": 0.11250000000000426,
          "durationTicks": 144,
          "midi": 75,
          "name": "D#5",
          "ticks": 46434,
          "time": 36.2765625,
          "velocity": 0.7086614173228346
        },
        {
          "duration": 0.11250000000000426,
          "durationTicks": 144,
          "midi": 70,
          "name": "A#4",
          "ticks": 46434,
          "time": 36.2765625,
          "velocity": 0.7086614173228346
        },
        {
          "duration": 0.14999999999999858,
          "durationTicks": 192,
          "midi": 63,
          "name": "D#4",
          "ticks": 46464,
          "time": 36.3,
          "velocity": 0.7874015748031497
        },
        {
          "duration": 0.140625,
          "durationTicks": 180,
          "midi": 67,
          "name": "G4",
          "ticks": 46464,
          "time": 36.3,
          "velocity": 0.7874015748031497
        },
        {
          "duration": 0.009374999999998579,
          "durationTicks": 12,
          "midi": 67,
          "name": "G4",
          "ticks": 46644,
          "time": 36.440625,
          "velocity": 0.7086614173228346
        },
        {
          "duration": 0.08124999999999716,
          "durationTicks": 104,
          "midi": 70,
          "name": "A#4",
          "ticks": 46648,
          "time": 36.44375,
          "velocity": 0.7086614173228346
        },
        {
          "duration": 0.11249999999999716,
          "durationTicks": 144,
          "midi": 75,
          "name": "D#5",
          "ticks": 46648,
          "time": 36.44375,
          "velocity": 0.7086614173228346
        },
        {
          "duration": 0.10312500000000568,
          "durationTicks": 132,
          "midi": 67,
          "name": "G4",
          "ticks": 46656,
          "time": 36.449999999999996,
          "velocity": 0.7874015748031497
        },
        {
          "duration": 0.07500000000000284,
          "durationTicks": 96,
          "midi": 70,
          "name": "A#4",
          "ticks": 46752,
          "time": 36.525,
          "velocity": 0.7874015748031497
        },
        {
          "duration": 0.07499999999999574,
          "durationTicks": 96,
          "midi": 67,
          "name": "G4",
          "ticks": 46848,
          "time": 36.6,
          "velocity": 0.7874015748031497
        },
        {
          "duration": 0.07500000000000284,
          "durationTicks": 96,
          "midi": 70,
          "name": "A#4",
          "ticks": 46944,
          "time": 36.675,
          "velocity": 0.7874015748031497
        },
        {
          "duration": 0.07499999999999574,
          "durationTicks": 96,
          "midi": 67,
          "name": "G4",
          "ticks": 47040,
          "time": 36.75,
          "velocity": 0.7874015748031497
        },
        {
          "duration": 0.06406250000000568,
          "durationTicks": 82,
          "midi": 70,
          "name": "A#4",
          "ticks": 47136,
          "time": 36.824999999999996,
          "velocity": 0.7874015748031497
        },
        {
          "duration": 0.012500000000002842,
          "durationTicks": 16,
          "midi": 67,
          "name": "G4",
          "ticks": 47216,
          "time": 36.887499999999996,
          "velocity": 0.7086614173228346
        },
        {
          "duration": 0.11249999999999716,
          "durationTicks": 144,
          "midi": 75,
          "name": "D#5",
          "ticks": 47218,
          "time": 36.8890625,
          "velocity": 0.7086614173228346
        },
        {
          "duration": 0.11249999999999716,
          "durationTicks": 144,
          "midi": 70,
          "name": "A#4",
          "ticks": 47218,
          "time": 36.8890625,
          "velocity": 0.7086614173228346
        },
        {
          "duration": 0.14999999999999858,
          "durationTicks": 192,
          "midi": 67,
          "name": "G4",
          "ticks": 47232,
          "time": 36.9,
          "velocity": 0.7874015748031497
        },
        {
          "duration": 0.14999999999999858,
          "durationTicks": 192,
          "midi": 63,
          "name": "D#4",
          "ticks": 47232,
          "time": 36.9,
          "velocity": 0.7874015748031497
        },
        {
          "duration": 0.15000000000000568,
          "durationTicks": 192,
          "midi": 65,
          "name": "F4",
          "ticks": 47616,
          "time": 37.199999999999996,
          "velocity": 0.7874015748031497
        },
        {
          "duration": 0.15000000000000568,
          "durationTicks": 192,
          "midi": 57,
          "name": "A3",
          "ticks": 47616,
          "time": 37.199999999999996,
          "velocity": 0.7874015748031497
        },
        {
          "duration": 0.11874999999999858,
          "durationTicks": 152,
          "midi": 69,
          "name": "A4",
          "ticks": 47808,
          "time": 37.35,
          "velocity": 0.7874015748031497
        },
        {
          "duration": 0.14999999999999858,
          "durationTicks": 192,
          "midi": 60,
          "name": "C4",
          "ticks": 47808,
          "time": 37.35,
          "velocity": 0.7874015748031497
        },
        {
          "duration": 0.03125,
          "durationTicks": 40,
          "midi": 69,
          "name": "A4",
          "ticks": 47960,
          "time": 37.46875,
          "velocity": 0.7086614173228346
        },
        {
          "duration": 0.11249999999999716,
          "durationTicks": 144,
          "midi": 72,
          "name": "C5",
          "ticks": 47960,
          "time": 37.46875,
          "velocity": 0.7086614173228346
        },
        {
          "duration": 0.11250000000000426,
          "durationTicks": 144,
          "midi": 77,
          "name": "F5",
          "ticks": 47964,
          "time": 37.471875,
          "velocity": 0.7086614173228346
        },
        {
          "duration": 0.1171875,
          "durationTicks": 150,
          "midi": 69,
          "name": "A4",
          "ticks": 48000,
          "time": 37.5,
          "velocity": 0.7874015748031497
        },
        {
          "duration": 0.14999999999999858,
          "durationTicks": 192,
          "midi": 65,
          "name": "F4",
          "ticks": 48000,
          "time": 37.5,
          "velocity": 0.7874015748031497
        },
        {
          "duration": 0.03281249999999858,
          "durationTicks": 42,
          "midi": 69,
          "name": "A4",
          "ticks": 48150,
          "time": 37.6171875,
          "velocity": 0.7086614173228346
        },
        {
          "duration": 0.11250000000000426,
          "durationTicks": 144,
          "midi": 77,
          "name": "F5",
          "ticks": 48156,
          "time": 37.621874999999996,
          "velocity": 0.7086614173228346
        },
        {
          "duration": 0.10000000000000142,
          "durationTicks": 128,
          "midi": 72,
          "name": "C5",
          "ticks": 48160,
          "time": 37.625,
          "velocity": 0.7086614173228346
        },
        {
          "duration": 0.07968749999999858,
          "durationTicks": 102,
          "midi": 69,
          "name": "A4",
          "ticks": 48192,
          "time": 37.65,
          "velocity": 0.7874015748031497
        },
        {
          "duration": 0.07499999999999574,
          "durationTicks": 96,
          "midi": 72,
          "name": "C5",
          "ticks": 48288,
          "time": 37.725,
          "velocity": 0.7874015748031497
        },
        {
          "duration": 0.07500000000000284,
          "durationTicks": 96,
          "midi": 69,
          "name": "A4",
          "ticks": 48384,
          "time": 37.8,
          "velocity": 0.7874015748031497
        },
        {
          "duration": 0.07499999999999574,
          "durationTicks": 96,
          "midi": 72,
          "name": "C5",
          "ticks": 48480,
          "time": 37.875,
          "velocity": 0.7874015748031497
        },
        {
          "duration": 0.07500000000000284,
          "durationTicks": 96,
          "midi": 69,
          "name": "A4",
          "ticks": 48576,
          "time": 37.949999999999996,
          "velocity": 0.7874015748031497
        },
        {
          "duration": 0.014062500000001421,
          "durationTicks": 18,
          "midi": 72,
          "name": "C5",
          "ticks": 48672,
          "time": 38.025,
          "velocity": 0.7874015748031497
        },
        {
          "duration": 0.0625,
          "durationTicks": 80,
          "midi": 69,
          "name": "A4",
          "ticks": 48688,
          "time": 38.0375,
          "velocity": 0.7086614173228346
        },
        {
          "duration": 0.11249999999999716,
          "durationTicks": 144,
          "midi": 77,
          "name": "F5",
          "ticks": 48690,
          "time": 38.0390625,
          "velocity": 0.7086614173228346
        },
        {
          "duration": 0.11249999999999716,
          "durationTicks": 144,
          "midi": 72,
          "name": "C5",
          "ticks": 48690,
          "time": 38.0390625,
          "velocity": 0.7086614173228346
        },
        {
          "duration": 0.14999999999999858,
          "durationTicks": 192,
          "midi": 65,
          "name": "F4",
          "ticks": 48768,
          "time": 38.1,
          "velocity": 0.7874015748031497
        },
        {
          "duration": 0.14999999999999858,
          "durationTicks": 192,
          "midi": 69,
          "name": "A4",
          "ticks": 48768,
          "time": 38.1,
          "velocity": 0.7874015748031497
        },
        {
          "duration": 0.14999999999999858,
          "durationTicks": 192,
          "midi": 58,
          "name": "A#3",
          "ticks": 49152,
          "time": 38.4,
          "velocity": 0.7874015748031497
        },
        {
          "duration": 0.14999999999999858,
          "durationTicks": 192,
          "midi": 62,
          "name": "D4",
          "ticks": 49152,
          "time": 38.4,
          "velocity": 0.7874015748031497
        },
        {
          "duration": 0.14999999999999858,
          "durationTicks": 192,
          "midi": 62,
          "name": "D4",
          "ticks": 49344,
          "time": 38.55,
          "velocity": 0.7874015748031497
        },
        {
          "duration": 0.09531250000000568,
          "durationTicks": 122,
          "midi": 65,
          "name": "F4",
          "ticks": 49344,
          "time": 38.55,
          "velocity": 0.7874015748031497
        },
        {
          "duration": 0.054687499999992895,
          "durationTicks": 70,
          "midi": 65,
          "name": "F4",
          "ticks": 49466,
          "time": 38.6453125,
          "velocity": 0.7086614173228346
        },
        {
          "duration": 0.054687499999992895,
          "durationTicks": 70,
          "midi": 70,
          "name": "A#4",
          "ticks": 49466,
          "time": 38.6453125,
          "velocity": 0.7086614173228346
        },
        {
          "duration": 0.11249999999999716,
          "durationTicks": 144,
          "midi": 74,
          "name": "D5",
          "ticks": 49466,
          "time": 38.6453125,
          "velocity": 0.7086614173228346
        },
        {
          "duration": 0.10312500000000568,
          "durationTicks": 132,
          "midi": 65,
          "name": "F4",
          "ticks": 49536,
          "time": 38.699999999999996,
          "velocity": 0.7874015748031497
        },
        {
          "duration": 0.10781250000000142,
          "durationTicks": 138,
          "midi": 70,
          "name": "A#4",
          "ticks": 49536,
          "time": 38.699999999999996,
          "velocity": 0.7874015748031497
        },
        {
          "duration": 0.11249999999999716,
          "durationTicks": 144,
          "midi": 65,
          "name": "F4",
          "ticks": 49668,
          "time": 38.803125,
          "velocity": 0.7086614173228346
        },
        {
          "duration": 0.11249999999999716,
          "durationTicks": 144,
          "midi": 74,
          "name": "D5",
          "ticks": 49668,
          "time": 38.803125,
          "velocity": 0.7086614173228346
        },
        {
          "duration": 0.04218750000000426,
          "durationTicks": 54,
          "midi": 70,
          "name": "A#4",
          "ticks": 49674,
          "time": 38.8078125,
          "velocity": 0.7086614173228346
        },
        {
          "duration": 0.07499999999999574,
          "durationTicks": 96,
          "midi": 70,
          "name": "A#4",
          "ticks": 49728,
          "time": 38.85,
          "velocity": 0.7874015748031497
        },
        {
          "duration": 0.07500000000000284,
          "durationTicks": 96,
          "midi": 74,
          "name": "D5",
          "ticks": 49824,
          "time": 38.925,
          "velocity": 0.7874015748031497
        },
        {
          "duration": 0.07499999999999574,
          "durationTicks": 96,
          "midi": 70,
          "name": "A#4",
          "ticks": 49920,
          "time": 39,
          "velocity": 0.7874015748031497
        },
        {
          "duration": 0.07500000000000284,
          "durationTicks": 96,
          "midi": 74,
          "name": "D5",
          "ticks": 50016,
          "time": 39.074999999999996,
          "velocity": 0.7874015748031497
        },
        {
          "duration": 0.07500000000000284,
          "durationTicks": 96,
          "midi": 70,
          "name": "A#4",
          "ticks": 50112,
          "time": 39.15,
          "velocity": 0.7874015748031497
        },
        {
          "duration": 0.040624999999991473,
          "durationTicks": 52,
          "midi": 74,
          "name": "D5",
          "ticks": 50208,
          "time": 39.225,
          "velocity": 0.7874015748031497
        },
        {
          "duration": 0.11250000000000426,
          "durationTicks": 144,
          "midi": 65,
          "name": "F4",
          "ticks": 50256,
          "time": 39.262499999999996,
          "velocity": 0.7086614173228346
        },
        {
          "duration": 0.11250000000000426,
          "durationTicks": 144,
          "midi": 70,
          "name": "A#4",
          "ticks": 50256,
          "time": 39.262499999999996,
          "velocity": 0.7086614173228346
        },
        {
          "duration": 0.11250000000000426,
          "durationTicks": 144,
          "midi": 74,
          "name": "D5",
          "ticks": 50260,
          "time": 39.26562499999999,
          "velocity": 0.7086614173228346
        },
        {
          "duration": 0.14999999999999858,
          "durationTicks": 192,
          "midi": 70,
          "name": "A#4",
          "ticks": 50688,
          "time": 39.6,
          "velocity": 0.7874015748031497
        },
        {
          "duration": 0.14999999999999858,
          "durationTicks": 192,
          "midi": 62,
          "name": "D4",
          "ticks": 50688,
          "time": 39.6,
          "velocity": 0.7874015748031497
        },
        {
          "duration": 0.14999999999999858,
          "durationTicks": 192,
          "midi": 62,
          "name": "D4",
          "ticks": 50880,
          "time": 39.75,
          "velocity": 0.7874015748031497
        },
        {
          "duration": 0.14999999999999858,
          "durationTicks": 192,
          "midi": 70,
          "name": "A#4",
          "ticks": 50880,
          "time": 39.75,
          "velocity": 0.7874015748031497
        },
        {
          "duration": 0.11249999999999716,
          "durationTicks": 144,
          "midi": 68,
          "name": "G#4",
          "ticks": 51038,
          "time": 39.8734375,
          "velocity": 0.7086614173228346
        },
        {
          "duration": 0.025000000000005684,
          "durationTicks": 32,
          "midi": 65,
          "name": "F4",
          "ticks": 51040,
          "time": 39.87499999999999,
          "velocity": 0.7086614173228346
        },
        {
          "duration": 0.0234375,
          "durationTicks": 30,
          "midi": 74,
          "name": "D5",
          "ticks": 51042,
          "time": 39.8765625,
          "velocity": 0.7086614173228346
        },
        {
          "duration": 0.11406250000000284,
          "durationTicks": 146,
          "midi": 74,
          "name": "D5",
          "ticks": 51072,
          "time": 39.9,
          "velocity": 0.7874015748031497
        },
        {
          "duration": 0.11875000000000568,
          "durationTicks": 152,
          "midi": 65,
          "name": "F4",
          "ticks": 51072,
          "time": 39.9,
          "velocity": 0.7874015748031497
        },
        {
          "duration": 0.03593749999999574,
          "durationTicks": 46,
          "midi": 74,
          "name": "D5",
          "ticks": 51218,
          "time": 40.0140625,
          "velocity": 0.7086614173228346
        },
        {
          "duration": 0.031249999999992895,
          "durationTicks": 40,
          "midi": 65,
          "name": "F4",
          "ticks": 51224,
          "time": 40.018750000000004,
          "velocity": 0.7086614173228346
        },
        {
          "duration": 0.11249999999999716,
          "durationTicks": 144,
          "midi": 68,
          "name": "G#4",
          "ticks": 51224,
          "time": 40.018750000000004,
          "velocity": 0.7086614173228346
        },
        {
          "duration": 0.14999999999999858,
          "durationTicks": 192,
          "midi": 74,
          "name": "D5",
          "ticks": 51264,
          "time": 40.05,
          "velocity": 0.7874015748031497
        },
        {
          "duration": 0.14999999999999858,
          "durationTicks": 192,
          "midi": 65,
          "name": "F4",
          "ticks": 51264,
          "time": 40.05,
          "velocity": 0.7874015748031497
        },
        {
          "duration": 0.15000000000000568,
          "durationTicks": 192,
          "midi": 74,
          "name": "D5",
          "ticks": 51456,
          "time": 40.199999999999996,
          "velocity": 0.7874015748031497
        },
        {
          "duration": 0.15000000000000568,
          "durationTicks": 192,
          "midi": 68,
          "name": "G#4",
          "ticks": 51456,
          "time": 40.199999999999996,
          "velocity": 0.7874015748031497
        },
        {
          "duration": 0.11249999999999716,
          "durationTicks": 144,
          "midi": 65,
          "name": "F4",
          "ticks": 51810,
          "time": 40.4765625,
          "velocity": 0.7086614173228346
        },
        {
          "duration": 0.0234375,
          "durationTicks": 30,
          "midi": 68,
          "name": "G#4",
          "ticks": 51810,
          "time": 40.4765625,
          "velocity": 0.7086614173228346
        },
        {
          "duration": 0.020312500000002842,
          "durationTicks": 26,
          "midi": 74,
          "name": "D5",
          "ticks": 51814,
          "time": 40.4796875,
          "velocity": 0.7086614173228346
        },
        {
          "duration": 0.14999999999999858,
          "durationTicks": 192,
          "midi": 74,
          "name": "D5",
          "ticks": 51840,
          "time": 40.5,
          "velocity": 0.7874015748031497
        },
        {
          "duration": 0.14999999999999858,
          "durationTicks": 192,
          "midi": 68,
          "name": "G#4",
          "ticks": 51840,
          "time": 40.5,
          "velocity": 0.7874015748031497
        },
        {
          "duration": 0.14999999999999858,
          "durationTicks": 192,
          "midi": 75,
          "name": "D#5",
          "ticks": 52224,
          "time": 40.8,
          "velocity": 0.7874015748031497
        },
        {
          "duration": 0.14999999999999858,
          "durationTicks": 192,
          "midi": 67,
          "name": "G4",
          "ticks": 52224,
          "time": 40.8,
          "velocity": 0.7874015748031497
        },
        {
          "duration": 0.11875000000000568,
          "durationTicks": 152,
          "midi": 67,
          "name": "G4",
          "ticks": 52416,
          "time": 40.949999999999996,
          "velocity": 0.7874015748031497
        },
        {
          "duration": 0.11875000000000568,
          "durationTicks": 152,
          "midi": 75,
          "name": "D#5",
          "ticks": 52416,
          "time": 40.949999999999996,
          "velocity": 0.7874015748031497
        },
        {
          "duration": 0.03125,
          "durationTicks": 40,
          "midi": 67,
          "name": "G4",
          "ticks": 52568,
          "time": 41.06875,
          "velocity": 0.7086614173228346
        },
        {
          "duration": 0.11249999999999716,
          "durationTicks": 144,
          "midi": 70,
          "name": "A#4",
          "ticks": 52568,
          "time": 41.06875,
          "velocity": 0.7086614173228346
        },
        {
          "duration": 0.11249999999999716,
          "durationTicks": 144,
          "midi": 75,
          "name": "D#5",
          "ticks": 52568,
          "time": 41.06875,
          "velocity": 0.7086614173228346
        },
        {
          "duration": 0.12968749999999574,
          "durationTicks": 166,
          "midi": 67,
          "name": "G4",
          "ticks": 52608,
          "time": 41.1,
          "velocity": 0.7874015748031497
        },
        {
          "duration": 0.14999999999999858,
          "durationTicks": 192,
          "midi": 58,
          "name": "A#3",
          "ticks": 52608,
          "time": 41.1,
          "velocity": 0.7874015748031497
        },
        {
          "duration": 0.020312500000002842,
          "durationTicks": 26,
          "midi": 67,
          "name": "G4",
          "ticks": 52774,
          "time": 41.2296875,
          "velocity": 0.7086614173228346
        },
        {
          "duration": 0.11249999999999716,
          "durationTicks": 144,
          "midi": 70,
          "name": "A#4",
          "ticks": 52778,
          "time": 41.2328125,
          "velocity": 0.7086614173228346
        },
        {
          "duration": 0.11249999999999716,
          "durationTicks": 144,
          "midi": 75,
          "name": "D#5",
          "ticks": 52778,
          "time": 41.2328125,
          "velocity": 0.7086614173228346
        },
        {
          "duration": 0.14999999999999858,
          "durationTicks": 192,
          "midi": 67,
          "name": "G4",
          "ticks": 52800,
          "time": 41.25,
          "velocity": 0.7874015748031497
        },
        {
          "duration": 0.14999999999999858,
          "durationTicks": 192,
          "midi": 58,
          "name": "A#3",
          "ticks": 52800,
          "time": 41.25,
          "velocity": 0.7874015748031497
        },
        {
          "duration": 0.14999999999999858,
          "durationTicks": 192,
          "midi": 63,
          "name": "D#4",
          "ticks": 52992,
          "time": 41.4,
          "velocity": 0.7874015748031497
        },
        {
          "duration": 0.14999999999999858,
          "durationTicks": 192,
          "midi": 67,
          "name": "G4",
          "ticks": 52992,
          "time": 41.4,
          "velocity": 0.7874015748031497
        },
        {
          "duration": 0.010937499999997158,
          "durationTicks": 14,
          "midi": 67,
          "name": "G4",
          "ticks": 53362,
          "time": 41.6890625,
          "velocity": 0.7086614173228346
        },
        {
          "duration": 0.010937499999997158,
          "durationTicks": 14,
          "midi": 70,
          "name": "A#4",
          "ticks": 53362,
          "time": 41.6890625,
          "velocity": 0.7086614173228346
        },
        {
          "duration": 0.11249999999999716,
          "durationTicks": 144,
          "midi": 75,
          "name": "D#5",
          "ticks": 53362,
          "time": 41.6890625,
          "velocity": 0.7086614173228346
        },
        {
          "duration": 0.15000000000000568,
          "durationTicks": 192,
          "midi": 70,
          "name": "A#4",
          "ticks": 53376,
          "time": 41.699999999999996,
          "velocity": 0.7874015748031497
        },
        {
          "duration": 0.15000000000000568,
          "durationTicks": 192,
          "midi": 67,
          "name": "G4",
          "ticks": 53376,
          "time": 41.699999999999996,
          "velocity": 0.7874015748031497
        },
        {
          "duration": 0.14999999999999858,
          "durationTicks": 192,
          "midi": 77,
          "name": "F5",
          "ticks": 53760,
          "time": 42,
          "velocity": 0.7874015748031497
        },
        {
          "duration": 0.14999999999999858,
          "durationTicks": 192,
          "midi": 69,
          "name": "A4",
          "ticks": 53760,
          "time": 42,
          "velocity": 0.7874015748031497
        },
        {
          "duration": 0.12031249999999716,
          "durationTicks": 154,
          "midi": 69,
          "name": "A4",
          "ticks": 53952,
          "time": 42.15,
          "velocity": 0.7874015748031497
        },
        {
          "duration": 0.125,
          "durationTicks": 160,
          "midi": 77,
          "name": "F5",
          "ticks": 53952,
          "time": 42.15,
          "velocity": 0.7874015748031497
        },
        {
          "duration": 0.02968750000000142,
          "durationTicks": 38,
          "midi": 69,
          "name": "A4",
          "ticks": 54106,
          "time": 42.270312499999996,
          "velocity": 0.7086614173228346
        },
        {
          "duration": 0.11249999999999716,
          "durationTicks": 144,
          "midi": 72,
          "name": "C5",
          "ticks": 54108,
          "time": 42.271875,
          "velocity": 0.7086614173228346
        },
        {
          "duration": 0.11249999999999716,
          "durationTicks": 144,
          "midi": 77,
          "name": "F5",
          "ticks": 54112,
          "time": 42.275,
          "velocity": 0.7086614173228346
        },
        {
          "duration": 0.1171875,
          "durationTicks": 150,
          "midi": 69,
          "name": "A4",
          "ticks": 54144,
          "time": 42.3,
          "velocity": 0.7874015748031497
        },
        {
          "duration": 0.14999999999999858,
          "durationTicks": 192,
          "midi": 60,
          "name": "C4",
          "ticks": 54144,
          "time": 42.3,
          "velocity": 0.7874015748031497
        },
        {
          "duration": 0.03281249999999858,
          "durationTicks": 42,
          "midi": 69,
          "name": "A4",
          "ticks": 54294,
          "time": 42.4171875,
          "velocity": 0.7086614173228346
        },
        {
          "duration": 0.11250000000000426,
          "durationTicks": 144,
          "midi": 77,
          "name": "F5",
          "ticks": 54294,
          "time": 42.4171875,
          "velocity": 0.7086614173228346
        },
        {
          "duration": 0.11249999999999716,
          "durationTicks": 144,
          "midi": 72,
          "name": "C5",
          "ticks": 54304,
          "time": 42.425,
          "velocity": 0.7086614173228346
        },
        {
          "duration": 0.15000000000000568,
          "durationTicks": 192,
          "midi": 69,
          "name": "A4",
          "ticks": 54336,
          "time": 42.449999999999996,
          "velocity": 0.7874015748031497
        },
        {
          "duration": 0.15000000000000568,
          "durationTicks": 192,
          "midi": 60,
          "name": "C4",
          "ticks": 54336,
          "time": 42.449999999999996,
          "velocity": 0.7874015748031497
        },
        {
          "duration": 0.14999999999999858,
          "durationTicks": 192,
          "midi": 65,
          "name": "F4",
          "ticks": 54528,
          "time": 42.6,
          "velocity": 0.7874015748031497
        },
        {
          "duration": 0.14999999999999858,
          "durationTicks": 192,
          "midi": 69,
          "name": "A4",
          "ticks": 54528,
          "time": 42.6,
          "velocity": 0.7874015748031497
        },
        {
          "duration": 0.02968750000000142,
          "durationTicks": 38,
          "midi": 69,
          "name": "A4",
          "ticks": 54874,
          "time": 42.8703125,
          "velocity": 0.7086614173228346
        },
        {
          "duration": 0.02968750000000142,
          "durationTicks": 38,
          "midi": 72,
          "name": "C5",
          "ticks": 54874,
          "time": 42.8703125,
          "velocity": 0.7086614173228346
        },
        {
          "duration": 0.11249999999999716,
          "durationTicks": 144,
          "midi": 77,
          "name": "F5",
          "ticks": 54874,
          "time": 42.8703125,
          "velocity": 0.7086614173228346
        },
        {
          "duration": 0.14999999999999858,
          "durationTicks": 192,
          "midi": 72,
          "name": "C5",
          "ticks": 54912,
          "time": 42.9,
          "velocity": 0.7874015748031497
        },
        {
          "duration": 0.14999999999999858,
          "durationTicks": 192,
          "midi": 69,
          "name": "A4",
          "ticks": 54912,
          "time": 42.9,
          "velocity": 0.7874015748031497
        },
        {
          "duration": 0.15000000000000568,
          "durationTicks": 192,
          "midi": 79,
          "name": "G5",
          "ticks": 55296,
          "time": 43.199999999999996,
          "velocity": 0.7874015748031497
        },
        {
          "duration": 0.15000000000000568,
          "durationTicks": 192,
          "midi": 70,
          "name": "A#4",
          "ticks": 55296,
          "time": 43.199999999999996,
          "velocity": 0.7874015748031497
        },
        {
          "duration": 0.10624999999999574,
          "durationTicks": 136,
          "midi": 70,
          "name": "A#4",
          "ticks": 55488,
          "time": 43.35,
          "velocity": 0.7874015748031497
        },
        {
          "duration": 0.10624999999999574,
          "durationTicks": 136,
          "midi": 79,
          "name": "G5",
          "ticks": 55488,
          "time": 43.35,
          "velocity": 0.7874015748031497
        },
        {
          "duration": 0.04375000000000284,
          "durationTicks": 56,
          "midi": 70,
          "name": "A#4",
          "ticks": 55624,
          "time": 43.45625,
          "velocity": 0.7086614173228346
        },
        {
          "duration": 0.11249999999999716,
          "durationTicks": 144,
          "midi": 79,
          "name": "G5",
          "ticks": 55624,
          "time": 43.45625,
          "velocity": 0.7086614173228346
        },
        {
          "duration": 0.11250000000000426,
          "durationTicks": 144,
          "midi": 74,
          "name": "D5",
          "ticks": 55630,
          "time": 43.46093749999999,
          "velocity": 0.7086614173228346
        },
        {
          "duration": 0.10624999999999574,
          "durationTicks": 136,
          "midi": 70,
          "name": "A#4",
          "ticks": 55680,
          "time": 43.5,
          "velocity": 0.7874015748031497
        },
        {
          "duration": 0.14999999999999858,
          "durationTicks": 192,
          "midi": 62,
          "name": "D4",
          "ticks": 55680,
          "time": 43.5,
          "velocity": 0.7874015748031497
        },
        {
          "duration": 0.04375000000000284,
          "durationTicks": 56,
          "midi": 70,
          "name": "A#4",
          "ticks": 55816,
          "time": 43.606249999999996,
          "velocity": 0.7086614173228346
        },
        {
          "duration": 0.11250000000000426,
          "durationTicks": 144,
          "midi": 79,
          "name": "G5",
          "ticks": 55820,
          "time": 43.609375,
          "velocity": 0.7086614173228346
        },
        {
          "duration": 0.11250000000000426,
          "durationTicks": 144,
          "midi": 74,
          "name": "D5",
          "ticks": 55832,
          "time": 43.61875,
          "velocity": 0.7086614173228346
        },
        {
          "duration": 0.14999999999999858,
          "durationTicks": 192,
          "midi": 70,
          "name": "A#4",
          "ticks": 55872,
          "time": 43.65,
          "velocity": 0.7874015748031497
        },
        {
          "duration": 0.14999999999999858,
          "durationTicks": 192,
          "midi": 62,
          "name": "D4",
          "ticks": 55872,
          "time": 43.65,
          "velocity": 0.7874015748031497
        },
        {
          "duration": 0.14999999999999858,
          "durationTicks": 192,
          "midi": 67,
          "name": "G4",
          "ticks": 56064,
          "time": 43.8,
          "velocity": 0.7874015748031497
        },
        {
          "duration": 0.14999999999999858,
          "durationTicks": 192,
          "midi": 70,
          "name": "A#4",
          "ticks": 56064,
          "time": 43.8,
          "velocity": 0.7874015748031497
        },
        {
          "duration": 0.06093750000000142,
          "durationTicks": 78,
          "midi": 70,
          "name": "A#4",
          "ticks": 56370,
          "time": 44.0390625,
          "velocity": 0.7086614173228346
        },
        {
          "duration": 0.05937500000000284,
          "durationTicks": 76,
          "midi": 74,
          "name": "D5",
          "ticks": 56372,
          "time": 44.040625,
          "velocity": 0.7086614173228346
        },
        {
          "duration": 0.11250000000000426,
          "durationTicks": 144,
          "midi": 79,
          "name": "G5",
          "ticks": 56372,
          "time": 44.040625,
          "velocity": 0.7086614173228346
        },
        {
          "duration": 0.14999999999999858,
          "durationTicks": 192,
          "midi": 74,
          "name": "D5",
          "ticks": 56448,
          "time": 44.1,
          "velocity": 0.7874015748031497
        },
        {
          "duration": 0.14999999999999858,
          "durationTicks": 192,
          "midi": 70,
          "name": "A#4",
          "ticks": 56448,
          "time": 44.1,
          "velocity": 0.7874015748031497
        },
        {
          "duration": 0.14999999999999858,
          "durationTicks": 192,
          "midi": 72,
          "name": "C5",
          "ticks": 56832,
          "time": 44.4,
          "velocity": 0.7874015748031497
        },
        {
          "duration": 0.14999999999999858,
          "durationTicks": 192,
          "midi": 76,
          "name": "E5",
          "ticks": 56832,
          "time": 44.4,
          "velocity": 0.7874015748031497
        },
        {
          "duration": 0.11250000000000426,
          "durationTicks": 144,
          "midi": 72,
          "name": "C5",
          "ticks": 57024,
          "time": 44.55,
          "velocity": 0.7874015748031497
        },
        {
          "duration": 0.11250000000000426,
          "durationTicks": 144,
          "midi": 76,
          "name": "E5",
          "ticks": 57024,
          "time": 44.55,
          "velocity": 0.7874015748031497
        },
        {
          "duration": 0.11249999999999716,
          "durationTicks": 144,
          "midi": 76,
          "name": "E5",
          "ticks": 57168,
          "time": 44.6625,
          "velocity": 0.7086614173228346
        },
        {
          "duration": 0.11249999999999716,
          "durationTicks": 144,
          "midi": 67,
          "name": "G4",
          "ticks": 57168,
          "time": 44.6625,
          "velocity": 0.7086614173228346
        },
        {
          "duration": 0.037499999999994316,
          "durationTicks": 48,
          "midi": 72,
          "name": "C5",
          "ticks": 57168,
          "time": 44.6625,
          "velocity": 0.7086614173228346
        },
        {
          "duration": 0.15000000000000568,
          "durationTicks": 192,
          "midi": 64,
          "name": "E4",
          "ticks": 57216,
          "time": 44.699999999999996,
          "velocity": 0.7874015748031497
        },
        {
          "duration": 0.11562500000000142,
          "durationTicks": 148,
          "midi": 72,
          "name": "C5",
          "ticks": 57216,
          "time": 44.699999999999996,
          "velocity": 0.7874015748031497
        },
        {
          "duration": 0.11250000000000426,
          "durationTicks": 144,
          "midi": 76,
          "name": "E5",
          "ticks": 57362,
          "time": 44.8140625,
          "velocity": 0.7086614173228346
        },
        {
          "duration": 0.03437500000000426,
          "durationTicks": 44,
          "midi": 72,
          "name": "C5",
          "ticks": 57364,
          "time": 44.815625,
          "velocity": 0.7086614173228346
        },
        {
          "duration": 0.11250000000000426,
          "durationTicks": 144,
          "midi": 67,
          "name": "G4",
          "ticks": 57366,
          "time": 44.817187499999996,
          "velocity": 0.7086614173228346
        },
        {
          "duration": 0.14999999999999858,
          "durationTicks": 192,
          "midi": 64,
          "name": "E4",
          "ticks": 57408,
          "time": 44.85,
          "velocity": 0.7874015748031497
        },
        {
          "duration": 0.14999999999999858,
          "durationTicks": 192,
          "midi": 72,
          "name": "C5",
          "ticks": 57408,
          "time": 44.85,
          "velocity": 0.7874015748031497
        },
        {
          "duration": 0.14999999999999858,
          "durationTicks": 192,
          "midi": 64,
          "name": "E4",
          "ticks": 57600,
          "time": 45,
          "velocity": 0.7874015748031497
        },
        {
          "duration": 0.14999999999999858,
          "durationTicks": 192,
          "midi": 67,
          "name": "G4",
          "ticks": 57600,
          "time": 45,
          "velocity": 0.7874015748031497
        },
        {
          "duration": 0.11249999999999716,
          "durationTicks": 144,
          "midi": 72,
          "name": "C5",
          "ticks": 57938,
          "time": 45.2640625,
          "velocity": 0.7086614173228346
        },
        {
          "duration": 0.11249999999999716,
          "durationTicks": 144,
          "midi": 76,
          "name": "E5",
          "ticks": 57938,
          "time": 45.2640625,
          "velocity": 0.7086614173228346
        },
        {
          "duration": 0.03281249999999858,
          "durationTicks": 42,
          "midi": 67,
          "name": "G4",
          "ticks": 57942,
          "time": 45.2671875,
          "velocity": 0.7086614173228346
        },
        {
          "duration": 0.14999999999999858,
          "durationTicks": 192,
          "midi": 64,
          "name": "E4",
          "ticks": 57984,
          "time": 45.3,
          "velocity": 0.7874015748031497
        },
        {
          "duration": 0.14999999999999858,
          "durationTicks": 192,
          "midi": 67,
          "name": "G4",
          "ticks": 57984,
          "time": 45.3,
          "velocity": 0.7874015748031497
        },
        {
          "duration": 0.14999999999999858,
          "durationTicks": 192,
          "midi": 63,
          "name": "D#4",
          "ticks": 58368,
          "time": 45.6,
          "velocity": 0.7874015748031497
        },
        {
          "duration": 0.14999999999999858,
          "durationTicks": 192,
          "midi": 67,
          "name": "G4",
          "ticks": 58368,
          "time": 45.6,
          "velocity": 0.7874015748031497
        },
        {
          "duration": 0.14999999999999858,
          "durationTicks": 192,
          "midi": 63,
          "name": "D#4",
          "ticks": 58560,
          "time": 45.75,
          "velocity": 0.7874015748031497
        },
        {
          "duration": 0.1171875,
          "durationTicks": 150,
          "midi": 67,
          "name": "G4",
          "ticks": 58560,
          "time": 45.75,
          "velocity": 0.7874015748031497
        },
        {
          "duration": 0.11249999999999716,
          "durationTicks": 144,
          "midi": 75,
          "name": "D#5",
          "ticks": 58706,
          "time": 45.8640625,
          "velocity": 0.7086614173228346
        },
        {
          "duration": 0.03281249999999858,
          "durationTicks": 42,
          "midi": 67,
          "name": "G4",
          "ticks": 58710,
          "time": 45.8671875,
          "velocity": 0.7086614173228346
        },
        {
          "duration": 0.11249999999999716,
          "durationTicks": 144,
          "midi": 70,
          "name": "A#4",
          "ticks": 58710,
          "time": 45.8671875,
          "velocity": 0.7086614173228346
        },
        {
          "duration": 0.14999999999999858,
          "durationTicks": 192,
          "midi": 63,
          "name": "D#4",
          "ticks": 58752,
          "time": 45.9,
          "velocity": 0.7874015748031497
        },
        {
          "duration": 0.10468750000000426,
          "durationTicks": 134,
          "midi": 67,
          "name": "G4",
          "ticks": 58752,
          "time": 45.9,
          "velocity": 0.7874015748031497
        },
        {
          "duration": 0.11249999999999716,
          "durationTicks": 144,
          "midi": 75,
          "name": "D#5",
          "ticks": 58882,
          "time": 46.0015625,
          "velocity": 0.7086614173228346
        },
        {
          "duration": 0.045312499999994316,
          "durationTicks": 58,
          "midi": 67,
          "name": "G4",
          "ticks": 58886,
          "time": 46.0046875,
          "velocity": 0.7086614173228346
        },
        {
          "duration": 0.04375000000000284,
          "durationTicks": 56,
          "midi": 70,
          "name": "A#4",
          "ticks": 58888,
          "time": 46.006249999999994,
          "velocity": 0.7086614173228346
        },
        {
          "duration": 0.14999999999999858,
          "durationTicks": 192,
          "midi": 67,
          "name": "G4",
          "ticks": 58944,
          "time": 46.05,
          "velocity": 0.7874015748031497
        },
        {
          "duration": 0.14999999999999858,
          "durationTicks": 192,
          "midi": 70,
          "name": "A#4",
          "ticks": 58944,
          "time": 46.05,
          "velocity": 0.7874015748031497
        },
        {
          "duration": 0.15000000000000568,
          "durationTicks": 192,
          "midi": 67,
          "name": "G4",
          "ticks": 59136,
          "time": 46.199999999999996,
          "velocity": 0.7874015748031497
        },
        {
          "duration": 0.15000000000000568,
          "durationTicks": 192,
          "midi": 70,
          "name": "A#4",
          "ticks": 59136,
          "time": 46.199999999999996,
          "velocity": 0.7874015748031497
        },
        {
          "duration": 0.11249999999999716,
          "durationTicks": 144,
          "midi": 67,
          "name": "G4",
          "ticks": 59328,
          "time": 46.35,
          "velocity": 0.7874015748031497
        },
        {
          "duration": 0.11406250000000284,
          "durationTicks": 146,
          "midi": 70,
          "name": "A#4",
          "ticks": 59328,
          "time": 46.35,
          "velocity": 0.7874015748031497
        },
        {
          "duration": 0.11249999999999716,
          "durationTicks": 144,
          "midi": 67,
          "name": "G4",
          "ticks": 59472,
          "time": 46.4625,
          "velocity": 0.7086614173228346
        },
        {
          "duration": 0.03750000000000142,
          "durationTicks": 48,
          "midi": 75,
          "name": "D#5",
          "ticks": 59472,
          "time": 46.4625,
          "velocity": 0.7086614173228346
        },
        {
          "duration": 0.03593749999999574,
          "durationTicks": 46,
          "midi": 70,
          "name": "A#4",
          "ticks": 59474,
          "time": 46.464062500000004,
          "velocity": 0.7086614173228346
        },
        {
          "duration": 0.14999999999999858,
          "durationTicks": 192,
          "midi": 70,
          "name": "A#4",
          "ticks": 59520,
          "time": 46.5,
          "velocity": 0.7874015748031497
        },
        {
          "duration": 0.14999999999999858,
          "durationTicks": 192,
          "midi": 75,
          "name": "D#5",
          "ticks": 59520,
          "time": 46.5,
          "velocity": 0.7874015748031497
        },
        {
          "duration": 0.14999999999999858,
          "durationTicks": 192,
          "midi": 70,
          "name": "A#4",
          "ticks": 59712,
          "time": 46.65,
          "velocity": 0.7874015748031497
        },
        {
          "duration": 0.14999999999999858,
          "durationTicks": 192,
          "midi": 75,
          "name": "D#5",
          "ticks": 59712,
          "time": 46.65,
          "velocity": 0.7874015748031497
        },
        {
          "duration": 0.14999999999999858,
          "durationTicks": 192,
          "midi": 65,
          "name": "F4",
          "ticks": 59904,
          "time": 46.8,
          "velocity": 0.7874015748031497
        },
        {
          "duration": 0.14999999999999858,
          "durationTicks": 192,
          "midi": 69,
          "name": "A4",
          "ticks": 59904,
          "time": 46.8,
          "velocity": 0.7874015748031497
        },
        {
          "duration": 0.15000000000000568,
          "durationTicks": 192,
          "midi": 65,
          "name": "F4",
          "ticks": 60096,
          "time": 46.949999999999996,
          "velocity": 0.7874015748031497
        },
        {
          "duration": 0.09375,
          "durationTicks": 120,
          "midi": 69,
          "name": "A4",
          "ticks": 60096,
          "time": 46.949999999999996,
          "velocity": 0.7874015748031497
        },
        {
          "duration": 0.11250000000000426,
          "durationTicks": 144,
          "midi": 72,
          "name": "C5",
          "ticks": 60216,
          "time": 47.043749999999996,
          "velocity": 0.7086614173228346
        },
        {
          "duration": 0.056250000000005684,
          "durationTicks": 72,
          "midi": 69,
          "name": "A4",
          "ticks": 60216,
          "time": 47.043749999999996,
          "velocity": 0.7086614173228346
        },
        {
          "duration": 0.11250000000000426,
          "durationTicks": 144,
          "midi": 77,
          "name": "F5",
          "ticks": 60220,
          "time": 47.04687499999999,
          "velocity": 0.7086614173228346
        },
        {
          "duration": 0.14999999999999858,
          "durationTicks": 192,
          "midi": 65,
          "name": "F4",
          "ticks": 60288,
          "time": 47.1,
          "velocity": 0.7874015748031497
        },
        {
          "duration": 0.09375,
          "durationTicks": 120,
          "midi": 69,
          "name": "A4",
          "ticks": 60288,
          "time": 47.1,
          "velocity": 0.7874015748031497
        },
        {
          "duration": 0.05624999999999858,
          "durationTicks": 72,
          "midi": 69,
          "name": "A4",
          "ticks": 60408,
          "time": 47.19375,
          "velocity": 0.7086614173228346
        },
        {
          "duration": 0.11249999999999716,
          "durationTicks": 144,
          "midi": 77,
          "name": "F5",
          "ticks": 60408,
          "time": 47.19375,
          "velocity": 0.7086614173228346
        },
        {
          "duration": 0.05312500000000142,
          "durationTicks": 68,
          "midi": 72,
          "name": "C5",
          "ticks": 60412,
          "time": 47.196875,
          "velocity": 0.7086614173228346
        },
        {
          "duration": 0.14999999999999858,
          "durationTicks": 192,
          "midi": 69,
          "name": "A4",
          "ticks": 60480,
          "time": 47.25,
          "velocity": 0.7874015748031497
        },
        {
          "duration": 0.14999999999999858,
          "durationTicks": 192,
          "midi": 72,
          "name": "C5",
          "ticks": 60480,
          "time": 47.25,
          "velocity": 0.7874015748031497
        },
        {
          "duration": 0.14999999999999858,
          "durationTicks": 192,
          "midi": 69,
          "name": "A4",
          "ticks": 60672,
          "time": 47.4,
          "velocity": 0.7874015748031497
        },
        {
          "duration": 0.14999999999999858,
          "durationTicks": 192,
          "midi": 72,
          "name": "C5",
          "ticks": 60672,
          "time": 47.4,
          "velocity": 0.7874015748031497
        },
        {
          "duration": 0.13125000000000142,
          "durationTicks": 168,
          "midi": 69,
          "name": "A4",
          "ticks": 60864,
          "time": 47.55,
          "velocity": 0.7874015748031497
        },
        {
          "duration": 0.1328125000000071,
          "durationTicks": 170,
          "midi": 72,
          "name": "C5",
          "ticks": 60864,
          "time": 47.55,
          "velocity": 0.7874015748031497
        },
        {
          "duration": 0.11249999999999716,
          "durationTicks": 144,
          "midi": 69,
          "name": "A4",
          "ticks": 61032,
          "time": 47.68125,
          "velocity": 0.7086614173228346
        },
        {
          "duration": 0.017187499999991473,
          "durationTicks": 22,
          "midi": 72,
          "name": "C5",
          "ticks": 61034,
          "time": 47.682812500000004,
          "velocity": 0.7086614173228346
        },
        {
          "duration": 0.017187499999991473,
          "durationTicks": 22,
          "midi": 77,
          "name": "F5",
          "ticks": 61034,
          "time": 47.682812500000004,
          "velocity": 0.7086614173228346
        },
        {
          "duration": 0.15000000000000568,
          "durationTicks": 192,
          "midi": 72,
          "name": "C5",
          "ticks": 61056,
          "time": 47.699999999999996,
          "velocity": 0.7874015748031497
        },
        {
          "duration": 0.15000000000000568,
          "durationTicks": 192,
          "midi": 77,
          "name": "F5",
          "ticks": 61056,
          "time": 47.699999999999996,
          "velocity": 0.7874015748031497
        },
        {
          "duration": 0.14999999999999858,
          "durationTicks": 192,
          "midi": 72,
          "name": "C5",
          "ticks": 61248,
          "time": 47.85,
          "velocity": 0.7874015748031497
        },
        {
          "duration": 0.14999999999999858,
          "durationTicks": 192,
          "midi": 77,
          "name": "F5",
          "ticks": 61248,
          "time": 47.85,
          "velocity": 0.7874015748031497
        },
        {
          "duration": 0.001562499999998579,
          "durationTicks": 2,
          "midi": 62,
          "name": "D4",
          "ticks": 61440,
          "time": 48,
          "velocity": 0.7874015748031497
        },
        {
          "duration": 0.0015625000000056843,
          "durationTicks": 2,
          "midi": 65,
          "name": "F4",
          "ticks": 61632,
          "time": 48.15,
          "velocity": 0.7874015748031497
        },
        {
          "duration": 0.0015625000000056843,
          "durationTicks": 2,
          "midi": 70,
          "name": "A#4",
          "ticks": 61824,
          "time": 48.3,
          "velocity": 0.7874015748031497
        },
        {
          "duration": 0.30000000000000426,
          "durationTicks": 384,
          "midi": 74,
          "name": "D5",
          "ticks": 62016,
          "time": 48.449999999999996,
          "velocity": 0.7874015748031497
        },
        {
          "duration": 0.30000000000000426,
          "durationTicks": 384,
          "midi": 70,
          "name": "A#4",
          "ticks": 62016,
          "time": 48.449999999999996,
          "velocity": 0.7874015748031497
        },
        {
          "duration": 0.29999999999999716,
          "durationTicks": 384,
          "midi": 74,
          "name": "D5",
          "ticks": 62400,
          "time": 48.75,
          "velocity": 0.7874015748031497
        },
        {
          "duration": 0.29999999999999716,
          "durationTicks": 384,
          "midi": 70,
          "name": "A#4",
          "ticks": 62400,
          "time": 48.75,
          "velocity": 0.7874015748031497
        },
        {
          "duration": 0.14999999999999858,
          "durationTicks": 192,
          "midi": 70,
          "name": "A#4",
          "ticks": 62784,
          "time": 49.05,
          "velocity": 0.7874015748031497
        },
        {
          "duration": 0.14999999999999858,
          "durationTicks": 192,
          "midi": 62,
          "name": "D4",
          "ticks": 62784,
          "time": 49.05,
          "velocity": 0.7874015748031497
        },
        {
          "duration": 0.30000000000000426,
          "durationTicks": 384,
          "midi": 72,
          "name": "C5",
          "ticks": 62976,
          "time": 49.199999999999996,
          "velocity": 0.7874015748031497
        },
        {
          "duration": 0.30000000000000426,
          "durationTicks": 384,
          "midi": 63,
          "name": "D#4",
          "ticks": 62976,
          "time": 49.199999999999996,
          "velocity": 0.7874015748031497
        },
        {
          "duration": 0.29999999999999716,
          "durationTicks": 384,
          "midi": 75,
          "name": "D#5",
          "ticks": 63360,
          "time": 49.5,
          "velocity": 0.7874015748031497
        },
        {
          "duration": 0.29999999999999716,
          "durationTicks": 384,
          "midi": 67,
          "name": "G4",
          "ticks": 63360,
          "time": 49.5,
          "velocity": 0.7874015748031497
        },
        {
          "duration": 0.30000000000000426,
          "durationTicks": 384,
          "midi": 74,
          "name": "D5",
          "ticks": 63744,
          "time": 49.8,
          "velocity": 0.7874015748031497
        },
        {
          "duration": 0.30000000000000426,
          "durationTicks": 384,
          "midi": 65,
          "name": "F4",
          "ticks": 63744,
          "time": 49.8,
          "velocity": 0.7874015748031497
        },
        {
          "duration": 0.29999999999999716,
          "durationTicks": 384,
          "midi": 70,
          "name": "A#4",
          "ticks": 64128,
          "time": 50.1,
          "velocity": 0.7874015748031497
        },
        {
          "duration": 0.29999999999999716,
          "durationTicks": 384,
          "midi": 62,
          "name": "D4",
          "ticks": 64128,
          "time": 50.1,
          "velocity": 0.7874015748031497
        },
        {
          "duration": 0.0015625000000056843,
          "durationTicks": 2,
          "midi": 58,
          "name": "A#3",
          "ticks": 64512,
          "time": 50.4,
          "velocity": 0.7874015748031497
        },
        {
          "duration": 0.0015625000000056843,
          "durationTicks": 2,
          "midi": 62,
          "name": "D4",
          "ticks": 64704,
          "time": 50.55,
          "velocity": 0.7874015748031497
        },
        {
          "duration": 0.0015625000000056843,
          "durationTicks": 2,
          "midi": 65,
          "name": "F4",
          "ticks": 64896,
          "time": 50.699999999999996,
          "velocity": 0.7874015748031497
        },
        {
          "duration": 0.29999999999999716,
          "durationTicks": 384,
          "midi": 70,
          "name": "A#4",
          "ticks": 65088,
          "time": 50.85,
          "velocity": 0.7874015748031497
        },
        {
          "duration": 0.29999999999999716,
          "durationTicks": 384,
          "midi": 62,
          "name": "D4",
          "ticks": 65088,
          "time": 50.85,
          "velocity": 0.7874015748031497
        },
        {
          "duration": 0.29999999999999716,
          "durationTicks": 384,
          "midi": 70,
          "name": "A#4",
          "ticks": 65472,
          "time": 51.15,
          "velocity": 0.7874015748031497
        },
        {
          "duration": 0.29999999999999716,
          "durationTicks": 384,
          "midi": 62,
          "name": "D4",
          "ticks": 65472,
          "time": 51.15,
          "velocity": 0.7874015748031497
        },
        {
          "duration": 0.0015625000000056843,
          "durationTicks": 2,
          "midi": 60,
          "name": "C4",
          "ticks": 65856,
          "time": 51.449999999999996,
          "velocity": 0.7874015748031497
        },
        {
          "duration": 0.29999999999999716,
          "durationTicks": 384,
          "midi": 69,
          "name": "A4",
          "ticks": 66048,
          "time": 51.6,
          "velocity": 0.7874015748031497
        },
        {
          "duration": 0.29999999999999716,
          "durationTicks": 384,
          "midi": 65,
          "name": "F4",
          "ticks": 66048,
          "time": 51.6,
          "velocity": 0.7874015748031497
        },
        {
          "duration": 0.29999999999999716,
          "durationTicks": 384,
          "midi": 72,
          "name": "C5",
          "ticks": 66432,
          "time": 51.9,
          "velocity": 0.7874015748031497
        },
        {
          "duration": 0.29999999999999716,
          "durationTicks": 384,
          "midi": 63,
          "name": "D#4",
          "ticks": 66432,
          "time": 51.9,
          "velocity": 0.7874015748031497
        },
        {
          "duration": 0.0015625000000056843,
          "durationTicks": 2,
          "midi": 70,
          "name": "A#4",
          "ticks": 66816,
          "time": 52.199999999999996,
          "velocity": 0.7874015748031497
        },
        {
          "duration": 0.0015625000000056843,
          "durationTicks": 2,
          "midi": 62,
          "name": "D4",
          "ticks": 66912,
          "time": 52.275,
          "velocity": 0.7874015748031497
        },
        {
          "duration": 0.001562499999998579,
          "durationTicks": 2,
          "midi": 70,
          "name": "A#4",
          "ticks": 67008,
          "time": 52.35,
          "velocity": 0.7874015748031497
        },
        {
          "duration": 0.0015625000000056843,
          "durationTicks": 2,
          "midi": 62,
          "name": "D4",
          "ticks": 67104,
          "time": 52.425,
          "velocity": 0.7874015748031497
        },
        {
          "duration": 0.001562499999998579,
          "durationTicks": 2,
          "midi": 70,
          "name": "A#4",
          "ticks": 67200,
          "time": 52.5,
          "velocity": 0.7874015748031497
        },
        {
          "duration": 0.0015625000000056843,
          "durationTicks": 2,
          "midi": 62,
          "name": "D4",
          "ticks": 67296,
          "time": 52.574999999999996,
          "velocity": 0.7874015748031497
        },
        {
          "duration": 0.0015625000000056843,
          "durationTicks": 2,
          "midi": 70,
          "name": "A#4",
          "ticks": 67392,
          "time": 52.65,
          "velocity": 0.7874015748031497
        },
        {
          "duration": 1.2000000000000028,
          "durationTicks": 1536,
          "midi": 77,
          "name": "F5",
          "ticks": 67584,
          "time": 52.8,
          "velocity": 0.7874015748031497
        },
        {
          "duration": 1.2000000000000028,
          "durationTicks": 1536,
          "midi": 74,
          "name": "D5",
          "ticks": 67584,
          "time": 52.8,
          "velocity": 0.7874015748031497
        },
        {
          "duration": 1.2000000000000028,
          "durationTicks": 1536,
          "midi": 70,
          "name": "A#4",
          "ticks": 67584,
          "time": 52.8,
          "velocity": 0.7874015748031497
        },
        {
          "duration": 0.14999999999999858,
          "durationTicks": 192,
          "midi": 62,
          "name": "D4",
          "ticks": 67584,
          "time": 52.8,
          "velocity": 0.7874015748031497
        },
        {
          "duration": 0.14999999999999858,
          "durationTicks": 192,
          "midi": 58,
          "name": "A#3",
          "ticks": 67584,
          "time": 52.8,
          "velocity": 0.7874015748031497
        },
        {
          "duration": 0.14999999999999858,
          "durationTicks": 192,
          "midi": 65,
          "name": "F4",
          "ticks": 68160,
          "time": 53.25,
          "velocity": 0.7874015748031497
        },
        {
          "duration": 0.14999999999999858,
          "durationTicks": 192,
          "midi": 62,
          "name": "D4",
          "ticks": 68160,
          "time": 53.25,
          "velocity": 0.7874015748031497
        },
        {
          "duration": 0.14999999999999858,
          "durationTicks": 192,
          "midi": 60,
          "name": "C4",
          "ticks": 68544,
          "time": 53.55,
          "velocity": 0.7874015748031497
        },
        {
          "duration": 0.14999999999999858,
          "durationTicks": 192,
          "midi": 57,
          "name": "A3",
          "ticks": 68544,
          "time": 53.55,
          "velocity": 0.7874015748031497
        },
        {
          "duration": 0.6000000000000014,
          "durationTicks": 768,
          "midi": 77,
          "name": "F5",
          "ticks": 69120,
          "time": 54,
          "velocity": 0.7874015748031497
        },
        {
          "duration": 0.6000000000000014,
          "durationTicks": 768,
          "midi": 72,
          "name": "C5",
          "ticks": 69120,
          "time": 54,
          "velocity": 0.7874015748031497
        },
        {
          "duration": 0.6000000000000014,
          "durationTicks": 768,
          "midi": 69,
          "name": "A4",
          "ticks": 69120,
          "time": 54,
          "velocity": 0.7874015748031497
        },
        {
          "duration": 0.14999999999999858,
          "durationTicks": 192,
          "midi": 60,
          "name": "C4",
          "ticks": 69120,
          "time": 54,
          "velocity": 0.7874015748031497
        },
        {
          "duration": 0.14999999999999858,
          "durationTicks": 192,
          "midi": 57,
          "name": "A3",
          "ticks": 69120,
          "time": 54,
          "velocity": 0.7874015748031497
        },
        {
          "duration": 0.14999999999999858,
          "durationTicks": 192,
          "midi": 60,
          "name": "C4",
          "ticks": 69504,
          "time": 54.3,
          "velocity": 0.7874015748031497
        },
        {
          "duration": 0.14999999999999858,
          "durationTicks": 192,
          "midi": 57,
          "name": "A3",
          "ticks": 69504,
          "time": 54.3,
          "velocity": 0.7874015748031497
        },
        {
          "duration": 0.5999999999999943,
          "durationTicks": 768,
          "midi": 70,
          "name": "A#4",
          "ticks": 69888,
          "time": 54.6,
          "velocity": 0.7874015748031497
        },
        {
          "duration": 0.5999999999999943,
          "durationTicks": 768,
          "midi": 74,
          "name": "D5",
          "ticks": 69888,
          "time": 54.6,
          "velocity": 0.7874015748031497
        },
        {
          "duration": 0.5999999999999943,
          "durationTicks": 768,
          "midi": 77,
          "name": "F5",
          "ticks": 69888,
          "time": 54.6,
          "velocity": 0.7874015748031497
        },
        {
          "duration": 0.14999999999999858,
          "durationTicks": 192,
          "midi": 62,
          "name": "D4",
          "ticks": 69888,
          "time": 54.6,
          "velocity": 0.7874015748031497
        },
        {
          "duration": 0.14999999999999858,
          "durationTicks": 192,
          "midi": 58,
          "name": "A#3",
          "ticks": 69888,
          "time": 54.6,
          "velocity": 0.7874015748031497
        },
        {
          "duration": 0.14999999999999858,
          "durationTicks": 192,
          "midi": 62,
          "name": "D4",
          "ticks": 70272,
          "time": 54.9,
          "velocity": 0.7874015748031497
        },
        {
          "duration": 0.14999999999999858,
          "durationTicks": 192,
          "midi": 58,
          "name": "A#3",
          "ticks": 70272,
          "time": 54.9,
          "velocity": 0.7874015748031497
        },
        {
          "duration": 0.45000000000000284,
          "durationTicks": 576,
          "midi": 74,
          "name": "D5",
          "ticks": 70656,
          "time": 55.199999999999996,
          "velocity": 0.7874015748031497
        },
        {
          "duration": 0.15000000000000568,
          "durationTicks": 192,
          "midi": 65,
          "name": "F4",
          "ticks": 70656,
          "time": 55.199999999999996,
          "velocity": 0.7874015748031497
        },
        {
          "duration": 0.30000000000000426,
          "durationTicks": 384,
          "midi": 70,
          "name": "A#4",
          "ticks": 70656,
          "time": 55.199999999999996,
          "velocity": 0.7874015748031497
        },
        {
          "duration": 0.15000000000000568,
          "durationTicks": 192,
          "midi": 62,
          "name": "D4",
          "ticks": 70656,
          "time": 55.199999999999996,
          "velocity": 0.7874015748031497
        },
        {
          "duration": 0.15000000000000568,
          "durationTicks": 192,
          "midi": 58,
          "name": "A#3",
          "ticks": 70656,
          "time": 55.199999999999996,
          "velocity": 0.7874015748031497
        },
        {
          "duration": 0.14999999999999858,
          "durationTicks": 192,
          "midi": 65,
          "name": "F4",
          "ticks": 70848,
          "time": 55.35,
          "velocity": 0.7874015748031497
        },
        {
          "duration": 0.14999999999999858,
          "durationTicks": 192,
          "midi": 62,
          "name": "D4",
          "ticks": 70848,
          "time": 55.35,
          "velocity": 0.7874015748031497
        },
        {
          "duration": 0.14999999999999858,
          "durationTicks": 192,
          "midi": 70,
          "name": "A#4",
          "ticks": 71040,
          "time": 55.5,
          "velocity": 0.7874015748031497
        },
        {
          "duration": 0.8999999999999986,
          "durationTicks": 1152,
          "midi": 65,
          "name": "F4",
          "ticks": 71040,
          "time": 55.5,
          "velocity": 0.7874015748031497
        },
        {
          "duration": 0.29999999999999716,
          "durationTicks": 384,
          "midi": 74,
          "name": "D5",
          "ticks": 71232,
          "time": 55.65,
          "velocity": 0.7874015748031497
        },
        {
          "duration": 0.29999999999999716,
          "durationTicks": 384,
          "midi": 70,
          "name": "A#4",
          "ticks": 71232,
          "time": 55.65,
          "velocity": 0.7874015748031497
        },
        {
          "duration": 0.30000000000000426,
          "durationTicks": 384,
          "midi": 74,
          "name": "D5",
          "ticks": 71616,
          "time": 55.949999999999996,
          "velocity": 0.7874015748031497
        },
        {
          "duration": 0.30000000000000426,
          "durationTicks": 384,
          "midi": 70,
          "name": "A#4",
          "ticks": 71616,
          "time": 55.949999999999996,
          "velocity": 0.7874015748031497
        },
        {
          "duration": 0.14999999999999858,
          "durationTicks": 192,
          "midi": 74,
          "name": "D5",
          "ticks": 72000,
          "time": 56.25,
          "velocity": 0.7874015748031497
        },
        {
          "duration": 0.14999999999999858,
          "durationTicks": 192,
          "midi": 70,
          "name": "A#4",
          "ticks": 72000,
          "time": 56.25,
          "velocity": 0.7874015748031497
        },
        {
          "duration": 0.0015625000000056843,
          "durationTicks": 2,
          "midi": 69,
          "name": "A4",
          "ticks": 72192,
          "time": 56.4,
          "velocity": 0.7874015748031497
        },
        {
          "duration": 0.0015625000000056843,
          "durationTicks": 2,
          "midi": 72,
          "name": "C5",
          "ticks": 72192,
          "time": 56.4,
          "velocity": 0.7874015748031497
        },
        {
          "duration": 0.29999999999999716,
          "durationTicks": 384,
          "midi": 65,
          "name": "F4",
          "ticks": 72192,
          "time": 56.4,
          "velocity": 0.7874015748031497
        },
        {
          "duration": 0.30000000000000426,
          "durationTicks": 384,
          "midi": 65,
          "name": "F4",
          "ticks": 72576,
          "time": 56.699999999999996,
          "velocity": 0.7874015748031497
        },
        {
          "duration": 0.15000000000000568,
          "durationTicks": 192,
          "midi": 60,
          "name": "C4",
          "ticks": 72576,
          "time": 56.699999999999996,
          "velocity": 0.7874015748031497
        },
        {
          "duration": 0.5999999999999943,
          "durationTicks": 768,
          "midi": 65,
          "name": "F4",
          "ticks": 72960,
          "time": 57,
          "velocity": 0.7874015748031497
        },
        {
          "duration": 0.5999999999999943,
          "durationTicks": 768,
          "midi": 74,
          "name": "D5",
          "ticks": 72960,
          "time": 57,
          "velocity": 0.7874015748031497
        },
        {
          "duration": 0.5999999999999943,
          "durationTicks": 768,
          "midi": 70,
          "name": "A#4",
          "ticks": 72960,
          "time": 57,
          "velocity": 0.7874015748031497
        },
        {
          "duration": 0.14999999999999858,
          "durationTicks": 192,
          "midi": 62,
          "name": "D4",
          "ticks": 72960,
          "time": 57,
          "velocity": 0.7874015748031497
        },
        {
          "duration": 0.14999999999999858,
          "durationTicks": 192,
          "midi": 58,
          "name": "A#3",
          "ticks": 72960,
          "time": 57,
          "velocity": 0.7874015748031497
        },
        {
          "duration": 1.2000000000000028,
          "durationTicks": 1536,
          "midi": 74,
          "name": "D5",
          "ticks": 73728,
          "time": 57.599999999999994,
          "velocity": 0.7874015748031497
        },
        {
          "duration": 1.2000000000000028,
          "durationTicks": 1536,
          "midi": 77,
          "name": "F5",
          "ticks": 73728,
          "time": 57.599999999999994,
          "velocity": 0.7874015748031497
        },
        {
          "duration": 1.2000000000000028,
          "durationTicks": 1536,
          "midi": 70,
          "name": "A#4",
          "ticks": 73728,
          "time": 57.599999999999994,
          "velocity": 0.7874015748031497
        },
        {
          "duration": 0.15000000000000568,
          "durationTicks": 192,
          "midi": 62,
          "name": "D4",
          "ticks": 73728,
          "time": 57.599999999999994,
          "velocity": 0.7874015748031497
        },
        {
          "duration": 0.15000000000000568,
          "durationTicks": 192,
          "midi": 58,
          "name": "A#3",
          "ticks": 73728,
          "time": 57.599999999999994,
          "velocity": 0.7874015748031497
        },
        {
          "duration": 0.14999999999999858,
          "durationTicks": 192,
          "midi": 65,
          "name": "F4",
          "ticks": 74304,
          "time": 58.05,
          "velocity": 0.7874015748031497
        },
        {
          "duration": 0.14999999999999858,
          "durationTicks": 192,
          "midi": 62,
          "name": "D4",
          "ticks": 74304,
          "time": 58.05,
          "velocity": 0.7874015748031497
        },
        {
          "duration": 0.15000000000000568,
          "durationTicks": 192,
          "midi": 60,
          "name": "C4",
          "ticks": 74688,
          "time": 58.349999999999994,
          "velocity": 0.7874015748031497
        },
        {
          "duration": 0.15000000000000568,
          "durationTicks": 192,
          "midi": 57,
          "name": "A3",
          "ticks": 74688,
          "time": 58.349999999999994,
          "velocity": 0.7874015748031497
        },
        {
          "duration": 0.6000000000000014,
          "durationTicks": 768,
          "midi": 77,
          "name": "F5",
          "ticks": 75264,
          "time": 58.8,
          "velocity": 0.7874015748031497
        },
        {
          "duration": 0.6000000000000014,
          "durationTicks": 768,
          "midi": 72,
          "name": "C5",
          "ticks": 75264,
          "time": 58.8,
          "velocity": 0.7874015748031497
        },
        {
          "duration": 0.6000000000000014,
          "durationTicks": 768,
          "midi": 69,
          "name": "A4",
          "ticks": 75264,
          "time": 58.8,
          "velocity": 0.7874015748031497
        },
        {
          "duration": 0.14999999999999858,
          "durationTicks": 192,
          "midi": 60,
          "name": "C4",
          "ticks": 75264,
          "time": 58.8,
          "velocity": 0.7874015748031497
        },
        {
          "duration": 0.14999999999999858,
          "durationTicks": 192,
          "midi": 57,
          "name": "A3",
          "ticks": 75264,
          "time": 58.8,
          "velocity": 0.7874015748031497
        },
        {
          "duration": 0.15000000000000568,
          "durationTicks": 192,
          "midi": 60,
          "name": "C4",
          "ticks": 75648,
          "time": 59.099999999999994,
          "velocity": 0.7874015748031497
        },
        {
          "duration": 0.15000000000000568,
          "durationTicks": 192,
          "midi": 57,
          "name": "A3",
          "ticks": 75648,
          "time": 59.099999999999994,
          "velocity": 0.7874015748031497
        },
        {
          "duration": 0.6000000000000014,
          "durationTicks": 768,
          "midi": 77,
          "name": "F5",
          "ticks": 76032,
          "time": 59.4,
          "velocity": 0.7874015748031497
        },
        {
          "duration": 0.6000000000000014,
          "durationTicks": 768,
          "midi": 70,
          "name": "A#4",
          "ticks": 76032,
          "time": 59.4,
          "velocity": 0.7874015748031497
        },
        {
          "duration": 0.6000000000000014,
          "durationTicks": 768,
          "midi": 74,
          "name": "D5",
          "ticks": 76032,
          "time": 59.4,
          "velocity": 0.7874015748031497
        },
        {
          "duration": 0.14999999999999858,
          "durationTicks": 192,
          "midi": 62,
          "name": "D4",
          "ticks": 76032,
          "time": 59.4,
          "velocity": 0.7874015748031497
        },
        {
          "duration": 0.14999999999999858,
          "durationTicks": 192,
          "midi": 58,
          "name": "A#3",
          "ticks": 76032,
          "time": 59.4,
          "velocity": 0.7874015748031497
        },
        {
          "duration": 0.14999999999999858,
          "durationTicks": 192,
          "midi": 62,
          "name": "D4",
          "ticks": 76416,
          "time": 59.699999999999996,
          "velocity": 0.7874015748031497
        },
        {
          "duration": 0.14999999999999858,
          "durationTicks": 192,
          "midi": 58,
          "name": "A#3",
          "ticks": 76416,
          "time": 59.699999999999996,
          "velocity": 0.7874015748031497
        },
        {
          "duration": 0.29999999999999716,
          "durationTicks": 384,
          "midi": 70,
          "name": "A#4",
          "ticks": 76800,
          "time": 60,
          "velocity": 0.7874015748031497
        },
        {
          "duration": 0.14999999999999858,
          "durationTicks": 192,
          "midi": 65,
          "name": "F4",
          "ticks": 76800,
          "time": 60,
          "velocity": 0.7874015748031497
        },
        {
          "duration": 0.44999999999999574,
          "durationTicks": 576,
          "midi": 74,
          "name": "D5",
          "ticks": 76800,
          "time": 60,
          "velocity": 0.7874015748031497
        },
        {
          "duration": 0.14999999999999858,
          "durationTicks": 192,
          "midi": 62,
          "name": "D4",
          "ticks": 76800,
          "time": 60,
          "velocity": 0.7874015748031497
        },
        {
          "duration": 0.14999999999999858,
          "durationTicks": 192,
          "midi": 58,
          "name": "A#3",
          "ticks": 76800,
          "time": 60,
          "velocity": 0.7874015748031497
        },
        {
          "duration": 0.14999999999999858,
          "durationTicks": 192,
          "midi": 65,
          "name": "F4",
          "ticks": 76992,
          "time": 60.15,
          "velocity": 0.7874015748031497
        },
        {
          "duration": 0.14999999999999858,
          "durationTicks": 192,
          "midi": 62,
          "name": "D4",
          "ticks": 76992,
          "time": 60.15,
          "velocity": 0.7874015748031497
        },
        {
          "duration": 0.14999999999999858,
          "durationTicks": 192,
          "midi": 70,
          "name": "A#4",
          "ticks": 77184,
          "time": 60.3,
          "velocity": 0.7874015748031497
        },
        {
          "duration": 0.8999999999999986,
          "durationTicks": 1152,
          "midi": 65,
          "name": "F4",
          "ticks": 77184,
          "time": 60.3,
          "velocity": 0.7874015748031497
        },
        {
          "duration": 0.30000000000000426,
          "durationTicks": 384,
          "midi": 74,
          "name": "D5",
          "ticks": 77376,
          "time": 60.449999999999996,
          "velocity": 0.7874015748031497
        },
        {
          "duration": 0.30000000000000426,
          "durationTicks": 384,
          "midi": 70,
          "name": "A#4",
          "ticks": 77376,
          "time": 60.449999999999996,
          "velocity": 0.7874015748031497
        },
        {
          "duration": 0.29999999999999716,
          "durationTicks": 384,
          "midi": 74,
          "name": "D5",
          "ticks": 77760,
          "time": 60.75,
          "velocity": 0.7874015748031497
        },
        {
          "duration": 0.29999999999999716,
          "durationTicks": 384,
          "midi": 70,
          "name": "A#4",
          "ticks": 77760,
          "time": 60.75,
          "velocity": 0.7874015748031497
        },
        {
          "duration": 0.14999999999999858,
          "durationTicks": 192,
          "midi": 74,
          "name": "D5",
          "ticks": 78144,
          "time": 61.05,
          "velocity": 0.7874015748031497
        },
        {
          "duration": 0.14999999999999858,
          "durationTicks": 192,
          "midi": 70,
          "name": "A#4",
          "ticks": 78144,
          "time": 61.05,
          "velocity": 0.7874015748031497
        },
        {
          "duration": 0.0015625000000056843,
          "durationTicks": 2,
          "midi": 69,
          "name": "A4",
          "ticks": 78336,
          "time": 61.199999999999996,
          "velocity": 0.7874015748031497
        },
        {
          "duration": 0.0015625000000056843,
          "durationTicks": 2,
          "midi": 72,
          "name": "C5",
          "ticks": 78336,
          "time": 61.199999999999996,
          "velocity": 0.7874015748031497
        },
        {
          "duration": 0.6000000000000014,
          "durationTicks": 768,
          "midi": 65,
          "name": "F4",
          "ticks": 78336,
          "time": 61.199999999999996,
          "velocity": 0.7874015748031497
        },
        {
          "duration": 0.29999999999999716,
          "durationTicks": 384,
          "midi": 72,
          "name": "C5",
          "ticks": 78720,
          "time": 61.5,
          "velocity": 0.7874015748031497
        },
        {
          "duration": 0.29999999999999716,
          "durationTicks": 384,
          "midi": 69,
          "name": "A4",
          "ticks": 78720,
          "time": 61.5,
          "velocity": 0.7874015748031497
        },
        {
          "duration": 0.6000000000000014,
          "durationTicks": 768,
          "midi": 65,
          "name": "F4",
          "ticks": 79104,
          "time": 61.8,
          "velocity": 0.7874015748031497
        },
        {
          "duration": 0.6000000000000014,
          "durationTicks": 768,
          "midi": 74,
          "name": "D5",
          "ticks": 79104,
          "time": 61.8,
          "velocity": 0.7874015748031497
        },
        {
          "duration": 0.0015625000000056843,
          "durationTicks": 2,
          "midi": 70,
          "name": "A#4",
          "ticks": 79104,
          "time": 61.8,
          "velocity": 0.7874015748031497
        },
        {
          "duration": 0.14999999999999858,
          "durationTicks": 192,
          "midi": 62,
          "name": "D4",
          "ticks": 79104,
          "time": 61.8,
          "velocity": 0.7874015748031497
        },
        {
          "duration": 0.14999999999999858,
          "durationTicks": 192,
          "midi": 70,
          "name": "A#4",
          "ticks": 79872,
          "time": 62.4,
          "velocity": 0.7874015748031497
        },
        {
          "duration": 0.001562499999998579,
          "durationTicks": 2,
          "midi": 67,
          "name": "G4",
          "ticks": 79872,
          "time": 62.4,
          "velocity": 0.7874015748031497
        },
        {
          "duration": 0.29999999999999716,
          "durationTicks": 384,
          "midi": 75,
          "name": "D#5",
          "ticks": 79872,
          "time": 62.4,
          "velocity": 0.7874015748031497
        },
        {
          "duration": 0.14999999999999858,
          "durationTicks": 192,
          "midi": 63,
          "name": "D#4",
          "ticks": 79872,
          "time": 62.4,
          "velocity": 0.7874015748031497
        },
        {
          "duration": 0.8999999999999986,
          "durationTicks": 1152,
          "midi": 67,
          "name": "G4",
          "ticks": 80064,
          "time": 62.55,
          "velocity": 0.7874015748031497
        },
        {
          "duration": 0.14999999999999858,
          "durationTicks": 192,
          "midi": 70,
          "name": "A#4",
          "ticks": 80064,
          "time": 62.55,
          "velocity": 0.7874015748031497
        },
        {
          "duration": 0.75,
          "durationTicks": 960,
          "midi": 70,
          "name": "A#4",
          "ticks": 80256,
          "time": 62.699999999999996,
          "velocity": 0.7874015748031497
        },
        {
          "duration": 0.14999999999999858,
          "durationTicks": 192,
          "midi": 75,
          "name": "D#5",
          "ticks": 80256,
          "time": 62.699999999999996,
          "velocity": 0.7874015748031497
        },
        {
          "duration": 0.30000000000000426,
          "durationTicks": 384,
          "midi": 75,
          "name": "D#5",
          "ticks": 80448,
          "time": 62.849999999999994,
          "velocity": 0.7874015748031497
        },
        {
          "duration": 0.15000000000000568,
          "durationTicks": 192,
          "midi": 79,
          "name": "G5",
          "ticks": 80448,
          "time": 62.849999999999994,
          "velocity": 0.7874015748031497
        },
        {
          "duration": 0.44999999999999574,
          "durationTicks": 576,
          "midi": 75,
          "name": "D#5",
          "ticks": 80832,
          "time": 63.15,
          "velocity": 0.7874015748031497
        },
        {
          "duration": 0.14999999999999858,
          "durationTicks": 192,
          "midi": 79,
          "name": "G5",
          "ticks": 80832,
          "time": 63.15,
          "velocity": 0.7874015748031497
        },
        {
          "duration": 0.14999999999999858,
          "durationTicks": 192,
          "midi": 70,
          "name": "A#4",
          "ticks": 81216,
          "time": 63.449999999999996,
          "velocity": 0.7874015748031497
        },
        {
          "duration": 0.14999999999999858,
          "durationTicks": 192,
          "midi": 67,
          "name": "G4",
          "ticks": 81216,
          "time": 63.449999999999996,
          "velocity": 0.7874015748031497
        },
        {
          "duration": 0.0015625000000056843,
          "durationTicks": 2,
          "midi": 74,
          "name": "D5",
          "ticks": 81408,
          "time": 63.599999999999994,
          "velocity": 0.7874015748031497
        },
        {
          "duration": 1.2000000000000028,
          "durationTicks": 1536,
          "midi": 65,
          "name": "F4",
          "ticks": 81408,
          "time": 63.599999999999994,
          "velocity": 0.7874015748031497
        },
        {
          "duration": 0.0015625000000056843,
          "durationTicks": 2,
          "midi": 70,
          "name": "A#4",
          "ticks": 81408,
          "time": 63.599999999999994,
          "velocity": 0.7874015748031497
        },
        {
          "duration": 0.30000000000000426,
          "durationTicks": 384,
          "midi": 74,
          "name": "D5",
          "ticks": 81792,
          "time": 63.9,
          "velocity": 0.7874015748031497
        },
        {
          "duration": 0.6000000000000014,
          "durationTicks": 768,
          "midi": 70,
          "name": "A#4",
          "ticks": 81792,
          "time": 63.9,
          "velocity": 0.7874015748031497
        },
        {
          "duration": 0.14999999999999147,
          "durationTicks": 192,
          "midi": 77,
          "name": "F5",
          "ticks": 82176,
          "time": 64.2,
          "velocity": 0.7874015748031497
        },
        {
          "duration": 0.29999999999999716,
          "durationTicks": 384,
          "midi": 74,
          "name": "D5",
          "ticks": 82176,
          "time": 64.2,
          "velocity": 0.7874015748031497
        },
        {
          "duration": 0.29999999999999716,
          "durationTicks": 384,
          "midi": 74,
          "name": "D5",
          "ticks": 82560,
          "time": 64.5,
          "velocity": 0.7874015748031497
        },
        {
          "duration": 0.29999999999999716,
          "durationTicks": 384,
          "midi": 70,
          "name": "A#4",
          "ticks": 82560,
          "time": 64.5,
          "velocity": 0.7874015748031497
        },
        {
          "duration": 0.0015625000000056843,
          "durationTicks": 2,
          "midi": 65,
          "name": "F4",
          "ticks": 82944,
          "time": 64.8,
          "velocity": 0.7874015748031497
        },
        {
          "duration": 0.15000000000000568,
          "durationTicks": 192,
          "midi": 72,
          "name": "C5",
          "ticks": 82944,
          "time": 64.8,
          "velocity": 0.7874015748031497
        },
        {
          "duration": 0.0015625000000056843,
          "durationTicks": 2,
          "midi": 69,
          "name": "A4",
          "ticks": 82944,
          "time": 64.8,
          "velocity": 0.7874015748031497
        },
        {
          "duration": 1.0499999999999972,
          "durationTicks": 1344,
          "midi": 69,
          "name": "A4",
          "ticks": 83136,
          "time": 64.95,
          "velocity": 0.7874015748031497
        },
        {
          "duration": 0.14999999999999147,
          "durationTicks": 192,
          "midi": 72,
          "name": "C5",
          "ticks": 83136,
          "time": 64.95,
          "velocity": 0.7874015748031497
        },
        {
          "duration": 0.9000000000000057,
          "durationTicks": 1152,
          "midi": 72,
          "name": "C5",
          "ticks": 83328,
          "time": 65.1,
          "velocity": 0.7874015748031497
        },
        {
          "duration": 0.15000000000000568,
          "durationTicks": 192,
          "midi": 77,
          "name": "F5",
          "ticks": 83328,
          "time": 65.1,
          "velocity": 0.7874015748031497
        },
        {
          "duration": 0.14999999999999147,
          "durationTicks": 192,
          "midi": 77,
          "name": "F5",
          "ticks": 83520,
          "time": 65.25,
          "velocity": 0.7874015748031497
        },
        {
          "duration": 0.14999999999999147,
          "durationTicks": 192,
          "midi": 81,
          "name": "A5",
          "ticks": 83520,
          "time": 65.25,
          "velocity": 0.7874015748031497
        },
        {
          "duration": 0.15000000000000568,
          "durationTicks": 192,
          "midi": 77,
          "name": "F5",
          "ticks": 83904,
          "time": 65.55,
          "velocity": 0.7874015748031497
        },
        {
          "duration": 0.15000000000000568,
          "durationTicks": 192,
          "midi": 81,
          "name": "A5",
          "ticks": 83904,
          "time": 65.55,
          "velocity": 0.7874015748031497
        },
        {
          "duration": 0.15000000000000568,
          "durationTicks": 192,
          "midi": 79,
          "name": "G5",
          "ticks": 84288,
          "time": 65.85,
          "velocity": 0.7874015748031497
        },
        {
          "duration": 0.15000000000000568,
          "durationTicks": 192,
          "midi": 75,
          "name": "D#5",
          "ticks": 84288,
          "time": 65.85,
          "velocity": 0.7874015748031497
        },
        {
          "duration": 0.5999999999999943,
          "durationTicks": 768,
          "midi": 70,
          "name": "A#4",
          "ticks": 84480,
          "time": 66,
          "velocity": 0.7874015748031497
        },
        {
          "duration": 0.0015625000000056843,
          "durationTicks": 2,
          "midi": 74,
          "name": "D5",
          "ticks": 84480,
          "time": 66,
          "velocity": 0.7874015748031497
        },
        {
          "duration": 1.2000000000000028,
          "durationTicks": 1536,
          "midi": 65,
          "name": "F4",
          "ticks": 84480,
          "time": 66,
          "velocity": 0.7874015748031497
        },
        {
          "duration": 0.14999999999999147,
          "durationTicks": 192,
          "midi": 77,
          "name": "F5",
          "ticks": 84480,
          "time": 66,
          "velocity": 0.7874015748031497
        },
        {
          "duration": 0.15000000000000568,
          "durationTicks": 192,
          "midi": 75,
          "name": "D#5",
          "ticks": 84864,
          "time": 66.3,
          "velocity": 0.7874015748031497
        },
        {
          "duration": 0.15000000000000568,
          "durationTicks": 192,
          "midi": 72,
          "name": "C5",
          "ticks": 84864,
          "time": 66.3,
          "velocity": 0.7874015748031497
        },
        {
          "duration": 0.6000000000000085,
          "durationTicks": 768,
          "midi": 74,
          "name": "D5",
          "ticks": 85248,
          "time": 66.6,
          "velocity": 0.7874015748031497
        },
        {
          "duration": 0.6000000000000085,
          "durationTicks": 768,
          "midi": 70,
          "name": "A#4",
          "ticks": 85248,
          "time": 66.6,
          "velocity": 0.7874015748031497
        },
        {
          "duration": 0.14999999999999147,
          "durationTicks": 192,
          "midi": 70,
          "name": "A#4",
          "ticks": 86016,
          "time": 67.2,
          "velocity": 0.7874015748031497
        },
        {
          "duration": 0.0015624999999914735,
          "durationTicks": 2,
          "midi": 63,
          "name": "D#4",
          "ticks": 86016,
          "time": 67.2,
          "velocity": 0.7874015748031497
        },
        {
          "duration": 0.0015624999999914735,
          "durationTicks": 2,
          "midi": 67,
          "name": "G4",
          "ticks": 86016,
          "time": 67.2,
          "velocity": 0.7874015748031497
        },
        {
          "duration": 0.9000000000000057,
          "durationTicks": 1152,
          "midi": 67,
          "name": "G4",
          "ticks": 86208,
          "time": 67.35,
          "velocity": 0.7874015748031497
        },
        {
          "duration": 0.15000000000000568,
          "durationTicks": 192,
          "midi": 70,
          "name": "A#4",
          "ticks": 86208,
          "time": 67.35,
          "velocity": 0.7874015748031497
        },
        {
          "duration": 0.75,
          "durationTicks": 960,
          "midi": 70,
          "name": "A#4",
          "ticks": 86400,
          "time": 67.5,
          "velocity": 0.7874015748031497
        },
        {
          "duration": 0.14999999999999147,
          "durationTicks": 192,
          "midi": 75,
          "name": "D#5",
          "ticks": 86400,
          "time": 67.5,
          "velocity": 0.7874015748031497
        },
        {
          "duration": 0.15000000000000568,
          "durationTicks": 192,
          "midi": 75,
          "name": "D#5",
          "ticks": 86592,
          "time": 67.64999999999999,
          "velocity": 0.7874015748031497
        },
        {
          "duration": 0.15000000000000568,
          "durationTicks": 192,
          "midi": 79,
          "name": "G5",
          "ticks": 86592,
          "time": 67.64999999999999,
          "velocity": 0.7874015748031497
        },
        {
          "duration": 0.14999999999999147,
          "durationTicks": 192,
          "midi": 75,
          "name": "D#5",
          "ticks": 86976,
          "time": 67.95,
          "velocity": 0.7874015748031497
        },
        {
          "duration": 0.14999999999999147,
          "durationTicks": 192,
          "midi": 79,
          "name": "G5",
          "ticks": 86976,
          "time": 67.95,
          "velocity": 0.7874015748031497
        },
        {
          "duration": 0.14999999999999147,
          "durationTicks": 192,
          "midi": 70,
          "name": "A#4",
          "ticks": 87360,
          "time": 68.25,
          "velocity": 0.7874015748031497
        },
        {
          "duration": 0.14999999999999147,
          "durationTicks": 192,
          "midi": 67,
          "name": "G4",
          "ticks": 87360,
          "time": 68.25,
          "velocity": 0.7874015748031497
        },
        {
          "duration": 1.2000000000000028,
          "durationTicks": 1536,
          "midi": 62,
          "name": "D4",
          "ticks": 87552,
          "time": 68.39999999999999,
          "velocity": 0.7874015748031497
        },
        {
          "duration": 1.2000000000000028,
          "durationTicks": 1536,
          "midi": 65,
          "name": "F4",
          "ticks": 87552,
          "time": 68.39999999999999,
          "velocity": 0.7874015748031497
        },
        {
          "duration": 0.0015625000000056843,
          "durationTicks": 2,
          "midi": 70,
          "name": "A#4",
          "ticks": 87552,
          "time": 68.39999999999999,
          "velocity": 0.7874015748031497
        },
        {
          "duration": 0.15000000000000568,
          "durationTicks": 192,
          "midi": 74,
          "name": "D5",
          "ticks": 87552,
          "time": 68.39999999999999,
          "velocity": 0.7874015748031497
        },
        {
          "duration": 0.14999999999999147,
          "durationTicks": 192,
          "midi": 74,
          "name": "D5",
          "ticks": 87936,
          "time": 68.7,
          "velocity": 0.7874015748031497
        },
        {
          "duration": 0.5999999999999943,
          "durationTicks": 768,
          "midi": 70,
          "name": "A#4",
          "ticks": 87936,
          "time": 68.7,
          "velocity": 0.7874015748031497
        },
        {
          "duration": 0.14999999999999147,
          "durationTicks": 192,
          "midi": 77,
          "name": "F5",
          "ticks": 88320,
          "time": 69,
          "velocity": 0.7874015748031497
        },
        {
          "duration": 0.14999999999999147,
          "durationTicks": 192,
          "midi": 74,
          "name": "D5",
          "ticks": 88320,
          "time": 69,
          "velocity": 0.7874015748031497
        },
        {
          "duration": 0.15000000000000568,
          "durationTicks": 192,
          "midi": 74,
          "name": "D5",
          "ticks": 88704,
          "time": 69.3,
          "velocity": 0.7874015748031497
        },
        {
          "duration": 0.29999999999999716,
          "durationTicks": 384,
          "midi": 70,
          "name": "A#4",
          "ticks": 88704,
          "time": 69.3,
          "velocity": 0.7874015748031497
        },
        {
          "duration": 1.2000000000000028,
          "durationTicks": 1536,
          "midi": 69,
          "name": "A4",
          "ticks": 89088,
          "time": 69.6,
          "velocity": 0.7874015748031497
        },
        {
          "duration": 1.2000000000000028,
          "durationTicks": 1536,
          "midi": 60,
          "name": "C4",
          "ticks": 89088,
          "time": 69.6,
          "velocity": 0.7874015748031497
        },
        {
          "duration": 1.2000000000000028,
          "durationTicks": 1536,
          "midi": 65,
          "name": "F4",
          "ticks": 89088,
          "time": 69.6,
          "velocity": 0.7874015748031497
        },
        {
          "duration": 1.2000000000000028,
          "durationTicks": 1536,
          "midi": 70,
          "name": "A#4",
          "ticks": 90624,
          "time": 70.8,
          "velocity": 0.7874015748031497
        },
        {
          "duration": 1.2000000000000028,
          "durationTicks": 1536,
          "midi": 62,
          "name": "D4",
          "ticks": 90624,
          "time": 70.8,
          "velocity": 0.7874015748031497
        },
        {
          "duration": 1.2000000000000028,
          "durationTicks": 1536,
          "midi": 65,
          "name": "F4",
          "ticks": 90624,
          "time": 70.8,
          "velocity": 0.7874015748031497
        },
        {
          "duration": 0.07499999999998863,
          "durationTicks": 96,
          "midi": 75,
          "name": "D#5",
          "ticks": 93696,
          "time": 73.2,
          "velocity": 0.7874015748031497
        },
        {
          "duration": 0.07500000000000284,
          "durationTicks": 96,
          "midi": 67,
          "name": "G4",
          "ticks": 93792,
          "time": 73.27499999999999,
          "velocity": 0.7874015748031497
        },
        {
          "duration": 0.07500000000000284,
          "durationTicks": 96,
          "midi": 75,
          "name": "D#5",
          "ticks": 93888,
          "time": 73.35,
          "velocity": 0.7874015748031497
        },
        {
          "duration": 0.07500000000000284,
          "durationTicks": 96,
          "midi": 67,
          "name": "G4",
          "ticks": 93984,
          "time": 73.425,
          "velocity": 0.7874015748031497
        },
        {
          "duration": 0.07500000000000284,
          "durationTicks": 96,
          "midi": 75,
          "name": "D#5",
          "ticks": 94080,
          "time": 73.5,
          "velocity": 0.7874015748031497
        },
        {
          "duration": 0.07499999999998863,
          "durationTicks": 96,
          "midi": 67,
          "name": "G4",
          "ticks": 94176,
          "time": 73.575,
          "velocity": 0.7874015748031497
        },
        {
          "duration": 0.07500000000000284,
          "durationTicks": 96,
          "midi": 75,
          "name": "D#5",
          "ticks": 94272,
          "time": 73.64999999999999,
          "velocity": 0.7874015748031497
        },
        {
          "duration": 0.07500000000000284,
          "durationTicks": 96,
          "midi": 67,
          "name": "G4",
          "ticks": 94368,
          "time": 73.725,
          "velocity": 0.7874015748031497
        },
        {
          "duration": 0.07500000000000284,
          "durationTicks": 96,
          "midi": 75,
          "name": "D#5",
          "ticks": 94464,
          "time": 73.8,
          "velocity": 0.7874015748031497
        },
        {
          "duration": 0.07500000000000284,
          "durationTicks": 96,
          "midi": 67,
          "name": "G4",
          "ticks": 94560,
          "time": 73.875,
          "velocity": 0.7874015748031497
        },
        {
          "duration": 0.07499999999998863,
          "durationTicks": 96,
          "midi": 75,
          "name": "D#5",
          "ticks": 94656,
          "time": 73.95,
          "velocity": 0.7874015748031497
        },
        {
          "duration": 0.07500000000000284,
          "durationTicks": 96,
          "midi": 67,
          "name": "G4",
          "ticks": 94752,
          "time": 74.02499999999999,
          "velocity": 0.7874015748031497
        },
        {
          "duration": 0.07500000000000284,
          "durationTicks": 96,
          "midi": 75,
          "name": "D#5",
          "ticks": 94848,
          "time": 74.1,
          "velocity": 0.7874015748031497
        },
        {
          "duration": 0.07500000000000284,
          "durationTicks": 96,
          "midi": 67,
          "name": "G4",
          "ticks": 94944,
          "time": 74.175,
          "velocity": 0.7874015748031497
        },
        {
          "duration": 0.07500000000000284,
          "durationTicks": 96,
          "midi": 75,
          "name": "D#5",
          "ticks": 95040,
          "time": 74.25,
          "velocity": 0.7874015748031497
        },
        {
          "duration": 0.07499999999998863,
          "durationTicks": 96,
          "midi": 67,
          "name": "G4",
          "ticks": 95136,
          "time": 74.325,
          "velocity": 0.7874015748031497
        },
        {
          "duration": 0.07500000000000284,
          "durationTicks": 96,
          "midi": 74,
          "name": "D5",
          "ticks": 95232,
          "time": 74.39999999999999,
          "velocity": 0.7874015748031497
        },
        {
          "duration": 0.07500000000000284,
          "durationTicks": 96,
          "midi": 65,
          "name": "F4",
          "ticks": 95328,
          "time": 74.475,
          "velocity": 0.7874015748031497
        },
        {
          "duration": 0.07500000000000284,
          "durationTicks": 96,
          "midi": 74,
          "name": "D5",
          "ticks": 95424,
          "time": 74.55,
          "velocity": 0.7874015748031497
        },
        {
          "duration": 0.07500000000000284,
          "durationTicks": 96,
          "midi": 65,
          "name": "F4",
          "ticks": 95520,
          "time": 74.625,
          "velocity": 0.7874015748031497
        },
        {
          "duration": 0.07499999999998863,
          "durationTicks": 96,
          "midi": 74,
          "name": "D5",
          "ticks": 95616,
          "time": 74.7,
          "velocity": 0.7874015748031497
        },
        {
          "duration": 0.07500000000000284,
          "durationTicks": 96,
          "midi": 65,
          "name": "F4",
          "ticks": 95712,
          "time": 74.77499999999999,
          "velocity": 0.7874015748031497
        },
        {
          "duration": 0.07500000000000284,
          "durationTicks": 96,
          "midi": 74,
          "name": "D5",
          "ticks": 95808,
          "time": 74.85,
          "velocity": 0.7874015748031497
        },
        {
          "duration": 0.07500000000000284,
          "durationTicks": 96,
          "midi": 65,
          "name": "F4",
          "ticks": 95904,
          "time": 74.925,
          "velocity": 0.7874015748031497
        },
        {
          "duration": 0.07500000000000284,
          "durationTicks": 96,
          "midi": 74,
          "name": "D5",
          "ticks": 96000,
          "time": 75,
          "velocity": 0.7874015748031497
        },
        {
          "duration": 0.07499999999998863,
          "durationTicks": 96,
          "midi": 65,
          "name": "F4",
          "ticks": 96096,
          "time": 75.075,
          "velocity": 0.7874015748031497
        },
        {
          "duration": 0.07500000000000284,
          "durationTicks": 96,
          "midi": 74,
          "name": "D5",
          "ticks": 96192,
          "time": 75.14999999999999,
          "velocity": 0.7874015748031497
        },
        {
          "duration": 0.07500000000000284,
          "durationTicks": 96,
          "midi": 65,
          "name": "F4",
          "ticks": 96288,
          "time": 75.225,
          "velocity": 0.7874015748031497
        },
        {
          "duration": 0.07500000000000284,
          "durationTicks": 96,
          "midi": 74,
          "name": "D5",
          "ticks": 96384,
          "time": 75.3,
          "velocity": 0.7874015748031497
        },
        {
          "duration": 0.07500000000000284,
          "durationTicks": 96,
          "midi": 65,
          "name": "F4",
          "ticks": 96480,
          "time": 75.375,
          "velocity": 0.7874015748031497
        },
        {
          "duration": 0.07499999999998863,
          "durationTicks": 96,
          "midi": 74,
          "name": "D5",
          "ticks": 96576,
          "time": 75.45,
          "velocity": 0.7874015748031497
        },
        {
          "duration": 0.07500000000000284,
          "durationTicks": 96,
          "midi": 65,
          "name": "F4",
          "ticks": 96672,
          "time": 75.52499999999999,
          "velocity": 0.7874015748031497
        },
        {
          "duration": 0.07500000000000284,
          "durationTicks": 96,
          "midi": 72,
          "name": "C5",
          "ticks": 96768,
          "time": 75.6,
          "velocity": 0.7874015748031497
        },
        {
          "duration": 0.07500000000000284,
          "durationTicks": 96,
          "midi": 63,
          "name": "D#4",
          "ticks": 96864,
          "time": 75.675,
          "velocity": 0.7874015748031497
        },
        {
          "duration": 0.07500000000000284,
          "durationTicks": 96,
          "midi": 72,
          "name": "C5",
          "ticks": 96960,
          "time": 75.75,
          "velocity": 0.7874015748031497
        },
        {
          "duration": 0.07499999999998863,
          "durationTicks": 96,
          "midi": 63,
          "name": "D#4",
          "ticks": 97056,
          "time": 75.825,
          "velocity": 0.7874015748031497
        },
        {
          "duration": 0.07500000000000284,
          "durationTicks": 96,
          "midi": 72,
          "name": "C5",
          "ticks": 97152,
          "time": 75.89999999999999,
          "velocity": 0.7874015748031497
        },
        {
          "duration": 0.07500000000000284,
          "durationTicks": 96,
          "midi": 63,
          "name": "D#4",
          "ticks": 97248,
          "time": 75.975,
          "velocity": 0.7874015748031497
        },
        {
          "duration": 0.07500000000000284,
          "durationTicks": 96,
          "midi": 72,
          "name": "C5",
          "ticks": 97344,
          "time": 76.05,
          "velocity": 0.7874015748031497
        },
        {
          "duration": 0.07500000000000284,
          "durationTicks": 96,
          "midi": 63,
          "name": "D#4",
          "ticks": 97440,
          "time": 76.125,
          "velocity": 0.7874015748031497
        },
        {
          "duration": 0.07499999999998863,
          "durationTicks": 96,
          "midi": 72,
          "name": "C5",
          "ticks": 97536,
          "time": 76.2,
          "velocity": 0.7874015748031497
        },
        {
          "duration": 0.07500000000000284,
          "durationTicks": 96,
          "midi": 63,
          "name": "D#4",
          "ticks": 97632,
          "time": 76.27499999999999,
          "velocity": 0.7874015748031497
        },
        {
          "duration": 0.07500000000000284,
          "durationTicks": 96,
          "midi": 72,
          "name": "C5",
          "ticks": 97728,
          "time": 76.35,
          "velocity": 0.7874015748031497
        },
        {
          "duration": 0.07500000000000284,
          "durationTicks": 96,
          "midi": 63,
          "name": "D#4",
          "ticks": 97824,
          "time": 76.425,
          "velocity": 0.7874015748031497
        },
        {
          "duration": 0.07500000000000284,
          "durationTicks": 96,
          "midi": 72,
          "name": "C5",
          "ticks": 97920,
          "time": 76.5,
          "velocity": 0.7874015748031497
        },
        {
          "duration": 0.07499999999998863,
          "durationTicks": 96,
          "midi": 63,
          "name": "D#4",
          "ticks": 98016,
          "time": 76.575,
          "velocity": 0.7874015748031497
        },
        {
          "duration": 0.07500000000000284,
          "durationTicks": 96,
          "midi": 72,
          "name": "C5",
          "ticks": 98112,
          "time": 76.64999999999999,
          "velocity": 0.7874015748031497
        },
        {
          "duration": 0.07500000000000284,
          "durationTicks": 96,
          "midi": 63,
          "name": "D#4",
          "ticks": 98208,
          "time": 76.725,
          "velocity": 0.7874015748031497
        },
        {
          "duration": 0.07500000000000284,
          "durationTicks": 96,
          "midi": 70,
          "name": "A#4",
          "ticks": 98304,
          "time": 76.8,
          "velocity": 0.7874015748031497
        },
        {
          "duration": 0.07500000000000284,
          "durationTicks": 96,
          "midi": 62,
          "name": "D4",
          "ticks": 98400,
          "time": 76.875,
          "velocity": 0.7874015748031497
        },
        {
          "duration": 0.07499999999998863,
          "durationTicks": 96,
          "midi": 70,
          "name": "A#4",
          "ticks": 98496,
          "time": 76.95,
          "velocity": 0.7874015748031497
        },
        {
          "duration": 0.07500000000000284,
          "durationTicks": 96,
          "midi": 62,
          "name": "D4",
          "ticks": 98592,
          "time": 77.02499999999999,
          "velocity": 0.7874015748031497
        },
        {
          "duration": 0.07500000000000284,
          "durationTicks": 96,
          "midi": 70,
          "name": "A#4",
          "ticks": 98688,
          "time": 77.1,
          "velocity": 0.7874015748031497
        },
        {
          "duration": 0.07500000000000284,
          "durationTicks": 96,
          "midi": 62,
          "name": "D4",
          "ticks": 98784,
          "time": 77.175,
          "velocity": 0.7874015748031497
        },
        {
          "duration": 0.07500000000000284,
          "durationTicks": 96,
          "midi": 70,
          "name": "A#4",
          "ticks": 98880,
          "time": 77.25,
          "velocity": 0.7874015748031497
        },
        {
          "duration": 0.07499999999998863,
          "durationTicks": 96,
          "midi": 62,
          "name": "D4",
          "ticks": 98976,
          "time": 77.325,
          "velocity": 0.7874015748031497
        },
        {
          "duration": 0.07500000000000284,
          "durationTicks": 96,
          "midi": 70,
          "name": "A#4",
          "ticks": 99072,
          "time": 77.39999999999999,
          "velocity": 0.7874015748031497
        },
        {
          "duration": 0.07500000000000284,
          "durationTicks": 96,
          "midi": 62,
          "name": "D4",
          "ticks": 99168,
          "time": 77.475,
          "velocity": 0.7874015748031497
        },
        {
          "duration": 0.07500000000000284,
          "durationTicks": 96,
          "midi": 70,
          "name": "A#4",
          "ticks": 99264,
          "time": 77.55,
          "velocity": 0.7874015748031497
        },
        {
          "duration": 0.07500000000000284,
          "durationTicks": 96,
          "midi": 62,
          "name": "D4",
          "ticks": 99360,
          "time": 77.625,
          "velocity": 0.7874015748031497
        },
        {
          "duration": 0.07499999999998863,
          "durationTicks": 96,
          "midi": 70,
          "name": "A#4",
          "ticks": 99456,
          "time": 77.7,
          "velocity": 0.7874015748031497
        },
        {
          "duration": 0.07500000000000284,
          "durationTicks": 96,
          "midi": 62,
          "name": "D4",
          "ticks": 99552,
          "time": 77.77499999999999,
          "velocity": 0.7874015748031497
        },
        {
          "duration": 0.07500000000000284,
          "durationTicks": 96,
          "midi": 70,
          "name": "A#4",
          "ticks": 99648,
          "time": 77.85,
          "velocity": 0.7874015748031497
        },
        {
          "duration": 0.07500000000000284,
          "durationTicks": 96,
          "midi": 62,
          "name": "D4",
          "ticks": 99744,
          "time": 77.925,
          "velocity": 0.7874015748031497
        },
        {
          "duration": 0.07500000000000284,
          "durationTicks": 96,
          "midi": 63,
          "name": "D#4",
          "ticks": 99840,
          "time": 78,
          "velocity": 0.7874015748031497
        },
        {
          "duration": 0.07499999999998863,
          "durationTicks": 96,
          "midi": 67,
          "name": "G4",
          "ticks": 99936,
          "time": 78.075,
          "velocity": 0.7874015748031497
        },
        {
          "duration": 0.07500000000000284,
          "durationTicks": 96,
          "midi": 63,
          "name": "D#4",
          "ticks": 100032,
          "time": 78.14999999999999,
          "velocity": 0.7874015748031497
        },
        {
          "duration": 0.07500000000000284,
          "durationTicks": 96,
          "midi": 67,
          "name": "G4",
          "ticks": 100128,
          "time": 78.225,
          "velocity": 0.7874015748031497
        },
        {
          "duration": 0.07500000000000284,
          "durationTicks": 96,
          "midi": 63,
          "name": "D#4",
          "ticks": 100224,
          "time": 78.3,
          "velocity": 0.7874015748031497
        },
        {
          "duration": 0.07500000000000284,
          "durationTicks": 96,
          "midi": 67,
          "name": "G4",
          "ticks": 100320,
          "time": 78.375,
          "velocity": 0.7874015748031497
        },
        {
          "duration": 0.07499999999998863,
          "durationTicks": 96,
          "midi": 63,
          "name": "D#4",
          "ticks": 100416,
          "time": 78.45,
          "velocity": 0.7874015748031497
        },
        {
          "duration": 0.07500000000000284,
          "durationTicks": 96,
          "midi": 67,
          "name": "G4",
          "ticks": 100512,
          "time": 78.52499999999999,
          "velocity": 0.7874015748031497
        },
        {
          "duration": 0.07500000000000284,
          "durationTicks": 96,
          "midi": 63,
          "name": "D#4",
          "ticks": 100608,
          "time": 78.6,
          "velocity": 0.7874015748031497
        },
        {
          "duration": 0.07500000000000284,
          "durationTicks": 96,
          "midi": 67,
          "name": "G4",
          "ticks": 100704,
          "time": 78.675,
          "velocity": 0.7874015748031497
        },
        {
          "duration": 0.07500000000000284,
          "durationTicks": 96,
          "midi": 63,
          "name": "D#4",
          "ticks": 100800,
          "time": 78.75,
          "velocity": 0.7874015748031497
        },
        {
          "duration": 0.07499999999998863,
          "durationTicks": 96,
          "midi": 67,
          "name": "G4",
          "ticks": 100896,
          "time": 78.825,
          "velocity": 0.7874015748031497
        },
        {
          "duration": 0.07500000000000284,
          "durationTicks": 96,
          "midi": 63,
          "name": "D#4",
          "ticks": 100992,
          "time": 78.89999999999999,
          "velocity": 0.7874015748031497
        },
        {
          "duration": 0.07500000000000284,
          "durationTicks": 96,
          "midi": 67,
          "name": "G4",
          "ticks": 101088,
          "time": 78.975,
          "velocity": 0.7874015748031497
        },
        {
          "duration": 0.07500000000000284,
          "durationTicks": 96,
          "midi": 63,
          "name": "D#4",
          "ticks": 101184,
          "time": 79.05,
          "velocity": 0.7874015748031497
        },
        {
          "duration": 0.07500000000000284,
          "durationTicks": 96,
          "midi": 67,
          "name": "G4",
          "ticks": 101280,
          "time": 79.125,
          "velocity": 0.7874015748031497
        },
        {
          "duration": 0.07499999999998863,
          "durationTicks": 96,
          "midi": 65,
          "name": "F4",
          "ticks": 101376,
          "time": 79.2,
          "velocity": 0.7874015748031497
        },
        {
          "duration": 0.07500000000000284,
          "durationTicks": 96,
          "midi": 69,
          "name": "A4",
          "ticks": 101472,
          "time": 79.27499999999999,
          "velocity": 0.7874015748031497
        },
        {
          "duration": 0.07500000000000284,
          "durationTicks": 96,
          "midi": 65,
          "name": "F4",
          "ticks": 101568,
          "time": 79.35,
          "velocity": 0.7874015748031497
        },
        {
          "duration": 0.07500000000000284,
          "durationTicks": 96,
          "midi": 69,
          "name": "A4",
          "ticks": 101664,
          "time": 79.425,
          "velocity": 0.7874015748031497
        },
        {
          "duration": 0.07500000000000284,
          "durationTicks": 96,
          "midi": 65,
          "name": "F4",
          "ticks": 101760,
          "time": 79.5,
          "velocity": 0.7874015748031497
        },
        {
          "duration": 0.07499999999998863,
          "durationTicks": 96,
          "midi": 69,
          "name": "A4",
          "ticks": 101856,
          "time": 79.575,
          "velocity": 0.7874015748031497
        },
        {
          "duration": 0.07500000000000284,
          "durationTicks": 96,
          "midi": 65,
          "name": "F4",
          "ticks": 101952,
          "time": 79.64999999999999,
          "velocity": 0.7874015748031497
        },
        {
          "duration": 0.07500000000000284,
          "durationTicks": 96,
          "midi": 69,
          "name": "A4",
          "ticks": 102048,
          "time": 79.725,
          "velocity": 0.7874015748031497
        },
        {
          "duration": 0.07500000000000284,
          "durationTicks": 96,
          "midi": 65,
          "name": "F4",
          "ticks": 102144,
          "time": 79.8,
          "velocity": 0.7874015748031497
        },
        {
          "duration": 0.07500000000000284,
          "durationTicks": 96,
          "midi": 69,
          "name": "A4",
          "ticks": 102240,
          "time": 79.875,
          "velocity": 0.7874015748031497
        },
        {
          "duration": 0.07499999999998863,
          "durationTicks": 96,
          "midi": 65,
          "name": "F4",
          "ticks": 102336,
          "time": 79.95,
          "velocity": 0.7874015748031497
        },
        {
          "duration": 0.07500000000000284,
          "durationTicks": 96,
          "midi": 69,
          "name": "A4",
          "ticks": 102432,
          "time": 80.02499999999999,
          "velocity": 0.7874015748031497
        },
        {
          "duration": 0.07500000000000284,
          "durationTicks": 96,
          "midi": 65,
          "name": "F4",
          "ticks": 102528,
          "time": 80.1,
          "velocity": 0.7874015748031497
        },
        {
          "duration": 0.07500000000000284,
          "durationTicks": 96,
          "midi": 69,
          "name": "A4",
          "ticks": 102624,
          "time": 80.175,
          "velocity": 0.7874015748031497
        },
        {
          "duration": 0.07500000000000284,
          "durationTicks": 96,
          "midi": 65,
          "name": "F4",
          "ticks": 102720,
          "time": 80.25,
          "velocity": 0.7874015748031497
        },
        {
          "duration": 0.07499999999998863,
          "durationTicks": 96,
          "midi": 69,
          "name": "A4",
          "ticks": 102816,
          "time": 80.325,
          "velocity": 0.7874015748031497
        },
        {
          "duration": 0.07500000000000284,
          "durationTicks": 96,
          "midi": 70,
          "name": "A#4",
          "ticks": 102912,
          "time": 80.39999999999999,
          "velocity": 0.7874015748031497
        },
        {
          "duration": 0.07500000000000284,
          "durationTicks": 96,
          "midi": 62,
          "name": "D4",
          "ticks": 103008,
          "time": 80.475,
          "velocity": 0.7874015748031497
        },
        {
          "duration": 0.07500000000000284,
          "durationTicks": 96,
          "midi": 70,
          "name": "A#4",
          "ticks": 103104,
          "time": 80.55,
          "velocity": 0.7874015748031497
        },
        {
          "duration": 0.07500000000000284,
          "durationTicks": 96,
          "midi": 62,
          "name": "D4",
          "ticks": 103200,
          "time": 80.625,
          "velocity": 0.7874015748031497
        },
        {
          "duration": 0.07499999999998863,
          "durationTicks": 96,
          "midi": 70,
          "name": "A#4",
          "ticks": 103296,
          "time": 80.7,
          "velocity": 0.7874015748031497
        },
        {
          "duration": 0.07500000000000284,
          "durationTicks": 96,
          "midi": 62,
          "name": "D4",
          "ticks": 103392,
          "time": 80.77499999999999,
          "velocity": 0.7874015748031497
        },
        {
          "duration": 0.07500000000000284,
          "durationTicks": 96,
          "midi": 70,
          "name": "A#4",
          "ticks": 103488,
          "time": 80.85,
          "velocity": 0.7874015748031497
        },
        {
          "duration": 0.07500000000000284,
          "durationTicks": 96,
          "midi": 62,
          "name": "D4",
          "ticks": 103584,
          "time": 80.925,
          "velocity": 0.7874015748031497
        },
        {
          "duration": 0.07500000000000284,
          "durationTicks": 96,
          "midi": 70,
          "name": "A#4",
          "ticks": 103680,
          "time": 81,
          "velocity": 0.7874015748031497
        },
        {
          "duration": 0.07499999999998863,
          "durationTicks": 96,
          "midi": 62,
          "name": "D4",
          "ticks": 103776,
          "time": 81.075,
          "velocity": 0.7874015748031497
        },
        {
          "duration": 0.07500000000000284,
          "durationTicks": 96,
          "midi": 70,
          "name": "A#4",
          "ticks": 103872,
          "time": 81.14999999999999,
          "velocity": 0.7874015748031497
        },
        {
          "duration": 0.07500000000000284,
          "durationTicks": 96,
          "midi": 62,
          "name": "D4",
          "ticks": 103968,
          "time": 81.225,
          "velocity": 0.7874015748031497
        },
        {
          "duration": 0.07500000000000284,
          "durationTicks": 96,
          "midi": 70,
          "name": "A#4",
          "ticks": 104064,
          "time": 81.3,
          "velocity": 0.7874015748031497
        },
        {
          "duration": 0.07500000000000284,
          "durationTicks": 96,
          "midi": 62,
          "name": "D4",
          "ticks": 104160,
          "time": 81.375,
          "velocity": 0.7874015748031497
        },
        {
          "duration": 0.07499999999998863,
          "durationTicks": 96,
          "midi": 70,
          "name": "A#4",
          "ticks": 104256,
          "time": 81.45,
          "velocity": 0.7874015748031497
        },
        {
          "duration": 0.07500000000000284,
          "durationTicks": 96,
          "midi": 62,
          "name": "D4",
          "ticks": 104352,
          "time": 81.52499999999999,
          "velocity": 0.7874015748031497
        },
        {
          "duration": 0.07500000000000284,
          "durationTicks": 96,
          "midi": 68,
          "name": "G#4",
          "ticks": 104448,
          "time": 81.6,
          "velocity": 0.7874015748031497
        },
        {
          "duration": 0.07500000000000284,
          "durationTicks": 96,
          "midi": 62,
          "name": "D4",
          "ticks": 104544,
          "time": 81.675,
          "velocity": 0.7874015748031497
        },
        {
          "duration": 0.07500000000000284,
          "durationTicks": 96,
          "midi": 68,
          "name": "G#4",
          "ticks": 104640,
          "time": 81.75,
          "velocity": 0.7874015748031497
        },
        {
          "duration": 0.07499999999998863,
          "durationTicks": 96,
          "midi": 62,
          "name": "D4",
          "ticks": 104736,
          "time": 81.825,
          "velocity": 0.7874015748031497
        },
        {
          "duration": 0.07500000000000284,
          "durationTicks": 96,
          "midi": 68,
          "name": "G#4",
          "ticks": 104832,
          "time": 81.89999999999999,
          "velocity": 0.7874015748031497
        },
        {
          "duration": 0.07500000000000284,
          "durationTicks": 96,
          "midi": 62,
          "name": "D4",
          "ticks": 104928,
          "time": 81.975,
          "velocity": 0.7874015748031497
        },
        {
          "duration": 0.07500000000000284,
          "durationTicks": 96,
          "midi": 68,
          "name": "G#4",
          "ticks": 105024,
          "time": 82.05,
          "velocity": 0.7874015748031497
        },
        {
          "duration": 0.07500000000000284,
          "durationTicks": 96,
          "midi": 62,
          "name": "D4",
          "ticks": 105120,
          "time": 82.125,
          "velocity": 0.7874015748031497
        },
        {
          "duration": 0.07499999999998863,
          "durationTicks": 96,
          "midi": 68,
          "name": "G#4",
          "ticks": 105216,
          "time": 82.2,
          "velocity": 0.7874015748031497
        },
        {
          "duration": 0.07500000000000284,
          "durationTicks": 96,
          "midi": 62,
          "name": "D4",
          "ticks": 105312,
          "time": 82.27499999999999,
          "velocity": 0.7874015748031497
        },
        {
          "duration": 0.07500000000000284,
          "durationTicks": 96,
          "midi": 68,
          "name": "G#4",
          "ticks": 105408,
          "time": 82.35,
          "velocity": 0.7874015748031497
        },
        {
          "duration": 0.07500000000000284,
          "durationTicks": 96,
          "midi": 62,
          "name": "D4",
          "ticks": 105504,
          "time": 82.425,
          "velocity": 0.7874015748031497
        },
        {
          "duration": 0.07500000000000284,
          "durationTicks": 96,
          "midi": 68,
          "name": "G#4",
          "ticks": 105600,
          "time": 82.5,
          "velocity": 0.7874015748031497
        },
        {
          "duration": 0.07499999999998863,
          "durationTicks": 96,
          "midi": 62,
          "name": "D4",
          "ticks": 105696,
          "time": 82.575,
          "velocity": 0.7874015748031497
        },
        {
          "duration": 0.07500000000000284,
          "durationTicks": 96,
          "midi": 68,
          "name": "G#4",
          "ticks": 105792,
          "time": 82.64999999999999,
          "velocity": 0.7874015748031497
        },
        {
          "duration": 0.07500000000000284,
          "durationTicks": 96,
          "midi": 62,
          "name": "D4",
          "ticks": 105888,
          "time": 82.725,
          "velocity": 0.7874015748031497
        },
        {
          "duration": 0.07500000000000284,
          "durationTicks": 96,
          "midi": 67,
          "name": "G4",
          "ticks": 105984,
          "time": 82.8,
          "velocity": 0.7874015748031497
        },
        {
          "duration": 0.07500000000000284,
          "durationTicks": 96,
          "midi": 63,
          "name": "D#4",
          "ticks": 106080,
          "time": 82.875,
          "velocity": 0.7874015748031497
        },
        {
          "duration": 0.07499999999998863,
          "durationTicks": 96,
          "midi": 67,
          "name": "G4",
          "ticks": 106176,
          "time": 82.95,
          "velocity": 0.7874015748031497
        },
        {
          "duration": 0.07500000000000284,
          "durationTicks": 96,
          "midi": 63,
          "name": "D#4",
          "ticks": 106272,
          "time": 83.02499999999999,
          "velocity": 0.7874015748031497
        },
        {
          "duration": 0.07500000000000284,
          "durationTicks": 96,
          "midi": 67,
          "name": "G4",
          "ticks": 106368,
          "time": 83.1,
          "velocity": 0.7874015748031497
        },
        {
          "duration": 0.07500000000000284,
          "durationTicks": 96,
          "midi": 63,
          "name": "D#4",
          "ticks": 106464,
          "time": 83.175,
          "velocity": 0.7874015748031497
        },
        {
          "duration": 0.07500000000000284,
          "durationTicks": 96,
          "midi": 67,
          "name": "G4",
          "ticks": 106560,
          "time": 83.25,
          "velocity": 0.7874015748031497
        },
        {
          "duration": 0.07499999999998863,
          "durationTicks": 96,
          "midi": 63,
          "name": "D#4",
          "ticks": 106656,
          "time": 83.325,
          "velocity": 0.7874015748031497
        },
        {
          "duration": 0.07500000000000284,
          "durationTicks": 96,
          "midi": 67,
          "name": "G4",
          "ticks": 106752,
          "time": 83.39999999999999,
          "velocity": 0.7874015748031497
        },
        {
          "duration": 0.07500000000000284,
          "durationTicks": 96,
          "midi": 63,
          "name": "D#4",
          "ticks": 106848,
          "time": 83.475,
          "velocity": 0.7874015748031497
        },
        {
          "duration": 0.07500000000000284,
          "durationTicks": 96,
          "midi": 67,
          "name": "G4",
          "ticks": 106944,
          "time": 83.55,
          "velocity": 0.7874015748031497
        },
        {
          "duration": 0.07500000000000284,
          "durationTicks": 96,
          "midi": 63,
          "name": "D#4",
          "ticks": 107040,
          "time": 83.625,
          "velocity": 0.7874015748031497
        },
        {
          "duration": 0.07499999999998863,
          "durationTicks": 96,
          "midi": 67,
          "name": "G4",
          "ticks": 107136,
          "time": 83.7,
          "velocity": 0.7874015748031497
        },
        {
          "duration": 0.07500000000000284,
          "durationTicks": 96,
          "midi": 63,
          "name": "D#4",
          "ticks": 107232,
          "time": 83.77499999999999,
          "velocity": 0.7874015748031497
        },
        {
          "duration": 0.07500000000000284,
          "durationTicks": 96,
          "midi": 67,
          "name": "G4",
          "ticks": 107328,
          "time": 83.85,
          "velocity": 0.7874015748031497
        },
        {
          "duration": 0.07500000000000284,
          "durationTicks": 96,
          "midi": 63,
          "name": "D#4",
          "ticks": 107424,
          "time": 83.925,
          "velocity": 0.7874015748031497
        },
        {
          "duration": 0.07500000000000284,
          "durationTicks": 96,
          "midi": 69,
          "name": "A4",
          "ticks": 107520,
          "time": 84,
          "velocity": 0.7874015748031497
        },
        {
          "duration": 0.07499999999998863,
          "durationTicks": 96,
          "midi": 65,
          "name": "F4",
          "ticks": 107616,
          "time": 84.075,
          "velocity": 0.7874015748031497
        },
        {
          "duration": 0.07500000000000284,
          "durationTicks": 96,
          "midi": 69,
          "name": "A4",
          "ticks": 107712,
          "time": 84.14999999999999,
          "velocity": 0.7874015748031497
        },
        {
          "duration": 0.07500000000000284,
          "durationTicks": 96,
          "midi": 65,
          "name": "F4",
          "ticks": 107808,
          "time": 84.225,
          "velocity": 0.7874015748031497
        },
        {
          "duration": 0.07500000000000284,
          "durationTicks": 96,
          "midi": 69,
          "name": "A4",
          "ticks": 107904,
          "time": 84.3,
          "velocity": 0.7874015748031497
        },
        {
          "duration": 0.07500000000000284,
          "durationTicks": 96,
          "midi": 65,
          "name": "F4",
          "ticks": 108000,
          "time": 84.375,
          "velocity": 0.7874015748031497
        },
        {
          "duration": 0.07499999999998863,
          "durationTicks": 96,
          "midi": 69,
          "name": "A4",
          "ticks": 108096,
          "time": 84.45,
          "velocity": 0.7874015748031497
        },
        {
          "duration": 0.07500000000000284,
          "durationTicks": 96,
          "midi": 65,
          "name": "F4",
          "ticks": 108192,
          "time": 84.52499999999999,
          "velocity": 0.7874015748031497
        },
        {
          "duration": 0.07500000000000284,
          "durationTicks": 96,
          "midi": 69,
          "name": "A4",
          "ticks": 108288,
          "time": 84.6,
          "velocity": 0.7874015748031497
        },
        {
          "duration": 0.07500000000000284,
          "durationTicks": 96,
          "midi": 65,
          "name": "F4",
          "ticks": 108384,
          "time": 84.675,
          "velocity": 0.7874015748031497
        },
        {
          "duration": 0.07500000000000284,
          "durationTicks": 96,
          "midi": 69,
          "name": "A4",
          "ticks": 108480,
          "time": 84.75,
          "velocity": 0.7874015748031497
        },
        {
          "duration": 0.07499999999998863,
          "durationTicks": 96,
          "midi": 65,
          "name": "F4",
          "ticks": 108576,
          "time": 84.825,
          "velocity": 0.7874015748031497
        },
        {
          "duration": 0.07500000000000284,
          "durationTicks": 96,
          "midi": 69,
          "name": "A4",
          "ticks": 108672,
          "time": 84.89999999999999,
          "velocity": 0.7874015748031497
        },
        {
          "duration": 0.07500000000000284,
          "durationTicks": 96,
          "midi": 65,
          "name": "F4",
          "ticks": 108768,
          "time": 84.975,
          "velocity": 0.7874015748031497
        },
        {
          "duration": 0.07500000000000284,
          "durationTicks": 96,
          "midi": 69,
          "name": "A4",
          "ticks": 108864,
          "time": 85.05,
          "velocity": 0.7874015748031497
        },
        {
          "duration": 0.07500000000000284,
          "durationTicks": 96,
          "midi": 65,
          "name": "F4",
          "ticks": 108960,
          "time": 85.125,
          "velocity": 0.7874015748031497
        },
        {
          "duration": 0.07499999999998863,
          "durationTicks": 96,
          "midi": 70,
          "name": "A#4",
          "ticks": 109056,
          "time": 85.2,
          "velocity": 0.7874015748031497
        },
        {
          "duration": 0.07500000000000284,
          "durationTicks": 96,
          "midi": 67,
          "name": "G4",
          "ticks": 109152,
          "time": 85.27499999999999,
          "velocity": 0.7874015748031497
        },
        {
          "duration": 0.07500000000000284,
          "durationTicks": 96,
          "midi": 70,
          "name": "A#4",
          "ticks": 109248,
          "time": 85.35,
          "velocity": 0.7874015748031497
        },
        {
          "duration": 0.07500000000000284,
          "durationTicks": 96,
          "midi": 67,
          "name": "G4",
          "ticks": 109344,
          "time": 85.425,
          "velocity": 0.7874015748031497
        },
        {
          "duration": 0.07500000000000284,
          "durationTicks": 96,
          "midi": 70,
          "name": "A#4",
          "ticks": 109440,
          "time": 85.5,
          "velocity": 0.7874015748031497
        },
        {
          "duration": 0.07499999999998863,
          "durationTicks": 96,
          "midi": 67,
          "name": "G4",
          "ticks": 109536,
          "time": 85.575,
          "velocity": 0.7874015748031497
        },
        {
          "duration": 0.07500000000000284,
          "durationTicks": 96,
          "midi": 70,
          "name": "A#4",
          "ticks": 109632,
          "time": 85.64999999999999,
          "velocity": 0.7874015748031497
        },
        {
          "duration": 0.07500000000000284,
          "durationTicks": 96,
          "midi": 67,
          "name": "G4",
          "ticks": 109728,
          "time": 85.725,
          "velocity": 0.7874015748031497
        },
        {
          "duration": 0.07500000000000284,
          "durationTicks": 96,
          "midi": 70,
          "name": "A#4",
          "ticks": 109824,
          "time": 85.8,
          "velocity": 0.7874015748031497
        },
        {
          "duration": 0.07500000000000284,
          "durationTicks": 96,
          "midi": 67,
          "name": "G4",
          "ticks": 109920,
          "time": 85.875,
          "velocity": 0.7874015748031497
        },
        {
          "duration": 0.07499999999998863,
          "durationTicks": 96,
          "midi": 70,
          "name": "A#4",
          "ticks": 110016,
          "time": 85.95,
          "velocity": 0.7874015748031497
        },
        {
          "duration": 0.07500000000000284,
          "durationTicks": 96,
          "midi": 67,
          "name": "G4",
          "ticks": 110112,
          "time": 86.02499999999999,
          "velocity": 0.7874015748031497
        },
        {
          "duration": 0.07500000000000284,
          "durationTicks": 96,
          "midi": 70,
          "name": "A#4",
          "ticks": 110208,
          "time": 86.1,
          "velocity": 0.7874015748031497
        },
        {
          "duration": 0.07500000000000284,
          "durationTicks": 96,
          "midi": 67,
          "name": "G4",
          "ticks": 110304,
          "time": 86.175,
          "velocity": 0.7874015748031497
        },
        {
          "duration": 0.07500000000000284,
          "durationTicks": 96,
          "midi": 70,
          "name": "A#4",
          "ticks": 110400,
          "time": 86.25,
          "velocity": 0.7874015748031497
        },
        {
          "duration": 0.07499999999998863,
          "durationTicks": 96,
          "midi": 67,
          "name": "G4",
          "ticks": 110496,
          "time": 86.325,
          "velocity": 0.7874015748031497
        },
        {
          "duration": 0.07500000000000284,
          "durationTicks": 96,
          "midi": 72,
          "name": "C5",
          "ticks": 110592,
          "time": 86.39999999999999,
          "velocity": 0.7874015748031497
        },
        {
          "duration": 0.07500000000000284,
          "durationTicks": 96,
          "midi": 64,
          "name": "E4",
          "ticks": 110688,
          "time": 86.475,
          "velocity": 0.7874015748031497
        },
        {
          "duration": 0.07500000000000284,
          "durationTicks": 96,
          "midi": 72,
          "name": "C5",
          "ticks": 110784,
          "time": 86.55,
          "velocity": 0.7874015748031497
        },
        {
          "duration": 0.07500000000000284,
          "durationTicks": 96,
          "midi": 64,
          "name": "E4",
          "ticks": 110880,
          "time": 86.625,
          "velocity": 0.7874015748031497
        },
        {
          "duration": 0.07499999999998863,
          "durationTicks": 96,
          "midi": 72,
          "name": "C5",
          "ticks": 110976,
          "time": 86.7,
          "velocity": 0.7874015748031497
        },
        {
          "duration": 0.07500000000000284,
          "durationTicks": 96,
          "midi": 64,
          "name": "E4",
          "ticks": 111072,
          "time": 86.77499999999999,
          "velocity": 0.7874015748031497
        },
        {
          "duration": 0.07500000000000284,
          "durationTicks": 96,
          "midi": 72,
          "name": "C5",
          "ticks": 111168,
          "time": 86.85,
          "velocity": 0.7874015748031497
        },
        {
          "duration": 0.07500000000000284,
          "durationTicks": 96,
          "midi": 64,
          "name": "E4",
          "ticks": 111264,
          "time": 86.925,
          "velocity": 0.7874015748031497
        },
        {
          "duration": 0.07500000000000284,
          "durationTicks": 96,
          "midi": 70,
          "name": "A#4",
          "ticks": 111360,
          "time": 87,
          "velocity": 0.7874015748031497
        },
        {
          "duration": 0.07499999999998863,
          "durationTicks": 96,
          "midi": 64,
          "name": "E4",
          "ticks": 111456,
          "time": 87.075,
          "velocity": 0.7874015748031497
        },
        {
          "duration": 0.07500000000000284,
          "durationTicks": 96,
          "midi": 70,
          "name": "A#4",
          "ticks": 111552,
          "time": 87.14999999999999,
          "velocity": 0.7874015748031497
        },
        {
          "duration": 0.07500000000000284,
          "durationTicks": 96,
          "midi": 64,
          "name": "E4",
          "ticks": 111648,
          "time": 87.225,
          "velocity": 0.7874015748031497
        },
        {
          "duration": 0.07500000000000284,
          "durationTicks": 96,
          "midi": 70,
          "name": "A#4",
          "ticks": 111744,
          "time": 87.3,
          "velocity": 0.7874015748031497
        },
        {
          "duration": 0.07500000000000284,
          "durationTicks": 96,
          "midi": 64,
          "name": "E4",
          "ticks": 111840,
          "time": 87.375,
          "velocity": 0.7874015748031497
        },
        {
          "duration": 0.07499999999998863,
          "durationTicks": 96,
          "midi": 70,
          "name": "A#4",
          "ticks": 111936,
          "time": 87.45,
          "velocity": 0.7874015748031497
        },
        {
          "duration": 0.07500000000000284,
          "durationTicks": 96,
          "midi": 64,
          "name": "E4",
          "ticks": 112032,
          "time": 87.52499999999999,
          "velocity": 0.7874015748031497
        },
        {
          "duration": 0.07500000000000284,
          "durationTicks": 96,
          "midi": 70,
          "name": "A#4",
          "ticks": 112128,
          "time": 87.6,
          "velocity": 0.7874015748031497
        },
        {
          "duration": 0.07500000000000284,
          "durationTicks": 96,
          "midi": 63,
          "name": "D#4",
          "ticks": 112224,
          "time": 87.675,
          "velocity": 0.7874015748031497
        },
        {
          "duration": 0.07500000000000284,
          "durationTicks": 96,
          "midi": 70,
          "name": "A#4",
          "ticks": 112320,
          "time": 87.75,
          "velocity": 0.7874015748031497
        },
        {
          "duration": 0.07499999999998863,
          "durationTicks": 96,
          "midi": 63,
          "name": "D#4",
          "ticks": 112416,
          "time": 87.825,
          "velocity": 0.7874015748031497
        },
        {
          "duration": 0.07500000000000284,
          "durationTicks": 96,
          "midi": 70,
          "name": "A#4",
          "ticks": 112512,
          "time": 87.89999999999999,
          "velocity": 0.7874015748031497
        },
        {
          "duration": 0.07500000000000284,
          "durationTicks": 96,
          "midi": 63,
          "name": "D#4",
          "ticks": 112608,
          "time": 87.975,
          "velocity": 0.7874015748031497
        },
        {
          "duration": 0.07500000000000284,
          "durationTicks": 96,
          "midi": 70,
          "name": "A#4",
          "ticks": 112704,
          "time": 88.05,
          "velocity": 0.7874015748031497
        },
        {
          "duration": 0.07500000000000284,
          "durationTicks": 96,
          "midi": 63,
          "name": "D#4",
          "ticks": 112800,
          "time": 88.125,
          "velocity": 0.7874015748031497
        },
        {
          "duration": 0.07499999999998863,
          "durationTicks": 96,
          "midi": 67,
          "name": "G4",
          "ticks": 112896,
          "time": 88.2,
          "velocity": 0.7874015748031497
        },
        {
          "duration": 0.07500000000000284,
          "durationTicks": 96,
          "midi": 63,
          "name": "D#4",
          "ticks": 112992,
          "time": 88.27499999999999,
          "velocity": 0.7874015748031497
        },
        {
          "duration": 0.07500000000000284,
          "durationTicks": 96,
          "midi": 67,
          "name": "G4",
          "ticks": 113088,
          "time": 88.35,
          "velocity": 0.7874015748031497
        },
        {
          "duration": 0.07500000000000284,
          "durationTicks": 96,
          "midi": 63,
          "name": "D#4",
          "ticks": 113184,
          "time": 88.425,
          "velocity": 0.7874015748031497
        },
        {
          "duration": 0.07500000000000284,
          "durationTicks": 96,
          "midi": 67,
          "name": "G4",
          "ticks": 113280,
          "time": 88.5,
          "velocity": 0.7874015748031497
        },
        {
          "duration": 0.07499999999998863,
          "durationTicks": 96,
          "midi": 63,
          "name": "D#4",
          "ticks": 113376,
          "time": 88.575,
          "velocity": 0.7874015748031497
        },
        {
          "duration": 0.07500000000000284,
          "durationTicks": 96,
          "midi": 67,
          "name": "G4",
          "ticks": 113472,
          "time": 88.64999999999999,
          "velocity": 0.7874015748031497
        },
        {
          "duration": 0.07500000000000284,
          "durationTicks": 96,
          "midi": 63,
          "name": "D#4",
          "ticks": 113568,
          "time": 88.725,
          "velocity": 0.7874015748031497
        },
        {
          "duration": 0.07500000000000284,
          "durationTicks": 96,
          "midi": 69,
          "name": "A4",
          "ticks": 113664,
          "time": 88.8,
          "velocity": 0.7874015748031497
        },
        {
          "duration": 0.07500000000000284,
          "durationTicks": 96,
          "midi": 65,
          "name": "F4",
          "ticks": 113760,
          "time": 88.875,
          "velocity": 0.7874015748031497
        },
        {
          "duration": 0.07499999999998863,
          "durationTicks": 96,
          "midi": 69,
          "name": "A4",
          "ticks": 113856,
          "time": 88.95,
          "velocity": 0.7874015748031497
        },
        {
          "duration": 0.07500000000000284,
          "durationTicks": 96,
          "midi": 65,
          "name": "F4",
          "ticks": 113952,
          "time": 89.02499999999999,
          "velocity": 0.7874015748031497
        },
        {
          "duration": 0.07500000000000284,
          "durationTicks": 96,
          "midi": 69,
          "name": "A4",
          "ticks": 114048,
          "time": 89.1,
          "velocity": 0.7874015748031497
        },
        {
          "duration": 0.07500000000000284,
          "durationTicks": 96,
          "midi": 65,
          "name": "F4",
          "ticks": 114144,
          "time": 89.175,
          "velocity": 0.7874015748031497
        },
        {
          "duration": 0.07500000000000284,
          "durationTicks": 96,
          "midi": 69,
          "name": "A4",
          "ticks": 114240,
          "time": 89.25,
          "velocity": 0.7874015748031497
        },
        {
          "duration": 0.07499999999998863,
          "durationTicks": 96,
          "midi": 65,
          "name": "F4",
          "ticks": 114336,
          "time": 89.325,
          "velocity": 0.7874015748031497
        },
        {
          "duration": 0.07500000000000284,
          "durationTicks": 96,
          "midi": 72,
          "name": "C5",
          "ticks": 114432,
          "time": 89.39999999999999,
          "velocity": 0.7874015748031497
        },
        {
          "duration": 0.07500000000000284,
          "durationTicks": 96,
          "midi": 69,
          "name": "A4",
          "ticks": 114528,
          "time": 89.475,
          "velocity": 0.7874015748031497
        },
        {
          "duration": 0.07500000000000284,
          "durationTicks": 96,
          "midi": 72,
          "name": "C5",
          "ticks": 114624,
          "time": 89.55,
          "velocity": 0.7874015748031497
        },
        {
          "duration": 0.07500000000000284,
          "durationTicks": 96,
          "midi": 69,
          "name": "A4",
          "ticks": 114720,
          "time": 89.625,
          "velocity": 0.7874015748031497
        },
        {
          "duration": 0.07499999999998863,
          "durationTicks": 96,
          "midi": 72,
          "name": "C5",
          "ticks": 114816,
          "time": 89.7,
          "velocity": 0.7874015748031497
        },
        {
          "duration": 0.07500000000000284,
          "durationTicks": 96,
          "midi": 69,
          "name": "A4",
          "ticks": 114912,
          "time": 89.77499999999999,
          "velocity": 0.7874015748031497
        },
        {
          "duration": 0.07500000000000284,
          "durationTicks": 96,
          "midi": 72,
          "name": "C5",
          "ticks": 115008,
          "time": 89.85,
          "velocity": 0.7874015748031497
        },
        {
          "duration": 0.07500000000000284,
          "durationTicks": 96,
          "midi": 69,
          "name": "A4",
          "ticks": 115104,
          "time": 89.925,
          "velocity": 0.7874015748031497
        },
        {
          "duration": 0.07500000000000284,
          "durationTicks": 96,
          "midi": 75,
          "name": "D#5",
          "ticks": 115200,
          "time": 90,
          "velocity": 0.7874015748031497
        },
        {
          "duration": 0.07499999999998863,
          "durationTicks": 96,
          "midi": 67,
          "name": "G4",
          "ticks": 115296,
          "time": 90.075,
          "velocity": 0.7874015748031497
        },
        {
          "duration": 0.07500000000000284,
          "durationTicks": 96,
          "midi": 75,
          "name": "D#5",
          "ticks": 115392,
          "time": 90.14999999999999,
          "velocity": 0.7874015748031497
        },
        {
          "duration": 0.07500000000000284,
          "durationTicks": 96,
          "midi": 67,
          "name": "G4",
          "ticks": 115488,
          "time": 90.225,
          "velocity": 0.7874015748031497
        },
        {
          "duration": 0.07500000000000284,
          "durationTicks": 96,
          "midi": 75,
          "name": "D#5",
          "ticks": 115584,
          "time": 90.3,
          "velocity": 0.7874015748031497
        },
        {
          "duration": 0.07500000000000284,
          "durationTicks": 96,
          "midi": 67,
          "name": "G4",
          "ticks": 115680,
          "time": 90.375,
          "velocity": 0.7874015748031497
        },
        {
          "duration": 0.07499999999998863,
          "durationTicks": 96,
          "midi": 75,
          "name": "D#5",
          "ticks": 115776,
          "time": 90.45,
          "velocity": 0.7874015748031497
        },
        {
          "duration": 0.07500000000000284,
          "durationTicks": 96,
          "midi": 67,
          "name": "G4",
          "ticks": 115872,
          "time": 90.52499999999999,
          "velocity": 0.7874015748031497
        },
        {
          "duration": 0.07500000000000284,
          "durationTicks": 96,
          "midi": 75,
          "name": "D#5",
          "ticks": 115968,
          "time": 90.6,
          "velocity": 0.7874015748031497
        },
        {
          "duration": 0.07500000000000284,
          "durationTicks": 96,
          "midi": 67,
          "name": "G4",
          "ticks": 116064,
          "time": 90.675,
          "velocity": 0.7874015748031497
        },
        {
          "duration": 0.07500000000000284,
          "durationTicks": 96,
          "midi": 75,
          "name": "D#5",
          "ticks": 116160,
          "time": 90.75,
          "velocity": 0.7874015748031497
        },
        {
          "duration": 0.07499999999998863,
          "durationTicks": 96,
          "midi": 67,
          "name": "G4",
          "ticks": 116256,
          "time": 90.825,
          "velocity": 0.7874015748031497
        },
        {
          "duration": 0.07500000000000284,
          "durationTicks": 96,
          "midi": 75,
          "name": "D#5",
          "ticks": 116352,
          "time": 90.89999999999999,
          "velocity": 0.7874015748031497
        },
        {
          "duration": 0.07500000000000284,
          "durationTicks": 96,
          "midi": 67,
          "name": "G4",
          "ticks": 116448,
          "time": 90.975,
          "velocity": 0.7874015748031497
        },
        {
          "duration": 0.07500000000000284,
          "durationTicks": 96,
          "midi": 75,
          "name": "D#5",
          "ticks": 116544,
          "time": 91.05,
          "velocity": 0.7874015748031497
        },
        {
          "duration": 0.07500000000000284,
          "durationTicks": 96,
          "midi": 67,
          "name": "G4",
          "ticks": 116640,
          "time": 91.125,
          "velocity": 0.7874015748031497
        },
        {
          "duration": 0.07499999999998863,
          "durationTicks": 96,
          "midi": 74,
          "name": "D5",
          "ticks": 116736,
          "time": 91.2,
          "velocity": 0.7874015748031497
        },
        {
          "duration": 0.07500000000000284,
          "durationTicks": 96,
          "midi": 65,
          "name": "F4",
          "ticks": 116832,
          "time": 91.27499999999999,
          "velocity": 0.7874015748031497
        },
        {
          "duration": 0.07500000000000284,
          "durationTicks": 96,
          "midi": 74,
          "name": "D5",
          "ticks": 116928,
          "time": 91.35,
          "velocity": 0.7874015748031497
        },
        {
          "duration": 0.07500000000000284,
          "durationTicks": 96,
          "midi": 65,
          "name": "F4",
          "ticks": 117024,
          "time": 91.425,
          "velocity": 0.7874015748031497
        },
        {
          "duration": 0.07500000000000284,
          "durationTicks": 96,
          "midi": 74,
          "name": "D5",
          "ticks": 117120,
          "time": 91.5,
          "velocity": 0.7874015748031497
        },
        {
          "duration": 0.07499999999998863,
          "durationTicks": 96,
          "midi": 65,
          "name": "F4",
          "ticks": 117216,
          "time": 91.575,
          "velocity": 0.7874015748031497
        },
        {
          "duration": 0.07500000000000284,
          "durationTicks": 96,
          "midi": 74,
          "name": "D5",
          "ticks": 117312,
          "time": 91.64999999999999,
          "velocity": 0.7874015748031497
        },
        {
          "duration": 0.07500000000000284,
          "durationTicks": 96,
          "midi": 65,
          "name": "F4",
          "ticks": 117408,
          "time": 91.725,
          "velocity": 0.7874015748031497
        },
        {
          "duration": 0.07500000000000284,
          "durationTicks": 96,
          "midi": 74,
          "name": "D5",
          "ticks": 117504,
          "time": 91.8,
          "velocity": 0.7874015748031497
        },
        {
          "duration": 0.07500000000000284,
          "durationTicks": 96,
          "midi": 65,
          "name": "F4",
          "ticks": 117600,
          "time": 91.875,
          "velocity": 0.7874015748031497
        },
        {
          "duration": 0.07499999999998863,
          "durationTicks": 96,
          "midi": 74,
          "name": "D5",
          "ticks": 117696,
          "time": 91.95,
          "velocity": 0.7874015748031497
        },
        {
          "duration": 0.07500000000000284,
          "durationTicks": 96,
          "midi": 65,
          "name": "F4",
          "ticks": 117792,
          "time": 92.02499999999999,
          "velocity": 0.7874015748031497
        },
        {
          "duration": 0.07500000000000284,
          "durationTicks": 96,
          "midi": 74,
          "name": "D5",
          "ticks": 117888,
          "time": 92.1,
          "velocity": 0.7874015748031497
        },
        {
          "duration": 0.07500000000000284,
          "durationTicks": 96,
          "midi": 65,
          "name": "F4",
          "ticks": 117984,
          "time": 92.175,
          "velocity": 0.7874015748031497
        },
        {
          "duration": 0.07500000000000284,
          "durationTicks": 96,
          "midi": 74,
          "name": "D5",
          "ticks": 118080,
          "time": 92.25,
          "velocity": 0.7874015748031497
        },
        {
          "duration": 0.07499999999998863,
          "durationTicks": 96,
          "midi": 65,
          "name": "F4",
          "ticks": 118176,
          "time": 92.325,
          "velocity": 0.7874015748031497
        },
        {
          "duration": 0.07500000000000284,
          "durationTicks": 96,
          "midi": 77,
          "name": "F5",
          "ticks": 118272,
          "time": 92.39999999999999,
          "velocity": 0.7874015748031497
        },
        {
          "duration": 0.07500000000000284,
          "durationTicks": 96,
          "midi": 69,
          "name": "A4",
          "ticks": 118368,
          "time": 92.475,
          "velocity": 0.7874015748031497
        },
        {
          "duration": 0.07500000000000284,
          "durationTicks": 96,
          "midi": 77,
          "name": "F5",
          "ticks": 118464,
          "time": 92.55,
          "velocity": 0.7874015748031497
        },
        {
          "duration": 0.07500000000000284,
          "durationTicks": 96,
          "midi": 69,
          "name": "A4",
          "ticks": 118560,
          "time": 92.625,
          "velocity": 0.7874015748031497
        },
        {
          "duration": 0.07499999999998863,
          "durationTicks": 96,
          "midi": 77,
          "name": "F5",
          "ticks": 118656,
          "time": 92.7,
          "velocity": 0.7874015748031497
        },
        {
          "duration": 0.07500000000000284,
          "durationTicks": 96,
          "midi": 69,
          "name": "A4",
          "ticks": 118752,
          "time": 92.77499999999999,
          "velocity": 0.7874015748031497
        },
        {
          "duration": 0.07500000000000284,
          "durationTicks": 96,
          "midi": 77,
          "name": "F5",
          "ticks": 118848,
          "time": 92.85,
          "velocity": 0.7874015748031497
        },
        {
          "duration": 0.07500000000000284,
          "durationTicks": 96,
          "midi": 69,
          "name": "A4",
          "ticks": 118944,
          "time": 92.925,
          "velocity": 0.7874015748031497
        },
        {
          "duration": 0.07500000000000284,
          "durationTicks": 96,
          "midi": 77,
          "name": "F5",
          "ticks": 119040,
          "time": 93,
          "velocity": 0.7874015748031497
        },
        {
          "duration": 0.07499999999998863,
          "durationTicks": 96,
          "midi": 69,
          "name": "A4",
          "ticks": 119136,
          "time": 93.075,
          "velocity": 0.7874015748031497
        },
        {
          "duration": 0.07500000000000284,
          "durationTicks": 96,
          "midi": 77,
          "name": "F5",
          "ticks": 119232,
          "time": 93.14999999999999,
          "velocity": 0.7874015748031497
        },
        {
          "duration": 0.07500000000000284,
          "durationTicks": 96,
          "midi": 69,
          "name": "A4",
          "ticks": 119328,
          "time": 93.225,
          "velocity": 0.7874015748031497
        },
        {
          "duration": 0.07500000000000284,
          "durationTicks": 96,
          "midi": 77,
          "name": "F5",
          "ticks": 119424,
          "time": 93.3,
          "velocity": 0.7874015748031497
        },
        {
          "duration": 0.07500000000000284,
          "durationTicks": 96,
          "midi": 69,
          "name": "A4",
          "ticks": 119520,
          "time": 93.375,
          "velocity": 0.7874015748031497
        },
        {
          "duration": 0.07499999999998863,
          "durationTicks": 96,
          "midi": 77,
          "name": "F5",
          "ticks": 119616,
          "time": 93.45,
          "velocity": 0.7874015748031497
        },
        {
          "duration": 0.07500000000000284,
          "durationTicks": 96,
          "midi": 69,
          "name": "A4",
          "ticks": 119712,
          "time": 93.52499999999999,
          "velocity": 0.7874015748031497
        },
        {
          "duration": 0.07500000000000284,
          "durationTicks": 96,
          "midi": 74,
          "name": "D5",
          "ticks": 119808,
          "time": 93.6,
          "velocity": 0.7874015748031497
        },
        {
          "duration": 0.07500000000000284,
          "durationTicks": 96,
          "midi": 65,
          "name": "F4",
          "ticks": 119904,
          "time": 93.675,
          "velocity": 0.7874015748031497
        },
        {
          "duration": 0.07500000000000284,
          "durationTicks": 96,
          "midi": 74,
          "name": "D5",
          "ticks": 120000,
          "time": 93.75,
          "velocity": 0.7874015748031497
        },
        {
          "duration": 0.07499999999998863,
          "durationTicks": 96,
          "midi": 65,
          "name": "F4",
          "ticks": 120096,
          "time": 93.825,
          "velocity": 0.7874015748031497
        },
        {
          "duration": 0.07500000000000284,
          "durationTicks": 96,
          "midi": 74,
          "name": "D5",
          "ticks": 120192,
          "time": 93.89999999999999,
          "velocity": 0.7874015748031497
        },
        {
          "duration": 0.07500000000000284,
          "durationTicks": 96,
          "midi": 65,
          "name": "F4",
          "ticks": 120288,
          "time": 93.975,
          "velocity": 0.7874015748031497
        },
        {
          "duration": 0.07500000000000284,
          "durationTicks": 96,
          "midi": 74,
          "name": "D5",
          "ticks": 120384,
          "time": 94.05,
          "velocity": 0.7874015748031497
        },
        {
          "duration": 0.07500000000000284,
          "durationTicks": 96,
          "midi": 65,
          "name": "F4",
          "ticks": 120480,
          "time": 94.125,
          "velocity": 0.7874015748031497
        },
        {
          "duration": 0.07499999999998863,
          "durationTicks": 96,
          "midi": 74,
          "name": "D5",
          "ticks": 120576,
          "time": 94.2,
          "velocity": 0.7874015748031497
        },
        {
          "duration": 0.07500000000000284,
          "durationTicks": 96,
          "midi": 65,
          "name": "F4",
          "ticks": 120672,
          "time": 94.27499999999999,
          "velocity": 0.7874015748031497
        },
        {
          "duration": 0.07500000000000284,
          "durationTicks": 96,
          "midi": 74,
          "name": "D5",
          "ticks": 120768,
          "time": 94.35,
          "velocity": 0.7874015748031497
        },
        {
          "duration": 0.07500000000000284,
          "durationTicks": 96,
          "midi": 65,
          "name": "F4",
          "ticks": 120864,
          "time": 94.425,
          "velocity": 0.7874015748031497
        },
        {
          "duration": 0.07500000000000284,
          "durationTicks": 96,
          "midi": 74,
          "name": "D5",
          "ticks": 120960,
          "time": 94.5,
          "velocity": 0.7874015748031497
        },
        {
          "duration": 0.07499999999998863,
          "durationTicks": 96,
          "midi": 65,
          "name": "F4",
          "ticks": 121056,
          "time": 94.575,
          "velocity": 0.7874015748031497
        },
        {
          "duration": 0.07500000000000284,
          "durationTicks": 96,
          "midi": 74,
          "name": "D5",
          "ticks": 121152,
          "time": 94.64999999999999,
          "velocity": 0.7874015748031497
        },
        {
          "duration": 0.07500000000000284,
          "durationTicks": 96,
          "midi": 65,
          "name": "F4",
          "ticks": 121248,
          "time": 94.725,
          "velocity": 0.7874015748031497
        },
        {
          "duration": 0.07500000000000284,
          "durationTicks": 96,
          "midi": 75,
          "name": "D#5",
          "ticks": 121344,
          "time": 94.8,
          "velocity": 0.7874015748031497
        },
        {
          "duration": 0.07500000000000284,
          "durationTicks": 96,
          "midi": 67,
          "name": "G4",
          "ticks": 121440,
          "time": 94.875,
          "velocity": 0.7874015748031497
        },
        {
          "duration": 0.07499999999998863,
          "durationTicks": 96,
          "midi": 75,
          "name": "D#5",
          "ticks": 121536,
          "time": 94.95,
          "velocity": 0.7874015748031497
        },
        {
          "duration": 0.07500000000000284,
          "durationTicks": 96,
          "midi": 67,
          "name": "G4",
          "ticks": 121632,
          "time": 95.02499999999999,
          "velocity": 0.7874015748031497
        },
        {
          "duration": 0.07500000000000284,
          "durationTicks": 96,
          "midi": 75,
          "name": "D#5",
          "ticks": 121728,
          "time": 95.1,
          "velocity": 0.7874015748031497
        },
        {
          "duration": 0.07500000000000284,
          "durationTicks": 96,
          "midi": 67,
          "name": "G4",
          "ticks": 121824,
          "time": 95.175,
          "velocity": 0.7874015748031497
        },
        {
          "duration": 0.07500000000000284,
          "durationTicks": 96,
          "midi": 75,
          "name": "D#5",
          "ticks": 121920,
          "time": 95.25,
          "velocity": 0.7874015748031497
        },
        {
          "duration": 0.07499999999998863,
          "durationTicks": 96,
          "midi": 67,
          "name": "G4",
          "ticks": 122016,
          "time": 95.325,
          "velocity": 0.7874015748031497
        },
        {
          "duration": 0.07500000000000284,
          "durationTicks": 96,
          "midi": 75,
          "name": "D#5",
          "ticks": 122112,
          "time": 95.39999999999999,
          "velocity": 0.7874015748031497
        },
        {
          "duration": 0.07500000000000284,
          "durationTicks": 96,
          "midi": 67,
          "name": "G4",
          "ticks": 122208,
          "time": 95.475,
          "velocity": 0.7874015748031497
        },
        {
          "duration": 0.07500000000000284,
          "durationTicks": 96,
          "midi": 75,
          "name": "D#5",
          "ticks": 122304,
          "time": 95.55,
          "velocity": 0.7874015748031497
        },
        {
          "duration": 0.07500000000000284,
          "durationTicks": 96,
          "midi": 67,
          "name": "G4",
          "ticks": 122400,
          "time": 95.625,
          "velocity": 0.7874015748031497
        },
        {
          "duration": 0.07499999999998863,
          "durationTicks": 96,
          "midi": 75,
          "name": "D#5",
          "ticks": 122496,
          "time": 95.7,
          "velocity": 0.7874015748031497
        },
        {
          "duration": 0.07500000000000284,
          "durationTicks": 96,
          "midi": 67,
          "name": "G4",
          "ticks": 122592,
          "time": 95.77499999999999,
          "velocity": 0.7874015748031497
        },
        {
          "duration": 0.07500000000000284,
          "durationTicks": 96,
          "midi": 75,
          "name": "D#5",
          "ticks": 122688,
          "time": 95.85,
          "velocity": 0.7874015748031497
        },
        {
          "duration": 0.07500000000000284,
          "durationTicks": 96,
          "midi": 67,
          "name": "G4",
          "ticks": 122784,
          "time": 95.925,
          "velocity": 0.7874015748031497
        },
        {
          "duration": 0.07500000000000284,
          "durationTicks": 96,
          "midi": 77,
          "name": "F5",
          "ticks": 122880,
          "time": 96,
          "velocity": 0.7874015748031497
        },
        {
          "duration": 0.07499999999998863,
          "durationTicks": 96,
          "midi": 69,
          "name": "A4",
          "ticks": 122976,
          "time": 96.075,
          "velocity": 0.7874015748031497
        },
        {
          "duration": 0.07500000000000284,
          "durationTicks": 96,
          "midi": 77,
          "name": "F5",
          "ticks": 123072,
          "time": 96.14999999999999,
          "velocity": 0.7874015748031497
        },
        {
          "duration": 0.07500000000000284,
          "durationTicks": 96,
          "midi": 69,
          "name": "A4",
          "ticks": 123168,
          "time": 96.225,
          "velocity": 0.7874015748031497
        },
        {
          "duration": 0.07500000000000284,
          "durationTicks": 96,
          "midi": 77,
          "name": "F5",
          "ticks": 123264,
          "time": 96.3,
          "velocity": 0.7874015748031497
        },
        {
          "duration": 0.07500000000000284,
          "durationTicks": 96,
          "midi": 69,
          "name": "A4",
          "ticks": 123360,
          "time": 96.375,
          "velocity": 0.7874015748031497
        },
        {
          "duration": 0.07499999999998863,
          "durationTicks": 96,
          "midi": 77,
          "name": "F5",
          "ticks": 123456,
          "time": 96.45,
          "velocity": 0.7874015748031497
        },
        {
          "duration": 0.07500000000000284,
          "durationTicks": 96,
          "midi": 69,
          "name": "A4",
          "ticks": 123552,
          "time": 96.52499999999999,
          "velocity": 0.7874015748031497
        },
        {
          "duration": 0.07500000000000284,
          "durationTicks": 96,
          "midi": 77,
          "name": "F5",
          "ticks": 123648,
          "time": 96.6,
          "velocity": 0.7874015748031497
        },
        {
          "duration": 0.07500000000000284,
          "durationTicks": 96,
          "midi": 69,
          "name": "A4",
          "ticks": 123744,
          "time": 96.675,
          "velocity": 0.7874015748031497
        },
        {
          "duration": 0.07500000000000284,
          "durationTicks": 96,
          "midi": 77,
          "name": "F5",
          "ticks": 123840,
          "time": 96.75,
          "velocity": 0.7874015748031497
        },
        {
          "duration": 0.07499999999998863,
          "durationTicks": 96,
          "midi": 69,
          "name": "A4",
          "ticks": 123936,
          "time": 96.825,
          "velocity": 0.7874015748031497
        },
        {
          "duration": 0.07500000000000284,
          "durationTicks": 96,
          "midi": 77,
          "name": "F5",
          "ticks": 124032,
          "time": 96.89999999999999,
          "velocity": 0.7874015748031497
        },
        {
          "duration": 0.07500000000000284,
          "durationTicks": 96,
          "midi": 69,
          "name": "A4",
          "ticks": 124128,
          "time": 96.975,
          "velocity": 0.7874015748031497
        },
        {
          "duration": 0.07500000000000284,
          "durationTicks": 96,
          "midi": 77,
          "name": "F5",
          "ticks": 124224,
          "time": 97.05,
          "velocity": 0.7874015748031497
        },
        {
          "duration": 0.07500000000000284,
          "durationTicks": 96,
          "midi": 69,
          "name": "A4",
          "ticks": 124320,
          "time": 97.125,
          "velocity": 0.7874015748031497
        },
        {
          "duration": 0.07499999999998863,
          "durationTicks": 96,
          "midi": 74,
          "name": "D5",
          "ticks": 124416,
          "time": 97.2,
          "velocity": 0.7874015748031497
        },
        {
          "duration": 0.07500000000000284,
          "durationTicks": 96,
          "midi": 65,
          "name": "F4",
          "ticks": 124512,
          "time": 97.27499999999999,
          "velocity": 0.7874015748031497
        },
        {
          "duration": 0.07500000000000284,
          "durationTicks": 96,
          "midi": 74,
          "name": "D5",
          "ticks": 124608,
          "time": 97.35,
          "velocity": 0.7874015748031497
        },
        {
          "duration": 0.07500000000000284,
          "durationTicks": 96,
          "midi": 65,
          "name": "F4",
          "ticks": 124704,
          "time": 97.425,
          "velocity": 0.7874015748031497
        },
        {
          "duration": 0.07500000000000284,
          "durationTicks": 96,
          "midi": 74,
          "name": "D5",
          "ticks": 124800,
          "time": 97.5,
          "velocity": 0.7874015748031497
        },
        {
          "duration": 0.07499999999998863,
          "durationTicks": 96,
          "midi": 65,
          "name": "F4",
          "ticks": 124896,
          "time": 97.575,
          "velocity": 0.7874015748031497
        },
        {
          "duration": 0.07500000000000284,
          "durationTicks": 96,
          "midi": 74,
          "name": "D5",
          "ticks": 124992,
          "time": 97.64999999999999,
          "velocity": 0.7874015748031497
        },
        {
          "duration": 0.07500000000000284,
          "durationTicks": 96,
          "midi": 65,
          "name": "F4",
          "ticks": 125088,
          "time": 97.725,
          "velocity": 0.7874015748031497
        },
        {
          "duration": 0.07500000000000284,
          "durationTicks": 96,
          "midi": 74,
          "name": "D5",
          "ticks": 125184,
          "time": 97.8,
          "velocity": 0.7874015748031497
        },
        {
          "duration": 0.07500000000000284,
          "durationTicks": 96,
          "midi": 65,
          "name": "F4",
          "ticks": 125280,
          "time": 97.875,
          "velocity": 0.7874015748031497
        },
        {
          "duration": 0.07499999999998863,
          "durationTicks": 96,
          "midi": 74,
          "name": "D5",
          "ticks": 125376,
          "time": 97.95,
          "velocity": 0.7874015748031497
        },
        {
          "duration": 0.07500000000000284,
          "durationTicks": 96,
          "midi": 65,
          "name": "F4",
          "ticks": 125472,
          "time": 98.02499999999999,
          "velocity": 0.7874015748031497
        },
        {
          "duration": 0.07500000000000284,
          "durationTicks": 96,
          "midi": 74,
          "name": "D5",
          "ticks": 125568,
          "time": 98.1,
          "velocity": 0.7874015748031497
        },
        {
          "duration": 0.07500000000000284,
          "durationTicks": 96,
          "midi": 65,
          "name": "F4",
          "ticks": 125664,
          "time": 98.175,
          "velocity": 0.7874015748031497
        },
        {
          "duration": 0.07500000000000284,
          "durationTicks": 96,
          "midi": 74,
          "name": "D5",
          "ticks": 125760,
          "time": 98.25,
          "velocity": 0.7874015748031497
        },
        {
          "duration": 0.07499999999998863,
          "durationTicks": 96,
          "midi": 65,
          "name": "F4",
          "ticks": 125856,
          "time": 98.325,
          "velocity": 0.7874015748031497
        },
        {
          "duration": 0.07500000000000284,
          "durationTicks": 96,
          "midi": 68,
          "name": "G#4",
          "ticks": 125952,
          "time": 98.39999999999999,
          "velocity": 0.7874015748031497
        },
        {
          "duration": 0.07500000000000284,
          "durationTicks": 96,
          "midi": 74,
          "name": "D5",
          "ticks": 126048,
          "time": 98.475,
          "velocity": 0.7874015748031497
        },
        {
          "duration": 0.07500000000000284,
          "durationTicks": 96,
          "midi": 68,
          "name": "G#4",
          "ticks": 126144,
          "time": 98.55,
          "velocity": 0.7874015748031497
        },
        {
          "duration": 0.07500000000000284,
          "durationTicks": 96,
          "midi": 74,
          "name": "D5",
          "ticks": 126240,
          "time": 98.625,
          "velocity": 0.7874015748031497
        },
        {
          "duration": 0.07499999999998863,
          "durationTicks": 96,
          "midi": 68,
          "name": "G#4",
          "ticks": 126336,
          "time": 98.7,
          "velocity": 0.7874015748031497
        },
        {
          "duration": 0.07500000000000284,
          "durationTicks": 96,
          "midi": 74,
          "name": "D5",
          "ticks": 126432,
          "time": 98.77499999999999,
          "velocity": 0.7874015748031497
        },
        {
          "duration": 0.07500000000000284,
          "durationTicks": 96,
          "midi": 68,
          "name": "G#4",
          "ticks": 126528,
          "time": 98.85,
          "velocity": 0.7874015748031497
        },
        {
          "duration": 0.07500000000000284,
          "durationTicks": 96,
          "midi": 74,
          "name": "D5",
          "ticks": 126624,
          "time": 98.925,
          "velocity": 0.7874015748031497
        },
        {
          "duration": 0.07500000000000284,
          "durationTicks": 96,
          "midi": 68,
          "name": "G#4",
          "ticks": 126720,
          "time": 99,
          "velocity": 0.7874015748031497
        },
        {
          "duration": 0.07499999999998863,
          "durationTicks": 96,
          "midi": 74,
          "name": "D5",
          "ticks": 126816,
          "time": 99.075,
          "velocity": 0.7874015748031497
        },
        {
          "duration": 0.07500000000000284,
          "durationTicks": 96,
          "midi": 68,
          "name": "G#4",
          "ticks": 126912,
          "time": 99.14999999999999,
          "velocity": 0.7874015748031497
        },
        {
          "duration": 0.07500000000000284,
          "durationTicks": 96,
          "midi": 74,
          "name": "D5",
          "ticks": 127008,
          "time": 99.225,
          "velocity": 0.7874015748031497
        },
        {
          "duration": 0.07500000000000284,
          "durationTicks": 96,
          "midi": 68,
          "name": "G#4",
          "ticks": 127104,
          "time": 99.3,
          "velocity": 0.7874015748031497
        },
        {
          "duration": 0.07500000000000284,
          "durationTicks": 96,
          "midi": 74,
          "name": "D5",
          "ticks": 127200,
          "time": 99.375,
          "velocity": 0.7874015748031497
        },
        {
          "duration": 0.07499999999998863,
          "durationTicks": 96,
          "midi": 68,
          "name": "G#4",
          "ticks": 127296,
          "time": 99.45,
          "velocity": 0.7874015748031497
        },
        {
          "duration": 0.07500000000000284,
          "durationTicks": 96,
          "midi": 74,
          "name": "D5",
          "ticks": 127392,
          "time": 99.52499999999999,
          "velocity": 0.7874015748031497
        },
        {
          "duration": 0.07500000000000284,
          "durationTicks": 96,
          "midi": 75,
          "name": "D#5",
          "ticks": 127488,
          "time": 99.6,
          "velocity": 0.7874015748031497
        },
        {
          "duration": 0.07500000000000284,
          "durationTicks": 96,
          "midi": 67,
          "name": "G4",
          "ticks": 127584,
          "time": 99.675,
          "velocity": 0.7874015748031497
        },
        {
          "duration": 0.07500000000000284,
          "durationTicks": 96,
          "midi": 75,
          "name": "D#5",
          "ticks": 127680,
          "time": 99.75,
          "velocity": 0.7874015748031497
        },
        {
          "duration": 0.07499999999998863,
          "durationTicks": 96,
          "midi": 67,
          "name": "G4",
          "ticks": 127776,
          "time": 99.825,
          "velocity": 0.7874015748031497
        },
        {
          "duration": 0.07500000000000284,
          "durationTicks": 96,
          "midi": 75,
          "name": "D#5",
          "ticks": 127872,
          "time": 99.89999999999999,
          "velocity": 0.7874015748031497
        },
        {
          "duration": 0.07500000000000284,
          "durationTicks": 96,
          "midi": 67,
          "name": "G4",
          "ticks": 127968,
          "time": 99.975,
          "velocity": 0.7874015748031497
        },
        {
          "duration": 0.07500000000000284,
          "durationTicks": 96,
          "midi": 75,
          "name": "D#5",
          "ticks": 128064,
          "time": 100.05,
          "velocity": 0.7874015748031497
        },
        {
          "duration": 0.07500000000000284,
          "durationTicks": 96,
          "midi": 67,
          "name": "G4",
          "ticks": 128160,
          "time": 100.125,
          "velocity": 0.7874015748031497
        },
        {
          "duration": 0.07499999999998863,
          "durationTicks": 96,
          "midi": 75,
          "name": "D#5",
          "ticks": 128256,
          "time": 100.2,
          "velocity": 0.7874015748031497
        },
        {
          "duration": 0.07500000000000284,
          "durationTicks": 96,
          "midi": 67,
          "name": "G4",
          "ticks": 128352,
          "time": 100.27499999999999,
          "velocity": 0.7874015748031497
        },
        {
          "duration": 0.07500000000000284,
          "durationTicks": 96,
          "midi": 75,
          "name": "D#5",
          "ticks": 128448,
          "time": 100.35,
          "velocity": 0.7874015748031497
        },
        {
          "duration": 0.07500000000000284,
          "durationTicks": 96,
          "midi": 67,
          "name": "G4",
          "ticks": 128544,
          "time": 100.425,
          "velocity": 0.7874015748031497
        },
        {
          "duration": 0.07500000000000284,
          "durationTicks": 96,
          "midi": 75,
          "name": "D#5",
          "ticks": 128640,
          "time": 100.5,
          "velocity": 0.7874015748031497
        },
        {
          "duration": 0.07499999999998863,
          "durationTicks": 96,
          "midi": 67,
          "name": "G4",
          "ticks": 128736,
          "time": 100.575,
          "velocity": 0.7874015748031497
        },
        {
          "duration": 0.07500000000000284,
          "durationTicks": 96,
          "midi": 75,
          "name": "D#5",
          "ticks": 128832,
          "time": 100.64999999999999,
          "velocity": 0.7874015748031497
        },
        {
          "duration": 0.07500000000000284,
          "durationTicks": 96,
          "midi": 67,
          "name": "G4",
          "ticks": 128928,
          "time": 100.725,
          "velocity": 0.7874015748031497
        },
        {
          "duration": 0.07500000000000284,
          "durationTicks": 96,
          "midi": 77,
          "name": "F5",
          "ticks": 129024,
          "time": 100.8,
          "velocity": 0.7874015748031497
        },
        {
          "duration": 0.07500000000000284,
          "durationTicks": 96,
          "midi": 69,
          "name": "A4",
          "ticks": 129120,
          "time": 100.875,
          "velocity": 0.7874015748031497
        },
        {
          "duration": 0.07499999999998863,
          "durationTicks": 96,
          "midi": 77,
          "name": "F5",
          "ticks": 129216,
          "time": 100.95,
          "velocity": 0.7874015748031497
        },
        {
          "duration": 0.07500000000000284,
          "durationTicks": 96,
          "midi": 69,
          "name": "A4",
          "ticks": 129312,
          "time": 101.02499999999999,
          "velocity": 0.7874015748031497
        },
        {
          "duration": 0.07500000000000284,
          "durationTicks": 96,
          "midi": 77,
          "name": "F5",
          "ticks": 129408,
          "time": 101.1,
          "velocity": 0.7874015748031497
        },
        {
          "duration": 0.07500000000000284,
          "durationTicks": 96,
          "midi": 69,
          "name": "A4",
          "ticks": 129504,
          "time": 101.175,
          "velocity": 0.7874015748031497
        },
        {
          "duration": 0.07500000000000284,
          "durationTicks": 96,
          "midi": 77,
          "name": "F5",
          "ticks": 129600,
          "time": 101.25,
          "velocity": 0.7874015748031497
        },
        {
          "duration": 0.07499999999998863,
          "durationTicks": 96,
          "midi": 69,
          "name": "A4",
          "ticks": 129696,
          "time": 101.325,
          "velocity": 0.7874015748031497
        },
        {
          "duration": 0.07500000000000284,
          "durationTicks": 96,
          "midi": 77,
          "name": "F5",
          "ticks": 129792,
          "time": 101.39999999999999,
          "velocity": 0.7874015748031497
        },
        {
          "duration": 0.07500000000000284,
          "durationTicks": 96,
          "midi": 69,
          "name": "A4",
          "ticks": 129888,
          "time": 101.475,
          "velocity": 0.7874015748031497
        },
        {
          "duration": 0.07500000000000284,
          "durationTicks": 96,
          "midi": 77,
          "name": "F5",
          "ticks": 129984,
          "time": 101.55,
          "velocity": 0.7874015748031497
        },
        {
          "duration": 0.07500000000000284,
          "durationTicks": 96,
          "midi": 69,
          "name": "A4",
          "ticks": 130080,
          "time": 101.625,
          "velocity": 0.7874015748031497
        },
        {
          "duration": 0.07499999999998863,
          "durationTicks": 96,
          "midi": 77,
          "name": "F5",
          "ticks": 130176,
          "time": 101.7,
          "velocity": 0.7874015748031497
        },
        {
          "duration": 0.07500000000000284,
          "durationTicks": 96,
          "midi": 69,
          "name": "A4",
          "ticks": 130272,
          "time": 101.77499999999999,
          "velocity": 0.7874015748031497
        },
        {
          "duration": 0.07500000000000284,
          "durationTicks": 96,
          "midi": 77,
          "name": "F5",
          "ticks": 130368,
          "time": 101.85,
          "velocity": 0.7874015748031497
        },
        {
          "duration": 0.07500000000000284,
          "durationTicks": 96,
          "midi": 69,
          "name": "A4",
          "ticks": 130464,
          "time": 101.925,
          "velocity": 0.7874015748031497
        },
        {
          "duration": 0.07500000000000284,
          "durationTicks": 96,
          "midi": 79,
          "name": "G5",
          "ticks": 130560,
          "time": 102,
          "velocity": 0.7874015748031497
        },
        {
          "duration": 0.07499999999998863,
          "durationTicks": 96,
          "midi": 70,
          "name": "A#4",
          "ticks": 130656,
          "time": 102.075,
          "velocity": 0.7874015748031497
        },
        {
          "duration": 0.07500000000000284,
          "durationTicks": 96,
          "midi": 79,
          "name": "G5",
          "ticks": 130752,
          "time": 102.14999999999999,
          "velocity": 0.7874015748031497
        },
        {
          "duration": 0.07500000000000284,
          "durationTicks": 96,
          "midi": 70,
          "name": "A#4",
          "ticks": 130848,
          "time": 102.225,
          "velocity": 0.7874015748031497
        },
        {
          "duration": 0.07500000000000284,
          "durationTicks": 96,
          "midi": 79,
          "name": "G5",
          "ticks": 130944,
          "time": 102.3,
          "velocity": 0.7874015748031497
        },
        {
          "duration": 0.07500000000000284,
          "durationTicks": 96,
          "midi": 70,
          "name": "A#4",
          "ticks": 131040,
          "time": 102.375,
          "velocity": 0.7874015748031497
        },
        {
          "duration": 0.07499999999998863,
          "durationTicks": 96,
          "midi": 79,
          "name": "G5",
          "ticks": 131136,
          "time": 102.45,
          "velocity": 0.7874015748031497
        },
        {
          "duration": 0.07500000000000284,
          "durationTicks": 96,
          "midi": 70,
          "name": "A#4",
          "ticks": 131232,
          "time": 102.52499999999999,
          "velocity": 0.7874015748031497
        },
        {
          "duration": 0.07500000000000284,
          "durationTicks": 96,
          "midi": 79,
          "name": "G5",
          "ticks": 131328,
          "time": 102.6,
          "velocity": 0.7874015748031497
        },
        {
          "duration": 0.07500000000000284,
          "durationTicks": 96,
          "midi": 70,
          "name": "A#4",
          "ticks": 131424,
          "time": 102.675,
          "velocity": 0.7874015748031497
        },
        {
          "duration": 0.07500000000000284,
          "durationTicks": 96,
          "midi": 79,
          "name": "G5",
          "ticks": 131520,
          "time": 102.75,
          "velocity": 0.7874015748031497
        },
        {
          "duration": 0.07499999999998863,
          "durationTicks": 96,
          "midi": 70,
          "name": "A#4",
          "ticks": 131616,
          "time": 102.825,
          "velocity": 0.7874015748031497
        },
        {
          "duration": 0.07500000000000284,
          "durationTicks": 96,
          "midi": 79,
          "name": "G5",
          "ticks": 131712,
          "time": 102.89999999999999,
          "velocity": 0.7874015748031497
        },
        {
          "duration": 0.07500000000000284,
          "durationTicks": 96,
          "midi": 70,
          "name": "A#4",
          "ticks": 131808,
          "time": 102.975,
          "velocity": 0.7874015748031497
        },
        {
          "duration": 0.07500000000000284,
          "durationTicks": 96,
          "midi": 79,
          "name": "G5",
          "ticks": 131904,
          "time": 103.05,
          "velocity": 0.7874015748031497
        },
        {
          "duration": 0.07500000000000284,
          "durationTicks": 96,
          "midi": 70,
          "name": "A#4",
          "ticks": 132000,
          "time": 103.125,
          "velocity": 0.7874015748031497
        },
        {
          "duration": 0.07499999999998863,
          "durationTicks": 96,
          "midi": 76,
          "name": "E5",
          "ticks": 132096,
          "time": 103.2,
          "velocity": 0.7874015748031497
        },
        {
          "duration": 0.07500000000000284,
          "durationTicks": 96,
          "midi": 67,
          "name": "G4",
          "ticks": 132192,
          "time": 103.27499999999999,
          "velocity": 0.7874015748031497
        },
        {
          "duration": 0.07500000000000284,
          "durationTicks": 96,
          "midi": 76,
          "name": "E5",
          "ticks": 132288,
          "time": 103.35,
          "velocity": 0.7874015748031497
        },
        {
          "duration": 0.07500000000000284,
          "durationTicks": 96,
          "midi": 67,
          "name": "G4",
          "ticks": 132384,
          "time": 103.425,
          "velocity": 0.7874015748031497
        },
        {
          "duration": 0.07500000000000284,
          "durationTicks": 96,
          "midi": 76,
          "name": "E5",
          "ticks": 132480,
          "time": 103.5,
          "velocity": 0.7874015748031497
        },
        {
          "duration": 0.07499999999998863,
          "durationTicks": 96,
          "midi": 67,
          "name": "G4",
          "ticks": 132576,
          "time": 103.575,
          "velocity": 0.7874015748031497
        },
        {
          "duration": 0.07500000000000284,
          "durationTicks": 96,
          "midi": 76,
          "name": "E5",
          "ticks": 132672,
          "time": 103.64999999999999,
          "velocity": 0.7874015748031497
        },
        {
          "duration": 0.07500000000000284,
          "durationTicks": 96,
          "midi": 67,
          "name": "G4",
          "ticks": 132768,
          "time": 103.725,
          "velocity": 0.7874015748031497
        },
        {
          "duration": 0.07500000000000284,
          "durationTicks": 96,
          "midi": 76,
          "name": "E5",
          "ticks": 132864,
          "time": 103.8,
          "velocity": 0.7874015748031497
        },
        {
          "duration": 0.07500000000000284,
          "durationTicks": 96,
          "midi": 67,
          "name": "G4",
          "ticks": 132960,
          "time": 103.875,
          "velocity": 0.7874015748031497
        },
        {
          "duration": 0.07499999999998863,
          "durationTicks": 96,
          "midi": 76,
          "name": "E5",
          "ticks": 133056,
          "time": 103.95,
          "velocity": 0.7874015748031497
        },
        {
          "duration": 0.07500000000000284,
          "durationTicks": 96,
          "midi": 67,
          "name": "G4",
          "ticks": 133152,
          "time": 104.02499999999999,
          "velocity": 0.7874015748031497
        },
        {
          "duration": 0.07500000000000284,
          "durationTicks": 96,
          "midi": 76,
          "name": "E5",
          "ticks": 133248,
          "time": 104.1,
          "velocity": 0.7874015748031497
        },
        {
          "duration": 0.07500000000000284,
          "durationTicks": 96,
          "midi": 67,
          "name": "G4",
          "ticks": 133344,
          "time": 104.175,
          "velocity": 0.7874015748031497
        },
        {
          "duration": 0.07500000000000284,
          "durationTicks": 96,
          "midi": 76,
          "name": "E5",
          "ticks": 133440,
          "time": 104.25,
          "velocity": 0.7874015748031497
        },
        {
          "duration": 0.07499999999998863,
          "durationTicks": 96,
          "midi": 67,
          "name": "G4",
          "ticks": 133536,
          "time": 104.325,
          "velocity": 0.7874015748031497
        },
        {
          "duration": 0.07500000000000284,
          "durationTicks": 96,
          "midi": 75,
          "name": "D#5",
          "ticks": 133632,
          "time": 104.39999999999999,
          "velocity": 0.7874015748031497
        },
        {
          "duration": 0.07500000000000284,
          "durationTicks": 96,
          "midi": 67,
          "name": "G4",
          "ticks": 133728,
          "time": 104.475,
          "velocity": 0.7874015748031497
        },
        {
          "duration": 0.07500000000000284,
          "durationTicks": 96,
          "midi": 75,
          "name": "D#5",
          "ticks": 133824,
          "time": 104.55,
          "velocity": 0.7874015748031497
        },
        {
          "duration": 0.07500000000000284,
          "durationTicks": 96,
          "midi": 67,
          "name": "G4",
          "ticks": 133920,
          "time": 104.625,
          "velocity": 0.7874015748031497
        },
        {
          "duration": 0.07499999999998863,
          "durationTicks": 96,
          "midi": 75,
          "name": "D#5",
          "ticks": 134016,
          "time": 104.7,
          "velocity": 0.7874015748031497
        },
        {
          "duration": 0.07500000000000284,
          "durationTicks": 96,
          "midi": 67,
          "name": "G4",
          "ticks": 134112,
          "time": 104.77499999999999,
          "velocity": 0.7874015748031497
        },
        {
          "duration": 0.07500000000000284,
          "durationTicks": 96,
          "midi": 75,
          "name": "D#5",
          "ticks": 134208,
          "time": 104.85,
          "velocity": 0.7874015748031497
        },
        {
          "duration": 0.07500000000000284,
          "durationTicks": 96,
          "midi": 67,
          "name": "G4",
          "ticks": 134304,
          "time": 104.925,
          "velocity": 0.7874015748031497
        },
        {
          "duration": 0.07500000000000284,
          "durationTicks": 96,
          "midi": 75,
          "name": "D#5",
          "ticks": 134400,
          "time": 105,
          "velocity": 0.7874015748031497
        },
        {
          "duration": 0.07499999999998863,
          "durationTicks": 96,
          "midi": 67,
          "name": "G4",
          "ticks": 134496,
          "time": 105.075,
          "velocity": 0.7874015748031497
        },
        {
          "duration": 0.07500000000000284,
          "durationTicks": 96,
          "midi": 75,
          "name": "D#5",
          "ticks": 134592,
          "time": 105.14999999999999,
          "velocity": 0.7874015748031497
        },
        {
          "duration": 0.07500000000000284,
          "durationTicks": 96,
          "midi": 67,
          "name": "G4",
          "ticks": 134688,
          "time": 105.225,
          "velocity": 0.7874015748031497
        },
        {
          "duration": 0.07500000000000284,
          "durationTicks": 96,
          "midi": 75,
          "name": "D#5",
          "ticks": 134784,
          "time": 105.3,
          "velocity": 0.7874015748031497
        },
        {
          "duration": 0.07500000000000284,
          "durationTicks": 96,
          "midi": 67,
          "name": "G4",
          "ticks": 134880,
          "time": 105.375,
          "velocity": 0.7874015748031497
        },
        {
          "duration": 0.07499999999998863,
          "durationTicks": 96,
          "midi": 75,
          "name": "D#5",
          "ticks": 134976,
          "time": 105.45,
          "velocity": 0.7874015748031497
        },
        {
          "duration": 0.07500000000000284,
          "durationTicks": 96,
          "midi": 67,
          "name": "G4",
          "ticks": 135072,
          "time": 105.52499999999999,
          "velocity": 0.7874015748031497
        },
        {
          "duration": 0.07500000000000284,
          "durationTicks": 96,
          "midi": 77,
          "name": "F5",
          "ticks": 135168,
          "time": 105.6,
          "velocity": 0.7874015748031497
        },
        {
          "duration": 0.07500000000000284,
          "durationTicks": 96,
          "midi": 69,
          "name": "A4",
          "ticks": 135264,
          "time": 105.675,
          "velocity": 0.7874015748031497
        },
        {
          "duration": 0.07500000000000284,
          "durationTicks": 96,
          "midi": 77,
          "name": "F5",
          "ticks": 135360,
          "time": 105.75,
          "velocity": 0.7874015748031497
        },
        {
          "duration": 0.07499999999998863,
          "durationTicks": 96,
          "midi": 69,
          "name": "A4",
          "ticks": 135456,
          "time": 105.825,
          "velocity": 0.7874015748031497
        },
        {
          "duration": 0.07500000000000284,
          "durationTicks": 96,
          "midi": 77,
          "name": "F5",
          "ticks": 135552,
          "time": 105.89999999999999,
          "velocity": 0.7874015748031497
        },
        {
          "duration": 0.07500000000000284,
          "durationTicks": 96,
          "midi": 69,
          "name": "A4",
          "ticks": 135648,
          "time": 105.975,
          "velocity": 0.7874015748031497
        },
        {
          "duration": 0.07500000000000284,
          "durationTicks": 96,
          "midi": 77,
          "name": "F5",
          "ticks": 135744,
          "time": 106.05,
          "velocity": 0.7874015748031497
        },
        {
          "duration": 0.07500000000000284,
          "durationTicks": 96,
          "midi": 69,
          "name": "A4",
          "ticks": 135840,
          "time": 106.125,
          "velocity": 0.7874015748031497
        },
        {
          "duration": 0.07499999999998863,
          "durationTicks": 96,
          "midi": 77,
          "name": "F5",
          "ticks": 135936,
          "time": 106.2,
          "velocity": 0.7874015748031497
        },
        {
          "duration": 0.07500000000000284,
          "durationTicks": 96,
          "midi": 69,
          "name": "A4",
          "ticks": 136032,
          "time": 106.27499999999999,
          "velocity": 0.7874015748031497
        },
        {
          "duration": 0.07500000000000284,
          "durationTicks": 96,
          "midi": 77,
          "name": "F5",
          "ticks": 136128,
          "time": 106.35,
          "velocity": 0.7874015748031497
        },
        {
          "duration": 0.07500000000000284,
          "durationTicks": 96,
          "midi": 69,
          "name": "A4",
          "ticks": 136224,
          "time": 106.425,
          "velocity": 0.7874015748031497
        },
        {
          "duration": 0.07500000000000284,
          "durationTicks": 96,
          "midi": 77,
          "name": "F5",
          "ticks": 136320,
          "time": 106.5,
          "velocity": 0.7874015748031497
        },
        {
          "duration": 0.07499999999998863,
          "durationTicks": 96,
          "midi": 69,
          "name": "A4",
          "ticks": 136416,
          "time": 106.575,
          "velocity": 0.7874015748031497
        },
        {
          "duration": 0.07500000000000284,
          "durationTicks": 96,
          "midi": 77,
          "name": "F5",
          "ticks": 136512,
          "time": 106.64999999999999,
          "velocity": 0.7874015748031497
        },
        {
          "duration": 0.07500000000000284,
          "durationTicks": 96,
          "midi": 69,
          "name": "A4",
          "ticks": 136608,
          "time": 106.725,
          "velocity": 0.7874015748031497
        },
        {
          "duration": 0.15000000000000568,
          "durationTicks": 192,
          "midi": 65,
          "name": "F4",
          "ticks": 137088,
          "time": 107.1,
          "velocity": 0.7874015748031497
        },
        {
          "duration": 0.15000000000000568,
          "durationTicks": 192,
          "midi": 74,
          "name": "D5",
          "ticks": 137088,
          "time": 107.1,
          "velocity": 0.7874015748031497
        },
        {
          "duration": 0.29999999999999716,
          "durationTicks": 384,
          "midi": 65,
          "name": "F4",
          "ticks": 137280,
          "time": 107.25,
          "velocity": 0.7874015748031497
        },
        {
          "duration": 0.29999999999999716,
          "durationTicks": 384,
          "midi": 74,
          "name": "D5",
          "ticks": 137280,
          "time": 107.25,
          "velocity": 0.7874015748031497
        },
        {
          "duration": 0.29999999999999716,
          "durationTicks": 384,
          "midi": 65,
          "name": "F4",
          "ticks": 137664,
          "time": 107.55,
          "velocity": 0.7874015748031497
        },
        {
          "duration": 0.29999999999999716,
          "durationTicks": 384,
          "midi": 74,
          "name": "D5",
          "ticks": 137664,
          "time": 107.55,
          "velocity": 0.7874015748031497
        },
        {
          "duration": 0.15000000000000568,
          "durationTicks": 192,
          "midi": 65,
          "name": "F4",
          "ticks": 138048,
          "time": 107.85,
          "velocity": 0.7874015748031497
        },
        {
          "duration": 0.15000000000000568,
          "durationTicks": 192,
          "midi": 74,
          "name": "D5",
          "ticks": 138048,
          "time": 107.85,
          "velocity": 0.7874015748031497
        },
        {
          "duration": 0.29999999999999716,
          "durationTicks": 384,
          "midi": 63,
          "name": "D#4",
          "ticks": 138240,
          "time": 108,
          "velocity": 0.7874015748031497
        },
        {
          "duration": 0.29999999999999716,
          "durationTicks": 384,
          "midi": 72,
          "name": "C5",
          "ticks": 138240,
          "time": 108,
          "velocity": 0.7874015748031497
        },
        {
          "duration": 0.29999999999999716,
          "durationTicks": 384,
          "midi": 67,
          "name": "G4",
          "ticks": 138624,
          "time": 108.3,
          "velocity": 0.7874015748031497
        },
        {
          "duration": 0.29999999999999716,
          "durationTicks": 384,
          "midi": 75,
          "name": "D#5",
          "ticks": 138624,
          "time": 108.3,
          "velocity": 0.7874015748031497
        },
        {
          "duration": 0.29999999999999716,
          "durationTicks": 384,
          "midi": 65,
          "name": "F4",
          "ticks": 139008,
          "time": 108.6,
          "velocity": 0.7874015748031497
        },
        {
          "duration": 0.29999999999999716,
          "durationTicks": 384,
          "midi": 74,
          "name": "D5",
          "ticks": 139008,
          "time": 108.6,
          "velocity": 0.7874015748031497
        },
        {
          "duration": 0.0015625000000056843,
          "durationTicks": 2,
          "midi": 62,
          "name": "D4",
          "ticks": 185856,
          "time": 145.2,
          "velocity": 0.7874015748031497
        },
        {
          "duration": 0.0015625000000056843,
          "durationTicks": 2,
          "midi": 65,
          "name": "F4",
          "ticks": 186048,
          "time": 145.35,
          "velocity": 0.7874015748031497
        },
        {
          "duration": 0.0015624999999772626,
          "durationTicks": 2,
          "midi": 70,
          "name": "A#4",
          "ticks": 186240,
          "time": 145.5,
          "velocity": 0.7874015748031497
        },
        {
          "duration": 0.29999999999998295,
          "durationTicks": 384,
          "midi": 74,
          "name": "D5",
          "ticks": 186432,
          "time": 145.65,
          "velocity": 0.7874015748031497
        },
        {
          "duration": 0.29999999999998295,
          "durationTicks": 384,
          "midi": 70,
          "name": "A#4",
          "ticks": 186432,
          "time": 145.65,
          "velocity": 0.7874015748031497
        },
        {
          "duration": 0.30000000000001137,
          "durationTicks": 384,
          "midi": 74,
          "name": "D5",
          "ticks": 186816,
          "time": 145.95,
          "velocity": 0.7874015748031497
        },
        {
          "duration": 0.30000000000001137,
          "durationTicks": 384,
          "midi": 70,
          "name": "A#4",
          "ticks": 186816,
          "time": 145.95,
          "velocity": 0.7874015748031497
        },
        {
          "duration": 0.15000000000000568,
          "durationTicks": 192,
          "midi": 70,
          "name": "A#4",
          "ticks": 187200,
          "time": 146.25,
          "velocity": 0.7874015748031497
        },
        {
          "duration": 0.15000000000000568,
          "durationTicks": 192,
          "midi": 62,
          "name": "D4",
          "ticks": 187200,
          "time": 146.25,
          "velocity": 0.7874015748031497
        },
        {
          "duration": 0.29999999999998295,
          "durationTicks": 384,
          "midi": 72,
          "name": "C5",
          "ticks": 187392,
          "time": 146.4,
          "velocity": 0.7874015748031497
        },
        {
          "duration": 0.29999999999998295,
          "durationTicks": 384,
          "midi": 63,
          "name": "D#4",
          "ticks": 187392,
          "time": 146.4,
          "velocity": 0.7874015748031497
        },
        {
          "duration": 0.30000000000001137,
          "durationTicks": 384,
          "midi": 75,
          "name": "D#5",
          "ticks": 187776,
          "time": 146.7,
          "velocity": 0.7874015748031497
        },
        {
          "duration": 0.30000000000001137,
          "durationTicks": 384,
          "midi": 67,
          "name": "G4",
          "ticks": 187776,
          "time": 146.7,
          "velocity": 0.7874015748031497
        },
        {
          "duration": 0.29999999999998295,
          "durationTicks": 384,
          "midi": 74,
          "name": "D5",
          "ticks": 188160,
          "time": 147,
          "velocity": 0.7874015748031497
        },
        {
          "duration": 0.29999999999998295,
          "durationTicks": 384,
          "midi": 65,
          "name": "F4",
          "ticks": 188160,
          "time": 147,
          "velocity": 0.7874015748031497
        },
        {
          "duration": 0.30000000000001137,
          "durationTicks": 384,
          "midi": 70,
          "name": "A#4",
          "ticks": 188544,
          "time": 147.29999999999998,
          "velocity": 0.7874015748031497
        },
        {
          "duration": 0.30000000000001137,
          "durationTicks": 384,
          "midi": 62,
          "name": "D4",
          "ticks": 188544,
          "time": 147.29999999999998,
          "velocity": 0.7874015748031497
        },
        {
          "duration": 0.0015625000000056843,
          "durationTicks": 2,
          "midi": 58,
          "name": "A#3",
          "ticks": 188928,
          "time": 147.6,
          "velocity": 0.7874015748031497
        },
        {
          "duration": 0.0015624999999772626,
          "durationTicks": 2,
          "midi": 62,
          "name": "D4",
          "ticks": 189120,
          "time": 147.75,
          "velocity": 0.7874015748031497
        },
        {
          "duration": 0.0015624999999772626,
          "durationTicks": 2,
          "midi": 65,
          "name": "F4",
          "ticks": 189312,
          "time": 147.9,
          "velocity": 0.7874015748031497
        },
        {
          "duration": 0.30000000000001137,
          "durationTicks": 384,
          "midi": 70,
          "name": "A#4",
          "ticks": 189504,
          "time": 148.04999999999998,
          "velocity": 0.7874015748031497
        },
        {
          "duration": 0.30000000000001137,
          "durationTicks": 384,
          "midi": 62,
          "name": "D4",
          "ticks": 189504,
          "time": 148.04999999999998,
          "velocity": 0.7874015748031497
        },
        {
          "duration": 0.30000000000001137,
          "durationTicks": 384,
          "midi": 70,
          "name": "A#4",
          "ticks": 189888,
          "time": 148.35,
          "velocity": 0.7874015748031497
        },
        {
          "duration": 0.30000000000001137,
          "durationTicks": 384,
          "midi": 62,
          "name": "D4",
          "ticks": 189888,
          "time": 148.35,
          "velocity": 0.7874015748031497
        },
        {
          "duration": 0.0015624999999772626,
          "durationTicks": 2,
          "midi": 60,
          "name": "C4",
          "ticks": 190272,
          "time": 148.65,
          "velocity": 0.7874015748031497
        },
        {
          "duration": 0.30000000000001137,
          "durationTicks": 384,
          "midi": 69,
          "name": "A4",
          "ticks": 190464,
          "time": 148.79999999999998,
          "velocity": 0.7874015748031497
        },
        {
          "duration": 0.30000000000001137,
          "durationTicks": 384,
          "midi": 65,
          "name": "F4",
          "ticks": 190464,
          "time": 148.79999999999998,
          "velocity": 0.7874015748031497
        },
        {
          "duration": 0.30000000000001137,
          "durationTicks": 384,
          "midi": 72,
          "name": "C5",
          "ticks": 190848,
          "time": 149.1,
          "velocity": 0.7874015748031497
        },
        {
          "duration": 0.30000000000001137,
          "durationTicks": 384,
          "midi": 63,
          "name": "D#4",
          "ticks": 190848,
          "time": 149.1,
          "velocity": 0.7874015748031497
        },
        {
          "duration": 0.29999999999998295,
          "durationTicks": 384,
          "midi": 70,
          "name": "A#4",
          "ticks": 191232,
          "time": 149.4,
          "velocity": 0.7874015748031497
        },
        {
          "duration": 0.29999999999998295,
          "durationTicks": 384,
          "midi": 62,
          "name": "D4",
          "ticks": 191232,
          "time": 149.4,
          "velocity": 0.7874015748031497
        },
        {
          "duration": 0.0015624999999772626,
          "durationTicks": 2,
          "midi": 64,
          "name": "E4",
          "ticks": 192000,
          "time": 150,
          "velocity": 0.7874015748031497
        },
        {
          "duration": 0.0015624999999772626,
          "durationTicks": 2,
          "midi": 67,
          "name": "G4",
          "ticks": 192192,
          "time": 150.15,
          "velocity": 0.7874015748031497
        },
        {
          "duration": 0.0015625000000056843,
          "durationTicks": 2,
          "midi": 72,
          "name": "C5",
          "ticks": 192384,
          "time": 150.29999999999998,
          "velocity": 0.7874015748031497
        },
        {
          "duration": 0.30000000000001137,
          "durationTicks": 384,
          "midi": 76,
          "name": "E5",
          "ticks": 192576,
          "time": 150.45,
          "velocity": 0.7874015748031497
        },
        {
          "duration": 0.30000000000001137,
          "durationTicks": 384,
          "midi": 67,
          "name": "G4",
          "ticks": 192576,
          "time": 150.45,
          "velocity": 0.7874015748031497
        },
        {
          "duration": 0.29999999999998295,
          "durationTicks": 384,
          "midi": 76,
          "name": "E5",
          "ticks": 192960,
          "time": 150.75,
          "velocity": 0.7874015748031497
        },
        {
          "duration": 0.29999999999998295,
          "durationTicks": 384,
          "midi": 67,
          "name": "G4",
          "ticks": 192960,
          "time": 150.75,
          "velocity": 0.7874015748031497
        },
        {
          "duration": 0.0015625000000056843,
          "durationTicks": 2,
          "midi": 67,
          "name": "G4",
          "ticks": 193344,
          "time": 151.04999999999998,
          "velocity": 0.7874015748031497
        },
        {
          "duration": 0.30000000000001137,
          "durationTicks": 384,
          "midi": 74,
          "name": "D5",
          "ticks": 193536,
          "time": 151.2,
          "velocity": 0.7874015748031497
        },
        {
          "duration": 0.30000000000001137,
          "durationTicks": 384,
          "midi": 65,
          "name": "F4",
          "ticks": 193536,
          "time": 151.2,
          "velocity": 0.7874015748031497
        },
        {
          "duration": 0.29999999999998295,
          "durationTicks": 384,
          "midi": 77,
          "name": "F5",
          "ticks": 193920,
          "time": 151.5,
          "velocity": 0.7874015748031497
        },
        {
          "duration": 0.29999999999998295,
          "durationTicks": 384,
          "midi": 69,
          "name": "A4",
          "ticks": 193920,
          "time": 151.5,
          "velocity": 0.7874015748031497
        },
        {
          "duration": 0.30000000000001137,
          "durationTicks": 384,
          "midi": 76,
          "name": "E5",
          "ticks": 194304,
          "time": 151.79999999999998,
          "velocity": 0.7874015748031497
        },
        {
          "duration": 0.30000000000001137,
          "durationTicks": 384,
          "midi": 67,
          "name": "G4",
          "ticks": 194304,
          "time": 151.79999999999998,
          "velocity": 0.7874015748031497
        },
        {
          "duration": 19.80000000000001,
          "durationTicks": 25344,
          "midi": 72,
          "name": "C5",
          "ticks": 194688,
          "time": 152.1,
          "velocity": 0.7874015748031497
        },
        {
          "duration": 19.501562500000006,
          "durationTicks": 24962,
          "midi": 64,
          "name": "E4",
          "ticks": 194688,
          "time": 152.1,
          "velocity": 0.7874015748031497
        },
        {
          "duration": 1.1999999999999886,
          "durationTicks": 1536,
          "midi": 64,
          "name": "E4",
          "ticks": 219648,
          "time": 171.6,
          "velocity": 0.7874015748031497
        },
        {
          "duration": 0.15000000000000568,
          "durationTicks": 192,
          "midi": 67,
          "name": "G4",
          "ticks": 219648,
          "time": 171.6,
          "velocity": 1
        },
        {
          "duration": 0.30156250000001705,
          "durationTicks": 386,
          "midi": 72,
          "name": "C5",
          "ticks": 219648,
          "time": 171.6,
          "velocity": 1
        },
        {
          "duration": 0.15000000000000568,
          "durationTicks": 192,
          "midi": 76,
          "name": "E5",
          "ticks": 219648,
          "time": 171.6,
          "velocity": 0.7874015748031497
        },
        {
          "duration": 0.0015625000000056843,
          "durationTicks": 2,
          "midi": 67,
          "name": "G4",
          "ticks": 219840,
          "time": 171.75,
          "velocity": 0.7874015748031497
        },
        {
          "duration": 0.15000000000000568,
          "durationTicks": 192,
          "midi": 79,
          "name": "G5",
          "ticks": 219840,
          "time": 171.75,
          "velocity": 0.7874015748031497
        },
        {
          "duration": 2.0999999999999943,
          "durationTicks": 2688,
          "midi": 72,
          "name": "C5",
          "ticks": 220032,
          "time": 171.9,
          "velocity": 0.7874015748031497
        },
        {
          "duration": 0.14999999999997726,
          "durationTicks": 192,
          "midi": 84,
          "name": "C6",
          "ticks": 220032,
          "time": 171.9,
          "velocity": 0.7874015748031497
        },
        {
          "duration": 0.30000000000001137,
          "durationTicks": 384,
          "midi": 76,
          "name": "E5",
          "ticks": 220224,
          "time": 172.04999999999998,
          "velocity": 0.7874015748031497
        },
        {
          "duration": 0.30000000000001137,
          "durationTicks": 384,
          "midi": 67,
          "name": "G4",
          "ticks": 220224,
          "time": 172.04999999999998,
          "velocity": 0.7874015748031497
        },
        {
          "duration": 0.07500000000001705,
          "durationTicks": 96,
          "midi": 86,
          "name": "D6",
          "ticks": 220224,
          "time": 172.04999999999998,
          "velocity": 0.7874015748031497
        },
        {
          "duration": 0.22499999999999432,
          "durationTicks": 288,
          "midi": 88,
          "name": "E6",
          "ticks": 220320,
          "time": 172.125,
          "velocity": 0.7874015748031497
        },
        {
          "duration": 0.30000000000001137,
          "durationTicks": 384,
          "midi": 76,
          "name": "E5",
          "ticks": 220608,
          "time": 172.35,
          "velocity": 0.7874015748031497
        },
        {
          "duration": 0.30000000000001137,
          "durationTicks": 384,
          "midi": 67,
          "name": "G4",
          "ticks": 220608,
          "time": 172.35,
          "velocity": 0.7874015748031497
        },
        {
          "duration": 0.07499999999998863,
          "durationTicks": 96,
          "midi": 86,
          "name": "D6",
          "ticks": 220608,
          "time": 172.35,
          "velocity": 0.7874015748031497
        },
        {
          "duration": 0.22500000000002274,
          "durationTicks": 288,
          "midi": 88,
          "name": "E6",
          "ticks": 220704,
          "time": 172.42499999999998,
          "velocity": 0.7874015748031497
        },
        {
          "duration": 0.14999999999997726,
          "durationTicks": 192,
          "midi": 67,
          "name": "G4",
          "ticks": 220992,
          "time": 172.65,
          "velocity": 0.7874015748031497
        },
        {
          "duration": 1.3499999999999943,
          "durationTicks": 1728,
          "midi": 64,
          "name": "E4",
          "ticks": 220992,
          "time": 172.65,
          "velocity": 0.7874015748031497
        },
        {
          "duration": 0.14999999999997726,
          "durationTicks": 192,
          "midi": 79,
          "name": "G5",
          "ticks": 220992,
          "time": 172.65,
          "velocity": 0.7874015748031497
        },
        {
          "duration": 0.30000000000001137,
          "durationTicks": 384,
          "midi": 74,
          "name": "D5",
          "ticks": 221184,
          "time": 172.79999999999998,
          "velocity": 0.7874015748031497
        },
        {
          "duration": 0.30000000000001137,
          "durationTicks": 384,
          "midi": 65,
          "name": "F4",
          "ticks": 221184,
          "time": 172.79999999999998,
          "velocity": 0.7874015748031497
        },
        {
          "duration": 0.30000000000001137,
          "durationTicks": 384,
          "midi": 86,
          "name": "D6",
          "ticks": 221184,
          "time": 172.79999999999998,
          "velocity": 0.7874015748031497
        },
        {
          "duration": 0.30000000000001137,
          "durationTicks": 384,
          "midi": 77,
          "name": "F5",
          "ticks": 221568,
          "time": 173.1,
          "velocity": 0.7874015748031497
        },
        {
          "duration": 0.30000000000001137,
          "durationTicks": 384,
          "midi": 69,
          "name": "A4",
          "ticks": 221568,
          "time": 173.1,
          "velocity": 0.7874015748031497
        },
        {
          "duration": 0.30000000000001137,
          "durationTicks": 384,
          "midi": 89,
          "name": "F6",
          "ticks": 221568,
          "time": 173.1,
          "velocity": 0.7874015748031497
        },
        {
          "duration": 0.29999999999998295,
          "durationTicks": 384,
          "midi": 76,
          "name": "E5",
          "ticks": 221952,
          "time": 173.4,
          "velocity": 0.7874015748031497
        },
        {
          "duration": 0.29999999999998295,
          "durationTicks": 384,
          "midi": 67,
          "name": "G4",
          "ticks": 221952,
          "time": 173.4,
          "velocity": 0.7874015748031497
        },
        {
          "duration": 0.29999999999998295,
          "durationTicks": 384,
          "midi": 88,
          "name": "E6",
          "ticks": 221952,
          "time": 173.4,
          "velocity": 0.7874015748031497
        },
        {
          "duration": 3,
          "durationTicks": 3840,
          "midi": 72,
          "name": "C5",
          "ticks": 222336,
          "time": 173.7,
          "velocity": 0.7874015748031497
        },
        {
          "duration": 2.7015625000000227,
          "durationTicks": 3458,
          "midi": 64,
          "name": "E4",
          "ticks": 222336,
          "time": 173.7,
          "velocity": 0.7874015748031497
        },
        {
          "duration": 0.30000000000001137,
          "durationTicks": 384,
          "midi": 84,
          "name": "C6",
          "ticks": 222336,
          "time": 173.7,
          "velocity": 0.7874015748031497
        },
        {
          "duration": 1.1999999999999886,
          "durationTicks": 1536,
          "midi": 64,
          "name": "E4",
          "ticks": 225792,
          "time": 176.4,
          "velocity": 0.7874015748031497
        },
        {
          "duration": 0.0015625000000056843,
          "durationTicks": 2,
          "midi": 76,
          "name": "E5",
          "ticks": 225792,
          "time": 176.4,
          "velocity": 0.7874015748031497
        },
        {
          "duration": 0.14999999999997726,
          "durationTicks": 192,
          "midi": 67,
          "name": "G4",
          "ticks": 225792,
          "time": 176.4,
          "velocity": 1
        },
        {
          "duration": 0.30156249999998863,
          "durationTicks": 386,
          "midi": 72,
          "name": "C5",
          "ticks": 225792,
          "time": 176.4,
          "velocity": 1
        },
        {
          "duration": 0.001562500000034106,
          "durationTicks": 2,
          "midi": 67,
          "name": "G4",
          "ticks": 225984,
          "time": 176.54999999999998,
          "velocity": 0.7874015748031497
        },
        {
          "duration": 0.15000000000000568,
          "durationTicks": 192,
          "midi": 79,
          "name": "G5",
          "ticks": 225984,
          "time": 176.54999999999998,
          "velocity": 0.7874015748031497
        },
        {
          "duration": 2.0999999999999943,
          "durationTicks": 2688,
          "midi": 72,
          "name": "C5",
          "ticks": 226176,
          "time": 176.7,
          "velocity": 0.7874015748031497
        },
        {
          "duration": 0.15000000000000568,
          "durationTicks": 192,
          "midi": 84,
          "name": "C6",
          "ticks": 226176,
          "time": 176.7,
          "velocity": 0.7874015748031497
        },
        {
          "duration": 0.30000000000001137,
          "durationTicks": 384,
          "midi": 76,
          "name": "E5",
          "ticks": 226368,
          "time": 176.85,
          "velocity": 0.7874015748031497
        },
        {
          "duration": 0.30000000000001137,
          "durationTicks": 384,
          "midi": 67,
          "name": "G4",
          "ticks": 226368,
          "time": 176.85,
          "velocity": 0.7874015748031497
        },
        {
          "duration": 0.07499999999998863,
          "durationTicks": 96,
          "midi": 86,
          "name": "D6",
          "ticks": 226368,
          "time": 176.85,
          "velocity": 0.7874015748031497
        },
        {
          "duration": 0.22500000000002274,
          "durationTicks": 288,
          "midi": 88,
          "name": "E6",
          "ticks": 226464,
          "time": 176.92499999999998,
          "velocity": 0.7874015748031497
        },
        {
          "duration": 0.29999999999998295,
          "durationTicks": 384,
          "midi": 76,
          "name": "E5",
          "ticks": 226752,
          "time": 177.15,
          "velocity": 0.7874015748031497
        },
        {
          "duration": 0.29999999999998295,
          "durationTicks": 384,
          "midi": 67,
          "name": "G4",
          "ticks": 226752,
          "time": 177.15,
          "velocity": 0.7874015748031497
        },
        {
          "duration": 0.07499999999998863,
          "durationTicks": 96,
          "midi": 86,
          "name": "D6",
          "ticks": 226752,
          "time": 177.15,
          "velocity": 0.7874015748031497
        },
        {
          "duration": 0.22499999999999432,
          "durationTicks": 288,
          "midi": 88,
          "name": "E6",
          "ticks": 226848,
          "time": 177.225,
          "velocity": 0.7874015748031497
        },
        {
          "duration": 0.15000000000000568,
          "durationTicks": 192,
          "midi": 67,
          "name": "G4",
          "ticks": 227136,
          "time": 177.45,
          "velocity": 0.7874015748031497
        },
        {
          "duration": 1.3499999999999943,
          "durationTicks": 1728,
          "midi": 64,
          "name": "E4",
          "ticks": 227136,
          "time": 177.45,
          "velocity": 0.7874015748031497
        },
        {
          "duration": 0.15000000000000568,
          "durationTicks": 192,
          "midi": 79,
          "name": "G5",
          "ticks": 227136,
          "time": 177.45,
          "velocity": 0.7874015748031497
        },
        {
          "duration": 0.30000000000001137,
          "durationTicks": 384,
          "midi": 74,
          "name": "D5",
          "ticks": 227328,
          "time": 177.6,
          "velocity": 0.7874015748031497
        },
        {
          "duration": 0.30000000000001137,
          "durationTicks": 384,
          "midi": 65,
          "name": "F4",
          "ticks": 227328,
          "time": 177.6,
          "velocity": 0.7874015748031497
        },
        {
          "duration": 0.30000000000001137,
          "durationTicks": 384,
          "midi": 86,
          "name": "D6",
          "ticks": 227328,
          "time": 177.6,
          "velocity": 0.7874015748031497
        },
        {
          "duration": 0.29999999999998295,
          "durationTicks": 384,
          "midi": 77,
          "name": "F5",
          "ticks": 227712,
          "time": 177.9,
          "velocity": 0.7874015748031497
        },
        {
          "duration": 0.29999999999998295,
          "durationTicks": 384,
          "midi": 69,
          "name": "A4",
          "ticks": 227712,
          "time": 177.9,
          "velocity": 0.7874015748031497
        },
        {
          "duration": 0.29999999999998295,
          "durationTicks": 384,
          "midi": 89,
          "name": "F6",
          "ticks": 227712,
          "time": 177.9,
          "velocity": 0.7874015748031497
        },
        {
          "duration": 0.30000000000001137,
          "durationTicks": 384,
          "midi": 76,
          "name": "E5",
          "ticks": 228096,
          "time": 178.2,
          "velocity": 0.7874015748031497
        },
        {
          "duration": 0.30000000000001137,
          "durationTicks": 384,
          "midi": 67,
          "name": "G4",
          "ticks": 228096,
          "time": 178.2,
          "velocity": 0.7874015748031497
        },
        {
          "duration": 0.30000000000001137,
          "durationTicks": 384,
          "midi": 88,
          "name": "E6",
          "ticks": 228096,
          "time": 178.2,
          "velocity": 0.7874015748031497
        },
        {
          "duration": 7.801562500000017,
          "durationTicks": 9986,
          "midi": 72,
          "name": "C5",
          "ticks": 228480,
          "time": 178.5,
          "velocity": 0.7874015748031497
        },
        {
          "duration": 7.501562500000006,
          "durationTicks": 9602,
          "midi": 64,
          "name": "E4",
          "ticks": 228480,
          "time": 178.5,
          "velocity": 0.7874015748031497
        },
        {
          "duration": 0.29999999999998295,
          "durationTicks": 384,
          "midi": 84,
          "name": "C6",
          "ticks": 228480,
          "time": 178.5,
          "velocity": 0.7874015748031497
        },
        {
          "duration": 1.1999999999999886,
          "durationTicks": 1536,
          "midi": 64,
          "name": "E4",
          "ticks": 238080,
          "time": 186,
          "velocity": 0.7874015748031497
        },
        {
          "duration": 0.0015625000000056843,
          "durationTicks": 2,
          "midi": 76,
          "name": "E5",
          "ticks": 238080,
          "time": 186,
          "velocity": 0.7874015748031497
        },
        {
          "duration": 0.0015625000000056843,
          "durationTicks": 2,
          "midi": 67,
          "name": "G4",
          "ticks": 238272,
          "time": 186.15,
          "velocity": 0.7874015748031497
        },
        {
          "duration": 0.0015625000000056843,
          "durationTicks": 2,
          "midi": 79,
          "name": "G5",
          "ticks": 238272,
          "time": 186.15,
          "velocity": 0.7874015748031497
        },
        {
          "duration": 2.1000000000000227,
          "durationTicks": 2688,
          "midi": 72,
          "name": "C5",
          "ticks": 238464,
          "time": 186.29999999999998,
          "velocity": 0.7874015748031497
        },
        {
          "duration": 0.001562500000034106,
          "durationTicks": 2,
          "midi": 84,
          "name": "C6",
          "ticks": 238464,
          "time": 186.29999999999998,
          "velocity": 0.7874015748031497
        },
        {
          "duration": 0.30000000000001137,
          "durationTicks": 384,
          "midi": 76,
          "name": "E5",
          "ticks": 238656,
          "time": 186.45,
          "velocity": 0.7874015748031497
        },
        {
          "duration": 0.30000000000001137,
          "durationTicks": 384,
          "midi": 67,
          "name": "G4",
          "ticks": 238656,
          "time": 186.45,
          "velocity": 1
        },
        {
          "duration": 0.07500000000001705,
          "durationTicks": 96,
          "midi": 86,
          "name": "D6",
          "ticks": 238656,
          "time": 186.45,
          "velocity": 0.7874015748031497
        },
        {
          "duration": 0.07500000000001705,
          "durationTicks": 96,
          "midi": 88,
          "name": "E6",
          "ticks": 238656,
          "time": 186.45,
          "velocity": 0.7874015748031497
        },
        {
          "duration": 0.22499999999999432,
          "durationTicks": 288,
          "midi": 88,
          "name": "E6",
          "ticks": 238752,
          "time": 186.525,
          "velocity": 0.7874015748031497
        },
        {
          "duration": 0.29999999999998295,
          "durationTicks": 384,
          "midi": 76,
          "name": "E5",
          "ticks": 239040,
          "time": 186.75,
          "velocity": 0.7874015748031497
        },
        {
          "duration": 0.29999999999998295,
          "durationTicks": 384,
          "midi": 67,
          "name": "G4",
          "ticks": 239040,
          "time": 186.75,
          "velocity": 1
        },
        {
          "duration": 0.07499999999998863,
          "durationTicks": 96,
          "midi": 86,
          "name": "D6",
          "ticks": 239040,
          "time": 186.75,
          "velocity": 0.7874015748031497
        },
        {
          "duration": 0.07499999999998863,
          "durationTicks": 96,
          "midi": 88,
          "name": "E6",
          "ticks": 239040,
          "time": 186.75,
          "velocity": 0.7874015748031497
        },
        {
          "duration": 0.22499999999999432,
          "durationTicks": 288,
          "midi": 88,
          "name": "E6",
          "ticks": 239136,
          "time": 186.825,
          "velocity": 0.7874015748031497
        },
        {
          "duration": 0.15000000000000568,
          "durationTicks": 192,
          "midi": 67,
          "name": "G4",
          "ticks": 239424,
          "time": 187.04999999999998,
          "velocity": 0.7874015748031497
        },
        {
          "duration": 1.3500000000000227,
          "durationTicks": 1728,
          "midi": 64,
          "name": "E4",
          "ticks": 239424,
          "time": 187.04999999999998,
          "velocity": 1
        },
        {
          "duration": 0.001562500000034106,
          "durationTicks": 2,
          "midi": 79,
          "name": "G5",
          "ticks": 239424,
          "time": 187.04999999999998,
          "velocity": 0.7874015748031497
        },
        {
          "duration": 0.30000000000001137,
          "durationTicks": 384,
          "midi": 74,
          "name": "D5",
          "ticks": 239616,
          "time": 187.2,
          "velocity": 0.7874015748031497
        },
        {
          "duration": 0.30000000000001137,
          "durationTicks": 384,
          "midi": 65,
          "name": "F4",
          "ticks": 239616,
          "time": 187.2,
          "velocity": 1
        },
        {
          "duration": 0.0015625000000056843,
          "durationTicks": 2,
          "midi": 86,
          "name": "D6",
          "ticks": 239616,
          "time": 187.2,
          "velocity": 0.7874015748031497
        },
        {
          "duration": 0.29999999999998295,
          "durationTicks": 384,
          "midi": 77,
          "name": "F5",
          "ticks": 240000,
          "time": 187.5,
          "velocity": 0.7874015748031497
        },
        {
          "duration": 0.29999999999998295,
          "durationTicks": 384,
          "midi": 69,
          "name": "A4",
          "ticks": 240000,
          "time": 187.5,
          "velocity": 1
        },
        {
          "duration": 0.0015625000000056843,
          "durationTicks": 2,
          "midi": 89,
          "name": "F6",
          "ticks": 240000,
          "time": 187.5,
          "velocity": 0.7874015748031497
        },
        {
          "duration": 0.30000000000001137,
          "durationTicks": 384,
          "midi": 76,
          "name": "E5",
          "ticks": 240384,
          "time": 187.79999999999998,
          "velocity": 0.7874015748031497
        },
        {
          "duration": 0.30000000000001137,
          "durationTicks": 384,
          "midi": 67,
          "name": "G4",
          "ticks": 240384,
          "time": 187.79999999999998,
          "velocity": 1
        },
        {
          "duration": 0.001562500000034106,
          "durationTicks": 2,
          "midi": 88,
          "name": "E6",
          "ticks": 240384,
          "time": 187.79999999999998,
          "velocity": 0.7874015748031497
        },
        {
          "duration": 0.30156250000001705,
          "durationTicks": 386,
          "midi": 72,
          "name": "C5",
          "ticks": 240768,
          "time": 188.1,
          "velocity": 0.7874015748031497
        },
        {
          "duration": 0.45156250000002274,
          "durationTicks": 578,
          "midi": 64,
          "name": "E4",
          "ticks": 240768,
          "time": 188.1,
          "velocity": 1
        },
        {
          "duration": 0.0015625000000056843,
          "durationTicks": 2,
          "midi": 84,
          "name": "C6",
          "ticks": 240768,
          "time": 188.1,
          "velocity": 0.7874015748031497
        },
        {
          "duration": 0.0015625000000056843,
          "durationTicks": 2,
          "midi": 60,
          "name": "C4",
          "ticks": 241152,
          "time": 188.4,
          "velocity": 0.7874015748031497
        },
        {
          "duration": 0.75,
          "durationTicks": 960,
          "midi": 72,
          "name": "C5",
          "ticks": 241152,
          "time": 188.4,
          "velocity": 0.7874015748031497
        },
        {
          "duration": 0.6000000000000227,
          "durationTicks": 768,
          "midi": 64,
          "name": "E4",
          "ticks": 241344,
          "time": 188.54999999999998,
          "velocity": 0.7874015748031497
        },
        {
          "duration": 0.001562500000034106,
          "durationTicks": 2,
          "midi": 76,
          "name": "E5",
          "ticks": 241344,
          "time": 188.54999999999998,
          "velocity": 0.7874015748031497
        },
        {
          "duration": 0.0015625000000056843,
          "durationTicks": 2,
          "midi": 67,
          "name": "G4",
          "ticks": 241536,
          "time": 188.7,
          "velocity": 0.7874015748031497
        },
        {
          "duration": 0.0015625000000056843,
          "durationTicks": 2,
          "midi": 79,
          "name": "G5",
          "ticks": 241536,
          "time": 188.7,
          "velocity": 0.7874015748031497
        },
        {
          "duration": 0.5999999999999943,
          "durationTicks": 768,
          "midi": 72,
          "name": "C5",
          "ticks": 241728,
          "time": 188.85,
          "velocity": 0.7874015748031497
        },
        {
          "duration": 0.5999999999999943,
          "durationTicks": 768,
          "midi": 64,
          "name": "E4",
          "ticks": 241728,
          "time": 188.85,
          "velocity": 1
        },
        {
          "duration": 0.0015625000000056843,
          "durationTicks": 2,
          "midi": 84,
          "name": "C6",
          "ticks": 241728,
          "time": 188.85,
          "velocity": 0.7874015748031497
        },
        {
          "duration": 1.1999999999999886,
          "durationTicks": 1536,
          "midi": 72,
          "name": "C5",
          "ticks": 242112,
          "time": 189.15,
          "velocity": 0.7874015748031497
        },
        {
          "duration": 1.1999999999999886,
          "durationTicks": 1536,
          "midi": 64,
          "name": "E4",
          "ticks": 242112,
          "time": 189.15,
          "velocity": 1
        },
        {
          "duration": 0.0015625000000056843,
          "durationTicks": 2,
          "midi": 84,
          "name": "C6",
          "ticks": 242112,
          "time": 189.15,
          "velocity": 0.7874015748031497
        },
        {
          "duration": 0.0015625000000056843,
          "durationTicks": 2,
          "midi": 67,
          "name": "G4",
          "ticks": 242496,
          "time": 189.45,
          "velocity": 0.7874015748031497
        },
        {
          "duration": 0.0015625000000056843,
          "durationTicks": 2,
          "midi": 79,
          "name": "G5",
          "ticks": 242496,
          "time": 189.45,
          "velocity": 0.7874015748031497
        },
        {
          "duration": 0.30000000000001137,
          "durationTicks": 384,
          "midi": 71,
          "name": "B4",
          "ticks": 242688,
          "time": 189.6,
          "velocity": 0.7874015748031497
        },
        {
          "duration": 0.30000000000001137,
          "durationTicks": 384,
          "midi": 62,
          "name": "D4",
          "ticks": 242688,
          "time": 189.6,
          "velocity": 1
        },
        {
          "duration": 0.0015625000000056843,
          "durationTicks": 2,
          "midi": 83,
          "name": "B5",
          "ticks": 242688,
          "time": 189.6,
          "velocity": 0.7874015748031497
        },
        {
          "duration": 0.29999999999998295,
          "durationTicks": 384,
          "midi": 74,
          "name": "D5",
          "ticks": 243072,
          "time": 189.9,
          "velocity": 0.7874015748031497
        },
        {
          "duration": 0.29999999999998295,
          "durationTicks": 384,
          "midi": 65,
          "name": "F4",
          "ticks": 243072,
          "time": 189.9,
          "velocity": 1
        },
        {
          "duration": 0.0015625000000056843,
          "durationTicks": 2,
          "midi": 86,
          "name": "D6",
          "ticks": 243072,
          "time": 189.9,
          "velocity": 0.7874015748031497
        },
        {
          "duration": 0.6250000000000284,
          "durationTicks": 800,
          "midi": 72,
          "name": "C5",
          "ticks": 243456,
          "time": 190.2,
          "velocity": 0.7874015748031497
        },
        {
          "duration": 0.0015625000000056843,
          "durationTicks": 2,
          "midi": 84,
          "name": "C6",
          "ticks": 243456,
          "time": 190.2,
          "velocity": 0.7874015748031497
        },
        {
          "duration": 0.29999999999998295,
          "durationTicks": 384,
          "midi": 84,
          "name": "C6",
          "ticks": 243840,
          "time": 190.5,
          "velocity": 1
        }
      ],
      "endOfTrackTicks": 245760
    },
    {
      "channel": 13,
      "controlChanges": {},
      "pitchBends": [],
      "instrument": {
        "family": "brass",
        "number": 56,
        "name": "trumpet"
      },
      "name": "",
      "notes": [
        {
          "duration": 0.3000000000000007,
          "durationTicks": 384,
          "midi": 86,
          "name": "D6",
          "ticks": 38016,
          "time": 29.7,
          "velocity": 0.7874015748031497
        },
        {
          "duration": 0.29999999999999716,
          "durationTicks": 384,
          "midi": 82,
          "name": "A#5",
          "ticks": 38400,
          "time": 30,
          "velocity": 0.7874015748031497
        }
      ]
    },
    {
      "channel": 13,
      "controlChanges": {},
      "pitchBends": [],
      "instrument": {
        "family": "organ",
        "number": 20,
        "name": "reed organ"
      },
      "name": "",
      "notes": [
        {
          "duration": 1.1999999999999886,
          "durationTicks": 1536,
          "midi": 77,
          "name": "F5",
          "ticks": 139776,
          "time": 109.2,
          "velocity": 0.7874015748031497
        },
        {
          "duration": 1.1999999999999886,
          "durationTicks": 1536,
          "midi": 69,
          "name": "A4",
          "ticks": 139776,
          "time": 109.2,
          "velocity": 0.7874015748031497
        },
        {
          "duration": 1.1999999999999886,
          "durationTicks": 1536,
          "midi": 72,
          "name": "C5",
          "ticks": 139776,
          "time": 109.2,
          "velocity": 0.7874015748031497
        },
        {
          "duration": 0.29999999999999716,
          "durationTicks": 384,
          "midi": 84,
          "name": "C6",
          "ticks": 139776,
          "time": 109.2,
          "velocity": 1
        },
        {
          "duration": 0.14999999999999147,
          "durationTicks": 192,
          "midi": 60,
          "name": "C4",
          "ticks": 140160,
          "time": 109.5,
          "velocity": 0.7874015748031497
        },
        {
          "duration": 0.14999999999999147,
          "durationTicks": 192,
          "midi": 57,
          "name": "A3",
          "ticks": 140160,
          "time": 109.5,
          "velocity": 0.7874015748031497
        },
        {
          "duration": 0.14999999999999147,
          "durationTicks": 192,
          "midi": 89,
          "name": "F6",
          "ticks": 140160,
          "time": 109.5,
          "velocity": 1
        },
        {
          "duration": 0.15000000000000568,
          "durationTicks": 192,
          "midi": 84,
          "name": "C6",
          "ticks": 140352,
          "time": 109.64999999999999,
          "velocity": 1
        },
        {
          "duration": 0.15000000000000568,
          "durationTicks": 192,
          "midi": 60,
          "name": "C4",
          "ticks": 140544,
          "time": 109.8,
          "velocity": 0.7874015748031497
        },
        {
          "duration": 0.15000000000000568,
          "durationTicks": 192,
          "midi": 63,
          "name": "D#4",
          "ticks": 140544,
          "time": 109.8,
          "velocity": 0.7874015748031497
        },
        {
          "duration": 0.07500000000000284,
          "durationTicks": 96,
          "midi": 92,
          "name": "G#6",
          "ticks": 140544,
          "time": 109.8,
          "velocity": 1
        },
        {
          "duration": 0.07500000000000284,
          "durationTicks": 96,
          "midi": 93,
          "name": "A6",
          "ticks": 140640,
          "time": 109.875,
          "velocity": 1
        },
        {
          "duration": 0.14999999999999147,
          "durationTicks": 192,
          "midi": 89,
          "name": "F6",
          "ticks": 140736,
          "time": 109.95,
          "velocity": 1
        },
        {
          "duration": 0.15000000000000568,
          "durationTicks": 192,
          "midi": 60,
          "name": "C4",
          "ticks": 140928,
          "time": 110.1,
          "velocity": 0.7874015748031497
        },
        {
          "duration": 0.15000000000000568,
          "durationTicks": 192,
          "midi": 57,
          "name": "A3",
          "ticks": 140928,
          "time": 110.1,
          "velocity": 0.7874015748031497
        },
        {
          "duration": 0.15000000000000568,
          "durationTicks": 192,
          "midi": 84,
          "name": "C6",
          "ticks": 140928,
          "time": 110.1,
          "velocity": 1
        },
        {
          "duration": 0.14999999999999147,
          "durationTicks": 192,
          "midi": 94,
          "name": "A#6",
          "ticks": 141120,
          "time": 110.25,
          "velocity": 1
        },
        {
          "duration": 1.2000000000000028,
          "durationTicks": 1536,
          "midi": 77,
          "name": "F5",
          "ticks": 141312,
          "time": 110.39999999999999,
          "velocity": 0.7874015748031497
        },
        {
          "duration": 0.15000000000000568,
          "durationTicks": 192,
          "midi": 74,
          "name": "D5",
          "ticks": 141312,
          "time": 110.39999999999999,
          "velocity": 0.7874015748031497
        },
        {
          "duration": 0.30000000000001137,
          "durationTicks": 384,
          "midi": 70,
          "name": "A#4",
          "ticks": 141312,
          "time": 110.39999999999999,
          "velocity": 0.7874015748031497
        },
        {
          "duration": 1.0499999999999972,
          "durationTicks": 1344,
          "midi": 74,
          "name": "D5",
          "ticks": 141504,
          "time": 110.55,
          "velocity": 1
        },
        {
          "duration": 0.29999999999999716,
          "durationTicks": 384,
          "midi": 70,
          "name": "A#4",
          "ticks": 141696,
          "time": 110.7,
          "velocity": 1
        },
        {
          "duration": 0.15000000000000568,
          "durationTicks": 192,
          "midi": 65,
          "name": "F4",
          "ticks": 141888,
          "time": 110.85,
          "velocity": 1
        },
        {
          "duration": 0.5999999999999943,
          "durationTicks": 768,
          "midi": 70,
          "name": "A#4",
          "ticks": 142080,
          "time": 111,
          "velocity": 1
        },
        {
          "duration": 0.15000000000000568,
          "durationTicks": 192,
          "midi": 65,
          "name": "F4",
          "ticks": 142272,
          "time": 111.14999999999999,
          "velocity": 1
        },
        {
          "duration": 0.15000000000000568,
          "durationTicks": 192,
          "midi": 62,
          "name": "D4",
          "ticks": 142464,
          "time": 111.3,
          "velocity": 1
        },
        {
          "duration": 0.14999999999999147,
          "durationTicks": 192,
          "midi": 58,
          "name": "A#3",
          "ticks": 142656,
          "time": 111.45,
          "velocity": 1
        },
        {
          "duration": 1.2000000000000028,
          "durationTicks": 1536,
          "midi": 77,
          "name": "F5",
          "ticks": 142848,
          "time": 111.6,
          "velocity": 0.7874015748031497
        },
        {
          "duration": 1.2000000000000028,
          "durationTicks": 1536,
          "midi": 69,
          "name": "A4",
          "ticks": 142848,
          "time": 111.6,
          "velocity": 0.7874015748031497
        },
        {
          "duration": 1.2000000000000028,
          "durationTicks": 1536,
          "midi": 72,
          "name": "C5",
          "ticks": 142848,
          "time": 111.6,
          "velocity": 0.7874015748031497
        },
        {
          "duration": 0.14999999999999147,
          "durationTicks": 192,
          "midi": 60,
          "name": "C4",
          "ticks": 143040,
          "time": 111.75,
          "velocity": 0.7874015748031497
        },
        {
          "duration": 0.14999999999999147,
          "durationTicks": 192,
          "midi": 57,
          "name": "A3",
          "ticks": 143040,
          "time": 111.75,
          "velocity": 0.7874015748031497
        },
        {
          "duration": 0.14999999999999147,
          "durationTicks": 192,
          "midi": 63,
          "name": "D#4",
          "ticks": 143616,
          "time": 112.2,
          "velocity": 0.7874015748031497
        },
        {
          "duration": 0.14999999999999147,
          "durationTicks": 192,
          "midi": 60,
          "name": "C4",
          "ticks": 143616,
          "time": 112.2,
          "velocity": 0.7874015748031497
        },
        {
          "duration": 0.15000000000000568,
          "durationTicks": 192,
          "midi": 62,
          "name": "D4",
          "ticks": 144192,
          "time": 112.64999999999999,
          "velocity": 0.7874015748031497
        },
        {
          "duration": 0.15000000000000568,
          "durationTicks": 192,
          "midi": 58,
          "name": "A#3",
          "ticks": 144192,
          "time": 112.64999999999999,
          "velocity": 0.7874015748031497
        },
        {
          "duration": 1.2000000000000028,
          "durationTicks": 1536,
          "midi": 70,
          "name": "A#4",
          "ticks": 144384,
          "time": 112.8,
          "velocity": 0.7874015748031497
        },
        {
          "duration": 1.2000000000000028,
          "durationTicks": 1536,
          "midi": 74,
          "name": "D5",
          "ticks": 144384,
          "time": 112.8,
          "velocity": 0.7874015748031497
        },
        {
          "duration": 1.2000000000000028,
          "durationTicks": 1536,
          "midi": 77,
          "name": "F5",
          "ticks": 144384,
          "time": 112.8,
          "velocity": 0.7874015748031497
        },
        {
          "duration": 0.14999999999999147,
          "durationTicks": 192,
          "midi": 70,
          "name": "A#4",
          "ticks": 145920,
          "time": 114,
          "velocity": 0.7874015748031497
        },
        {
          "duration": 1.1999999999999886,
          "durationTicks": 1536,
          "midi": 79,
          "name": "G5",
          "ticks": 145920,
          "time": 114,
          "velocity": 0.7874015748031497
        },
        {
          "duration": 1.1999999999999886,
          "durationTicks": 1536,
          "midi": 75,
          "name": "D#5",
          "ticks": 145920,
          "time": 114,
          "velocity": 0.7874015748031497
        },
        {
          "duration": 0.14999999999999147,
          "durationTicks": 192,
          "midi": 60,
          "name": "C4",
          "ticks": 145920,
          "time": 114,
          "velocity": 0.7874015748031497
        },
        {
          "duration": 0.14999999999999147,
          "durationTicks": 192,
          "midi": 63,
          "name": "D#4",
          "ticks": 145920,
          "time": 114,
          "velocity": 0.7874015748031497
        },
        {
          "duration": 0.15000000000000568,
          "durationTicks": 192,
          "midi": 82,
          "name": "A#5",
          "ticks": 146112,
          "time": 114.14999999999999,
          "velocity": 1
        },
        {
          "duration": 0.15000000000000568,
          "durationTicks": 192,
          "midi": 70,
          "name": "A#4",
          "ticks": 146112,
          "time": 114.14999999999999,
          "velocity": 1
        },
        {
          "duration": 0.15000000000000568,
          "durationTicks": 192,
          "midi": 82,
          "name": "A#5",
          "ticks": 146304,
          "time": 114.3,
          "velocity": 1
        },
        {
          "duration": 0.15000000000000568,
          "durationTicks": 192,
          "midi": 70,
          "name": "A#4",
          "ticks": 146304,
          "time": 114.3,
          "velocity": 1
        },
        {
          "duration": 0.14999999999999147,
          "durationTicks": 192,
          "midi": 82,
          "name": "A#5",
          "ticks": 146496,
          "time": 114.45,
          "velocity": 1
        },
        {
          "duration": 0.14999999999999147,
          "durationTicks": 192,
          "midi": 70,
          "name": "A#4",
          "ticks": 146496,
          "time": 114.45,
          "velocity": 1
        },
        {
          "duration": 0.15000000000000568,
          "durationTicks": 192,
          "midi": 60,
          "name": "C4",
          "ticks": 146688,
          "time": 114.6,
          "velocity": 0.7874015748031497
        },
        {
          "duration": 0.15000000000000568,
          "durationTicks": 192,
          "midi": 63,
          "name": "D#4",
          "ticks": 146688,
          "time": 114.6,
          "velocity": 0.7874015748031497
        },
        {
          "duration": 0.29999999999999716,
          "durationTicks": 384,
          "midi": 82,
          "name": "A#5",
          "ticks": 146688,
          "time": 114.6,
          "velocity": 1
        },
        {
          "duration": 0.29999999999999716,
          "durationTicks": 384,
          "midi": 70,
          "name": "A#4",
          "ticks": 146688,
          "time": 114.6,
          "velocity": 1
        },
        {
          "duration": 0.29999999999999716,
          "durationTicks": 384,
          "midi": 82,
          "name": "A#5",
          "ticks": 147072,
          "time": 114.89999999999999,
          "velocity": 1
        },
        {
          "duration": 0.29999999999999716,
          "durationTicks": 384,
          "midi": 70,
          "name": "A#4",
          "ticks": 147072,
          "time": 114.89999999999999,
          "velocity": 1
        },
        {
          "duration": 0.14999999999999147,
          "durationTicks": 192,
          "midi": 62,
          "name": "D4",
          "ticks": 147264,
          "time": 115.05,
          "velocity": 0.7874015748031497
        },
        {
          "duration": 0.14999999999999147,
          "durationTicks": 192,
          "midi": 58,
          "name": "A#3",
          "ticks": 147264,
          "time": 115.05,
          "velocity": 0.7874015748031497
        },
        {
          "duration": 1.2000000000000028,
          "durationTicks": 1536,
          "midi": 74,
          "name": "D5",
          "ticks": 147456,
          "time": 115.19999999999999,
          "velocity": 0.7874015748031497
        },
        {
          "duration": 1.2000000000000028,
          "durationTicks": 1536,
          "midi": 77,
          "name": "F5",
          "ticks": 147456,
          "time": 115.19999999999999,
          "velocity": 0.7874015748031497
        },
        {
          "duration": 1.2000000000000028,
          "durationTicks": 1536,
          "midi": 70,
          "name": "A#4",
          "ticks": 147456,
          "time": 115.19999999999999,
          "velocity": 0.7874015748031497
        },
        {
          "duration": 1.2000000000000028,
          "durationTicks": 1536,
          "midi": 72,
          "name": "C5",
          "ticks": 148992,
          "time": 116.39999999999999,
          "velocity": 0.7874015748031497
        },
        {
          "duration": 0.0015624999999914735,
          "durationTicks": 2,
          "midi": 65,
          "name": "F4",
          "ticks": 148992,
          "time": 116.39999999999999,
          "velocity": 0.7874015748031497
        },
        {
          "duration": 1.2000000000000028,
          "durationTicks": 1536,
          "midi": 69,
          "name": "A4",
          "ticks": 148992,
          "time": 116.39999999999999,
          "velocity": 0.7874015748031497
        },
        {
          "duration": 0.15000000000000568,
          "durationTicks": 192,
          "midi": 60,
          "name": "C4",
          "ticks": 148992,
          "time": 116.39999999999999,
          "velocity": 0.7874015748031497
        },
        {
          "duration": 0.15000000000000568,
          "durationTicks": 192,
          "midi": 63,
          "name": "D#4",
          "ticks": 148992,
          "time": 116.39999999999999,
          "velocity": 0.7874015748031497
        },
        {
          "duration": 0.14999999999999147,
          "durationTicks": 192,
          "midi": 67,
          "name": "G4",
          "ticks": 149184,
          "time": 116.55,
          "velocity": 0.7874015748031497
        },
        {
          "duration": 0.9000000000000057,
          "durationTicks": 1152,
          "midi": 65,
          "name": "F4",
          "ticks": 149376,
          "time": 116.69999999999999,
          "velocity": 0.7874015748031497
        },
        {
          "duration": 0.14999999999999147,
          "durationTicks": 192,
          "midi": 60,
          "name": "C4",
          "ticks": 149760,
          "time": 117,
          "velocity": 0.7874015748031497
        },
        {
          "duration": 0.14999999999999147,
          "durationTicks": 192,
          "midi": 63,
          "name": "D#4",
          "ticks": 149760,
          "time": 117,
          "velocity": 0.7874015748031497
        },
        {
          "duration": 0.14999999999999147,
          "durationTicks": 192,
          "midi": 70,
          "name": "A#4",
          "ticks": 150144,
          "time": 117.3,
          "velocity": 0.7874015748031497
        },
        {
          "duration": 0.15000000000000568,
          "durationTicks": 192,
          "midi": 62,
          "name": "D4",
          "ticks": 150336,
          "time": 117.44999999999999,
          "velocity": 0.7874015748031497
        },
        {
          "duration": 0.15000000000000568,
          "durationTicks": 192,
          "midi": 58,
          "name": "A#3",
          "ticks": 150336,
          "time": 117.44999999999999,
          "velocity": 0.7874015748031497
        },
        {
          "duration": 1.2000000000000028,
          "durationTicks": 1536,
          "midi": 65,
          "name": "F4",
          "ticks": 150528,
          "time": 117.6,
          "velocity": 0.7874015748031497
        },
        {
          "duration": 1.2000000000000028,
          "durationTicks": 1536,
          "midi": 74,
          "name": "D5",
          "ticks": 150528,
          "time": 117.6,
          "velocity": 0.7874015748031497
        },
        {
          "duration": 0.15000000000000568,
          "durationTicks": 192,
          "midi": 70,
          "name": "A#4",
          "ticks": 150528,
          "time": 117.6,
          "velocity": 0.7874015748031497
        },
        {
          "duration": 0.14999999999999147,
          "durationTicks": 192,
          "midi": 70,
          "name": "A#4",
          "ticks": 150720,
          "time": 117.75,
          "velocity": 0.7874015748031497
        },
        {
          "duration": 0.15000000000000568,
          "durationTicks": 192,
          "midi": 70,
          "name": "A#4",
          "ticks": 150912,
          "time": 117.89999999999999,
          "velocity": 0.7874015748031497
        },
        {
          "duration": 0.14999999999999147,
          "durationTicks": 192,
          "midi": 70,
          "name": "A#4",
          "ticks": 151104,
          "time": 118.05,
          "velocity": 0.7874015748031497
        },
        {
          "duration": 0.6000000000000085,
          "durationTicks": 768,
          "midi": 70,
          "name": "A#4",
          "ticks": 151296,
          "time": 118.19999999999999,
          "velocity": 0.7874015748031497
        },
        {
          "duration": 0.6000000000000085,
          "durationTicks": 768,
          "midi": 46,
          "name": "A#2",
          "ticks": 151296,
          "time": 118.19999999999999,
          "velocity": 1
        },
        {
          "duration": 1.2000000000000028,
          "durationTicks": 1536,
          "midi": 69,
          "name": "A4",
          "ticks": 152064,
          "time": 118.8,
          "velocity": 0.7874015748031497
        },
        {
          "duration": 0.0015624999999914735,
          "durationTicks": 2,
          "midi": 77,
          "name": "F5",
          "ticks": 152064,
          "time": 118.8,
          "velocity": 0.7874015748031497
        },
        {
          "duration": 1.2000000000000028,
          "durationTicks": 1536,
          "midi": 72,
          "name": "C5",
          "ticks": 152064,
          "time": 118.8,
          "velocity": 0.7874015748031497
        },
        {
          "duration": 0.14999999999999147,
          "durationTicks": 192,
          "midi": 57,
          "name": "A3",
          "ticks": 152064,
          "time": 118.8,
          "velocity": 0.7874015748031497
        },
        {
          "duration": 0.14999999999999147,
          "durationTicks": 192,
          "midi": 60,
          "name": "C4",
          "ticks": 152064,
          "time": 118.8,
          "velocity": 0.7874015748031497
        },
        {
          "duration": 0.30000000000001137,
          "durationTicks": 384,
          "midi": 77,
          "name": "F5",
          "ticks": 152256,
          "time": 118.94999999999999,
          "velocity": 1
        },
        {
          "duration": 0.15000000000000568,
          "durationTicks": 192,
          "midi": 76,
          "name": "E5",
          "ticks": 152448,
          "time": 119.1,
          "velocity": 1
        },
        {
          "duration": 0.14999999999999147,
          "durationTicks": 192,
          "midi": 60,
          "name": "C4",
          "ticks": 152640,
          "time": 119.25,
          "velocity": 0.7874015748031497
        },
        {
          "duration": 0.14999999999999147,
          "durationTicks": 192,
          "midi": 63,
          "name": "D#4",
          "ticks": 152640,
          "time": 119.25,
          "velocity": 0.7874015748031497
        },
        {
          "duration": 0.75,
          "durationTicks": 960,
          "midi": 77,
          "name": "F5",
          "ticks": 152640,
          "time": 119.25,
          "velocity": 1
        },
        {
          "duration": 0.15000000000000568,
          "durationTicks": 192,
          "midi": 81,
          "name": "A5",
          "ticks": 152832,
          "time": 119.39999999999999,
          "velocity": 1
        },
        {
          "duration": 0.14999999999999147,
          "durationTicks": 192,
          "midi": 84,
          "name": "C6",
          "ticks": 153024,
          "time": 119.55,
          "velocity": 1
        },
        {
          "duration": 0.15000000000000568,
          "durationTicks": 192,
          "midi": 86,
          "name": "D6",
          "ticks": 153216,
          "time": 119.69999999999999,
          "velocity": 1
        },
        {
          "duration": 0.15000000000000568,
          "durationTicks": 192,
          "midi": 62,
          "name": "D4",
          "ticks": 153408,
          "time": 119.85,
          "velocity": 0.7874015748031497
        },
        {
          "duration": 0.15000000000000568,
          "durationTicks": 192,
          "midi": 58,
          "name": "A#3",
          "ticks": 153408,
          "time": 119.85,
          "velocity": 0.7874015748031497
        },
        {
          "duration": 0.15000000000000568,
          "durationTicks": 192,
          "midi": 82,
          "name": "A#5",
          "ticks": 153408,
          "time": 119.85,
          "velocity": 1
        },
        {
          "duration": 0.8999999999999915,
          "durationTicks": 1152,
          "midi": 74,
          "name": "D5",
          "ticks": 153600,
          "time": 120,
          "velocity": 0.7874015748031497
        },
        {
          "duration": 1.0499999999999972,
          "durationTicks": 1344,
          "midi": 70,
          "name": "A#4",
          "ticks": 153600,
          "time": 120,
          "velocity": 0.7874015748031497
        },
        {
          "duration": 1.1999999999999886,
          "durationTicks": 1536,
          "midi": 77,
          "name": "F5",
          "ticks": 153600,
          "time": 120,
          "velocity": 0.7874015748031497
        },
        {
          "duration": 0.15000000000000568,
          "durationTicks": 192,
          "midi": 65,
          "name": "F4",
          "ticks": 153792,
          "time": 120.14999999999999,
          "velocity": 1
        },
        {
          "duration": 0.14999999999999147,
          "durationTicks": 192,
          "midi": 64,
          "name": "E4",
          "ticks": 153984,
          "time": 120.3,
          "velocity": 1
        },
        {
          "duration": 0.15000000000000568,
          "durationTicks": 192,
          "midi": 65,
          "name": "F4",
          "ticks": 154176,
          "time": 120.44999999999999,
          "velocity": 1
        },
        {
          "duration": 0.15000000000000568,
          "durationTicks": 192,
          "midi": 62,
          "name": "D4",
          "ticks": 154368,
          "time": 120.6,
          "velocity": 0.7874015748031497
        },
        {
          "duration": 0.15000000000000568,
          "durationTicks": 192,
          "midi": 58,
          "name": "A#3",
          "ticks": 154368,
          "time": 120.6,
          "velocity": 0.7874015748031497
        },
        {
          "duration": 0.15000000000000568,
          "durationTicks": 192,
          "midi": 69,
          "name": "A4",
          "ticks": 154368,
          "time": 120.6,
          "velocity": 1
        },
        {
          "duration": 0.14999999999999147,
          "durationTicks": 192,
          "midi": 72,
          "name": "C5",
          "ticks": 154560,
          "time": 120.75,
          "velocity": 1
        },
        {
          "duration": 0.15000000000000568,
          "durationTicks": 192,
          "midi": 60,
          "name": "C4",
          "ticks": 154752,
          "time": 120.89999999999999,
          "velocity": 0.7874015748031497
        },
        {
          "duration": 0.15000000000000568,
          "durationTicks": 192,
          "midi": 57,
          "name": "A3",
          "ticks": 154752,
          "time": 120.89999999999999,
          "velocity": 0.7874015748031497
        },
        {
          "duration": 0.29999999999999716,
          "durationTicks": 384,
          "midi": 74,
          "name": "D5",
          "ticks": 154752,
          "time": 120.89999999999999,
          "velocity": 1
        },
        {
          "duration": 0.14999999999999147,
          "durationTicks": 192,
          "midi": 70,
          "name": "A#4",
          "ticks": 154944,
          "time": 121.05,
          "velocity": 1
        },
        {
          "duration": 1.2000000000000028,
          "durationTicks": 1536,
          "midi": 77,
          "name": "F5",
          "ticks": 155136,
          "time": 121.19999999999999,
          "velocity": 0.7874015748031497
        },
        {
          "duration": 1.2000000000000028,
          "durationTicks": 1536,
          "midi": 69,
          "name": "A4",
          "ticks": 155136,
          "time": 121.19999999999999,
          "velocity": 0.7874015748031497
        },
        {
          "duration": 1.2000000000000028,
          "durationTicks": 1536,
          "midi": 72,
          "name": "C5",
          "ticks": 155136,
          "time": 121.19999999999999,
          "velocity": 0.7874015748031497
        },
        {
          "duration": 0.15000000000000568,
          "durationTicks": 192,
          "midi": 57,
          "name": "A3",
          "ticks": 155136,
          "time": 121.19999999999999,
          "velocity": 0.7874015748031497
        },
        {
          "duration": 0.15000000000000568,
          "durationTicks": 192,
          "midi": 60,
          "name": "C4",
          "ticks": 155136,
          "time": 121.19999999999999,
          "velocity": 0.7874015748031497
        },
        {
          "duration": 0.15000000000000568,
          "durationTicks": 192,
          "midi": 60,
          "name": "C4",
          "ticks": 155712,
          "time": 121.64999999999999,
          "velocity": 0.7874015748031497
        },
        {
          "duration": 0.15000000000000568,
          "durationTicks": 192,
          "midi": 63,
          "name": "D#4",
          "ticks": 155712,
          "time": 121.64999999999999,
          "velocity": 0.7874015748031497
        },
        {
          "duration": 0.14999999999999147,
          "durationTicks": 192,
          "midi": 62,
          "name": "D4",
          "ticks": 156480,
          "time": 122.25,
          "velocity": 0.7874015748031497
        },
        {
          "duration": 0.14999999999999147,
          "durationTicks": 192,
          "midi": 58,
          "name": "A#3",
          "ticks": 156480,
          "time": 122.25,
          "velocity": 0.7874015748031497
        },
        {
          "duration": 1.2000000000000028,
          "durationTicks": 1536,
          "midi": 74,
          "name": "D5",
          "ticks": 156672,
          "time": 122.39999999999999,
          "velocity": 0.7874015748031497
        },
        {
          "duration": 1.2000000000000028,
          "durationTicks": 1536,
          "midi": 70,
          "name": "A#4",
          "ticks": 156672,
          "time": 122.39999999999999,
          "velocity": 0.7874015748031497
        },
        {
          "duration": 1.2000000000000028,
          "durationTicks": 1536,
          "midi": 77,
          "name": "F5",
          "ticks": 156672,
          "time": 122.39999999999999,
          "velocity": 0.7874015748031497
        },
        {
          "duration": 0.9000000000000057,
          "durationTicks": 1152,
          "midi": 58,
          "name": "A#3",
          "ticks": 157056,
          "time": 122.69999999999999,
          "velocity": 1
        },
        {
          "duration": 0.0015624999999914735,
          "durationTicks": 2,
          "midi": 75,
          "name": "D#5",
          "ticks": 158208,
          "time": 123.6,
          "velocity": 0.7874015748031497
        },
        {
          "duration": 0.0015624999999914735,
          "durationTicks": 2,
          "midi": 67,
          "name": "G4",
          "ticks": 158208,
          "time": 123.6,
          "velocity": 0.7874015748031497
        },
        {
          "duration": 0.15000000000000568,
          "durationTicks": 192,
          "midi": 70,
          "name": "A#4",
          "ticks": 158208,
          "time": 123.6,
          "velocity": 0.7874015748031497
        },
        {
          "duration": 0.15000000000000568,
          "durationTicks": 192,
          "midi": 63,
          "name": "D#4",
          "ticks": 158208,
          "time": 123.6,
          "velocity": 0.7874015748031497
        },
        {
          "duration": 0.29999999999999716,
          "durationTicks": 384,
          "midi": 70,
          "name": "A#4",
          "ticks": 158400,
          "time": 123.75,
          "velocity": 1
        },
        {
          "duration": 0.14999999999999147,
          "durationTicks": 192,
          "midi": 63,
          "name": "D#4",
          "ticks": 158784,
          "time": 124.05,
          "velocity": 0.7874015748031497
        },
        {
          "duration": 0.75,
          "durationTicks": 960,
          "midi": 67,
          "name": "G4",
          "ticks": 158784,
          "time": 124.05,
          "velocity": 0.7874015748031497
        },
        {
          "duration": 0.14999999999999147,
          "durationTicks": 192,
          "midi": 70,
          "name": "A#4",
          "ticks": 158784,
          "time": 124.05,
          "velocity": 1
        },
        {
          "duration": 0.15000000000000568,
          "durationTicks": 192,
          "midi": 70,
          "name": "A#4",
          "ticks": 158976,
          "time": 124.19999999999999,
          "velocity": 1
        },
        {
          "duration": 0.15000000000000568,
          "durationTicks": 192,
          "midi": 70,
          "name": "A#4",
          "ticks": 159168,
          "time": 124.35,
          "velocity": 1
        },
        {
          "duration": 0.14999999999999147,
          "durationTicks": 192,
          "midi": 70,
          "name": "A#4",
          "ticks": 159360,
          "time": 124.5,
          "velocity": 1
        },
        {
          "duration": 0.15000000000000568,
          "durationTicks": 192,
          "midi": 65,
          "name": "F4",
          "ticks": 159552,
          "time": 124.64999999999999,
          "velocity": 0.7874015748031497
        },
        {
          "duration": 0.15000000000000568,
          "durationTicks": 192,
          "midi": 62,
          "name": "D4",
          "ticks": 159552,
          "time": 124.64999999999999,
          "velocity": 0.7874015748031497
        },
        {
          "duration": 0.15156249999999716,
          "durationTicks": 194,
          "midi": 70,
          "name": "A#4",
          "ticks": 159552,
          "time": 124.64999999999999,
          "velocity": 1
        },
        {
          "duration": 1.2000000000000028,
          "durationTicks": 1536,
          "midi": 74,
          "name": "D5",
          "ticks": 159744,
          "time": 124.8,
          "velocity": 0.7874015748031497
        },
        {
          "duration": 1.2000000000000028,
          "durationTicks": 1536,
          "midi": 65,
          "name": "F4",
          "ticks": 159744,
          "time": 124.8,
          "velocity": 0.7874015748031497
        },
        {
          "duration": 0.11250000000001137,
          "durationTicks": 144,
          "midi": 70,
          "name": "A#4",
          "ticks": 159936,
          "time": 124.94999999999999,
          "velocity": 1
        },
        {
          "duration": 0.11249999999999716,
          "durationTicks": 144,
          "midi": 70,
          "name": "A#4",
          "ticks": 160128,
          "time": 125.1,
          "velocity": 1
        },
        {
          "duration": 0.11249999999999716,
          "durationTicks": 144,
          "midi": 70,
          "name": "A#4",
          "ticks": 160320,
          "time": 125.25,
          "velocity": 1
        },
        {
          "duration": 0.22500000000000853,
          "durationTicks": 288,
          "midi": 70,
          "name": "A#4",
          "ticks": 160512,
          "time": 125.39999999999999,
          "velocity": 1
        },
        {
          "duration": 0.22500000000000853,
          "durationTicks": 288,
          "midi": 70,
          "name": "A#4",
          "ticks": 160896,
          "time": 125.69999999999999,
          "velocity": 1
        },
        {
          "duration": 1.1999999999999886,
          "durationTicks": 1536,
          "midi": 69,
          "name": "A4",
          "ticks": 161280,
          "time": 126,
          "velocity": 0.7874015748031497
        },
        {
          "duration": 1.1999999999999886,
          "durationTicks": 1536,
          "midi": 72,
          "name": "C5",
          "ticks": 161280,
          "time": 126,
          "velocity": 0.7874015748031497
        },
        {
          "duration": 0.0015624999999914735,
          "durationTicks": 2,
          "midi": 65,
          "name": "F4",
          "ticks": 161280,
          "time": 126,
          "velocity": 0.7874015748031497
        },
        {
          "duration": 0.14999999999999147,
          "durationTicks": 192,
          "midi": 60,
          "name": "C4",
          "ticks": 161280,
          "time": 126,
          "velocity": 0.7874015748031497
        },
        {
          "duration": 0.14999999999999147,
          "durationTicks": 192,
          "midi": 63,
          "name": "D#4",
          "ticks": 161280,
          "time": 126,
          "velocity": 0.7874015748031497
        },
        {
          "duration": 0.14999999999999147,
          "durationTicks": 192,
          "midi": 65,
          "name": "F4",
          "ticks": 161664,
          "time": 126.3,
          "velocity": 1
        },
        {
          "duration": 0.15000000000000568,
          "durationTicks": 192,
          "midi": 63,
          "name": "D#4",
          "ticks": 161856,
          "time": 126.44999999999999,
          "velocity": 0.7874015748031497
        },
        {
          "duration": 0.15000000000000568,
          "durationTicks": 192,
          "midi": 67,
          "name": "G4",
          "ticks": 161856,
          "time": 126.44999999999999,
          "velocity": 0.7874015748031497
        },
        {
          "duration": 0.15000000000000568,
          "durationTicks": 192,
          "midi": 65,
          "name": "F4",
          "ticks": 161856,
          "time": 126.44999999999999,
          "velocity": 1
        },
        {
          "duration": 0.29999999999999716,
          "durationTicks": 384,
          "midi": 65,
          "name": "F4",
          "ticks": 162048,
          "time": 126.6,
          "velocity": 1
        },
        {
          "duration": 0.15000000000000568,
          "durationTicks": 192,
          "midi": 65,
          "name": "F4",
          "ticks": 162432,
          "time": 126.89999999999999,
          "velocity": 1
        },
        {
          "duration": 0.14999999999999147,
          "durationTicks": 192,
          "midi": 65,
          "name": "F4",
          "ticks": 162624,
          "time": 127.05,
          "velocity": 0.7874015748031497
        },
        {
          "duration": 0.14999999999999147,
          "durationTicks": 192,
          "midi": 62,
          "name": "D4",
          "ticks": 162624,
          "time": 127.05,
          "velocity": 0.7874015748031497
        },
        {
          "duration": 0.15156249999999716,
          "durationTicks": 194,
          "midi": 70,
          "name": "A#4",
          "ticks": 162624,
          "time": 127.05,
          "velocity": 1
        }
      ]
    },
    {
      "channel": 13,
      "controlChanges": {},
      "pitchBends": [],
      "instrument": {
        "family": "chromatic percussion",
        "number": 11,
        "name": "vibraphone"
      },
      "name": "",
      "notes": [
        {
          "duration": 0.07499999999998863,
          "durationTicks": 96,
          "midi": 63,
          "name": "D#4",
          "ticks": 164352,
          "time": 128.4,
          "velocity": 0.7874015748031497
        },
        {
          "duration": 0.07499999999998863,
          "durationTicks": 96,
          "midi": 67,
          "name": "G4",
          "ticks": 164448,
          "time": 128.475,
          "velocity": 0.7874015748031497
        },
        {
          "duration": 0.07500000000001705,
          "durationTicks": 96,
          "midi": 63,
          "name": "D#4",
          "ticks": 164544,
          "time": 128.54999999999998,
          "velocity": 0.7874015748031497
        },
        {
          "duration": 0.07499999999998863,
          "durationTicks": 96,
          "midi": 67,
          "name": "G4",
          "ticks": 164640,
          "time": 128.625,
          "velocity": 0.7874015748031497
        },
        {
          "duration": 0.07500000000001705,
          "durationTicks": 96,
          "midi": 63,
          "name": "D#4",
          "ticks": 164736,
          "time": 128.7,
          "velocity": 0.7874015748031497
        },
        {
          "duration": 0.07499999999998863,
          "durationTicks": 96,
          "midi": 67,
          "name": "G4",
          "ticks": 164832,
          "time": 128.775,
          "velocity": 0.7874015748031497
        },
        {
          "duration": 0.07499999999998863,
          "durationTicks": 96,
          "midi": 63,
          "name": "D#4",
          "ticks": 164928,
          "time": 128.85,
          "velocity": 0.7874015748031497
        },
        {
          "duration": 0.07500000000001705,
          "durationTicks": 96,
          "midi": 67,
          "name": "G4",
          "ticks": 165024,
          "time": 128.92499999999998,
          "velocity": 0.7874015748031497
        },
        {
          "duration": 0.07499999999998863,
          "durationTicks": 96,
          "midi": 63,
          "name": "D#4",
          "ticks": 165120,
          "time": 129,
          "velocity": 0.7874015748031497
        },
        {
          "duration": 0.07500000000001705,
          "durationTicks": 96,
          "midi": 67,
          "name": "G4",
          "ticks": 165216,
          "time": 129.075,
          "velocity": 0.7874015748031497
        },
        {
          "duration": 0.07499999999998863,
          "durationTicks": 96,
          "midi": 63,
          "name": "D#4",
          "ticks": 165312,
          "time": 129.15,
          "velocity": 0.7874015748031497
        },
        {
          "duration": 0.07499999999998863,
          "durationTicks": 96,
          "midi": 67,
          "name": "G4",
          "ticks": 165408,
          "time": 129.225,
          "velocity": 0.7874015748031497
        },
        {
          "duration": 0.07500000000001705,
          "durationTicks": 96,
          "midi": 63,
          "name": "D#4",
          "ticks": 165504,
          "time": 129.29999999999998,
          "velocity": 0.7874015748031497
        },
        {
          "duration": 0.07499999999998863,
          "durationTicks": 96,
          "midi": 67,
          "name": "G4",
          "ticks": 165600,
          "time": 129.375,
          "velocity": 0.7874015748031497
        },
        {
          "duration": 0.07500000000001705,
          "durationTicks": 96,
          "midi": 63,
          "name": "D#4",
          "ticks": 165696,
          "time": 129.45,
          "velocity": 0.7874015748031497
        },
        {
          "duration": 0.07499999999998863,
          "durationTicks": 96,
          "midi": 67,
          "name": "G4",
          "ticks": 165792,
          "time": 129.525,
          "velocity": 0.7874015748031497
        },
        {
          "duration": 0.07499999999998863,
          "durationTicks": 96,
          "midi": 62,
          "name": "D4",
          "ticks": 165888,
          "time": 129.6,
          "velocity": 0.7874015748031497
        },
        {
          "duration": 0.07500000000001705,
          "durationTicks": 96,
          "midi": 65,
          "name": "F4",
          "ticks": 165984,
          "time": 129.67499999999998,
          "velocity": 0.7874015748031497
        },
        {
          "duration": 0.07499999999998863,
          "durationTicks": 96,
          "midi": 62,
          "name": "D4",
          "ticks": 166080,
          "time": 129.75,
          "velocity": 0.7874015748031497
        },
        {
          "duration": 0.07500000000001705,
          "durationTicks": 96,
          "midi": 65,
          "name": "F4",
          "ticks": 166176,
          "time": 129.825,
          "velocity": 0.7874015748031497
        },
        {
          "duration": 0.07499999999998863,
          "durationTicks": 96,
          "midi": 62,
          "name": "D4",
          "ticks": 166272,
          "time": 129.9,
          "velocity": 0.7874015748031497
        },
        {
          "duration": 0.07499999999998863,
          "durationTicks": 96,
          "midi": 65,
          "name": "F4",
          "ticks": 166368,
          "time": 129.975,
          "velocity": 0.7874015748031497
        },
        {
          "duration": 0.07500000000001705,
          "durationTicks": 96,
          "midi": 62,
          "name": "D4",
          "ticks": 166464,
          "time": 130.04999999999998,
          "velocity": 0.7874015748031497
        },
        {
          "duration": 0.07499999999998863,
          "durationTicks": 96,
          "midi": 65,
          "name": "F4",
          "ticks": 166560,
          "time": 130.125,
          "velocity": 0.7874015748031497
        },
        {
          "duration": 0.07500000000001705,
          "durationTicks": 96,
          "midi": 62,
          "name": "D4",
          "ticks": 166656,
          "time": 130.2,
          "velocity": 0.7874015748031497
        },
        {
          "duration": 0.07499999999998863,
          "durationTicks": 96,
          "midi": 65,
          "name": "F4",
          "ticks": 166752,
          "time": 130.275,
          "velocity": 0.7874015748031497
        },
        {
          "duration": 0.07499999999998863,
          "durationTicks": 96,
          "midi": 62,
          "name": "D4",
          "ticks": 166848,
          "time": 130.35,
          "velocity": 0.7874015748031497
        },
        {
          "duration": 0.07500000000001705,
          "durationTicks": 96,
          "midi": 65,
          "name": "F4",
          "ticks": 166944,
          "time": 130.42499999999998,
          "velocity": 0.7874015748031497
        },
        {
          "duration": 0.07499999999998863,
          "durationTicks": 96,
          "midi": 62,
          "name": "D4",
          "ticks": 167040,
          "time": 130.5,
          "velocity": 0.7874015748031497
        },
        {
          "duration": 0.07500000000001705,
          "durationTicks": 96,
          "midi": 65,
          "name": "F4",
          "ticks": 167136,
          "time": 130.575,
          "velocity": 0.7874015748031497
        },
        {
          "duration": 0.07499999999998863,
          "durationTicks": 96,
          "midi": 62,
          "name": "D4",
          "ticks": 167232,
          "time": 130.65,
          "velocity": 0.7874015748031497
        },
        {
          "duration": 0.07499999999998863,
          "durationTicks": 96,
          "midi": 65,
          "name": "F4",
          "ticks": 167328,
          "time": 130.725,
          "velocity": 0.7874015748031497
        },
        {
          "duration": 0.07500000000001705,
          "durationTicks": 96,
          "midi": 63,
          "name": "D#4",
          "ticks": 167424,
          "time": 130.79999999999998,
          "velocity": 0.7874015748031497
        },
        {
          "duration": 0.07499999999998863,
          "durationTicks": 96,
          "midi": 60,
          "name": "C4",
          "ticks": 167520,
          "time": 130.875,
          "velocity": 0.7874015748031497
        },
        {
          "duration": 0.07500000000001705,
          "durationTicks": 96,
          "midi": 63,
          "name": "D#4",
          "ticks": 167616,
          "time": 130.95,
          "velocity": 0.7874015748031497
        },
        {
          "duration": 0.07499999999998863,
          "durationTicks": 96,
          "midi": 60,
          "name": "C4",
          "ticks": 167712,
          "time": 131.025,
          "velocity": 0.7874015748031497
        },
        {
          "duration": 0.07499999999998863,
          "durationTicks": 96,
          "midi": 63,
          "name": "D#4",
          "ticks": 167808,
          "time": 131.1,
          "velocity": 0.7874015748031497
        },
        {
          "duration": 0.07500000000001705,
          "durationTicks": 96,
          "midi": 60,
          "name": "C4",
          "ticks": 167904,
          "time": 131.17499999999998,
          "velocity": 0.7874015748031497
        },
        {
          "duration": 0.07499999999998863,
          "durationTicks": 96,
          "midi": 63,
          "name": "D#4",
          "ticks": 168000,
          "time": 131.25,
          "velocity": 0.7874015748031497
        },
        {
          "duration": 0.07500000000001705,
          "durationTicks": 96,
          "midi": 60,
          "name": "C4",
          "ticks": 168096,
          "time": 131.325,
          "velocity": 0.7874015748031497
        },
        {
          "duration": 0.07499999999998863,
          "durationTicks": 96,
          "midi": 63,
          "name": "D#4",
          "ticks": 168192,
          "time": 131.4,
          "velocity": 0.7874015748031497
        },
        {
          "duration": 0.07499999999998863,
          "durationTicks": 96,
          "midi": 60,
          "name": "C4",
          "ticks": 168288,
          "time": 131.475,
          "velocity": 0.7874015748031497
        },
        {
          "duration": 0.07500000000001705,
          "durationTicks": 96,
          "midi": 63,
          "name": "D#4",
          "ticks": 168384,
          "time": 131.54999999999998,
          "velocity": 0.7874015748031497
        },
        {
          "duration": 0.07499999999998863,
          "durationTicks": 96,
          "midi": 60,
          "name": "C4",
          "ticks": 168480,
          "time": 131.625,
          "velocity": 0.7874015748031497
        },
        {
          "duration": 0.07500000000001705,
          "durationTicks": 96,
          "midi": 63,
          "name": "D#4",
          "ticks": 168576,
          "time": 131.7,
          "velocity": 0.7874015748031497
        },
        {
          "duration": 0.07499999999998863,
          "durationTicks": 96,
          "midi": 60,
          "name": "C4",
          "ticks": 168672,
          "time": 131.775,
          "velocity": 0.7874015748031497
        },
        {
          "duration": 0.07499999999998863,
          "durationTicks": 96,
          "midi": 63,
          "name": "D#4",
          "ticks": 168768,
          "time": 131.85,
          "velocity": 0.7874015748031497
        },
        {
          "duration": 0.07500000000001705,
          "durationTicks": 96,
          "midi": 60,
          "name": "C4",
          "ticks": 168864,
          "time": 131.92499999999998,
          "velocity": 0.7874015748031497
        },
        {
          "duration": 0.07499999999998863,
          "durationTicks": 96,
          "midi": 62,
          "name": "D4",
          "ticks": 168960,
          "time": 132,
          "velocity": 0.7874015748031497
        },
        {
          "duration": 0.07500000000001705,
          "durationTicks": 96,
          "midi": 65,
          "name": "F4",
          "ticks": 169056,
          "time": 132.075,
          "velocity": 0.7874015748031497
        },
        {
          "duration": 0.07499999999998863,
          "durationTicks": 96,
          "midi": 62,
          "name": "D4",
          "ticks": 169152,
          "time": 132.15,
          "velocity": 0.7874015748031497
        },
        {
          "duration": 0.07499999999998863,
          "durationTicks": 96,
          "midi": 65,
          "name": "F4",
          "ticks": 169248,
          "time": 132.225,
          "velocity": 0.7874015748031497
        },
        {
          "duration": 0.07500000000001705,
          "durationTicks": 96,
          "midi": 62,
          "name": "D4",
          "ticks": 169344,
          "time": 132.29999999999998,
          "velocity": 0.7874015748031497
        },
        {
          "duration": 0.07499999999998863,
          "durationTicks": 96,
          "midi": 65,
          "name": "F4",
          "ticks": 169440,
          "time": 132.375,
          "velocity": 0.7874015748031497
        },
        {
          "duration": 0.07500000000001705,
          "durationTicks": 96,
          "midi": 62,
          "name": "D4",
          "ticks": 169536,
          "time": 132.45,
          "velocity": 0.7874015748031497
        },
        {
          "duration": 0.07499999999998863,
          "durationTicks": 96,
          "midi": 65,
          "name": "F4",
          "ticks": 169632,
          "time": 132.525,
          "velocity": 0.7874015748031497
        },
        {
          "duration": 0.07499999999998863,
          "durationTicks": 96,
          "midi": 62,
          "name": "D4",
          "ticks": 169728,
          "time": 132.6,
          "velocity": 0.7874015748031497
        },
        {
          "duration": 0.07500000000001705,
          "durationTicks": 96,
          "midi": 65,
          "name": "F4",
          "ticks": 169824,
          "time": 132.67499999999998,
          "velocity": 0.7874015748031497
        },
        {
          "duration": 0.07499999999998863,
          "durationTicks": 96,
          "midi": 62,
          "name": "D4",
          "ticks": 169920,
          "time": 132.75,
          "velocity": 0.7874015748031497
        },
        {
          "duration": 0.07500000000001705,
          "durationTicks": 96,
          "midi": 65,
          "name": "F4",
          "ticks": 170016,
          "time": 132.825,
          "velocity": 0.7874015748031497
        },
        {
          "duration": 0.07499999999998863,
          "durationTicks": 96,
          "midi": 62,
          "name": "D4",
          "ticks": 170112,
          "time": 132.9,
          "velocity": 0.7874015748031497
        },
        {
          "duration": 0.07499999999998863,
          "durationTicks": 96,
          "midi": 65,
          "name": "F4",
          "ticks": 170208,
          "time": 132.975,
          "velocity": 0.7874015748031497
        },
        {
          "duration": 0.07500000000001705,
          "durationTicks": 96,
          "midi": 62,
          "name": "D4",
          "ticks": 170304,
          "time": 133.04999999999998,
          "velocity": 0.7874015748031497
        },
        {
          "duration": 0.07499999999998863,
          "durationTicks": 96,
          "midi": 65,
          "name": "F4",
          "ticks": 170400,
          "time": 133.125,
          "velocity": 0.7874015748031497
        },
        {
          "duration": 0.07500000000001705,
          "durationTicks": 96,
          "midi": 63,
          "name": "D#4",
          "ticks": 170496,
          "time": 133.2,
          "velocity": 0.7874015748031497
        },
        {
          "duration": 0.07499999999998863,
          "durationTicks": 96,
          "midi": 67,
          "name": "G4",
          "ticks": 170592,
          "time": 133.275,
          "velocity": 0.7874015748031497
        },
        {
          "duration": 0.07499999999998863,
          "durationTicks": 96,
          "midi": 63,
          "name": "D#4",
          "ticks": 170688,
          "time": 133.35,
          "velocity": 0.7874015748031497
        },
        {
          "duration": 0.07500000000001705,
          "durationTicks": 96,
          "midi": 67,
          "name": "G4",
          "ticks": 170784,
          "time": 133.42499999999998,
          "velocity": 0.7874015748031497
        },
        {
          "duration": 0.07499999999998863,
          "durationTicks": 96,
          "midi": 63,
          "name": "D#4",
          "ticks": 170880,
          "time": 133.5,
          "velocity": 0.7874015748031497
        },
        {
          "duration": 0.07500000000001705,
          "durationTicks": 96,
          "midi": 67,
          "name": "G4",
          "ticks": 170976,
          "time": 133.575,
          "velocity": 0.7874015748031497
        },
        {
          "duration": 0.07499999999998863,
          "durationTicks": 96,
          "midi": 63,
          "name": "D#4",
          "ticks": 171072,
          "time": 133.65,
          "velocity": 0.7874015748031497
        },
        {
          "duration": 0.07499999999998863,
          "durationTicks": 96,
          "midi": 67,
          "name": "G4",
          "ticks": 171168,
          "time": 133.725,
          "velocity": 0.7874015748031497
        },
        {
          "duration": 0.07500000000001705,
          "durationTicks": 96,
          "midi": 63,
          "name": "D#4",
          "ticks": 171264,
          "time": 133.79999999999998,
          "velocity": 0.7874015748031497
        },
        {
          "duration": 0.07499999999998863,
          "durationTicks": 96,
          "midi": 67,
          "name": "G4",
          "ticks": 171360,
          "time": 133.875,
          "velocity": 0.7874015748031497
        },
        {
          "duration": 0.07500000000001705,
          "durationTicks": 96,
          "midi": 63,
          "name": "D#4",
          "ticks": 171456,
          "time": 133.95,
          "velocity": 0.7874015748031497
        },
        {
          "duration": 0.07499999999998863,
          "durationTicks": 96,
          "midi": 67,
          "name": "G4",
          "ticks": 171552,
          "time": 134.025,
          "velocity": 0.7874015748031497
        },
        {
          "duration": 0.07499999999998863,
          "durationTicks": 96,
          "midi": 63,
          "name": "D#4",
          "ticks": 171648,
          "time": 134.1,
          "velocity": 0.7874015748031497
        },
        {
          "duration": 0.07500000000001705,
          "durationTicks": 96,
          "midi": 67,
          "name": "G4",
          "ticks": 171744,
          "time": 134.17499999999998,
          "velocity": 0.7874015748031497
        },
        {
          "duration": 0.07499999999998863,
          "durationTicks": 96,
          "midi": 63,
          "name": "D#4",
          "ticks": 171840,
          "time": 134.25,
          "velocity": 0.7874015748031497
        },
        {
          "duration": 0.07500000000001705,
          "durationTicks": 96,
          "midi": 67,
          "name": "G4",
          "ticks": 171936,
          "time": 134.325,
          "velocity": 0.7874015748031497
        },
        {
          "duration": 0.07499999999998863,
          "durationTicks": 96,
          "midi": 65,
          "name": "F4",
          "ticks": 172032,
          "time": 134.4,
          "velocity": 0.7874015748031497
        },
        {
          "duration": 0.07499999999998863,
          "durationTicks": 96,
          "midi": 69,
          "name": "A4",
          "ticks": 172128,
          "time": 134.475,
          "velocity": 0.7874015748031497
        },
        {
          "duration": 0.07500000000001705,
          "durationTicks": 96,
          "midi": 65,
          "name": "F4",
          "ticks": 172224,
          "time": 134.54999999999998,
          "velocity": 0.7874015748031497
        },
        {
          "duration": 0.07499999999998863,
          "durationTicks": 96,
          "midi": 69,
          "name": "A4",
          "ticks": 172320,
          "time": 134.625,
          "velocity": 0.7874015748031497
        },
        {
          "duration": 0.07500000000001705,
          "durationTicks": 96,
          "midi": 65,
          "name": "F4",
          "ticks": 172416,
          "time": 134.7,
          "velocity": 0.7874015748031497
        },
        {
          "duration": 0.07499999999998863,
          "durationTicks": 96,
          "midi": 69,
          "name": "A4",
          "ticks": 172512,
          "time": 134.775,
          "velocity": 0.7874015748031497
        },
        {
          "duration": 0.07499999999998863,
          "durationTicks": 96,
          "midi": 65,
          "name": "F4",
          "ticks": 172608,
          "time": 134.85,
          "velocity": 0.7874015748031497
        },
        {
          "duration": 0.07500000000001705,
          "durationTicks": 96,
          "midi": 69,
          "name": "A4",
          "ticks": 172704,
          "time": 134.92499999999998,
          "velocity": 0.7874015748031497
        },
        {
          "duration": 0.07499999999998863,
          "durationTicks": 96,
          "midi": 65,
          "name": "F4",
          "ticks": 172800,
          "time": 135,
          "velocity": 0.7874015748031497
        },
        {
          "duration": 0.07500000000001705,
          "durationTicks": 96,
          "midi": 69,
          "name": "A4",
          "ticks": 172896,
          "time": 135.075,
          "velocity": 0.7874015748031497
        },
        {
          "duration": 0.07499999999998863,
          "durationTicks": 96,
          "midi": 65,
          "name": "F4",
          "ticks": 172992,
          "time": 135.15,
          "velocity": 0.7874015748031497
        },
        {
          "duration": 0.07499999999998863,
          "durationTicks": 96,
          "midi": 69,
          "name": "A4",
          "ticks": 173088,
          "time": 135.225,
          "velocity": 0.7874015748031497
        },
        {
          "duration": 0.07500000000001705,
          "durationTicks": 96,
          "midi": 65,
          "name": "F4",
          "ticks": 173184,
          "time": 135.29999999999998,
          "velocity": 0.7874015748031497
        },
        {
          "duration": 0.07499999999998863,
          "durationTicks": 96,
          "midi": 69,
          "name": "A4",
          "ticks": 173280,
          "time": 135.375,
          "velocity": 0.7874015748031497
        },
        {
          "duration": 0.07500000000001705,
          "durationTicks": 96,
          "midi": 65,
          "name": "F4",
          "ticks": 173376,
          "time": 135.45,
          "velocity": 0.7874015748031497
        },
        {
          "duration": 0.07499999999998863,
          "durationTicks": 96,
          "midi": 69,
          "name": "A4",
          "ticks": 173472,
          "time": 135.525,
          "velocity": 0.7874015748031497
        },
        {
          "duration": 0.07499999999998863,
          "durationTicks": 96,
          "midi": 62,
          "name": "D4",
          "ticks": 173568,
          "time": 135.6,
          "velocity": 0.7874015748031497
        },
        {
          "duration": 0.07500000000001705,
          "durationTicks": 96,
          "midi": 70,
          "name": "A#4",
          "ticks": 173664,
          "time": 135.67499999999998,
          "velocity": 0.7874015748031497
        },
        {
          "duration": 0.07499999999998863,
          "durationTicks": 96,
          "midi": 62,
          "name": "D4",
          "ticks": 173760,
          "time": 135.75,
          "velocity": 0.7874015748031497
        },
        {
          "duration": 0.07500000000001705,
          "durationTicks": 96,
          "midi": 70,
          "name": "A#4",
          "ticks": 173856,
          "time": 135.825,
          "velocity": 0.7874015748031497
        },
        {
          "duration": 0.07499999999998863,
          "durationTicks": 96,
          "midi": 62,
          "name": "D4",
          "ticks": 173952,
          "time": 135.9,
          "velocity": 0.7874015748031497
        },
        {
          "duration": 0.07499999999998863,
          "durationTicks": 96,
          "midi": 70,
          "name": "A#4",
          "ticks": 174048,
          "time": 135.975,
          "velocity": 0.7874015748031497
        },
        {
          "duration": 0.07500000000001705,
          "durationTicks": 96,
          "midi": 62,
          "name": "D4",
          "ticks": 174144,
          "time": 136.04999999999998,
          "velocity": 0.7874015748031497
        },
        {
          "duration": 0.07499999999998863,
          "durationTicks": 96,
          "midi": 70,
          "name": "A#4",
          "ticks": 174240,
          "time": 136.125,
          "velocity": 0.7874015748031497
        },
        {
          "duration": 0.07500000000001705,
          "durationTicks": 96,
          "midi": 62,
          "name": "D4",
          "ticks": 174336,
          "time": 136.2,
          "velocity": 0.7874015748031497
        },
        {
          "duration": 0.07499999999998863,
          "durationTicks": 96,
          "midi": 70,
          "name": "A#4",
          "ticks": 174432,
          "time": 136.275,
          "velocity": 0.7874015748031497
        },
        {
          "duration": 0.07499999999998863,
          "durationTicks": 96,
          "midi": 62,
          "name": "D4",
          "ticks": 174528,
          "time": 136.35,
          "velocity": 0.7874015748031497
        },
        {
          "duration": 0.07500000000001705,
          "durationTicks": 96,
          "midi": 70,
          "name": "A#4",
          "ticks": 174624,
          "time": 136.42499999999998,
          "velocity": 0.7874015748031497
        },
        {
          "duration": 0.07499999999998863,
          "durationTicks": 96,
          "midi": 62,
          "name": "D4",
          "ticks": 174720,
          "time": 136.5,
          "velocity": 0.7874015748031497
        },
        {
          "duration": 0.07500000000001705,
          "durationTicks": 96,
          "midi": 70,
          "name": "A#4",
          "ticks": 174816,
          "time": 136.575,
          "velocity": 0.7874015748031497
        },
        {
          "duration": 0.07499999999998863,
          "durationTicks": 96,
          "midi": 62,
          "name": "D4",
          "ticks": 174912,
          "time": 136.65,
          "velocity": 0.7874015748031497
        },
        {
          "duration": 0.07499999999998863,
          "durationTicks": 96,
          "midi": 70,
          "name": "A#4",
          "ticks": 175008,
          "time": 136.725,
          "velocity": 0.7874015748031497
        },
        {
          "duration": 0.07500000000001705,
          "durationTicks": 96,
          "midi": 62,
          "name": "D4",
          "ticks": 175104,
          "time": 136.79999999999998,
          "velocity": 0.7874015748031497
        },
        {
          "duration": 0.07499999999998863,
          "durationTicks": 96,
          "midi": 68,
          "name": "G#4",
          "ticks": 175200,
          "time": 136.875,
          "velocity": 0.7874015748031497
        },
        {
          "duration": 0.07500000000001705,
          "durationTicks": 96,
          "midi": 62,
          "name": "D4",
          "ticks": 175296,
          "time": 136.95,
          "velocity": 0.7874015748031497
        },
        {
          "duration": 0.07499999999998863,
          "durationTicks": 96,
          "midi": 68,
          "name": "G#4",
          "ticks": 175392,
          "time": 137.025,
          "velocity": 0.7874015748031497
        },
        {
          "duration": 0.07499999999998863,
          "durationTicks": 96,
          "midi": 62,
          "name": "D4",
          "ticks": 175488,
          "time": 137.1,
          "velocity": 0.7874015748031497
        },
        {
          "duration": 0.07500000000001705,
          "durationTicks": 96,
          "midi": 68,
          "name": "G#4",
          "ticks": 175584,
          "time": 137.17499999999998,
          "velocity": 0.7874015748031497
        },
        {
          "duration": 0.07499999999998863,
          "durationTicks": 96,
          "midi": 62,
          "name": "D4",
          "ticks": 175680,
          "time": 137.25,
          "velocity": 0.7874015748031497
        },
        {
          "duration": 0.07500000000001705,
          "durationTicks": 96,
          "midi": 68,
          "name": "G#4",
          "ticks": 175776,
          "time": 137.325,
          "velocity": 0.7874015748031497
        },
        {
          "duration": 0.07499999999998863,
          "durationTicks": 96,
          "midi": 62,
          "name": "D4",
          "ticks": 175872,
          "time": 137.4,
          "velocity": 0.7874015748031497
        },
        {
          "duration": 0.07499999999998863,
          "durationTicks": 96,
          "midi": 68,
          "name": "G#4",
          "ticks": 175968,
          "time": 137.475,
          "velocity": 0.7874015748031497
        },
        {
          "duration": 0.07500000000001705,
          "durationTicks": 96,
          "midi": 62,
          "name": "D4",
          "ticks": 176064,
          "time": 137.54999999999998,
          "velocity": 0.7874015748031497
        },
        {
          "duration": 0.07499999999998863,
          "durationTicks": 96,
          "midi": 68,
          "name": "G#4",
          "ticks": 176160,
          "time": 137.625,
          "velocity": 0.7874015748031497
        },
        {
          "duration": 0.07500000000001705,
          "durationTicks": 96,
          "midi": 62,
          "name": "D4",
          "ticks": 176256,
          "time": 137.7,
          "velocity": 0.7874015748031497
        },
        {
          "duration": 0.07499999999998863,
          "durationTicks": 96,
          "midi": 68,
          "name": "G#4",
          "ticks": 176352,
          "time": 137.775,
          "velocity": 0.7874015748031497
        },
        {
          "duration": 0.07499999999998863,
          "durationTicks": 96,
          "midi": 62,
          "name": "D4",
          "ticks": 176448,
          "time": 137.85,
          "velocity": 0.7874015748031497
        },
        {
          "duration": 0.07500000000001705,
          "durationTicks": 96,
          "midi": 68,
          "name": "G#4",
          "ticks": 176544,
          "time": 137.92499999999998,
          "velocity": 0.7874015748031497
        },
        {
          "duration": 0.07499999999998863,
          "durationTicks": 96,
          "midi": 67,
          "name": "G4",
          "ticks": 176640,
          "time": 138,
          "velocity": 0.7874015748031497
        },
        {
          "duration": 0.07500000000001705,
          "durationTicks": 96,
          "midi": 63,
          "name": "D#4",
          "ticks": 176736,
          "time": 138.075,
          "velocity": 0.7874015748031497
        },
        {
          "duration": 0.07499999999998863,
          "durationTicks": 96,
          "midi": 67,
          "name": "G4",
          "ticks": 176832,
          "time": 138.15,
          "velocity": 0.7874015748031497
        },
        {
          "duration": 0.07499999999998863,
          "durationTicks": 96,
          "midi": 63,
          "name": "D#4",
          "ticks": 176928,
          "time": 138.225,
          "velocity": 0.7874015748031497
        },
        {
          "duration": 0.07500000000001705,
          "durationTicks": 96,
          "midi": 67,
          "name": "G4",
          "ticks": 177024,
          "time": 138.29999999999998,
          "velocity": 0.7874015748031497
        },
        {
          "duration": 0.07499999999998863,
          "durationTicks": 96,
          "midi": 63,
          "name": "D#4",
          "ticks": 177120,
          "time": 138.375,
          "velocity": 0.7874015748031497
        },
        {
          "duration": 0.07500000000001705,
          "durationTicks": 96,
          "midi": 67,
          "name": "G4",
          "ticks": 177216,
          "time": 138.45,
          "velocity": 0.7874015748031497
        },
        {
          "duration": 0.07499999999998863,
          "durationTicks": 96,
          "midi": 63,
          "name": "D#4",
          "ticks": 177312,
          "time": 138.525,
          "velocity": 0.7874015748031497
        },
        {
          "duration": 0.07499999999998863,
          "durationTicks": 96,
          "midi": 67,
          "name": "G4",
          "ticks": 177408,
          "time": 138.6,
          "velocity": 0.7874015748031497
        },
        {
          "duration": 0.07500000000001705,
          "durationTicks": 96,
          "midi": 63,
          "name": "D#4",
          "ticks": 177504,
          "time": 138.67499999999998,
          "velocity": 0.7874015748031497
        },
        {
          "duration": 0.07499999999998863,
          "durationTicks": 96,
          "midi": 67,
          "name": "G4",
          "ticks": 177600,
          "time": 138.75,
          "velocity": 0.7874015748031497
        },
        {
          "duration": 0.07500000000001705,
          "durationTicks": 96,
          "midi": 63,
          "name": "D#4",
          "ticks": 177696,
          "time": 138.825,
          "velocity": 0.7874015748031497
        },
        {
          "duration": 0.07499999999998863,
          "durationTicks": 96,
          "midi": 67,
          "name": "G4",
          "ticks": 177792,
          "time": 138.9,
          "velocity": 0.7874015748031497
        },
        {
          "duration": 0.07499999999998863,
          "durationTicks": 96,
          "midi": 63,
          "name": "D#4",
          "ticks": 177888,
          "time": 138.975,
          "velocity": 0.7874015748031497
        },
        {
          "duration": 0.07500000000001705,
          "durationTicks": 96,
          "midi": 67,
          "name": "G4",
          "ticks": 177984,
          "time": 139.04999999999998,
          "velocity": 0.7874015748031497
        },
        {
          "duration": 0.07499999999998863,
          "durationTicks": 96,
          "midi": 63,
          "name": "D#4",
          "ticks": 178080,
          "time": 139.125,
          "velocity": 0.7874015748031497
        },
        {
          "duration": 0.07500000000001705,
          "durationTicks": 96,
          "midi": 69,
          "name": "A4",
          "ticks": 178176,
          "time": 139.2,
          "velocity": 0.7874015748031497
        },
        {
          "duration": 0.07499999999998863,
          "durationTicks": 96,
          "midi": 65,
          "name": "F4",
          "ticks": 178272,
          "time": 139.275,
          "velocity": 0.7874015748031497
        },
        {
          "duration": 0.07499999999998863,
          "durationTicks": 96,
          "midi": 69,
          "name": "A4",
          "ticks": 178368,
          "time": 139.35,
          "velocity": 0.7874015748031497
        },
        {
          "duration": 0.07500000000001705,
          "durationTicks": 96,
          "midi": 65,
          "name": "F4",
          "ticks": 178464,
          "time": 139.42499999999998,
          "velocity": 0.7874015748031497
        },
        {
          "duration": 0.07499999999998863,
          "durationTicks": 96,
          "midi": 69,
          "name": "A4",
          "ticks": 178560,
          "time": 139.5,
          "velocity": 0.7874015748031497
        },
        {
          "duration": 0.07500000000001705,
          "durationTicks": 96,
          "midi": 65,
          "name": "F4",
          "ticks": 178656,
          "time": 139.575,
          "velocity": 0.7874015748031497
        },
        {
          "duration": 0.07499999999998863,
          "durationTicks": 96,
          "midi": 69,
          "name": "A4",
          "ticks": 178752,
          "time": 139.65,
          "velocity": 0.7874015748031497
        },
        {
          "duration": 0.07499999999998863,
          "durationTicks": 96,
          "midi": 65,
          "name": "F4",
          "ticks": 178848,
          "time": 139.725,
          "velocity": 0.7874015748031497
        },
        {
          "duration": 0.07500000000001705,
          "durationTicks": 96,
          "midi": 69,
          "name": "A4",
          "ticks": 178944,
          "time": 139.79999999999998,
          "velocity": 0.7874015748031497
        },
        {
          "duration": 0.07499999999998863,
          "durationTicks": 96,
          "midi": 65,
          "name": "F4",
          "ticks": 179040,
          "time": 139.875,
          "velocity": 0.7874015748031497
        },
        {
          "duration": 0.07500000000001705,
          "durationTicks": 96,
          "midi": 69,
          "name": "A4",
          "ticks": 179136,
          "time": 139.95,
          "velocity": 0.7874015748031497
        },
        {
          "duration": 0.07499999999998863,
          "durationTicks": 96,
          "midi": 65,
          "name": "F4",
          "ticks": 179232,
          "time": 140.025,
          "velocity": 0.7874015748031497
        },
        {
          "duration": 0.07499999999998863,
          "durationTicks": 96,
          "midi": 69,
          "name": "A4",
          "ticks": 179328,
          "time": 140.1,
          "velocity": 0.7874015748031497
        },
        {
          "duration": 0.07500000000001705,
          "durationTicks": 96,
          "midi": 65,
          "name": "F4",
          "ticks": 179424,
          "time": 140.17499999999998,
          "velocity": 0.7874015748031497
        },
        {
          "duration": 0.07499999999998863,
          "durationTicks": 96,
          "midi": 69,
          "name": "A4",
          "ticks": 179520,
          "time": 140.25,
          "velocity": 0.7874015748031497
        },
        {
          "duration": 0.07500000000001705,
          "durationTicks": 96,
          "midi": 65,
          "name": "F4",
          "ticks": 179616,
          "time": 140.325,
          "velocity": 0.7874015748031497
        },
        {
          "duration": 0.07499999999998863,
          "durationTicks": 96,
          "midi": 70,
          "name": "A#4",
          "ticks": 179712,
          "time": 140.4,
          "velocity": 0.7874015748031497
        },
        {
          "duration": 0.07499999999998863,
          "durationTicks": 96,
          "midi": 67,
          "name": "G4",
          "ticks": 179808,
          "time": 140.475,
          "velocity": 0.7874015748031497
        },
        {
          "duration": 0.07500000000001705,
          "durationTicks": 96,
          "midi": 70,
          "name": "A#4",
          "ticks": 179904,
          "time": 140.54999999999998,
          "velocity": 0.7874015748031497
        },
        {
          "duration": 0.07499999999998863,
          "durationTicks": 96,
          "midi": 67,
          "name": "G4",
          "ticks": 180000,
          "time": 140.625,
          "velocity": 0.7874015748031497
        },
        {
          "duration": 0.07500000000001705,
          "durationTicks": 96,
          "midi": 70,
          "name": "A#4",
          "ticks": 180096,
          "time": 140.7,
          "velocity": 0.7874015748031497
        },
        {
          "duration": 0.07499999999998863,
          "durationTicks": 96,
          "midi": 67,
          "name": "G4",
          "ticks": 180192,
          "time": 140.775,
          "velocity": 0.7874015748031497
        },
        {
          "duration": 0.07499999999998863,
          "durationTicks": 96,
          "midi": 70,
          "name": "A#4",
          "ticks": 180288,
          "time": 140.85,
          "velocity": 0.7874015748031497
        },
        {
          "duration": 0.07500000000001705,
          "durationTicks": 96,
          "midi": 67,
          "name": "G4",
          "ticks": 180384,
          "time": 140.92499999999998,
          "velocity": 0.7874015748031497
        },
        {
          "duration": 0.07499999999998863,
          "durationTicks": 96,
          "midi": 74,
          "name": "D5",
          "ticks": 180480,
          "time": 141,
          "velocity": 0.7874015748031497
        },
        {
          "duration": 0.07500000000001705,
          "durationTicks": 96,
          "midi": 70,
          "name": "A#4",
          "ticks": 180576,
          "time": 141.075,
          "velocity": 0.7874015748031497
        },
        {
          "duration": 0.07499999999998863,
          "durationTicks": 96,
          "midi": 74,
          "name": "D5",
          "ticks": 180672,
          "time": 141.15,
          "velocity": 0.7874015748031497
        },
        {
          "duration": 0.07499999999998863,
          "durationTicks": 96,
          "midi": 70,
          "name": "A#4",
          "ticks": 180768,
          "time": 141.225,
          "velocity": 0.7874015748031497
        },
        {
          "duration": 0.07500000000001705,
          "durationTicks": 96,
          "midi": 74,
          "name": "D5",
          "ticks": 180864,
          "time": 141.29999999999998,
          "velocity": 0.7874015748031497
        },
        {
          "duration": 0.07499999999998863,
          "durationTicks": 96,
          "midi": 70,
          "name": "A#4",
          "ticks": 180960,
          "time": 141.375,
          "velocity": 0.7874015748031497
        },
        {
          "duration": 0.07500000000001705,
          "durationTicks": 96,
          "midi": 74,
          "name": "D5",
          "ticks": 181056,
          "time": 141.45,
          "velocity": 0.7874015748031497
        },
        {
          "duration": 0.07499999999998863,
          "durationTicks": 96,
          "midi": 70,
          "name": "A#4",
          "ticks": 181152,
          "time": 141.525,
          "velocity": 0.7874015748031497
        },
        {
          "duration": 0.07499999999998863,
          "durationTicks": 96,
          "midi": 76,
          "name": "E5",
          "ticks": 181248,
          "time": 141.6,
          "velocity": 0.7874015748031497
        },
        {
          "duration": 0.07500000000001705,
          "durationTicks": 96,
          "midi": 67,
          "name": "G4",
          "ticks": 181344,
          "time": 141.67499999999998,
          "velocity": 0.7874015748031497
        },
        {
          "duration": 0.07499999999998863,
          "durationTicks": 96,
          "midi": 76,
          "name": "E5",
          "ticks": 181440,
          "time": 141.75,
          "velocity": 0.7874015748031497
        },
        {
          "duration": 0.07500000000001705,
          "durationTicks": 96,
          "midi": 67,
          "name": "G4",
          "ticks": 181536,
          "time": 141.825,
          "velocity": 0.7874015748031497
        },
        {
          "duration": 0.07499999999998863,
          "durationTicks": 96,
          "midi": 76,
          "name": "E5",
          "ticks": 181632,
          "time": 141.9,
          "velocity": 0.7874015748031497
        },
        {
          "duration": 0.07499999999998863,
          "durationTicks": 96,
          "midi": 67,
          "name": "G4",
          "ticks": 181728,
          "time": 141.975,
          "velocity": 0.7874015748031497
        },
        {
          "duration": 0.07500000000001705,
          "durationTicks": 96,
          "midi": 76,
          "name": "E5",
          "ticks": 181824,
          "time": 142.04999999999998,
          "velocity": 0.7874015748031497
        },
        {
          "duration": 0.07499999999998863,
          "durationTicks": 96,
          "midi": 67,
          "name": "G4",
          "ticks": 181920,
          "time": 142.125,
          "velocity": 0.7874015748031497
        },
        {
          "duration": 0.07500000000001705,
          "durationTicks": 96,
          "midi": 76,
          "name": "E5",
          "ticks": 182016,
          "time": 142.2,
          "velocity": 0.7874015748031497
        },
        {
          "duration": 0.07499999999998863,
          "durationTicks": 96,
          "midi": 67,
          "name": "G4",
          "ticks": 182112,
          "time": 142.275,
          "velocity": 0.7874015748031497
        },
        {
          "duration": 0.07499999999998863,
          "durationTicks": 96,
          "midi": 76,
          "name": "E5",
          "ticks": 182208,
          "time": 142.35,
          "velocity": 0.7874015748031497
        },
        {
          "duration": 0.07500000000001705,
          "durationTicks": 96,
          "midi": 67,
          "name": "G4",
          "ticks": 182304,
          "time": 142.42499999999998,
          "velocity": 0.7874015748031497
        },
        {
          "duration": 0.07499999999998863,
          "durationTicks": 96,
          "midi": 76,
          "name": "E5",
          "ticks": 182400,
          "time": 142.5,
          "velocity": 0.7874015748031497
        },
        {
          "duration": 0.07500000000001705,
          "durationTicks": 96,
          "midi": 67,
          "name": "G4",
          "ticks": 182496,
          "time": 142.575,
          "velocity": 0.7874015748031497
        },
        {
          "duration": 0.07499999999998863,
          "durationTicks": 96,
          "midi": 76,
          "name": "E5",
          "ticks": 182592,
          "time": 142.65,
          "velocity": 0.7874015748031497
        },
        {
          "duration": 0.07499999999998863,
          "durationTicks": 96,
          "midi": 67,
          "name": "G4",
          "ticks": 182688,
          "time": 142.725,
          "velocity": 0.7874015748031497
        },
        {
          "duration": 0.07500000000001705,
          "durationTicks": 96,
          "midi": 67,
          "name": "G4",
          "ticks": 182784,
          "time": 142.79999999999998,
          "velocity": 0.7874015748031497
        },
        {
          "duration": 0.07499999999998863,
          "durationTicks": 96,
          "midi": 75,
          "name": "D#5",
          "ticks": 182880,
          "time": 142.875,
          "velocity": 0.7874015748031497
        },
        {
          "duration": 0.07500000000001705,
          "durationTicks": 96,
          "midi": 67,
          "name": "G4",
          "ticks": 182976,
          "time": 142.95,
          "velocity": 0.7874015748031497
        },
        {
          "duration": 0.07499999999998863,
          "durationTicks": 96,
          "midi": 75,
          "name": "D#5",
          "ticks": 183072,
          "time": 143.025,
          "velocity": 0.7874015748031497
        },
        {
          "duration": 0.07499999999998863,
          "durationTicks": 96,
          "midi": 67,
          "name": "G4",
          "ticks": 183168,
          "time": 143.1,
          "velocity": 0.7874015748031497
        },
        {
          "duration": 0.07500000000001705,
          "durationTicks": 96,
          "midi": 75,
          "name": "D#5",
          "ticks": 183264,
          "time": 143.17499999999998,
          "velocity": 0.7874015748031497
        },
        {
          "duration": 0.07499999999998863,
          "durationTicks": 96,
          "midi": 67,
          "name": "G4",
          "ticks": 183360,
          "time": 143.25,
          "velocity": 0.7874015748031497
        },
        {
          "duration": 0.07500000000001705,
          "durationTicks": 96,
          "midi": 75,
          "name": "D#5",
          "ticks": 183456,
          "time": 143.325,
          "velocity": 0.7874015748031497
        },
        {
          "duration": 0.07499999999998863,
          "durationTicks": 96,
          "midi": 67,
          "name": "G4",
          "ticks": 183552,
          "time": 143.4,
          "velocity": 0.7874015748031497
        },
        {
          "duration": 0.07499999999998863,
          "durationTicks": 96,
          "midi": 75,
          "name": "D#5",
          "ticks": 183648,
          "time": 143.475,
          "velocity": 0.7874015748031497
        },
        {
          "duration": 0.07500000000001705,
          "durationTicks": 96,
          "midi": 67,
          "name": "G4",
          "ticks": 183744,
          "time": 143.54999999999998,
          "velocity": 0.7874015748031497
        },
        {
          "duration": 0.07499999999998863,
          "durationTicks": 96,
          "midi": 75,
          "name": "D#5",
          "ticks": 183840,
          "time": 143.625,
          "velocity": 0.7874015748031497
        },
        {
          "duration": 0.07500000000001705,
          "durationTicks": 96,
          "midi": 67,
          "name": "G4",
          "ticks": 183936,
          "time": 143.7,
          "velocity": 0.7874015748031497
        },
        {
          "duration": 0.07499999999998863,
          "durationTicks": 96,
          "midi": 75,
          "name": "D#5",
          "ticks": 184032,
          "time": 143.775,
          "velocity": 0.7874015748031497
        },
        {
          "duration": 0.07499999999998863,
          "durationTicks": 96,
          "midi": 67,
          "name": "G4",
          "ticks": 184128,
          "time": 143.85,
          "velocity": 0.7874015748031497
        },
        {
          "duration": 0.07500000000001705,
          "durationTicks": 96,
          "midi": 75,
          "name": "D#5",
          "ticks": 184224,
          "time": 143.92499999999998,
          "velocity": 0.7874015748031497
        },
        {
          "duration": 0.07499999999998863,
          "durationTicks": 96,
          "midi": 69,
          "name": "A4",
          "ticks": 184320,
          "time": 144,
          "velocity": 0.7874015748031497
        },
        {
          "duration": 0.07500000000001705,
          "durationTicks": 96,
          "midi": 77,
          "name": "F5",
          "ticks": 184416,
          "time": 144.075,
          "velocity": 0.7874015748031497
        },
        {
          "duration": 0.07499999999998863,
          "durationTicks": 96,
          "midi": 69,
          "name": "A4",
          "ticks": 184512,
          "time": 144.15,
          "velocity": 0.7874015748031497
        },
        {
          "duration": 0.07499999999998863,
          "durationTicks": 96,
          "midi": 77,
          "name": "F5",
          "ticks": 184608,
          "time": 144.225,
          "velocity": 0.7874015748031497
        },
        {
          "duration": 0.07500000000001705,
          "durationTicks": 96,
          "midi": 69,
          "name": "A4",
          "ticks": 184704,
          "time": 144.29999999999998,
          "velocity": 0.7874015748031497
        },
        {
          "duration": 0.07499999999998863,
          "durationTicks": 96,
          "midi": 77,
          "name": "F5",
          "ticks": 184800,
          "time": 144.375,
          "velocity": 0.7874015748031497
        },
        {
          "duration": 0.07500000000001705,
          "durationTicks": 96,
          "midi": 69,
          "name": "A4",
          "ticks": 184896,
          "time": 144.45,
          "velocity": 0.7874015748031497
        },
        {
          "duration": 0.07499999999998863,
          "durationTicks": 96,
          "midi": 77,
          "name": "F5",
          "ticks": 184992,
          "time": 144.525,
          "velocity": 0.7874015748031497
        },
        {
          "duration": 0.07499999999998863,
          "durationTicks": 96,
          "midi": 69,
          "name": "A4",
          "ticks": 185088,
          "time": 144.6,
          "velocity": 0.7874015748031497
        },
        {
          "duration": 0.07500000000001705,
          "durationTicks": 96,
          "midi": 77,
          "name": "F5",
          "ticks": 185184,
          "time": 144.67499999999998,
          "velocity": 0.7874015748031497
        },
        {
          "duration": 0.07499999999998863,
          "durationTicks": 96,
          "midi": 69,
          "name": "A4",
          "ticks": 185280,
          "time": 144.75,
          "velocity": 0.7874015748031497
        },
        {
          "duration": 0.07500000000001705,
          "durationTicks": 96,
          "midi": 77,
          "name": "F5",
          "ticks": 185376,
          "time": 144.825,
          "velocity": 0.7874015748031497
        },
        {
          "duration": 0.07499999999998863,
          "durationTicks": 96,
          "midi": 69,
          "name": "A4",
          "ticks": 185472,
          "time": 144.9,
          "velocity": 0.7874015748031497
        },
        {
          "duration": 0.07499999999998863,
          "durationTicks": 96,
          "midi": 77,
          "name": "F5",
          "ticks": 185568,
          "time": 144.975,
          "velocity": 0.7874015748031497
        },
        {
          "duration": 0.07500000000001705,
          "durationTicks": 96,
          "midi": 69,
          "name": "A4",
          "ticks": 185664,
          "time": 145.04999999999998,
          "velocity": 0.7874015748031497
        },
        {
          "duration": 0.07499999999998863,
          "durationTicks": 96,
          "midi": 77,
          "name": "F5",
          "ticks": 185760,
          "time": 145.125,
          "velocity": 0.7874015748031497
        },
        {
          "duration": 0.15000000000000568,
          "durationTicks": 192,
          "midi": 72,
          "name": "C5",
          "ticks": 196800,
          "time": 153.75,
          "velocity": 1
        },
        {
          "duration": 0.15000000000000568,
          "durationTicks": 192,
          "midi": 84,
          "name": "C6",
          "ticks": 196800,
          "time": 153.75,
          "velocity": 1
        },
        {
          "duration": 0.15000000000000568,
          "durationTicks": 192,
          "midi": 60,
          "name": "C4",
          "ticks": 196800,
          "time": 153.75,
          "velocity": 1
        },
        {
          "duration": 0.29999999999998295,
          "durationTicks": 384,
          "midi": 72,
          "name": "C5",
          "ticks": 196992,
          "time": 153.9,
          "velocity": 1
        },
        {
          "duration": 0.29999999999998295,
          "durationTicks": 384,
          "midi": 84,
          "name": "C6",
          "ticks": 196992,
          "time": 153.9,
          "velocity": 1
        },
        {
          "duration": 0.29999999999998295,
          "durationTicks": 384,
          "midi": 60,
          "name": "C4",
          "ticks": 196992,
          "time": 153.9,
          "velocity": 1
        },
        {
          "duration": 0.30000000000001137,
          "durationTicks": 384,
          "midi": 72,
          "name": "C5",
          "ticks": 197376,
          "time": 154.2,
          "velocity": 1
        },
        {
          "duration": 0.30000000000001137,
          "durationTicks": 384,
          "midi": 84,
          "name": "C6",
          "ticks": 197376,
          "time": 154.2,
          "velocity": 1
        },
        {
          "duration": 0.30000000000001137,
          "durationTicks": 384,
          "midi": 60,
          "name": "C4",
          "ticks": 197376,
          "time": 154.2,
          "velocity": 1
        },
        {
          "duration": 0.07500000000001705,
          "durationTicks": 96,
          "midi": 69,
          "name": "A4",
          "ticks": 198144,
          "time": 154.79999999999998,
          "velocity": 0.7874015748031497
        },
        {
          "duration": 0.07499999999998863,
          "durationTicks": 96,
          "midi": 65,
          "name": "F4",
          "ticks": 198240,
          "time": 154.875,
          "velocity": 0.7874015748031497
        },
        {
          "duration": 0.07500000000001705,
          "durationTicks": 96,
          "midi": 69,
          "name": "A4",
          "ticks": 198336,
          "time": 154.95,
          "velocity": 0.7874015748031497
        },
        {
          "duration": 0.07499999999998863,
          "durationTicks": 96,
          "midi": 65,
          "name": "F4",
          "ticks": 198432,
          "time": 155.025,
          "velocity": 0.7874015748031497
        },
        {
          "duration": 0.07499999999998863,
          "durationTicks": 96,
          "midi": 69,
          "name": "A4",
          "ticks": 198528,
          "time": 155.1,
          "velocity": 0.7874015748031497
        },
        {
          "duration": 0.15000000000000568,
          "durationTicks": 192,
          "midi": 57,
          "name": "A3",
          "ticks": 198528,
          "time": 155.1,
          "velocity": 0.9606299212598425
        },
        {
          "duration": 0.15000000000000568,
          "durationTicks": 192,
          "midi": 60,
          "name": "C4",
          "ticks": 198528,
          "time": 155.1,
          "velocity": 0.9606299212598425
        },
        {
          "duration": 0.07499999999998863,
          "durationTicks": 96,
          "midi": 65,
          "name": "F4",
          "ticks": 198528,
          "time": 155.1,
          "velocity": 0.9606299212598425
        },
        {
          "duration": 0.07500000000001705,
          "durationTicks": 96,
          "midi": 65,
          "name": "F4",
          "ticks": 198624,
          "time": 155.17499999999998,
          "velocity": 0.7874015748031497
        },
        {
          "duration": 0.07499999999998863,
          "durationTicks": 96,
          "midi": 69,
          "name": "A4",
          "ticks": 198720,
          "time": 155.25,
          "velocity": 0.7874015748031497
        },
        {
          "duration": 0.29999999999998295,
          "durationTicks": 384,
          "midi": 57,
          "name": "A3",
          "ticks": 198720,
          "time": 155.25,
          "velocity": 0.9606299212598425
        },
        {
          "duration": 0.29999999999998295,
          "durationTicks": 384,
          "midi": 60,
          "name": "C4",
          "ticks": 198720,
          "time": 155.25,
          "velocity": 0.9606299212598425
        },
        {
          "duration": 0.07499999999998863,
          "durationTicks": 96,
          "midi": 65,
          "name": "F4",
          "ticks": 198720,
          "time": 155.25,
          "velocity": 0.9606299212598425
        },
        {
          "duration": 0.15000000000000568,
          "durationTicks": 192,
          "midi": 65,
          "name": "F4",
          "ticks": 198816,
          "time": 155.325,
          "velocity": 0.7874015748031497
        },
        {
          "duration": 0.07499999999998863,
          "durationTicks": 96,
          "midi": 69,
          "name": "A4",
          "ticks": 198912,
          "time": 155.4,
          "velocity": 0.7874015748031497
        },
        {
          "duration": 0.07499999999998863,
          "durationTicks": 96,
          "midi": 65,
          "name": "F4",
          "ticks": 199008,
          "time": 155.475,
          "velocity": 0.7874015748031497
        },
        {
          "duration": 0.07500000000001705,
          "durationTicks": 96,
          "midi": 69,
          "name": "A4",
          "ticks": 199104,
          "time": 155.54999999999998,
          "velocity": 0.7874015748031497
        },
        {
          "duration": 0.15000000000000568,
          "durationTicks": 192,
          "midi": 57,
          "name": "A3",
          "ticks": 199104,
          "time": 155.54999999999998,
          "velocity": 0.9606299212598425
        },
        {
          "duration": 0.15000000000000568,
          "durationTicks": 192,
          "midi": 60,
          "name": "C4",
          "ticks": 199104,
          "time": 155.54999999999998,
          "velocity": 0.9606299212598425
        },
        {
          "duration": 0.07500000000001705,
          "durationTicks": 96,
          "midi": 65,
          "name": "F4",
          "ticks": 199104,
          "time": 155.54999999999998,
          "velocity": 0.9606299212598425
        },
        {
          "duration": 0.07499999999998863,
          "durationTicks": 96,
          "midi": 65,
          "name": "F4",
          "ticks": 199200,
          "time": 155.625,
          "velocity": 0.7874015748031497
        },
        {
          "duration": 0.07500000000001705,
          "durationTicks": 96,
          "midi": 69,
          "name": "A4",
          "ticks": 199296,
          "time": 155.7,
          "velocity": 0.7874015748031497
        },
        {
          "duration": 0.30000000000001137,
          "durationTicks": 384,
          "midi": 55,
          "name": "G3",
          "ticks": 199296,
          "time": 155.7,
          "velocity": 0.9606299212598425
        },
        {
          "duration": 0.30000000000001137,
          "durationTicks": 384,
          "midi": 60,
          "name": "C4",
          "ticks": 199296,
          "time": 155.7,
          "velocity": 0.9606299212598425
        },
        {
          "duration": 0.30000000000001137,
          "durationTicks": 384,
          "midi": 64,
          "name": "E4",
          "ticks": 199296,
          "time": 155.7,
          "velocity": 0.9606299212598425
        },
        {
          "duration": 0.07499999999998863,
          "durationTicks": 96,
          "midi": 65,
          "name": "F4",
          "ticks": 199392,
          "time": 155.775,
          "velocity": 0.7874015748031497
        },
        {
          "duration": 0.07499999999998863,
          "durationTicks": 96,
          "midi": 69,
          "name": "A4",
          "ticks": 199488,
          "time": 155.85,
          "velocity": 0.7874015748031497
        },
        {
          "duration": 0.07500000000001705,
          "durationTicks": 96,
          "midi": 65,
          "name": "F4",
          "ticks": 199584,
          "time": 155.92499999999998,
          "velocity": 0.7874015748031497
        },
        {
          "duration": 0.07499999999998863,
          "durationTicks": 96,
          "midi": 67,
          "name": "G4",
          "ticks": 199680,
          "time": 156,
          "velocity": 0.7874015748031497
        },
        {
          "duration": 0.07500000000001705,
          "durationTicks": 96,
          "midi": 64,
          "name": "E4",
          "ticks": 199776,
          "time": 156.075,
          "velocity": 0.7874015748031497
        },
        {
          "duration": 0.07499999999998863,
          "durationTicks": 96,
          "midi": 67,
          "name": "G4",
          "ticks": 199872,
          "time": 156.15,
          "velocity": 0.7874015748031497
        },
        {
          "duration": 0.07499999999998863,
          "durationTicks": 96,
          "midi": 64,
          "name": "E4",
          "ticks": 199968,
          "time": 156.225,
          "velocity": 0.7874015748031497
        },
        {
          "duration": 0.07500000000001705,
          "durationTicks": 96,
          "midi": 67,
          "name": "G4",
          "ticks": 200064,
          "time": 156.29999999999998,
          "velocity": 0.7874015748031497
        },
        {
          "duration": 0.07499999999998863,
          "durationTicks": 96,
          "midi": 64,
          "name": "E4",
          "ticks": 200160,
          "time": 156.375,
          "velocity": 0.7874015748031497
        },
        {
          "duration": 0.07500000000001705,
          "durationTicks": 96,
          "midi": 67,
          "name": "G4",
          "ticks": 200256,
          "time": 156.45,
          "velocity": 0.7874015748031497
        },
        {
          "duration": 0.07499999999998863,
          "durationTicks": 96,
          "midi": 64,
          "name": "E4",
          "ticks": 200352,
          "time": 156.525,
          "velocity": 0.7874015748031497
        },
        {
          "duration": 0.07499999999998863,
          "durationTicks": 96,
          "midi": 67,
          "name": "G4",
          "ticks": 200448,
          "time": 156.6,
          "velocity": 0.7874015748031497
        },
        {
          "duration": 0.07500000000001705,
          "durationTicks": 96,
          "midi": 64,
          "name": "E4",
          "ticks": 200544,
          "time": 156.67499999999998,
          "velocity": 0.7874015748031497
        },
        {
          "duration": 0.07499999999998863,
          "durationTicks": 96,
          "midi": 67,
          "name": "G4",
          "ticks": 200640,
          "time": 156.75,
          "velocity": 0.7874015748031497
        },
        {
          "duration": 0.07500000000001705,
          "durationTicks": 96,
          "midi": 64,
          "name": "E4",
          "ticks": 200736,
          "time": 156.825,
          "velocity": 0.7874015748031497
        },
        {
          "duration": 0.07499999999998863,
          "durationTicks": 96,
          "midi": 67,
          "name": "G4",
          "ticks": 200832,
          "time": 156.9,
          "velocity": 0.7874015748031497
        },
        {
          "duration": 0.07499999999998863,
          "durationTicks": 96,
          "midi": 64,
          "name": "E4",
          "ticks": 200928,
          "time": 156.975,
          "velocity": 0.7874015748031497
        },
        {
          "duration": 0.07500000000001705,
          "durationTicks": 96,
          "midi": 67,
          "name": "G4",
          "ticks": 201024,
          "time": 157.04999999999998,
          "velocity": 0.7874015748031497
        },
        {
          "duration": 0.07499999999998863,
          "durationTicks": 96,
          "midi": 64,
          "name": "E4",
          "ticks": 201120,
          "time": 157.125,
          "velocity": 0.7874015748031497
        },
        {
          "duration": 0.07500000000001705,
          "durationTicks": 96,
          "midi": 71,
          "name": "B4",
          "ticks": 201216,
          "time": 157.2,
          "velocity": 0.7874015748031497
        },
        {
          "duration": 0.07499999999998863,
          "durationTicks": 96,
          "midi": 67,
          "name": "G4",
          "ticks": 201312,
          "time": 157.275,
          "velocity": 0.7874015748031497
        },
        {
          "duration": 0.07499999999998863,
          "durationTicks": 96,
          "midi": 71,
          "name": "B4",
          "ticks": 201408,
          "time": 157.35,
          "velocity": 0.7874015748031497
        },
        {
          "duration": 0.07500000000001705,
          "durationTicks": 96,
          "midi": 67,
          "name": "G4",
          "ticks": 201504,
          "time": 157.42499999999998,
          "velocity": 0.7874015748031497
        },
        {
          "duration": 0.07499999999998863,
          "durationTicks": 96,
          "midi": 71,
          "name": "B4",
          "ticks": 201600,
          "time": 157.5,
          "velocity": 0.7874015748031497
        },
        {
          "duration": 0.15000000000000568,
          "durationTicks": 192,
          "midi": 55,
          "name": "G3",
          "ticks": 201600,
          "time": 157.5,
          "velocity": 0.9606299212598425
        },
        {
          "duration": 0.15000000000000568,
          "durationTicks": 192,
          "midi": 59,
          "name": "B3",
          "ticks": 201600,
          "time": 157.5,
          "velocity": 0.9606299212598425
        },
        {
          "duration": 0.15000000000000568,
          "durationTicks": 192,
          "midi": 62,
          "name": "D4",
          "ticks": 201600,
          "time": 157.5,
          "velocity": 0.9606299212598425
        },
        {
          "duration": 0.07500000000001705,
          "durationTicks": 96,
          "midi": 67,
          "name": "G4",
          "ticks": 201696,
          "time": 157.575,
          "velocity": 0.7874015748031497
        },
        {
          "duration": 0.07499999999998863,
          "durationTicks": 96,
          "midi": 71,
          "name": "B4",
          "ticks": 201792,
          "time": 157.65,
          "velocity": 0.7874015748031497
        },
        {
          "duration": 0.29999999999998295,
          "durationTicks": 384,
          "midi": 55,
          "name": "G3",
          "ticks": 201792,
          "time": 157.65,
          "velocity": 0.9606299212598425
        },
        {
          "duration": 0.29999999999998295,
          "durationTicks": 384,
          "midi": 59,
          "name": "B3",
          "ticks": 201792,
          "time": 157.65,
          "velocity": 0.9606299212598425
        },
        {
          "duration": 0.29999999999998295,
          "durationTicks": 384,
          "midi": 62,
          "name": "D4",
          "ticks": 201792,
          "time": 157.65,
          "velocity": 0.9606299212598425
        },
        {
          "duration": 0.07499999999998863,
          "durationTicks": 96,
          "midi": 67,
          "name": "G4",
          "ticks": 201888,
          "time": 157.725,
          "velocity": 0.7874015748031497
        },
        {
          "duration": 0.07500000000001705,
          "durationTicks": 96,
          "midi": 71,
          "name": "B4",
          "ticks": 201984,
          "time": 157.79999999999998,
          "velocity": 0.7874015748031497
        },
        {
          "duration": 0.07499999999998863,
          "durationTicks": 96,
          "midi": 67,
          "name": "G4",
          "ticks": 202080,
          "time": 157.875,
          "velocity": 0.7874015748031497
        },
        {
          "duration": 0.07500000000001705,
          "durationTicks": 96,
          "midi": 71,
          "name": "B4",
          "ticks": 202176,
          "time": 157.95,
          "velocity": 0.7874015748031497
        },
        {
          "duration": 0.15000000000000568,
          "durationTicks": 192,
          "midi": 55,
          "name": "G3",
          "ticks": 202176,
          "time": 157.95,
          "velocity": 0.9606299212598425
        },
        {
          "duration": 0.15000000000000568,
          "durationTicks": 192,
          "midi": 59,
          "name": "B3",
          "ticks": 202176,
          "time": 157.95,
          "velocity": 0.9606299212598425
        },
        {
          "duration": 0.15000000000000568,
          "durationTicks": 192,
          "midi": 62,
          "name": "D4",
          "ticks": 202176,
          "time": 157.95,
          "velocity": 0.9606299212598425
        },
        {
          "duration": 0.07499999999998863,
          "durationTicks": 96,
          "midi": 67,
          "name": "G4",
          "ticks": 202272,
          "time": 158.025,
          "velocity": 0.7874015748031497
        },
        {
          "duration": 0.07499999999998863,
          "durationTicks": 96,
          "midi": 71,
          "name": "B4",
          "ticks": 202368,
          "time": 158.1,
          "velocity": 0.7874015748031497
        },
        {
          "duration": 0.30000000000001137,
          "durationTicks": 384,
          "midi": 55,
          "name": "G3",
          "ticks": 202368,
          "time": 158.1,
          "velocity": 0.9606299212598425
        },
        {
          "duration": 0.30000000000001137,
          "durationTicks": 384,
          "midi": 60,
          "name": "C4",
          "ticks": 202368,
          "time": 158.1,
          "velocity": 0.9606299212598425
        },
        {
          "duration": 0.30000000000001137,
          "durationTicks": 384,
          "midi": 64,
          "name": "E4",
          "ticks": 202368,
          "time": 158.1,
          "velocity": 0.9606299212598425
        },
        {
          "duration": 0.07500000000001705,
          "durationTicks": 96,
          "midi": 67,
          "name": "G4",
          "ticks": 202464,
          "time": 158.17499999999998,
          "velocity": 0.7874015748031497
        },
        {
          "duration": 0.07499999999998863,
          "durationTicks": 96,
          "midi": 71,
          "name": "B4",
          "ticks": 202560,
          "time": 158.25,
          "velocity": 0.7874015748031497
        },
        {
          "duration": 0.07500000000001705,
          "durationTicks": 96,
          "midi": 67,
          "name": "G4",
          "ticks": 202656,
          "time": 158.325,
          "velocity": 0.7874015748031497
        },
        {
          "duration": 0.07499999999998863,
          "durationTicks": 96,
          "midi": 72,
          "name": "C5",
          "ticks": 202752,
          "time": 158.4,
          "velocity": 0.7874015748031497
        },
        {
          "duration": 0.07499999999998863,
          "durationTicks": 96,
          "midi": 64,
          "name": "E4",
          "ticks": 202848,
          "time": 158.475,
          "velocity": 0.7874015748031497
        },
        {
          "duration": 0.07500000000001705,
          "durationTicks": 96,
          "midi": 72,
          "name": "C5",
          "ticks": 202944,
          "time": 158.54999999999998,
          "velocity": 0.7874015748031497
        },
        {
          "duration": 0.07499999999998863,
          "durationTicks": 96,
          "midi": 64,
          "name": "E4",
          "ticks": 203040,
          "time": 158.625,
          "velocity": 0.7874015748031497
        },
        {
          "duration": 0.07500000000001705,
          "durationTicks": 96,
          "midi": 72,
          "name": "C5",
          "ticks": 203136,
          "time": 158.7,
          "velocity": 0.7874015748031497
        },
        {
          "duration": 0.07499999999998863,
          "durationTicks": 96,
          "midi": 64,
          "name": "E4",
          "ticks": 203232,
          "time": 158.775,
          "velocity": 0.7874015748031497
        },
        {
          "duration": 0.07499999999998863,
          "durationTicks": 96,
          "midi": 72,
          "name": "C5",
          "ticks": 203328,
          "time": 158.85,
          "velocity": 0.7874015748031497
        },
        {
          "duration": 0.07500000000001705,
          "durationTicks": 96,
          "midi": 64,
          "name": "E4",
          "ticks": 203424,
          "time": 158.92499999999998,
          "velocity": 0.7874015748031497
        },
        {
          "duration": 0.07499999999998863,
          "durationTicks": 96,
          "midi": 72,
          "name": "C5",
          "ticks": 203520,
          "time": 159,
          "velocity": 0.7874015748031497
        },
        {
          "duration": 0.07500000000001705,
          "durationTicks": 96,
          "midi": 64,
          "name": "E4",
          "ticks": 203616,
          "time": 159.075,
          "velocity": 0.7874015748031497
        },
        {
          "duration": 0.07499999999998863,
          "durationTicks": 96,
          "midi": 72,
          "name": "C5",
          "ticks": 203712,
          "time": 159.15,
          "velocity": 0.7874015748031497
        },
        {
          "duration": 0.07499999999998863,
          "durationTicks": 96,
          "midi": 64,
          "name": "E4",
          "ticks": 203808,
          "time": 159.225,
          "velocity": 0.7874015748031497
        },
        {
          "duration": 0.07500000000001705,
          "durationTicks": 96,
          "midi": 72,
          "name": "C5",
          "ticks": 203904,
          "time": 159.29999999999998,
          "velocity": 0.7874015748031497
        },
        {
          "duration": 0.07499999999998863,
          "durationTicks": 96,
          "midi": 64,
          "name": "E4",
          "ticks": 204000,
          "time": 159.375,
          "velocity": 0.7874015748031497
        },
        {
          "duration": 0.07500000000001705,
          "durationTicks": 96,
          "midi": 72,
          "name": "C5",
          "ticks": 204096,
          "time": 159.45,
          "velocity": 0.7874015748031497
        },
        {
          "duration": 0.07499999999998863,
          "durationTicks": 96,
          "midi": 64,
          "name": "E4",
          "ticks": 204192,
          "time": 159.525,
          "velocity": 0.7874015748031497
        },
        {
          "duration": 0.07499999999998863,
          "durationTicks": 96,
          "midi": 69,
          "name": "A4",
          "ticks": 204288,
          "time": 159.6,
          "velocity": 0.7874015748031497
        },
        {
          "duration": 1.1999999999999886,
          "durationTicks": 1536,
          "midi": 60,
          "name": "C4",
          "ticks": 204288,
          "time": 159.6,
          "velocity": 0.9606299212598425
        },
        {
          "duration": 1.1999999999999886,
          "durationTicks": 1536,
          "midi": 57,
          "name": "A3",
          "ticks": 204288,
          "time": 159.6,
          "velocity": 0.9606299212598425
        },
        {
          "duration": 0.07500000000001705,
          "durationTicks": 96,
          "midi": 65,
          "name": "F4",
          "ticks": 204384,
          "time": 159.67499999999998,
          "velocity": 0.7874015748031497
        },
        {
          "duration": 0.07499999999998863,
          "durationTicks": 96,
          "midi": 69,
          "name": "A4",
          "ticks": 204480,
          "time": 159.75,
          "velocity": 0.7874015748031497
        },
        {
          "duration": 0.07500000000001705,
          "durationTicks": 96,
          "midi": 65,
          "name": "F4",
          "ticks": 204576,
          "time": 159.825,
          "velocity": 0.7874015748031497
        },
        {
          "duration": 0.07499999999998863,
          "durationTicks": 96,
          "midi": 69,
          "name": "A4",
          "ticks": 204672,
          "time": 159.9,
          "velocity": 0.7874015748031497
        },
        {
          "duration": 0.07499999999998863,
          "durationTicks": 96,
          "midi": 65,
          "name": "F4",
          "ticks": 204768,
          "time": 159.975,
          "velocity": 0.7874015748031497
        },
        {
          "duration": 0.07500000000001705,
          "durationTicks": 96,
          "midi": 69,
          "name": "A4",
          "ticks": 204864,
          "time": 160.04999999999998,
          "velocity": 0.7874015748031497
        },
        {
          "duration": 0.07499999999998863,
          "durationTicks": 96,
          "midi": 65,
          "name": "F4",
          "ticks": 204960,
          "time": 160.125,
          "velocity": 0.7874015748031497
        },
        {
          "duration": 0.07500000000001705,
          "durationTicks": 96,
          "midi": 69,
          "name": "A4",
          "ticks": 205056,
          "time": 160.2,
          "velocity": 0.7874015748031497
        },
        {
          "duration": 0.07499999999998863,
          "durationTicks": 96,
          "midi": 65,
          "name": "F4",
          "ticks": 205152,
          "time": 160.275,
          "velocity": 0.7874015748031497
        },
        {
          "duration": 0.07499999999998863,
          "durationTicks": 96,
          "midi": 69,
          "name": "A4",
          "ticks": 205248,
          "time": 160.35,
          "velocity": 0.7874015748031497
        },
        {
          "duration": 0.07500000000001705,
          "durationTicks": 96,
          "midi": 65,
          "name": "F4",
          "ticks": 205344,
          "time": 160.42499999999998,
          "velocity": 0.7874015748031497
        },
        {
          "duration": 0.07499999999998863,
          "durationTicks": 96,
          "midi": 69,
          "name": "A4",
          "ticks": 205440,
          "time": 160.5,
          "velocity": 0.7874015748031497
        },
        {
          "duration": 0.07500000000001705,
          "durationTicks": 96,
          "midi": 65,
          "name": "F4",
          "ticks": 205536,
          "time": 160.575,
          "velocity": 0.7874015748031497
        },
        {
          "duration": 0.07499999999998863,
          "durationTicks": 96,
          "midi": 69,
          "name": "A4",
          "ticks": 205632,
          "time": 160.65,
          "velocity": 0.7874015748031497
        },
        {
          "duration": 0.07499999999998863,
          "durationTicks": 96,
          "midi": 65,
          "name": "F4",
          "ticks": 205728,
          "time": 160.725,
          "velocity": 0.7874015748031497
        },
        {
          "duration": 0.07500000000001705,
          "durationTicks": 96,
          "midi": 67,
          "name": "G4",
          "ticks": 205824,
          "time": 160.79999999999998,
          "velocity": 0.7874015748031497
        },
        {
          "duration": 1.200000000000017,
          "durationTicks": 1536,
          "midi": 62,
          "name": "D4",
          "ticks": 205824,
          "time": 160.79999999999998,
          "velocity": 0.9606299212598425
        },
        {
          "duration": 0.07500000000001705,
          "durationTicks": 96,
          "midi": 59,
          "name": "B3",
          "ticks": 205824,
          "time": 160.79999999999998,
          "velocity": 0.9606299212598425
        },
        {
          "duration": 0.15000000000000568,
          "durationTicks": 192,
          "midi": 59,
          "name": "B3",
          "ticks": 205920,
          "time": 160.875,
          "velocity": 0.7874015748031497
        },
        {
          "duration": 0.07500000000001705,
          "durationTicks": 96,
          "midi": 67,
          "name": "G4",
          "ticks": 206016,
          "time": 160.95,
          "velocity": 0.7874015748031497
        },
        {
          "duration": 0.14999999999997726,
          "durationTicks": 192,
          "midi": 59,
          "name": "B3",
          "ticks": 206112,
          "time": 161.025,
          "velocity": 0.7874015748031497
        },
        {
          "duration": 0.07499999999998863,
          "durationTicks": 96,
          "midi": 67,
          "name": "G4",
          "ticks": 206208,
          "time": 161.1,
          "velocity": 0.7874015748031497
        },
        {
          "duration": 0.15000000000000568,
          "durationTicks": 192,
          "midi": 59,
          "name": "B3",
          "ticks": 206304,
          "time": 161.17499999999998,
          "velocity": 0.7874015748031497
        },
        {
          "duration": 0.07499999999998863,
          "durationTicks": 96,
          "midi": 67,
          "name": "G4",
          "ticks": 206400,
          "time": 161.25,
          "velocity": 0.7874015748031497
        },
        {
          "duration": 0.15000000000000568,
          "durationTicks": 192,
          "midi": 59,
          "name": "B3",
          "ticks": 206496,
          "time": 161.325,
          "velocity": 0.7874015748031497
        },
        {
          "duration": 0.07499999999998863,
          "durationTicks": 96,
          "midi": 67,
          "name": "G4",
          "ticks": 206592,
          "time": 161.4,
          "velocity": 0.7874015748031497
        },
        {
          "duration": 0.15000000000000568,
          "durationTicks": 192,
          "midi": 59,
          "name": "B3",
          "ticks": 206688,
          "time": 161.475,
          "velocity": 0.7874015748031497
        },
        {
          "duration": 0.07500000000001705,
          "durationTicks": 96,
          "midi": 67,
          "name": "G4",
          "ticks": 206784,
          "time": 161.54999999999998,
          "velocity": 0.7874015748031497
        },
        {
          "duration": 0.15000000000000568,
          "durationTicks": 192,
          "midi": 59,
          "name": "B3",
          "ticks": 206880,
          "time": 161.625,
          "velocity": 0.7874015748031497
        },
        {
          "duration": 0.07500000000001705,
          "durationTicks": 96,
          "midi": 67,
          "name": "G4",
          "ticks": 206976,
          "time": 161.7,
          "velocity": 0.7874015748031497
        },
        {
          "duration": 0.14999999999997726,
          "durationTicks": 192,
          "midi": 59,
          "name": "B3",
          "ticks": 207072,
          "time": 161.775,
          "velocity": 0.7874015748031497
        },
        {
          "duration": 0.07499999999998863,
          "durationTicks": 96,
          "midi": 67,
          "name": "G4",
          "ticks": 207168,
          "time": 161.85,
          "velocity": 0.7874015748031497
        },
        {
          "duration": 0.07500000000001705,
          "durationTicks": 96,
          "midi": 59,
          "name": "B3",
          "ticks": 207264,
          "time": 161.92499999999998,
          "velocity": 0.7874015748031497
        },
        {
          "duration": 0.07499999999998863,
          "durationTicks": 96,
          "midi": 64,
          "name": "E4",
          "ticks": 207360,
          "time": 162,
          "velocity": 0.7874015748031497
        },
        {
          "duration": 0.07499999999998863,
          "durationTicks": 96,
          "midi": 60,
          "name": "C4",
          "ticks": 207360,
          "time": 162,
          "velocity": 0.9606299212598425
        },
        {
          "duration": 0.29999999999998295,
          "durationTicks": 384,
          "midi": 55,
          "name": "G3",
          "ticks": 207360,
          "time": 162,
          "velocity": 0.9606299212598425
        },
        {
          "duration": 0.15000000000000568,
          "durationTicks": 192,
          "midi": 60,
          "name": "C4",
          "ticks": 207456,
          "time": 162.075,
          "velocity": 0.7874015748031497
        },
        {
          "duration": 0.07499999999998863,
          "durationTicks": 96,
          "midi": 64,
          "name": "E4",
          "ticks": 207552,
          "time": 162.15,
          "velocity": 0.7874015748031497
        },
        {
          "duration": 0.07499999999998863,
          "durationTicks": 96,
          "midi": 60,
          "name": "C4",
          "ticks": 207648,
          "time": 162.225,
          "velocity": 0.7874015748031497
        },
        {
          "duration": 0.07500000000001705,
          "durationTicks": 96,
          "midi": 64,
          "name": "E4",
          "ticks": 207744,
          "time": 162.29999999999998,
          "velocity": 0.7874015748031497
        },
        {
          "duration": 0.07500000000001705,
          "durationTicks": 96,
          "midi": 60,
          "name": "C4",
          "ticks": 207744,
          "time": 162.29999999999998,
          "velocity": 0.9606299212598425
        },
        {
          "duration": 0.15000000000000568,
          "durationTicks": 192,
          "midi": 55,
          "name": "G3",
          "ticks": 207744,
          "time": 162.29999999999998,
          "velocity": 0.9606299212598425
        },
        {
          "duration": 0.07499999999998863,
          "durationTicks": 96,
          "midi": 60,
          "name": "C4",
          "ticks": 207840,
          "time": 162.375,
          "velocity": 0.7874015748031497
        },
        {
          "duration": 0.07500000000001705,
          "durationTicks": 96,
          "midi": 64,
          "name": "E4",
          "ticks": 207936,
          "time": 162.45,
          "velocity": 0.7874015748031497
        },
        {
          "duration": 0.30000000000001137,
          "durationTicks": 384,
          "midi": 62,
          "name": "D4",
          "ticks": 207936,
          "time": 162.45,
          "velocity": 0.9606299212598425
        },
        {
          "duration": 0.30000000000001137,
          "durationTicks": 384,
          "midi": 59,
          "name": "B3",
          "ticks": 207936,
          "time": 162.45,
          "velocity": 0.9606299212598425
        },
        {
          "duration": 0.07499999999998863,
          "durationTicks": 96,
          "midi": 60,
          "name": "C4",
          "ticks": 208032,
          "time": 162.525,
          "velocity": 0.7874015748031497
        },
        {
          "duration": 0.07499999999998863,
          "durationTicks": 96,
          "midi": 64,
          "name": "E4",
          "ticks": 208128,
          "time": 162.6,
          "velocity": 0.7874015748031497
        },
        {
          "duration": 0.07500000000001705,
          "durationTicks": 96,
          "midi": 60,
          "name": "C4",
          "ticks": 208224,
          "time": 162.67499999999998,
          "velocity": 0.7874015748031497
        },
        {
          "duration": 0.07499999999998863,
          "durationTicks": 96,
          "midi": 64,
          "name": "E4",
          "ticks": 208320,
          "time": 162.75,
          "velocity": 0.7874015748031497
        },
        {
          "duration": 0.15000000000000568,
          "durationTicks": 192,
          "midi": 62,
          "name": "D4",
          "ticks": 208320,
          "time": 162.75,
          "velocity": 0.9606299212598425
        },
        {
          "duration": 0.15000000000000568,
          "durationTicks": 192,
          "midi": 59,
          "name": "B3",
          "ticks": 208320,
          "time": 162.75,
          "velocity": 0.9606299212598425
        },
        {
          "duration": 0.07500000000001705,
          "durationTicks": 96,
          "midi": 60,
          "name": "C4",
          "ticks": 208416,
          "time": 162.825,
          "velocity": 0.7874015748031497
        },
        {
          "duration": 0.0015625000000056843,
          "durationTicks": 2,
          "midi": 64,
          "name": "E4",
          "ticks": 208512,
          "time": 162.9,
          "velocity": 0.7874015748031497
        },
        {
          "duration": 0.07499999999998863,
          "durationTicks": 96,
          "midi": 60,
          "name": "C4",
          "ticks": 208512,
          "time": 162.9,
          "velocity": 0.9606299212598425
        },
        {
          "duration": 0.15000000000000568,
          "durationTicks": 192,
          "midi": 60,
          "name": "C4",
          "ticks": 208608,
          "time": 162.975,
          "velocity": 0.7874015748031497
        },
        {
          "duration": 0.15000000000000568,
          "durationTicks": 192,
          "midi": 64,
          "name": "E4",
          "ticks": 208704,
          "time": 163.04999999999998,
          "velocity": 0.7874015748031497
        },
        {
          "duration": 0.07499999999998863,
          "durationTicks": 96,
          "midi": 60,
          "name": "C4",
          "ticks": 208800,
          "time": 163.125,
          "velocity": 0.7874015748031497
        },
        {
          "duration": 0.07500000000001705,
          "durationTicks": 96,
          "midi": 64,
          "name": "E4",
          "ticks": 208896,
          "time": 163.2,
          "velocity": 0.7874015748031497
        },
        {
          "duration": 0.07499999999998863,
          "durationTicks": 96,
          "midi": 58,
          "name": "A#3",
          "ticks": 208992,
          "time": 163.275,
          "velocity": 0.7874015748031497
        },
        {
          "duration": 0.07499999999998863,
          "durationTicks": 96,
          "midi": 64,
          "name": "E4",
          "ticks": 209088,
          "time": 163.35,
          "velocity": 0.7874015748031497
        },
        {
          "duration": 0.07500000000001705,
          "durationTicks": 96,
          "midi": 58,
          "name": "A#3",
          "ticks": 209184,
          "time": 163.42499999999998,
          "velocity": 0.7874015748031497
        },
        {
          "duration": 0.07499999999998863,
          "durationTicks": 96,
          "midi": 64,
          "name": "E4",
          "ticks": 209280,
          "time": 163.5,
          "velocity": 0.7874015748031497
        },
        {
          "duration": 0.07500000000001705,
          "durationTicks": 96,
          "midi": 58,
          "name": "A#3",
          "ticks": 209376,
          "time": 163.575,
          "velocity": 0.7874015748031497
        },
        {
          "duration": 0.07499999999998863,
          "durationTicks": 96,
          "midi": 64,
          "name": "E4",
          "ticks": 209472,
          "time": 163.65,
          "velocity": 0.7874015748031497
        },
        {
          "duration": 0.07499999999998863,
          "durationTicks": 96,
          "midi": 58,
          "name": "A#3",
          "ticks": 209568,
          "time": 163.725,
          "velocity": 0.7874015748031497
        },
        {
          "duration": 0.07500000000001705,
          "durationTicks": 96,
          "midi": 64,
          "name": "E4",
          "ticks": 209664,
          "time": 163.79999999999998,
          "velocity": 0.7874015748031497
        },
        {
          "duration": 0.07499999999998863,
          "durationTicks": 96,
          "midi": 58,
          "name": "A#3",
          "ticks": 209760,
          "time": 163.875,
          "velocity": 0.7874015748031497
        },
        {
          "duration": 0.07500000000001705,
          "durationTicks": 96,
          "midi": 64,
          "name": "E4",
          "ticks": 209856,
          "time": 163.95,
          "velocity": 0.7874015748031497
        },
        {
          "duration": 0.07499999999998863,
          "durationTicks": 96,
          "midi": 58,
          "name": "A#3",
          "ticks": 209952,
          "time": 164.025,
          "velocity": 0.7874015748031497
        },
        {
          "duration": 0.07499999999998863,
          "durationTicks": 96,
          "midi": 64,
          "name": "E4",
          "ticks": 210048,
          "time": 164.1,
          "velocity": 0.7874015748031497
        },
        {
          "duration": 0.07500000000001705,
          "durationTicks": 96,
          "midi": 58,
          "name": "A#3",
          "ticks": 210144,
          "time": 164.17499999999998,
          "velocity": 0.7874015748031497
        },
        {
          "duration": 0.07499999999998863,
          "durationTicks": 96,
          "midi": 64,
          "name": "E4",
          "ticks": 210240,
          "time": 164.25,
          "velocity": 0.7874015748031497
        },
        {
          "duration": 0.07500000000001705,
          "durationTicks": 96,
          "midi": 58,
          "name": "A#3",
          "ticks": 210336,
          "time": 164.325,
          "velocity": 0.7874015748031497
        },
        {
          "duration": 0.07499999999998863,
          "durationTicks": 96,
          "midi": 77,
          "name": "F5",
          "ticks": 210432,
          "time": 164.4,
          "velocity": 0.7874015748031497
        },
        {
          "duration": 0.07499999999998863,
          "durationTicks": 96,
          "midi": 69,
          "name": "A4",
          "ticks": 210528,
          "time": 164.475,
          "velocity": 0.7874015748031497
        },
        {
          "duration": 0.07500000000001705,
          "durationTicks": 96,
          "midi": 77,
          "name": "F5",
          "ticks": 210624,
          "time": 164.54999999999998,
          "velocity": 0.7874015748031497
        },
        {
          "duration": 0.07499999999998863,
          "durationTicks": 96,
          "midi": 69,
          "name": "A4",
          "ticks": 210720,
          "time": 164.625,
          "velocity": 0.7874015748031497
        },
        {
          "duration": 0.07500000000001705,
          "durationTicks": 96,
          "midi": 77,
          "name": "F5",
          "ticks": 210816,
          "time": 164.7,
          "velocity": 0.7874015748031497
        },
        {
          "duration": 0.15000000000000568,
          "durationTicks": 192,
          "midi": 53,
          "name": "F3",
          "ticks": 210816,
          "time": 164.7,
          "velocity": 0.9606299212598425
        },
        {
          "duration": 0.15000000000000568,
          "durationTicks": 192,
          "midi": 57,
          "name": "A3",
          "ticks": 210816,
          "time": 164.7,
          "velocity": 0.9606299212598425
        },
        {
          "duration": 0.15000000000000568,
          "durationTicks": 192,
          "midi": 60,
          "name": "C4",
          "ticks": 210816,
          "time": 164.7,
          "velocity": 0.9606299212598425
        },
        {
          "duration": 0.07499999999998863,
          "durationTicks": 96,
          "midi": 69,
          "name": "A4",
          "ticks": 210912,
          "time": 164.775,
          "velocity": 0.7874015748031497
        },
        {
          "duration": 0.07499999999998863,
          "durationTicks": 96,
          "midi": 77,
          "name": "F5",
          "ticks": 211008,
          "time": 164.85,
          "velocity": 0.7874015748031497
        },
        {
          "duration": 0.30000000000001137,
          "durationTicks": 384,
          "midi": 53,
          "name": "F3",
          "ticks": 211008,
          "time": 164.85,
          "velocity": 0.9606299212598425
        },
        {
          "duration": 0.30000000000001137,
          "durationTicks": 384,
          "midi": 57,
          "name": "A3",
          "ticks": 211008,
          "time": 164.85,
          "velocity": 0.9606299212598425
        },
        {
          "duration": 0.30000000000001137,
          "durationTicks": 384,
          "midi": 60,
          "name": "C4",
          "ticks": 211008,
          "time": 164.85,
          "velocity": 0.9606299212598425
        },
        {
          "duration": 0.07500000000001705,
          "durationTicks": 96,
          "midi": 69,
          "name": "A4",
          "ticks": 211104,
          "time": 164.92499999999998,
          "velocity": 0.7874015748031497
        },
        {
          "duration": 0.07499999999998863,
          "durationTicks": 96,
          "midi": 77,
          "name": "F5",
          "ticks": 211200,
          "time": 165,
          "velocity": 0.7874015748031497
        },
        {
          "duration": 0.07500000000001705,
          "durationTicks": 96,
          "midi": 69,
          "name": "A4",
          "ticks": 211296,
          "time": 165.075,
          "velocity": 0.7874015748031497
        },
        {
          "duration": 0.07499999999998863,
          "durationTicks": 96,
          "midi": 77,
          "name": "F5",
          "ticks": 211392,
          "time": 165.15,
          "velocity": 0.7874015748031497
        },
        {
          "duration": 0.14999999999997726,
          "durationTicks": 192,
          "midi": 53,
          "name": "F3",
          "ticks": 211392,
          "time": 165.15,
          "velocity": 0.9606299212598425
        },
        {
          "duration": 0.14999999999997726,
          "durationTicks": 192,
          "midi": 57,
          "name": "A3",
          "ticks": 211392,
          "time": 165.15,
          "velocity": 0.9606299212598425
        },
        {
          "duration": 0.14999999999997726,
          "durationTicks": 192,
          "midi": 60,
          "name": "C4",
          "ticks": 211392,
          "time": 165.15,
          "velocity": 0.9606299212598425
        },
        {
          "duration": 0.07499999999998863,
          "durationTicks": 96,
          "midi": 69,
          "name": "A4",
          "ticks": 211488,
          "time": 165.225,
          "velocity": 0.7874015748031497
        },
        {
          "duration": 0.07500000000001705,
          "durationTicks": 96,
          "midi": 77,
          "name": "F5",
          "ticks": 211584,
          "time": 165.29999999999998,
          "velocity": 0.7874015748031497
        },
        {
          "duration": 0.30000000000001137,
          "durationTicks": 384,
          "midi": 53,
          "name": "F3",
          "ticks": 211584,
          "time": 165.29999999999998,
          "velocity": 0.9606299212598425
        },
        {
          "duration": 0.30000000000001137,
          "durationTicks": 384,
          "midi": 59,
          "name": "B3",
          "ticks": 211584,
          "time": 165.29999999999998,
          "velocity": 0.9606299212598425
        },
        {
          "duration": 0.30000000000001137,
          "durationTicks": 384,
          "midi": 62,
          "name": "D4",
          "ticks": 211584,
          "time": 165.29999999999998,
          "velocity": 0.9606299212598425
        },
        {
          "duration": 0.07499999999998863,
          "durationTicks": 96,
          "midi": 69,
          "name": "A4",
          "ticks": 211680,
          "time": 165.375,
          "velocity": 0.7874015748031497
        },
        {
          "duration": 0.07500000000001705,
          "durationTicks": 96,
          "midi": 77,
          "name": "F5",
          "ticks": 211776,
          "time": 165.45,
          "velocity": 0.7874015748031497
        },
        {
          "duration": 0.07499999999998863,
          "durationTicks": 96,
          "midi": 69,
          "name": "A4",
          "ticks": 211872,
          "time": 165.525,
          "velocity": 0.7874015748031497
        },
        {
          "duration": 0.07499999999998863,
          "durationTicks": 96,
          "midi": 79,
          "name": "G5",
          "ticks": 211968,
          "time": 165.6,
          "velocity": 0.7874015748031497
        },
        {
          "duration": 0.07500000000001705,
          "durationTicks": 96,
          "midi": 71,
          "name": "B4",
          "ticks": 212064,
          "time": 165.67499999999998,
          "velocity": 0.7874015748031497
        },
        {
          "duration": 0.07499999999998863,
          "durationTicks": 96,
          "midi": 79,
          "name": "G5",
          "ticks": 212160,
          "time": 165.75,
          "velocity": 0.7874015748031497
        },
        {
          "duration": 0.07500000000001705,
          "durationTicks": 96,
          "midi": 71,
          "name": "B4",
          "ticks": 212256,
          "time": 165.825,
          "velocity": 0.7874015748031497
        },
        {
          "duration": 0.07499999999998863,
          "durationTicks": 96,
          "midi": 79,
          "name": "G5",
          "ticks": 212352,
          "time": 165.9,
          "velocity": 0.7874015748031497
        },
        {
          "duration": 0.07499999999998863,
          "durationTicks": 96,
          "midi": 71,
          "name": "B4",
          "ticks": 212448,
          "time": 165.975,
          "velocity": 0.7874015748031497
        },
        {
          "duration": 0.07500000000001705,
          "durationTicks": 96,
          "midi": 79,
          "name": "G5",
          "ticks": 212544,
          "time": 166.04999999999998,
          "velocity": 0.7874015748031497
        },
        {
          "duration": 0.07499999999998863,
          "durationTicks": 96,
          "midi": 71,
          "name": "B4",
          "ticks": 212640,
          "time": 166.125,
          "velocity": 0.7874015748031497
        },
        {
          "duration": 0.07500000000001705,
          "durationTicks": 96,
          "midi": 74,
          "name": "D5",
          "ticks": 212736,
          "time": 166.2,
          "velocity": 0.7874015748031497
        },
        {
          "duration": 0.07499999999998863,
          "durationTicks": 96,
          "midi": 71,
          "name": "B4",
          "ticks": 212832,
          "time": 166.275,
          "velocity": 0.7874015748031497
        },
        {
          "duration": 0.07499999999998863,
          "durationTicks": 96,
          "midi": 74,
          "name": "D5",
          "ticks": 212928,
          "time": 166.35,
          "velocity": 0.7874015748031497
        },
        {
          "duration": 0.07500000000001705,
          "durationTicks": 96,
          "midi": 71,
          "name": "B4",
          "ticks": 213024,
          "time": 166.42499999999998,
          "velocity": 0.7874015748031497
        },
        {
          "duration": 0.07499999999998863,
          "durationTicks": 96,
          "midi": 74,
          "name": "D5",
          "ticks": 213120,
          "time": 166.5,
          "velocity": 0.7874015748031497
        },
        {
          "duration": 0.07500000000001705,
          "durationTicks": 96,
          "midi": 71,
          "name": "B4",
          "ticks": 213216,
          "time": 166.575,
          "velocity": 0.7874015748031497
        },
        {
          "duration": 0.07499999999998863,
          "durationTicks": 96,
          "midi": 74,
          "name": "D5",
          "ticks": 213312,
          "time": 166.65,
          "velocity": 0.7874015748031497
        },
        {
          "duration": 0.07499999999998863,
          "durationTicks": 96,
          "midi": 71,
          "name": "B4",
          "ticks": 213408,
          "time": 166.725,
          "velocity": 0.7874015748031497
        },
        {
          "duration": 0.07500000000001705,
          "durationTicks": 96,
          "midi": 76,
          "name": "E5",
          "ticks": 213504,
          "time": 166.79999999999998,
          "velocity": 0.7874015748031497
        },
        {
          "duration": 0.30000000000001137,
          "durationTicks": 384,
          "midi": 57,
          "name": "A3",
          "ticks": 213504,
          "time": 166.79999999999998,
          "velocity": 0.9606299212598425
        },
        {
          "duration": 0.30000000000001137,
          "durationTicks": 384,
          "midi": 60,
          "name": "C4",
          "ticks": 213504,
          "time": 166.79999999999998,
          "velocity": 0.9606299212598425
        },
        {
          "duration": 0.30000000000001137,
          "durationTicks": 384,
          "midi": 64,
          "name": "E4",
          "ticks": 213504,
          "time": 166.79999999999998,
          "velocity": 0.9606299212598425
        },
        {
          "duration": 0.07499999999998863,
          "durationTicks": 96,
          "midi": 72,
          "name": "C5",
          "ticks": 213600,
          "time": 166.875,
          "velocity": 0.7874015748031497
        },
        {
          "duration": 0.07500000000001705,
          "durationTicks": 96,
          "midi": 76,
          "name": "E5",
          "ticks": 213696,
          "time": 166.95,
          "velocity": 0.7874015748031497
        },
        {
          "duration": 0.07499999999998863,
          "durationTicks": 96,
          "midi": 72,
          "name": "C5",
          "ticks": 213792,
          "time": 167.025,
          "velocity": 0.7874015748031497
        },
        {
          "duration": 0.07499999999998863,
          "durationTicks": 96,
          "midi": 76,
          "name": "E5",
          "ticks": 213888,
          "time": 167.1,
          "velocity": 0.7874015748031497
        },
        {
          "duration": 0.15000000000000568,
          "durationTicks": 192,
          "midi": 57,
          "name": "A3",
          "ticks": 213888,
          "time": 167.1,
          "velocity": 0.9606299212598425
        },
        {
          "duration": 0.15000000000000568,
          "durationTicks": 192,
          "midi": 60,
          "name": "C4",
          "ticks": 213888,
          "time": 167.1,
          "velocity": 0.9606299212598425
        },
        {
          "duration": 0.15000000000000568,
          "durationTicks": 192,
          "midi": 64,
          "name": "E4",
          "ticks": 213888,
          "time": 167.1,
          "velocity": 0.9606299212598425
        },
        {
          "duration": 0.07500000000001705,
          "durationTicks": 96,
          "midi": 72,
          "name": "C5",
          "ticks": 213984,
          "time": 167.17499999999998,
          "velocity": 0.7874015748031497
        },
        {
          "duration": 0.07499999999998863,
          "durationTicks": 96,
          "midi": 76,
          "name": "E5",
          "ticks": 214080,
          "time": 167.25,
          "velocity": 0.7874015748031497
        },
        {
          "duration": 0.29999999999998295,
          "durationTicks": 384,
          "midi": 55,
          "name": "G3",
          "ticks": 214080,
          "time": 167.25,
          "velocity": 0.9606299212598425
        },
        {
          "duration": 0.29999999999998295,
          "durationTicks": 384,
          "midi": 59,
          "name": "B3",
          "ticks": 214080,
          "time": 167.25,
          "velocity": 0.9606299212598425
        },
        {
          "duration": 0.29999999999998295,
          "durationTicks": 384,
          "midi": 62,
          "name": "D4",
          "ticks": 214080,
          "time": 167.25,
          "velocity": 0.9606299212598425
        },
        {
          "duration": 0.07500000000001705,
          "durationTicks": 96,
          "midi": 72,
          "name": "C5",
          "ticks": 214176,
          "time": 167.325,
          "velocity": 0.7874015748031497
        },
        {
          "duration": 0.07499999999998863,
          "durationTicks": 96,
          "midi": 76,
          "name": "E5",
          "ticks": 214272,
          "time": 167.4,
          "velocity": 0.7874015748031497
        },
        {
          "duration": 0.07499999999998863,
          "durationTicks": 96,
          "midi": 72,
          "name": "C5",
          "ticks": 214368,
          "time": 167.475,
          "velocity": 0.7874015748031497
        },
        {
          "duration": 0.07500000000001705,
          "durationTicks": 96,
          "midi": 76,
          "name": "E5",
          "ticks": 214464,
          "time": 167.54999999999998,
          "velocity": 0.7874015748031497
        },
        {
          "duration": 0.15000000000000568,
          "durationTicks": 192,
          "midi": 57,
          "name": "A3",
          "ticks": 214464,
          "time": 167.54999999999998,
          "velocity": 0.9606299212598425
        },
        {
          "duration": 0.15000000000000568,
          "durationTicks": 192,
          "midi": 60,
          "name": "C4",
          "ticks": 214464,
          "time": 167.54999999999998,
          "velocity": 0.9606299212598425
        },
        {
          "duration": 0.15000000000000568,
          "durationTicks": 192,
          "midi": 64,
          "name": "E4",
          "ticks": 214464,
          "time": 167.54999999999998,
          "velocity": 0.9606299212598425
        },
        {
          "duration": 0.07499999999998863,
          "durationTicks": 96,
          "midi": 72,
          "name": "C5",
          "ticks": 214560,
          "time": 167.625,
          "velocity": 0.7874015748031497
        },
        {
          "duration": 0.07500000000001705,
          "durationTicks": 96,
          "midi": 76,
          "name": "E5",
          "ticks": 214656,
          "time": 167.7,
          "velocity": 0.7874015748031497
        },
        {
          "duration": 0.30000000000001137,
          "durationTicks": 384,
          "midi": 55,
          "name": "G3",
          "ticks": 214656,
          "time": 167.7,
          "velocity": 0.9606299212598425
        },
        {
          "duration": 0.30000000000001137,
          "durationTicks": 384,
          "midi": 59,
          "name": "B3",
          "ticks": 214656,
          "time": 167.7,
          "velocity": 0.9606299212598425
        },
        {
          "duration": 0.30000000000001137,
          "durationTicks": 384,
          "midi": 62,
          "name": "D4",
          "ticks": 214656,
          "time": 167.7,
          "velocity": 0.9606299212598425
        },
        {
          "duration": 0.07499999999998863,
          "durationTicks": 96,
          "midi": 72,
          "name": "C5",
          "ticks": 214752,
          "time": 167.775,
          "velocity": 0.7874015748031497
        },
        {
          "duration": 0.07499999999998863,
          "durationTicks": 96,
          "midi": 76,
          "name": "E5",
          "ticks": 214848,
          "time": 167.85,
          "velocity": 0.7874015748031497
        },
        {
          "duration": 0.07500000000001705,
          "durationTicks": 96,
          "midi": 72,
          "name": "C5",
          "ticks": 214944,
          "time": 167.92499999999998,
          "velocity": 0.7874015748031497
        },
        {
          "duration": 0.07499999999998863,
          "durationTicks": 96,
          "midi": 74,
          "name": "D5",
          "ticks": 215040,
          "time": 168,
          "velocity": 0.7874015748031497
        },
        {
          "duration": 0.29999999999998295,
          "durationTicks": 384,
          "midi": 54,
          "name": "F#3",
          "ticks": 215040,
          "time": 168,
          "velocity": 0.9606299212598425
        },
        {
          "duration": 0.29999999999998295,
          "durationTicks": 384,
          "midi": 57,
          "name": "A3",
          "ticks": 215040,
          "time": 168,
          "velocity": 0.9606299212598425
        },
        {
          "duration": 0.29999999999998295,
          "durationTicks": 384,
          "midi": 60,
          "name": "C4",
          "ticks": 215040,
          "time": 168,
          "velocity": 0.9606299212598425
        },
        {
          "duration": 0.07500000000001705,
          "durationTicks": 96,
          "midi": 66,
          "name": "F#4",
          "ticks": 215136,
          "time": 168.075,
          "velocity": 0.7874015748031497
        },
        {
          "duration": 0.07499999999998863,
          "durationTicks": 96,
          "midi": 74,
          "name": "D5",
          "ticks": 215232,
          "time": 168.15,
          "velocity": 0.7874015748031497
        },
        {
          "duration": 0.07499999999998863,
          "durationTicks": 96,
          "midi": 66,
          "name": "F#4",
          "ticks": 215328,
          "time": 168.225,
          "velocity": 0.7874015748031497
        },
        {
          "duration": 0.07500000000001705,
          "durationTicks": 96,
          "midi": 74,
          "name": "D5",
          "ticks": 215424,
          "time": 168.29999999999998,
          "velocity": 0.7874015748031497
        },
        {
          "duration": 0.07499999999998863,
          "durationTicks": 96,
          "midi": 66,
          "name": "F#4",
          "ticks": 215520,
          "time": 168.375,
          "velocity": 0.7874015748031497
        },
        {
          "duration": 0.07500000000001705,
          "durationTicks": 96,
          "midi": 74,
          "name": "D5",
          "ticks": 215616,
          "time": 168.45,
          "velocity": 0.7874015748031497
        },
        {
          "duration": 0.07499999999998863,
          "durationTicks": 96,
          "midi": 66,
          "name": "F#4",
          "ticks": 215712,
          "time": 168.525,
          "velocity": 0.7874015748031497
        },
        {
          "duration": 0.07499999999998863,
          "durationTicks": 96,
          "midi": 74,
          "name": "D5",
          "ticks": 215808,
          "time": 168.6,
          "velocity": 0.7874015748031497
        },
        {
          "duration": 0.07500000000001705,
          "durationTicks": 96,
          "midi": 66,
          "name": "F#4",
          "ticks": 215904,
          "time": 168.67499999999998,
          "velocity": 0.7874015748031497
        },
        {
          "duration": 0.07499999999998863,
          "durationTicks": 96,
          "midi": 74,
          "name": "D5",
          "ticks": 216000,
          "time": 168.75,
          "velocity": 0.7874015748031497
        },
        {
          "duration": 0.07500000000001705,
          "durationTicks": 96,
          "midi": 66,
          "name": "F#4",
          "ticks": 216096,
          "time": 168.825,
          "velocity": 0.7874015748031497
        },
        {
          "duration": 0.07499999999998863,
          "durationTicks": 96,
          "midi": 74,
          "name": "D5",
          "ticks": 216192,
          "time": 168.9,
          "velocity": 0.7874015748031497
        },
        {
          "duration": 0.07499999999998863,
          "durationTicks": 96,
          "midi": 66,
          "name": "F#4",
          "ticks": 216288,
          "time": 168.975,
          "velocity": 0.7874015748031497
        },
        {
          "duration": 0.07500000000001705,
          "durationTicks": 96,
          "midi": 74,
          "name": "D5",
          "ticks": 216384,
          "time": 169.04999999999998,
          "velocity": 0.7874015748031497
        },
        {
          "duration": 0.07499999999998863,
          "durationTicks": 96,
          "midi": 66,
          "name": "F#4",
          "ticks": 216480,
          "time": 169.125,
          "velocity": 0.7874015748031497
        },
        {
          "duration": 0.07500000000001705,
          "durationTicks": 96,
          "midi": 69,
          "name": "A4",
          "ticks": 216576,
          "time": 169.2,
          "velocity": 0.7874015748031497
        },
        {
          "duration": 0.07499999999998863,
          "durationTicks": 96,
          "midi": 60,
          "name": "C4",
          "ticks": 216672,
          "time": 169.275,
          "velocity": 0.7874015748031497
        },
        {
          "duration": 0.07499999999998863,
          "durationTicks": 96,
          "midi": 69,
          "name": "A4",
          "ticks": 216768,
          "time": 169.35,
          "velocity": 0.7874015748031497
        },
        {
          "duration": 0.07500000000001705,
          "durationTicks": 96,
          "midi": 60,
          "name": "C4",
          "ticks": 216864,
          "time": 169.42499999999998,
          "velocity": 0.7874015748031497
        },
        {
          "duration": 0.07499999999998863,
          "durationTicks": 96,
          "midi": 69,
          "name": "A4",
          "ticks": 216960,
          "time": 169.5,
          "velocity": 0.7874015748031497
        },
        {
          "duration": 0.07500000000001705,
          "durationTicks": 96,
          "midi": 60,
          "name": "C4",
          "ticks": 217056,
          "time": 169.575,
          "velocity": 0.7874015748031497
        },
        {
          "duration": 0.07499999999998863,
          "durationTicks": 96,
          "midi": 69,
          "name": "A4",
          "ticks": 217152,
          "time": 169.65,
          "velocity": 0.7874015748031497
        },
        {
          "duration": 0.07499999999998863,
          "durationTicks": 96,
          "midi": 60,
          "name": "C4",
          "ticks": 217248,
          "time": 169.725,
          "velocity": 0.7874015748031497
        },
        {
          "duration": 0.07500000000001705,
          "durationTicks": 96,
          "midi": 69,
          "name": "A4",
          "ticks": 217344,
          "time": 169.79999999999998,
          "velocity": 0.7874015748031497
        },
        {
          "duration": 0.07499999999998863,
          "durationTicks": 96,
          "midi": 60,
          "name": "C4",
          "ticks": 217440,
          "time": 169.875,
          "velocity": 0.7874015748031497
        },
        {
          "duration": 0.07500000000001705,
          "durationTicks": 96,
          "midi": 69,
          "name": "A4",
          "ticks": 217536,
          "time": 169.95,
          "velocity": 0.7874015748031497
        },
        {
          "duration": 0.07499999999998863,
          "durationTicks": 96,
          "midi": 60,
          "name": "C4",
          "ticks": 217632,
          "time": 170.025,
          "velocity": 0.7874015748031497
        },
        {
          "duration": 0.07499999999998863,
          "durationTicks": 96,
          "midi": 69,
          "name": "A4",
          "ticks": 217728,
          "time": 170.1,
          "velocity": 0.7874015748031497
        },
        {
          "duration": 0.07500000000001705,
          "durationTicks": 96,
          "midi": 60,
          "name": "C4",
          "ticks": 217824,
          "time": 170.17499999999998,
          "velocity": 0.7874015748031497
        },
        {
          "duration": 0.07499999999998863,
          "durationTicks": 96,
          "midi": 69,
          "name": "A4",
          "ticks": 217920,
          "time": 170.25,
          "velocity": 0.7874015748031497
        },
        {
          "duration": 0.07500000000001705,
          "durationTicks": 96,
          "midi": 60,
          "name": "C4",
          "ticks": 218016,
          "time": 170.325,
          "velocity": 0.7874015748031497
        },
        {
          "duration": 0.07499999999998863,
          "durationTicks": 96,
          "midi": 71,
          "name": "B4",
          "ticks": 218112,
          "time": 170.4,
          "velocity": 0.7874015748031497
        },
        {
          "duration": 0.07499999999998863,
          "durationTicks": 96,
          "midi": 62,
          "name": "D4",
          "ticks": 218208,
          "time": 170.475,
          "velocity": 0.7874015748031497
        },
        {
          "duration": 0.07500000000001705,
          "durationTicks": 96,
          "midi": 71,
          "name": "B4",
          "ticks": 218304,
          "time": 170.54999999999998,
          "velocity": 0.7874015748031497
        },
        {
          "duration": 0.07499999999998863,
          "durationTicks": 96,
          "midi": 62,
          "name": "D4",
          "ticks": 218400,
          "time": 170.625,
          "velocity": 0.7874015748031497
        },
        {
          "duration": 0.07500000000001705,
          "durationTicks": 96,
          "midi": 71,
          "name": "B4",
          "ticks": 218496,
          "time": 170.7,
          "velocity": 0.7874015748031497
        },
        {
          "duration": 0.07499999999998863,
          "durationTicks": 96,
          "midi": 62,
          "name": "D4",
          "ticks": 218592,
          "time": 170.775,
          "velocity": 0.7874015748031497
        },
        {
          "duration": 0.0015625000000056843,
          "durationTicks": 2,
          "midi": 71,
          "name": "B4",
          "ticks": 218688,
          "time": 170.85,
          "velocity": 0.7874015748031497
        },
        {
          "duration": 0.30000000000001137,
          "durationTicks": 384,
          "midi": 67,
          "name": "G4",
          "ticks": 218688,
          "time": 170.85,
          "velocity": 1
        },
        {
          "duration": 0.30000000000001137,
          "durationTicks": 384,
          "midi": 76,
          "name": "E5",
          "ticks": 218688,
          "time": 170.85,
          "velocity": 1
        },
        {
          "duration": 0.07500000000001705,
          "durationTicks": 96,
          "midi": 62,
          "name": "D4",
          "ticks": 218784,
          "time": 170.92499999999998,
          "velocity": 0.7874015748031497
        },
        {
          "duration": 0.15000000000000568,
          "durationTicks": 192,
          "midi": 71,
          "name": "B4",
          "ticks": 218880,
          "time": 171,
          "velocity": 0.7874015748031497
        },
        {
          "duration": 0.07500000000001705,
          "durationTicks": 96,
          "midi": 62,
          "name": "D4",
          "ticks": 218976,
          "time": 171.075,
          "velocity": 0.7874015748031497
        },
        {
          "duration": 0.07499999999998863,
          "durationTicks": 96,
          "midi": 71,
          "name": "B4",
          "ticks": 219072,
          "time": 171.15,
          "velocity": 0.7874015748031497
        },
        {
          "duration": 0.29999999999998295,
          "durationTicks": 384,
          "midi": 65,
          "name": "F4",
          "ticks": 219072,
          "time": 171.15,
          "velocity": 1
        },
        {
          "duration": 0.29999999999998295,
          "durationTicks": 384,
          "midi": 69,
          "name": "A4",
          "ticks": 219072,
          "time": 171.15,
          "velocity": 1
        },
        {
          "duration": 0.29999999999998295,
          "durationTicks": 384,
          "midi": 74,
          "name": "D5",
          "ticks": 219072,
          "time": 171.15,
          "velocity": 1
        },
        {
          "duration": 0.07499999999998863,
          "durationTicks": 96,
          "midi": 62,
          "name": "D4",
          "ticks": 219168,
          "time": 171.225,
          "velocity": 0.7874015748031497
        },
        {
          "duration": 0.07500000000001705,
          "durationTicks": 96,
          "midi": 71,
          "name": "B4",
          "ticks": 219264,
          "time": 171.29999999999998,
          "velocity": 0.7874015748031497
        },
        {
          "duration": 0.07499999999998863,
          "durationTicks": 96,
          "midi": 62,
          "name": "D4",
          "ticks": 219360,
          "time": 171.375,
          "velocity": 0.7874015748031497
        },
        {
          "duration": 0.07500000000001705,
          "durationTicks": 96,
          "midi": 71,
          "name": "B4",
          "ticks": 219456,
          "time": 171.45,
          "velocity": 0.7874015748031497
        },
        {
          "duration": 0.15000000000000568,
          "durationTicks": 192,
          "midi": 64,
          "name": "E4",
          "ticks": 219456,
          "time": 171.45,
          "velocity": 1
        },
        {
          "duration": 0.15000000000000568,
          "durationTicks": 192,
          "midi": 67,
          "name": "G4",
          "ticks": 219456,
          "time": 171.45,
          "velocity": 1
        },
        {
          "duration": 0.15000000000000568,
          "durationTicks": 192,
          "midi": 72,
          "name": "C5",
          "ticks": 219456,
          "time": 171.45,
          "velocity": 1
        },
        {
          "duration": 0.07499999999998863,
          "durationTicks": 96,
          "midi": 62,
          "name": "D4",
          "ticks": 219552,
          "time": 171.525,
          "velocity": 0.7874015748031497
        }
      ]
    },
    {
      "channel": 13,
      "controlChanges": {},
      "pitchBends": [],
      "instrument": {
        "family": "ensemble",
        "number": 55,
        "name": "orchestra hit"
      },
      "name": "",
      "notes": [
        {
          "duration": 0.44999999999998863,
          "durationTicks": 576,
          "midi": 60,
          "name": "C4",
          "ticks": 195072,
          "time": 152.4,
          "velocity": 1
        },
        {
          "duration": 0,
          "durationTicks": 0,
          "midi": 72,
          "name": "C5",
          "ticks": 195072,
          "time": 152.4,
          "velocity": 1
        },
        {
          "duration": 0.44999999999998863,
          "durationTicks": 576,
          "midi": 48,
          "name": "C3",
          "ticks": 195072,
          "time": 152.4,
          "velocity": 1
        },
        {
          "duration": 0.44999999999998863,
          "durationTicks": 576,
          "midi": 64,
          "name": "E4",
          "ticks": 195648,
          "time": 152.85,
          "velocity": 1
        },
        {
          "duration": 0.44999999999998863,
          "durationTicks": 576,
          "midi": 76,
          "name": "E5",
          "ticks": 195648,
          "time": 152.85,
          "velocity": 1
        },
        {
          "duration": 0.44999999999998863,
          "durationTicks": 576,
          "midi": 52,
          "name": "E3",
          "ticks": 195648,
          "time": 152.85,
          "velocity": 1
        }
      ]
    },
    {
      "channel": 13,
      "controlChanges": {},
      "pitchBends": [],
      "instrument": {
        "family": "ensemble",
        "number": 48,
        "name": "string ensemble 1"
      },
      "name": "",
      "notes": [
        {
          "duration": 0.0015625000000056843,
          "durationTicks": 2,
          "midi": 69,
          "name": "A4",
          "ticks": 222720,
          "time": 174,
          "velocity": 0.7874015748031497
        },
        {
          "duration": 1.1999999999999886,
          "durationTicks": 1536,
          "midi": 72,
          "name": "C5",
          "ticks": 222720,
          "time": 174,
          "velocity": 1
        },
        {
          "duration": 1.1999999999999886,
          "durationTicks": 1536,
          "midi": 77,
          "name": "F5",
          "ticks": 222720,
          "time": 174,
          "velocity": 1
        },
        {
          "duration": 0.07500000000001705,
          "durationTicks": 96,
          "midi": 60,
          "name": "C4",
          "ticks": 222816,
          "time": 174.075,
          "velocity": 0.7874015748031497
        },
        {
          "duration": 0.14999999999997726,
          "durationTicks": 192,
          "midi": 69,
          "name": "A4",
          "ticks": 222912,
          "time": 174.15,
          "velocity": 0.7874015748031497
        },
        {
          "duration": 0.07499999999998863,
          "durationTicks": 96,
          "midi": 60,
          "name": "C4",
          "ticks": 223008,
          "time": 174.225,
          "velocity": 0.7874015748031497
        },
        {
          "duration": 0.15000000000000568,
          "durationTicks": 192,
          "midi": 69,
          "name": "A4",
          "ticks": 223104,
          "time": 174.29999999999998,
          "velocity": 0.7874015748031497
        },
        {
          "duration": 0.07499999999998863,
          "durationTicks": 96,
          "midi": 60,
          "name": "C4",
          "ticks": 223200,
          "time": 174.375,
          "velocity": 0.7874015748031497
        },
        {
          "duration": 0.15000000000000568,
          "durationTicks": 192,
          "midi": 69,
          "name": "A4",
          "ticks": 223296,
          "time": 174.45,
          "velocity": 0.7874015748031497
        },
        {
          "duration": 0.07499999999998863,
          "durationTicks": 96,
          "midi": 60,
          "name": "C4",
          "ticks": 223392,
          "time": 174.525,
          "velocity": 0.7874015748031497
        },
        {
          "duration": 0.15000000000000568,
          "durationTicks": 192,
          "midi": 69,
          "name": "A4",
          "ticks": 223488,
          "time": 174.6,
          "velocity": 0.7874015748031497
        },
        {
          "duration": 0.07500000000001705,
          "durationTicks": 96,
          "midi": 60,
          "name": "C4",
          "ticks": 223584,
          "time": 174.67499999999998,
          "velocity": 0.7874015748031497
        },
        {
          "duration": 0.15000000000000568,
          "durationTicks": 192,
          "midi": 69,
          "name": "A4",
          "ticks": 223680,
          "time": 174.75,
          "velocity": 0.7874015748031497
        },
        {
          "duration": 0.07500000000001705,
          "durationTicks": 96,
          "midi": 60,
          "name": "C4",
          "ticks": 223776,
          "time": 174.825,
          "velocity": 0.7874015748031497
        },
        {
          "duration": 0.14999999999997726,
          "durationTicks": 192,
          "midi": 69,
          "name": "A4",
          "ticks": 223872,
          "time": 174.9,
          "velocity": 0.7874015748031497
        },
        {
          "duration": 0.07499999999998863,
          "durationTicks": 96,
          "midi": 60,
          "name": "C4",
          "ticks": 223968,
          "time": 174.975,
          "velocity": 0.7874015748031497
        },
        {
          "duration": 0.15000000000000568,
          "durationTicks": 192,
          "midi": 69,
          "name": "A4",
          "ticks": 224064,
          "time": 175.04999999999998,
          "velocity": 0.7874015748031497
        },
        {
          "duration": 0.07499999999998863,
          "durationTicks": 96,
          "midi": 60,
          "name": "C4",
          "ticks": 224160,
          "time": 175.125,
          "velocity": 0.7874015748031497
        },
        {
          "duration": 0.0015625000000056843,
          "durationTicks": 2,
          "midi": 71,
          "name": "B4",
          "ticks": 224256,
          "time": 175.2,
          "velocity": 0.7874015748031497
        },
        {
          "duration": 1.200000000000017,
          "durationTicks": 1536,
          "midi": 74,
          "name": "D5",
          "ticks": 224256,
          "time": 175.2,
          "velocity": 1
        },
        {
          "duration": 1.200000000000017,
          "durationTicks": 1536,
          "midi": 79,
          "name": "G5",
          "ticks": 224256,
          "time": 175.2,
          "velocity": 1
        },
        {
          "duration": 0.07499999999998863,
          "durationTicks": 96,
          "midi": 62,
          "name": "D4",
          "ticks": 224352,
          "time": 175.275,
          "velocity": 0.7874015748031497
        },
        {
          "duration": 0.15000000000000568,
          "durationTicks": 192,
          "midi": 71,
          "name": "B4",
          "ticks": 224448,
          "time": 175.35,
          "velocity": 0.7874015748031497
        },
        {
          "duration": 0.07500000000001705,
          "durationTicks": 96,
          "midi": 62,
          "name": "D4",
          "ticks": 224544,
          "time": 175.42499999999998,
          "velocity": 0.7874015748031497
        },
        {
          "duration": 0.15000000000000568,
          "durationTicks": 192,
          "midi": 71,
          "name": "B4",
          "ticks": 224640,
          "time": 175.5,
          "velocity": 0.7874015748031497
        },
        {
          "duration": 0.07500000000001705,
          "durationTicks": 96,
          "midi": 62,
          "name": "D4",
          "ticks": 224736,
          "time": 175.575,
          "velocity": 0.7874015748031497
        },
        {
          "duration": 0.14999999999997726,
          "durationTicks": 192,
          "midi": 71,
          "name": "B4",
          "ticks": 224832,
          "time": 175.65,
          "velocity": 0.7874015748031497
        },
        {
          "duration": 0.07499999999998863,
          "durationTicks": 96,
          "midi": 62,
          "name": "D4",
          "ticks": 224928,
          "time": 175.725,
          "velocity": 0.7874015748031497
        },
        {
          "duration": 0.15000000000000568,
          "durationTicks": 192,
          "midi": 71,
          "name": "B4",
          "ticks": 225024,
          "time": 175.79999999999998,
          "velocity": 0.7874015748031497
        },
        {
          "duration": 0.07499999999998863,
          "durationTicks": 96,
          "midi": 62,
          "name": "D4",
          "ticks": 225120,
          "time": 175.875,
          "velocity": 0.7874015748031497
        },
        {
          "duration": 0.15000000000000568,
          "durationTicks": 192,
          "midi": 71,
          "name": "B4",
          "ticks": 225216,
          "time": 175.95,
          "velocity": 0.7874015748031497
        },
        {
          "duration": 0.07499999999998863,
          "durationTicks": 96,
          "midi": 62,
          "name": "D4",
          "ticks": 225312,
          "time": 176.025,
          "velocity": 0.7874015748031497
        },
        {
          "duration": 0.15000000000000568,
          "durationTicks": 192,
          "midi": 71,
          "name": "B4",
          "ticks": 225408,
          "time": 176.1,
          "velocity": 0.7874015748031497
        },
        {
          "duration": 0.07500000000001705,
          "durationTicks": 96,
          "midi": 62,
          "name": "D4",
          "ticks": 225504,
          "time": 176.17499999999998,
          "velocity": 0.7874015748031497
        },
        {
          "duration": 0.15000000000000568,
          "durationTicks": 192,
          "midi": 71,
          "name": "B4",
          "ticks": 225600,
          "time": 176.25,
          "velocity": 0.7874015748031497
        },
        {
          "duration": 0.07500000000001705,
          "durationTicks": 96,
          "midi": 62,
          "name": "D4",
          "ticks": 225696,
          "time": 176.325,
          "velocity": 0.7874015748031497
        },
        {
          "duration": 1.200000000000017,
          "durationTicks": 1536,
          "midi": 72,
          "name": "C5",
          "ticks": 228864,
          "time": 178.79999999999998,
          "velocity": 1
        },
        {
          "duration": 1.200000000000017,
          "durationTicks": 1536,
          "midi": 77,
          "name": "F5",
          "ticks": 228864,
          "time": 178.79999999999998,
          "velocity": 1
        },
        {
          "duration": 1.200000000000017,
          "durationTicks": 1536,
          "midi": 69,
          "name": "A4",
          "ticks": 228864,
          "time": 178.79999999999998,
          "velocity": 1
        },
        {
          "duration": 1.1999999999999886,
          "durationTicks": 1536,
          "midi": 79,
          "name": "G5",
          "ticks": 230400,
          "time": 180,
          "velocity": 1
        },
        {
          "duration": 1.1999999999999886,
          "durationTicks": 1536,
          "midi": 74,
          "name": "D5",
          "ticks": 230400,
          "time": 180,
          "velocity": 1
        },
        {
          "duration": 1.1999999999999886,
          "durationTicks": 1536,
          "midi": 71,
          "name": "B4",
          "ticks": 230400,
          "time": 180,
          "velocity": 1
        },
        {
          "duration": 1.200000000000017,
          "durationTicks": 1536,
          "midi": 76,
          "name": "E5",
          "ticks": 231936,
          "time": 181.2,
          "velocity": 1
        },
        {
          "duration": 1.200000000000017,
          "durationTicks": 1536,
          "midi": 72,
          "name": "C5",
          "ticks": 231936,
          "time": 181.2,
          "velocity": 1
        },
        {
          "duration": 1.200000000000017,
          "durationTicks": 1536,
          "midi": 81,
          "name": "A5",
          "ticks": 231936,
          "time": 181.2,
          "velocity": 1
        },
        {
          "duration": 1.200000000000017,
          "durationTicks": 1536,
          "midi": 69,
          "name": "A4",
          "ticks": 231936,
          "time": 181.2,
          "velocity": 1
        },
        {
          "duration": 1.1999999999999886,
          "durationTicks": 1536,
          "midi": 74,
          "name": "D5",
          "ticks": 233472,
          "time": 182.4,
          "velocity": 1
        },
        {
          "duration": 1.1999999999999886,
          "durationTicks": 1536,
          "midi": 69,
          "name": "A4",
          "ticks": 233472,
          "time": 182.4,
          "velocity": 1
        },
        {
          "duration": 1.1999999999999886,
          "durationTicks": 1536,
          "midi": 78,
          "name": "F#5",
          "ticks": 233472,
          "time": 182.4,
          "velocity": 1
        },
        {
          "duration": 1.1999999999999886,
          "durationTicks": 1536,
          "midi": 77,
          "name": "F5",
          "ticks": 235008,
          "time": 183.6,
          "velocity": 1
        },
        {
          "duration": 1.1999999999999886,
          "durationTicks": 1536,
          "midi": 69,
          "name": "A4",
          "ticks": 235008,
          "time": 183.6,
          "velocity": 1
        },
        {
          "duration": 1.1999999999999886,
          "durationTicks": 1536,
          "midi": 72,
          "name": "C5",
          "ticks": 235008,
          "time": 183.6,
          "velocity": 1
        },
        {
          "duration": 1.200000000000017,
          "durationTicks": 1536,
          "midi": 71,
          "name": "B4",
          "ticks": 236544,
          "time": 184.79999999999998,
          "velocity": 1
        },
        {
          "duration": 1.200000000000017,
          "durationTicks": 1536,
          "midi": 74,
          "name": "D5",
          "ticks": 236544,
          "time": 184.79999999999998,
          "velocity": 1
        },
        {
          "duration": 1.200000000000017,
          "durationTicks": 1536,
          "midi": 79,
          "name": "G5",
          "ticks": 236544,
          "time": 184.79999999999998,
          "velocity": 1
        }
      ]
    },
    {
      "channel": 14,
      "controlChanges": {
        "7": [
          {
            "number": 7,
            "ticks": 1536,
            "time": 1.2,
            "value": 0.6299212598425197
          }
        ]
      },
      "pitchBends": [],
      "instrument": {
        "family": "bass",
        "number": 35,
        "name": "fretless bass"
      },
      "name": "FRETLESS",
      "notes": [
        {
          "duration": 0.6031250000000001,
          "durationTicks": 772,
          "midi": 34,
          "name": "A#1",
          "ticks": 1544,
          "time": 1.2062499999999998,
          "velocity": 0.7874015748031497
        },
        {
          "duration": 0.2999999999999998,
          "durationTicks": 384,
          "midi": 29,
          "name": "F1",
          "ticks": 4196,
          "time": 3.278125,
          "velocity": 0.7874015748031497
        },
        {
          "duration": 0.3656250000000001,
          "durationTicks": 468,
          "midi": 34,
          "name": "A#1",
          "ticks": 4580,
          "time": 3.578125,
          "velocity": 0.7874015748031497
        },
        {
          "duration": 0.3406249999999993,
          "durationTicks": 436,
          "midi": 34,
          "name": "A#1",
          "ticks": 7672,
          "time": 5.99375,
          "velocity": 0.7874015748031497
        },
        {
          "duration": 0.2921875000000007,
          "durationTicks": 374,
          "midi": 29,
          "name": "F1",
          "ticks": 10328,
          "time": 8.06875,
          "velocity": 0.7874015748031497
        },
        {
          "duration": 0.2859374999999993,
          "durationTicks": 366,
          "midi": 34,
          "name": "A#1",
          "ticks": 10706,
          "time": 8.3640625,
          "velocity": 0.7874015748031497
        },
        {
          "duration": 0.21875000000000178,
          "durationTicks": 280,
          "midi": 41,
          "name": "F2",
          "ticks": 12664,
          "time": 9.893749999999999,
          "velocity": 0.7874015748031497
        },
        {
          "duration": 0.21250000000000036,
          "durationTicks": 272,
          "midi": 46,
          "name": "A#2",
          "ticks": 13416,
          "time": 10.48125,
          "velocity": 0.7874015748031497
        },
        {
          "duration": 0.020312500000001066,
          "durationTicks": 26,
          "midi": 34,
          "name": "A#1",
          "ticks": 13800,
          "time": 10.78125,
          "velocity": 0.7874015748031497
        },
        {
          "duration": 0.15625000000000178,
          "durationTicks": 200,
          "midi": 38,
          "name": "D2",
          "ticks": 14364,
          "time": 11.221874999999999,
          "velocity": 0.7874015748031497
        },
        {
          "duration": 0.15468750000000142,
          "durationTicks": 198,
          "midi": 41,
          "name": "F2",
          "ticks": 14558,
          "time": 11.3734375,
          "velocity": 0.7874015748031497
        },
        {
          "duration": 0.19531250000000178,
          "durationTicks": 250,
          "midi": 41,
          "name": "F2",
          "ticks": 14914,
          "time": 11.651562499999999,
          "velocity": 0.7874015748031497
        },
        {
          "duration": 0.22500000000000142,
          "durationTicks": 288,
          "midi": 29,
          "name": "F1",
          "ticks": 15668,
          "time": 12.240625,
          "velocity": 0.7874015748031497
        },
        {
          "duration": 0.19374999999999964,
          "durationTicks": 248,
          "midi": 34,
          "name": "A#1",
          "ticks": 16456,
          "time": 12.85625,
          "velocity": 0.7874015748031497
        },
        {
          "duration": 0.3718749999999993,
          "durationTicks": 476,
          "midi": 34,
          "name": "A#1",
          "ticks": 16832,
          "time": 13.15,
          "velocity": 0.7874015748031497
        },
        {
          "duration": 0.2734375,
          "durationTicks": 350,
          "midi": 38,
          "name": "D2",
          "ticks": 17438,
          "time": 13.6234375,
          "velocity": 0.7874015748031497
        },
        {
          "duration": 0.203125,
          "durationTicks": 260,
          "midi": 41,
          "name": "F2",
          "ticks": 18008,
          "time": 14.06875,
          "velocity": 0.7874015748031497
        },
        {
          "duration": 0.19062499999999893,
          "durationTicks": 244,
          "midi": 41,
          "name": "F2",
          "ticks": 18756,
          "time": 14.653125,
          "velocity": 0.7874015748031497
        },
        {
          "duration": 0.18906250000000036,
          "durationTicks": 242,
          "midi": 46,
          "name": "A#2",
          "ticks": 19540,
          "time": 15.265624999999998,
          "velocity": 0.7874015748031497
        },
        {
          "duration": 0.421875,
          "durationTicks": 540,
          "midi": 34,
          "name": "A#1",
          "ticks": 19920,
          "time": 15.5625,
          "velocity": 0.7874015748031497
        },
        {
          "duration": 0.21250000000000213,
          "durationTicks": 272,
          "midi": 38,
          "name": "D2",
          "ticks": 20532,
          "time": 16.040625,
          "velocity": 0.7874015748031497
        },
        {
          "duration": 0.18593750000000142,
          "durationTicks": 238,
          "midi": 41,
          "name": "F2",
          "ticks": 20928,
          "time": 16.349999999999998,
          "velocity": 0.7874015748031497
        },
        {
          "duration": 0.17031250000000142,
          "durationTicks": 218,
          "midi": 29,
          "name": "F1",
          "ticks": 21454,
          "time": 16.760937499999997,
          "velocity": 0.7874015748031497
        },
        {
          "duration": 0.20156249999999787,
          "durationTicks": 258,
          "midi": 29,
          "name": "F1",
          "ticks": 21840,
          "time": 17.0625,
          "velocity": 0.7874015748031497
        },
        {
          "duration": 0.17031250000000142,
          "durationTicks": 218,
          "midi": 34,
          "name": "A#1",
          "ticks": 22246,
          "time": 17.3796875,
          "velocity": 0.7874015748031497
        },
        {
          "duration": 0.1687499999999993,
          "durationTicks": 216,
          "midi": 34,
          "name": "A#1",
          "ticks": 22612,
          "time": 17.665625,
          "velocity": 0.7874015748031497
        },
        {
          "duration": 0.3515625,
          "durationTicks": 450,
          "midi": 34,
          "name": "A#1",
          "ticks": 22988,
          "time": 17.959375,
          "velocity": 0.7874015748031497
        },
        {
          "duration": 0.3265625000000014,
          "durationTicks": 418,
          "midi": 38,
          "name": "D2",
          "ticks": 23592,
          "time": 18.43125,
          "velocity": 0.7874015748031497
        },
        {
          "duration": 0.2156249999999993,
          "durationTicks": 276,
          "midi": 41,
          "name": "F2",
          "ticks": 24148,
          "time": 18.865624999999998,
          "velocity": 0.7874015748031497
        },
        {
          "duration": 0.24062500000000142,
          "durationTicks": 308,
          "midi": 41,
          "name": "F2",
          "ticks": 24886,
          "time": 19.4421875,
          "velocity": 0.7874015748031497
        },
        {
          "duration": 0.21718749999999787,
          "durationTicks": 278,
          "midi": 46,
          "name": "A#2",
          "ticks": 25644,
          "time": 20.034375,
          "velocity": 0.7874015748031497
        },
        {
          "duration": 0.41406249999999645,
          "durationTicks": 530,
          "midi": 39,
          "name": "D#2",
          "ticks": 26064,
          "time": 20.3625,
          "velocity": 0.7874015748031497
        },
        {
          "duration": 0.36249999999999716,
          "durationTicks": 464,
          "midi": 43,
          "name": "G2",
          "ticks": 26668,
          "time": 20.834375,
          "velocity": 0.7874015748031497
        },
        {
          "duration": 0.22187499999999716,
          "durationTicks": 284,
          "midi": 46,
          "name": "A#2",
          "ticks": 27216,
          "time": 21.2625,
          "velocity": 0.7874015748031497
        },
        {
          "duration": 0.20156249999999787,
          "durationTicks": 258,
          "midi": 46,
          "name": "A#2",
          "ticks": 27992,
          "time": 21.86875,
          "velocity": 0.7874015748031497
        },
        {
          "duration": 0.15781250000000213,
          "durationTicks": 202,
          "midi": 46,
          "name": "A#2",
          "ticks": 28752,
          "time": 22.4625,
          "velocity": 0.7874015748031497
        },
        {
          "duration": 0.4312499999999986,
          "durationTicks": 552,
          "midi": 29,
          "name": "F1",
          "ticks": 29128,
          "time": 22.75625,
          "velocity": 0.7874015748031497
        },
        {
          "duration": 0.375,
          "durationTicks": 480,
          "midi": 33,
          "name": "A1",
          "ticks": 29752,
          "time": 23.243750000000002,
          "velocity": 0.7874015748031497
        },
        {
          "duration": 0.1984375000000007,
          "durationTicks": 254,
          "midi": 36,
          "name": "C2",
          "ticks": 30286,
          "time": 23.6609375,
          "velocity": 0.7874015748031497
        },
        {
          "duration": 0.22500000000000142,
          "durationTicks": 288,
          "midi": 46,
          "name": "A#2",
          "ticks": 31056,
          "time": 24.2625,
          "velocity": 0.7874015748031497
        },
        {
          "duration": 0.2624999999999993,
          "durationTicks": 336,
          "midi": 41,
          "name": "F2",
          "ticks": 31780,
          "time": 24.828125,
          "velocity": 0.7874015748031497
        },
        {
          "duration": 0.46406249999999716,
          "durationTicks": 594,
          "midi": 39,
          "name": "D#2",
          "ticks": 32216,
          "time": 25.16875,
          "velocity": 0.7874015748031497
        },
        {
          "duration": 0.3000000000000007,
          "durationTicks": 384,
          "midi": 43,
          "name": "G2",
          "ticks": 32832,
          "time": 25.65,
          "velocity": 0.7874015748031497
        },
        {
          "duration": 0.21718750000000142,
          "durationTicks": 278,
          "midi": 46,
          "name": "A#2",
          "ticks": 33362,
          "time": 26.0640625,
          "velocity": 0.7874015748031497
        },
        {
          "duration": 0.17812499999999787,
          "durationTicks": 228,
          "midi": 46,
          "name": "A#2",
          "ticks": 34140,
          "time": 26.671875,
          "velocity": 0.7874015748031497
        },
        {
          "duration": 0.1437500000000007,
          "durationTicks": 184,
          "midi": 41,
          "name": "F2",
          "ticks": 34904,
          "time": 27.268749999999997,
          "velocity": 0.7874015748031497
        },
        {
          "duration": 0.28281250000000213,
          "durationTicks": 362,
          "midi": 41,
          "name": "F2",
          "ticks": 35294,
          "time": 27.573437499999997,
          "velocity": 0.7874015748031497
        },
        {
          "duration": 0.6843749999999993,
          "durationTicks": 876,
          "midi": 41,
          "name": "F2",
          "ticks": 35880,
          "time": 28.03125,
          "velocity": 0.7874015748031497
        },
        {
          "duration": 0.24062499999999787,
          "durationTicks": 308,
          "midi": 34,
          "name": "A#1",
          "ticks": 36828,
          "time": 28.771874999999998,
          "velocity": 0.7874015748031497
        },
        {
          "duration": 0.3000000000000007,
          "durationTicks": 384,
          "midi": 38,
          "name": "D2",
          "ticks": 38016,
          "time": 29.7,
          "velocity": 0.7874015748031497
        },
        {
          "duration": 0.29999999999999716,
          "durationTicks": 384,
          "midi": 34,
          "name": "A#1",
          "ticks": 38400,
          "time": 30,
          "velocity": 0.7874015748031497
        },
        {
          "duration": 0.1296874999999993,
          "durationTicks": 166,
          "midi": 34,
          "name": "A#1",
          "ticks": 39150,
          "time": 30.5859375,
          "velocity": 0.7874015748031497
        },
        {
          "duration": 0.11874999999999858,
          "durationTicks": 152,
          "midi": 34,
          "name": "A#1",
          "ticks": 39388,
          "time": 30.771875,
          "velocity": 0.7874015748031497
        },
        {
          "duration": 0.14687499999999787,
          "durationTicks": 188,
          "midi": 34,
          "name": "A#1",
          "ticks": 39724,
          "time": 31.034375,
          "velocity": 0.7874015748031497
        },
        {
          "duration": 0.4187499999999993,
          "durationTicks": 536,
          "midi": 39,
          "name": "D#2",
          "ticks": 39912,
          "time": 31.18125,
          "velocity": 0.7874015748031497
        },
        {
          "duration": 0.4109374999999993,
          "durationTicks": 526,
          "midi": 43,
          "name": "G2",
          "ticks": 40506,
          "time": 31.6453125,
          "velocity": 0.7874015748031497
        },
        {
          "duration": 0.24531249999999716,
          "durationTicks": 314,
          "midi": 46,
          "name": "A#2",
          "ticks": 41060,
          "time": 32.078125,
          "velocity": 0.7874015748031497
        },
        {
          "duration": 0.078125,
          "durationTicks": 100,
          "midi": 34,
          "name": "A#1",
          "ticks": 41800,
          "time": 32.65625,
          "velocity": 0.7874015748031497
        },
        {
          "duration": 0.16562499999999858,
          "durationTicks": 212,
          "midi": 34,
          "name": "A#1",
          "ticks": 42002,
          "time": 32.8140625,
          "velocity": 0.7874015748031497
        },
        {
          "duration": 0.28593750000000284,
          "durationTicks": 366,
          "midi": 38,
          "name": "D2",
          "ticks": 42214,
          "time": 32.9796875,
          "velocity": 0.7874015748031497
        },
        {
          "duration": 0.28593750000000284,
          "durationTicks": 366,
          "midi": 41,
          "name": "F2",
          "ticks": 42580,
          "time": 33.265625,
          "velocity": 0.7874015748031497
        },
        {
          "duration": 0.4671875000000014,
          "durationTicks": 598,
          "midi": 29,
          "name": "F1",
          "ticks": 42960,
          "time": 33.5625,
          "velocity": 0.7874015748031497
        },
        {
          "duration": 0.4281250000000014,
          "durationTicks": 548,
          "midi": 33,
          "name": "A1",
          "ticks": 43572,
          "time": 34.040625,
          "velocity": 0.7874015748031497
        },
        {
          "duration": 0.13906250000000142,
          "durationTicks": 178,
          "midi": 36,
          "name": "C2",
          "ticks": 44120,
          "time": 34.46875,
          "velocity": 0.7874015748031497
        },
        {
          "duration": 0.078125,
          "durationTicks": 100,
          "midi": 46,
          "name": "A#2",
          "ticks": 44516,
          "time": 34.778124999999996,
          "velocity": 0.7874015748031497
        },
        {
          "duration": 0.07187500000000568,
          "durationTicks": 92,
          "midi": 46,
          "name": "A#2",
          "ticks": 44708,
          "time": 34.928124999999994,
          "velocity": 0.7874015748031497
        },
        {
          "duration": 0.05781249999999716,
          "durationTicks": 74,
          "midi": 46,
          "name": "A#2",
          "ticks": 44898,
          "time": 35.0765625,
          "velocity": 0.7874015748031497
        },
        {
          "duration": 0.125,
          "durationTicks": 160,
          "midi": 46,
          "name": "A#2",
          "ticks": 45064,
          "time": 35.20625,
          "velocity": 0.7874015748031497
        },
        {
          "duration": 0.24531250000000426,
          "durationTicks": 314,
          "midi": 43,
          "name": "G2",
          "ticks": 45362,
          "time": 35.4390625,
          "velocity": 0.7874015748031497
        },
        {
          "duration": 0.2968749999999929,
          "durationTicks": 380,
          "midi": 41,
          "name": "F2",
          "ticks": 45676,
          "time": 35.684375,
          "velocity": 0.7874015748031497
        },
        {
          "duration": 0.38750000000000284,
          "durationTicks": 496,
          "midi": 39,
          "name": "D#2",
          "ticks": 46056,
          "time": 35.981249999999996,
          "velocity": 0.7874015748031497
        },
        {
          "duration": 0.359375,
          "durationTicks": 460,
          "midi": 43,
          "name": "G2",
          "ticks": 46664,
          "time": 36.45625,
          "velocity": 0.7874015748031497
        },
        {
          "duration": 0.19687499999999858,
          "durationTicks": 252,
          "midi": 46,
          "name": "A#2",
          "ticks": 47200,
          "time": 36.875,
          "velocity": 0.7874015748031497
        },
        {
          "duration": 0.06875000000000142,
          "durationTicks": 88,
          "midi": 29,
          "name": "F1",
          "ticks": 47966,
          "time": 37.473437499999996,
          "velocity": 0.7874015748031497
        },
        {
          "duration": 0.15781249999999858,
          "durationTicks": 202,
          "midi": 29,
          "name": "F1",
          "ticks": 48152,
          "time": 37.61875,
          "velocity": 0.7874015748031497
        },
        {
          "duration": 0.2953125000000014,
          "durationTicks": 378,
          "midi": 33,
          "name": "A1",
          "ticks": 48354,
          "time": 37.7765625,
          "velocity": 0.7874015748031497
        },
        {
          "duration": 0.27031250000000284,
          "durationTicks": 346,
          "midi": 36,
          "name": "C2",
          "ticks": 48732,
          "time": 38.071875,
          "velocity": 0.7874015748031497
        },
        {
          "duration": 0.3609375000000057,
          "durationTicks": 462,
          "midi": 34,
          "name": "A#1",
          "ticks": 49112,
          "time": 38.36875,
          "velocity": 0.7874015748031497
        },
        {
          "duration": 0.21718750000000142,
          "durationTicks": 278,
          "midi": 38,
          "name": "D2",
          "ticks": 49704,
          "time": 38.83125,
          "velocity": 0.7874015748031497
        },
        {
          "duration": 0.18437500000000284,
          "durationTicks": 236,
          "midi": 41,
          "name": "F2",
          "ticks": 50280,
          "time": 39.28125,
          "velocity": 0.7874015748031497
        },
        {
          "duration": 0.07187499999999858,
          "durationTicks": 92,
          "midi": 46,
          "name": "A#2",
          "ticks": 50872,
          "time": 39.74375,
          "velocity": 0.7874015748031497
        },
        {
          "duration": 0.06562499999999716,
          "durationTicks": 84,
          "midi": 46,
          "name": "A#2",
          "ticks": 51052,
          "time": 39.884375,
          "velocity": 0.7874015748031497
        },
        {
          "duration": 0.10624999999999574,
          "durationTicks": 136,
          "midi": 46,
          "name": "A#2",
          "ticks": 51240,
          "time": 40.03125,
          "velocity": 0.7874015748031497
        },
        {
          "duration": 0.28125,
          "durationTicks": 360,
          "midi": 43,
          "name": "G2",
          "ticks": 51420,
          "time": 40.171875,
          "velocity": 0.7874015748031497
        },
        {
          "duration": 0.2421874999999929,
          "durationTicks": 310,
          "midi": 41,
          "name": "F2",
          "ticks": 51780,
          "time": 40.453125,
          "velocity": 0.7874015748031497
        },
        {
          "duration": 0.36250000000000426,
          "durationTicks": 464,
          "midi": 39,
          "name": "D#2",
          "ticks": 52180,
          "time": 40.76562499999999,
          "velocity": 0.7874015748031497
        },
        {
          "duration": 0.3843749999999986,
          "durationTicks": 492,
          "midi": 43,
          "name": "G2",
          "ticks": 52764,
          "time": 41.221875,
          "velocity": 0.7874015748031497
        },
        {
          "duration": 0.18281250000000426,
          "durationTicks": 234,
          "midi": 46,
          "name": "A#2",
          "ticks": 53338,
          "time": 41.670312499999994,
          "velocity": 0.7874015748031497
        },
        {
          "duration": 0.06562499999999716,
          "durationTicks": 84,
          "midi": 29,
          "name": "F1",
          "ticks": 54108,
          "time": 42.271875,
          "velocity": 0.7874015748031497
        },
        {
          "duration": 0.15156250000000426,
          "durationTicks": 194,
          "midi": 29,
          "name": "F1",
          "ticks": 54286,
          "time": 42.410937499999996,
          "velocity": 0.7874015748031497
        },
        {
          "duration": 0.2953125000000014,
          "durationTicks": 378,
          "midi": 33,
          "name": "A1",
          "ticks": 54478,
          "time": 42.560937499999994,
          "velocity": 0.7874015748031497
        },
        {
          "duration": 0.234375,
          "durationTicks": 300,
          "midi": 36,
          "name": "C2",
          "ticks": 54868,
          "time": 42.865624999999994,
          "velocity": 0.7874015748031497
        },
        {
          "duration": 0.3999999999999986,
          "durationTicks": 512,
          "midi": 31,
          "name": "G1",
          "ticks": 55252,
          "time": 43.165625,
          "velocity": 0.7874015748031497
        },
        {
          "duration": 0.41718750000000426,
          "durationTicks": 534,
          "midi": 34,
          "name": "A#1",
          "ticks": 55850,
          "time": 43.6328125,
          "velocity": 0.7874015748031497
        },
        {
          "duration": 0.19843749999999005,
          "durationTicks": 254,
          "midi": 38,
          "name": "D2",
          "ticks": 56414,
          "time": 44.073437500000004,
          "velocity": 0.7874015748031497
        },
        {
          "duration": 0.06718750000000284,
          "durationTicks": 86,
          "midi": 36,
          "name": "C2",
          "ticks": 57004,
          "time": 44.534375,
          "velocity": 0.7874015748031497
        },
        {
          "duration": 0.06406249999999858,
          "durationTicks": 82,
          "midi": 36,
          "name": "C2",
          "ticks": 57182,
          "time": 44.6734375,
          "velocity": 0.7874015748031497
        },
        {
          "duration": 0.10625000000000284,
          "durationTicks": 136,
          "midi": 36,
          "name": "C2",
          "ticks": 57352,
          "time": 44.80625,
          "velocity": 0.7874015748031497
        },
        {
          "duration": 0.07500000000000284,
          "durationTicks": 96,
          "midi": 39,
          "name": "D#2",
          "ticks": 57516,
          "time": 44.934374999999996,
          "velocity": 0.7874015748031497
        },
        {
          "duration": 0.25,
          "durationTicks": 320,
          "midi": 40,
          "name": "E2",
          "ticks": 57612,
          "time": 45.009375,
          "velocity": 0.7874015748031497
        },
        {
          "duration": 0.2874999999999943,
          "durationTicks": 368,
          "midi": 43,
          "name": "G2",
          "ticks": 57932,
          "time": 45.259375,
          "velocity": 0.7874015748031497
        },
        {
          "duration": 0.3890625000000014,
          "durationTicks": 498,
          "midi": 39,
          "name": "D#2",
          "ticks": 58354,
          "time": 45.5890625,
          "velocity": 0.7874015748031497
        },
        {
          "duration": 0.34687500000000426,
          "durationTicks": 444,
          "midi": 43,
          "name": "G2",
          "ticks": 58944,
          "time": 46.05,
          "velocity": 0.7874015748031497
        },
        {
          "duration": 0.11406249999998863,
          "durationTicks": 146,
          "midi": 46,
          "name": "A#2",
          "ticks": 59504,
          "time": 46.487500000000004,
          "velocity": 0.7874015748031497
        },
        {
          "duration": 0.13125000000000142,
          "durationTicks": 168,
          "midi": 41,
          "name": "F2",
          "ticks": 59896,
          "time": 46.793749999999996,
          "velocity": 0.7874015748031497
        },
        {
          "duration": 0.08437500000000142,
          "durationTicks": 108,
          "midi": 29,
          "name": "F1",
          "ticks": 60092,
          "time": 46.946875,
          "velocity": 0.7874015748031497
        },
        {
          "duration": 0.08906250000000426,
          "durationTicks": 114,
          "midi": 29,
          "name": "F1",
          "ticks": 60268,
          "time": 47.084374999999994,
          "velocity": 0.7874015748031497
        },
        {
          "duration": 0.140625,
          "durationTicks": 180,
          "midi": 29,
          "name": "F1",
          "ticks": 60464,
          "time": 47.237500000000004,
          "velocity": 0.7874015748031497
        },
        {
          "duration": 0.2953124999999943,
          "durationTicks": 378,
          "midi": 33,
          "name": "A1",
          "ticks": 60644,
          "time": 47.378125000000004,
          "velocity": 0.7874015748031497
        },
        {
          "duration": 0.2953125000000014,
          "durationTicks": 378,
          "midi": 36,
          "name": "C2",
          "ticks": 61028,
          "time": 47.678125,
          "velocity": 0.7874015748031497
        },
        {
          "duration": 0.2734374999999929,
          "durationTicks": 350,
          "midi": 34,
          "name": "A#1",
          "ticks": 61406,
          "time": 47.9734375,
          "velocity": 0.7874015748031497
        },
        {
          "duration": 0.29218749999999716,
          "durationTicks": 374,
          "midi": 34,
          "name": "A#1",
          "ticks": 64102,
          "time": 50.0796875,
          "velocity": 0.7874015748031497
        },
        {
          "duration": 0.22968749999999716,
          "durationTicks": 294,
          "midi": 29,
          "name": "F1",
          "ticks": 66398,
          "time": 51.8734375,
          "velocity": 0.7874015748031497
        },
        {
          "duration": 0.19687499999999858,
          "durationTicks": 252,
          "midi": 34,
          "name": "A#1",
          "ticks": 67184,
          "time": 52.487500000000004,
          "velocity": 0.7874015748031497
        },
        {
          "duration": 0.3984375,
          "durationTicks": 510,
          "midi": 34,
          "name": "A#1",
          "ticks": 67542,
          "time": 52.7671875,
          "velocity": 0.7874015748031497
        },
        {
          "duration": 0.15312500000000284,
          "durationTicks": 196,
          "midi": 38,
          "name": "D2",
          "ticks": 68136,
          "time": 53.231249999999996,
          "velocity": 0.7874015748031497
        },
        {
          "duration": 0.15468750000000142,
          "durationTicks": 198,
          "midi": 41,
          "name": "F2",
          "ticks": 68334,
          "time": 53.3859375,
          "velocity": 0.7874015748031497
        },
        {
          "duration": 0.2031249999999929,
          "durationTicks": 260,
          "midi": 41,
          "name": "F2",
          "ticks": 68696,
          "time": 53.66875,
          "velocity": 0.7874015748031497
        },
        {
          "duration": 0.2656250000000071,
          "durationTicks": 340,
          "midi": 29,
          "name": "F1",
          "ticks": 69448,
          "time": 54.256249999999994,
          "velocity": 0.7874015748031497
        },
        {
          "duration": 0.18437500000000284,
          "durationTicks": 236,
          "midi": 34,
          "name": "A#1",
          "ticks": 70216,
          "time": 54.856249999999996,
          "velocity": 0.7874015748031497
        },
        {
          "duration": 0.375,
          "durationTicks": 480,
          "midi": 34,
          "name": "A#1",
          "ticks": 70608,
          "time": 55.1625,
          "velocity": 0.7874015748031497
        },
        {
          "duration": 0.34375,
          "durationTicks": 440,
          "midi": 38,
          "name": "D2",
          "ticks": 71220,
          "time": 55.640625,
          "velocity": 0.7874015748031497
        },
        {
          "duration": 0.19218749999999574,
          "durationTicks": 246,
          "midi": 41,
          "name": "F2",
          "ticks": 71764,
          "time": 56.065625,
          "velocity": 0.7874015748031497
        },
        {
          "duration": 0.22031249999999858,
          "durationTicks": 282,
          "midi": 41,
          "name": "F2",
          "ticks": 72528,
          "time": 56.6625,
          "velocity": 0.7874015748031497
        },
        {
          "duration": 0.17499999999999005,
          "durationTicks": 224,
          "midi": 46,
          "name": "A#2",
          "ticks": 73304,
          "time": 57.268750000000004,
          "velocity": 0.7874015748031497
        },
        {
          "duration": 0.3499999999999943,
          "durationTicks": 448,
          "midi": 34,
          "name": "A#1",
          "ticks": 73704,
          "time": 57.58125,
          "velocity": 0.7874015748031497
        },
        {
          "duration": 0.3531249999999986,
          "durationTicks": 452,
          "midi": 38,
          "name": "D2",
          "ticks": 74284,
          "time": 58.034375,
          "velocity": 0.7874015748031497
        },
        {
          "duration": 0.23906250000000284,
          "durationTicks": 306,
          "midi": 41,
          "name": "F2",
          "ticks": 74814,
          "time": 58.4484375,
          "velocity": 0.7874015748031497
        },
        {
          "duration": 0.18906249999999858,
          "durationTicks": 242,
          "midi": 29,
          "name": "F1",
          "ticks": 75210,
          "time": 58.7578125,
          "velocity": 0.7874015748031497
        },
        {
          "duration": 0.27812499999998863,
          "durationTicks": 356,
          "midi": 29,
          "name": "F1",
          "ticks": 75596,
          "time": 59.059375,
          "velocity": 0.7874015748031497
        },
        {
          "duration": 0.17656249999999574,
          "durationTicks": 226,
          "midi": 34,
          "name": "A#1",
          "ticks": 75990,
          "time": 59.3671875,
          "velocity": 0.7874015748031497
        },
        {
          "duration": 0.19687499999999858,
          "durationTicks": 252,
          "midi": 34,
          "name": "A#1",
          "ticks": 76376,
          "time": 59.66875,
          "velocity": 0.7874015748031497
        },
        {
          "duration": 0.3421875000000014,
          "durationTicks": 438,
          "midi": 34,
          "name": "A#1",
          "ticks": 76776,
          "time": 59.981249999999996,
          "velocity": 0.7874015748031497
        },
        {
          "duration": 0.3578125000000014,
          "durationTicks": 458,
          "midi": 38,
          "name": "D2",
          "ticks": 77374,
          "time": 60.4484375,
          "velocity": 0.7874015748031497
        },
        {
          "duration": 0.17031250000000142,
          "durationTicks": 218,
          "midi": 41,
          "name": "F2",
          "ticks": 77908,
          "time": 60.865624999999994,
          "velocity": 0.7874015748031497
        },
        {
          "duration": 0.2828125000000057,
          "durationTicks": 362,
          "midi": 41,
          "name": "F2",
          "ticks": 78678,
          "time": 61.467187499999994,
          "velocity": 0.7874015748031497
        },
        {
          "duration": 0.21875,
          "durationTicks": 280,
          "midi": 46,
          "name": "A#2",
          "ticks": 79472,
          "time": 62.0875,
          "velocity": 0.7874015748031497
        },
        {
          "duration": 0.42499999999999716,
          "durationTicks": 544,
          "midi": 39,
          "name": "D#2",
          "ticks": 79844,
          "time": 62.378125,
          "velocity": 0.7874015748031497
        },
        {
          "duration": 0.3734375000000014,
          "durationTicks": 478,
          "midi": 43,
          "name": "G2",
          "ticks": 80446,
          "time": 62.848437499999996,
          "velocity": 0.7874015748031497
        },
        {
          "duration": 0.25,
          "durationTicks": 320,
          "midi": 46,
          "name": "A#2",
          "ticks": 80964,
          "time": 63.253125,
          "velocity": 0.7874015748031497
        },
        {
          "duration": 0.20937500000000142,
          "durationTicks": 268,
          "midi": 46,
          "name": "A#2",
          "ticks": 81760,
          "time": 63.87499999999999,
          "velocity": 0.7874015748031497
        },
        {
          "duration": 0.24531250000001137,
          "durationTicks": 314,
          "midi": 41,
          "name": "F2",
          "ticks": 82518,
          "time": 64.4671875,
          "velocity": 0.7874015748031497
        },
        {
          "duration": 0.3890624999999943,
          "durationTicks": 498,
          "midi": 29,
          "name": "F1",
          "ticks": 82896,
          "time": 64.7625,
          "velocity": 0.7874015748031497
        },
        {
          "duration": 0.4234375000000057,
          "durationTicks": 542,
          "midi": 33,
          "name": "A1",
          "ticks": 83494,
          "time": 65.2296875,
          "velocity": 0.7874015748031497
        },
        {
          "duration": 0.20781249999998863,
          "durationTicks": 266,
          "midi": 36,
          "name": "C2",
          "ticks": 84062,
          "time": 65.6734375,
          "velocity": 0.7874015748031497
        },
        {
          "duration": 0.20625000000001137,
          "durationTicks": 264,
          "midi": 46,
          "name": "A#2",
          "ticks": 84848,
          "time": 66.2875,
          "velocity": 0.7874015748031497
        },
        {
          "duration": 0.2562500000000085,
          "durationTicks": 328,
          "midi": 41,
          "name": "F2",
          "ticks": 85588,
          "time": 66.865625,
          "velocity": 0.7874015748031497
        },
        {
          "duration": 0.390625,
          "durationTicks": 500,
          "midi": 39,
          "name": "D#2",
          "ticks": 85984,
          "time": 67.175,
          "velocity": 0.7874015748031497
        },
        {
          "duration": 0.375,
          "durationTicks": 480,
          "midi": 43,
          "name": "G2",
          "ticks": 86568,
          "time": 67.63125,
          "velocity": 0.7874015748031497
        },
        {
          "duration": 0.21718750000000853,
          "durationTicks": 278,
          "midi": 46,
          "name": "A#2",
          "ticks": 87102,
          "time": 68.04843749999999,
          "velocity": 0.7874015748031497
        },
        {
          "duration": 0.16718749999999716,
          "durationTicks": 214,
          "midi": 46,
          "name": "A#2",
          "ticks": 87910,
          "time": 68.6796875,
          "velocity": 0.7874015748031497
        },
        {
          "duration": 0.18593749999999432,
          "durationTicks": 238,
          "midi": 41,
          "name": "F2",
          "ticks": 88652,
          "time": 69.259375,
          "velocity": 0.7874015748031497
        },
        {
          "duration": 0.46406249999999716,
          "durationTicks": 594,
          "midi": 29,
          "name": "F1",
          "ticks": 89030,
          "time": 69.5546875,
          "velocity": 0.7874015748031497
        },
        {
          "duration": 0.41718749999999716,
          "durationTicks": 534,
          "midi": 33,
          "name": "A1",
          "ticks": 89624,
          "time": 70.01875,
          "velocity": 0.7874015748031497
        },
        {
          "duration": 0.25468750000000284,
          "durationTicks": 326,
          "midi": 36,
          "name": "C2",
          "ticks": 90158,
          "time": 70.4359375,
          "velocity": 0.7874015748031497
        },
        {
          "duration": 0.2265625,
          "durationTicks": 290,
          "midi": 34,
          "name": "A#1",
          "ticks": 90960,
          "time": 71.0625,
          "velocity": 0.7874015748031497
        },
        {
          "duration": 0.265625,
          "durationTicks": 340,
          "midi": 38,
          "name": "D2",
          "ticks": 91744,
          "time": 71.675,
          "velocity": 0.7874015748031497
        },
        {
          "duration": 0.22812499999999147,
          "durationTicks": 292,
          "midi": 34,
          "name": "A#1",
          "ticks": 92124,
          "time": 71.971875,
          "velocity": 0.7874015748031497
        },
        {
          "duration": 0.11249999999999716,
          "durationTicks": 144,
          "midi": 34,
          "name": "A#1",
          "ticks": 92920,
          "time": 72.59375,
          "velocity": 0.7874015748031497
        },
        {
          "duration": 0.12656250000000568,
          "durationTicks": 162,
          "midi": 34,
          "name": "A#1",
          "ticks": 93118,
          "time": 72.7484375,
          "velocity": 0.7874015748031497
        },
        {
          "duration": 0.13750000000000284,
          "durationTicks": 176,
          "midi": 34,
          "name": "A#1",
          "ticks": 93514,
          "time": 73.0578125,
          "velocity": 0.7874015748031497
        },
        {
          "duration": 0.37031249999999716,
          "durationTicks": 474,
          "midi": 39,
          "name": "D#2",
          "ticks": 93690,
          "time": 73.1953125,
          "velocity": 0.7874015748031497
        },
        {
          "duration": 0.37812500000001137,
          "durationTicks": 484,
          "midi": 43,
          "name": "G2",
          "ticks": 94252,
          "time": 73.63437499999999,
          "velocity": 0.7874015748031497
        },
        {
          "duration": 0.22343750000000284,
          "durationTicks": 286,
          "midi": 46,
          "name": "A#2",
          "ticks": 94798,
          "time": 74.0609375,
          "velocity": 0.7874015748031497
        },
        {
          "duration": 0.08281250000000284,
          "durationTicks": 106,
          "midi": 34,
          "name": "A#1",
          "ticks": 95568,
          "time": 74.6625,
          "velocity": 0.7874015748031497
        },
        {
          "duration": 0.11249999999999716,
          "durationTicks": 144,
          "midi": 34,
          "name": "A#1",
          "ticks": 95744,
          "time": 74.8,
          "velocity": 0.7874015748031497
        },
        {
          "duration": 0.040624999999991473,
          "durationTicks": 52,
          "midi": 37,
          "name": "C#2",
          "ticks": 95960,
          "time": 74.96875,
          "velocity": 0.7874015748031497
        },
        {
          "duration": 0.26875000000001137,
          "durationTicks": 344,
          "midi": 38,
          "name": "D2",
          "ticks": 96012,
          "time": 75.00937499999999,
          "velocity": 0.7874015748031497
        },
        {
          "duration": 0.24062499999999432,
          "durationTicks": 308,
          "midi": 41,
          "name": "F2",
          "ticks": 96356,
          "time": 75.278125,
          "velocity": 0.7874015748031497
        },
        {
          "duration": 0.3999999999999915,
          "durationTicks": 512,
          "midi": 29,
          "name": "F1",
          "ticks": 96740,
          "time": 75.578125,
          "velocity": 0.7874015748031497
        },
        {
          "duration": 0.3500000000000085,
          "durationTicks": 448,
          "midi": 33,
          "name": "A1",
          "ticks": 97348,
          "time": 76.053125,
          "velocity": 0.7874015748031497
        },
        {
          "duration": 0.14687499999999432,
          "durationTicks": 188,
          "midi": 36,
          "name": "C2",
          "ticks": 97874,
          "time": 76.4640625,
          "velocity": 0.7874015748031497
        },
        {
          "duration": 0.08437499999999432,
          "durationTicks": 108,
          "midi": 46,
          "name": "A#2",
          "ticks": 98280,
          "time": 76.78125,
          "velocity": 0.7874015748031497
        },
        {
          "duration": 0.06406249999999147,
          "durationTicks": 82,
          "midi": 46,
          "name": "A#2",
          "ticks": 98680,
          "time": 77.09375,
          "velocity": 0.7874015748031497
        },
        {
          "duration": 0.13125000000000853,
          "durationTicks": 168,
          "midi": 46,
          "name": "A#2",
          "ticks": 98840,
          "time": 77.21874999999999,
          "velocity": 0.7874015748031497
        },
        {
          "duration": 0.28437499999999716,
          "durationTicks": 364,
          "midi": 43,
          "name": "G2",
          "ticks": 99044,
          "time": 77.378125,
          "velocity": 0.7874015748031497
        },
        {
          "duration": 0.23593749999999147,
          "durationTicks": 302,
          "midi": 41,
          "name": "F2",
          "ticks": 99408,
          "time": 77.6625,
          "velocity": 0.7874015748031497
        },
        {
          "duration": 0.17812499999999432,
          "durationTicks": 228,
          "midi": 39,
          "name": "D#2",
          "ticks": 99804,
          "time": 77.971875,
          "velocity": 0.7874015748031497
        },
        {
          "duration": 0.23124999999998863,
          "durationTicks": 296,
          "midi": 43,
          "name": "G2",
          "ticks": 100396,
          "time": 78.434375,
          "velocity": 0.7874015748031497
        },
        {
          "duration": 0.16875000000000284,
          "durationTicks": 216,
          "midi": 46,
          "name": "A#2",
          "ticks": 100960,
          "time": 78.875,
          "velocity": 0.7874015748031497
        },
        {
          "duration": 0.0687499999999801,
          "durationTicks": 88,
          "midi": 29,
          "name": "F1",
          "ticks": 101572,
          "time": 79.353125,
          "velocity": 0.7874015748031497
        },
        {
          "duration": 0.07187500000000568,
          "durationTicks": 92,
          "midi": 29,
          "name": "F1",
          "ticks": 101744,
          "time": 79.4875,
          "velocity": 0.7874015748031497
        },
        {
          "duration": 0.13750000000000284,
          "durationTicks": 176,
          "midi": 29,
          "name": "F1",
          "ticks": 101928,
          "time": 79.63125,
          "velocity": 0.7874015748031497
        },
        {
          "duration": 0.30156250000000284,
          "durationTicks": 386,
          "midi": 33,
          "name": "A1",
          "ticks": 102104,
          "time": 79.76875,
          "velocity": 0.7874015748031497
        },
        {
          "duration": 0.24062499999999432,
          "durationTicks": 308,
          "midi": 36,
          "name": "C2",
          "ticks": 102496,
          "time": 80.075,
          "velocity": 0.7874015748031497
        },
        {
          "duration": 0.19062500000001137,
          "durationTicks": 244,
          "midi": 34,
          "name": "A#1",
          "ticks": 102888,
          "time": 80.38125,
          "velocity": 0.7874015748031497
        },
        {
          "duration": 0.1875,
          "durationTicks": 240,
          "midi": 38,
          "name": "D2",
          "ticks": 103476,
          "time": 80.840625,
          "velocity": 0.7874015748031497
        },
        {
          "duration": 0.16718750000001137,
          "durationTicks": 214,
          "midi": 41,
          "name": "F2",
          "ticks": 104036,
          "time": 81.27812499999999,
          "velocity": 0.7874015748031497
        },
        {
          "duration": 0.0703125,
          "durationTicks": 90,
          "midi": 46,
          "name": "A#2",
          "ticks": 104636,
          "time": 81.74687499999999,
          "velocity": 0.7874015748031497
        },
        {
          "duration": 0.06718750000001705,
          "durationTicks": 86,
          "midi": 46,
          "name": "A#2",
          "ticks": 104810,
          "time": 81.88281249999999,
          "velocity": 0.7874015748031497
        },
        {
          "duration": 0.11562500000000853,
          "durationTicks": 148,
          "midi": 46,
          "name": "A#2",
          "ticks": 104996,
          "time": 82.02812499999999,
          "velocity": 0.7874015748031497
        },
        {
          "duration": 0.29999999999999716,
          "durationTicks": 384,
          "midi": 43,
          "name": "G2",
          "ticks": 105180,
          "time": 82.171875,
          "velocity": 0.7874015748031497
        },
        {
          "duration": 0.234375,
          "durationTicks": 300,
          "midi": 41,
          "name": "F2",
          "ticks": 105564,
          "time": 82.471875,
          "velocity": 0.7874015748031497
        },
        {
          "duration": 0.30156249999998863,
          "durationTicks": 386,
          "midi": 39,
          "name": "D#2",
          "ticks": 105952,
          "time": 82.775,
          "velocity": 0.7874015748031497
        },
        {
          "duration": 0.23906250000000284,
          "durationTicks": 306,
          "midi": 43,
          "name": "G2",
          "ticks": 106530,
          "time": 83.2265625,
          "velocity": 0.7874015748031497
        },
        {
          "duration": 0.17656250000000284,
          "durationTicks": 226,
          "midi": 46,
          "name": "A#2",
          "ticks": 107088,
          "time": 83.6625,
          "velocity": 0.7874015748031497
        },
        {
          "duration": 0.0703125,
          "durationTicks": 90,
          "midi": 29,
          "name": "F1",
          "ticks": 107692,
          "time": 84.134375,
          "velocity": 0.7874015748031497
        },
        {
          "duration": 0.07187499999999147,
          "durationTicks": 92,
          "midi": 29,
          "name": "F1",
          "ticks": 107868,
          "time": 84.271875,
          "velocity": 0.7874015748031497
        },
        {
          "duration": 0.14375000000001137,
          "durationTicks": 184,
          "midi": 29,
          "name": "F1",
          "ticks": 108056,
          "time": 84.41874999999999,
          "velocity": 0.7874015748031497
        },
        {
          "duration": 0.2968749999999858,
          "durationTicks": 380,
          "midi": 33,
          "name": "A1",
          "ticks": 108240,
          "time": 84.5625,
          "velocity": 0.7874015748031497
        },
        {
          "duration": 0.2640624999999943,
          "durationTicks": 338,
          "midi": 36,
          "name": "C2",
          "ticks": 108628,
          "time": 84.86562500000001,
          "velocity": 0.7874015748031497
        },
        {
          "duration": 0.2953124999999943,
          "durationTicks": 378,
          "midi": 31,
          "name": "G1",
          "ticks": 109026,
          "time": 85.1765625,
          "velocity": 0.7874015748031497
        },
        {
          "duration": 0.3437499999999858,
          "durationTicks": 440,
          "midi": 34,
          "name": "A#1",
          "ticks": 109620,
          "time": 85.640625,
          "velocity": 0.7874015748031497
        },
        {
          "duration": 0.20625000000001137,
          "durationTicks": 264,
          "midi": 38,
          "name": "D2",
          "ticks": 110150,
          "time": 86.05468749999999,
          "velocity": 0.7874015748031497
        },
        {
          "duration": 0.07187499999999147,
          "durationTicks": 92,
          "midi": 36,
          "name": "C2",
          "ticks": 110760,
          "time": 86.53125,
          "velocity": 0.7874015748031497
        },
        {
          "duration": 0.06250000000001421,
          "durationTicks": 80,
          "midi": 36,
          "name": "C2",
          "ticks": 110948,
          "time": 86.678125,
          "velocity": 0.7874015748031497
        },
        {
          "duration": 0.10468750000001137,
          "durationTicks": 134,
          "midi": 36,
          "name": "C2",
          "ticks": 111116,
          "time": 86.80937499999999,
          "velocity": 0.7874015748031497
        },
        {
          "duration": 0.0703125,
          "durationTicks": 90,
          "midi": 39,
          "name": "D#2",
          "ticks": 111284,
          "time": 86.940625,
          "velocity": 0.7874015748031497
        },
        {
          "duration": 0.24531250000001137,
          "durationTicks": 314,
          "midi": 40,
          "name": "E2",
          "ticks": 111374,
          "time": 87.0109375,
          "velocity": 0.7874015748031497
        },
        {
          "duration": 0.24374999999999147,
          "durationTicks": 312,
          "midi": 43,
          "name": "G2",
          "ticks": 111688,
          "time": 87.25625000000001,
          "velocity": 0.7874015748031497
        },
        {
          "duration": 0.2906250000000057,
          "durationTicks": 372,
          "midi": 39,
          "name": "D#2",
          "ticks": 112096,
          "time": 87.575,
          "velocity": 0.7874015748031497
        },
        {
          "duration": 0.2515625000000057,
          "durationTicks": 322,
          "midi": 43,
          "name": "G2",
          "ticks": 112686,
          "time": 88.0359375,
          "velocity": 0.7874015748031497
        },
        {
          "duration": 0.18125000000000568,
          "durationTicks": 232,
          "midi": 46,
          "name": "A#2",
          "ticks": 113228,
          "time": 88.459375,
          "velocity": 0.7874015748031497
        },
        {
          "duration": 0.07656250000002274,
          "durationTicks": 98,
          "midi": 29,
          "name": "F1",
          "ticks": 113840,
          "time": 88.93749999999999,
          "velocity": 0.7874015748031497
        },
        {
          "duration": 0.07343749999999716,
          "durationTicks": 94,
          "midi": 29,
          "name": "F1",
          "ticks": 114014,
          "time": 89.0734375,
          "velocity": 0.7874015748031497
        },
        {
          "duration": 0.14375000000001137,
          "durationTicks": 184,
          "midi": 29,
          "name": "F1",
          "ticks": 114200,
          "time": 89.21874999999999,
          "velocity": 0.7874015748031497
        },
        {
          "duration": 0.2953124999999943,
          "durationTicks": 378,
          "midi": 33,
          "name": "A1",
          "ticks": 114384,
          "time": 89.3625,
          "velocity": 0.7874015748031497
        },
        {
          "duration": 0.24843750000000853,
          "durationTicks": 318,
          "midi": 36,
          "name": "C2",
          "ticks": 114762,
          "time": 89.65781249999999,
          "velocity": 0.7874015748031497
        },
        {
          "duration": 0.29999999999999716,
          "durationTicks": 384,
          "midi": 39,
          "name": "D#2",
          "ticks": 115126,
          "time": 89.9421875,
          "velocity": 0.7874015748031497
        },
        {
          "duration": 0.2906250000000057,
          "durationTicks": 372,
          "midi": 43,
          "name": "G2",
          "ticks": 115764,
          "time": 90.440625,
          "velocity": 0.7874015748031497
        },
        {
          "duration": 0.17343749999999147,
          "durationTicks": 222,
          "midi": 46,
          "name": "A#2",
          "ticks": 116348,
          "time": 90.896875,
          "velocity": 0.7874015748031497
        },
        {
          "duration": 0.07500000000000284,
          "durationTicks": 96,
          "midi": 34,
          "name": "A#1",
          "ticks": 117100,
          "time": 91.484375,
          "velocity": 0.7874015748031497
        },
        {
          "duration": 0.14375000000001137,
          "durationTicks": 184,
          "midi": 34,
          "name": "A#1",
          "ticks": 117272,
          "time": 91.61874999999999,
          "velocity": 0.7874015748031497
        },
        {
          "duration": 0.2874999999999943,
          "durationTicks": 368,
          "midi": 38,
          "name": "D2",
          "ticks": 117484,
          "time": 91.784375,
          "velocity": 0.7874015748031497
        },
        {
          "duration": 0.2734374999999858,
          "durationTicks": 350,
          "midi": 41,
          "name": "F2",
          "ticks": 117870,
          "time": 92.0859375,
          "velocity": 0.7874015748031497
        },
        {
          "duration": 0.3296875000000057,
          "durationTicks": 422,
          "midi": 41,
          "name": "F2",
          "ticks": 118272,
          "time": 92.39999999999999,
          "velocity": 0.7874015748031497
        },
        {
          "duration": 0.29374999999998863,
          "durationTicks": 376,
          "midi": 45,
          "name": "A2",
          "ticks": 118888,
          "time": 92.88125000000001,
          "velocity": 0.7874015748031497
        },
        {
          "duration": 0.05781249999999716,
          "durationTicks": 74,
          "midi": 47,
          "name": "B2",
          "ticks": 119392,
          "time": 93.275,
          "velocity": 0.7874015748031497
        },
        {
          "duration": 0.2640624999999943,
          "durationTicks": 338,
          "midi": 48,
          "name": "C3",
          "ticks": 119466,
          "time": 93.3328125,
          "velocity": 0.7874015748031497
        },
        {
          "duration": 0.0859375,
          "durationTicks": 110,
          "midi": 34,
          "name": "A#1",
          "ticks": 120244,
          "time": 93.940625,
          "velocity": 0.7874015748031497
        },
        {
          "duration": 0.1015625,
          "durationTicks": 130,
          "midi": 34,
          "name": "A#1",
          "ticks": 120426,
          "time": 94.0828125,
          "velocity": 0.7874015748031497
        },
        {
          "duration": 0.20156250000000853,
          "durationTicks": 258,
          "midi": 38,
          "name": "D2",
          "ticks": 120634,
          "time": 94.2453125,
          "velocity": 0.7874015748031497
        },
        {
          "duration": 0.2187499999999858,
          "durationTicks": 280,
          "midi": 41,
          "name": "F2",
          "ticks": 120982,
          "time": 94.5171875,
          "velocity": 0.7874015748031497
        },
        {
          "duration": 0.2499999999999858,
          "durationTicks": 320,
          "midi": 39,
          "name": "D#2",
          "ticks": 121320,
          "time": 94.78125,
          "velocity": 0.7874015748031497
        },
        {
          "duration": 0.25312499999999716,
          "durationTicks": 324,
          "midi": 43,
          "name": "G2",
          "ticks": 121900,
          "time": 95.234375,
          "velocity": 0.7874015748031497
        },
        {
          "duration": 0.1875,
          "durationTicks": 240,
          "midi": 46,
          "name": "A#2",
          "ticks": 122452,
          "time": 95.665625,
          "velocity": 0.7874015748031497
        },
        {
          "duration": 0.07187500000000568,
          "durationTicks": 92,
          "midi": 29,
          "name": "F1",
          "ticks": 123244,
          "time": 96.284375,
          "velocity": 0.7874015748031497
        },
        {
          "duration": 0.14999999999999147,
          "durationTicks": 192,
          "midi": 29,
          "name": "F1",
          "ticks": 123420,
          "time": 96.421875,
          "velocity": 0.7874015748031497
        },
        {
          "duration": 0.2906250000000057,
          "durationTicks": 372,
          "midi": 33,
          "name": "A1",
          "ticks": 123612,
          "time": 96.57187499999999,
          "velocity": 0.7874015748031497
        },
        {
          "duration": 0.22343750000000284,
          "durationTicks": 286,
          "midi": 36,
          "name": "C2",
          "ticks": 123996,
          "time": 96.871875,
          "velocity": 0.7874015748031497
        },
        {
          "duration": 0.2906250000000057,
          "durationTicks": 372,
          "midi": 34,
          "name": "A#1",
          "ticks": 124368,
          "time": 97.1625,
          "velocity": 0.7874015748031497
        },
        {
          "duration": 0.29218749999999716,
          "durationTicks": 374,
          "midi": 38,
          "name": "D2",
          "ticks": 124954,
          "time": 97.6203125,
          "velocity": 0.7874015748031497
        },
        {
          "duration": 0.19374999999999432,
          "durationTicks": 248,
          "midi": 41,
          "name": "F2",
          "ticks": 125500,
          "time": 98.046875,
          "velocity": 0.7874015748031497
        },
        {
          "duration": 0.08124999999999716,
          "durationTicks": 104,
          "midi": 34,
          "name": "A#1",
          "ticks": 126288,
          "time": 98.6625,
          "velocity": 0.7874015748031497
        },
        {
          "duration": 0.13437500000000568,
          "durationTicks": 172,
          "midi": 34,
          "name": "A#1",
          "ticks": 126468,
          "time": 98.803125,
          "velocity": 0.7874015748031497
        },
        {
          "duration": 0.29999999999999716,
          "durationTicks": 384,
          "midi": 38,
          "name": "D2",
          "ticks": 126676,
          "time": 98.965625,
          "velocity": 0.7874015748031497
        },
        {
          "duration": 0.23125000000001705,
          "durationTicks": 296,
          "midi": 41,
          "name": "F2",
          "ticks": 127076,
          "time": 99.27812499999999,
          "velocity": 0.7874015748031497
        },
        {
          "duration": 0.2750000000000057,
          "durationTicks": 352,
          "midi": 39,
          "name": "D#2",
          "ticks": 127454,
          "time": 99.5734375,
          "velocity": 0.7874015748031497
        },
        {
          "duration": 0.3453125000000057,
          "durationTicks": 442,
          "midi": 43,
          "name": "G2",
          "ticks": 128036,
          "time": 100.02812499999999,
          "velocity": 0.7874015748031497
        },
        {
          "duration": 0.1953125,
          "durationTicks": 250,
          "midi": 46,
          "name": "A#2",
          "ticks": 128586,
          "time": 100.4578125,
          "velocity": 0.7874015748031497
        },
        {
          "duration": 0.07187499999999147,
          "durationTicks": 92,
          "midi": 29,
          "name": "F1",
          "ticks": 129172,
          "time": 100.915625,
          "velocity": 0.7874015748031497
        },
        {
          "duration": 0.06875000000000853,
          "durationTicks": 88,
          "midi": 29,
          "name": "F1",
          "ticks": 129354,
          "time": 101.0578125,
          "velocity": 0.7874015748031497
        },
        {
          "duration": 0.1484375,
          "durationTicks": 190,
          "midi": 29,
          "name": "F1",
          "ticks": 129546,
          "time": 101.2078125,
          "velocity": 0.7874015748031497
        },
        {
          "duration": 0.2984375000000057,
          "durationTicks": 382,
          "midi": 33,
          "name": "A1",
          "ticks": 129734,
          "time": 101.3546875,
          "velocity": 0.7874015748031497
        },
        {
          "duration": 0.24531250000001137,
          "durationTicks": 314,
          "midi": 36,
          "name": "C2",
          "ticks": 130124,
          "time": 101.659375,
          "velocity": 0.7874015748031497
        },
        {
          "duration": 0.38750000000000284,
          "durationTicks": 496,
          "midi": 31,
          "name": "G1",
          "ticks": 130532,
          "time": 101.97812499999999,
          "velocity": 0.7874015748031497
        },
        {
          "duration": 0.4140625,
          "durationTicks": 530,
          "midi": 34,
          "name": "A#1",
          "ticks": 131114,
          "time": 102.4328125,
          "velocity": 0.7874015748031497
        },
        {
          "duration": 0.19375000000000853,
          "durationTicks": 248,
          "midi": 38,
          "name": "D2",
          "ticks": 131684,
          "time": 102.878125,
          "velocity": 0.7874015748031497
        },
        {
          "duration": 0.06875000000000853,
          "durationTicks": 88,
          "midi": 36,
          "name": "C2",
          "ticks": 132278,
          "time": 103.3421875,
          "velocity": 0.7874015748031497
        },
        {
          "duration": 0.0625,
          "durationTicks": 80,
          "midi": 36,
          "name": "C2",
          "ticks": 132464,
          "time": 103.4875,
          "velocity": 0.7874015748031497
        },
        {
          "duration": 0.10937499999998579,
          "durationTicks": 140,
          "midi": 36,
          "name": "C2",
          "ticks": 132636,
          "time": 103.621875,
          "velocity": 0.7874015748031497
        },
        {
          "duration": 0.07968750000000568,
          "durationTicks": 102,
          "midi": 39,
          "name": "D#2",
          "ticks": 132790,
          "time": 103.7421875,
          "velocity": 0.7874015748031497
        },
        {
          "duration": 0.24843749999999432,
          "durationTicks": 318,
          "midi": 40,
          "name": "E2",
          "ticks": 132892,
          "time": 103.821875,
          "velocity": 0.7874015748031497
        },
        {
          "duration": 0.2718750000000085,
          "durationTicks": 348,
          "midi": 43,
          "name": "G2",
          "ticks": 133210,
          "time": 104.0703125,
          "velocity": 0.7874015748031497
        },
        {
          "duration": 0.328125,
          "durationTicks": 420,
          "midi": 39,
          "name": "D#2",
          "ticks": 133624,
          "time": 104.39375,
          "velocity": 0.7874015748031497
        },
        {
          "duration": 0.27812499999998863,
          "durationTicks": 356,
          "midi": 43,
          "name": "G2",
          "ticks": 134188,
          "time": 104.83437500000001,
          "velocity": 0.7874015748031497
        },
        {
          "duration": 0.14531250000000284,
          "durationTicks": 186,
          "midi": 46,
          "name": "A#2",
          "ticks": 134746,
          "time": 105.2703125,
          "velocity": 0.7874015748031497
        },
        {
          "duration": 0.17031249999999432,
          "durationTicks": 218,
          "midi": 41,
          "name": "F2",
          "ticks": 135132,
          "time": 105.57187499999999,
          "velocity": 0.7874015748031497
        },
        {
          "duration": 0.08437499999999432,
          "durationTicks": 108,
          "midi": 29,
          "name": "F1",
          "ticks": 135328,
          "time": 105.72500000000001,
          "velocity": 0.7874015748031497
        },
        {
          "duration": 0.0859375,
          "durationTicks": 110,
          "midi": 29,
          "name": "F1",
          "ticks": 135504,
          "time": 105.8625,
          "velocity": 0.7874015748031497
        },
        {
          "duration": 0.14531250000000284,
          "durationTicks": 186,
          "midi": 29,
          "name": "F1",
          "ticks": 135706,
          "time": 106.0203125,
          "velocity": 0.7874015748031497
        },
        {
          "duration": 0.28437499999998295,
          "durationTicks": 364,
          "midi": 33,
          "name": "A1",
          "ticks": 135892,
          "time": 106.165625,
          "velocity": 0.7874015748031497
        },
        {
          "duration": 0.2906250000000057,
          "durationTicks": 372,
          "midi": 36,
          "name": "C2",
          "ticks": 136264,
          "time": 106.45625,
          "velocity": 0.7874015748031497
        },
        {
          "duration": 0.23749999999998295,
          "durationTicks": 304,
          "midi": 34,
          "name": "A#1",
          "ticks": 136648,
          "time": 106.75625000000001,
          "velocity": 0.7874015748031497
        },
        {
          "duration": 0.15937499999999716,
          "durationTicks": 204,
          "midi": 29,
          "name": "F1",
          "ticks": 138204,
          "time": 107.971875,
          "velocity": 0.7874015748031497
        },
        {
          "duration": 0.18281250000001137,
          "durationTicks": 234,
          "midi": 29,
          "name": "F1",
          "ticks": 138590,
          "time": 108.27343749999999,
          "velocity": 0.7874015748031497
        },
        {
          "duration": 0.23750000000001137,
          "durationTicks": 304,
          "midi": 34,
          "name": "A#1",
          "ticks": 138972,
          "time": 108.57187499999999,
          "velocity": 0.7874015748031497
        },
        {
          "duration": 0.15625,
          "durationTicks": 200,
          "midi": 29,
          "name": "F1",
          "ticks": 143064,
          "time": 111.76875,
          "velocity": 1
        },
        {
          "duration": 0.125,
          "durationTicks": 160,
          "midi": 29,
          "name": "F1",
          "ticks": 143432,
          "time": 112.05624999999999,
          "velocity": 1
        },
        {
          "duration": 0.24062499999999432,
          "durationTicks": 308,
          "midi": 33,
          "name": "A1",
          "ticks": 143628,
          "time": 112.209375,
          "velocity": 1
        },
        {
          "duration": 0.12812500000001137,
          "durationTicks": 164,
          "midi": 29,
          "name": "F1",
          "ticks": 144002,
          "time": 112.50156249999999,
          "velocity": 1
        },
        {
          "duration": 0.19374999999999432,
          "durationTicks": 248,
          "midi": 34,
          "name": "A#1",
          "ticks": 144214,
          "time": 112.6671875,
          "velocity": 1
        },
        {
          "duration": 0.24843750000000853,
          "durationTicks": 318,
          "midi": 46,
          "name": "A#2",
          "ticks": 144588,
          "time": 112.959375,
          "velocity": 1
        },
        {
          "duration": 0.2890625,
          "durationTicks": 370,
          "midi": 39,
          "name": "D#2",
          "ticks": 145928,
          "time": 114.00625,
          "velocity": 1
        },
        {
          "duration": 0.35625000000000284,
          "durationTicks": 456,
          "midi": 39,
          "name": "D#2",
          "ticks": 146492,
          "time": 114.44687499999999,
          "velocity": 1
        },
        {
          "duration": 0.2718749999999943,
          "durationTicks": 348,
          "midi": 34,
          "name": "A#1",
          "ticks": 147046,
          "time": 114.8796875,
          "velocity": 1
        },
        {
          "duration": 0.3421875000000085,
          "durationTicks": 438,
          "midi": 41,
          "name": "F2",
          "ticks": 148986,
          "time": 116.39531249999999,
          "velocity": 0.7874015748031497
        },
        {
          "duration": 0.39531250000001705,
          "durationTicks": 506,
          "midi": 41,
          "name": "F2",
          "ticks": 149576,
          "time": 116.85624999999999,
          "velocity": 0.7874015748031497
        },
        {
          "duration": 0.21875,
          "durationTicks": 280,
          "midi": 34,
          "name": "A#1",
          "ticks": 150120,
          "time": 117.28125,
          "velocity": 0.7874015748031497
        },
        {
          "duration": 0.29999999999999716,
          "durationTicks": 384,
          "midi": 29,
          "name": "F1",
          "ticks": 152064,
          "time": 118.8,
          "velocity": 0.7874015748031497
        },
        {
          "duration": 0.29999999999999716,
          "durationTicks": 384,
          "midi": 33,
          "name": "A1",
          "ticks": 152640,
          "time": 119.25,
          "velocity": 0.7874015748031497
        },
        {
          "duration": 0.15000000000000568,
          "durationTicks": 192,
          "midi": 34,
          "name": "A#1",
          "ticks": 153408,
          "time": 119.85,
          "velocity": 0.7874015748031497
        },
        {
          "duration": 0.0703125,
          "durationTicks": 90,
          "midi": 46,
          "name": "A#2",
          "ticks": 153758,
          "time": 120.1234375,
          "velocity": 0.7874015748031497
        },
        {
          "duration": 0.07343749999999716,
          "durationTicks": 94,
          "midi": 46,
          "name": "A#2",
          "ticks": 153928,
          "time": 120.25625,
          "velocity": 0.7874015748031497
        },
        {
          "duration": 0.13124999999999432,
          "durationTicks": 168,
          "midi": 46,
          "name": "A#2",
          "ticks": 154120,
          "time": 120.40625,
          "velocity": 0.7874015748031497
        },
        {
          "duration": 0.2656250000000142,
          "durationTicks": 340,
          "midi": 43,
          "name": "G2",
          "ticks": 154340,
          "time": 120.57812499999999,
          "velocity": 0.7874015748031497
        },
        {
          "duration": 0.15000000000000568,
          "durationTicks": 192,
          "midi": 41,
          "name": "F2",
          "ticks": 154708,
          "time": 120.865625,
          "velocity": 0.7874015748031497
        },
        {
          "duration": 0.3140625000000057,
          "durationTicks": 402,
          "midi": 29,
          "name": "F1",
          "ticks": 155096,
          "time": 121.16874999999999,
          "velocity": 0.7874015748031497
        },
        {
          "duration": 0.2718749999999943,
          "durationTicks": 348,
          "midi": 33,
          "name": "A1",
          "ticks": 155672,
          "time": 121.61874999999999,
          "velocity": 0.7874015748031497
        },
        {
          "duration": 0.20937499999999432,
          "durationTicks": 268,
          "midi": 34,
          "name": "A#1",
          "ticks": 156238,
          "time": 122.0609375,
          "velocity": 0.7874015748031497
        },
        {
          "duration": 0.078125,
          "durationTicks": 100,
          "midi": 46,
          "name": "A#2",
          "ticks": 156828,
          "time": 122.521875,
          "velocity": 0.7874015748031497
        },
        {
          "duration": 0.07500000000000284,
          "durationTicks": 96,
          "midi": 46,
          "name": "A#2",
          "ticks": 157016,
          "time": 122.66874999999999,
          "velocity": 0.7874015748031497
        },
        {
          "duration": 0.1171875,
          "durationTicks": 150,
          "midi": 46,
          "name": "A#2",
          "ticks": 157208,
          "time": 122.81875,
          "velocity": 0.7874015748031497
        },
        {
          "duration": 0.22187500000001137,
          "durationTicks": 284,
          "midi": 43,
          "name": "G2",
          "ticks": 157412,
          "time": 122.97812499999999,
          "velocity": 0.7874015748031497
        },
        {
          "duration": 0.15625,
          "durationTicks": 200,
          "midi": 41,
          "name": "F2",
          "ticks": 157774,
          "time": 123.2609375,
          "velocity": 0.7874015748031497
        },
        {
          "duration": 0.15000000000000568,
          "durationTicks": 192,
          "midi": 39,
          "name": "D#2",
          "ticks": 158208,
          "time": 123.6,
          "velocity": 0.7874015748031497
        },
        {
          "duration": 0.14999999999999147,
          "durationTicks": 192,
          "midi": 34,
          "name": "A#1",
          "ticks": 158784,
          "time": 124.05,
          "velocity": 0.7874015748031497
        },
        {
          "duration": 0.15000000000000568,
          "durationTicks": 192,
          "midi": 39,
          "name": "D#2",
          "ticks": 158976,
          "time": 124.19999999999999,
          "velocity": 0.7874015748031497
        },
        {
          "duration": 0.14999999999999147,
          "durationTicks": 192,
          "midi": 39,
          "name": "D#2",
          "ticks": 159360,
          "time": 124.5,
          "velocity": 0.7874015748031497
        },
        {
          "duration": 0.15000000000000568,
          "durationTicks": 192,
          "midi": 36,
          "name": "C2",
          "ticks": 159552,
          "time": 124.64999999999999,
          "velocity": 0.7874015748031497
        },
        {
          "duration": 0.29999999999999716,
          "durationTicks": 384,
          "midi": 38,
          "name": "D2",
          "ticks": 159744,
          "time": 124.8,
          "velocity": 0.7874015748031497
        },
        {
          "duration": 0.29999999999999716,
          "durationTicks": 384,
          "midi": 34,
          "name": "A#1",
          "ticks": 160320,
          "time": 125.25,
          "velocity": 0.7874015748031497
        },
        {
          "duration": 0.30000000000001137,
          "durationTicks": 384,
          "midi": 38,
          "name": "D2",
          "ticks": 160896,
          "time": 125.69999999999999,
          "velocity": 0.7874015748031497
        },
        {
          "duration": 0.29999999999999716,
          "durationTicks": 384,
          "midi": 36,
          "name": "C2",
          "ticks": 161280,
          "time": 126,
          "velocity": 0.7874015748031497
        },
        {
          "duration": 0.30000000000001137,
          "durationTicks": 384,
          "midi": 33,
          "name": "A1",
          "ticks": 161856,
          "time": 126.44999999999999,
          "velocity": 0.7874015748031497
        },
        {
          "duration": 0.29999999999999716,
          "durationTicks": 384,
          "midi": 36,
          "name": "C2",
          "ticks": 162432,
          "time": 126.89999999999999,
          "velocity": 0.7874015748031497
        },
        {
          "duration": 0.30000000000001137,
          "durationTicks": 384,
          "midi": 34,
          "name": "A#1",
          "ticks": 162816,
          "time": 127.19999999999999,
          "velocity": 0.7874015748031497
        },
        {
          "duration": 0.24062499999999432,
          "durationTicks": 308,
          "midi": 39,
          "name": "D#2",
          "ticks": 164348,
          "time": 128.396875,
          "velocity": 0.7874015748031497
        },
        {
          "duration": 1.1999999999999886,
          "durationTicks": 1536,
          "midi": 75,
          "name": "D#5",
          "ticks": 164352,
          "time": 128.4,
          "velocity": 0.7874015748031497
        },
        {
          "duration": 0.29218750000001137,
          "durationTicks": 374,
          "midi": 43,
          "name": "G2",
          "ticks": 164900,
          "time": 128.828125,
          "velocity": 0.7874015748031497
        },
        {
          "duration": 0.20625000000001137,
          "durationTicks": 264,
          "midi": 46,
          "name": "A#2",
          "ticks": 165452,
          "time": 129.25937499999998,
          "velocity": 0.7874015748031497
        },
        {
          "duration": 0.3187499999999943,
          "durationTicks": 408,
          "midi": 34,
          "name": "A#1",
          "ticks": 165848,
          "time": 129.56875,
          "velocity": 0.7874015748031497
        },
        {
          "duration": 1.8000000000000114,
          "durationTicks": 2304,
          "midi": 74,
          "name": "D5",
          "ticks": 165888,
          "time": 129.6,
          "velocity": 0.7874015748031497
        },
        {
          "duration": 0.13906249999999432,
          "durationTicks": 178,
          "midi": 38,
          "name": "D2",
          "ticks": 166450,
          "time": 130.0390625,
          "velocity": 0.7874015748031497
        },
        {
          "duration": 0.20468750000000568,
          "durationTicks": 262,
          "midi": 43,
          "name": "G2",
          "ticks": 166634,
          "time": 130.18281249999998,
          "velocity": 0.7874015748031497
        },
        {
          "duration": 0.21875,
          "durationTicks": 280,
          "midi": 41,
          "name": "F2",
          "ticks": 166998,
          "time": 130.4671875,
          "velocity": 0.7874015748031497
        },
        {
          "duration": 0.35468749999998295,
          "durationTicks": 454,
          "midi": 29,
          "name": "F1",
          "ticks": 167390,
          "time": 130.7734375,
          "velocity": 0.7874015748031497
        },
        {
          "duration": 0.2984375000000057,
          "durationTicks": 382,
          "midi": 33,
          "name": "A1",
          "ticks": 167984,
          "time": 131.23749999999998,
          "velocity": 0.7874015748031497
        },
        {
          "duration": 0.5999999999999943,
          "durationTicks": 768,
          "midi": 72,
          "name": "C5",
          "ticks": 168192,
          "time": 131.4,
          "velocity": 0.7874015748031497
        },
        {
          "duration": 0.20468750000000568,
          "durationTicks": 262,
          "midi": 36,
          "name": "C2",
          "ticks": 168516,
          "time": 131.653125,
          "velocity": 0.7874015748031497
        },
        {
          "duration": 0.5999999999999943,
          "durationTicks": 768,
          "midi": 70,
          "name": "A#4",
          "ticks": 168960,
          "time": 132,
          "velocity": 0.7874015748031497
        },
        {
          "duration": 0.06875000000002274,
          "durationTicks": 88,
          "midi": 46,
          "name": "A#2",
          "ticks": 169124,
          "time": 132.12812499999998,
          "velocity": 0.7874015748031497
        },
        {
          "duration": 0.07187500000000568,
          "durationTicks": 92,
          "midi": 46,
          "name": "A#2",
          "ticks": 169308,
          "time": 132.271875,
          "velocity": 0.7874015748031497
        },
        {
          "duration": 0.12031249999998295,
          "durationTicks": 154,
          "midi": 46,
          "name": "A#2",
          "ticks": 169492,
          "time": 132.415625,
          "velocity": 0.7874015748031497
        },
        {
          "duration": 0.23749999999998295,
          "durationTicks": 304,
          "midi": 43,
          "name": "G2",
          "ticks": 169684,
          "time": 132.565625,
          "velocity": 0.7874015748031497
        },
        {
          "duration": 0.5999999999999943,
          "durationTicks": 768,
          "midi": 68,
          "name": "G#4",
          "ticks": 169728,
          "time": 132.6,
          "velocity": 0.7874015748031497
        },
        {
          "duration": 0.22500000000002274,
          "durationTicks": 288,
          "midi": 41,
          "name": "F2",
          "ticks": 170056,
          "time": 132.85625,
          "velocity": 0.7874015748031497
        },
        {
          "duration": 0.3343749999999943,
          "durationTicks": 428,
          "midi": 39,
          "name": "D#2",
          "ticks": 170448,
          "time": 133.1625,
          "velocity": 0.7874015748031497
        },
        {
          "duration": 0.5999999999999943,
          "durationTicks": 768,
          "midi": 67,
          "name": "G4",
          "ticks": 170496,
          "time": 133.2,
          "velocity": 0.7874015748031497
        },
        {
          "duration": 0.3046875,
          "durationTicks": 390,
          "midi": 43,
          "name": "G2",
          "ticks": 171040,
          "time": 133.625,
          "velocity": 0.7874015748031497
        },
        {
          "duration": 0.6000000000000227,
          "durationTicks": 768,
          "midi": 70,
          "name": "A#4",
          "ticks": 171264,
          "time": 133.79999999999998,
          "velocity": 0.7874015748031497
        },
        {
          "duration": 0.20468750000000568,
          "durationTicks": 262,
          "midi": 46,
          "name": "A#2",
          "ticks": 171590,
          "time": 134.0546875,
          "velocity": 0.7874015748031497
        },
        {
          "duration": 0.3343749999999943,
          "durationTicks": 428,
          "midi": 41,
          "name": "F2",
          "ticks": 172020,
          "time": 134.390625,
          "velocity": 0.7874015748031497
        },
        {
          "duration": 0.5999999999999943,
          "durationTicks": 768,
          "midi": 69,
          "name": "A4",
          "ticks": 172032,
          "time": 134.4,
          "velocity": 0.7874015748031497
        },
        {
          "duration": 0.3531250000000057,
          "durationTicks": 452,
          "midi": 45,
          "name": "A2",
          "ticks": 172588,
          "time": 134.834375,
          "velocity": 0.7874015748031497
        },
        {
          "duration": 0.5999999999999943,
          "durationTicks": 768,
          "midi": 72,
          "name": "C5",
          "ticks": 172800,
          "time": 135,
          "velocity": 0.7874015748031497
        },
        {
          "duration": 0.140625,
          "durationTicks": 180,
          "midi": 48,
          "name": "C3",
          "ticks": 173124,
          "time": 135.25312499999998,
          "velocity": 0.7874015748031497
        },
        {
          "duration": 0.3453125000000057,
          "durationTicks": 442,
          "midi": 34,
          "name": "A#1",
          "ticks": 173528,
          "time": 135.56875,
          "velocity": 0.7874015748031497
        },
        {
          "duration": 0.5999999999999943,
          "durationTicks": 768,
          "midi": 74,
          "name": "D5",
          "ticks": 173568,
          "time": 135.6,
          "velocity": 0.7874015748031497
        },
        {
          "duration": 0.3265624999999943,
          "durationTicks": 418,
          "midi": 38,
          "name": "D2",
          "ticks": 174118,
          "time": 136.0296875,
          "velocity": 0.7874015748031497
        },
        {
          "duration": 0.5999999999999943,
          "durationTicks": 768,
          "midi": 77,
          "name": "F5",
          "ticks": 174336,
          "time": 136.2,
          "velocity": 0.7874015748031497
        },
        {
          "duration": 0.20624999999998295,
          "durationTicks": 264,
          "midi": 41,
          "name": "F2",
          "ticks": 174664,
          "time": 136.45625,
          "velocity": 0.7874015748031497
        },
        {
          "duration": 0.1953125,
          "durationTicks": 250,
          "midi": 34,
          "name": "A#1",
          "ticks": 175066,
          "time": 136.7703125,
          "velocity": 0.7874015748031497
        },
        {
          "duration": 0.6000000000000227,
          "durationTicks": 768,
          "midi": 82,
          "name": "A#5",
          "ticks": 175104,
          "time": 136.79999999999998,
          "velocity": 0.7874015748031497
        },
        {
          "duration": 0.15468749999999432,
          "durationTicks": 198,
          "midi": 34,
          "name": "A#1",
          "ticks": 175658,
          "time": 137.2328125,
          "velocity": 0.7874015748031497
        },
        {
          "duration": 0.27031250000001705,
          "durationTicks": 346,
          "midi": 29,
          "name": "F1",
          "ticks": 175856,
          "time": 137.3875,
          "velocity": 0.7874015748031497
        },
        {
          "duration": 0.5999999999999943,
          "durationTicks": 768,
          "midi": 86,
          "name": "D6",
          "ticks": 175872,
          "time": 137.4,
          "velocity": 0.7874015748031497
        },
        {
          "duration": 0.2578125,
          "durationTicks": 330,
          "midi": 34,
          "name": "A#1",
          "ticks": 176202,
          "time": 137.6578125,
          "velocity": 0.7874015748031497
        },
        {
          "duration": 0.34062500000001705,
          "durationTicks": 436,
          "midi": 39,
          "name": "D#2",
          "ticks": 176604,
          "time": 137.97187499999998,
          "velocity": 0.7874015748031497
        },
        {
          "duration": 1.1999999999999886,
          "durationTicks": 1536,
          "midi": 87,
          "name": "D#6",
          "ticks": 176640,
          "time": 138,
          "velocity": 0.7874015748031497
        },
        {
          "duration": 0.3187499999999943,
          "durationTicks": 408,
          "midi": 43,
          "name": "G2",
          "ticks": 177180,
          "time": 138.421875,
          "velocity": 0.7874015748031497
        },
        {
          "duration": 0.140625,
          "durationTicks": 180,
          "midi": 46,
          "name": "A#2",
          "ticks": 177706,
          "time": 138.8328125,
          "velocity": 0.7874015748031497
        },
        {
          "duration": 0.15468749999999432,
          "durationTicks": 198,
          "midi": 41,
          "name": "F2",
          "ticks": 178120,
          "time": 139.15625,
          "velocity": 0.7874015748031497
        },
        {
          "duration": 0.5999999999999943,
          "durationTicks": 768,
          "midi": 86,
          "name": "D6",
          "ticks": 178176,
          "time": 139.2,
          "velocity": 0.7874015748031497
        },
        {
          "duration": 0.078125,
          "durationTicks": 100,
          "midi": 29,
          "name": "F1",
          "ticks": 178300,
          "time": 139.296875,
          "velocity": 0.7874015748031497
        },
        {
          "duration": 0.07499999999998863,
          "durationTicks": 96,
          "midi": 29,
          "name": "F1",
          "ticks": 178488,
          "time": 139.44375,
          "velocity": 0.7874015748031497
        },
        {
          "duration": 0.15937499999998295,
          "durationTicks": 204,
          "midi": 29,
          "name": "F1",
          "ticks": 178688,
          "time": 139.6,
          "velocity": 0.7874015748031497
        },
        {
          "duration": 0.30156250000001705,
          "durationTicks": 386,
          "midi": 33,
          "name": "A1",
          "ticks": 178892,
          "time": 139.75937499999998,
          "velocity": 0.7874015748031497
        },
        {
          "duration": 0.6000000000000227,
          "durationTicks": 768,
          "midi": 84,
          "name": "C6",
          "ticks": 178944,
          "time": 139.79999999999998,
          "velocity": 0.7874015748031497
        },
        {
          "duration": 0.2562499999999943,
          "durationTicks": 328,
          "midi": 36,
          "name": "C2",
          "ticks": 179278,
          "time": 140.0609375,
          "velocity": 0.7874015748031497
        },
        {
          "duration": 0.3453125000000057,
          "durationTicks": 442,
          "midi": 31,
          "name": "G1",
          "ticks": 179682,
          "time": 140.3765625,
          "velocity": 0.7874015748031497
        },
        {
          "duration": 1.1999999999999886,
          "durationTicks": 1536,
          "midi": 86,
          "name": "D6",
          "ticks": 179712,
          "time": 140.4,
          "velocity": 0.7874015748031497
        },
        {
          "duration": 0.3984375,
          "durationTicks": 510,
          "midi": 34,
          "name": "A#1",
          "ticks": 180282,
          "time": 140.8453125,
          "velocity": 0.7874015748031497
        },
        {
          "duration": 0.18125000000000568,
          "durationTicks": 232,
          "midi": 38,
          "name": "D2",
          "ticks": 180804,
          "time": 141.25312499999998,
          "velocity": 0.7874015748031497
        },
        {
          "duration": 0.5999999999999943,
          "durationTicks": 768,
          "midi": 84,
          "name": "C6",
          "ticks": 181248,
          "time": 141.6,
          "velocity": 0.7874015748031497
        },
        {
          "duration": 0.07656249999999432,
          "durationTicks": 98,
          "midi": 36,
          "name": "C2",
          "ticks": 181404,
          "time": 141.72187499999998,
          "velocity": 0.7874015748031497
        },
        {
          "duration": 0.06875000000002274,
          "durationTicks": 88,
          "midi": 36,
          "name": "C2",
          "ticks": 181592,
          "time": 141.86874999999998,
          "velocity": 0.7874015748031497
        },
        {
          "duration": 0.11562500000002274,
          "durationTicks": 148,
          "midi": 36,
          "name": "C2",
          "ticks": 181772,
          "time": 142.00937499999998,
          "velocity": 0.7874015748031497
        },
        {
          "duration": 0.06562499999998295,
          "durationTicks": 84,
          "midi": 39,
          "name": "D#2",
          "ticks": 181928,
          "time": 142.13125,
          "velocity": 0.7874015748031497
        },
        {
          "duration": 0.25312500000001137,
          "durationTicks": 324,
          "midi": 40,
          "name": "E2",
          "ticks": 182012,
          "time": 142.19687499999998,
          "velocity": 0.7874015748031497
        },
        {
          "duration": 0.5999999999999943,
          "durationTicks": 768,
          "midi": 82,
          "name": "A#5",
          "ticks": 182016,
          "time": 142.2,
          "velocity": 0.7874015748031497
        },
        {
          "duration": 0.2734375,
          "durationTicks": 350,
          "midi": 43,
          "name": "G2",
          "ticks": 182338,
          "time": 142.4515625,
          "velocity": 0.7874015748031497
        },
        {
          "duration": 0.33281250000001705,
          "durationTicks": 426,
          "midi": 39,
          "name": "D#2",
          "ticks": 182746,
          "time": 142.7703125,
          "velocity": 0.7874015748031497
        },
        {
          "duration": 1.200000000000017,
          "durationTicks": 1536,
          "midi": 79,
          "name": "G5",
          "ticks": 182784,
          "time": 142.79999999999998,
          "velocity": 0.7874015748031497
        },
        {
          "duration": 0.24375000000000568,
          "durationTicks": 312,
          "midi": 43,
          "name": "G2",
          "ticks": 183356,
          "time": 143.246875,
          "velocity": 0.7874015748031497
        },
        {
          "duration": 0.13124999999999432,
          "durationTicks": 168,
          "midi": 46,
          "name": "A#2",
          "ticks": 183892,
          "time": 143.665625,
          "velocity": 0.7874015748031497
        },
        {
          "duration": 0.20625000000001137,
          "durationTicks": 264,
          "midi": 41,
          "name": "F2",
          "ticks": 184292,
          "time": 143.97812499999998,
          "velocity": 0.7874015748031497
        },
        {
          "duration": 0.9000000000000057,
          "durationTicks": 1152,
          "midi": 77,
          "name": "F5",
          "ticks": 184320,
          "time": 144,
          "velocity": 0.7874015748031497
        },
        {
          "duration": 0.2328124999999659,
          "durationTicks": 298,
          "midi": 29,
          "name": "F1",
          "ticks": 184654,
          "time": 144.2609375,
          "velocity": 0.7874015748031497
        },
        {
          "duration": 0.22343750000001705,
          "durationTicks": 286,
          "midi": 33,
          "name": "A1",
          "ticks": 185046,
          "time": 144.5671875,
          "velocity": 0.7874015748031497
        },
        {
          "duration": 0.26250000000001705,
          "durationTicks": 336,
          "midi": 36,
          "name": "C2",
          "ticks": 185436,
          "time": 144.871875,
          "velocity": 0.7874015748031497
        },
        {
          "duration": 0.29999999999998295,
          "durationTicks": 384,
          "midi": 75,
          "name": "D#5",
          "ticks": 185472,
          "time": 144.9,
          "velocity": 0.7874015748031497
        },
        {
          "duration": 0.20937499999999432,
          "durationTicks": 268,
          "midi": 34,
          "name": "A#1",
          "ticks": 185828,
          "time": 145.178125,
          "velocity": 0.7874015748031497
        },
        {
          "duration": 1.200000000000017,
          "durationTicks": 1536,
          "midi": 74,
          "name": "D5",
          "ticks": 185856,
          "time": 145.2,
          "velocity": 0.7874015748031497
        },
        {
          "duration": 0.28750000000002274,
          "durationTicks": 368,
          "midi": 29,
          "name": "F1",
          "ticks": 188516,
          "time": 147.278125,
          "velocity": 0.7874015748031497
        },
        {
          "duration": 0.23749999999998295,
          "durationTicks": 304,
          "midi": 34,
          "name": "A#1",
          "ticks": 188884,
          "time": 147.565625,
          "velocity": 0.7874015748031497
        },
        {
          "duration": 0.19374999999999432,
          "durationTicks": 248,
          "midi": 29,
          "name": "F1",
          "ticks": 190820,
          "time": 149.078125,
          "velocity": 0.7874015748031497
        },
        {
          "duration": 0.30000000000001137,
          "durationTicks": 384,
          "midi": 34,
          "name": "A#1",
          "ticks": 191596,
          "time": 149.684375,
          "velocity": 0.7874015748031497
        },
        {
          "duration": 0.24375000000000568,
          "durationTicks": 312,
          "midi": 36,
          "name": "C2",
          "ticks": 191980,
          "time": 149.984375,
          "velocity": 0.7874015748031497
        },
        {
          "duration": 0.2828125000000057,
          "durationTicks": 362,
          "midi": 43,
          "name": "G2",
          "ticks": 194678,
          "time": 152.0921875,
          "velocity": 0.7874015748031497
        },
        {
          "duration": 0.41874999999998863,
          "durationTicks": 536,
          "midi": 36,
          "name": "C2",
          "ticks": 195060,
          "time": 152.390625,
          "velocity": 0.7874015748031497
        },
        {
          "duration": 0.4078125000000057,
          "durationTicks": 522,
          "midi": 40,
          "name": "E2",
          "ticks": 195622,
          "time": 152.8296875,
          "velocity": 0.7874015748031497
        },
        {
          "duration": 0.19218749999998863,
          "durationTicks": 246,
          "midi": 43,
          "name": "G2",
          "ticks": 196152,
          "time": 153.24375,
          "velocity": 0.7874015748031497
        },
        {
          "duration": 0.29999999999998295,
          "durationTicks": 384,
          "midi": 31,
          "name": "G1",
          "ticks": 196992,
          "time": 153.9,
          "velocity": 0.7874015748031497
        },
        {
          "duration": 0.26875000000001137,
          "durationTicks": 344,
          "midi": 36,
          "name": "C2",
          "ticks": 197760,
          "time": 154.5,
          "velocity": 0.7874015748031497
        },
        {
          "duration": 0.375,
          "durationTicks": 480,
          "midi": 29,
          "name": "F1",
          "ticks": 198104,
          "time": 154.76875,
          "velocity": 0.7874015748031497
        },
        {
          "duration": 0.421875,
          "durationTicks": 540,
          "midi": 33,
          "name": "A1",
          "ticks": 198672,
          "time": 155.2125,
          "velocity": 0.7874015748031497
        },
        {
          "duration": 0.13437500000000568,
          "durationTicks": 172,
          "midi": 36,
          "name": "C2",
          "ticks": 199236,
          "time": 155.653125,
          "velocity": 0.7874015748031497
        },
        {
          "duration": 0.0703125,
          "durationTicks": 90,
          "midi": 36,
          "name": "C2",
          "ticks": 200040,
          "time": 156.28125,
          "velocity": 0.7874015748031497
        },
        {
          "duration": 0.10937499999997158,
          "durationTicks": 140,
          "midi": 36,
          "name": "C2",
          "ticks": 200216,
          "time": 156.41875000000002,
          "velocity": 0.7874015748031497
        },
        {
          "duration": 0.06874999999999432,
          "durationTicks": 88,
          "midi": 39,
          "name": "D#2",
          "ticks": 200388,
          "time": 156.553125,
          "velocity": 0.7874015748031497
        },
        {
          "duration": 0.23906249999998863,
          "durationTicks": 306,
          "midi": 40,
          "name": "E2",
          "ticks": 200476,
          "time": 156.621875,
          "velocity": 0.7874015748031497
        },
        {
          "duration": 0.2984375000000341,
          "durationTicks": 382,
          "midi": 43,
          "name": "G2",
          "ticks": 200782,
          "time": 156.86093749999998,
          "velocity": 0.7874015748031497
        },
        {
          "duration": 0.3687500000000057,
          "durationTicks": 472,
          "midi": 31,
          "name": "G1",
          "ticks": 201186,
          "time": 157.1765625,
          "velocity": 0.7874015748031497
        },
        {
          "duration": 0.37812499999998295,
          "durationTicks": 484,
          "midi": 35,
          "name": "B1",
          "ticks": 201764,
          "time": 157.628125,
          "velocity": 0.7874015748031497
        },
        {
          "duration": 0.21406250000001137,
          "durationTicks": 274,
          "midi": 38,
          "name": "D2",
          "ticks": 202314,
          "time": 158.05781249999998,
          "velocity": 0.7874015748031497
        },
        {
          "duration": 0.07187500000000568,
          "durationTicks": 92,
          "midi": 36,
          "name": "C2",
          "ticks": 202920,
          "time": 158.53125,
          "velocity": 0.7874015748031497
        },
        {
          "duration": 0.07187499999997726,
          "durationTicks": 92,
          "midi": 36,
          "name": "C2",
          "ticks": 203108,
          "time": 158.678125,
          "velocity": 0.7874015748031497
        },
        {
          "duration": 0.12343750000002274,
          "durationTicks": 158,
          "midi": 36,
          "name": "C2",
          "ticks": 203298,
          "time": 158.8265625,
          "velocity": 0.7874015748031497
        },
        {
          "duration": 0.23281249999999432,
          "durationTicks": 298,
          "midi": 33,
          "name": "A1",
          "ticks": 203484,
          "time": 158.97187499999998,
          "velocity": 0.7874015748031497
        },
        {
          "duration": 0.24375000000000568,
          "durationTicks": 312,
          "midi": 31,
          "name": "G1",
          "ticks": 203852,
          "time": 159.259375,
          "velocity": 0.7874015748031497
        },
        {
          "duration": 0.4046874999999943,
          "durationTicks": 518,
          "midi": 29,
          "name": "F1",
          "ticks": 204248,
          "time": 159.56875,
          "velocity": 0.7874015748031497
        },
        {
          "duration": 0.37812500000001137,
          "durationTicks": 484,
          "midi": 33,
          "name": "A1",
          "ticks": 204844,
          "time": 160.03437499999998,
          "velocity": 0.7874015748031497
        },
        {
          "duration": 0.21875,
          "durationTicks": 280,
          "midi": 36,
          "name": "C2",
          "ticks": 205388,
          "time": 160.459375,
          "velocity": 0.7874015748031497
        },
        {
          "duration": 0.07656250000002274,
          "durationTicks": 98,
          "midi": 31,
          "name": "G1",
          "ticks": 205998,
          "time": 160.9359375,
          "velocity": 0.7874015748031497
        },
        {
          "duration": 0.07812500000002842,
          "durationTicks": 100,
          "midi": 31,
          "name": "G1",
          "ticks": 206182,
          "time": 161.07968749999998,
          "velocity": 0.7874015748031497
        },
        {
          "duration": 0.13749999999998863,
          "durationTicks": 176,
          "midi": 31,
          "name": "G1",
          "ticks": 206372,
          "time": 161.228125,
          "velocity": 0.7874015748031497
        },
        {
          "duration": 0.30156250000001705,
          "durationTicks": 386,
          "midi": 35,
          "name": "B1",
          "ticks": 206560,
          "time": 161.37499999999997,
          "velocity": 0.7874015748031497
        },
        {
          "duration": 0.21562500000001705,
          "durationTicks": 276,
          "midi": 38,
          "name": "D2",
          "ticks": 206960,
          "time": 161.6875,
          "velocity": 0.7874015748031497
        },
        {
          "duration": 0.3890624999999943,
          "durationTicks": 498,
          "midi": 36,
          "name": "C2",
          "ticks": 207344,
          "time": 161.9875,
          "velocity": 0.7874015748031497
        },
        {
          "duration": 0.37031250000001137,
          "durationTicks": 474,
          "midi": 40,
          "name": "E2",
          "ticks": 207918,
          "time": 162.4359375,
          "velocity": 0.7874015748031497
        },
        {
          "duration": 0.20156249999999432,
          "durationTicks": 258,
          "midi": 43,
          "name": "G2",
          "ticks": 208440,
          "time": 162.84375,
          "velocity": 0.7874015748031497
        },
        {
          "duration": 0.06406249999997726,
          "durationTicks": 82,
          "midi": 48,
          "name": "C3",
          "ticks": 208878,
          "time": 163.1859375,
          "velocity": 0.7874015748031497
        },
        {
          "duration": 0.07656249999999432,
          "durationTicks": 98,
          "midi": 48,
          "name": "C3",
          "ticks": 209056,
          "time": 163.325,
          "velocity": 0.7874015748031497
        },
        {
          "duration": 0.07656250000002274,
          "durationTicks": 98,
          "midi": 48,
          "name": "C3",
          "ticks": 209254,
          "time": 163.47968749999998,
          "velocity": 0.7874015748031497
        },
        {
          "duration": 0.11250000000001137,
          "durationTicks": 144,
          "midi": 48,
          "name": "C3",
          "ticks": 209450,
          "time": 163.6328125,
          "velocity": 0.7874015748031497
        },
        {
          "duration": 0.0625,
          "durationTicks": 80,
          "midi": 39,
          "name": "D#2",
          "ticks": 209628,
          "time": 163.771875,
          "velocity": 0.7874015748031497
        },
        {
          "duration": 0.24375000000000568,
          "durationTicks": 312,
          "midi": 40,
          "name": "E2",
          "ticks": 209708,
          "time": 163.834375,
          "velocity": 0.7874015748031497
        },
        {
          "duration": 0.23124999999998863,
          "durationTicks": 296,
          "midi": 43,
          "name": "G2",
          "ticks": 210020,
          "time": 164.078125,
          "velocity": 0.7874015748031497
        },
        {
          "duration": 0.36562500000002274,
          "durationTicks": 468,
          "midi": 29,
          "name": "F1",
          "ticks": 210414,
          "time": 164.38593749999998,
          "velocity": 0.7874015748031497
        },
        {
          "duration": 0.4421874999999602,
          "durationTicks": 566,
          "midi": 33,
          "name": "A1",
          "ticks": 210986,
          "time": 164.83281250000002,
          "velocity": 0.7874015748031497
        },
        {
          "duration": 0.23125000000001705,
          "durationTicks": 296,
          "midi": 36,
          "name": "C2",
          "ticks": 211552,
          "time": 165.27499999999998,
          "velocity": 0.7874015748031497
        },
        {
          "duration": 0.07656249999999432,
          "durationTicks": 98,
          "midi": 31,
          "name": "G1",
          "ticks": 212330,
          "time": 165.8828125,
          "velocity": 0.7874015748031497
        },
        {
          "duration": 0.12499999999997158,
          "durationTicks": 160,
          "midi": 31,
          "name": "G1",
          "ticks": 212504,
          "time": 166.01875,
          "velocity": 0.7874015748031497
        },
        {
          "duration": 0.12187500000001705,
          "durationTicks": 156,
          "midi": 34,
          "name": "A#1",
          "ticks": 212680,
          "time": 166.15624999999997,
          "velocity": 0.7874015748031497
        },
        {
          "duration": 0.20781250000001705,
          "durationTicks": 266,
          "midi": 35,
          "name": "B1",
          "ticks": 212836,
          "time": 166.278125,
          "velocity": 0.7874015748031497
        },
        {
          "duration": 0.27031249999998863,
          "durationTicks": 346,
          "midi": 38,
          "name": "D2",
          "ticks": 213102,
          "time": 166.4859375,
          "velocity": 0.7874015748031497
        },
        {
          "duration": 0.3515625,
          "durationTicks": 450,
          "midi": 33,
          "name": "A1",
          "ticks": 213492,
          "time": 166.790625,
          "velocity": 0.7874015748031497
        },
        {
          "duration": 0.31875000000002274,
          "durationTicks": 408,
          "midi": 36,
          "name": "C2",
          "ticks": 214074,
          "time": 167.24531249999998,
          "velocity": 0.7874015748031497
        },
        {
          "duration": 0.203125,
          "durationTicks": 260,
          "midi": 40,
          "name": "E2",
          "ticks": 214608,
          "time": 167.6625,
          "velocity": 0.7874015748031497
        },
        {
          "duration": 0.07812499999997158,
          "durationTicks": 100,
          "midi": 38,
          "name": "D2",
          "ticks": 215204,
          "time": 168.128125,
          "velocity": 0.7874015748031497
        },
        {
          "duration": 0.07343750000003979,
          "durationTicks": 94,
          "midi": 38,
          "name": "D2",
          "ticks": 215392,
          "time": 168.27499999999998,
          "velocity": 0.7874015748031497
        },
        {
          "duration": 0.13593749999998295,
          "durationTicks": 174,
          "midi": 38,
          "name": "D2",
          "ticks": 215578,
          "time": 168.4203125,
          "velocity": 0.7874015748031497
        },
        {
          "duration": 0.30156250000001705,
          "durationTicks": 386,
          "midi": 30,
          "name": "F#1",
          "ticks": 215764,
          "time": 168.56562499999998,
          "velocity": 0.7874015748031497
        },
        {
          "duration": 0.28593749999998863,
          "durationTicks": 366,
          "midi": 33,
          "name": "A1",
          "ticks": 216150,
          "time": 168.8671875,
          "velocity": 0.7874015748031497
        },
        {
          "duration": 0.421875,
          "durationTicks": 540,
          "midi": 29,
          "name": "F1",
          "ticks": 216544,
          "time": 169.17499999999998,
          "velocity": 0.7874015748031497
        },
        {
          "duration": 0.38749999999998863,
          "durationTicks": 496,
          "midi": 33,
          "name": "A1",
          "ticks": 217148,
          "time": 169.646875,
          "velocity": 0.7874015748031497
        },
        {
          "duration": 0.2093749999999659,
          "durationTicks": 268,
          "midi": 36,
          "name": "C2",
          "ticks": 217676,
          "time": 170.05937500000002,
          "velocity": 0.7874015748031497
        },
        {
          "duration": 0.07812499999997158,
          "durationTicks": 100,
          "midi": 31,
          "name": "G1",
          "ticks": 218276,
          "time": 170.52812500000002,
          "velocity": 0.7874015748031497
        },
        {
          "duration": 0.07187500000000568,
          "durationTicks": 92,
          "midi": 31,
          "name": "G1",
          "ticks": 218460,
          "time": 170.671875,
          "velocity": 0.7874015748031497
        },
        {
          "duration": 0.14531249999998863,
          "durationTicks": 186,
          "midi": 31,
          "name": "G1",
          "ticks": 218638,
          "time": 170.8109375,
          "velocity": 0.7874015748031497
        },
        {
          "duration": 0.28750000000002274,
          "durationTicks": 368,
          "midi": 35,
          "name": "B1",
          "ticks": 218824,
          "time": 170.95624999999998,
          "velocity": 0.7874015748031497
        },
        {
          "duration": 0.2781249999999602,
          "durationTicks": 356,
          "midi": 38,
          "name": "D2",
          "ticks": 219224,
          "time": 171.26875,
          "velocity": 0.7874015748031497
        },
        {
          "duration": 0.21250000000000568,
          "durationTicks": 272,
          "midi": 36,
          "name": "C2",
          "ticks": 219600,
          "time": 171.5625,
          "velocity": 0.7874015748031497
        },
        {
          "duration": 0.234375,
          "durationTicks": 300,
          "midi": 31,
          "name": "G1",
          "ticks": 222300,
          "time": 173.671875,
          "velocity": 0.7874015748031497
        },
        {
          "duration": 0.3968749999999943,
          "durationTicks": 508,
          "midi": 29,
          "name": "F1",
          "ticks": 222708,
          "time": 173.990625,
          "velocity": 0.7874015748031497
        },
        {
          "duration": 0.33437500000002274,
          "durationTicks": 428,
          "midi": 33,
          "name": "A1",
          "ticks": 223296,
          "time": 174.45,
          "velocity": 0.7874015748031497
        },
        {
          "duration": 0.19374999999999432,
          "durationTicks": 248,
          "midi": 36,
          "name": "C2",
          "ticks": 223828,
          "time": 174.865625,
          "velocity": 0.7874015748031497
        },
        {
          "duration": 0.07968749999997726,
          "durationTicks": 102,
          "midi": 31,
          "name": "G1",
          "ticks": 224442,
          "time": 175.3453125,
          "velocity": 0.7874015748031497
        },
        {
          "duration": 0.06874999999999432,
          "durationTicks": 88,
          "midi": 31,
          "name": "G1",
          "ticks": 224624,
          "time": 175.4875,
          "velocity": 0.7874015748031497
        },
        {
          "duration": 0.15000000000000568,
          "durationTicks": 192,
          "midi": 31,
          "name": "G1",
          "ticks": 224804,
          "time": 175.628125,
          "velocity": 0.7874015748031497
        },
        {
          "duration": 0.29062499999997726,
          "durationTicks": 372,
          "midi": 35,
          "name": "B1",
          "ticks": 224996,
          "time": 175.77812500000002,
          "velocity": 0.7874015748031497
        },
        {
          "duration": 0.26093750000001137,
          "durationTicks": 334,
          "midi": 38,
          "name": "D2",
          "ticks": 225384,
          "time": 176.08124999999998,
          "velocity": 0.7874015748031497
        },
        {
          "duration": 0.26093749999998295,
          "durationTicks": 334,
          "midi": 36,
          "name": "C2",
          "ticks": 225768,
          "time": 176.38125,
          "velocity": 0.7874015748031497
        },
        {
          "duration": 0.2750000000000057,
          "durationTicks": 352,
          "midi": 31,
          "name": "G1",
          "ticks": 228448,
          "time": 178.475,
          "velocity": 0.7874015748031497
        },
        {
          "duration": 0.4062500000000284,
          "durationTicks": 520,
          "midi": 29,
          "name": "F1",
          "ticks": 228832,
          "time": 178.77499999999998,
          "velocity": 0.7874015748031497
        },
        {
          "duration": 0.3921875000000057,
          "durationTicks": 502,
          "midi": 33,
          "name": "A1",
          "ticks": 229418,
          "time": 179.2328125,
          "velocity": 0.7874015748031497
        },
        {
          "duration": 0.234375,
          "durationTicks": 300,
          "midi": 36,
          "name": "C2",
          "ticks": 229960,
          "time": 179.65624999999997,
          "velocity": 0.7874015748031497
        },
        {
          "duration": 0.06406250000000568,
          "durationTicks": 82,
          "midi": 31,
          "name": "G1",
          "ticks": 230586,
          "time": 180.1453125,
          "velocity": 0.7874015748031497
        },
        {
          "duration": 0.060937499999994316,
          "durationTicks": 78,
          "midi": 31,
          "name": "G1",
          "ticks": 230764,
          "time": 180.28437499999998,
          "velocity": 0.7874015748031497
        },
        {
          "duration": 0.11875000000000568,
          "durationTicks": 152,
          "midi": 31,
          "name": "G1",
          "ticks": 230928,
          "time": 180.4125,
          "velocity": 0.7874015748031497
        },
        {
          "duration": 0.0765624999999659,
          "durationTicks": 98,
          "midi": 34,
          "name": "A#1",
          "ticks": 231092,
          "time": 180.540625,
          "velocity": 0.7874015748031497
        },
        {
          "duration": 0.2375000000000398,
          "durationTicks": 304,
          "midi": 35,
          "name": "B1",
          "ticks": 231190,
          "time": 180.61718749999997,
          "velocity": 0.7874015748031497
        },
        {
          "duration": 0.24531249999998295,
          "durationTicks": 314,
          "midi": 38,
          "name": "D2",
          "ticks": 231494,
          "time": 180.8546875,
          "velocity": 0.7874015748031497
        },
        {
          "duration": 0.38749999999998863,
          "durationTicks": 496,
          "midi": 33,
          "name": "A1",
          "ticks": 231896,
          "time": 181.16875000000002,
          "velocity": 0.7874015748031497
        },
        {
          "duration": 0.375,
          "durationTicks": 480,
          "midi": 36,
          "name": "C2",
          "ticks": 232504,
          "time": 181.64374999999998,
          "velocity": 0.7874015748031497
        },
        {
          "duration": 0.21406249999998295,
          "durationTicks": 274,
          "midi": 40,
          "name": "E2",
          "ticks": 233030,
          "time": 182.0546875,
          "velocity": 0.7874015748031497
        },
        {
          "duration": 0.08125000000001137,
          "durationTicks": 104,
          "midi": 38,
          "name": "D2",
          "ticks": 233632,
          "time": 182.52499999999998,
          "velocity": 0.7874015748031497
        },
        {
          "duration": 0.0703125,
          "durationTicks": 90,
          "midi": 38,
          "name": "D2",
          "ticks": 233818,
          "time": 182.6703125,
          "velocity": 0.7874015748031497
        },
        {
          "duration": 0.12968749999998863,
          "durationTicks": 166,
          "midi": 38,
          "name": "D2",
          "ticks": 234000,
          "time": 182.8125,
          "velocity": 0.7874015748031497
        },
        {
          "duration": 0.11875000000000568,
          "durationTicks": 152,
          "midi": 41,
          "name": "F2",
          "ticks": 234168,
          "time": 182.94375,
          "velocity": 0.7874015748031497
        },
        {
          "duration": 0.21562500000001705,
          "durationTicks": 276,
          "midi": 42,
          "name": "F#2",
          "ticks": 234320,
          "time": 183.0625,
          "velocity": 0.7874015748031497
        },
        {
          "duration": 0.19843749999995453,
          "durationTicks": 254,
          "midi": 45,
          "name": "A2",
          "ticks": 234596,
          "time": 183.27812500000002,
          "velocity": 0.7874015748031497
        },
        {
          "duration": 0.3984375,
          "durationTicks": 510,
          "midi": 29,
          "name": "F1",
          "ticks": 234976,
          "time": 183.575,
          "velocity": 0.7874015748031497
        },
        {
          "duration": 0.4140625,
          "durationTicks": 530,
          "midi": 33,
          "name": "A1",
          "ticks": 235568,
          "time": 184.0375,
          "velocity": 0.7874015748031497
        },
        {
          "duration": 0.2328124999999659,
          "durationTicks": 298,
          "midi": 36,
          "name": "C2",
          "ticks": 236112,
          "time": 184.4625,
          "velocity": 0.7874015748031497
        },
        {
          "duration": 0.07656250000002274,
          "durationTicks": 98,
          "midi": 31,
          "name": "G1",
          "ticks": 236722,
          "time": 184.93906249999998,
          "velocity": 0.7874015748031497
        },
        {
          "duration": 0.07187499999997726,
          "durationTicks": 92,
          "midi": 31,
          "name": "G1",
          "ticks": 236912,
          "time": 185.0875,
          "velocity": 0.7874015748031497
        },
        {
          "duration": 0.13437499999997726,
          "durationTicks": 172,
          "midi": 31,
          "name": "G1",
          "ticks": 237092,
          "time": 185.228125,
          "velocity": 0.7874015748031497
        },
        {
          "duration": 0.2906250000000057,
          "durationTicks": 372,
          "midi": 35,
          "name": "B1",
          "ticks": 237264,
          "time": 185.36249999999998,
          "velocity": 0.7874015748031497
        },
        {
          "duration": 0.22031250000000568,
          "durationTicks": 282,
          "midi": 38,
          "name": "D2",
          "ticks": 237664,
          "time": 185.67499999999998,
          "velocity": 0.7874015748031497
        },
        {
          "duration": 1.2249999999999943,
          "durationTicks": 1568,
          "midi": 36,
          "name": "C2",
          "ticks": 238048,
          "time": 185.975,
          "velocity": 0.7874015748031497
        },
        {
          "duration": 0.31718749999998863,
          "durationTicks": 406,
          "midi": 31,
          "name": "G1",
          "ticks": 240728,
          "time": 188.06875,
          "velocity": 0.7874015748031497
        },
        {
          "duration": 1.21875,
          "durationTicks": 1560,
          "midi": 36,
          "name": "C2",
          "ticks": 241134,
          "time": 188.38593749999998,
          "velocity": 0.7874015748031497
        },
        {
          "duration": 0.606250000000017,
          "durationTicks": 776,
          "midi": 31,
          "name": "G1",
          "ticks": 243064,
          "time": 189.89374999999998,
          "velocity": 0.7874015748031497
        },
        {
          "duration": 0.21718749999999432,
          "durationTicks": 278,
          "midi": 36,
          "name": "C2",
          "ticks": 243840,
          "time": 190.5,
          "velocity": 0.7874015748031497
        }
      ],
      "endOfTrackTicks": 245760
    },
    {
      "channel": 0,
      "controlChanges": {},
      "pitchBends": [],
      "instrument": {
        "family": "piano",
        "number": 0,
        "name": "acoustic grand piano"
      },
      "name": "GS/RESET",
      "notes": [],
      "endOfTrackTicks": 6144
    }
  ]
}