{
  "header": {
    "keySignatures": [],
    "meta": [],
    "name": "",
    "ppq": 240,
    "tempos": [
      {
        "bpm": 94.99999208333399,
        "ticks": 0
      },
      {
        "bpm": 91.99998773333498,
        "ticks": 36480
      },
      {
        "bpm": 68.30398918064812,
        "ticks": 36600
      },
      {
        "bpm": 66.48273111059402,
        "ticks": 36660
      },
      {
        "bpm": 72.99998296667064,
        "ticks": 36720
      },
      {
        "bpm": 67.00002903334591,
        "ticks": 36840
      },
      {
        "bpm": 55.00000458333371,
        "ticks": 36960
      },
      {
        "bpm": 48.9999918333347,
        "ticks": 37080
      }
    ],
    "timeSignatures": [
      {
        "ticks": 0,
        "timeSignature": [
          3,
          8
        ],
        "measures": 0
      }
    ]
  },
  "tracks": [
    {
      "channel": 0,
      "controlChanges": {},
      "pitchBends": [],
      "instrument": {
        "family": "piano",
        "number": 0,
        "name": "acoustic grand piano"
      },
      "name": "",
      "notes": [
        {
          "duration": 0.15789475,
          "durationTicks": 60,
          "midi": 77,
          "name": "F5",
          "ticks": 0,
          "time": 0,
          "velocity": 0.5039370078740157
        },
        {
          "duration": 0.15789475,
          "durationTicks": 60,
          "midi": 73,
          "name": "C#5",
          "ticks": 60,
          "time": 0.15789475,
          "velocity": 0.5039370078740157
        },
        {
          "duration": 0.15789475000000003,
          "durationTicks": 60,
          "midi": 68,
          "name": "G#4",
          "ticks": 120,
          "time": 0.3157895,
          "velocity": 0.5039370078740157
        },
        {
          "duration": 0.15789474999999997,
          "durationTicks": 60,
          "midi": 73,
          "name": "C#5",
          "ticks": 180,
          "time": 0.47368425000000003,
          "velocity": 0.5039370078740157
        },
        {
          "duration": 0.15789474999999997,
          "durationTicks": 60,
          "midi": 77,
          "name": "F5",
          "ticks": 240,
          "time": 0.631579,
          "velocity": 0.5039370078740157
        },
        {
          "duration": 0.15789475000000008,
          "durationTicks": 60,
          "midi": 73,
          "name": "C#5",
          "ticks": 300,
          "time": 0.78947375,
          "velocity": 0.5039370078740157
        },
        {
          "duration": 0.15789474999999986,
          "durationTicks": 60,
          "midi": 78,
          "name": "F#5",
          "ticks": 360,
          "time": 0.9473685000000001,
          "velocity": 0.5039370078740157
        },
        {
          "duration": 0.15789475000000008,
          "durationTicks": 60,
          "midi": 73,
          "name": "C#5",
          "ticks": 420,
          "time": 1.10526325,
          "velocity": 0.5039370078740157
        },
        {
          "duration": 0.15789475000000008,
          "durationTicks": 60,
          "midi": 78,
          "name": "F#5",
          "ticks": 480,
          "time": 1.263158,
          "velocity": 0.5039370078740157
        },
        {
          "duration": 0.15789474999999986,
          "durationTicks": 60,
          "midi": 73,
          "name": "C#5",
          "ticks": 540,
          "time": 1.42105275,
          "velocity": 0.5039370078740157
        },
        {
          "duration": 0.15789475000000008,
          "durationTicks": 60,
          "midi": 78,
          "name": "F#5",
          "ticks": 600,
          "time": 1.5789475,
          "velocity": 0.5039370078740157
        },
        {
          "duration": 0.15789475000000008,
          "durationTicks": 60,
          "midi": 73,
          "name": "C#5",
          "ticks": 660,
          "time": 1.73684225,
          "velocity": 0.5039370078740157
        },
        {
          "duration": 0.15789475000000008,
          "durationTicks": 60,
          "midi": 80,
          "name": "G#5",
          "ticks": 720,
          "time": 1.8947370000000001,
          "velocity": 0.5039370078740157
        },
        {
          "duration": 0.15789474999999964,
          "durationTicks": 60,
          "midi": 73,
          "name": "C#5",
          "ticks": 780,
          "time": 2.05263175,
          "velocity": 0.5039370078740157
        },
        {
          "duration": 0.15789475000000008,
          "durationTicks": 60,
          "midi": 80,
          "name": "G#5",
          "ticks": 840,
          "time": 2.2105265,
          "velocity": 0.5039370078740157
        },
        {
          "duration": 0.15789475000000008,
          "durationTicks": 60,
          "midi": 73,
          "name": "C#5",
          "ticks": 900,
          "time": 2.36842125,
          "velocity": 0.5039370078740157
        },
        {
          "duration": 0.15789475000000008,
          "durationTicks": 60,
          "midi": 80,
          "name": "G#5",
          "ticks": 960,
          "time": 2.526316,
          "velocity": 0.5039370078740157
        },
        {
          "duration": 0.15789475000000008,
          "durationTicks": 60,
          "midi": 73,
          "name": "C#5",
          "ticks": 1020,
          "time": 2.68421075,
          "velocity": 0.5039370078740157
        },
        {
          "duration": 0.15789474999999964,
          "durationTicks": 60,
          "midi": 82,
          "name": "A#5",
          "ticks": 1080,
          "time": 2.8421055,
          "velocity": 0.5039370078740157
        },
        {
          "duration": 0.15789475000000008,
          "durationTicks": 60,
          "midi": 73,
          "name": "C#5",
          "ticks": 1140,
          "time": 3.00000025,
          "velocity": 0.5039370078740157
        },
        {
          "duration": 0.15789475000000008,
          "durationTicks": 60,
          "midi": 82,
          "name": "A#5",
          "ticks": 1200,
          "time": 3.157895,
          "velocity": 0.5039370078740157
        },
        {
          "duration": 0.15789475000000008,
          "durationTicks": 60,
          "midi": 73,
          "name": "C#5",
          "ticks": 1260,
          "time": 3.31578975,
          "velocity": 0.5039370078740157
        },
        {
          "duration": 0.15789475000000008,
          "durationTicks": 60,
          "midi": 82,
          "name": "A#5",
          "ticks": 1320,
          "time": 3.4736845,
          "velocity": 0.5039370078740157
        },
        {
          "duration": 0.15789475000000008,
          "durationTicks": 60,
          "midi": 73,
          "name": "C#5",
          "ticks": 1380,
          "time": 3.63157925,
          "velocity": 0.5039370078740157
        },
        {
          "duration": 0.15789474999999964,
          "durationTicks": 60,
          "midi": 80,
          "name": "G#5",
          "ticks": 1440,
          "time": 3.7894740000000002,
          "velocity": 0.5039370078740157
        },
        {
          "duration": 0.15789475000000053,
          "durationTicks": 60,
          "midi": 73,
          "name": "C#5",
          "ticks": 1500,
          "time": 3.94736875,
          "velocity": 0.5039370078740157
        },
        {
          "duration": 0.15789474999999964,
          "durationTicks": 60,
          "midi": 80,
          "name": "G#5",
          "ticks": 1560,
          "time": 4.1052635,
          "velocity": 0.5039370078740157
        },
        {
          "duration": 0.15789474999999964,
          "durationTicks": 60,
          "midi": 73,
          "name": "C#5",
          "ticks": 1620,
          "time": 4.26315825,
          "velocity": 0.5039370078740157
        },
        {
          "duration": 0.15789475000000053,
          "durationTicks": 60,
          "midi": 80,
          "name": "G#5",
          "ticks": 1680,
          "time": 4.421053,
          "velocity": 0.5039370078740157
        },
        {
          "duration": 0.15789474999999964,
          "durationTicks": 60,
          "midi": 73,
          "name": "C#5",
          "ticks": 1740,
          "time": 4.57894775,
          "velocity": 0.5039370078740157
        },
        {
          "duration": 0.15789475000000053,
          "durationTicks": 60,
          "midi": 78,
          "name": "F#5",
          "ticks": 1800,
          "time": 4.7368425,
          "velocity": 0.5039370078740157
        },
        {
          "duration": 0.15789474999999964,
          "durationTicks": 60,
          "midi": 77,
          "name": "F5",
          "ticks": 1860,
          "time": 4.89473725,
          "velocity": 0.5039370078740157
        },
        {
          "duration": 0.15789474999999964,
          "durationTicks": 60,
          "midi": 75,
          "name": "D#5",
          "ticks": 1920,
          "time": 5.052632,
          "velocity": 0.5039370078740157
        },
        {
          "duration": 0.15789475000000053,
          "durationTicks": 60,
          "midi": 77,
          "name": "F5",
          "ticks": 1980,
          "time": 5.21052675,
          "velocity": 0.5039370078740157
        },
        {
          "duration": 0.15789474999999964,
          "durationTicks": 60,
          "midi": 78,
          "name": "F#5",
          "ticks": 2040,
          "time": 5.3684215,
          "velocity": 0.5039370078740157
        },
        {
          "duration": 0.15789475000000053,
          "durationTicks": 60,
          "midi": 75,
          "name": "D#5",
          "ticks": 2100,
          "time": 5.52631625,
          "velocity": 0.5039370078740157
        },
        {
          "duration": 0.15789474999999964,
          "durationTicks": 60,
          "midi": 77,
          "name": "F5",
          "ticks": 2160,
          "time": 5.684211,
          "velocity": 0.5039370078740157
        },
        {
          "duration": 0.15789474999999964,
          "durationTicks": 60,
          "midi": 75,
          "name": "D#5",
          "ticks": 2220,
          "time": 5.84210575,
          "velocity": 0.5039370078740157
        },
        {
          "duration": 0.15789475000000053,
          "durationTicks": 60,
          "midi": 73,
          "name": "C#5",
          "ticks": 2280,
          "time": 6.0000005,
          "velocity": 0.5039370078740157
        },
        {
          "duration": 0.15789474999999964,
          "durationTicks": 60,
          "midi": 75,
          "name": "D#5",
          "ticks": 2340,
          "time": 6.15789525,
          "velocity": 0.5039370078740157
        },
        {
          "duration": 0.15789475000000053,
          "durationTicks": 60,
          "midi": 77,
          "name": "F5",
          "ticks": 2400,
          "time": 6.31579,
          "velocity": 0.5039370078740157
        },
        {
          "duration": 0.15789474999999964,
          "durationTicks": 60,
          "midi": 73,
          "name": "C#5",
          "ticks": 2460,
          "time": 6.47368475,
          "velocity": 0.5039370078740157
        },
        {
          "duration": 0.15789474999999964,
          "durationTicks": 60,
          "midi": 75,
          "name": "D#5",
          "ticks": 2520,
          "time": 6.6315795,
          "velocity": 0.5039370078740157
        },
        {
          "duration": 0.15789475000000053,
          "durationTicks": 60,
          "midi": 77,
          "name": "F5",
          "ticks": 2580,
          "time": 6.78947425,
          "velocity": 0.5039370078740157
        },
        {
          "duration": 0.15789474999999964,
          "durationTicks": 60,
          "midi": 75,
          "name": "D#5",
          "ticks": 2640,
          "time": 6.947369,
          "velocity": 0.5039370078740157
        },
        {
          "duration": 0.15789475000000053,
          "durationTicks": 60,
          "midi": 73,
          "name": "C#5",
          "ticks": 2700,
          "time": 7.10526375,
          "velocity": 0.5039370078740157
        },
        {
          "duration": 0.15789474999999964,
          "durationTicks": 60,
          "midi": 72,
          "name": "C5",
          "ticks": 2760,
          "time": 7.2631585,
          "velocity": 0.5039370078740157
        },
        {
          "duration": 0.15789475000000053,
          "durationTicks": 60,
          "midi": 70,
          "name": "A#4",
          "ticks": 2820,
          "time": 7.42105325,
          "velocity": 0.5039370078740157
        },
        {
          "duration": 0.6315790000000003,
          "durationTicks": 240,
          "midi": 68,
          "name": "G#4",
          "ticks": 2880,
          "time": 7.5789480000000005,
          "velocity": 0.5039370078740157
        },
        {
          "duration": 0.3157894999999993,
          "durationTicks": 120,
          "midi": 80,
          "name": "G#5",
          "ticks": 3120,
          "time": 8.210527,
          "velocity": 0.5039370078740157
        },
        {
          "duration": 0.6315790000000003,
          "durationTicks": 240,
          "midi": 70,
          "name": "A#4",
          "ticks": 3240,
          "time": 8.5263165,
          "velocity": 0.5039370078740157
        },
        {
          "duration": 0.3157894999999993,
          "durationTicks": 120,
          "midi": 80,
          "name": "G#5",
          "ticks": 3480,
          "time": 9.1578955,
          "velocity": 0.5039370078740157
        },
        {
          "duration": 0.6315790000000003,
          "durationTicks": 240,
          "midi": 72,
          "name": "C5",
          "ticks": 3600,
          "time": 9.473685,
          "velocity": 0.5039370078740157
        },
        {
          "duration": 0.3157894999999993,
          "durationTicks": 120,
          "midi": 80,
          "name": "G#5",
          "ticks": 3840,
          "time": 10.105264,
          "velocity": 0.5039370078740157
        },
        {
          "duration": 0.6315790000000003,
          "durationTicks": 240,
          "midi": 73,
          "name": "C#5",
          "ticks": 3960,
          "time": 10.4210535,
          "velocity": 0.5039370078740157
        },
        {
          "duration": 0.31578950000000106,
          "durationTicks": 120,
          "midi": 80,
          "name": "G#5",
          "ticks": 4200,
          "time": 11.0526325,
          "velocity": 0.5039370078740157
        },
        {
          "duration": 0.6315789999999986,
          "durationTicks": 240,
          "midi": 72,
          "name": "C5",
          "ticks": 4320,
          "time": 11.368422,
          "velocity": 0.5039370078740157
        },
        {
          "duration": 0.31578950000000106,
          "durationTicks": 120,
          "midi": 80,
          "name": "G#5",
          "ticks": 4560,
          "time": 12.000001,
          "velocity": 0.5039370078740157
        },
        {
          "duration": 0.6315790000000003,
          "durationTicks": 240,
          "midi": 70,
          "name": "A#4",
          "ticks": 4680,
          "time": 12.3157905,
          "velocity": 0.5039370078740157
        },
        {
          "duration": 0.3157894999999993,
          "durationTicks": 120,
          "midi": 79,
          "name": "G5",
          "ticks": 4920,
          "time": 12.9473695,
          "velocity": 0.5039370078740157
        },
        {
          "duration": 0.6315790000000003,
          "durationTicks": 240,
          "midi": 68,
          "name": "G#4",
          "ticks": 5040,
          "time": 13.263159,
          "velocity": 0.5039370078740157
        },
        {
          "duration": 0.6315790000000003,
          "durationTicks": 240,
          "midi": 80,
          "name": "G#5",
          "ticks": 5280,
          "time": 13.894738,
          "velocity": 0.5039370078740157
        },
        {
          "duration": 0.15789474999999875,
          "durationTicks": 60,
          "midi": 78,
          "name": "F#5",
          "ticks": 5520,
          "time": 14.526317,
          "velocity": 0.5039370078740157
        },
        {
          "duration": 0.15789475000000053,
          "durationTicks": 60,
          "midi": 77,
          "name": "F5",
          "ticks": 5580,
          "time": 14.68421175,
          "velocity": 0.5039370078740157
        },
        {
          "duration": 0.15789475000000053,
          "durationTicks": 60,
          "midi": 75,
          "name": "D#5",
          "ticks": 5640,
          "time": 14.8421065,
          "velocity": 0.5039370078740157
        },
        {
          "duration": 0.15789475000000053,
          "durationTicks": 60,
          "midi": 77,
          "name": "F5",
          "ticks": 5700,
          "time": 15.00000125,
          "velocity": 0.5039370078740157
        },
        {
          "duration": 0.15789474999999875,
          "durationTicks": 60,
          "midi": 78,
          "name": "F#5",
          "ticks": 5760,
          "time": 15.157896000000001,
          "velocity": 0.5039370078740157
        },
        {
          "duration": 0.15789475000000053,
          "durationTicks": 60,
          "midi": 75,
          "name": "D#5",
          "ticks": 5820,
          "time": 15.31579075,
          "velocity": 0.5039370078740157
        },
        {
          "duration": 0.15789475000000053,
          "durationTicks": 60,
          "midi": 70,
          "name": "A#4",
          "ticks": 5880,
          "time": 15.4736855,
          "velocity": 0.5039370078740157
        },
        {
          "duration": 0.15789474999999875,
          "durationTicks": 60,
          "midi": 75,
          "name": "D#5",
          "ticks": 5940,
          "time": 15.63158025,
          "velocity": 0.5039370078740157
        },
        {
          "duration": 0.15789475000000053,
          "durationTicks": 60,
          "midi": 78,
          "name": "F#5",
          "ticks": 6000,
          "time": 15.789475,
          "velocity": 0.5039370078740157
        },
        {
          "duration": 0.15789475000000053,
          "durationTicks": 60,
          "midi": 75,
          "name": "D#5",
          "ticks": 6060,
          "time": 15.94736975,
          "velocity": 0.5039370078740157
        },
        {
          "duration": 0.15789475000000053,
          "durationTicks": 60,
          "midi": 80,
          "name": "G#5",
          "ticks": 6120,
          "time": 16.1052645,
          "velocity": 0.5039370078740157
        },
        {
          "duration": 0.15789475000000053,
          "durationTicks": 60,
          "midi": 75,
          "name": "D#5",
          "ticks": 6180,
          "time": 16.26315925,
          "velocity": 0.5039370078740157
        },
        {
          "duration": 0.15789474999999698,
          "durationTicks": 60,
          "midi": 80,
          "name": "G#5",
          "ticks": 6240,
          "time": 16.421054,
          "velocity": 0.5039370078740157
        },
        {
          "duration": 0.15789475000000053,
          "durationTicks": 60,
          "midi": 75,
          "name": "D#5",
          "ticks": 6300,
          "time": 16.57894875,
          "velocity": 0.5039370078740157
        },
        {
          "duration": 0.15789475000000053,
          "durationTicks": 60,
          "midi": 80,
          "name": "G#5",
          "ticks": 6360,
          "time": 16.7368435,
          "velocity": 0.5039370078740157
        },
        {
          "duration": 0.15789475000000053,
          "durationTicks": 60,
          "midi": 75,
          "name": "D#5",
          "ticks": 6420,
          "time": 16.89473825,
          "velocity": 0.5039370078740157
        },
        {
          "duration": 0.15789475000000053,
          "durationTicks": 60,
          "midi": 82,
          "name": "A#5",
          "ticks": 6480,
          "time": 17.052633,
          "velocity": 0.5039370078740157
        },
        {
          "duration": 0.15789475000000053,
          "durationTicks": 60,
          "midi": 75,
          "name": "D#5",
          "ticks": 6540,
          "time": 17.21052775,
          "velocity": 0.5039370078740157
        },
        {
          "duration": 0.15789475000000053,
          "durationTicks": 60,
          "midi": 82,
          "name": "A#5",
          "ticks": 6600,
          "time": 17.3684225,
          "velocity": 0.5039370078740157
        },
        {
          "duration": 0.15789474999999698,
          "durationTicks": 60,
          "midi": 75,
          "name": "D#5",
          "ticks": 6660,
          "time": 17.52631725,
          "velocity": 0.5039370078740157
        },
        {
          "duration": 0.15789475000000053,
          "durationTicks": 60,
          "midi": 82,
          "name": "A#5",
          "ticks": 6720,
          "time": 17.684212,
          "velocity": 0.5039370078740157
        },
        {
          "duration": 0.15789475000000053,
          "durationTicks": 60,
          "midi": 75,
          "name": "D#5",
          "ticks": 6780,
          "time": 17.84210675,
          "velocity": 0.5039370078740157
        },
        {
          "duration": 0.15789475000000053,
          "durationTicks": 60,
          "midi": 83,
          "name": "B5",
          "ticks": 6840,
          "time": 18.0000015,
          "velocity": 0.5039370078740157
        },
        {
          "duration": 0.15789475000000053,
          "durationTicks": 60,
          "midi": 75,
          "name": "D#5",
          "ticks": 6900,
          "time": 18.15789625,
          "velocity": 0.5039370078740157
        },
        {
          "duration": 0.15789475000000053,
          "durationTicks": 60,
          "midi": 83,
          "name": "B5",
          "ticks": 6960,
          "time": 18.315791,
          "velocity": 0.5039370078740157
        },
        {
          "duration": 0.15789474999999698,
          "durationTicks": 60,
          "midi": 75,
          "name": "D#5",
          "ticks": 7020,
          "time": 18.47368575,
          "velocity": 0.5039370078740157
        },
        {
          "duration": 0.15789475000000053,
          "durationTicks": 60,
          "midi": 83,
          "name": "B5",
          "ticks": 7080,
          "time": 18.6315805,
          "velocity": 0.5039370078740157
        },
        {
          "duration": 0.15789475000000053,
          "durationTicks": 60,
          "midi": 75,
          "name": "D#5",
          "ticks": 7140,
          "time": 18.78947525,
          "velocity": 0.5039370078740157
        },
        {
          "duration": 0.15789475000000053,
          "durationTicks": 60,
          "midi": 82,
          "name": "A#5",
          "ticks": 7200,
          "time": 18.94737,
          "velocity": 0.5039370078740157
        },
        {
          "duration": 0.15789475000000053,
          "durationTicks": 60,
          "midi": 75,
          "name": "D#5",
          "ticks": 7260,
          "time": 19.10526475,
          "velocity": 0.5039370078740157
        },
        {
          "duration": 0.15789475000000053,
          "durationTicks": 60,
          "midi": 82,
          "name": "A#5",
          "ticks": 7320,
          "time": 19.2631595,
          "velocity": 0.5039370078740157
        },
        {
          "duration": 0.15789475000000053,
          "durationTicks": 60,
          "midi": 75,
          "name": "D#5",
          "ticks": 7380,
          "time": 19.42105425,
          "velocity": 0.5039370078740157
        },
        {
          "duration": 0.15789474999999698,
          "durationTicks": 60,
          "midi": 82,
          "name": "A#5",
          "ticks": 7440,
          "time": 19.578949,
          "velocity": 0.5039370078740157
        },
        {
          "duration": 0.15789475000000053,
          "durationTicks": 60,
          "midi": 75,
          "name": "D#5",
          "ticks": 7500,
          "time": 19.73684375,
          "velocity": 0.5039370078740157
        },
        {
          "duration": 0.15789475000000053,
          "durationTicks": 60,
          "midi": 80,
          "name": "G#5",
          "ticks": 7560,
          "time": 19.8947385,
          "velocity": 0.5039370078740157
        },
        {
          "duration": 0.15789475000000053,
          "durationTicks": 60,
          "midi": 78,
          "name": "F#5",
          "ticks": 7620,
          "time": 20.05263325,
          "velocity": 0.5039370078740157
        },
        {
          "duration": 0.15789475000000053,
          "durationTicks": 60,
          "midi": 77,
          "name": "F5",
          "ticks": 7680,
          "time": 20.210528,
          "velocity": 0.5039370078740157
        },
        {
          "duration": 0.15789475000000053,
          "durationTicks": 60,
          "midi": 78,
          "name": "F#5",
          "ticks": 7740,
          "time": 20.36842275,
          "velocity": 0.5039370078740157
        },
        {
          "duration": 0.15789475000000053,
          "durationTicks": 60,
          "midi": 80,
          "name": "G#5",
          "ticks": 7800,
          "time": 20.5263175,
          "velocity": 0.5039370078740157
        },
        {
          "duration": 0.15789474999999698,
          "durationTicks": 60,
          "midi": 77,
          "name": "F5",
          "ticks": 7860,
          "time": 20.68421225,
          "velocity": 0.5039370078740157
        },
        {
          "duration": 0.15789475000000053,
          "durationTicks": 60,
          "midi": 78,
          "name": "F#5",
          "ticks": 7920,
          "time": 20.842107,
          "velocity": 0.5039370078740157
        },
        {
          "duration": 0.15789475000000053,
          "durationTicks": 60,
          "midi": 77,
          "name": "F5",
          "ticks": 7980,
          "time": 21.00000175,
          "velocity": 0.5039370078740157
        },
        {
          "duration": 0.15789475000000053,
          "durationTicks": 60,
          "midi": 75,
          "name": "D#5",
          "ticks": 8040,
          "time": 21.1578965,
          "velocity": 0.5039370078740157
        },
        {
          "duration": 0.15789475000000053,
          "durationTicks": 60,
          "midi": 77,
          "name": "F5",
          "ticks": 8100,
          "time": 21.31579125,
          "velocity": 0.5039370078740157
        },
        {
          "duration": 0.15789475000000053,
          "durationTicks": 60,
          "midi": 78,
          "name": "F#5",
          "ticks": 8160,
          "time": 21.473686,
          "velocity": 0.5039370078740157
        },
        {
          "duration": 0.15789475000000053,
          "durationTicks": 60,
          "midi": 75,
          "name": "D#5",
          "ticks": 8220,
          "time": 21.63158075,
          "velocity": 0.5039370078740157
        },
        {
          "duration": 0.15789474999999698,
          "durationTicks": 60,
          "midi": 77,
          "name": "F5",
          "ticks": 8280,
          "time": 21.7894755,
          "velocity": 0.5039370078740157
        },
        {
          "duration": 0.15789475000000053,
          "durationTicks": 60,
          "midi": 78,
          "name": "F#5",
          "ticks": 8340,
          "time": 21.94737025,
          "velocity": 0.5039370078740157
        },
        {
          "duration": 0.15789475000000053,
          "durationTicks": 60,
          "midi": 77,
          "name": "F5",
          "ticks": 8400,
          "time": 22.105265,
          "velocity": 0.5039370078740157
        },
        {
          "duration": 0.15789475000000053,
          "durationTicks": 60,
          "midi": 75,
          "name": "D#5",
          "ticks": 8460,
          "time": 22.26315975,
          "velocity": 0.5039370078740157
        },
        {
          "duration": 0.15789475000000053,
          "durationTicks": 60,
          "midi": 73,
          "name": "C#5",
          "ticks": 8520,
          "time": 22.4210545,
          "velocity": 0.5039370078740157
        },
        {
          "duration": 0.15789475000000053,
          "durationTicks": 60,
          "midi": 72,
          "name": "C5",
          "ticks": 8580,
          "time": 22.57894925,
          "velocity": 0.5039370078740157
        },
        {
          "duration": 0.6315789999999986,
          "durationTicks": 240,
          "midi": 70,
          "name": "A#4",
          "ticks": 8640,
          "time": 22.736844,
          "velocity": 0.5039370078740157
        },
        {
          "duration": 0.31578950000000106,
          "durationTicks": 120,
          "midi": 82,
          "name": "A#5",
          "ticks": 8880,
          "time": 23.368423,
          "velocity": 0.5039370078740157
        },
        {
          "duration": 0.6315789999999986,
          "durationTicks": 240,
          "midi": 72,
          "name": "C5",
          "ticks": 9000,
          "time": 23.6842125,
          "velocity": 0.5039370078740157
        },
        {
          "duration": 0.31578950000000106,
          "durationTicks": 120,
          "midi": 82,
          "name": "A#5",
          "ticks": 9240,
          "time": 24.3157915,
          "velocity": 0.5039370078740157
        },
        {
          "duration": 0.6315789999999986,
          "durationTicks": 240,
          "midi": 73,
          "name": "C#5",
          "ticks": 9360,
          "time": 24.631581,
          "velocity": 0.5039370078740157
        },
        {
          "duration": 0.31578950000000106,
          "durationTicks": 120,
          "midi": 82,
          "name": "A#5",
          "ticks": 9600,
          "time": 25.26316,
          "velocity": 0.5039370078740157
        },
        {
          "duration": 0.6315789999999986,
          "durationTicks": 240,
          "midi": 75,
          "name": "D#5",
          "ticks": 9720,
          "time": 25.5789495,
          "velocity": 0.5039370078740157
        },
        {
          "duration": 0.31578950000000106,
          "durationTicks": 120,
          "midi": 82,
          "name": "A#5",
          "ticks": 9960,
          "time": 26.2105285,
          "velocity": 0.5039370078740157
        },
        {
          "duration": 0.6315789999999986,
          "durationTicks": 240,
          "midi": 73,
          "name": "C#5",
          "ticks": 10080,
          "time": 26.526318,
          "velocity": 0.5039370078740157
        },
        {
          "duration": 0.31578950000000106,
          "durationTicks": 120,
          "midi": 82,
          "name": "A#5",
          "ticks": 10320,
          "time": 27.157897,
          "velocity": 0.5039370078740157
        },
        {
          "duration": 0.6315790000000021,
          "durationTicks": 240,
          "midi": 72,
          "name": "C5",
          "ticks": 10440,
          "time": 27.4736865,
          "velocity": 0.5039370078740157
        },
        {
          "duration": 0.3157894999999975,
          "durationTicks": 120,
          "midi": 81,
          "name": "A5",
          "ticks": 10680,
          "time": 28.1052655,
          "velocity": 0.5039370078740157
        },
        {
          "duration": 0.6315790000000021,
          "durationTicks": 240,
          "midi": 70,
          "name": "A#4",
          "ticks": 10800,
          "time": 28.421055,
          "velocity": 0.5039370078740157
        },
        {
          "duration": 0.6315789999999986,
          "durationTicks": 240,
          "midi": 82,
          "name": "A#5",
          "ticks": 11040,
          "time": 29.052634,
          "velocity": 0.5039370078740157
        },
        {
          "duration": 0.31578950000000106,
          "durationTicks": 120,
          "midi": 80,
          "name": "G#5",
          "ticks": 11280,
          "time": 29.684213,
          "velocity": 0.5039370078740157
        },
        {
          "duration": 0.31578950000000106,
          "durationTicks": 120,
          "midi": 79,
          "name": "G5",
          "ticks": 11400,
          "time": 30.0000025,
          "velocity": 0.5039370078740157
        },
        {
          "duration": 0.3157894999999975,
          "durationTicks": 120,
          "midi": 80,
          "name": "G#5",
          "ticks": 11520,
          "time": 30.315792000000002,
          "velocity": 0.5039370078740157
        },
        {
          "duration": 0.31578950000000106,
          "durationTicks": 120,
          "midi": 68,
          "name": "G#4",
          "ticks": 11640,
          "time": 30.6315815,
          "velocity": 0.5039370078740157
        },
        {
          "duration": 0.6315789999999986,
          "durationTicks": 240,
          "midi": 80,
          "name": "G#5",
          "ticks": 11760,
          "time": 30.947371,
          "velocity": 0.5039370078740157
        },
        {
          "duration": 0.31578950000000106,
          "durationTicks": 120,
          "midi": 78,
          "name": "F#5",
          "ticks": 12000,
          "time": 31.57895,
          "velocity": 0.5039370078740157
        },
        {
          "duration": 0.31578950000000106,
          "durationTicks": 120,
          "midi": 77,
          "name": "F5",
          "ticks": 12120,
          "time": 31.8947395,
          "velocity": 0.5039370078740157
        },
        {
          "duration": 0.15789474999999698,
          "durationTicks": 60,
          "midi": 78,
          "name": "F#5",
          "ticks": 12240,
          "time": 32.210529,
          "velocity": 0.5039370078740157
        },
        {
          "duration": 0.15789475000000408,
          "durationTicks": 60,
          "midi": 77,
          "name": "F5",
          "ticks": 12300,
          "time": 32.36842375,
          "velocity": 0.5039370078740157
        },
        {
          "duration": 0.15789474999999698,
          "durationTicks": 60,
          "midi": 75,
          "name": "D#5",
          "ticks": 12360,
          "time": 32.5263185,
          "velocity": 0.5039370078740157
        },
        {
          "duration": 0.15789475000000408,
          "durationTicks": 60,
          "midi": 77,
          "name": "F5",
          "ticks": 12420,
          "time": 32.68421325,
          "velocity": 0.5039370078740157
        },
        {
          "duration": 0.15789474999999698,
          "durationTicks": 60,
          "midi": 78,
          "name": "F#5",
          "ticks": 12480,
          "time": 32.842108,
          "velocity": 0.5039370078740157
        },
        {
          "duration": 0.15789474999999698,
          "durationTicks": 60,
          "midi": 75,
          "name": "D#5",
          "ticks": 12540,
          "time": 33.00000275,
          "velocity": 0.5039370078740157
        },
        {
          "duration": 0.15789475000000408,
          "durationTicks": 60,
          "midi": 81,
          "name": "A5",
          "ticks": 12600,
          "time": 33.1578975,
          "velocity": 0.5039370078740157
        },
        {
          "duration": 0.15789474999999698,
          "durationTicks": 60,
          "midi": 79,
          "name": "G5",
          "ticks": 12660,
          "time": 33.31579225,
          "velocity": 0.5039370078740157
        },
        {
          "duration": 0.15789475000000408,
          "durationTicks": 60,
          "midi": 77,
          "name": "F5",
          "ticks": 12720,
          "time": 33.473687,
          "velocity": 0.5039370078740157
        },
        {
          "duration": 0.15789474999999698,
          "durationTicks": 60,
          "midi": 79,
          "name": "G5",
          "ticks": 12780,
          "time": 33.63158175,
          "velocity": 0.5039370078740157
        },
        {
          "duration": 0.15789475000000408,
          "durationTicks": 60,
          "midi": 81,
          "name": "A5",
          "ticks": 12840,
          "time": 33.7894765,
          "velocity": 0.5039370078740157
        },
        {
          "duration": 0.15789474999999698,
          "durationTicks": 60,
          "midi": 77,
          "name": "F5",
          "ticks": 12900,
          "time": 33.94737125,
          "velocity": 0.5039370078740157
        },
        {
          "duration": 0.15789474999999698,
          "durationTicks": 60,
          "midi": 82,
          "name": "A#5",
          "ticks": 12960,
          "time": 34.105266,
          "velocity": 0.5039370078740157
        },
        {
          "duration": 0.15789475000000408,
          "durationTicks": 60,
          "midi": 81,
          "name": "A5",
          "ticks": 13020,
          "time": 34.26316075,
          "velocity": 0.5039370078740157
        },
        {
          "duration": 0.15789474999999698,
          "durationTicks": 60,
          "midi": 82,
          "name": "A#5",
          "ticks": 13080,
          "time": 34.4210555,
          "velocity": 0.5039370078740157
        },
        {
          "duration": 0.15789475000000408,
          "durationTicks": 60,
          "midi": 84,
          "name": "C6",
          "ticks": 13140,
          "time": 34.57895025,
          "velocity": 0.5039370078740157
        },
        {
          "duration": 0.15789474999999698,
          "durationTicks": 60,
          "midi": 82,
          "name": "A#5",
          "ticks": 13200,
          "time": 34.736845,
          "velocity": 0.5039370078740157
        },
        {
          "duration": 0.15789475000000408,
          "durationTicks": 60,
          "midi": 80,
          "name": "G#5",
          "ticks": 13260,
          "time": 34.89473975,
          "velocity": 0.5039370078740157
        },
        {
          "duration": 0.15789474999999698,
          "durationTicks": 60,
          "midi": 79,
          "name": "G5",
          "ticks": 13320,
          "time": 35.0526345,
          "velocity": 0.5039370078740157
        },
        {
          "duration": 0.15789474999999698,
          "durationTicks": 60,
          "midi": 77,
          "name": "F5",
          "ticks": 13380,
          "time": 35.21052925,
          "velocity": 0.5039370078740157
        },
        {
          "duration": 0.15789475000000408,
          "durationTicks": 60,
          "midi": 75,
          "name": "D#5",
          "ticks": 13440,
          "time": 35.368424,
          "velocity": 0.5039370078740157
        },
        {
          "duration": 0.15789474999999698,
          "durationTicks": 60,
          "midi": 77,
          "name": "F5",
          "ticks": 13500,
          "time": 35.52631875,
          "velocity": 0.5039370078740157
        },
        {
          "duration": 0.15789475000000408,
          "durationTicks": 60,
          "midi": 79,
          "name": "G5",
          "ticks": 13560,
          "time": 35.6842135,
          "velocity": 0.5039370078740157
        },
        {
          "duration": 0.15789474999999698,
          "durationTicks": 60,
          "midi": 75,
          "name": "D#5",
          "ticks": 13620,
          "time": 35.84210825,
          "velocity": 0.5039370078740157
        },
        {
          "duration": 0.31578950000000106,
          "durationTicks": 120,
          "midi": 80,
          "name": "G#5",
          "ticks": 13680,
          "time": 36.000003,
          "velocity": 0.5039370078740157
        },
        {
          "duration": 0.31578950000000106,
          "durationTicks": 120,
          "midi": 68,
          "name": "G#4",
          "ticks": 13800,
          "time": 36.3157925,
          "velocity": 0.5039370078740157
        },
        {
          "duration": 0.631578999999995,
          "durationTicks": 240,
          "midi": 80,
          "name": "G#5",
          "ticks": 13920,
          "time": 36.631582,
          "velocity": 0.5039370078740157
        },
        {
          "duration": 0.31578950000000106,
          "durationTicks": 120,
          "midi": 78,
          "name": "F#5",
          "ticks": 14160,
          "time": 37.263161,
          "velocity": 0.5039370078740157
        },
        {
          "duration": 0.31578950000000106,
          "durationTicks": 120,
          "midi": 77,
          "name": "F5",
          "ticks": 14280,
          "time": 37.5789505,
          "velocity": 0.5039370078740157
        },
        {
          "duration": 0.31578950000000106,
          "durationTicks": 120,
          "midi": 78,
          "name": "F#5",
          "ticks": 14400,
          "time": 37.89474,
          "velocity": 0.5039370078740157
        },
        {
          "duration": 0.31578950000000106,
          "durationTicks": 120,
          "midi": 66,
          "name": "F#4",
          "ticks": 14520,
          "time": 38.2105295,
          "velocity": 0.5039370078740157
        },
        {
          "duration": 0.6315790000000021,
          "durationTicks": 240,
          "midi": 78,
          "name": "F#5",
          "ticks": 14640,
          "time": 38.526319,
          "velocity": 0.5039370078740157
        },
        {
          "duration": 0.31578949999999395,
          "durationTicks": 120,
          "midi": 77,
          "name": "F5",
          "ticks": 14880,
          "time": 39.157898,
          "velocity": 0.5039370078740157
        },
        {
          "duration": 0.31578950000000106,
          "durationTicks": 120,
          "midi": 75,
          "name": "D#5",
          "ticks": 15000,
          "time": 39.4736875,
          "velocity": 0.5039370078740157
        },
        {
          "duration": 0.15789475000000408,
          "durationTicks": 60,
          "midi": 77,
          "name": "F5",
          "ticks": 15120,
          "time": 39.789477,
          "velocity": 0.5039370078740157
        },
        {
          "duration": 0.15789474999999698,
          "durationTicks": 60,
          "midi": 75,
          "name": "D#5",
          "ticks": 15180,
          "time": 39.94737175,
          "velocity": 0.5039370078740157
        },
        {
          "duration": 0.15789475000000408,
          "durationTicks": 60,
          "midi": 73,
          "name": "C#5",
          "ticks": 15240,
          "time": 40.1052665,
          "velocity": 0.5039370078740157
        },
        {
          "duration": 0.15789474999999698,
          "durationTicks": 60,
          "midi": 75,
          "name": "D#5",
          "ticks": 15300,
          "time": 40.26316125,
          "velocity": 0.5039370078740157
        },
        {
          "duration": 0.15789474999999698,
          "durationTicks": 60,
          "midi": 77,
          "name": "F5",
          "ticks": 15360,
          "time": 40.421056,
          "velocity": 0.5039370078740157
        },
        {
          "duration": 0.15789475000000408,
          "durationTicks": 60,
          "midi": 73,
          "name": "C#5",
          "ticks": 15420,
          "time": 40.57895075,
          "velocity": 0.5039370078740157
        },
        {
          "duration": 0.15789474999999698,
          "durationTicks": 60,
          "midi": 79,
          "name": "G5",
          "ticks": 15480,
          "time": 40.7368455,
          "velocity": 0.5039370078740157
        },
        {
          "duration": 0.15789475000000408,
          "durationTicks": 60,
          "midi": 77,
          "name": "F5",
          "ticks": 15540,
          "time": 40.89474025,
          "velocity": 0.5039370078740157
        },
        {
          "duration": 0.15789474999999698,
          "durationTicks": 60,
          "midi": 75,
          "name": "D#5",
          "ticks": 15600,
          "time": 41.052635,
          "velocity": 0.5039370078740157
        },
        {
          "duration": 0.15789475000000408,
          "durationTicks": 60,
          "midi": 77,
          "name": "F5",
          "ticks": 15660,
          "time": 41.21052975,
          "velocity": 0.5039370078740157
        },
        {
          "duration": 0.15789474999999698,
          "durationTicks": 60,
          "midi": 79,
          "name": "G5",
          "ticks": 15720,
          "time": 41.3684245,
          "velocity": 0.5039370078740157
        },
        {
          "duration": 0.15789474999999698,
          "durationTicks": 60,
          "midi": 75,
          "name": "D#5",
          "ticks": 15780,
          "time": 41.52631925,
          "velocity": 0.5039370078740157
        },
        {
          "duration": 0.15789475000000408,
          "durationTicks": 60,
          "midi": 80,
          "name": "G#5",
          "ticks": 15840,
          "time": 41.684214,
          "velocity": 0.5039370078740157
        },
        {
          "duration": 0.15789474999999698,
          "durationTicks": 60,
          "midi": 79,
          "name": "G5",
          "ticks": 15900,
          "time": 41.84210875,
          "velocity": 0.5039370078740157
        },
        {
          "duration": 0.15789475000000408,
          "durationTicks": 60,
          "midi": 80,
          "name": "G#5",
          "ticks": 15960,
          "time": 42.0000035,
          "velocity": 0.5039370078740157
        },
        {
          "duration": 0.15789474999999698,
          "durationTicks": 60,
          "midi": 82,
          "name": "A#5",
          "ticks": 16020,
          "time": 42.15789825,
          "velocity": 0.5039370078740157
        },
        {
          "duration": 0.15789475000000408,
          "durationTicks": 60,
          "midi": 80,
          "name": "G#5",
          "ticks": 16080,
          "time": 42.315793,
          "velocity": 0.5039370078740157
        },
        {
          "duration": 0.15789474999999698,
          "durationTicks": 60,
          "midi": 78,
          "name": "F#5",
          "ticks": 16140,
          "time": 42.47368775,
          "velocity": 0.5039370078740157
        },
        {
          "duration": 0.15789474999999698,
          "durationTicks": 60,
          "midi": 77,
          "name": "F5",
          "ticks": 16200,
          "time": 42.6315825,
          "velocity": 0.5039370078740157
        },
        {
          "duration": 0.15789475000000408,
          "durationTicks": 60,
          "midi": 75,
          "name": "D#5",
          "ticks": 16260,
          "time": 42.78947725,
          "velocity": 0.5039370078740157
        },
        {
          "duration": 0.15789474999999698,
          "durationTicks": 60,
          "midi": 73,
          "name": "C#5",
          "ticks": 16320,
          "time": 42.947372,
          "velocity": 0.5039370078740157
        },
        {
          "duration": 0.15789475000000408,
          "durationTicks": 60,
          "midi": 75,
          "name": "D#5",
          "ticks": 16380,
          "time": 43.10526675,
          "velocity": 0.5039370078740157
        },
        {
          "duration": 0.15789474999999698,
          "durationTicks": 60,
          "midi": 77,
          "name": "F5",
          "ticks": 16440,
          "time": 43.2631615,
          "velocity": 0.5039370078740157
        },
        {
          "duration": 0.15789475000000408,
          "durationTicks": 60,
          "midi": 73,
          "name": "C#5",
          "ticks": 16500,
          "time": 43.42105625,
          "velocity": 0.5039370078740157
        },
        {
          "duration": 0.631578999999995,
          "durationTicks": 240,
          "midi": 66,
          "name": "F#4",
          "ticks": 16560,
          "time": 43.578951,
          "velocity": 0.5039370078740157
        },
        {
          "duration": 0.31578950000000106,
          "durationTicks": 120,
          "midi": 78,
          "name": "F#5",
          "ticks": 16800,
          "time": 44.21053,
          "velocity": 0.5039370078740157
        },
        {
          "duration": 0.6315790000000021,
          "durationTicks": 240,
          "midi": 68,
          "name": "G#4",
          "ticks": 16920,
          "time": 44.5263195,
          "velocity": 0.5039370078740157
        },
        {
          "duration": 0.31578950000000106,
          "durationTicks": 120,
          "midi": 78,
          "name": "F#5",
          "ticks": 17160,
          "time": 45.1578985,
          "velocity": 0.5039370078740157
        },
        {
          "duration": 0.631578999999995,
          "durationTicks": 240,
          "midi": 70,
          "name": "A#4",
          "ticks": 17280,
          "time": 45.473688,
          "velocity": 0.5039370078740157
        },
        {
          "duration": 0.31578950000000106,
          "durationTicks": 120,
          "midi": 78,
          "name": "F#5",
          "ticks": 17520,
          "time": 46.105267,
          "velocity": 0.5039370078740157
        },
        {
          "duration": 0.6315790000000021,
          "durationTicks": 240,
          "midi": 71,
          "name": "B4",
          "ticks": 17640,
          "time": 46.4210565,
          "velocity": 0.5039370078740157
        },
        {
          "duration": 0.31578950000000106,
          "durationTicks": 120,
          "midi": 78,
          "name": "F#5",
          "ticks": 17880,
          "time": 47.0526355,
          "velocity": 0.5039370078740157
        },
        {
          "duration": 0.631578999999995,
          "durationTicks": 240,
          "midi": 70,
          "name": "A#4",
          "ticks": 18000,
          "time": 47.368425,
          "velocity": 0.5039370078740157
        },
        {
          "duration": 0.31578950000000106,
          "durationTicks": 120,
          "midi": 78,
          "name": "F#5",
          "ticks": 18240,
          "time": 48.000004,
          "velocity": 0.5039370078740157
        },
        {
          "duration": 0.6315790000000021,
          "durationTicks": 240,
          "midi": 68,
          "name": "G#4",
          "ticks": 18360,
          "time": 48.3157935,
          "velocity": 0.5039370078740157
        },
        {
          "duration": 0.31578950000000106,
          "durationTicks": 120,
          "midi": 77,
          "name": "F5",
          "ticks": 18600,
          "time": 48.9473725,
          "velocity": 0.5039370078740157
        },
        {
          "duration": 0.6315790000000021,
          "durationTicks": 240,
          "midi": 66,
          "name": "F#4",
          "ticks": 18720,
          "time": 49.263162,
          "velocity": 0.5039370078740157
        },
        {
          "duration": 0.631578999999995,
          "durationTicks": 240,
          "midi": 78,
          "name": "F#5",
          "ticks": 18960,
          "time": 49.894741,
          "velocity": 0.5039370078740157
        },
        {
          "duration": 0.15789475000000408,
          "durationTicks": 60,
          "midi": 77,
          "name": "F5",
          "ticks": 19200,
          "time": 50.52632,
          "velocity": 0.5039370078740157
        },
        {
          "duration": 0.15789474999999698,
          "durationTicks": 60,
          "midi": 75,
          "name": "D#5",
          "ticks": 19260,
          "time": 50.68421475,
          "velocity": 0.5039370078740157
        },
        {
          "duration": 0.15789475000000408,
          "durationTicks": 60,
          "midi": 73,
          "name": "C#5",
          "ticks": 19320,
          "time": 50.8421095,
          "velocity": 0.5039370078740157
        },
        {
          "duration": 0.15789474999999698,
          "durationTicks": 60,
          "midi": 75,
          "name": "D#5",
          "ticks": 19380,
          "time": 51.00000425,
          "velocity": 0.5039370078740157
        },
        {
          "duration": 0.15789474999999698,
          "durationTicks": 60,
          "midi": 77,
          "name": "F5",
          "ticks": 19440,
          "time": 51.157899,
          "velocity": 0.5039370078740157
        },
        {
          "duration": 0.15789475000000408,
          "durationTicks": 60,
          "midi": 73,
          "name": "C#5",
          "ticks": 19500,
          "time": 51.31579375,
          "velocity": 0.5039370078740157
        },
        {
          "duration": 0.15789474999999698,
          "durationTicks": 60,
          "midi": 68,
          "name": "G#4",
          "ticks": 19560,
          "time": 51.4736885,
          "velocity": 0.5039370078740157
        },
        {
          "duration": 0.15789475000000408,
          "durationTicks": 60,
          "midi": 73,
          "name": "C#5",
          "ticks": 19620,
          "time": 51.63158325,
          "velocity": 0.5039370078740157
        },
        {
          "duration": 0.15789474999999698,
          "durationTicks": 60,
          "midi": 77,
          "name": "F5",
          "ticks": 19680,
          "time": 51.789478,
          "velocity": 0.5039370078740157
        },
        {
          "duration": 0.15789475000000408,
          "durationTicks": 60,
          "midi": 73,
          "name": "C#5",
          "ticks": 19740,
          "time": 51.94737275,
          "velocity": 0.5039370078740157
        },
        {
          "duration": 0.15789474999999698,
          "durationTicks": 60,
          "midi": 78,
          "name": "F#5",
          "ticks": 19800,
          "time": 52.105267500000004,
          "velocity": 0.5039370078740157
        },
        {
          "duration": 0.15789474999999698,
          "durationTicks": 60,
          "midi": 73,
          "name": "C#5",
          "ticks": 19860,
          "time": 52.26316225,
          "velocity": 0.5039370078740157
        },
        {
          "duration": 0.15789475000000408,
          "durationTicks": 60,
          "midi": 78,
          "name": "F#5",
          "ticks": 19920,
          "time": 52.421057,
          "velocity": 0.5039370078740157
        },
        {
          "duration": 0.15789474999999698,
          "durationTicks": 60,
          "midi": 73,
          "name": "C#5",
          "ticks": 19980,
          "time": 52.57895175,
          "velocity": 0.5039370078740157
        },
        {
          "duration": 0.15789475000000408,
          "durationTicks": 60,
          "midi": 78,
          "name": "F#5",
          "ticks": 20040,
          "time": 52.7368465,
          "velocity": 0.5039370078740157
        },
        {
          "duration": 0.15789474999999698,
          "durationTicks": 60,
          "midi": 73,
          "name": "C#5",
          "ticks": 20100,
          "time": 52.89474125,
          "velocity": 0.5039370078740157
        },
        {
          "duration": 0.15789474999999698,
          "durationTicks": 60,
          "midi": 80,
          "name": "G#5",
          "ticks": 20160,
          "time": 53.052636,
          "velocity": 0.5039370078740157
        },
        {
          "duration": 0.15789475000000408,
          "durationTicks": 60,
          "midi": 73,
          "name": "C#5",
          "ticks": 20220,
          "time": 53.21053075,
          "velocity": 0.5039370078740157
        },
        {
          "duration": 0.15789474999999698,
          "durationTicks": 60,
          "midi": 80,
          "name": "G#5",
          "ticks": 20280,
          "time": 53.3684255,
          "velocity": 0.5039370078740157
        },
        {
          "duration": 0.15789475000000408,
          "durationTicks": 60,
          "midi": 73,
          "name": "C#5",
          "ticks": 20340,
          "time": 53.52632025,
          "velocity": 0.5039370078740157
        },
        {
          "duration": 0.15789474999999698,
          "durationTicks": 60,
          "midi": 80,
          "name": "G#5",
          "ticks": 20400,
          "time": 53.684215,
          "velocity": 0.5039370078740157
        },
        {
          "duration": 0.15789475000000408,
          "durationTicks": 60,
          "midi": 73,
          "name": "C#5",
          "ticks": 20460,
          "time": 53.84210975,
          "velocity": 0.5039370078740157
        },
        {
          "duration": 0.15789474999999698,
          "durationTicks": 60,
          "midi": 82,
          "name": "A#5",
          "ticks": 20520,
          "time": 54.0000045,
          "velocity": 0.5039370078740157
        },
        {
          "duration": 0.15789474999999698,
          "durationTicks": 60,
          "midi": 73,
          "name": "C#5",
          "ticks": 20580,
          "time": 54.15789925,
          "velocity": 0.5039370078740157
        },
        {
          "duration": 0.15789475000000408,
          "durationTicks": 60,
          "midi": 82,
          "name": "A#5",
          "ticks": 20640,
          "time": 54.315794,
          "velocity": 0.5039370078740157
        },
        {
          "duration": 0.15789474999999698,
          "durationTicks": 60,
          "midi": 73,
          "name": "C#5",
          "ticks": 20700,
          "time": 54.47368875,
          "velocity": 0.5039370078740157
        },
        {
          "duration": 0.15789475000000408,
          "durationTicks": 60,
          "midi": 82,
          "name": "A#5",
          "ticks": 20760,
          "time": 54.6315835,
          "velocity": 0.5039370078740157
        },
        {
          "duration": 0.15789474999999698,
          "durationTicks": 60,
          "midi": 73,
          "name": "C#5",
          "ticks": 20820,
          "time": 54.78947825,
          "velocity": 0.5039370078740157
        },
        {
          "duration": 0.15789475000000408,
          "durationTicks": 60,
          "midi": 80,
          "name": "G#5",
          "ticks": 20880,
          "time": 54.947373,
          "velocity": 0.5039370078740157
        },
        {
          "duration": 0.15789474999999698,
          "durationTicks": 60,
          "midi": 73,
          "name": "C#5",
          "ticks": 20940,
          "time": 55.10526775,
          "velocity": 0.5039370078740157
        },
        {
          "duration": 0.15789474999999698,
          "durationTicks": 60,
          "midi": 80,
          "name": "G#5",
          "ticks": 21000,
          "time": 55.2631625,
          "velocity": 0.5039370078740157
        },
        {
          "duration": 0.15789475000000408,
          "durationTicks": 60,
          "midi": 73,
          "name": "C#5",
          "ticks": 21060,
          "time": 55.42105725,
          "velocity": 0.5039370078740157
        },
        {
          "duration": 0.15789474999999698,
          "durationTicks": 60,
          "midi": 80,
          "name": "G#5",
          "ticks": 21120,
          "time": 55.578952,
          "velocity": 0.5039370078740157
        },
        {
          "duration": 0.15789475000000408,
          "durationTicks": 60,
          "midi": 73,
          "name": "C#5",
          "ticks": 21180,
          "time": 55.73684675,
          "velocity": 0.5039370078740157
        },
        {
          "duration": 0.15789474999999698,
          "durationTicks": 60,
          "midi": 78,
          "name": "F#5",
          "ticks": 21240,
          "time": 55.8947415,
          "velocity": 0.5039370078740157
        },
        {
          "duration": 0.15789475000000408,
          "durationTicks": 60,
          "midi": 77,
          "name": "F5",
          "ticks": 21300,
          "time": 56.05263625,
          "velocity": 0.5039370078740157
        },
        {
          "duration": 0.15789474999999698,
          "durationTicks": 60,
          "midi": 75,
          "name": "D#5",
          "ticks": 21360,
          "time": 56.210531,
          "velocity": 0.5039370078740157
        },
        {
          "duration": 0.15789474999999698,
          "durationTicks": 60,
          "midi": 77,
          "name": "F5",
          "ticks": 21420,
          "time": 56.36842575,
          "velocity": 0.5039370078740157
        },
        {
          "duration": 0.15789475000000408,
          "durationTicks": 60,
          "midi": 78,
          "name": "F#5",
          "ticks": 21480,
          "time": 56.5263205,
          "velocity": 0.5039370078740157
        },
        {
          "duration": 0.15789474999999698,
          "durationTicks": 60,
          "midi": 75,
          "name": "D#5",
          "ticks": 21540,
          "time": 56.68421525,
          "velocity": 0.5039370078740157
        },
        {
          "duration": 0.15789475000000408,
          "durationTicks": 60,
          "midi": 77,
          "name": "F5",
          "ticks": 21600,
          "time": 56.84211,
          "velocity": 0.5039370078740157
        },
        {
          "duration": 0.15789474999999698,
          "durationTicks": 60,
          "midi": 75,
          "name": "D#5",
          "ticks": 21660,
          "time": 57.00000475,
          "velocity": 0.5039370078740157
        },
        {
          "duration": 0.15789475000000408,
          "durationTicks": 60,
          "midi": 73,
          "name": "C#5",
          "ticks": 21720,
          "time": 57.1578995,
          "velocity": 0.5039370078740157
        },
        {
          "duration": 0.15789474999999698,
          "durationTicks": 60,
          "midi": 75,
          "name": "D#5",
          "ticks": 21780,
          "time": 57.31579425,
          "velocity": 0.5039370078740157
        },
        {
          "duration": 0.15789474999999698,
          "durationTicks": 60,
          "midi": 77,
          "name": "F5",
          "ticks": 21840,
          "time": 57.473689,
          "velocity": 0.5039370078740157
        },
        {
          "duration": 0.15789475000000408,
          "durationTicks": 60,
          "midi": 73,
          "name": "C#5",
          "ticks": 21900,
          "time": 57.63158375,
          "velocity": 0.5039370078740157
        },
        {
          "duration": 0.15789474999999698,
          "durationTicks": 60,
          "midi": 75,
          "name": "D#5",
          "ticks": 21960,
          "time": 57.7894785,
          "velocity": 0.5039370078740157
        },
        {
          "duration": 0.15789475000000408,
          "durationTicks": 60,
          "midi": 77,
          "name": "F5",
          "ticks": 22020,
          "time": 57.94737325,
          "velocity": 0.5039370078740157
        },
        {
          "duration": 0.15789474999999698,
          "durationTicks": 60,
          "midi": 75,
          "name": "D#5",
          "ticks": 22080,
          "time": 58.105268,
          "velocity": 0.5039370078740157
        },
        {
          "duration": 0.15789475000000408,
          "durationTicks": 60,
          "midi": 73,
          "name": "C#5",
          "ticks": 22140,
          "time": 58.26316275,
          "velocity": 0.5039370078740157
        },
        {
          "duration": 0.15789474999999698,
          "durationTicks": 60,
          "midi": 72,
          "name": "C5",
          "ticks": 22200,
          "time": 58.4210575,
          "velocity": 0.5039370078740157
        },
        {
          "duration": 0.15789474999999698,
          "durationTicks": 60,
          "midi": 70,
          "name": "A#4",
          "ticks": 22260,
          "time": 58.57895225,
          "velocity": 0.5039370078740157
        },
        {
          "duration": 0.15789475000000408,
          "durationTicks": 60,
          "midi": 72,
          "name": "C5",
          "ticks": 22320,
          "time": 58.736847,
          "velocity": 0.5039370078740157
        },
        {
          "duration": 0.15789474999999698,
          "durationTicks": 60,
          "midi": 68,
          "name": "G#4",
          "ticks": 22380,
          "time": 58.89474175,
          "velocity": 0.5039370078740157
        },
        {
          "duration": 0.15789474999999698,
          "durationTicks": 60,
          "midi": 68,
          "name": "G#4",
          "ticks": 22500,
          "time": 59.21053125,
          "velocity": 0.5039370078740157
        },
        {
          "duration": 0.15789474999999698,
          "durationTicks": 60,
          "midi": 68,
          "name": "G#4",
          "ticks": 22620,
          "time": 59.526320750000004,
          "velocity": 0.5039370078740157
        },
        {
          "duration": 0.15789474999999698,
          "durationTicks": 60,
          "midi": 72,
          "name": "C5",
          "ticks": 22680,
          "time": 59.6842155,
          "velocity": 0.5039370078740157
        },
        {
          "duration": 0.15789475000000408,
          "durationTicks": 60,
          "midi": 68,
          "name": "G#4",
          "ticks": 22740,
          "time": 59.84211025,
          "velocity": 0.5039370078740157
        },
        {
          "duration": 0.15789475000000408,
          "durationTicks": 60,
          "midi": 68,
          "name": "G#4",
          "ticks": 22860,
          "time": 60.15789975,
          "velocity": 0.5039370078740157
        },
        {
          "duration": 0.15789475000000408,
          "durationTicks": 60,
          "midi": 68,
          "name": "G#4",
          "ticks": 22980,
          "time": 60.47368925,
          "velocity": 0.5039370078740157
        },
        {
          "duration": 0.15789474999999698,
          "durationTicks": 60,
          "midi": 73,
          "name": "C#5",
          "ticks": 23040,
          "time": 60.631584000000004,
          "velocity": 0.5039370078740157
        },
        {
          "duration": 0.15789474999999698,
          "durationTicks": 60,
          "midi": 68,
          "name": "G#4",
          "ticks": 23100,
          "time": 60.78947875,
          "velocity": 0.5039370078740157
        },
        {
          "duration": 0.15789474999999698,
          "durationTicks": 60,
          "midi": 68,
          "name": "G#4",
          "ticks": 23220,
          "time": 61.10526825,
          "velocity": 0.5039370078740157
        },
        {
          "duration": 0.15789474999999698,
          "durationTicks": 60,
          "midi": 68,
          "name": "G#4",
          "ticks": 23340,
          "time": 61.42105775,
          "velocity": 0.5039370078740157
        },
        {
          "duration": 0.15789474999999698,
          "durationTicks": 60,
          "midi": 73,
          "name": "C#5",
          "ticks": 23400,
          "time": 61.5789525,
          "velocity": 0.5039370078740157
        },
        {
          "duration": 0.15789475000000408,
          "durationTicks": 60,
          "midi": 68,
          "name": "G#4",
          "ticks": 23460,
          "time": 61.73684725,
          "velocity": 0.5039370078740157
        },
        {
          "duration": 0.15789475000000408,
          "durationTicks": 60,
          "midi": 68,
          "name": "G#4",
          "ticks": 23580,
          "time": 62.05263675,
          "velocity": 0.5039370078740157
        },
        {
          "duration": 0.15789475000000408,
          "durationTicks": 60,
          "midi": 68,
          "name": "G#4",
          "ticks": 23700,
          "time": 62.36842625,
          "velocity": 0.5039370078740157
        },
        {
          "duration": 0.15789474999999698,
          "durationTicks": 60,
          "midi": 78,
          "name": "F#5",
          "ticks": 23760,
          "time": 62.526321,
          "velocity": 0.5039370078740157
        },
        {
          "duration": 0.15789474999999698,
          "durationTicks": 60,
          "midi": 68,
          "name": "G#4",
          "ticks": 23820,
          "time": 62.68421575,
          "velocity": 0.5039370078740157
        },
        {
          "duration": 0.15789474999999698,
          "durationTicks": 60,
          "midi": 68,
          "name": "G#4",
          "ticks": 23940,
          "time": 63.00000525,
          "velocity": 0.5039370078740157
        },
        {
          "duration": 0.15789474999999698,
          "durationTicks": 60,
          "midi": 68,
          "name": "G#4",
          "ticks": 24060,
          "time": 63.31579475,
          "velocity": 0.5039370078740157
        },
        {
          "duration": 0.15789475000000408,
          "durationTicks": 60,
          "midi": 78,
          "name": "F#5",
          "ticks": 24120,
          "time": 63.4736895,
          "velocity": 0.5039370078740157
        },
        {
          "duration": 0.15789474999999698,
          "durationTicks": 60,
          "midi": 68,
          "name": "G#4",
          "ticks": 24180,
          "time": 63.63158425,
          "velocity": 0.5039370078740157
        },
        {
          "duration": 0.15789474999999698,
          "durationTicks": 60,
          "midi": 68,
          "name": "G#4",
          "ticks": 24300,
          "time": 63.94737375,
          "velocity": 0.5039370078740157
        },
        {
          "duration": 0.15789474999999698,
          "durationTicks": 60,
          "midi": 68,
          "name": "G#4",
          "ticks": 24420,
          "time": 64.26316325,
          "velocity": 0.5039370078740157
        },
        {
          "duration": 0.15789474999999698,
          "durationTicks": 60,
          "midi": 77,
          "name": "F5",
          "ticks": 24480,
          "time": 64.421058,
          "velocity": 0.5039370078740157
        },
        {
          "duration": 0.15789474999999698,
          "durationTicks": 60,
          "midi": 68,
          "name": "G#4",
          "ticks": 24540,
          "time": 64.57895275,
          "velocity": 0.5039370078740157
        },
        {
          "duration": 0.15789475000001119,
          "durationTicks": 60,
          "midi": 68,
          "name": "G#4",
          "ticks": 24660,
          "time": 64.89474225,
          "velocity": 0.5039370078740157
        },
        {
          "duration": 0.15789474999999698,
          "durationTicks": 60,
          "midi": 68,
          "name": "G#4",
          "ticks": 24780,
          "time": 65.21053175,
          "velocity": 0.5039370078740157
        },
        {
          "duration": 0.15789474999999698,
          "durationTicks": 60,
          "midi": 77,
          "name": "F5",
          "ticks": 24840,
          "time": 65.3684265,
          "velocity": 0.5039370078740157
        },
        {
          "duration": 0.15789475000001119,
          "durationTicks": 60,
          "midi": 68,
          "name": "G#4",
          "ticks": 24900,
          "time": 65.52632125,
          "velocity": 0.5039370078740157
        },
        {
          "duration": 0.15789474999999698,
          "durationTicks": 60,
          "midi": 68,
          "name": "G#4",
          "ticks": 25020,
          "time": 65.84211075,
          "velocity": 0.5039370078740157
        },
        {
          "duration": 0.15789474999999698,
          "durationTicks": 60,
          "midi": 68,
          "name": "G#4",
          "ticks": 25140,
          "time": 66.15790025,
          "velocity": 0.5039370078740157
        },
        {
          "duration": 0.15789475000001119,
          "durationTicks": 60,
          "midi": 79,
          "name": "G5",
          "ticks": 25200,
          "time": 66.315795,
          "velocity": 0.5039370078740157
        },
        {
          "duration": 0.15789474999999698,
          "durationTicks": 60,
          "midi": 70,
          "name": "A#4",
          "ticks": 25260,
          "time": 66.47368975,
          "velocity": 0.5039370078740157
        },
        {
          "duration": 0.15789474999999698,
          "durationTicks": 60,
          "midi": 70,
          "name": "A#4",
          "ticks": 25380,
          "time": 66.78947925,
          "velocity": 0.5039370078740157
        },
        {
          "duration": 0.15789475000001119,
          "durationTicks": 60,
          "midi": 70,
          "name": "A#4",
          "ticks": 25500,
          "time": 67.10526875,
          "velocity": 0.5039370078740157
        },
        {
          "duration": 0.15789474999999698,
          "durationTicks": 60,
          "midi": 79,
          "name": "G5",
          "ticks": 25560,
          "time": 67.2631635,
          "velocity": 0.5039370078740157
        },
        {
          "duration": 0.15789474999999698,
          "durationTicks": 60,
          "midi": 70,
          "name": "A#4",
          "ticks": 25620,
          "time": 67.42105825,
          "velocity": 0.5039370078740157
        },
        {
          "duration": 0.15789475000001119,
          "durationTicks": 60,
          "midi": 70,
          "name": "A#4",
          "ticks": 25740,
          "time": 67.73684775,
          "velocity": 0.5039370078740157
        },
        {
          "duration": 0.15789474999999698,
          "durationTicks": 60,
          "midi": 70,
          "name": "A#4",
          "ticks": 25860,
          "time": 68.05263725,
          "velocity": 0.5039370078740157
        },
        {
          "duration": 0.15789474999999698,
          "durationTicks": 60,
          "midi": 80,
          "name": "G#5",
          "ticks": 25920,
          "time": 68.210532,
          "velocity": 0.5039370078740157
        },
        {
          "duration": 0.15789474999999698,
          "durationTicks": 60,
          "midi": 72,
          "name": "C5",
          "ticks": 25980,
          "time": 68.36842675,
          "velocity": 0.5039370078740157
        },
        {
          "duration": 0.15789474999999698,
          "durationTicks": 60,
          "midi": 72,
          "name": "C5",
          "ticks": 26100,
          "time": 68.68421625,
          "velocity": 0.5039370078740157
        },
        {
          "duration": 0.15789474999999698,
          "durationTicks": 60,
          "midi": 72,
          "name": "C5",
          "ticks": 26220,
          "time": 69.00000575,
          "velocity": 0.5039370078740157
        },
        {
          "duration": 0.15789474999999698,
          "durationTicks": 60,
          "midi": 80,
          "name": "G#5",
          "ticks": 26280,
          "time": 69.1579005,
          "velocity": 0.5039370078740157
        },
        {
          "duration": 0.15789475000001119,
          "durationTicks": 60,
          "midi": 72,
          "name": "C5",
          "ticks": 26340,
          "time": 69.31579525,
          "velocity": 0.5039370078740157
        },
        {
          "duration": 0.15789474999999698,
          "durationTicks": 60,
          "midi": 72,
          "name": "C5",
          "ticks": 26460,
          "time": 69.63158475,
          "velocity": 0.5039370078740157
        },
        {
          "duration": 0.15789475000001119,
          "durationTicks": 60,
          "midi": 72,
          "name": "C5",
          "ticks": 26580,
          "time": 69.94737425,
          "velocity": 0.5039370078740157
        },
        {
          "duration": 0.15789474999999698,
          "durationTicks": 60,
          "midi": 80,
          "name": "G#5",
          "ticks": 26640,
          "time": 70.105269,
          "velocity": 0.5039370078740157
        },
        {
          "duration": 0.15789474999999698,
          "durationTicks": 60,
          "midi": 73,
          "name": "C#5",
          "ticks": 26700,
          "time": 70.26316375,
          "velocity": 0.5039370078740157
        },
        {
          "duration": 0.15789474999999698,
          "durationTicks": 60,
          "midi": 68,
          "name": "G#4",
          "ticks": 26820,
          "time": 70.57895325,
          "velocity": 0.5039370078740157
        },
        {
          "duration": 0.15789474999999698,
          "durationTicks": 60,
          "midi": 73,
          "name": "C#5",
          "ticks": 26940,
          "time": 70.89474275,
          "velocity": 0.5039370078740157
        },
        {
          "duration": 0.15789474999999698,
          "durationTicks": 60,
          "midi": 77,
          "name": "F5",
          "ticks": 27060,
          "time": 71.21053225,
          "velocity": 0.5039370078740157
        },
        {
          "duration": 0.15789475000001119,
          "durationTicks": 60,
          "midi": 80,
          "name": "G#5",
          "ticks": 27180,
          "time": 71.52632175,
          "velocity": 0.5039370078740157
        },
        {
          "duration": 0.15789474999999698,
          "durationTicks": 60,
          "midi": 82,
          "name": "A#5",
          "ticks": 27300,
          "time": 71.84211125,
          "velocity": 0.5039370078740157
        },
        {
          "duration": 0.15789474999999698,
          "durationTicks": 60,
          "midi": 83,
          "name": "B5",
          "ticks": 27360,
          "time": 72.000006,
          "velocity": 0.5039370078740157
        },
        {
          "duration": 0.15789475000001119,
          "durationTicks": 60,
          "midi": 82,
          "name": "A#5",
          "ticks": 27420,
          "time": 72.15790075,
          "velocity": 0.5039370078740157
        },
        {
          "duration": 0.15789474999999698,
          "durationTicks": 60,
          "midi": 80,
          "name": "G#5",
          "ticks": 27480,
          "time": 72.31579550000001,
          "velocity": 0.5039370078740157
        },
        {
          "duration": 0.15789474999999698,
          "durationTicks": 60,
          "midi": 78,
          "name": "F#5",
          "ticks": 27540,
          "time": 72.47369025,
          "velocity": 0.5039370078740157
        },
        {
          "duration": 0.15789474999999698,
          "durationTicks": 60,
          "midi": 77,
          "name": "F5",
          "ticks": 27600,
          "time": 72.631585,
          "velocity": 0.5039370078740157
        },
        {
          "duration": 0.15789474999999698,
          "durationTicks": 60,
          "midi": 75,
          "name": "D#5",
          "ticks": 27660,
          "time": 72.78947975,
          "velocity": 0.5039370078740157
        },
        {
          "duration": 0.15789475000001119,
          "durationTicks": 60,
          "midi": 77,
          "name": "F5",
          "ticks": 27720,
          "time": 72.9473745,
          "velocity": 0.5039370078740157
        },
        {
          "duration": 0.15789474999999698,
          "durationTicks": 60,
          "midi": 78,
          "name": "F#5",
          "ticks": 27780,
          "time": 73.10526925,
          "velocity": 0.5039370078740157
        },
        {
          "duration": 0.15789474999999698,
          "durationTicks": 60,
          "midi": 80,
          "name": "G#5",
          "ticks": 27840,
          "time": 73.263164,
          "velocity": 0.5039370078740157
        },
        {
          "duration": 0.15789474999999698,
          "durationTicks": 60,
          "midi": 83,
          "name": "B5",
          "ticks": 27900,
          "time": 73.42105875,
          "velocity": 0.5039370078740157
        },
        {
          "duration": 0.15789474999999698,
          "durationTicks": 60,
          "midi": 82,
          "name": "A#5",
          "ticks": 27960,
          "time": 73.5789535,
          "velocity": 0.5039370078740157
        },
        {
          "duration": 0.15789475000001119,
          "durationTicks": 60,
          "midi": 80,
          "name": "G#5",
          "ticks": 28020,
          "time": 73.73684825,
          "velocity": 0.5039370078740157
        },
        {
          "duration": 0.15789474999999698,
          "durationTicks": 60,
          "midi": 82,
          "name": "A#5",
          "ticks": 28080,
          "time": 73.894743,
          "velocity": 0.5039370078740157
        },
        {
          "duration": 0.15789474999999698,
          "durationTicks": 60,
          "midi": 75,
          "name": "D#5",
          "ticks": 28140,
          "time": 74.05263775,
          "velocity": 0.5039370078740157
        },
        {
          "duration": 0.15789474999999698,
          "durationTicks": 60,
          "midi": 66,
          "name": "F#4",
          "ticks": 28260,
          "time": 74.36842725,
          "velocity": 0.5039370078740157
        },
        {
          "duration": 0.15789474999999698,
          "durationTicks": 60,
          "midi": 70,
          "name": "A#4",
          "ticks": 28380,
          "time": 74.68421675,
          "velocity": 0.5039370078740157
        },
        {
          "duration": 0.15789474999999698,
          "durationTicks": 60,
          "midi": 75,
          "name": "D#5",
          "ticks": 28500,
          "time": 75.00000625,
          "velocity": 0.5039370078740157
        },
        {
          "duration": 0.15789474999999698,
          "durationTicks": 60,
          "midi": 78,
          "name": "F#5",
          "ticks": 28620,
          "time": 75.31579575,
          "velocity": 0.5039370078740157
        },
        {
          "duration": 0.15789474999999698,
          "durationTicks": 60,
          "midi": 80,
          "name": "G#5",
          "ticks": 28740,
          "time": 75.63158525,
          "velocity": 0.5039370078740157
        },
        {
          "duration": 0.15789474999999698,
          "durationTicks": 60,
          "midi": 81,
          "name": "A5",
          "ticks": 28800,
          "time": 75.78948,
          "velocity": 0.5039370078740157
        },
        {
          "duration": 0.15789475000001119,
          "durationTicks": 60,
          "midi": 80,
          "name": "G#5",
          "ticks": 28860,
          "time": 75.94737475,
          "velocity": 0.5039370078740157
        },
        {
          "duration": 0.15789474999999698,
          "durationTicks": 60,
          "midi": 78,
          "name": "F#5",
          "ticks": 28920,
          "time": 76.1052695,
          "velocity": 0.5039370078740157
        },
        {
          "duration": 0.15789474999999698,
          "durationTicks": 60,
          "midi": 76,
          "name": "E5",
          "ticks": 28980,
          "time": 76.26316425,
          "velocity": 0.5039370078740157
        },
        {
          "duration": 0.15789474999999698,
          "durationTicks": 60,
          "midi": 75,
          "name": "D#5",
          "ticks": 29040,
          "time": 76.421059,
          "velocity": 0.5039370078740157
        },
        {
          "duration": 0.15789474999999698,
          "durationTicks": 60,
          "midi": 73,
          "name": "C#5",
          "ticks": 29100,
          "time": 76.57895375,
          "velocity": 0.5039370078740157
        },
        {
          "duration": 0.15789475000001119,
          "durationTicks": 60,
          "midi": 75,
          "name": "D#5",
          "ticks": 29160,
          "time": 76.7368485,
          "velocity": 0.5039370078740157
        },
        {
          "duration": 0.15789474999999698,
          "durationTicks": 60,
          "midi": 76,
          "name": "E5",
          "ticks": 29220,
          "time": 76.89474325,
          "velocity": 0.5039370078740157
        },
        {
          "duration": 0.15789474999999698,
          "durationTicks": 60,
          "midi": 78,
          "name": "F#5",
          "ticks": 29280,
          "time": 77.052638,
          "velocity": 0.5039370078740157
        },
        {
          "duration": 0.15789474999999698,
          "durationTicks": 60,
          "midi": 81,
          "name": "A5",
          "ticks": 29340,
          "time": 77.21053275,
          "velocity": 0.5039370078740157
        },
        {
          "duration": 0.15789475000001119,
          "durationTicks": 60,
          "midi": 80,
          "name": "G#5",
          "ticks": 29400,
          "time": 77.3684275,
          "velocity": 0.5039370078740157
        },
        {
          "duration": 0.15789474999999698,
          "durationTicks": 60,
          "midi": 78,
          "name": "F#5",
          "ticks": 29460,
          "time": 77.52632225,
          "velocity": 0.5039370078740157
        },
        {
          "duration": 0.15789474999999698,
          "durationTicks": 60,
          "midi": 80,
          "name": "G#5",
          "ticks": 29520,
          "time": 77.684217,
          "velocity": 0.5039370078740157
        },
        {
          "duration": 0.15789474999999698,
          "durationTicks": 60,
          "midi": 73,
          "name": "C#5",
          "ticks": 29580,
          "time": 77.84211175,
          "velocity": 0.5039370078740157
        },
        {
          "duration": 0.15789475000001119,
          "durationTicks": 60,
          "midi": 76,
          "name": "E5",
          "ticks": 29700,
          "time": 78.15790125,
          "velocity": 0.5039370078740157
        },
        {
          "duration": 0.15789474999999698,
          "durationTicks": 60,
          "midi": 73,
          "name": "C#5",
          "ticks": 29820,
          "time": 78.47369075,
          "velocity": 0.5039370078740157
        },
        {
          "duration": 0.15789474999999698,
          "durationTicks": 60,
          "midi": 69,
          "name": "A4",
          "ticks": 29940,
          "time": 78.78948025,
          "velocity": 0.5039370078740157
        },
        {
          "duration": 0.15789474999999698,
          "durationTicks": 60,
          "midi": 66,
          "name": "F#4",
          "ticks": 30060,
          "time": 79.10526975,
          "velocity": 0.5039370078740157
        },
        {
          "duration": 0.15789474999999698,
          "durationTicks": 60,
          "midi": 75,
          "name": "D#5",
          "ticks": 30180,
          "time": 79.42105925,
          "velocity": 0.5039370078740157
        },
        {
          "duration": 0.15789474999999698,
          "durationTicks": 60,
          "midi": 68,
          "name": "G#4",
          "ticks": 30300,
          "time": 79.73684875000001,
          "velocity": 0.5039370078740157
        },
        {
          "duration": 0.15789474999999698,
          "durationTicks": 60,
          "midi": 64,
          "name": "E4",
          "ticks": 30420,
          "time": 80.05263825,
          "velocity": 0.5039370078740157
        },
        {
          "duration": 0.15789475000001119,
          "durationTicks": 60,
          "midi": 73,
          "name": "C#5",
          "ticks": 30540,
          "time": 80.36842775,
          "velocity": 0.5039370078740157
        },
        {
          "duration": 0.15789474999999698,
          "durationTicks": 60,
          "midi": 69,
          "name": "A4",
          "ticks": 30660,
          "time": 80.68421725,
          "velocity": 0.5039370078740157
        },
        {
          "duration": 0.15789474999999698,
          "durationTicks": 60,
          "midi": 66,
          "name": "F#4",
          "ticks": 30780,
          "time": 81.00000675,
          "velocity": 0.5039370078740157
        },
        {
          "duration": 0.15789474999999698,
          "durationTicks": 60,
          "midi": 63,
          "name": "D#4",
          "ticks": 30900,
          "time": 81.31579625,
          "velocity": 0.5039370078740157
        },
        {
          "duration": 0.15789474999999698,
          "durationTicks": 60,
          "midi": 60,
          "name": "C4",
          "ticks": 30960,
          "time": 81.473691,
          "velocity": 0.5039370078740157
        },
        {
          "duration": 0.15789474999999698,
          "durationTicks": 60,
          "midi": 56,
          "name": "G#3",
          "ticks": 31020,
          "time": 81.63158575,
          "velocity": 0.5039370078740157
        },
        {
          "duration": 0.15789475000001119,
          "durationTicks": 60,
          "midi": 56,
          "name": "G#3",
          "ticks": 31140,
          "time": 81.94737525,
          "velocity": 0.5039370078740157
        },
        {
          "duration": 0.15789474999999698,
          "durationTicks": 60,
          "midi": 56,
          "name": "G#3",
          "ticks": 31260,
          "time": 82.26316475,
          "velocity": 0.5039370078740157
        },
        {
          "duration": 0.15789474999999698,
          "durationTicks": 60,
          "midi": 60,
          "name": "C4",
          "ticks": 31320,
          "time": 82.4210595,
          "velocity": 0.5039370078740157
        },
        {
          "duration": 0.15789475000001119,
          "durationTicks": 60,
          "midi": 56,
          "name": "G#3",
          "ticks": 31380,
          "time": 82.57895425,
          "velocity": 0.5039370078740157
        },
        {
          "duration": 0.15789474999999698,
          "durationTicks": 60,
          "midi": 56,
          "name": "G#3",
          "ticks": 31500,
          "time": 82.89474375,
          "velocity": 0.5039370078740157
        },
        {
          "duration": 0.15789474999999698,
          "durationTicks": 60,
          "midi": 56,
          "name": "G#3",
          "ticks": 31620,
          "time": 83.21053325,
          "velocity": 0.5039370078740157
        },
        {
          "duration": 0.15789475000001119,
          "durationTicks": 60,
          "midi": 61,
          "name": "C#4",
          "ticks": 31680,
          "time": 83.368428,
          "velocity": 0.5039370078740157
        },
        {
          "duration": 0.15789474999999698,
          "durationTicks": 60,
          "midi": 56,
          "name": "G#3",
          "ticks": 31740,
          "time": 83.52632275,
          "velocity": 0.5039370078740157
        },
        {
          "duration": 0.15789474999999698,
          "durationTicks": 60,
          "midi": 56,
          "name": "G#3",
          "ticks": 31860,
          "time": 83.84211225,
          "velocity": 0.5039370078740157
        },
        {
          "duration": 0.15789475000001119,
          "durationTicks": 60,
          "midi": 56,
          "name": "G#3",
          "ticks": 31980,
          "time": 84.15790175,
          "velocity": 0.5039370078740157
        },
        {
          "duration": 0.15789474999999698,
          "durationTicks": 60,
          "midi": 61,
          "name": "C#4",
          "ticks": 32040,
          "time": 84.3157965,
          "velocity": 0.5039370078740157
        },
        {
          "duration": 0.15789474999999698,
          "durationTicks": 60,
          "midi": 56,
          "name": "G#3",
          "ticks": 32100,
          "time": 84.47369125,
          "velocity": 0.5039370078740157
        },
        {
          "duration": 0.15789475000001119,
          "durationTicks": 60,
          "midi": 56,
          "name": "G#3",
          "ticks": 32220,
          "time": 84.78948075,
          "velocity": 0.5039370078740157
        },
        {
          "duration": 0.15789474999999698,
          "durationTicks": 60,
          "midi": 56,
          "name": "G#3",
          "ticks": 32340,
          "time": 85.10527025,
          "velocity": 0.5039370078740157
        },
        {
          "duration": 0.15789474999999698,
          "durationTicks": 60,
          "midi": 66,
          "name": "F#4",
          "ticks": 32400,
          "time": 85.263165,
          "velocity": 0.5039370078740157
        },
        {
          "duration": 0.15789474999999698,
          "durationTicks": 60,
          "midi": 56,
          "name": "G#3",
          "ticks": 32460,
          "time": 85.42105975,
          "velocity": 0.5039370078740157
        },
        {
          "duration": 0.15789474999999698,
          "durationTicks": 60,
          "midi": 56,
          "name": "G#3",
          "ticks": 32580,
          "time": 85.73684925,
          "velocity": 0.5039370078740157
        },
        {
          "duration": 0.15789474999999698,
          "durationTicks": 60,
          "midi": 56,
          "name": "G#3",
          "ticks": 32700,
          "time": 86.05263875,
          "velocity": 0.5039370078740157
        },
        {
          "duration": 0.15789474999999698,
          "durationTicks": 60,
          "midi": 66,
          "name": "F#4",
          "ticks": 32760,
          "time": 86.2105335,
          "velocity": 0.5039370078740157
        },
        {
          "duration": 0.15789475000001119,
          "durationTicks": 60,
          "midi": 56,
          "name": "G#3",
          "ticks": 32820,
          "time": 86.36842825,
          "velocity": 0.5039370078740157
        },
        {
          "duration": 0.15789474999999698,
          "durationTicks": 60,
          "midi": 56,
          "name": "G#3",
          "ticks": 32940,
          "time": 86.68421775,
          "velocity": 0.5039370078740157
        },
        {
          "duration": 0.15789475000001119,
          "durationTicks": 60,
          "midi": 56,
          "name": "G#3",
          "ticks": 33060,
          "time": 87.00000725,
          "velocity": 0.5039370078740157
        },
        {
          "duration": 0.15789474999999698,
          "durationTicks": 60,
          "midi": 65,
          "name": "F4",
          "ticks": 33120,
          "time": 87.157902,
          "velocity": 0.5039370078740157
        },
        {
          "duration": 0.15789474999999698,
          "durationTicks": 60,
          "midi": 56,
          "name": "G#3",
          "ticks": 33180,
          "time": 87.31579675,
          "velocity": 0.5039370078740157
        },
        {
          "duration": 0.15789474999999698,
          "durationTicks": 60,
          "midi": 56,
          "name": "G#3",
          "ticks": 33300,
          "time": 87.63158625,
          "velocity": 0.5039370078740157
        },
        {
          "duration": 0.15789474999999698,
          "durationTicks": 60,
          "midi": 56,
          "name": "G#3",
          "ticks": 33420,
          "time": 87.94737575,
          "velocity": 0.5039370078740157
        },
        {
          "duration": 0.15789474999999698,
          "durationTicks": 60,
          "midi": 65,
          "name": "F4",
          "ticks": 33480,
          "time": 88.1052705,
          "velocity": 0.5039370078740157
        },
        {
          "duration": 0.15789474999999698,
          "durationTicks": 60,
          "midi": 56,
          "name": "G#3",
          "ticks": 33540,
          "time": 88.26316525,
          "velocity": 0.5039370078740157
        },
        {
          "duration": 0.15789475000001119,
          "durationTicks": 60,
          "midi": 56,
          "name": "G#3",
          "ticks": 33660,
          "time": 88.57895475,
          "velocity": 0.5039370078740157
        },
        {
          "duration": 0.15789474999999698,
          "durationTicks": 60,
          "midi": 56,
          "name": "G#3",
          "ticks": 33780,
          "time": 88.89474425,
          "velocity": 0.5039370078740157
        },
        {
          "duration": 0.15789474999999698,
          "durationTicks": 60,
          "midi": 67,
          "name": "G4",
          "ticks": 33840,
          "time": 89.052639,
          "velocity": 0.5039370078740157
        },
        {
          "duration": 0.15789474999999698,
          "durationTicks": 60,
          "midi": 58,
          "name": "A#3",
          "ticks": 33900,
          "time": 89.21053375,
          "velocity": 0.5039370078740157
        },
        {
          "duration": 0.15789474999999698,
          "durationTicks": 60,
          "midi": 58,
          "name": "A#3",
          "ticks": 34020,
          "time": 89.52632325,
          "velocity": 0.5039370078740157
        },
        {
          "duration": 0.15789474999999698,
          "durationTicks": 60,
          "midi": 58,
          "name": "A#3",
          "ticks": 34140,
          "time": 89.84211275,
          "velocity": 0.5039370078740157
        },
        {
          "duration": 0.15789475000001119,
          "durationTicks": 60,
          "midi": 67,
          "name": "G4",
          "ticks": 34200,
          "time": 90.0000075,
          "velocity": 0.5039370078740157
        },
        {
          "duration": 0.15789474999999698,
          "durationTicks": 60,
          "midi": 58,
          "name": "A#3",
          "ticks": 34260,
          "time": 90.15790225,
          "velocity": 0.5039370078740157
        },
        {
          "duration": 0.15789474999999698,
          "durationTicks": 60,
          "midi": 58,
          "name": "A#3",
          "ticks": 34380,
          "time": 90.47369175,
          "velocity": 0.5039370078740157
        },
        {
          "duration": 0.15789475000001119,
          "durationTicks": 60,
          "midi": 58,
          "name": "A#3",
          "ticks": 34500,
          "time": 90.78948125,
          "velocity": 0.5039370078740157
        },
        {
          "duration": 0.15789474999999698,
          "durationTicks": 60,
          "midi": 54,
          "name": "F#3",
          "ticks": 34740,
          "time": 91.42106025,
          "velocity": 0.5039370078740157
        },
        {
          "duration": 0.15789475000001119,
          "durationTicks": 60,
          "midi": 57,
          "name": "A3",
          "ticks": 34800,
          "time": 91.578955,
          "velocity": 0.5039370078740157
        },
        {
          "duration": 0.15789474999999698,
          "durationTicks": 60,
          "midi": 60,
          "name": "C4",
          "ticks": 34860,
          "time": 91.73684975,
          "velocity": 0.5039370078740157
        },
        {
          "duration": 0.15789474999999698,
          "durationTicks": 60,
          "midi": 70,
          "name": "A#4",
          "ticks": 35100,
          "time": 92.36842875,
          "velocity": 0.5039370078740157
        },
        {
          "duration": 0.15789474999999698,
          "durationTicks": 60,
          "midi": 73,
          "name": "C#5",
          "ticks": 35160,
          "time": 92.5263235,
          "velocity": 0.5039370078740157
        },
        {
          "duration": 0.15789474999999698,
          "durationTicks": 60,
          "midi": 76,
          "name": "E5",
          "ticks": 35220,
          "time": 92.68421825,
          "velocity": 0.5039370078740157
        },
        {
          "duration": 0.15789474999999698,
          "durationTicks": 60,
          "midi": 72,
          "name": "C5",
          "ticks": 35280,
          "time": 92.842113,
          "velocity": 0.5039370078740157
        },
        {
          "duration": 0.15789475000001119,
          "durationTicks": 60,
          "midi": 75,
          "name": "D#5",
          "ticks": 35340,
          "time": 93.00000775,
          "velocity": 0.5039370078740157
        },
        {
          "duration": 0.15789474999999698,
          "durationTicks": 60,
          "midi": 78,
          "name": "F#5",
          "ticks": 35400,
          "time": 93.1579025,
          "velocity": 0.5039370078740157
        },
        {
          "duration": 0.15789474999999698,
          "durationTicks": 60,
          "midi": 75,
          "name": "D#5",
          "ticks": 35460,
          "time": 93.31579725,
          "velocity": 0.5039370078740157
        },
        {
          "duration": 0.15789474999999698,
          "durationTicks": 60,
          "midi": 72,
          "name": "C5",
          "ticks": 35520,
          "time": 93.473692,
          "velocity": 0.5039370078740157
        },
        {
          "duration": 0.15789474999999698,
          "durationTicks": 60,
          "midi": 68,
          "name": "G#4",
          "ticks": 35580,
          "time": 93.63158675,
          "velocity": 0.5039370078740157
        },
        {
          "duration": 0.15789474999999698,
          "durationTicks": 60,
          "midi": 65,
          "name": "F4",
          "ticks": 36000,
          "time": 94.73685,
          "velocity": 0.5039370078740157
        },
        {
          "duration": 0.15789474999999698,
          "durationTicks": 60,
          "midi": 68,
          "name": "G#4",
          "ticks": 36060,
          "time": 94.89474475,
          "velocity": 0.5039370078740157
        },
        {
          "duration": 0.15789474999999698,
          "durationTicks": 60,
          "midi": 73,
          "name": "C#5",
          "ticks": 36120,
          "time": 95.0526395,
          "velocity": 0.5039370078740157
        },
        {
          "duration": 0.15789475000001119,
          "durationTicks": 60,
          "midi": 68,
          "name": "G#4",
          "ticks": 36180,
          "time": 95.21053425,
          "velocity": 0.5039370078740157
        },
        {
          "duration": 0.15789474999999698,
          "durationTicks": 60,
          "midi": 65,
          "name": "F4",
          "ticks": 36240,
          "time": 95.368429,
          "velocity": 0.5039370078740157
        },
        {
          "duration": 0.15789474999999698,
          "durationTicks": 60,
          "midi": 61,
          "name": "C#4",
          "ticks": 36300,
          "time": 95.52632375,
          "velocity": 0.5039370078740157
        },
        {
          "duration": 0.37313416666667365,
          "durationTicks": 100,
          "midi": 65,
          "name": "F4",
          "ticks": 36840,
          "time": 97.182283,
          "velocity": 0.5039370078740157
        },
        {
          "duration": 0.37313416666667365,
          "durationTicks": 100,
          "midi": 73,
          "name": "C#5",
          "ticks": 36840,
          "time": 97.182283,
          "velocity": 0.5039370078740157
        },
        {
          "duration": 0.37313416666667365,
          "durationTicks": 100,
          "midi": 68,
          "name": "G#4",
          "ticks": 36840,
          "time": 97.182283,
          "velocity": 0.5039370078740157
        },
        {
          "duration": 0.4545454166666616,
          "durationTicks": 100,
          "midi": 63,
          "name": "D#4",
          "ticks": 36960,
          "time": 97.630044,
          "velocity": 0.5039370078740157
        },
        {
          "duration": 0.4545454166666616,
          "durationTicks": 100,
          "midi": 72,
          "name": "C5",
          "ticks": 36960,
          "time": 97.630044,
          "velocity": 0.5039370078740157
        },
        {
          "duration": 0.4545454166666616,
          "durationTicks": 100,
          "midi": 68,
          "name": "G#4",
          "ticks": 36960,
          "time": 97.630044,
          "velocity": 0.5039370078740157
        },
        {
          "duration": 1.8367350000000044,
          "durationTicks": 360,
          "midi": 73,
          "name": "C#5",
          "ticks": 37080,
          "time": 98.1754985,
          "velocity": 0.5039370078740157
        },
        {
          "duration": 1.8367350000000044,
          "durationTicks": 360,
          "midi": 68,
          "name": "G#4",
          "ticks": 37080,
          "time": 98.1754985,
          "velocity": 0.5039370078740157
        },
        {
          "duration": 1.8367350000000044,
          "durationTicks": 360,
          "midi": 61,
          "name": "C#4",
          "ticks": 37080,
          "time": 98.1754985,
          "velocity": 0.5039370078740157
        }
      ],
      "endOfTrackTicks": 37440
    },
    {
      "channel": 1,
      "controlChanges": {},
      "pitchBends": [],
      "instrument": {
        "family": "piano",
        "number": 0,
        "name": "acoustic grand piano"
      },
      "name": "",
      "notes": [
        {
          "duration": 0.631579,
          "durationTicks": 240,
          "midi": 49,
          "name": "C#3",
          "ticks": 0,
          "time": 0,
          "velocity": 0.5039370078740157
        },
        {
          "duration": 0.31578950000000006,
          "durationTicks": 120,
          "midi": 61,
          "name": "C#4",
          "ticks": 240,
          "time": 0.631579,
          "velocity": 0.5039370078740157
        },
        {
          "duration": 0.6315789999999999,
          "durationTicks": 240,
          "midi": 51,
          "name": "D#3",
          "ticks": 360,
          "time": 0.9473685000000001,
          "velocity": 0.5039370078740157
        },
        {
          "duration": 0.31578950000000017,
          "durationTicks": 120,
          "midi": 61,
          "name": "C#4",
          "ticks": 600,
          "time": 1.5789475,
          "velocity": 0.5039370078740157
        },
        {
          "duration": 0.6315789999999999,
          "durationTicks": 240,
          "midi": 53,
          "name": "F3",
          "ticks": 720,
          "time": 1.8947370000000001,
          "velocity": 0.5039370078740157
        },
        {
          "duration": 0.31578950000000017,
          "durationTicks": 120,
          "midi": 61,
          "name": "C#4",
          "ticks": 960,
          "time": 2.526316,
          "velocity": 0.5039370078740157
        },
        {
          "duration": 0.6315789999999999,
          "durationTicks": 240,
          "midi": 54,
          "name": "F#3",
          "ticks": 1080,
          "time": 2.8421055,
          "velocity": 0.5039370078740157
        },
        {
          "duration": 0.31578950000000017,
          "durationTicks": 120,
          "midi": 61,
          "name": "C#4",
          "ticks": 1320,
          "time": 3.4736845,
          "velocity": 0.5039370078740157
        },
        {
          "duration": 0.6315789999999994,
          "durationTicks": 240,
          "midi": 53,
          "name": "F3",
          "ticks": 1440,
          "time": 3.7894740000000002,
          "velocity": 0.5039370078740157
        },
        {
          "duration": 0.31578950000000017,
          "durationTicks": 120,
          "midi": 61,
          "name": "C#4",
          "ticks": 1680,
          "time": 4.421053,
          "velocity": 0.5039370078740157
        },
        {
          "duration": 0.6315790000000003,
          "durationTicks": 240,
          "midi": 51,
          "name": "D#3",
          "ticks": 1800,
          "time": 4.7368425,
          "velocity": 0.5039370078740157
        },
        {
          "duration": 0.31578950000000017,
          "durationTicks": 120,
          "midi": 60,
          "name": "C4",
          "ticks": 2040,
          "time": 5.3684215,
          "velocity": 0.5039370078740157
        },
        {
          "duration": 0.6315789999999994,
          "durationTicks": 240,
          "midi": 49,
          "name": "C#3",
          "ticks": 2160,
          "time": 5.684211,
          "velocity": 0.5039370078740157
        },
        {
          "duration": 0.6315790000000003,
          "durationTicks": 240,
          "midi": 61,
          "name": "C#4",
          "ticks": 2400,
          "time": 6.31579,
          "velocity": 0.5039370078740157
        },
        {
          "duration": 0.15789474999999964,
          "durationTicks": 60,
          "midi": 60,
          "name": "C4",
          "ticks": 2640,
          "time": 6.947369,
          "velocity": 0.5039370078740157
        },
        {
          "duration": 0.15789475000000053,
          "durationTicks": 60,
          "midi": 58,
          "name": "A#3",
          "ticks": 2700,
          "time": 7.10526375,
          "velocity": 0.5039370078740157
        },
        {
          "duration": 0.15789474999999964,
          "durationTicks": 60,
          "midi": 56,
          "name": "G#3",
          "ticks": 2760,
          "time": 7.2631585,
          "velocity": 0.5039370078740157
        },
        {
          "duration": 0.15789475000000053,
          "durationTicks": 60,
          "midi": 58,
          "name": "A#3",
          "ticks": 2820,
          "time": 7.42105325,
          "velocity": 0.5039370078740157
        },
        {
          "duration": 0.15789474999999964,
          "durationTicks": 60,
          "midi": 60,
          "name": "C4",
          "ticks": 2880,
          "time": 7.5789480000000005,
          "velocity": 0.5039370078740157
        },
        {
          "duration": 0.15789474999999964,
          "durationTicks": 60,
          "midi": 56,
          "name": "G#3",
          "ticks": 2940,
          "time": 7.73684275,
          "velocity": 0.5039370078740157
        },
        {
          "duration": 0.15789475000000053,
          "durationTicks": 60,
          "midi": 51,
          "name": "D#3",
          "ticks": 3000,
          "time": 7.8947375,
          "velocity": 0.5039370078740157
        },
        {
          "duration": 0.15789475000000053,
          "durationTicks": 60,
          "midi": 56,
          "name": "G#3",
          "ticks": 3060,
          "time": 8.05263225,
          "velocity": 0.5039370078740157
        },
        {
          "duration": 0.15789474999999875,
          "durationTicks": 60,
          "midi": 60,
          "name": "C4",
          "ticks": 3120,
          "time": 8.210527,
          "velocity": 0.5039370078740157
        },
        {
          "duration": 0.15789475000000053,
          "durationTicks": 60,
          "midi": 56,
          "name": "G#3",
          "ticks": 3180,
          "time": 8.36842175,
          "velocity": 0.5039370078740157
        },
        {
          "duration": 0.15789475000000053,
          "durationTicks": 60,
          "midi": 61,
          "name": "C#4",
          "ticks": 3240,
          "time": 8.5263165,
          "velocity": 0.5039370078740157
        },
        {
          "duration": 0.15789474999999875,
          "durationTicks": 60,
          "midi": 56,
          "name": "G#3",
          "ticks": 3300,
          "time": 8.68421125,
          "velocity": 0.5039370078740157
        },
        {
          "duration": 0.15789475000000053,
          "durationTicks": 60,
          "midi": 61,
          "name": "C#4",
          "ticks": 3360,
          "time": 8.842106,
          "velocity": 0.5039370078740157
        },
        {
          "duration": 0.15789475000000053,
          "durationTicks": 60,
          "midi": 56,
          "name": "G#3",
          "ticks": 3420,
          "time": 9.00000075,
          "velocity": 0.5039370078740157
        },
        {
          "duration": 0.15789474999999875,
          "durationTicks": 60,
          "midi": 61,
          "name": "C#4",
          "ticks": 3480,
          "time": 9.1578955,
          "velocity": 0.5039370078740157
        },
        {
          "duration": 0.15789475000000053,
          "durationTicks": 60,
          "midi": 56,
          "name": "G#3",
          "ticks": 3540,
          "time": 9.31579025,
          "velocity": 0.5039370078740157
        },
        {
          "duration": 0.15789475000000053,
          "durationTicks": 60,
          "midi": 63,
          "name": "D#4",
          "ticks": 3600,
          "time": 9.473685,
          "velocity": 0.5039370078740157
        },
        {
          "duration": 0.15789475000000053,
          "durationTicks": 60,
          "midi": 56,
          "name": "G#3",
          "ticks": 3660,
          "time": 9.63157975,
          "velocity": 0.5039370078740157
        },
        {
          "duration": 0.15789474999999875,
          "durationTicks": 60,
          "midi": 63,
          "name": "D#4",
          "ticks": 3720,
          "time": 9.7894745,
          "velocity": 0.5039370078740157
        },
        {
          "duration": 0.15789475000000053,
          "durationTicks": 60,
          "midi": 56,
          "name": "G#3",
          "ticks": 3780,
          "time": 9.94736925,
          "velocity": 0.5039370078740157
        },
        {
          "duration": 0.15789475000000053,
          "durationTicks": 60,
          "midi": 63,
          "name": "D#4",
          "ticks": 3840,
          "time": 10.105264,
          "velocity": 0.5039370078740157
        },
        {
          "duration": 0.15789474999999875,
          "durationTicks": 60,
          "midi": 56,
          "name": "G#3",
          "ticks": 3900,
          "time": 10.26315875,
          "velocity": 0.5039370078740157
        },
        {
          "duration": 0.15789475000000053,
          "durationTicks": 60,
          "midi": 65,
          "name": "F4",
          "ticks": 3960,
          "time": 10.4210535,
          "velocity": 0.5039370078740157
        },
        {
          "duration": 0.15789475000000053,
          "durationTicks": 60,
          "midi": 56,
          "name": "G#3",
          "ticks": 4020,
          "time": 10.57894825,
          "velocity": 0.5039370078740157
        },
        {
          "duration": 0.15789475000000053,
          "durationTicks": 60,
          "midi": 65,
          "name": "F4",
          "ticks": 4080,
          "time": 10.736843,
          "velocity": 0.5039370078740157
        },
        {
          "duration": 0.15789474999999875,
          "durationTicks": 60,
          "midi": 56,
          "name": "G#3",
          "ticks": 4140,
          "time": 10.89473775,
          "velocity": 0.5039370078740157
        },
        {
          "duration": 0.15789475000000053,
          "durationTicks": 60,
          "midi": 65,
          "name": "F4",
          "ticks": 4200,
          "time": 11.0526325,
          "velocity": 0.5039370078740157
        },
        {
          "duration": 0.15789475000000053,
          "durationTicks": 60,
          "midi": 56,
          "name": "G#3",
          "ticks": 4260,
          "time": 11.21052725,
          "velocity": 0.5039370078740157
        },
        {
          "duration": 0.15789474999999875,
          "durationTicks": 60,
          "midi": 63,
          "name": "D#4",
          "ticks": 4320,
          "time": 11.368422,
          "velocity": 0.5039370078740157
        },
        {
          "duration": 0.15789475000000053,
          "durationTicks": 60,
          "midi": 56,
          "name": "G#3",
          "ticks": 4380,
          "time": 11.52631675,
          "velocity": 0.5039370078740157
        },
        {
          "duration": 0.15789475000000053,
          "durationTicks": 60,
          "midi": 63,
          "name": "D#4",
          "ticks": 4440,
          "time": 11.6842115,
          "velocity": 0.5039370078740157
        },
        {
          "duration": 0.15789474999999875,
          "durationTicks": 60,
          "midi": 56,
          "name": "G#3",
          "ticks": 4500,
          "time": 11.84210625,
          "velocity": 0.5039370078740157
        },
        {
          "duration": 0.15789475000000053,
          "durationTicks": 60,
          "midi": 63,
          "name": "D#4",
          "ticks": 4560,
          "time": 12.000001,
          "velocity": 0.5039370078740157
        },
        {
          "duration": 0.15789475000000053,
          "durationTicks": 60,
          "midi": 56,
          "name": "G#3",
          "ticks": 4620,
          "time": 12.15789575,
          "velocity": 0.5039370078740157
        },
        {
          "duration": 0.15789475000000053,
          "durationTicks": 60,
          "midi": 61,
          "name": "C#4",
          "ticks": 4680,
          "time": 12.3157905,
          "velocity": 0.5039370078740157
        },
        {
          "duration": 0.15789474999999875,
          "durationTicks": 60,
          "midi": 60,
          "name": "C4",
          "ticks": 4740,
          "time": 12.47368525,
          "velocity": 0.5039370078740157
        },
        {
          "duration": 0.15789475000000053,
          "durationTicks": 60,
          "midi": 58,
          "name": "A#3",
          "ticks": 4800,
          "time": 12.63158,
          "velocity": 0.5039370078740157
        },
        {
          "duration": 0.15789475000000053,
          "durationTicks": 60,
          "midi": 60,
          "name": "C4",
          "ticks": 4860,
          "time": 12.78947475,
          "velocity": 0.5039370078740157
        },
        {
          "duration": 0.15789474999999875,
          "durationTicks": 60,
          "midi": 61,
          "name": "C#4",
          "ticks": 4920,
          "time": 12.9473695,
          "velocity": 0.5039370078740157
        },
        {
          "duration": 0.15789475000000053,
          "durationTicks": 60,
          "midi": 58,
          "name": "A#3",
          "ticks": 4980,
          "time": 13.10526425,
          "velocity": 0.5039370078740157
        },
        {
          "duration": 0.15789475000000053,
          "durationTicks": 60,
          "midi": 60,
          "name": "C4",
          "ticks": 5040,
          "time": 13.263159,
          "velocity": 0.5039370078740157
        },
        {
          "duration": 0.15789474999999875,
          "durationTicks": 60,
          "midi": 58,
          "name": "A#3",
          "ticks": 5100,
          "time": 13.42105375,
          "velocity": 0.5039370078740157
        },
        {
          "duration": 0.15789475000000053,
          "durationTicks": 60,
          "midi": 56,
          "name": "G#3",
          "ticks": 5160,
          "time": 13.5789485,
          "velocity": 0.5039370078740157
        },
        {
          "duration": 0.15789475000000053,
          "durationTicks": 60,
          "midi": 58,
          "name": "A#3",
          "ticks": 5220,
          "time": 13.73684325,
          "velocity": 0.5039370078740157
        },
        {
          "duration": 0.15789475000000053,
          "durationTicks": 60,
          "midi": 60,
          "name": "C4",
          "ticks": 5280,
          "time": 13.894738,
          "velocity": 0.5039370078740157
        },
        {
          "duration": 0.15789474999999875,
          "durationTicks": 60,
          "midi": 56,
          "name": "G#3",
          "ticks": 5340,
          "time": 14.05263275,
          "velocity": 0.5039370078740157
        },
        {
          "duration": 0.15789475000000053,
          "durationTicks": 60,
          "midi": 58,
          "name": "A#3",
          "ticks": 5400,
          "time": 14.2105275,
          "velocity": 0.5039370078740157
        },
        {
          "duration": 0.15789475000000053,
          "durationTicks": 60,
          "midi": 59,
          "name": "B3",
          "ticks": 5460,
          "time": 14.36842225,
          "velocity": 0.5039370078740157
        },
        {
          "duration": 0.15789474999999875,
          "durationTicks": 60,
          "midi": 58,
          "name": "A#3",
          "ticks": 5520,
          "time": 14.526317,
          "velocity": 0.5039370078740157
        },
        {
          "duration": 0.15789475000000053,
          "durationTicks": 60,
          "midi": 56,
          "name": "G#3",
          "ticks": 5580,
          "time": 14.68421175,
          "velocity": 0.5039370078740157
        },
        {
          "duration": 0.15789475000000053,
          "durationTicks": 60,
          "midi": 54,
          "name": "F#3",
          "ticks": 5640,
          "time": 14.8421065,
          "velocity": 0.5039370078740157
        },
        {
          "duration": 0.15789475000000053,
          "durationTicks": 60,
          "midi": 53,
          "name": "F3",
          "ticks": 5700,
          "time": 15.00000125,
          "velocity": 0.5039370078740157
        },
        {
          "duration": 0.6315789999999986,
          "durationTicks": 240,
          "midi": 51,
          "name": "D#3",
          "ticks": 5760,
          "time": 15.157896000000001,
          "velocity": 0.5039370078740157
        },
        {
          "duration": 0.31578950000000106,
          "durationTicks": 120,
          "midi": 63,
          "name": "D#4",
          "ticks": 6000,
          "time": 15.789475,
          "velocity": 0.5039370078740157
        },
        {
          "duration": 0.6315789999999986,
          "durationTicks": 240,
          "midi": 53,
          "name": "F3",
          "ticks": 6120,
          "time": 16.1052645,
          "velocity": 0.5039370078740157
        },
        {
          "duration": 0.31578950000000106,
          "durationTicks": 120,
          "midi": 63,
          "name": "D#4",
          "ticks": 6360,
          "time": 16.7368435,
          "velocity": 0.5039370078740157
        },
        {
          "duration": 0.6315789999999986,
          "durationTicks": 240,
          "midi": 54,
          "name": "F#3",
          "ticks": 6480,
          "time": 17.052633,
          "velocity": 0.5039370078740157
        },
        {
          "duration": 0.31578950000000106,
          "durationTicks": 120,
          "midi": 63,
          "name": "D#4",
          "ticks": 6720,
          "time": 17.684212,
          "velocity": 0.5039370078740157
        },
        {
          "duration": 0.6315789999999986,
          "durationTicks": 240,
          "midi": 56,
          "name": "G#3",
          "ticks": 6840,
          "time": 18.0000015,
          "velocity": 0.5039370078740157
        },
        {
          "duration": 0.31578950000000106,
          "durationTicks": 120,
          "midi": 63,
          "name": "D#4",
          "ticks": 7080,
          "time": 18.6315805,
          "velocity": 0.5039370078740157
        },
        {
          "duration": 0.6315790000000021,
          "durationTicks": 240,
          "midi": 54,
          "name": "F#3",
          "ticks": 7200,
          "time": 18.94737,
          "velocity": 0.5039370078740157
        },
        {
          "duration": 0.3157894999999975,
          "durationTicks": 120,
          "midi": 63,
          "name": "D#4",
          "ticks": 7440,
          "time": 19.578949,
          "velocity": 0.5039370078740157
        },
        {
          "duration": 0.6315790000000021,
          "durationTicks": 240,
          "midi": 53,
          "name": "F3",
          "ticks": 7560,
          "time": 19.8947385,
          "velocity": 0.5039370078740157
        },
        {
          "duration": 0.3157894999999975,
          "durationTicks": 120,
          "midi": 62,
          "name": "D4",
          "ticks": 7800,
          "time": 20.5263175,
          "velocity": 0.5039370078740157
        },
        {
          "duration": 0.6315790000000021,
          "durationTicks": 240,
          "midi": 51,
          "name": "D#3",
          "ticks": 7920,
          "time": 20.842107,
          "velocity": 0.5039370078740157
        },
        {
          "duration": 0.6315789999999986,
          "durationTicks": 240,
          "midi": 63,
          "name": "D#4",
          "ticks": 8160,
          "time": 21.473686,
          "velocity": 0.5039370078740157
        },
        {
          "duration": 0.15789475000000053,
          "durationTicks": 60,
          "midi": 61,
          "name": "C#4",
          "ticks": 8400,
          "time": 22.105265,
          "velocity": 0.5039370078740157
        },
        {
          "duration": 0.15789475000000053,
          "durationTicks": 60,
          "midi": 60,
          "name": "C4",
          "ticks": 8460,
          "time": 22.26315975,
          "velocity": 0.5039370078740157
        },
        {
          "duration": 0.15789475000000053,
          "durationTicks": 60,
          "midi": 58,
          "name": "A#3",
          "ticks": 8520,
          "time": 22.4210545,
          "velocity": 0.5039370078740157
        },
        {
          "duration": 0.15789475000000053,
          "durationTicks": 60,
          "midi": 60,
          "name": "C4",
          "ticks": 8580,
          "time": 22.57894925,
          "velocity": 0.5039370078740157
        },
        {
          "duration": 0.15789474999999698,
          "durationTicks": 60,
          "midi": 61,
          "name": "C#4",
          "ticks": 8640,
          "time": 22.736844,
          "velocity": 0.5039370078740157
        },
        {
          "duration": 0.15789475000000053,
          "durationTicks": 60,
          "midi": 58,
          "name": "A#3",
          "ticks": 8700,
          "time": 22.89473875,
          "velocity": 0.5039370078740157
        },
        {
          "duration": 0.15789475000000053,
          "durationTicks": 60,
          "midi": 53,
          "name": "F3",
          "ticks": 8760,
          "time": 23.0526335,
          "velocity": 0.5039370078740157
        },
        {
          "duration": 0.15789475000000053,
          "durationTicks": 60,
          "midi": 58,
          "name": "A#3",
          "ticks": 8820,
          "time": 23.21052825,
          "velocity": 0.5039370078740157
        },
        {
          "duration": 0.15789475000000053,
          "durationTicks": 60,
          "midi": 61,
          "name": "C#4",
          "ticks": 8880,
          "time": 23.368423,
          "velocity": 0.5039370078740157
        },
        {
          "duration": 0.15789475000000053,
          "durationTicks": 60,
          "midi": 58,
          "name": "A#3",
          "ticks": 8940,
          "time": 23.52631775,
          "velocity": 0.5039370078740157
        },
        {
          "duration": 0.15789475000000053,
          "durationTicks": 60,
          "midi": 63,
          "name": "D#4",
          "ticks": 9000,
          "time": 23.6842125,
          "velocity": 0.5039370078740157
        },
        {
          "duration": 0.15789474999999698,
          "durationTicks": 60,
          "midi": 58,
          "name": "A#3",
          "ticks": 9060,
          "time": 23.84210725,
          "velocity": 0.5039370078740157
        },
        {
          "duration": 0.15789475000000053,
          "durationTicks": 60,
          "midi": 63,
          "name": "D#4",
          "ticks": 9120,
          "time": 24.000002,
          "velocity": 0.5039370078740157
        },
        {
          "duration": 0.15789475000000053,
          "durationTicks": 60,
          "midi": 58,
          "name": "A#3",
          "ticks": 9180,
          "time": 24.15789675,
          "velocity": 0.5039370078740157
        },
        {
          "duration": 0.15789475000000053,
          "durationTicks": 60,
          "midi": 63,
          "name": "D#4",
          "ticks": 9240,
          "time": 24.3157915,
          "velocity": 0.5039370078740157
        },
        {
          "duration": 0.15789475000000053,
          "durationTicks": 60,
          "midi": 58,
          "name": "A#3",
          "ticks": 9300,
          "time": 24.47368625,
          "velocity": 0.5039370078740157
        },
        {
          "duration": 0.15789475000000053,
          "durationTicks": 60,
          "midi": 65,
          "name": "F4",
          "ticks": 9360,
          "time": 24.631581,
          "velocity": 0.5039370078740157
        },
        {
          "duration": 0.15789475000000053,
          "durationTicks": 60,
          "midi": 58,
          "name": "A#3",
          "ticks": 9420,
          "time": 24.78947575,
          "velocity": 0.5039370078740157
        },
        {
          "duration": 0.15789474999999698,
          "durationTicks": 60,
          "midi": 65,
          "name": "F4",
          "ticks": 9480,
          "time": 24.9473705,
          "velocity": 0.5039370078740157
        },
        {
          "duration": 0.15789475000000053,
          "durationTicks": 60,
          "midi": 58,
          "name": "A#3",
          "ticks": 9540,
          "time": 25.10526525,
          "velocity": 0.5039370078740157
        },
        {
          "duration": 0.15789475000000053,
          "durationTicks": 60,
          "midi": 65,
          "name": "F4",
          "ticks": 9600,
          "time": 25.26316,
          "velocity": 0.5039370078740157
        },
        {
          "duration": 0.15789475000000053,
          "durationTicks": 60,
          "midi": 58,
          "name": "A#3",
          "ticks": 9660,
          "time": 25.42105475,
          "velocity": 0.5039370078740157
        },
        {
          "duration": 0.15789475000000053,
          "durationTicks": 60,
          "midi": 66,
          "name": "F#4",
          "ticks": 9720,
          "time": 25.5789495,
          "velocity": 0.5039370078740157
        },
        {
          "duration": 0.15789475000000053,
          "durationTicks": 60,
          "midi": 58,
          "name": "A#3",
          "ticks": 9780,
          "time": 25.73684425,
          "velocity": 0.5039370078740157
        },
        {
          "duration": 0.15789475000000053,
          "durationTicks": 60,
          "midi": 66,
          "name": "F#4",
          "ticks": 9840,
          "time": 25.894739,
          "velocity": 0.5039370078740157
        },
        {
          "duration": 0.15789474999999698,
          "durationTicks": 60,
          "midi": 58,
          "name": "A#3",
          "ticks": 9900,
          "time": 26.052633750000002,
          "velocity": 0.5039370078740157
        },
        {
          "duration": 0.15789475000000053,
          "durationTicks": 60,
          "midi": 66,
          "name": "F#4",
          "ticks": 9960,
          "time": 26.2105285,
          "velocity": 0.5039370078740157
        },
        {
          "duration": 0.15789475000000053,
          "durationTicks": 60,
          "midi": 58,
          "name": "A#3",
          "ticks": 10020,
          "time": 26.36842325,
          "velocity": 0.5039370078740157
        },
        {
          "duration": 0.15789475000000053,
          "durationTicks": 60,
          "midi": 65,
          "name": "F4",
          "ticks": 10080,
          "time": 26.526318,
          "velocity": 0.5039370078740157
        },
        {
          "duration": 0.15789475000000053,
          "durationTicks": 60,
          "midi": 58,
          "name": "A#3",
          "ticks": 10140,
          "time": 26.68421275,
          "velocity": 0.5039370078740157
        },
        {
          "duration": 0.15789475000000053,
          "durationTicks": 60,
          "midi": 65,
          "name": "F4",
          "ticks": 10200,
          "time": 26.8421075,
          "velocity": 0.5039370078740157
        },
        {
          "duration": 0.15789474999999698,
          "durationTicks": 60,
          "midi": 58,
          "name": "A#3",
          "ticks": 10260,
          "time": 27.00000225,
          "velocity": 0.5039370078740157
        },
        {
          "duration": 0.15789475000000053,
          "durationTicks": 60,
          "midi": 65,
          "name": "F4",
          "ticks": 10320,
          "time": 27.157897,
          "velocity": 0.5039370078740157
        },
        {
          "duration": 0.15789475000000053,
          "durationTicks": 60,
          "midi": 58,
          "name": "A#3",
          "ticks": 10380,
          "time": 27.31579175,
          "velocity": 0.5039370078740157
        },
        {
          "duration": 0.15789475000000053,
          "durationTicks": 60,
          "midi": 63,
          "name": "D#4",
          "ticks": 10440,
          "time": 27.4736865,
          "velocity": 0.5039370078740157
        },
        {
          "duration": 0.15789475000000053,
          "durationTicks": 60,
          "midi": 61,
          "name": "C#4",
          "ticks": 10500,
          "time": 27.63158125,
          "velocity": 0.5039370078740157
        },
        {
          "duration": 0.15789475000000053,
          "durationTicks": 60,
          "midi": 60,
          "name": "C4",
          "ticks": 10560,
          "time": 27.789476,
          "velocity": 0.5039370078740157
        },
        {
          "duration": 0.15789475000000053,
          "durationTicks": 60,
          "midi": 61,
          "name": "C#4",
          "ticks": 10620,
          "time": 27.94737075,
          "velocity": 0.5039370078740157
        },
        {
          "duration": 0.15789474999999698,
          "durationTicks": 60,
          "midi": 63,
          "name": "D#4",
          "ticks": 10680,
          "time": 28.1052655,
          "velocity": 0.5039370078740157
        },
        {
          "duration": 0.15789475000000053,
          "durationTicks": 60,
          "midi": 60,
          "name": "C4",
          "ticks": 10740,
          "time": 28.26316025,
          "velocity": 0.5039370078740157
        },
        {
          "duration": 0.15789475000000053,
          "durationTicks": 60,
          "midi": 61,
          "name": "C#4",
          "ticks": 10800,
          "time": 28.421055,
          "velocity": 0.5039370078740157
        },
        {
          "duration": 0.15789475000000053,
          "durationTicks": 60,
          "midi": 60,
          "name": "C4",
          "ticks": 10860,
          "time": 28.57894975,
          "velocity": 0.5039370078740157
        },
        {
          "duration": 0.15789475000000053,
          "durationTicks": 60,
          "midi": 58,
          "name": "A#3",
          "ticks": 10920,
          "time": 28.7368445,
          "velocity": 0.5039370078740157
        },
        {
          "duration": 0.15789475000000053,
          "durationTicks": 60,
          "midi": 60,
          "name": "C4",
          "ticks": 10980,
          "time": 28.89473925,
          "velocity": 0.5039370078740157
        },
        {
          "duration": 0.15789475000000053,
          "durationTicks": 60,
          "midi": 61,
          "name": "C#4",
          "ticks": 11040,
          "time": 29.052634,
          "velocity": 0.5039370078740157
        },
        {
          "duration": 0.15789474999999698,
          "durationTicks": 60,
          "midi": 58,
          "name": "A#3",
          "ticks": 11100,
          "time": 29.21052875,
          "velocity": 0.5039370078740157
        },
        {
          "duration": 0.15789475000000053,
          "durationTicks": 60,
          "midi": 64,
          "name": "E4",
          "ticks": 11160,
          "time": 29.3684235,
          "velocity": 0.5039370078740157
        },
        {
          "duration": 0.15789475000000053,
          "durationTicks": 60,
          "midi": 62,
          "name": "D4",
          "ticks": 11220,
          "time": 29.52631825,
          "velocity": 0.5039370078740157
        },
        {
          "duration": 0.15789475000000053,
          "durationTicks": 60,
          "midi": 60,
          "name": "C4",
          "ticks": 11280,
          "time": 29.684213,
          "velocity": 0.5039370078740157
        },
        {
          "duration": 0.15789475000000053,
          "durationTicks": 60,
          "midi": 62,
          "name": "D4",
          "ticks": 11340,
          "time": 29.84210775,
          "velocity": 0.5039370078740157
        },
        {
          "duration": 0.15789475000000053,
          "durationTicks": 60,
          "midi": 64,
          "name": "E4",
          "ticks": 11400,
          "time": 30.0000025,
          "velocity": 0.5039370078740157
        },
        {
          "duration": 0.15789475000000053,
          "durationTicks": 60,
          "midi": 60,
          "name": "C4",
          "ticks": 11460,
          "time": 30.15789725,
          "velocity": 0.5039370078740157
        },
        {
          "duration": 0.15789474999999698,
          "durationTicks": 60,
          "midi": 65,
          "name": "F4",
          "ticks": 11520,
          "time": 30.315792000000002,
          "velocity": 0.5039370078740157
        },
        {
          "duration": 0.15789475000000053,
          "durationTicks": 60,
          "midi": 64,
          "name": "E4",
          "ticks": 11580,
          "time": 30.47368675,
          "velocity": 0.5039370078740157
        },
        {
          "duration": 0.15789475000000053,
          "durationTicks": 60,
          "midi": 65,
          "name": "F4",
          "ticks": 11640,
          "time": 30.6315815,
          "velocity": 0.5039370078740157
        },
        {
          "duration": 0.15789475000000053,
          "durationTicks": 60,
          "midi": 67,
          "name": "G4",
          "ticks": 11700,
          "time": 30.78947625,
          "velocity": 0.5039370078740157
        },
        {
          "duration": 0.15789475000000053,
          "durationTicks": 60,
          "midi": 65,
          "name": "F4",
          "ticks": 11760,
          "time": 30.947371,
          "velocity": 0.5039370078740157
        },
        {
          "duration": 0.15789475000000053,
          "durationTicks": 60,
          "midi": 63,
          "name": "D#4",
          "ticks": 11820,
          "time": 31.10526575,
          "velocity": 0.5039370078740157
        },
        {
          "duration": 0.15789474999999698,
          "durationTicks": 60,
          "midi": 62,
          "name": "D4",
          "ticks": 11880,
          "time": 31.2631605,
          "velocity": 0.5039370078740157
        },
        {
          "duration": 0.15789475000000053,
          "durationTicks": 60,
          "midi": 60,
          "name": "C4",
          "ticks": 11940,
          "time": 31.42105525,
          "velocity": 0.5039370078740157
        },
        {
          "duration": 0.15789475000000053,
          "durationTicks": 60,
          "midi": 58,
          "name": "A#3",
          "ticks": 12000,
          "time": 31.57895,
          "velocity": 0.5039370078740157
        },
        {
          "duration": 0.15789475000000053,
          "durationTicks": 60,
          "midi": 60,
          "name": "C4",
          "ticks": 12060,
          "time": 31.73684475,
          "velocity": 0.5039370078740157
        },
        {
          "duration": 0.15789474999999698,
          "durationTicks": 60,
          "midi": 62,
          "name": "D4",
          "ticks": 12120,
          "time": 31.8947395,
          "velocity": 0.5039370078740157
        },
        {
          "duration": 0.15789475000000408,
          "durationTicks": 60,
          "midi": 58,
          "name": "A#3",
          "ticks": 12180,
          "time": 32.05263425,
          "velocity": 0.5039370078740157
        },
        {
          "duration": 0.31578950000000106,
          "durationTicks": 120,
          "midi": 63,
          "name": "D#4",
          "ticks": 12240,
          "time": 32.210529,
          "velocity": 0.5039370078740157
        },
        {
          "duration": 0.31578950000000106,
          "durationTicks": 120,
          "midi": 51,
          "name": "D#3",
          "ticks": 12360,
          "time": 32.5263185,
          "velocity": 0.5039370078740157
        },
        {
          "duration": 0.631578999999995,
          "durationTicks": 240,
          "midi": 63,
          "name": "D#4",
          "ticks": 12480,
          "time": 32.842108,
          "velocity": 0.5039370078740157
        },
        {
          "duration": 0.31578950000000106,
          "durationTicks": 120,
          "midi": 61,
          "name": "C#4",
          "ticks": 12720,
          "time": 33.473687,
          "velocity": 0.5039370078740157
        },
        {
          "duration": 0.31578950000000106,
          "durationTicks": 120,
          "midi": 60,
          "name": "C4",
          "ticks": 12840,
          "time": 33.7894765,
          "velocity": 0.5039370078740157
        },
        {
          "duration": 0.31578950000000106,
          "durationTicks": 120,
          "midi": 61,
          "name": "C#4",
          "ticks": 12960,
          "time": 34.105266,
          "velocity": 0.5039370078740157
        },
        {
          "duration": 0.31578950000000106,
          "durationTicks": 120,
          "midi": 49,
          "name": "C#3",
          "ticks": 13080,
          "time": 34.4210555,
          "velocity": 0.5039370078740157
        },
        {
          "duration": 0.631578999999995,
          "durationTicks": 240,
          "midi": 61,
          "name": "C#4",
          "ticks": 13200,
          "time": 34.736845,
          "velocity": 0.5039370078740157
        },
        {
          "duration": 0.31578950000000106,
          "durationTicks": 120,
          "midi": 60,
          "name": "C4",
          "ticks": 13440,
          "time": 35.368424,
          "velocity": 0.5039370078740157
        },
        {
          "duration": 0.31578950000000106,
          "durationTicks": 120,
          "midi": 58,
          "name": "A#3",
          "ticks": 13560,
          "time": 35.6842135,
          "velocity": 0.5039370078740157
        },
        {
          "duration": 0.15789475000000408,
          "durationTicks": 60,
          "midi": 60,
          "name": "C4",
          "ticks": 13680,
          "time": 36.000003,
          "velocity": 0.5039370078740157
        },
        {
          "duration": 0.15789474999999698,
          "durationTicks": 60,
          "midi": 58,
          "name": "A#3",
          "ticks": 13740,
          "time": 36.157897750000004,
          "velocity": 0.5039370078740157
        },
        {
          "duration": 0.15789474999999698,
          "durationTicks": 60,
          "midi": 56,
          "name": "G#3",
          "ticks": 13800,
          "time": 36.3157925,
          "velocity": 0.5039370078740157
        },
        {
          "duration": 0.15789475000000408,
          "durationTicks": 60,
          "midi": 58,
          "name": "A#3",
          "ticks": 13860,
          "time": 36.47368725,
          "velocity": 0.5039370078740157
        },
        {
          "duration": 0.15789474999999698,
          "durationTicks": 60,
          "midi": 60,
          "name": "C4",
          "ticks": 13920,
          "time": 36.631582,
          "velocity": 0.5039370078740157
        },
        {
          "duration": 0.15789475000000408,
          "durationTicks": 60,
          "midi": 56,
          "name": "G#3",
          "ticks": 13980,
          "time": 36.78947675,
          "velocity": 0.5039370078740157
        },
        {
          "duration": 0.15789474999999698,
          "durationTicks": 60,
          "midi": 62,
          "name": "D4",
          "ticks": 14040,
          "time": 36.9473715,
          "velocity": 0.5039370078740157
        },
        {
          "duration": 0.15789474999999698,
          "durationTicks": 60,
          "midi": 60,
          "name": "C4",
          "ticks": 14100,
          "time": 37.10526625,
          "velocity": 0.5039370078740157
        },
        {
          "duration": 0.15789475000000408,
          "durationTicks": 60,
          "midi": 58,
          "name": "A#3",
          "ticks": 14160,
          "time": 37.263161,
          "velocity": 0.5039370078740157
        },
        {
          "duration": 0.15789474999999698,
          "durationTicks": 60,
          "midi": 60,
          "name": "C4",
          "ticks": 14220,
          "time": 37.42105575,
          "velocity": 0.5039370078740157
        },
        {
          "duration": 0.15789475000000408,
          "durationTicks": 60,
          "midi": 62,
          "name": "D4",
          "ticks": 14280,
          "time": 37.5789505,
          "velocity": 0.5039370078740157
        },
        {
          "duration": 0.15789474999999698,
          "durationTicks": 60,
          "midi": 58,
          "name": "A#3",
          "ticks": 14340,
          "time": 37.73684525,
          "velocity": 0.5039370078740157
        },
        {
          "duration": 0.15789475000000408,
          "durationTicks": 60,
          "midi": 63,
          "name": "D#4",
          "ticks": 14400,
          "time": 37.89474,
          "velocity": 0.5039370078740157
        },
        {
          "duration": 0.15789474999999698,
          "durationTicks": 60,
          "midi": 62,
          "name": "D4",
          "ticks": 14460,
          "time": 38.05263475,
          "velocity": 0.5039370078740157
        },
        {
          "duration": 0.15789474999999698,
          "durationTicks": 60,
          "midi": 63,
          "name": "D#4",
          "ticks": 14520,
          "time": 38.2105295,
          "velocity": 0.5039370078740157
        },
        {
          "duration": 0.15789475000000408,
          "durationTicks": 60,
          "midi": 65,
          "name": "F4",
          "ticks": 14580,
          "time": 38.36842425,
          "velocity": 0.5039370078740157
        },
        {
          "duration": 0.15789474999999698,
          "durationTicks": 60,
          "midi": 63,
          "name": "D#4",
          "ticks": 14640,
          "time": 38.526319,
          "velocity": 0.5039370078740157
        },
        {
          "duration": 0.15789475000000408,
          "durationTicks": 60,
          "midi": 61,
          "name": "C#4",
          "ticks": 14700,
          "time": 38.68421375,
          "velocity": 0.5039370078740157
        },
        {
          "duration": 0.15789474999999698,
          "durationTicks": 60,
          "midi": 60,
          "name": "C4",
          "ticks": 14760,
          "time": 38.8421085,
          "velocity": 0.5039370078740157
        },
        {
          "duration": 0.15789475000000408,
          "durationTicks": 60,
          "midi": 58,
          "name": "A#3",
          "ticks": 14820,
          "time": 39.00000325,
          "velocity": 0.5039370078740157
        },
        {
          "duration": 0.15789474999999698,
          "durationTicks": 60,
          "midi": 56,
          "name": "G#3",
          "ticks": 14880,
          "time": 39.157898,
          "velocity": 0.5039370078740157
        },
        {
          "duration": 0.15789474999999698,
          "durationTicks": 60,
          "midi": 58,
          "name": "A#3",
          "ticks": 14940,
          "time": 39.31579275,
          "velocity": 0.5039370078740157
        },
        {
          "duration": 0.15789475000000408,
          "durationTicks": 60,
          "midi": 60,
          "name": "C4",
          "ticks": 15000,
          "time": 39.4736875,
          "velocity": 0.5039370078740157
        },
        {
          "duration": 0.15789474999999698,
          "durationTicks": 60,
          "midi": 56,
          "name": "G#3",
          "ticks": 15060,
          "time": 39.63158225,
          "velocity": 0.5039370078740157
        },
        {
          "duration": 0.31578950000000106,
          "durationTicks": 120,
          "midi": 61,
          "name": "C#4",
          "ticks": 15120,
          "time": 39.789477,
          "velocity": 0.5039370078740157
        },
        {
          "duration": 0.31578950000000106,
          "durationTicks": 120,
          "midi": 49,
          "name": "C#3",
          "ticks": 15240,
          "time": 40.1052665,
          "velocity": 0.5039370078740157
        },
        {
          "duration": 0.6315790000000021,
          "durationTicks": 240,
          "midi": 61,
          "name": "C#4",
          "ticks": 15360,
          "time": 40.421056,
          "velocity": 0.5039370078740157
        },
        {
          "duration": 0.31578950000000106,
          "durationTicks": 120,
          "midi": 59,
          "name": "B3",
          "ticks": 15600,
          "time": 41.052635,
          "velocity": 0.5039370078740157
        },
        {
          "duration": 0.31578949999999395,
          "durationTicks": 120,
          "midi": 58,
          "name": "A#3",
          "ticks": 15720,
          "time": 41.3684245,
          "velocity": 0.5039370078740157
        },
        {
          "duration": 0.31578950000000106,
          "durationTicks": 120,
          "midi": 59,
          "name": "B3",
          "ticks": 15840,
          "time": 41.684214,
          "velocity": 0.5039370078740157
        },
        {
          "duration": 0.31578950000000106,
          "durationTicks": 120,
          "midi": 47,
          "name": "B2",
          "ticks": 15960,
          "time": 42.0000035,
          "velocity": 0.5039370078740157
        },
        {
          "duration": 0.6315790000000021,
          "durationTicks": 240,
          "midi": 59,
          "name": "B3",
          "ticks": 16080,
          "time": 42.315793,
          "velocity": 0.5039370078740157
        },
        {
          "duration": 0.31578950000000106,
          "durationTicks": 120,
          "midi": 58,
          "name": "A#3",
          "ticks": 16320,
          "time": 42.947372,
          "velocity": 0.5039370078740157
        },
        {
          "duration": 0.31578950000000106,
          "durationTicks": 120,
          "midi": 56,
          "name": "G#3",
          "ticks": 16440,
          "time": 43.2631615,
          "velocity": 0.5039370078740157
        },
        {
          "duration": 0.15789474999999698,
          "durationTicks": 60,
          "midi": 58,
          "name": "A#3",
          "ticks": 16560,
          "time": 43.578951,
          "velocity": 0.5039370078740157
        },
        {
          "duration": 0.15789474999999698,
          "durationTicks": 60,
          "midi": 54,
          "name": "F#3",
          "ticks": 16620,
          "time": 43.73684575,
          "velocity": 0.5039370078740157
        },
        {
          "duration": 0.15789475000000408,
          "durationTicks": 60,
          "midi": 49,
          "name": "C#3",
          "ticks": 16680,
          "time": 43.8947405,
          "velocity": 0.5039370078740157
        },
        {
          "duration": 0.15789474999999698,
          "durationTicks": 60,
          "midi": 54,
          "name": "F#3",
          "ticks": 16740,
          "time": 44.05263525,
          "velocity": 0.5039370078740157
        },
        {
          "duration": 0.15789475000000408,
          "durationTicks": 60,
          "midi": 58,
          "name": "A#3",
          "ticks": 16800,
          "time": 44.21053,
          "velocity": 0.5039370078740157
        },
        {
          "duration": 0.15789474999999698,
          "durationTicks": 60,
          "midi": 54,
          "name": "F#3",
          "ticks": 16860,
          "time": 44.36842475,
          "velocity": 0.5039370078740157
        },
        {
          "duration": 0.15789474999999698,
          "durationTicks": 60,
          "midi": 59,
          "name": "B3",
          "ticks": 16920,
          "time": 44.5263195,
          "velocity": 0.5039370078740157
        },
        {
          "duration": 0.15789475000000408,
          "durationTicks": 60,
          "midi": 54,
          "name": "F#3",
          "ticks": 16980,
          "time": 44.68421425,
          "velocity": 0.5039370078740157
        },
        {
          "duration": 0.15789474999999698,
          "durationTicks": 60,
          "midi": 59,
          "name": "B3",
          "ticks": 17040,
          "time": 44.842109,
          "velocity": 0.5039370078740157
        },
        {
          "duration": 0.15789475000000408,
          "durationTicks": 60,
          "midi": 54,
          "name": "F#3",
          "ticks": 17100,
          "time": 45.00000375,
          "velocity": 0.5039370078740157
        },
        {
          "duration": 0.15789474999999698,
          "durationTicks": 60,
          "midi": 59,
          "name": "B3",
          "ticks": 17160,
          "time": 45.1578985,
          "velocity": 0.5039370078740157
        },
        {
          "duration": 0.15789475000000408,
          "durationTicks": 60,
          "midi": 54,
          "name": "F#3",
          "ticks": 17220,
          "time": 45.31579325,
          "velocity": 0.5039370078740157
        },
        {
          "duration": 0.15789474999999698,
          "durationTicks": 60,
          "midi": 61,
          "name": "C#4",
          "ticks": 17280,
          "time": 45.473688,
          "velocity": 0.5039370078740157
        },
        {
          "duration": 0.15789474999999698,
          "durationTicks": 60,
          "midi": 54,
          "name": "F#3",
          "ticks": 17340,
          "time": 45.63158275,
          "velocity": 0.5039370078740157
        },
        {
          "duration": 0.15789475000000408,
          "durationTicks": 60,
          "midi": 61,
          "name": "C#4",
          "ticks": 17400,
          "time": 45.7894775,
          "velocity": 0.5039370078740157
        },
        {
          "duration": 0.15789474999999698,
          "durationTicks": 60,
          "midi": 54,
          "name": "F#3",
          "ticks": 17460,
          "time": 45.94737225,
          "velocity": 0.5039370078740157
        },
        {
          "duration": 0.15789475000000408,
          "durationTicks": 60,
          "midi": 61,
          "name": "C#4",
          "ticks": 17520,
          "time": 46.105267,
          "velocity": 0.5039370078740157
        },
        {
          "duration": 0.15789474999999698,
          "durationTicks": 60,
          "midi": 54,
          "name": "F#3",
          "ticks": 17580,
          "time": 46.26316175,
          "velocity": 0.5039370078740157
        },
        {
          "duration": 0.15789475000000408,
          "durationTicks": 60,
          "midi": 63,
          "name": "D#4",
          "ticks": 17640,
          "time": 46.4210565,
          "velocity": 0.5039370078740157
        },
        {
          "duration": 0.15789474999999698,
          "durationTicks": 60,
          "midi": 54,
          "name": "F#3",
          "ticks": 17700,
          "time": 46.57895125,
          "velocity": 0.5039370078740157
        },
        {
          "duration": 0.15789474999999698,
          "durationTicks": 60,
          "midi": 63,
          "name": "D#4",
          "ticks": 17760,
          "time": 46.736846,
          "velocity": 0.5039370078740157
        },
        {
          "duration": 0.15789475000000408,
          "durationTicks": 60,
          "midi": 54,
          "name": "F#3",
          "ticks": 17820,
          "time": 46.89474075,
          "velocity": 0.5039370078740157
        },
        {
          "duration": 0.15789474999999698,
          "durationTicks": 60,
          "midi": 63,
          "name": "D#4",
          "ticks": 17880,
          "time": 47.0526355,
          "velocity": 0.5039370078740157
        },
        {
          "duration": 0.15789475000000408,
          "durationTicks": 60,
          "midi": 54,
          "name": "F#3",
          "ticks": 17940,
          "time": 47.21053025,
          "velocity": 0.5039370078740157
        },
        {
          "duration": 0.15789474999999698,
          "durationTicks": 60,
          "midi": 61,
          "name": "C#4",
          "ticks": 18000,
          "time": 47.368425,
          "velocity": 0.5039370078740157
        },
        {
          "duration": 0.15789475000000408,
          "durationTicks": 60,
          "midi": 54,
          "name": "F#3",
          "ticks": 18060,
          "time": 47.52631975,
          "velocity": 0.5039370078740157
        },
        {
          "duration": 0.15789474999999698,
          "durationTicks": 60,
          "midi": 61,
          "name": "C#4",
          "ticks": 18120,
          "time": 47.6842145,
          "velocity": 0.5039370078740157
        },
        {
          "duration": 0.15789474999999698,
          "durationTicks": 60,
          "midi": 54,
          "name": "F#3",
          "ticks": 18180,
          "time": 47.84210925,
          "velocity": 0.5039370078740157
        },
        {
          "duration": 0.15789475000000408,
          "durationTicks": 60,
          "midi": 61,
          "name": "C#4",
          "ticks": 18240,
          "time": 48.000004,
          "velocity": 0.5039370078740157
        },
        {
          "duration": 0.15789474999999698,
          "durationTicks": 60,
          "midi": 54,
          "name": "F#3",
          "ticks": 18300,
          "time": 48.15789875,
          "velocity": 0.5039370078740157
        },
        {
          "duration": 0.15789475000000408,
          "durationTicks": 60,
          "midi": 59,
          "name": "B3",
          "ticks": 18360,
          "time": 48.3157935,
          "velocity": 0.5039370078740157
        },
        {
          "duration": 0.15789474999999698,
          "durationTicks": 60,
          "midi": 58,
          "name": "A#3",
          "ticks": 18420,
          "time": 48.47368825,
          "velocity": 0.5039370078740157
        },
        {
          "duration": 0.15789475000000408,
          "durationTicks": 60,
          "midi": 56,
          "name": "G#3",
          "ticks": 18480,
          "time": 48.631583,
          "velocity": 0.5039370078740157
        },
        {
          "duration": 0.15789474999999698,
          "durationTicks": 60,
          "midi": 58,
          "name": "A#3",
          "ticks": 18540,
          "time": 48.78947775,
          "velocity": 0.5039370078740157
        },
        {
          "duration": 0.15789474999999698,
          "durationTicks": 60,
          "midi": 59,
          "name": "B3",
          "ticks": 18600,
          "time": 48.9473725,
          "velocity": 0.5039370078740157
        },
        {
          "duration": 0.15789475000000408,
          "durationTicks": 60,
          "midi": 56,
          "name": "G#3",
          "ticks": 18660,
          "time": 49.10526725,
          "velocity": 0.5039370078740157
        },
        {
          "duration": 0.15789474999999698,
          "durationTicks": 60,
          "midi": 58,
          "name": "A#3",
          "ticks": 18720,
          "time": 49.263162,
          "velocity": 0.5039370078740157
        },
        {
          "duration": 0.15789475000000408,
          "durationTicks": 60,
          "midi": 56,
          "name": "G#3",
          "ticks": 18780,
          "time": 49.42105675,
          "velocity": 0.5039370078740157
        },
        {
          "duration": 0.15789474999999698,
          "durationTicks": 60,
          "midi": 54,
          "name": "F#3",
          "ticks": 18840,
          "time": 49.5789515,
          "velocity": 0.5039370078740157
        },
        {
          "duration": 0.15789475000000408,
          "durationTicks": 60,
          "midi": 56,
          "name": "G#3",
          "ticks": 18900,
          "time": 49.73684625,
          "velocity": 0.5039370078740157
        },
        {
          "duration": 0.15789474999999698,
          "durationTicks": 60,
          "midi": 58,
          "name": "A#3",
          "ticks": 18960,
          "time": 49.894741,
          "velocity": 0.5039370078740157
        },
        {
          "duration": 0.15789474999999698,
          "durationTicks": 60,
          "midi": 54,
          "name": "F#3",
          "ticks": 19020,
          "time": 50.05263575,
          "velocity": 0.5039370078740157
        },
        {
          "duration": 0.15789475000000408,
          "durationTicks": 60,
          "midi": 56,
          "name": "G#3",
          "ticks": 19080,
          "time": 50.2105305,
          "velocity": 0.5039370078740157
        },
        {
          "duration": 0.15789474999999698,
          "durationTicks": 60,
          "midi": 58,
          "name": "A#3",
          "ticks": 19140,
          "time": 50.36842525,
          "velocity": 0.5039370078740157
        },
        {
          "duration": 0.15789475000000408,
          "durationTicks": 60,
          "midi": 56,
          "name": "G#3",
          "ticks": 19200,
          "time": 50.52632,
          "velocity": 0.5039370078740157
        },
        {
          "duration": 0.15789474999999698,
          "durationTicks": 60,
          "midi": 54,
          "name": "F#3",
          "ticks": 19260,
          "time": 50.68421475,
          "velocity": 0.5039370078740157
        },
        {
          "duration": 0.15789475000000408,
          "durationTicks": 60,
          "midi": 53,
          "name": "F3",
          "ticks": 19320,
          "time": 50.8421095,
          "velocity": 0.5039370078740157
        },
        {
          "duration": 0.15789474999999698,
          "durationTicks": 60,
          "midi": 51,
          "name": "D#3",
          "ticks": 19380,
          "time": 51.00000425,
          "velocity": 0.5039370078740157
        },
        {
          "duration": 0.6315790000000021,
          "durationTicks": 240,
          "midi": 49,
          "name": "C#3",
          "ticks": 19440,
          "time": 51.157899,
          "velocity": 0.5039370078740157
        },
        {
          "duration": 0.31578950000000106,
          "durationTicks": 120,
          "midi": 61,
          "name": "C#4",
          "ticks": 19680,
          "time": 51.789478,
          "velocity": 0.5039370078740157
        },
        {
          "duration": 0.631578999999995,
          "durationTicks": 240,
          "midi": 51,
          "name": "D#3",
          "ticks": 19800,
          "time": 52.105267500000004,
          "velocity": 0.5039370078740157
        },
        {
          "duration": 0.31578950000000106,
          "durationTicks": 120,
          "midi": 61,
          "name": "C#4",
          "ticks": 20040,
          "time": 52.7368465,
          "velocity": 0.5039370078740157
        },
        {
          "duration": 0.6315790000000021,
          "durationTicks": 240,
          "midi": 53,
          "name": "F3",
          "ticks": 20160,
          "time": 53.052636,
          "velocity": 0.5039370078740157
        },
        {
          "duration": 0.31578950000000106,
          "durationTicks": 120,
          "midi": 61,
          "name": "C#4",
          "ticks": 20400,
          "time": 53.684215,
          "velocity": 0.5039370078740157
        },
        {
          "duration": 0.631578999999995,
          "durationTicks": 240,
          "midi": 54,
          "name": "F#3",
          "ticks": 20520,
          "time": 54.0000045,
          "velocity": 0.5039370078740157
        },
        {
          "duration": 0.31578950000000106,
          "durationTicks": 120,
          "midi": 61,
          "name": "C#4",
          "ticks": 20760,
          "time": 54.6315835,
          "velocity": 0.5039370078740157
        },
        {
          "duration": 0.6315790000000021,
          "durationTicks": 240,
          "midi": 53,
          "name": "F3",
          "ticks": 20880,
          "time": 54.947373,
          "velocity": 0.5039370078740157
        },
        {
          "duration": 0.31578950000000106,
          "durationTicks": 120,
          "midi": 61,
          "name": "C#4",
          "ticks": 21120,
          "time": 55.578952,
          "velocity": 0.5039370078740157
        },
        {
          "duration": 0.631578999999995,
          "durationTicks": 240,
          "midi": 51,
          "name": "D#3",
          "ticks": 21240,
          "time": 55.8947415,
          "velocity": 0.5039370078740157
        },
        {
          "duration": 0.31578950000000106,
          "durationTicks": 120,
          "midi": 60,
          "name": "C4",
          "ticks": 21480,
          "time": 56.5263205,
          "velocity": 0.5039370078740157
        },
        {
          "duration": 0.6315790000000021,
          "durationTicks": 240,
          "midi": 49,
          "name": "C#3",
          "ticks": 21600,
          "time": 56.84211,
          "velocity": 0.5039370078740157
        },
        {
          "duration": 0.31578950000000106,
          "durationTicks": 120,
          "midi": 61,
          "name": "C#4",
          "ticks": 21840,
          "time": 57.473689,
          "velocity": 0.5039370078740157
        },
        {
          "duration": 0.31578950000000106,
          "durationTicks": 120,
          "midi": 54,
          "name": "F#3",
          "ticks": 21960,
          "time": 57.7894785,
          "velocity": 0.5039370078740157
        },
        {
          "duration": 0.31578950000000106,
          "durationTicks": 120,
          "midi": 53,
          "name": "F3",
          "ticks": 22080,
          "time": 58.105268,
          "velocity": 0.5039370078740157
        },
        {
          "duration": 0.31578949999999395,
          "durationTicks": 120,
          "midi": 51,
          "name": "D#3",
          "ticks": 22200,
          "time": 58.4210575,
          "velocity": 0.5039370078740157
        },
        {
          "duration": 0.31578950000000106,
          "durationTicks": 120,
          "midi": 56,
          "name": "G#3",
          "ticks": 22320,
          "time": 58.736847,
          "velocity": 0.5039370078740157
        },
        {
          "duration": 0.31578950000000106,
          "durationTicks": 120,
          "midi": 66,
          "name": "F#4",
          "ticks": 22440,
          "time": 59.0526365,
          "velocity": 0.5039370078740157
        },
        {
          "duration": 0.31578950000000106,
          "durationTicks": 120,
          "midi": 63,
          "name": "D#4",
          "ticks": 22560,
          "time": 59.368426,
          "velocity": 0.5039370078740157
        },
        {
          "duration": 0.31578950000000106,
          "durationTicks": 120,
          "midi": 56,
          "name": "G#3",
          "ticks": 22680,
          "time": 59.6842155,
          "velocity": 0.5039370078740157
        },
        {
          "duration": 0.31578950000000106,
          "durationTicks": 120,
          "midi": 66,
          "name": "F#4",
          "ticks": 22800,
          "time": 60.000005,
          "velocity": 0.5039370078740157
        },
        {
          "duration": 0.31578950000000106,
          "durationTicks": 120,
          "midi": 63,
          "name": "D#4",
          "ticks": 22920,
          "time": 60.3157945,
          "velocity": 0.5039370078740157
        },
        {
          "duration": 0.31578949999999395,
          "durationTicks": 120,
          "midi": 56,
          "name": "G#3",
          "ticks": 23040,
          "time": 60.631584000000004,
          "velocity": 0.5039370078740157
        },
        {
          "duration": 0.31578950000000106,
          "durationTicks": 120,
          "midi": 65,
          "name": "F4",
          "ticks": 23160,
          "time": 60.9473735,
          "velocity": 0.5039370078740157
        },
        {
          "duration": 0.31578950000000106,
          "durationTicks": 120,
          "midi": 61,
          "name": "C#4",
          "ticks": 23280,
          "time": 61.263163,
          "velocity": 0.5039370078740157
        },
        {
          "duration": 0.31578950000000106,
          "durationTicks": 120,
          "midi": 56,
          "name": "G#3",
          "ticks": 23400,
          "time": 61.5789525,
          "velocity": 0.5039370078740157
        },
        {
          "duration": 0.31578950000000106,
          "durationTicks": 120,
          "midi": 65,
          "name": "F4",
          "ticks": 23520,
          "time": 61.894742,
          "velocity": 0.5039370078740157
        },
        {
          "duration": 0.31578950000000106,
          "durationTicks": 120,
          "midi": 61,
          "name": "C#4",
          "ticks": 23640,
          "time": 62.2105315,
          "velocity": 0.5039370078740157
        },
        {
          "duration": 0.31578949999999395,
          "durationTicks": 120,
          "midi": 56,
          "name": "G#3",
          "ticks": 23760,
          "time": 62.526321,
          "velocity": 0.5039370078740157
        },
        {
          "duration": 0.31578950000000106,
          "durationTicks": 120,
          "midi": 63,
          "name": "D#4",
          "ticks": 23880,
          "time": 62.8421105,
          "velocity": 0.5039370078740157
        },
        {
          "duration": 0.31578950000000106,
          "durationTicks": 120,
          "midi": 60,
          "name": "C4",
          "ticks": 24000,
          "time": 63.1579,
          "velocity": 0.5039370078740157
        },
        {
          "duration": 0.31578950000000106,
          "durationTicks": 120,
          "midi": 56,
          "name": "G#3",
          "ticks": 24120,
          "time": 63.4736895,
          "velocity": 0.5039370078740157
        },
        {
          "duration": 0.31578949999999395,
          "durationTicks": 120,
          "midi": 63,
          "name": "D#4",
          "ticks": 24240,
          "time": 63.789479,
          "velocity": 0.5039370078740157
        },
        {
          "duration": 0.31578950000000816,
          "durationTicks": 120,
          "midi": 60,
          "name": "C4",
          "ticks": 24360,
          "time": 64.1052685,
          "velocity": 0.5039370078740157
        },
        {
          "duration": 0.31578949999999395,
          "durationTicks": 120,
          "midi": 56,
          "name": "G#3",
          "ticks": 24480,
          "time": 64.421058,
          "velocity": 0.5039370078740157
        },
        {
          "duration": 0.31578950000000816,
          "durationTicks": 120,
          "midi": 65,
          "name": "F4",
          "ticks": 24600,
          "time": 64.7368475,
          "velocity": 0.5039370078740157
        },
        {
          "duration": 0.31578949999999395,
          "durationTicks": 120,
          "midi": 61,
          "name": "C#4",
          "ticks": 24720,
          "time": 65.052637,
          "velocity": 0.5039370078740157
        },
        {
          "duration": 0.31578950000000816,
          "durationTicks": 120,
          "midi": 56,
          "name": "G#3",
          "ticks": 24840,
          "time": 65.3684265,
          "velocity": 0.5039370078740157
        },
        {
          "duration": 0.31578949999999395,
          "durationTicks": 120,
          "midi": 65,
          "name": "F4",
          "ticks": 24960,
          "time": 65.684216,
          "velocity": 0.5039370078740157
        },
        {
          "duration": 0.31578949999999395,
          "durationTicks": 120,
          "midi": 61,
          "name": "C#4",
          "ticks": 25080,
          "time": 66.0000055,
          "velocity": 0.5039370078740157
        },
        {
          "duration": 0.31578950000000816,
          "durationTicks": 120,
          "midi": 56,
          "name": "G#3",
          "ticks": 25200,
          "time": 66.315795,
          "velocity": 0.5039370078740157
        },
        {
          "duration": 0.31578949999999395,
          "durationTicks": 120,
          "midi": 64,
          "name": "E4",
          "ticks": 25320,
          "time": 66.6315845,
          "velocity": 0.5039370078740157
        },
        {
          "duration": 0.31578950000000816,
          "durationTicks": 120,
          "midi": 61,
          "name": "C#4",
          "ticks": 25440,
          "time": 66.947374,
          "velocity": 0.5039370078740157
        },
        {
          "duration": 0.31578949999999395,
          "durationTicks": 120,
          "midi": 56,
          "name": "G#3",
          "ticks": 25560,
          "time": 67.2631635,
          "velocity": 0.5039370078740157
        },
        {
          "duration": 0.31578950000000816,
          "durationTicks": 120,
          "midi": 64,
          "name": "E4",
          "ticks": 25680,
          "time": 67.578953,
          "velocity": 0.5039370078740157
        },
        {
          "duration": 0.31578949999999395,
          "durationTicks": 120,
          "midi": 61,
          "name": "C#4",
          "ticks": 25800,
          "time": 67.8947425,
          "velocity": 0.5039370078740157
        },
        {
          "duration": 0.31578949999999395,
          "durationTicks": 120,
          "midi": 56,
          "name": "G#3",
          "ticks": 25920,
          "time": 68.210532,
          "velocity": 0.5039370078740157
        },
        {
          "duration": 0.31578950000000816,
          "durationTicks": 120,
          "midi": 63,
          "name": "D#4",
          "ticks": 26040,
          "time": 68.5263215,
          "velocity": 0.5039370078740157
        },
        {
          "duration": 0.31578949999999395,
          "durationTicks": 120,
          "midi": 60,
          "name": "C4",
          "ticks": 26160,
          "time": 68.842111,
          "velocity": 0.5039370078740157
        },
        {
          "duration": 0.31578950000000816,
          "durationTicks": 120,
          "midi": 54,
          "name": "F#3",
          "ticks": 26280,
          "time": 69.1579005,
          "velocity": 0.5039370078740157
        },
        {
          "duration": 0.31578949999999395,
          "durationTicks": 120,
          "midi": 63,
          "name": "D#4",
          "ticks": 26400,
          "time": 69.47369,
          "velocity": 0.5039370078740157
        },
        {
          "duration": 0.31578950000000816,
          "durationTicks": 120,
          "midi": 60,
          "name": "C4",
          "ticks": 26520,
          "time": 69.7894795,
          "velocity": 0.5039370078740157
        },
        {
          "duration": 0.31578949999999395,
          "durationTicks": 120,
          "midi": 53,
          "name": "F3",
          "ticks": 26640,
          "time": 70.105269,
          "velocity": 0.5039370078740157
        },
        {
          "duration": 0.31578949999999395,
          "durationTicks": 120,
          "midi": 65,
          "name": "F4",
          "ticks": 26760,
          "time": 70.4210585,
          "velocity": 0.5039370078740157
        },
        {
          "duration": 0.31578950000000816,
          "durationTicks": 120,
          "midi": 61,
          "name": "C#4",
          "ticks": 26880,
          "time": 70.736848,
          "velocity": 0.5039370078740157
        },
        {
          "duration": 0.31578949999999395,
          "durationTicks": 120,
          "midi": 56,
          "name": "G#3",
          "ticks": 27000,
          "time": 71.0526375,
          "velocity": 0.5039370078740157
        },
        {
          "duration": 0.31578950000000816,
          "durationTicks": 120,
          "midi": 53,
          "name": "F3",
          "ticks": 27120,
          "time": 71.368427,
          "velocity": 0.5039370078740157
        },
        {
          "duration": 0.31578949999999395,
          "durationTicks": 120,
          "midi": 51,
          "name": "D#3",
          "ticks": 27240,
          "time": 71.6842165,
          "velocity": 0.5039370078740157
        },
        {
          "duration": 0.31578950000000816,
          "durationTicks": 120,
          "midi": 50,
          "name": "D3",
          "ticks": 27360,
          "time": 72.000006,
          "velocity": 0.5039370078740157
        },
        {
          "duration": 0.31578949999999395,
          "durationTicks": 120,
          "midi": 53,
          "name": "F3",
          "ticks": 27480,
          "time": 72.31579550000001,
          "velocity": 0.5039370078740157
        },
        {
          "duration": 0.31578949999999395,
          "durationTicks": 120,
          "midi": 58,
          "name": "A#3",
          "ticks": 27600,
          "time": 72.631585,
          "velocity": 0.5039370078740157
        },
        {
          "duration": 0.31578950000000816,
          "durationTicks": 120,
          "midi": 62,
          "name": "D4",
          "ticks": 27720,
          "time": 72.9473745,
          "velocity": 0.5039370078740157
        },
        {
          "duration": 0.31578949999999395,
          "durationTicks": 120,
          "midi": 65,
          "name": "F4",
          "ticks": 27840,
          "time": 73.263164,
          "velocity": 0.5039370078740157
        },
        {
          "duration": 0.31578950000000816,
          "durationTicks": 120,
          "midi": 68,
          "name": "G#4",
          "ticks": 27960,
          "time": 73.5789535,
          "velocity": 0.5039370078740157
        },
        {
          "duration": 0.31578949999999395,
          "durationTicks": 120,
          "midi": 66,
          "name": "F#4",
          "ticks": 28080,
          "time": 73.894743,
          "velocity": 0.5039370078740157
        },
        {
          "duration": 0.31578949999999395,
          "durationTicks": 120,
          "midi": 63,
          "name": "D#4",
          "ticks": 28200,
          "time": 74.2105325,
          "velocity": 0.5039370078740157
        },
        {
          "duration": 0.31578950000000816,
          "durationTicks": 120,
          "midi": 58,
          "name": "A#3",
          "ticks": 28320,
          "time": 74.526322,
          "velocity": 0.5039370078740157
        },
        {
          "duration": 0.31578949999999395,
          "durationTicks": 120,
          "midi": 54,
          "name": "F#3",
          "ticks": 28440,
          "time": 74.8421115,
          "velocity": 0.5039370078740157
        },
        {
          "duration": 0.31578950000000816,
          "durationTicks": 120,
          "midi": 51,
          "name": "D#3",
          "ticks": 28560,
          "time": 75.157901,
          "velocity": 0.5039370078740157
        },
        {
          "duration": 0.31578949999999395,
          "durationTicks": 120,
          "midi": 49,
          "name": "C#3",
          "ticks": 28680,
          "time": 75.4736905,
          "velocity": 0.5039370078740157
        },
        {
          "duration": 0.31578950000000816,
          "durationTicks": 120,
          "midi": 48,
          "name": "C3",
          "ticks": 28800,
          "time": 75.78948,
          "velocity": 0.5039370078740157
        },
        {
          "duration": 0.31578949999999395,
          "durationTicks": 120,
          "midi": 51,
          "name": "D#3",
          "ticks": 28920,
          "time": 76.1052695,
          "velocity": 0.5039370078740157
        },
        {
          "duration": 0.31578949999999395,
          "durationTicks": 120,
          "midi": 56,
          "name": "G#3",
          "ticks": 29040,
          "time": 76.421059,
          "velocity": 0.5039370078740157
        },
        {
          "duration": 0.31578950000000816,
          "durationTicks": 120,
          "midi": 60,
          "name": "C4",
          "ticks": 29160,
          "time": 76.7368485,
          "velocity": 0.5039370078740157
        },
        {
          "duration": 0.31578949999999395,
          "durationTicks": 120,
          "midi": 63,
          "name": "D#4",
          "ticks": 29280,
          "time": 77.052638,
          "velocity": 0.5039370078740157
        },
        {
          "duration": 0.31578950000000816,
          "durationTicks": 120,
          "midi": 66,
          "name": "F#4",
          "ticks": 29400,
          "time": 77.3684275,
          "velocity": 0.5039370078740157
        },
        {
          "duration": 0.31578949999999395,
          "durationTicks": 120,
          "midi": 64,
          "name": "E4",
          "ticks": 29520,
          "time": 77.684217,
          "velocity": 0.5039370078740157
        },
        {
          "duration": 0.31578950000000816,
          "durationTicks": 120,
          "midi": 61,
          "name": "C#4",
          "ticks": 29640,
          "time": 78.0000065,
          "velocity": 0.5039370078740157
        },
        {
          "duration": 0.31578949999999395,
          "durationTicks": 120,
          "midi": 57,
          "name": "A3",
          "ticks": 29760,
          "time": 78.315796,
          "velocity": 0.5039370078740157
        },
        {
          "duration": 0.31578949999999395,
          "durationTicks": 120,
          "midi": 54,
          "name": "F#3",
          "ticks": 29880,
          "time": 78.6315855,
          "velocity": 0.5039370078740157
        },
        {
          "duration": 0.31578950000000816,
          "durationTicks": 120,
          "midi": 63,
          "name": "D#4",
          "ticks": 30000,
          "time": 78.947375,
          "velocity": 0.5039370078740157
        },
        {
          "duration": 0.31578949999999395,
          "durationTicks": 120,
          "midi": 60,
          "name": "C4",
          "ticks": 30120,
          "time": 79.2631645,
          "velocity": 0.5039370078740157
        },
        {
          "duration": 0.31578950000000816,
          "durationTicks": 120,
          "midi": 52,
          "name": "E3",
          "ticks": 30240,
          "time": 79.578954,
          "velocity": 0.5039370078740157
        },
        {
          "duration": 0.31578949999999395,
          "durationTicks": 120,
          "midi": 61,
          "name": "C#4",
          "ticks": 30360,
          "time": 79.8947435,
          "velocity": 0.5039370078740157
        },
        {
          "duration": 0.31578950000000816,
          "durationTicks": 120,
          "midi": 57,
          "name": "A3",
          "ticks": 30480,
          "time": 80.210533,
          "velocity": 0.5039370078740157
        },
        {
          "duration": 0.31578949999999395,
          "durationTicks": 120,
          "midi": 54,
          "name": "F#3",
          "ticks": 30600,
          "time": 80.5263225,
          "velocity": 0.5039370078740157
        },
        {
          "duration": 0.31578949999999395,
          "durationTicks": 120,
          "midi": 51,
          "name": "D#3",
          "ticks": 30720,
          "time": 80.842112,
          "velocity": 0.5039370078740157
        },
        {
          "duration": 0.31578950000000816,
          "durationTicks": 120,
          "midi": 48,
          "name": "C3",
          "ticks": 30840,
          "time": 81.1579015,
          "velocity": 0.5039370078740157
        },
        {
          "duration": 0.31578949999999395,
          "durationTicks": 120,
          "midi": 44,
          "name": "G#2",
          "ticks": 30960,
          "time": 81.473691,
          "velocity": 0.5039370078740157
        },
        {
          "duration": 0.31578950000000816,
          "durationTicks": 120,
          "midi": 54,
          "name": "F#3",
          "ticks": 31080,
          "time": 81.7894805,
          "velocity": 0.5039370078740157
        },
        {
          "duration": 0.31578949999999395,
          "durationTicks": 120,
          "midi": 51,
          "name": "D#3",
          "ticks": 31200,
          "time": 82.10527,
          "velocity": 0.5039370078740157
        },
        {
          "duration": 0.31578950000000816,
          "durationTicks": 120,
          "midi": 44,
          "name": "G#2",
          "ticks": 31320,
          "time": 82.4210595,
          "velocity": 0.5039370078740157
        },
        {
          "duration": 0.31578949999999395,
          "durationTicks": 120,
          "midi": 54,
          "name": "F#3",
          "ticks": 31440,
          "time": 82.736849,
          "velocity": 0.5039370078740157
        },
        {
          "duration": 0.31578949999999395,
          "durationTicks": 120,
          "midi": 51,
          "name": "D#3",
          "ticks": 31560,
          "time": 83.0526385,
          "velocity": 0.5039370078740157
        },
        {
          "duration": 0.31578950000000816,
          "durationTicks": 120,
          "midi": 44,
          "name": "G#2",
          "ticks": 31680,
          "time": 83.368428,
          "velocity": 0.5039370078740157
        },
        {
          "duration": 0.31578949999999395,
          "durationTicks": 120,
          "midi": 53,
          "name": "F3",
          "ticks": 31800,
          "time": 83.6842175,
          "velocity": 0.5039370078740157
        },
        {
          "duration": 0.31578950000000816,
          "durationTicks": 120,
          "midi": 49,
          "name": "C#3",
          "ticks": 31920,
          "time": 84.000007,
          "velocity": 0.5039370078740157
        },
        {
          "duration": 0.31578949999999395,
          "durationTicks": 120,
          "midi": 44,
          "name": "G#2",
          "ticks": 32040,
          "time": 84.3157965,
          "velocity": 0.5039370078740157
        },
        {
          "duration": 0.31578950000000816,
          "durationTicks": 120,
          "midi": 53,
          "name": "F3",
          "ticks": 32160,
          "time": 84.631586,
          "velocity": 0.5039370078740157
        },
        {
          "duration": 0.31578949999999395,
          "durationTicks": 120,
          "midi": 49,
          "name": "C#3",
          "ticks": 32280,
          "time": 84.9473755,
          "velocity": 0.5039370078740157
        },
        {
          "duration": 0.31578949999999395,
          "durationTicks": 120,
          "midi": 44,
          "name": "G#2",
          "ticks": 32400,
          "time": 85.263165,
          "velocity": 0.5039370078740157
        },
        {
          "duration": 0.31578950000000816,
          "durationTicks": 120,
          "midi": 51,
          "name": "D#3",
          "ticks": 32520,
          "time": 85.5789545,
          "velocity": 0.5039370078740157
        },
        {
          "duration": 0.31578949999999395,
          "durationTicks": 120,
          "midi": 48,
          "name": "C3",
          "ticks": 32640,
          "time": 85.894744,
          "velocity": 0.5039370078740157
        },
        {
          "duration": 0.31578950000000816,
          "durationTicks": 120,
          "midi": 44,
          "name": "G#2",
          "ticks": 32760,
          "time": 86.2105335,
          "velocity": 0.5039370078740157
        },
        {
          "duration": 0.31578949999999395,
          "durationTicks": 120,
          "midi": 51,
          "name": "D#3",
          "ticks": 32880,
          "time": 86.526323,
          "velocity": 0.5039370078740157
        },
        {
          "duration": 0.31578950000000816,
          "durationTicks": 120,
          "midi": 48,
          "name": "C3",
          "ticks": 33000,
          "time": 86.8421125,
          "velocity": 0.5039370078740157
        },
        {
          "duration": 0.31578949999999395,
          "durationTicks": 120,
          "midi": 44,
          "name": "G#2",
          "ticks": 33120,
          "time": 87.157902,
          "velocity": 0.5039370078740157
        },
        {
          "duration": 0.31578949999999395,
          "durationTicks": 120,
          "midi": 53,
          "name": "F3",
          "ticks": 33240,
          "time": 87.4736915,
          "velocity": 0.5039370078740157
        },
        {
          "duration": 0.31578950000000816,
          "durationTicks": 120,
          "midi": 49,
          "name": "C#3",
          "ticks": 33360,
          "time": 87.789481,
          "velocity": 0.5039370078740157
        },
        {
          "duration": 0.31578949999999395,
          "durationTicks": 120,
          "midi": 44,
          "name": "G#2",
          "ticks": 33480,
          "time": 88.1052705,
          "velocity": 0.5039370078740157
        },
        {
          "duration": 0.31578950000000816,
          "durationTicks": 120,
          "midi": 53,
          "name": "F3",
          "ticks": 33600,
          "time": 88.42106,
          "velocity": 0.5039370078740157
        },
        {
          "duration": 0.31578949999999395,
          "durationTicks": 120,
          "midi": 49,
          "name": "C#3",
          "ticks": 33720,
          "time": 88.7368495,
          "velocity": 0.5039370078740157
        },
        {
          "duration": 0.31578949999999395,
          "durationTicks": 120,
          "midi": 44,
          "name": "G#2",
          "ticks": 33840,
          "time": 89.052639,
          "velocity": 0.5039370078740157
        },
        {
          "duration": 0.31578950000000816,
          "durationTicks": 120,
          "midi": 52,
          "name": "E3",
          "ticks": 33960,
          "time": 89.3684285,
          "velocity": 0.5039370078740157
        },
        {
          "duration": 0.31578949999999395,
          "durationTicks": 120,
          "midi": 49,
          "name": "C#3",
          "ticks": 34080,
          "time": 89.684218,
          "velocity": 0.5039370078740157
        },
        {
          "duration": 0.31578950000000816,
          "durationTicks": 120,
          "midi": 44,
          "name": "G#2",
          "ticks": 34200,
          "time": 90.0000075,
          "velocity": 0.5039370078740157
        },
        {
          "duration": 0.31578949999999395,
          "durationTicks": 120,
          "midi": 52,
          "name": "E3",
          "ticks": 34320,
          "time": 90.315797,
          "velocity": 0.5039370078740157
        },
        {
          "duration": 0.31578950000000816,
          "durationTicks": 120,
          "midi": 49,
          "name": "C#3",
          "ticks": 34440,
          "time": 90.6315865,
          "velocity": 0.5039370078740157
        },
        {
          "duration": 0.15789474999999698,
          "durationTicks": 60,
          "midi": 44,
          "name": "G#2",
          "ticks": 34560,
          "time": 90.947376,
          "velocity": 0.5039370078740157
        },
        {
          "duration": 0.15789474999999698,
          "durationTicks": 60,
          "midi": 48,
          "name": "C3",
          "ticks": 34620,
          "time": 91.10527075,
          "velocity": 0.5039370078740157
        },
        {
          "duration": 0.15789474999999698,
          "durationTicks": 60,
          "midi": 51,
          "name": "D#3",
          "ticks": 34680,
          "time": 91.2631655,
          "velocity": 0.5039370078740157
        },
        {
          "duration": 0.15789474999999698,
          "durationTicks": 60,
          "midi": 61,
          "name": "C#4",
          "ticks": 34920,
          "time": 91.8947445,
          "velocity": 0.5039370078740157
        },
        {
          "duration": 0.15789474999999698,
          "durationTicks": 60,
          "midi": 64,
          "name": "E4",
          "ticks": 34980,
          "time": 92.05263925,
          "velocity": 0.5039370078740157
        },
        {
          "duration": 0.15789475000001119,
          "durationTicks": 60,
          "midi": 67,
          "name": "G4",
          "ticks": 35040,
          "time": 92.210534,
          "velocity": 0.5039370078740157
        },
        {
          "duration": 0.31578950000000816,
          "durationTicks": 120,
          "midi": 44,
          "name": "G#2",
          "ticks": 35280,
          "time": 92.842113,
          "velocity": 0.5039370078740157
        },
        {
          "duration": 0.15789475000001119,
          "durationTicks": 60,
          "midi": 66,
          "name": "F#4",
          "ticks": 35640,
          "time": 93.7894815,
          "velocity": 0.5039370078740157
        },
        {
          "duration": 0.15789474999999698,
          "durationTicks": 60,
          "midi": 63,
          "name": "D#4",
          "ticks": 35700,
          "time": 93.94737625,
          "velocity": 0.5039370078740157
        },
        {
          "duration": 0.15789474999999698,
          "durationTicks": 60,
          "midi": 60,
          "name": "C4",
          "ticks": 35760,
          "time": 94.105271,
          "velocity": 0.5039370078740157
        },
        {
          "duration": 0.15789474999999698,
          "durationTicks": 60,
          "midi": 56,
          "name": "G#3",
          "ticks": 35820,
          "time": 94.26316575,
          "velocity": 0.5039370078740157
        },
        {
          "duration": 0.15789475000001119,
          "durationTicks": 60,
          "midi": 60,
          "name": "C4",
          "ticks": 35880,
          "time": 94.4210605,
          "velocity": 0.5039370078740157
        },
        {
          "duration": 0.15789474999999698,
          "durationTicks": 60,
          "midi": 63,
          "name": "D#4",
          "ticks": 35940,
          "time": 94.57895525,
          "velocity": 0.5039370078740157
        },
        {
          "duration": 0.31578949999999395,
          "durationTicks": 120,
          "midi": 56,
          "name": "G#3",
          "ticks": 36000,
          "time": 94.73685,
          "velocity": 0.5039370078740157
        },
        {
          "duration": 0.15789474999999698,
          "durationTicks": 60,
          "midi": 58,
          "name": "A#3",
          "ticks": 36360,
          "time": 95.6842185,
          "velocity": 0.5039370078740157
        },
        {
          "duration": 0.15789474999999698,
          "durationTicks": 60,
          "midi": 55,
          "name": "G3",
          "ticks": 36420,
          "time": 95.84211325,
          "velocity": 0.5039370078740157
        },
        {
          "duration": 0.16304350000000056,
          "durationTicks": 60,
          "midi": 52,
          "name": "E3",
          "ticks": 36480,
          "time": 96.000008,
          "velocity": 0.5039370078740157
        },
        {
          "duration": 0.16304350000000056,
          "durationTicks": 60,
          "midi": 49,
          "name": "C#3",
          "ticks": 36540,
          "time": 96.1630515,
          "velocity": 0.5039370078740157
        },
        {
          "duration": 0.2196064999999976,
          "durationTicks": 60,
          "midi": 52,
          "name": "E3",
          "ticks": 36600,
          "time": 96.326095,
          "velocity": 0.5039370078740157
        },
        {
          "duration": 0.22562250000000006,
          "durationTicks": 60,
          "midi": 55,
          "name": "G3",
          "ticks": 36660,
          "time": 96.54570149999999,
          "velocity": 0.5039370078740157
        },
        {
          "duration": 1.4041745000000105,
          "durationTicks": 360,
          "midi": 44,
          "name": "G#2",
          "ticks": 36720,
          "time": 96.77132399999999,
          "velocity": 0.5039370078740157
        },
        {
          "duration": 0.37313416666667365,
          "durationTicks": 100,
          "midi": 56,
          "name": "G#3",
          "ticks": 36840,
          "time": 97.182283,
          "velocity": 0.5039370078740157
        },
        {
          "duration": 0.37313416666667365,
          "durationTicks": 100,
          "midi": 53,
          "name": "F3",
          "ticks": 36840,
          "time": 97.182283,
          "velocity": 0.5039370078740157
        },
        {
          "duration": 0.37313416666667365,
          "durationTicks": 100,
          "midi": 49,
          "name": "C#3",
          "ticks": 36840,
          "time": 97.182283,
          "velocity": 0.5039370078740157
        },
        {
          "duration": 0.4545454166666616,
          "durationTicks": 100,
          "midi": 51,
          "name": "D#3",
          "ticks": 36960,
          "time": 97.630044,
          "velocity": 0.5039370078740157
        },
        {
          "duration": 0.4545454166666616,
          "durationTicks": 100,
          "midi": 56,
          "name": "G#3",
          "ticks": 36960,
          "time": 97.630044,
          "velocity": 0.5039370078740157
        },
        {
          "duration": 0.4545454166666616,
          "durationTicks": 100,
          "midi": 54,
          "name": "F#3",
          "ticks": 36960,
          "time": 97.630044,
          "velocity": 0.5039370078740157
        },
        {
          "duration": 1.8367350000000044,
          "durationTicks": 360,
          "midi": 49,
          "name": "C#3",
          "ticks": 37080,
          "time": 98.1754985,
          "velocity": 0.5039370078740157
        },
        {
          "duration": 1.8367350000000044,
          "durationTicks": 360,
          "midi": 53,
          "name": "F3",
          "ticks": 37080,
          "time": 98.1754985,
          "velocity": 0.5039370078740157
        },
        {
          "duration": 1.8367350000000044,
          "durationTicks": 360,
          "midi": 56,
          "name": "G#3",
          "ticks": 37080,
          "time": 98.1754985,
          "velocity": 0.5039370078740157
        },
        {
          "duration": 0.03571429166666462,
          "durationTicks": 7,
          "midi": 51,
          "name": "D#3",
          "ticks": 37080,
          "time": 98.1754985,
          "velocity": 0.5039370078740157
        }
      ],
      "endOfTrackTicks": 37440
    }
  ]
}